<svg xmlns="http://www.w3.org/2000/svg" xmlns:xlink="http://www.w3.org/1999/xlink" viewBox="0 0 410.4 353.43"><defs><style>.cls-1{isolation:isolate;}.cls-2{opacity:0.23;}.cls-3{fill:#a7a6a7;}.cls-4{fill:#52c7a3;}.cls-5{fill:#78c7c7;}.cls-16,.cls-32,.cls-6,.cls-7{fill:#fff;}.cls-6{opacity:0.25;}.cls-11,.cls-13,.cls-25,.cls-28,.cls-30,.cls-43,.cls-6,.cls-7{mix-blend-mode:screen;}.cls-7{opacity:0.21;}.cls-8{fill:#e8dbe0;}.cls-9{fill:#ebebeb;}.cls-10{fill:url(#linear-gradient);}.cls-11,.cls-34{opacity:0.2;}.cls-11{fill:url(#linear-gradient-2);}.cls-12{fill:url(#linear-gradient-3);}.cls-13,.cls-44{opacity:0.1;}.cls-13{fill:url(#linear-gradient-4);}.cls-14{fill:#fcd652;}.cls-15{fill:#fead30;}.cls-17{fill:url(#linear-gradient-5);}.cls-18{fill:url(#linear-gradient-6);}.cls-19{fill:url(#linear-gradient-7);}.cls-20{fill:url(#linear-gradient-8);}.cls-21{fill:#fabb85;}.cls-22{fill:#51341d;}.cls-23,.cls-39,.cls-40{fill:#ffbf00;}.cls-23{opacity:0.35;}.cls-23,.cls-27,.cls-34,.cls-40,.cls-42,.cls-44{mix-blend-mode:multiply;}.cls-24,.cls-25,.cls-27{fill:#c6c7ff;}.cls-25{opacity:0.15;}.cls-26{fill:#faa378;}.cls-27{opacity:0.45;}.cls-28,.cls-30,.cls-40,.cls-42,.cls-43{opacity:0.3;}.cls-28{fill:url(#linear-gradient-9);}.cls-29{fill:#94b0c7;}.cls-30{fill:url(#linear-gradient-10);}.cls-31{fill:#fe9d00;}.cls-32,.cls-33{opacity:0.5;}.cls-35{fill:url(#linear-gradient-11);}.cls-36{fill:url(#linear-gradient-12);}.cls-37,.cls-42,.cls-43{fill:#dea61c;}.cls-38{fill:#ffde00;}.cls-41{fill:#cc961c;}</style><linearGradient id="linear-gradient" x1="-403.73" y1="134.49" x2="-310.58" y2="134.49" gradientTransform="translate(408.84)" gradientUnits="userSpaceOnUse"><stop offset="0" stop-color="#4c2a71"/><stop offset="1" stop-color="#7d3f95"/></linearGradient><linearGradient id="linear-gradient-2" x1="5877.09" y1="266.91" x2="5911.51" y2="218" gradientTransform="matrix(-1, 0, 0, 1, 5952.19, 0)" gradientUnits="userSpaceOnUse"><stop offset="0" stop-color="#814db0"/><stop offset="1" stop-color="#be6fd3"/></linearGradient><linearGradient id="linear-gradient-3" x1="5826.83" y1="301.09" x2="5926.69" y2="20.44" xlink:href="#linear-gradient-2"/><linearGradient id="linear-gradient-4" x1="5825.8" y1="299.37" x2="5925.23" y2="19.93" xlink:href="#linear-gradient-2"/><linearGradient id="linear-gradient-5" x1="65.53" y1="216.29" x2="65.53" y2="193.38" gradientUnits="userSpaceOnUse"><stop offset="0" stop-color="#f5ab2e"/><stop offset="1" stop-color="#ffcb5a"/></linearGradient><linearGradient id="linear-gradient-6" x1="5613.31" y1="257.48" x2="5617.13" y2="195.84" gradientTransform="matrix(-1, 0, 0, 1, 5930.04, 0)" gradientUnits="userSpaceOnUse"><stop offset="0" stop-color="#3d342b"/><stop offset="1" stop-color="#291c17"/></linearGradient><linearGradient id="linear-gradient-7" x1="2101" y1="159.79" x2="2101" y2="149.1" gradientTransform="translate(-1805.5 425.22) rotate(-6.32)" xlink:href="#linear-gradient-6"/><linearGradient id="linear-gradient-8" x1="5705.26" y1="465.33" x2="5705.26" y2="454.63" gradientTransform="matrix(-1, -0.06, -0.06, 1, 6067.89, 222.66)" xlink:href="#linear-gradient-6"/><linearGradient id="linear-gradient-9" x1="5638.06" y1="261.62" x2="5641.65" y2="203.75" xlink:href="#linear-gradient-6"/><linearGradient id="linear-gradient-10" x1="5587.53" y1="260.99" x2="5591.12" y2="203.06" xlink:href="#linear-gradient-6"/><linearGradient id="linear-gradient-11" x1="5633.91" y1="110.83" x2="5645.15" y2="129.14" gradientTransform="matrix(-1, 0, 0, 1, 5930.04, 0)" gradientUnits="userSpaceOnUse"><stop offset="0" stop-color="#bababa"/><stop offset="1" stop-color="#363636"/></linearGradient><linearGradient id="linear-gradient-12" x1="5636.04" y1="113.15" x2="5645.97" y2="134.98" gradientTransform="matrix(-1, 0, 0, 1, 5930.04, 0)" gradientUnits="userSpaceOnUse"><stop offset="0" stop-color="#ededed"/><stop offset="1" stop-color="#363636"/></linearGradient></defs><g class="cls-1"><g id="Capa_2" data-name="Capa 2"><g id="Layer_1" data-name="Layer 1"><g class="cls-2"><path class="cls-3" d="M342.14,340.12V299.25H330.3v-71l-6.64-10.05H294.77v64.55H274.4l-6.16-9.32h-12.8V188.8H243.61V163.71h-9.48v26.53H228v95.38H212.81v17.22h-8.06V213.18h-8.53l-20.84,31.56v62.39H164.49V288.48h-7.11V226.82s-2.84-24.4-18-24.4V184.5h-9V303.56H122.8v14.33H92.47V267.7H86.32V250.48H75.42V230.39H59.79v78.9H52.21V289.21H32.78V248.32H28.52v91.8Z"/></g><path class="cls-4" d="M153,325.93l-11.43-.29a79.75,79.75,0,0,1-13.05-29.57l9-.62-9.71-3.39A98.74,98.74,0,0,1,126.19,274a95.61,95.61,0,0,1,32.23,9.71l.79,7.61,1.52-6.35c9.8,5.46,19.35,13.65,25.51,25.74L183.35,323l5-7.84a62.37,62.37,0,0,1,4.19,16.95c.43,12.14,0,19.51,0,19.51H173.88s-16.32-6-29.88-22.82Z"/><path class="cls-5" d="M188.87,337.77a42.63,42.63,0,0,1,5.92-18l2.73,5.78-.89-8.39c5.75-7.88,13.67-12.83,20.94-15.86l.54,5.19,1.42-6a67.82,67.82,0,0,1,16.43-4A65.1,65.1,0,0,1,232,319.92l-4.75,1.51,4,.4A55.18,55.18,0,0,1,217,342.12l-9.33.5,6.06,2.21a49.36,49.36,0,0,1-11.61,6.8H188.87S188.57,346.4,188.87,337.77Z"/><path class="cls-6" d="M222.05,310.64c2.9-2.77,9-9.18,9-9.18s-7.21,4.75-10.06,7.46c-24.14,22.79-29.18,41.59-29.4,42.46l1,.25h1C194.23,349.35,200,331.62,222.05,310.64Z"/><path class="cls-7" d="M185.75,351.63h2.11c-1.8-6.09-12.94-39.4-46.93-66.36a89,89,0,0,0-9.54-5.85s5.27,5.06,8,7.2C172.15,312.48,183.5,344.36,185.75,351.63Z"/><path class="cls-8" d="M210.3,352.53a.9.9,0,0,1-.91.9H167.21a.9.9,0,0,1-.9-.9h0a.9.9,0,0,1,.9-.91h42.18a.91.91,0,0,1,.91.91Z"/><path class="cls-9" d="M16.77.05A15.32,15.32,0,0,0,1.47,15.34l-.1,238.22a15.3,15.3,0,0,0,15.28,15.31l99.85,0a15.3,15.3,0,0,0,15.3-15.28l.1-238.22A15.3,15.3,0,0,0,116.62.1Z"/><path class="cls-9" d="M133,82.48c0,1-.51,1.82-1.13,1.82s-1.12-.82-1.11-1.83V55.73c0-1,.5-1.83,1.12-1.82s1.12.82,1.12,1.82Z"/><path class="cls-9" d="M2.11,90.88c0,1-.47,1.82-1,1.82S0,91.88,0,90.88V75.4c0-1,.47-1.82,1.06-1.82s1.05.82,1.05,1.82Z"/><path class="cls-9" d="M2.12,69.33c0,1-.47,1.82-1,1.82S0,70.33,0,69.33V53.85C0,52.85.49,52,1.08,52s1,.82,1,1.82Z"/><path class="cls-9" d="M2.13,46.26c0,1-.47,1.82-1,1.82S0,47.26,0,46.26V35.94c0-1,.47-1.82,1.06-1.82s1.05.82,1.05,1.82Z"/><path class="cls-10" d="M131.07,253.62a14.6,14.6,0,0,1-14.57,14.56l-99.84,0A14.61,14.61,0,0,1,2.09,253.56L2.2,15.34A14.59,14.59,0,0,1,16.77.79l99.85,0A14.6,14.6,0,0,1,131.18,15.4Z"/><path class="cls-11" d="M47.64,253.94a4.74,4.74,0,0,0,4.75,4.74H79.55a4.75,4.75,0,0,0,4.75-4.74h0a4.75,4.75,0,0,0-4.75-4.74H52.39a4.74,4.74,0,0,0-4.75,4.74Z"/><rect class="cls-12" x="5.42" y="28.84" width="121.61" height="212.17"/><path class="cls-13" d="M124,241,5.42,67.3v35.44L99.77,241ZM5.42,28.84V49.18L127,227.41V157.88L39,28.84Z"/><path class="cls-14" d="M118.59,111a3.3,3.3,0,0,1-3.29,3.29H17.37A3.3,3.3,0,0,1,14.08,111V57.9a3.3,3.3,0,0,1,3.29-3.29H115.3a3.3,3.3,0,0,1,3.29,3.29Z"/><path class="cls-15" d="M87.53,89.45a4.11,4.11,0,0,1-4.11,4.11H26.23a4.12,4.12,0,0,1-4.11-4.11h0a4.12,4.12,0,0,1,4.11-4.12H83.42a4.11,4.11,0,0,1,4.11,4.12Z"/><path class="cls-15" d="M109.59,70.22a4.12,4.12,0,0,1-4.11,4.11H48.29a4.12,4.12,0,0,1-4.11-4.11h0a4.11,4.11,0,0,1,4.11-4.12h57.19a4.11,4.11,0,0,1,4.11,4.12Z"/><path class="cls-15" d="M57.29,102.59a4.1,4.1,0,0,1-4.1,4.11h-27a4.11,4.11,0,0,1-4.11-4.11h0a4.11,4.11,0,0,1,4.11-4.11h27a4.1,4.1,0,0,1,4.1,4.11Z"/><path class="cls-15" d="M111.87,105.42a4.1,4.1,0,0,1-4.11,4.1h-10a4.11,4.11,0,0,1-4.12-4.1h0a4.12,4.12,0,0,1,4.12-4.11h10a4.11,4.11,0,0,1,4.11,4.11Z"/><path class="cls-16" d="M27.25,73h8.22V70H27.25Zm-1-3H23.06v3h3.23Zm0-3.95H23.06v3h3.23Zm9.18,0H27.25v3h8.22Zm-.59,8.54H27.83a1.49,1.49,0,0,1-1.21-.64H23.06v2A1.92,1.92,0,0,0,25,77.81H37.74a1.91,1.91,0,0,0,1.91-1.92v-2H36.1A1.51,1.51,0,0,1,34.88,74.58Zm2.86-13.36H25a1.91,1.91,0,0,0-1.92,1.91v2h3.56a1.49,1.49,0,0,1,1.21-.64h7.05a1.51,1.51,0,0,1,1.22.64h3.55v-2A1.9,1.9,0,0,0,37.74,61.22ZM36.42,69h3.23V66H36.42Zm0,4h3.23V70H36.42Z"/><path class="cls-17" d="M106.83,207.17a9,9,0,0,1-9,9H33.24a9,9,0,0,1-9-9h0a9,9,0,0,1,9-9H97.83a9,9,0,0,1,9,9Z"/><path class="cls-16" d="M76.74,157.61l-14.1,16.81-4.76-7.26A3.46,3.46,0,1,0,52.1,171l7.3,11.15a3.46,3.46,0,0,0,5.53.33L82,162.06a3.46,3.46,0,1,0-5.3-4.45Z"/><path class="cls-16" d="M50.61,141.79a2.33,2.33,0,0,0-.13-.76,2,2,0,0,0-.41-.63,2.65,2.65,0,0,0-.74-.53,6.15,6.15,0,0,0-1.11-.48,14.78,14.78,0,0,1-1.73-.72,5.94,5.94,0,0,1-1.32-.92,3.8,3.8,0,0,1-.84-1.22,4.12,4.12,0,0,1-.29-1.6,4.2,4.2,0,0,1,.26-1.53,3.57,3.57,0,0,1,.75-1.2,3.84,3.84,0,0,1,1.17-.82,4.86,4.86,0,0,1,1.53-.42V128.8h1.59V131a4.27,4.27,0,0,1,1.51.5,3.43,3.43,0,0,1,1.13.94,4.27,4.27,0,0,1,.72,1.39,6.21,6.21,0,0,1,.25,1.8h-2.4a4.23,4.23,0,0,0-.14-1.12,2.55,2.55,0,0,0-.42-.84,1.69,1.69,0,0,0-.65-.54,1.91,1.91,0,0,0-.87-.18,2.68,2.68,0,0,0-.91.14,2,2,0,0,0-.63.41,1.9,1.9,0,0,0-.37.63,2.58,2.58,0,0,0-.11.8,2.19,2.19,0,0,0,.11.75,1.77,1.77,0,0,0,.4.63,4.16,4.16,0,0,0,.76.54,10,10,0,0,0,1.17.5,14.83,14.83,0,0,1,1.72.73,5.58,5.58,0,0,1,1.29.91,3.58,3.58,0,0,1,.83,1.21,4.12,4.12,0,0,1,.29,1.6,4.21,4.21,0,0,1-.28,1.56,3.63,3.63,0,0,1-.79,1.2,3.73,3.73,0,0,1-1.22.79,5.29,5.29,0,0,1-1.6.4v1.94H47.55v-1.93a5.65,5.65,0,0,1-1.52-.38,4.1,4.1,0,0,1-1.3-.82,4.32,4.32,0,0,1-.91-1.37,5.37,5.37,0,0,1-.34-2h2.41a3.34,3.34,0,0,0,.21,1.27,2,2,0,0,0,.56.8,2.18,2.18,0,0,0,.77.43,3.26,3.26,0,0,0,.87.12,2.47,2.47,0,0,0,1.72-.55A1.89,1.89,0,0,0,50.61,141.79Z"/><path class="cls-16" d="M65,145.56H55.3V143.9L60,138.78c.39-.44.72-.82,1-1.16a8.08,8.08,0,0,0,.63-.93,4.47,4.47,0,0,0,.33-.79,3.18,3.18,0,0,0,.09-.74,3,3,0,0,0-.14-.92,2.24,2.24,0,0,0-.42-.72,2,2,0,0,0-.67-.49,2.59,2.59,0,0,0-.91-.17,2.7,2.7,0,0,0-1.08.2,2,2,0,0,0-.77.55,2.52,2.52,0,0,0-.46.84,3.71,3.71,0,0,0-.15,1.08H55a5.07,5.07,0,0,1,.32-1.79,4.42,4.42,0,0,1,.95-1.47,4.79,4.79,0,0,1,1.53-1,5.67,5.67,0,0,1,2.08-.36,6.1,6.1,0,0,1,1.94.28,4.12,4.12,0,0,1,1.41.8,3.38,3.38,0,0,1,.88,1.26,4.26,4.26,0,0,1,.3,1.63,4.08,4.08,0,0,1-.21,1.34,7.29,7.29,0,0,1-.6,1.31,11.73,11.73,0,0,1-.93,1.31c-.35.45-.75.88-1.17,1.33l-3.21,3.44H65Z"/><path class="cls-16" d="M76.45,139.48a11,11,0,0,1-.33,2.91,5.46,5.46,0,0,1-1,2,3.73,3.73,0,0,1-1.48,1.08,5.7,5.7,0,0,1-3.88,0,3.8,3.8,0,0,1-1.5-1.08,5.31,5.31,0,0,1-1-2,10.56,10.56,0,0,1-.34-2.91v-2.33a11,11,0,0,1,.33-2.9,5.37,5.37,0,0,1,1-1.93,3.53,3.53,0,0,1,1.5-1.06,5.34,5.34,0,0,1,1.92-.33,5.46,5.46,0,0,1,2,.33,3.56,3.56,0,0,1,1.49,1.06,5.37,5.37,0,0,1,1,1.93,11,11,0,0,1,.33,2.9Zm-2.4-2.69a9.57,9.57,0,0,0-.16-1.85,3.48,3.48,0,0,0-.45-1.21,1.65,1.65,0,0,0-.73-.66,2.22,2.22,0,0,0-1-.21,2.28,2.28,0,0,0-1,.21,1.73,1.73,0,0,0-.72.66,3.48,3.48,0,0,0-.45,1.21,9.57,9.57,0,0,0-.16,1.85v3.05a9.53,9.53,0,0,0,.16,1.84,3.85,3.85,0,0,0,.46,1.25,1.92,1.92,0,0,0,.73.69,2.19,2.19,0,0,0,1,.22,2.12,2.12,0,0,0,1-.22,2,2,0,0,0,.72-.69,3.87,3.87,0,0,0,.44-1.25,9.62,9.62,0,0,0,.15-1.84Z"/><path class="cls-16" d="M88.2,139.48a11,11,0,0,1-.34,2.91,5.3,5.3,0,0,1-1,2,3.76,3.76,0,0,1-1.49,1.08,5.14,5.14,0,0,1-1.93.34,5.27,5.27,0,0,1-1.94-.34,3.8,3.8,0,0,1-1.5-1.08,5.31,5.31,0,0,1-1-2,10.56,10.56,0,0,1-.34-2.91v-2.33a11,11,0,0,1,.33-2.9,5.37,5.37,0,0,1,1-1.93,3.56,3.56,0,0,1,1.49-1.06,5.43,5.43,0,0,1,1.93-.33,5.37,5.37,0,0,1,1.94.33,3.53,3.53,0,0,1,1.5,1.06,5.37,5.37,0,0,1,1,1.93,10.94,10.94,0,0,1,.34,2.9Zm-2.41-2.69a9.57,9.57,0,0,0-.16-1.85,3.48,3.48,0,0,0-.45-1.21,1.7,1.7,0,0,0-.73-.66,2.19,2.19,0,0,0-1-.21,2.28,2.28,0,0,0-1,.21,1.73,1.73,0,0,0-.72.66,3.48,3.48,0,0,0-.45,1.21,9.66,9.66,0,0,0-.15,1.85v3.05a9.62,9.62,0,0,0,.15,1.84,4.1,4.1,0,0,0,.46,1.25,1.85,1.85,0,0,0,.73.69,2.19,2.19,0,0,0,1,.22,2.12,2.12,0,0,0,1-.22,1.9,1.9,0,0,0,.72-.69,3.87,3.87,0,0,0,.44-1.25,9.62,9.62,0,0,0,.15-1.84Z"/><path class="cls-18" d="M278.91,154c38.27,12.16,65,7.45,65,7.45s2,32.37,2,57.86-1,121.1-1,121.1l-14.65-1.31c0-12.82-13-141.22-17.26-141.22-2.62,0-3.14,17.25-3.14,34.25s4.7,107.23,4.7,107.23l-15.42,1.3c-2.35-22.49-16.38-97.72-19.53-146.89C279,183.42,278.91,159.69,278.91,154Z"/><path class="cls-19" d="M311.78,338.79l-5.89.64s-13.12,2-19.21,13.26l18.26-2s1-3.37,2.32-3.52,2.51,3,2.51,3l3.76-.41Z"/><path class="cls-20" d="M332.8,339l5.94.34s13.19,1.32,19.85,12.25l-18.33-1.08s-1.16-3.32-2.51-3.39-2.35,3.11-2.35,3.11l-3.78-.23Z"/><path class="cls-21" d="M294.08,31.41s.79,8.88,1.84,14.39,5,11.77,8.37,11.5,13.2-2.87,16.61-15.56c1-.52,7.06-4.05,5.22-10.33s-6.92,6.8-6.92,8-.66-3.27-.4-5.49.26-12.56-5.22-12.43-13.74,1.34-17.93,0C292.39,20.42,294,29.44,294.08,31.41Z"/><path class="cls-22" d="M301.28,7c4.84-2.87,17.14-2.87,18.57,4.45,0,0,6.93,1,7.46,7.45.44,5.47-.07,8.93-1.29,12.27-1.9-5.53-6.82,7.11-6.82,8.27s-.66-3.27-.4-5.49.26-12.56-5.22-12.43-13.74,1.34-17.93,0c-2.54-.82-2.15,4.49-1.79,7.79l-.16-.07s-1-3.4-2-7.72S295.3,10.52,301.28,7Z"/><path class="cls-22" d="M296.49,48c1.52,4.82,4.85,9.5,7.8,9.27a18.76,18.76,0,0,0,14.36-9.93c1.11-4.25,1.09-6.64-.82-2.76-2.63,5.3-5.69,6.48-6.94,6.68-.46-5.49-4.63-6.09-5.95-6.15s-2.29.39-3.73.19C297.6,44.28,296.68,47.15,296.49,48Zm2.24,0c.58-1.45,2.44-1.06,3.53-.92,2.09.26,2.62-.39,4-.13s2.73,2.62,2,4.45-2.94,1.51-4.07.9-.78.54-2.34.34S298.14,49.46,298.73,48Z"/><path class="cls-21" d="M299.67,54.31c1.44,1.89,3.09,3.11,4.62,3,3.39-.26,13.2-2.87,16.61-15.56.17-.09.5-.27.88-.52l0,.12L323,58.87s-4.58,11.9-14.39,11.51-8.89-11.18-8.89-11.18Z"/><path class="cls-23" d="M304.29,57.3c3.39-.26,13.2-2.87,16.61-15.56.17-.09.5-.27.88-.52l0,.12.47,6.95c-1.83,3.06-7.27,10.53-16.76,10.22a13.18,13.18,0,0,1-5.83-1.41l0-2.79C301.11,56.2,302.76,57.42,304.29,57.3Z"/><path class="cls-24" d="M280.1,139.1c0-2.75,2.87-35.63,2.87-45.06s.52-24.32.52-24.32,12.7-8.25,16.22-10.62v.1S298.8,70,308.6,70.38,323,58.87,323,58.87l-.09-1.29s16.18,6.26,19.45,9.53c0,9.68,1.56,83.1,1.56,94.35,0,0-26.47,14.08-64.72,1.92C276.45,160.64,280.1,141.84,280.1,139.1Z"/><path class="cls-25" d="M325.69,153.61c-11.28,5.48-19.91.2-8.7-17.45s-6.12-38.06-14-50.61a82.62,82.62,0,0,1-9.55-22.34c2.46-1.61,4.74-3.1,6-4l.21,0S298.82,70,308.6,70.38,323,58.87,323,58.87l-.09-1.29s16.18,6.26,19.45,9.53c0,9.68,1.56,83.1,1.56,94.35a67,67,0,0,1-13.15,4.15C334.91,157.48,331.63,150.72,325.69,153.61Z"/><path class="cls-26" d="M302.84,110.05h0a1.87,1.87,0,0,0,.19,2.18c1.07,1.07,3.92-.34,7.45-3.86.95-1,3.4.13,3.4.13a9.31,9.31,0,0,0-2.35,2.94,17,17,0,0,0-.13,4.32,10,10,0,0,1-3.81-1.23,10.6,10.6,0,0,0-4.56-1.37C301.57,112.91,300.74,111,302.84,110.05Z"/><path class="cls-26" d="M321,113.54c.4-.14.4,3.68,2.07,5.65a7.72,7.72,0,0,0,2.11,1.81c-3,.41-4.63-1.23-5.06-2.66a6.23,6.23,0,0,0-1.87-2.76A19.69,19.69,0,0,1,321,113.54Z"/><path class="cls-24" d="M283.49,69.72a45.58,45.58,0,0,0-7.71,6c-3.53,3.54-4.12,15.31-6.27,24.14s-8,18.43-8,24.51,2.15,12.56,6.86,15.11,14.9-2,14.9-2-14.12-2-6.66-12.27c-1.47-.58-1.28-2.25-1.28-4s7.76-13.54,7.76-15.7Z"/><path class="cls-27" d="M328.32,118.72l15.07,8.7c.05,3.55.12,7,.18,10.26l-17.46-10.94c-.75-.75-1.5-3.53-2.68-3.53s-4.64,0-4.64-2.35-2.22-5-2.22-5l3.13-1Z"/><path class="cls-28" d="M279.19,163.38c2.7.87,5.35,1.58,7.95,2.19.51,15.07,2.34,54.22,8.44,102.4,4.27,33.73,7.4,61.26,9.38,72.21l-5.77.49c-2.35-22.49-16.38-97.72-19.53-146.89-.46-7.28-.64-21.1-.71-30.69A1.76,1.76,0,0,0,279.19,163.38Z"/><path class="cls-29" d="M328.32,118.72a19.63,19.63,0,0,1-1.14,5,6.68,6.68,0,0,1-1.3-3.46C325.88,119.38,327.11,118.94,328.32,118.72Z"/><path class="cls-27" d="M342.46,73.38a86.87,86.87,0,0,0-1.67,14.42c-.22,5,.3,23.64.3,23.64l-20-4.12,10.38,9.22,15.1,2.35,2.75-5.68Z"/><path class="cls-24" d="M342.35,67.11s8,3.72,9.93,8.43S363.07,112.81,365,123.4s-1,15.7-15.1,10.59a142,142,0,0,1-22.75-10.26s3.26-7.84-.79-14.12c0,0,11.71,3.8,16.84,4.71,0,0-1.74-15-1.74-26.62Z"/><path class="cls-21" d="M300.6,106.14a25.72,25.72,0,0,1,5.25-2.81,7.45,7.45,0,0,1,7.38.59c5.12-.85,5,.72,5.9,1.57.52-.53,1.47,0,2.75,1.24a39,39,0,0,0,4.85,3.49c2.24,4,1.79,8.44,1.16,11.11-1.79.6-3.48-.54-4.83-2.14-1.67-2-1.67-5.79-2.07-5.65a16.39,16.39,0,0,0-3.92,3.29c-.59,1-.83,2.41-1.81,2.31s-1.42-1.43-1.42-1.43c-.26.84-2.26.1-2.36-1a22.2,22.2,0,0,1,.07-5.24,9.31,9.31,0,0,1,2.35-2.94s-2.45-1.08-3.4-.13c-3.53,3.52-6.38,4.93-7.45,3.86s-.13-3.21,2.29-5.1C302.66,108.57,300.08,106.65,300.6,106.14Z"/><path class="cls-26" d="M314.59,114.36a11.66,11.66,0,0,0-.95,3.55.43.43,0,0,0,0,0,.48.48,0,0,0,.19-.25,1.82,1.82,0,0,0,.14.34.14.14,0,0,0,0-.1,10.78,10.78,0,0,1,.91-3.4c.72-1.34,3.91-4.67,3.84-4.75A25.42,25.42,0,0,0,314.59,114.36Zm-9.66-7.09h0c.13-.06.27-.08.4-.14-.1.06,3.27-1.87,3.23-2s-3.51,1.76-3.6,1.82A.21.21,0,0,0,304.93,107.27Zm9,1.23s3.15-1.89,3.09-2a33.31,33.31,0,0,0-3.41,1.86Z"/><path class="cls-27" d="M280.1,139.1c0-.69.18-3.2.43-6.74l12.2-5,10.2-.79,8.08,4.19s-5.56-.66-7.92.45c-2,.93-16.56,9.87-23.81,14.63A34.11,34.11,0,0,0,280.1,139.1Z"/><path class="cls-27" d="M283.29,75.21s1,16.35,1,20.15.16,9,2.22,10.52c2.49,1.83,7.92,3.65,12.38,6.31,2.34,1.38-19.44.16-19.44.16l-1.31-11.51Z"/><path class="cls-24" d="M283.49,69.72a45.58,45.58,0,0,0-7.71,6c-3.53,3.54-4.12,15.31-6.27,24.14s-8,18.43-8,24.51,2.15,12.56,6.86,15.11,14.9-2,14.9-2-14.12-2-6.66-12.27a23.78,23.78,0,0,1-.54-4c0-1.77,7-13.54,7-15.7Z"/><path class="cls-30" d="M343.91,161.46s2,32.37,2,57.86-1,121.1-1,121.1l-5.11-.46c-.75-20-2.29-71.33-2.29-93.44,0-25.05-4-68.8-5.19-81A58.14,58.14,0,0,0,343.91,161.46Z"/><path class="cls-27" d="M274.06,111.94s.52,4.33.52,5.71-.32,6.08.41,6.79-3.53,7.53.65,8.84,5-5.88,5-5.88l-2.68-6.75-1-7.25Z"/><path class="cls-31" d="M224.43,22.61C209.54,14.7,179.89,36.24,165,28.34L175.86,8.9C190.5,15.83,219.33-5.53,234,1.4Q229.21,12,224.43,22.61Z"/><path class="cls-32" d="M229.94,1.74C215.77-1,192.71,14,178.53,11.31a2.65,2.65,0,0,1-3,1.21h0l-7.42,13.36a0,0,0,0,0,0,0,1.64,1.64,0,0,1,1,2.39h0c14.42,3.32,38-11.71,52.44-8.37a0,0,0,0,1,0,0,2.41,2.41,0,0,1,2.89-1.29c2.17-4.83,4.36-9.65,6.53-14.47A1.72,1.72,0,0,1,229.94,1.74Z"/><path class="cls-31" d="M210,12.25c-1.84,3.84-7.87,8.14-13.65,10s-8.7,0-6.71-3.84,8-8.07,13.65-10S211.86,8.37,210,12.25Z"/><path class="cls-31" d="M221.41,10.42a3,3,0,0,1-2.4,1.47c-1,.06-1.51-.46-1.14-1.23a3.25,3.25,0,0,1,2.45-1.57C221.3,9,221.77,9.65,221.41,10.42Z"/><path class="cls-31" d="M182.06,19.93a3.45,3.45,0,0,1-2.52,1.52c-1,.07-1.44-.52-1-1.25A3.33,3.33,0,0,1,181,18.77C182,18.69,182.45,19.18,182.06,19.93Z"/><g class="cls-33"><path class="cls-16" d="M200.53,16.54a.82.82,0,0,0,.1-.35.23.23,0,0,0-.12-.22,1,1,0,0,0-.38-.08,3.29,3.29,0,0,0-.62,0c-.44,0-.82,0-1.17,0a2.09,2.09,0,0,1-.79-.15.58.58,0,0,1-.36-.42,1.38,1.38,0,0,1,.2-.79,4,4,0,0,1,.62-.86,6.77,6.77,0,0,1,.92-.82,8.81,8.81,0,0,1,1.16-.73,11.11,11.11,0,0,1,1.35-.62l.55-1.09,1.21-.39-.56,1.11a3.66,3.66,0,0,1,1.06-.13,1.08,1.08,0,0,1,.66.2.62.62,0,0,1,.22.53,2,2,0,0,1-.27.88l-2.19.69c.2-.41.24-.68.08-.8s-.43-.11-.85,0a4,4,0,0,0-.62.26,2.67,2.67,0,0,0-.5.31,2.32,2.32,0,0,0-.39.37,2.68,2.68,0,0,0-.25.37.87.87,0,0,0-.1.32.24.24,0,0,0,.12.21,1,1,0,0,0,.38.08,4.75,4.75,0,0,0,.64,0c.42,0,.8,0,1.14,0a2.09,2.09,0,0,1,.8.16.61.61,0,0,1,.36.43,1.42,1.42,0,0,1-.19.79,3.82,3.82,0,0,1-.62.88,7.39,7.39,0,0,1-.92.81,9.47,9.47,0,0,1-1.18.72,12,12,0,0,1-1.35.6l-.51,1-1.22.38.51-1a6.41,6.41,0,0,1-1.13.18,1.72,1.72,0,0,1-.83-.12.58.58,0,0,1-.36-.49,1.69,1.69,0,0,1,.26-1l2.2-.69a1.07,1.07,0,0,0-.16.56.3.3,0,0,0,.18.27.77.77,0,0,0,.44,0,2.79,2.79,0,0,0,.58-.13,5.84,5.84,0,0,0,.67-.26l.55-.33a5.24,5.24,0,0,0,.41-.37A1.78,1.78,0,0,0,200.53,16.54Z"/></g><path class="cls-31" d="M284.07,82.37A138.86,138.86,0,0,0,293.53,110l-4,9.74c-8.49-10.83-17.72-21.35-28.79-30.62Z"/><path class="cls-32" d="M264.54,90.7A214.05,214.05,0,0,1,288,116.76c.26-.45.89-.24,1.42.47h0l3-6.54h0a2.4,2.4,0,0,1-.12-2h0a173.1,173.1,0,0,1-9.24-23.78h0c-1.06.34-2.13.07-2.39-.59l-15.42,4.59C265.91,89.58,265.58,90.37,264.54,90.7Z"/><path class="cls-31" d="M279.11,95.68c3-1.27,6.1-.33,7.08,2.08s.53,5.52-1.12,7-4.77.54-7.06-2.1S276.15,97,279.11,95.68Z"/><path class="cls-31" d="M275.43,90.19a1.63,1.63,0,0,1,1.86.45c.3.49,0,1.09-.66,1.34a1.69,1.69,0,0,1-1.85-.44C274.41,91,274.71,90.44,275.43,90.19Z"/><path class="cls-31" d="M287.38,108.37c.27-.32.73-.17,1,.32a1.53,1.53,0,0,1,.12,1.49c-.23.33-.7.18-1-.32A1.35,1.35,0,0,1,287.38,108.37Z"/><g class="cls-33"><path class="cls-16" d="M282.71,98.91a.74.74,0,0,0-.21.17.45.45,0,0,0-.11.23,1,1,0,0,0,0,.3,3.77,3.77,0,0,0,.07.4,6.21,6.21,0,0,1,.15.75,2.77,2.77,0,0,1,0,.63,1.43,1.43,0,0,1-.15.53,1.25,1.25,0,0,1-.4.43,1.22,1.22,0,0,1-.51.19,1.18,1.18,0,0,1-.55-.05,1.91,1.91,0,0,1-.56-.27,3.93,3.93,0,0,1-.55-.48l-.64.39-.44-.55.68-.4a1.66,1.66,0,0,1-.25-.63,1.1,1.1,0,0,1,0-.57,1.13,1.13,0,0,1,.26-.51,1.69,1.69,0,0,1,.54-.42l.68,1a.87.87,0,0,0-.45.49.66.66,0,0,0,.16.56.88.88,0,0,0,.23.24.68.68,0,0,0,.24.12.65.65,0,0,0,.24,0l.23-.1a.66.66,0,0,0,.17-.16.4.4,0,0,0,.09-.22,1.1,1.1,0,0,0,0-.31,2.92,2.92,0,0,0-.09-.42,5.85,5.85,0,0,1-.15-.75,2.21,2.21,0,0,1,0-.63,1.26,1.26,0,0,1,.22-.52,1.45,1.45,0,0,1,.49-.4,1.42,1.42,0,0,1,.58-.19,1.4,1.4,0,0,1,.54,0,1.36,1.36,0,0,1,.5.27,1.74,1.74,0,0,1,.42.47l.62-.36c.08.17.18.35.27.52l-.59.36a4.5,4.5,0,0,1,.17.6,1.84,1.84,0,0,1,0,.62,1.45,1.45,0,0,1-.21.59,1.7,1.7,0,0,1-.5.5c-.21-.32-.4-.64-.6-1a1,1,0,0,0,.31-.28.78.78,0,0,0,.13-.3.66.66,0,0,0,0-.31,1,1,0,0,0-.11-.29,1.29,1.29,0,0,0-.2-.25.59.59,0,0,0-.23-.13.49.49,0,0,0-.24,0A.57.57,0,0,0,282.71,98.91Z"/></g><path class="cls-31" d="M255,76.45c-1.7-16.62-10.91-30.44-23.8-37.17l9.89-8.75c16.28,3.72,28.89,14.54,34,28.16Z"/><path class="cls-32" d="M272.54,56.94c-5.08-11.45-15.44-20.63-28.7-24.85a3.46,3.46,0,0,1-2.86.23h0l-7,6.18h0c.9.45,1.19,1.25.65,1.72h0c10.74,6.44,18.58,17.84,21.15,31.51,0,0,0,0,0,0,1-.84,1.92-.66,2.12.42l13.53-12A3.33,3.33,0,0,1,272.54,56.94Z"/><path class="cls-31" d="M259,53.13a6,6,0,0,1-9.32-1.1c-2.22-3.23-2.43-7.2,0-9.39s7.21-2.22,10.14.38S262.15,50.34,259,53.13Z"/><path class="cls-31" d="M262.92,60.77c-.69.61-1.47.51-1.77-.22a2.27,2.27,0,0,1,.65-2.36c.66-.59,1.48-.51,1.81.19A2.25,2.25,0,0,1,262.92,60.77Z"/><path class="cls-31" d="M245.24,39.38a1.8,1.8,0,0,1-2,0c-.65-.42-.85-1-.42-1.41a1.9,1.9,0,0,1,2,0C245.52,38.32,245.69,39,245.24,39.38Z"/><g class="cls-33"><path class="cls-16" d="M254.17,49.49a1.39,1.39,0,0,0,.26-.3.75.75,0,0,0,.1-.34,1.26,1.26,0,0,0,0-.42,3.1,3.1,0,0,0-.17-.52c-.13-.34-.24-.66-.32-.95a3.4,3.4,0,0,1-.15-.83,2,2,0,0,1,.13-.73,2.13,2.13,0,0,1,.5-.67,2,2,0,0,1,.68-.39,1.88,1.88,0,0,1,.74-.11,2.49,2.49,0,0,1,.79.17,3,3,0,0,1,.76.46l.8-.71.61.58-.84.74a2.19,2.19,0,0,1,.37.75,1.92,1.92,0,0,1,.05.79,2.12,2.12,0,0,1-.29.78,3,3,0,0,1-.62.73c-.32-.38-.64-.77-1-1.14a1.46,1.46,0,0,0,.52-.8.81.81,0,0,0-.25-.71.93.93,0,0,0-.33-.24.8.8,0,0,0-.33-.08.74.74,0,0,0-.32.07,1.27,1.27,0,0,0-.29.18,1.69,1.69,0,0,0-.22.26.69.69,0,0,0-.08.32,1.58,1.58,0,0,0,.05.41,4,4,0,0,0,.17.55c.13.33.22.65.31,1a3.32,3.32,0,0,1,.08.87,2.14,2.14,0,0,1-.2.79,2.28,2.28,0,0,1-.56.71,2,2,0,0,1-.71.43,1.62,1.62,0,0,1-.72.08,2,2,0,0,1-.72-.24,3.26,3.26,0,0,1-.66-.55l-.76.68-.5-.67c.25-.22.49-.44.75-.65a3.56,3.56,0,0,1-.39-.78,2.64,2.64,0,0,1-.15-.83,2,2,0,0,1,.19-.83,2.38,2.38,0,0,1,.62-.8c.35.36.69.73,1,1.1a1.74,1.74,0,0,0-.38.47,1.06,1.06,0,0,0-.11.44.91.91,0,0,0,.09.41,1.25,1.25,0,0,0,.22.37,1,1,0,0,0,.32.29,1.1,1.1,0,0,0,.33.12.62.62,0,0,0,.33,0A.82.82,0,0,0,254.17,49.49Z"/></g><path class="cls-34" d="M126.27,41c-14.6,13.81-28.61,22-40.75,24.67a79.53,79.53,0,0,1,18,18.51c7-.67,19.34-5.66,27.44-10.38C130.92,62.05,126.26,52.67,126.27,41Z"/><path class="cls-31" d="M156.36,46.26c-18.43,21-36.64,32.54-51.85,35a77.11,77.11,0,0,0-18.13-18c16-4.52,35-18.12,54.27-41.23A131.85,131.85,0,0,1,156.36,46.26Z"/><path class="cls-32" d="M137.62,28.22c-16.35,18.48-32.39,30-46.39,34.9.93.72.79,1.65-.3,2h0a77.63,77.63,0,0,1,12.35,12.42h0A3.82,3.82,0,0,1,106.74,79h0c13.4-3.35,28.84-13.36,44.59-30.28v0a4.7,4.7,0,0,1,.91-5,129.7,129.7,0,0,0-10.79-16.44C140.16,28.83,138.45,29.17,137.62,28.22Z"/><path class="cls-31" d="M129.52,52.44c3.09,4.15,1.69,11.25-2.85,14.29s-10.58,1.3-13.83-2.42-2.37-8.39,2.35-11.9S126.45,48.25,129.52,52.44Z"/><path class="cls-31" d="M140,42.57a2.79,2.79,0,0,1-.65,3.32c-1,.94-2.19,1-2.79.12a2.66,2.66,0,0,1,.62-3.23C138.16,41.82,139.43,41.7,140,42.57Z"/><path class="cls-31" d="M106.59,67.49a1.17,1.17,0,0,1-.36,2,2.66,2.66,0,0,1-2.72-.68,1.09,1.09,0,0,1,.34-1.9A2.59,2.59,0,0,1,106.59,67.49Z"/><g class="cls-33"><path class="cls-16" d="M123.77,60a1.42,1.42,0,0,0-.38-.36,1,1,0,0,0-.46-.16,2.17,2.17,0,0,0-.61,0c-.22,0-.48.11-.77.19a12,12,0,0,1-1.43.36,5.46,5.46,0,0,1-1.25.09,3,3,0,0,1-1.07-.28,2.83,2.83,0,0,1-.93-.73,2.35,2.35,0,0,1-.5-.89,2,2,0,0,1,0-.94,2.72,2.72,0,0,1,.4-.94,4.44,4.44,0,0,1,.83-.93c-.31-.35-.62-.69-.94-1l1-.74,1,1a4.83,4.83,0,0,1,1.19-.49,3.08,3.08,0,0,1,1.16-.08,2.78,2.78,0,0,1,1.08.34,3.36,3.36,0,0,1,.94.81l-1.81,1.37a1.72,1.72,0,0,0-1.08-.7,1.46,1.46,0,0,0-1.08.31,1.55,1.55,0,0,0-.43.41,1.06,1.06,0,0,0-.17.42.86.86,0,0,0,0,.42,2.06,2.06,0,0,0,.24.39,1.93,1.93,0,0,0,.35.3,1.08,1.08,0,0,0,.45.13,2.17,2.17,0,0,0,.61,0c.23,0,.51-.11.83-.2.51-.16,1-.28,1.43-.39a5.7,5.7,0,0,1,1.26-.12,2.56,2.56,0,0,1,1.07.27,2.51,2.51,0,0,1,.9.78,2.64,2.64,0,0,1,.48,1,2.52,2.52,0,0,1,0,1.06,3.24,3.24,0,0,1-.43,1,4.58,4.58,0,0,1-.84.94l.81,1.16-1,.67-.82-1.14a5,5,0,0,1-1.14.45,3.3,3.3,0,0,1-1.21.06,3,3,0,0,1-1.18-.4,3.68,3.68,0,0,1-1.09-1c.58-.38,1.18-.77,1.77-1.18a2.14,2.14,0,0,0,.61.57,1.43,1.43,0,0,0,.63.21,1.25,1.25,0,0,0,.6-.08,2.48,2.48,0,0,0,.54-.27,1.86,1.86,0,0,0,.45-.43,1.52,1.52,0,0,0,.22-.47,1.07,1.07,0,0,0,0-.47A1,1,0,0,0,123.77,60Z"/></g><path class="cls-21" d="M281.9,137.26s8.5-3.56,11.83-4.54,12.52-4.61,14.23-5.39.51-2.55-2.43-2a78.44,78.44,0,0,0-9,2.74s6.41-4.25,7.84-4.77,0-2.94-4.51-1.24-7.19,2.68-8.17,2.68-1.7-.84-.71-1.82,2.92-3,3.65-3.67,1.31-1.7.56-2.45-2.26-1.27-4.58,1-5.75,5.3-7.29,3.76-2.67-.74-3.47-1.54-1.7-5.53-4.25-5.92c-1,0,.12,4.76.12,5.91s-.12,3.77.87,5.3c-2,1.15-4.25,7,0,9.76A16.13,16.13,0,0,0,281.9,137.26Z"/><path class="cls-35" d="M308,127.33c1.69-.78.51-2.55-2.43-2a66.89,66.89,0,0,0-8,2.39l-.33-.08a75.44,75.44,0,0,1,7.17-4.34c1.44-.52,0-2.94-4.51-1.24s-7.19,2.68-8.17,2.68-1.7-.84-.71-1.82,2.92-3,3.65-3.67,1.31-1.7.56-2.45-2.26-1.27-4.58,1-5.75,5.3-7.29,3.76-2.67-.74-3.47-1.54-1.7-5.53-4.25-5.92l-5.49-7.61,30,6,12.36,18.63-8.77-2C305.68,128.29,307.32,127.62,308,127.33Z"/><polygon class="cls-36" points="270.09 106.44 270.56 105.23 300.57 111.38 313.28 130.23 312.46 131.05 300.1 112.42 270.09 106.44"/><path class="cls-37" d="M207.35,49a8.7,8.7,0,1,1-8.7-8.25A8.48,8.48,0,0,1,207.35,49Z"/><path class="cls-38" d="M205.92,49a8.7,8.7,0,1,1-8.69-8.25A8.48,8.48,0,0,1,205.92,49Z"/><path class="cls-39" d="M204.84,49a7.62,7.62,0,1,1-7.61-7.22A7.42,7.42,0,0,1,204.84,49Z"/><path class="cls-40" d="M197.23,41.8a7.75,7.75,0,0,0-5.5,2.24A7.79,7.79,0,0,1,197,42a7.43,7.43,0,0,1,7.61,7.23,7,7,0,0,1-2.11,5A7,7,0,0,0,204.84,49,7.42,7.42,0,0,0,197.23,41.8Z"/><path class="cls-41" d="M198.22,50.43a.72.72,0,0,0-.06-.33.68.68,0,0,0-.18-.27,1.56,1.56,0,0,0-.34-.24,3.19,3.19,0,0,0-.51-.2,5.74,5.74,0,0,1-.78-.32,2.46,2.46,0,0,1-.61-.39,1.52,1.52,0,0,1-.38-.53,1.68,1.68,0,0,1-.14-.7,1.76,1.76,0,0,1,.12-.66,1.54,1.54,0,0,1,.35-.52,1.9,1.9,0,0,1,.53-.36,2.48,2.48,0,0,1,.7-.18V44.8h.72v.94a2.07,2.07,0,0,1,.69.21,1.63,1.63,0,0,1,.52.41,1.93,1.93,0,0,1,.33.6,2.48,2.48,0,0,1,.11.79H198.2a1.75,1.75,0,0,0-.07-.49,1.43,1.43,0,0,0-.19-.37.86.86,0,0,0-.3-.23,1,1,0,0,0-.4-.08,1,1,0,0,0-.41.07.66.66,0,0,0-.28.17,1,1,0,0,0-.18.27,1.34,1.34,0,0,0-.05.35,1.14,1.14,0,0,0,.05.33.83.83,0,0,0,.19.27,1.41,1.41,0,0,0,.35.23,3.87,3.87,0,0,0,.52.22,6.8,6.8,0,0,1,.79.32,2.59,2.59,0,0,1,.6.39,1.84,1.84,0,0,1,.37.52,1.68,1.68,0,0,1,.13.7,1.65,1.65,0,0,1-.13.68,1.41,1.41,0,0,1-.35.51,2,2,0,0,1-.56.35,2.37,2.37,0,0,1-.73.17V53h-.72v-.84a2.38,2.38,0,0,1-.7-.16,1.8,1.8,0,0,1-.59-.36,1.6,1.6,0,0,1-.41-.59,2.06,2.06,0,0,1-.16-.86h1.1a1.29,1.29,0,0,0,.1.55.86.86,0,0,0,.61.53,1.32,1.32,0,0,0,.39.06,1.19,1.19,0,0,0,.78-.24A.8.8,0,0,0,198.22,50.43Z"/><path class="cls-37" d="M254.93,21.4c-4.47-.86-7.7-3.67-7.2-6.29s4.54-4,9-3.18,7.69,3.68,7.19,6.29S259.4,22.26,254.93,21.4Z"/><path class="cls-38" d="M255.08,20.62c-4.47-.85-7.7-3.67-7.2-6.28s4.54-4,9-3.19,7.7,3.68,7.2,6.29S259.55,21.48,255.08,20.62Z"/><path class="cls-39" d="M255.19,20c-3.92-.75-6.74-3.21-6.3-5.5s4-3.54,7.89-2.79,6.74,3.22,6.31,5.51S259.11,20.79,255.19,20Z"/><path class="cls-40" d="M263.09,17.25a3.75,3.75,0,0,0-1.64-3.42,3.57,3.57,0,0,1,1.42,3.23c-.44,2.29-4,3.54-7.89,2.79a10.34,10.34,0,0,1-4.67-2.09A10,10,0,0,0,255.19,20C259.11,20.79,262.65,19.54,263.09,17.25Z"/><path class="cls-41" d="M254.5,16.16a1.35,1.35,0,0,0,.33,0,.94.94,0,0,0,.29-.06,1.11,1.11,0,0,0,.27-.13,2.77,2.77,0,0,0,.25-.24,2.26,2.26,0,0,1,.39-.37,1.82,1.82,0,0,1,.45-.26A1.92,1.92,0,0,1,257,15a3,3,0,0,1,.7.06,3.46,3.46,0,0,1,.64.19,2,2,0,0,1,.47.29,1,1,0,0,1,.29.35.78.78,0,0,1,.11.42l.92.17-.08.4-.92-.18a.91.91,0,0,1-.28.34,1.49,1.49,0,0,1-.46.2,2.38,2.38,0,0,1-.63.07,3.89,3.89,0,0,1-.78-.09l.12-.6a2.18,2.18,0,0,0,.87,0,.83.83,0,0,0,.25-.12.37.37,0,0,0,.13-.2.38.38,0,0,0,0-.24.49.49,0,0,0-.14-.19.86.86,0,0,0-.25-.14,2.31,2.31,0,0,0-.34-.1l-.32,0a.93.93,0,0,0-.29.05,1.1,1.1,0,0,0-.26.14,2.05,2.05,0,0,0-.27.25,4.43,4.43,0,0,1-.39.37,1.86,1.86,0,0,1-.46.25,2.14,2.14,0,0,1-.55.11,3.66,3.66,0,0,1-.69-.07,2.86,2.86,0,0,1-.66-.19,1.53,1.53,0,0,1-.46-.3,1,1,0,0,1-.29-.36,1.07,1.07,0,0,1-.09-.43l-.82-.16.07-.39.82.16a1,1,0,0,1,.23-.35,1.25,1.25,0,0,1,.42-.26,2.15,2.15,0,0,1,.62-.11,4,4,0,0,1,.87.07L255,15a2.28,2.28,0,0,0-.55,0,1.22,1.22,0,0,0-.37.07.58.58,0,0,0-.21.16.67.67,0,0,0-.1.21.52.52,0,0,0,.15.47A1.19,1.19,0,0,0,254.5,16.16Z"/><path class="cls-37" d="M282.19,73.18c-1.5-2.54-1.52-5.31,0-6.19s3.9.46,5.41,3,1.53,5.3.05,6.18S283.7,75.71,282.19,73.18Z"/><path class="cls-38" d="M282.63,72.91c-1.5-2.53-1.53-5.3,0-6.18s3.9.46,5.41,3,1.53,5.31.05,6.19S284.14,75.45,282.63,72.91Z"/><path class="cls-39" d="M283,72.71c-1.31-2.22-1.33-4.64,0-5.41s3.43.4,4.75,2.62,1.33,4.65,0,5.42S284.29,74.94,283,72.71Z"/><path class="cls-40" d="M287.7,75.34a2.4,2.4,0,0,0,1-2.26,2.33,2.33,0,0,1-1,2.08c-1.29.77-3.42-.41-4.73-2.63a6.75,6.75,0,0,1-1-3.16,6.49,6.49,0,0,0,1,3.34C284.29,74.94,286.41,76.11,287.7,75.34Z"/><path class="cls-41" d="M284.54,70.72l.13.17a.79.79,0,0,0,.15.12.75.75,0,0,0,.18.07l.23,0a1.87,1.87,0,0,1,.34,0,1.21,1.21,0,0,1,.32.11,1.17,1.17,0,0,1,.29.22,2,2,0,0,1,.28.37,2.26,2.26,0,0,1,.18.39,1.12,1.12,0,0,1,.06.35.71.71,0,0,1-.05.29.51.51,0,0,1-.15.23l.31.52-.22.14-.32-.53a.53.53,0,0,1-.28,0,1,1,0,0,1-.29-.13,1.54,1.54,0,0,1-.3-.28,2.91,2.91,0,0,1-.3-.41l.34-.2a2.93,2.93,0,0,0,.18.26,1.41,1.41,0,0,0,.18.17.41.41,0,0,0,.17.07.2.2,0,0,0,.15,0,.18.18,0,0,0,.1-.11.26.26,0,0,0,0-.15,1.16,1.16,0,0,0,0-.18,2,2,0,0,0-.1-.21.76.76,0,0,0-.13-.17.53.53,0,0,0-.14-.12.85.85,0,0,0-.19-.06l-.23,0a2,2,0,0,1-.35,0,1.15,1.15,0,0,1-.31-.11,1.48,1.48,0,0,1-.29-.22,2,2,0,0,1-.27-.37,3.44,3.44,0,0,1-.19-.39,1.69,1.69,0,0,1-.06-.36.72.72,0,0,1,.06-.29.55.55,0,0,1,.17-.23l-.28-.47.22-.13.28.46a.77.77,0,0,1,.27,0,.61.61,0,0,1,.3.09,1.59,1.59,0,0,1,.33.25,3.77,3.77,0,0,1,.33.45l-.34.2a1.84,1.84,0,0,0-.21-.28.8.8,0,0,0-.2-.15.35.35,0,0,0-.17,0l-.14,0a.33.33,0,0,0-.16.28A.86.86,0,0,0,284.54,70.72Z"/><path class="cls-37" d="M157.53,15.82c-3.81,1.82-7.53,2-8.31.34s1.7-4.42,5.51-6.23,7.54-2,8.31-.33S161.34,14,157.53,15.82Z"/><path class="cls-38" d="M157.3,15.34c-3.81,1.81-7.54,2-8.31.34s1.7-4.42,5.52-6.24,7.53-2,8.31-.33S161.12,13.53,157.3,15.34Z"/><path class="cls-39" d="M157.12,15c-3.34,1.58-6.6,1.71-7.27.29s1.49-3.87,4.83-5.46,6.6-1.72,7.28-.29S160.47,13.39,157.12,15Z"/><path class="cls-40" d="M162,9.52c-.35-.74-1.39-1-2.77-1,1.25,0,2.19.3,2.52,1,.68,1.43-1.49,3.87-4.83,5.45a12.55,12.55,0,0,1-4.51,1.27A12.37,12.37,0,0,0,157.12,15C160.47,13.39,162.63,11,162,9.52Z"/><path class="cls-41" d="M154.89,13.29l.26-.15a.85.85,0,0,0,.2-.17c.06-.07.1-.14.15-.21a1.83,1.83,0,0,0,.08-.25,2.7,2.7,0,0,1,.14-.4,1.5,1.5,0,0,1,.24-.36,1.76,1.76,0,0,1,.37-.34,3.31,3.31,0,0,1,.57-.32,4.25,4.25,0,0,1,.57-.23,2.37,2.37,0,0,1,.49-.08.93.93,0,0,1,.38,0,.53.53,0,0,1,.27.16l.78-.38.12.25-.79.38a.57.57,0,0,1-.07.32,1.2,1.2,0,0,1-.26.33,3,3,0,0,1-.45.36c-.18.11-.39.23-.63.35l-.18-.38.4-.21.27-.21a.77.77,0,0,0,.15-.19.23.23,0,0,0,0-.18.19.19,0,0,0-.12-.11.4.4,0,0,0-.19,0,1.38,1.38,0,0,0-.26,0l-.3.12a1.75,1.75,0,0,0-.27.16.77.77,0,0,0-.19.17.7.7,0,0,0-.14.21.88.88,0,0,0-.09.26,3.54,3.54,0,0,1-.14.39A1.67,1.67,0,0,1,156,13a2.57,2.57,0,0,1-.38.33,4,4,0,0,1-.56.32,3.32,3.32,0,0,1-.59.22A1.89,1.89,0,0,1,154,14a1.13,1.13,0,0,1-.38-.05.61.61,0,0,1-.26-.18l-.7.33-.11-.24.69-.33a.62.62,0,0,1,0-.3,1,1,0,0,1,.2-.35,2.87,2.87,0,0,1,.43-.38,6.07,6.07,0,0,1,.7-.39l.17.37a3.27,3.27,0,0,0-.44.25,1.44,1.44,0,0,0-.25.23.39.39,0,0,0-.1.19.41.41,0,0,0,0,.16.34.34,0,0,0,.33.17A1.65,1.65,0,0,0,154.89,13.29Z"/><path class="cls-37" d="M408.42,282.76a22.91,22.91,0,1,1-22.91-22.91A22.91,22.91,0,0,1,408.42,282.76Z"/><path class="cls-38" d="M404.66,282.76a22.92,22.92,0,1,1-22.91-22.91A22.91,22.91,0,0,1,404.66,282.76Z"/><path class="cls-39" d="M401.81,282.76a20.07,20.07,0,1,1-20.06-20.07A20.07,20.07,0,0,1,401.81,282.76Z"/><path class="cls-40" d="M381.75,262.69a20,20,0,0,0-14.52,6.24,20,20,0,0,1,28.35,28.34,20.05,20.05,0,0,0-13.83-34.58Z"/><path class="cls-41" d="M384.36,286.66a2.73,2.73,0,0,0-.15-.92,2.05,2.05,0,0,0-.5-.76,3.87,3.87,0,0,0-.89-.65,9.62,9.62,0,0,0-1.33-.57,15.56,15.56,0,0,1-2.07-.86,6.33,6.33,0,0,1-1.59-1.11,4.28,4.28,0,0,1-1-1.46,5,5,0,0,1-.36-1.93,5.15,5.15,0,0,1,.32-1.84,4.25,4.25,0,0,1,.91-1.44,4.32,4.32,0,0,1,1.4-1,6.13,6.13,0,0,1,1.85-.51V271h1.91v2.62a5.34,5.34,0,0,1,1.82.59,4.27,4.27,0,0,1,1.36,1.14,5.13,5.13,0,0,1,.86,1.68,7.23,7.23,0,0,1,.3,2.16H384.3a5,5,0,0,0-.18-1.35,3.13,3.13,0,0,0-.5-1,2.1,2.1,0,0,0-.78-.64,2.41,2.41,0,0,0-1-.23,3,3,0,0,0-1.09.18,2.14,2.14,0,0,0-.76.5,2,2,0,0,0-.45.75,3.34,3.34,0,0,0-.14,1,2.74,2.74,0,0,0,.14.9,2,2,0,0,0,.49.75,4.55,4.55,0,0,0,.9.65,11.7,11.7,0,0,0,1.41.6,20.79,20.79,0,0,1,2.07.88,6.4,6.4,0,0,1,1.56,1.11,4.49,4.49,0,0,1,1,1.44,5,5,0,0,1,.34,1.94,4.83,4.83,0,0,1-.34,1.87A4.13,4.13,0,0,1,386,290a4.82,4.82,0,0,1-1.47,1,6.58,6.58,0,0,1-1.93.46v2.33h-1.89v-2.32a6.52,6.52,0,0,1-1.84-.45,4.92,4.92,0,0,1-1.56-1,4.75,4.75,0,0,1-1.09-1.65,6.32,6.32,0,0,1-.41-2.39h2.89a4,4,0,0,0,.26,1.53,2.66,2.66,0,0,0,.67,1,2.43,2.43,0,0,0,.93.51,3.36,3.36,0,0,0,1,.15,3,3,0,0,0,2.08-.66A2.29,2.29,0,0,0,384.36,286.66Z"/><path class="cls-37" d="M410.36,334.56a1.67,1.67,0,0,1-1.67,1.68h-45.5a1.68,1.68,0,0,1-1.68-1.68v-4.51a1.68,1.68,0,0,1,1.68-1.68h45.5a1.68,1.68,0,0,1,1.67,1.68Z"/><path class="cls-38" d="M361.83,329.11H410a1.67,1.67,0,0,0-1.35-.74h-45.5A1.69,1.69,0,0,0,361.83,329.11Z"/><path class="cls-42" d="M362,335.71a1.68,1.68,0,0,0,1.21.53h45.5a1.68,1.68,0,0,0,1.21-.53Z"/><rect class="cls-43" x="375.87" y="328.37" width="20.13" height="7.87"/><path class="cls-37" d="M404.49,342.37a1.68,1.68,0,0,1-1.68,1.68h-45.5a1.68,1.68,0,0,1-1.67-1.68v-4.51a1.68,1.68,0,0,1,1.67-1.68h45.5a1.68,1.68,0,0,1,1.68,1.68Z"/><path class="cls-38" d="M356,336.92h48.21a1.67,1.67,0,0,0-1.36-.74h-45.5A1.67,1.67,0,0,0,356,336.92Z"/><path class="cls-42" d="M356.11,343.53a1.65,1.65,0,0,0,1.2.52h45.5a1.65,1.65,0,0,0,1.21-.52Z"/><rect class="cls-43" x="370" y="336.18" width="20.13" height="7.87"/><path class="cls-37" d="M407.57,350.18a1.68,1.68,0,0,1-1.68,1.68h-45.5a1.68,1.68,0,0,1-1.68-1.68v-4.5a1.68,1.68,0,0,1,1.68-1.68h45.5a1.68,1.68,0,0,1,1.68,1.68Z"/><path class="cls-38" d="M359,344.74h48.2a1.63,1.63,0,0,0-1.35-.74h-45.5A1.63,1.63,0,0,0,359,344.74Z"/><path class="cls-42" d="M359.18,351.34a1.69,1.69,0,0,0,1.21.52h45.5a1.67,1.67,0,0,0,1.21-.52Z"/><rect class="cls-43" x="373.07" y="344" width="20.13" height="7.87"/><path class="cls-37" d="M407.32,311.12a1.67,1.67,0,0,1-1.67,1.68H360.14a1.68,1.68,0,0,1-1.68-1.68v-4.51a1.69,1.69,0,0,1,1.68-1.68h45.51a1.68,1.68,0,0,1,1.67,1.68Z"/><path class="cls-38" d="M358.79,305.67H407a1.68,1.68,0,0,0-1.35-.74H360.14A1.68,1.68,0,0,0,358.79,305.67Z"/><path class="cls-42" d="M358.94,312.27a1.65,1.65,0,0,0,1.2.53h45.51a1.65,1.65,0,0,0,1.2-.53Z"/><rect class="cls-43" x="372.83" y="304.93" width="20.13" height="7.87"/><rect class="cls-37" x="358.46" y="312.75" width="48.86" height="7.87" rx="1.68"/><path class="cls-38" d="M358.79,313.48H407a1.66,1.66,0,0,0-1.36-.73h-45.5A1.67,1.67,0,0,0,358.79,313.48Z"/><path class="cls-42" d="M358.94,320.08a1.62,1.62,0,0,0,1.2.53h45.5a1.62,1.62,0,0,0,1.21-.53Z"/><rect class="cls-43" x="372.83" y="312.75" width="20.13" height="7.87"/><path class="cls-37" d="M410.4,326.75a1.68,1.68,0,0,1-1.68,1.67h-45.5a1.68,1.68,0,0,1-1.68-1.67v-4.51a1.68,1.68,0,0,1,1.68-1.68h45.5a1.69,1.69,0,0,1,1.68,1.68Z"/><path class="cls-38" d="M361.87,321.3h48.2a1.63,1.63,0,0,0-1.35-.74h-45.5A1.63,1.63,0,0,0,361.87,321.3Z"/><path class="cls-42" d="M362,327.9a1.67,1.67,0,0,0,1.21.52h45.5a1.65,1.65,0,0,0,1.21-.52Z"/><rect class="cls-43" x="375.9" y="320.56" width="20.14" height="7.86"/><rect class="cls-44" x="233.61" y="312.15" width="89.73" height="41.17"/><rect class="cls-31" x="230.57" y="312.15" width="89.73" height="41.17"/><path class="cls-32" d="M313.83,314.93H237.08a3.73,3.73,0,0,1-3.71,3.68h0v28.19h0a3.73,3.73,0,0,1,3.72,3.73v0h76.73v0a3.72,3.72,0,0,1,3.7-3.73V318.6A3.7,3.7,0,0,1,313.83,314.93Z"/><path class="cls-31" d="M289.43,332.74a14,14,0,1,1-14-14A14,14,0,0,1,289.43,332.74Z"/><path class="cls-31" d="M306.43,332.74a2.78,2.78,0,1,1-2.78-2.78A2.77,2.77,0,0,1,306.43,332.74Z"/><path class="cls-31" d="M250.46,332.74a2.78,2.78,0,1,1-2.78-2.78A2.78,2.78,0,0,1,250.46,332.74Z"/><g class="cls-33"><path class="cls-16" d="M277.58,336.24a2.27,2.27,0,0,0-.11-.77,1.7,1.7,0,0,0-.37-.61,3.06,3.06,0,0,0-.67-.49,7.06,7.06,0,0,0-1-.44c-.67-.26-1.29-.53-1.84-.81a6,6,0,0,1-1.42-1,3.77,3.77,0,0,1-.92-1.29,4.2,4.2,0,0,1-.33-1.75,4.26,4.26,0,0,1,.29-1.6,3.59,3.59,0,0,1,.83-1.28,4.37,4.37,0,0,1,1.29-.87,5.91,5.91,0,0,1,1.69-.44v-2.21h1.66V325a4.66,4.66,0,0,1,1.62.51,3.81,3.81,0,0,1,1.23,1,4.42,4.42,0,0,1,.79,1.45,5.77,5.77,0,0,1,.27,1.88h-3a2.88,2.88,0,0,0-.51-1.87,1.69,1.69,0,0,0-1.37-.61,2,2,0,0,0-.81.14,1.57,1.57,0,0,0-.55.37,1.59,1.59,0,0,0-.33.58,2.46,2.46,0,0,0-.1.72,2.09,2.09,0,0,0,.1.69,1.48,1.48,0,0,0,.36.58,2.85,2.85,0,0,0,.67.5,10.82,10.82,0,0,0,1,.49c.67.27,1.28.54,1.83.82a6.07,6.07,0,0,1,1.42,1,3.88,3.88,0,0,1,.91,1.29,4.22,4.22,0,0,1,.33,1.74,4.4,4.4,0,0,1-.29,1.64,3.87,3.87,0,0,1-.84,1.26,4.13,4.13,0,0,1-1.3.85,6.34,6.34,0,0,1-1.69.42v2.06H274.8V340.4a7.33,7.33,0,0,1-1.66-.41,4.44,4.44,0,0,1-1.43-.9,4.16,4.16,0,0,1-1-1.48,5.69,5.69,0,0,1-.37-2.14h3a3.44,3.44,0,0,0,.19,1.24,2.14,2.14,0,0,0,.52.79,1.69,1.69,0,0,0,.73.4,2.88,2.88,0,0,0,.83.13,2.54,2.54,0,0,0,.86-.14,1.85,1.85,0,0,0,.62-.38,1.45,1.45,0,0,0,.37-.56A2,2,0,0,0,277.58,336.24Z"/></g><rect class="cls-31" x="224.04" y="312.15" width="89.74" height="41.17"/><path class="cls-32" d="M307.3,314.93H230.56a3.74,3.74,0,0,1-3.73,3.68h0v28.19h0a3.73,3.73,0,0,1,3.73,3.73v0h76.73v0a3.72,3.72,0,0,1,3.7-3.73V318.6A3.7,3.7,0,0,1,307.3,314.93Z"/><path class="cls-31" d="M282.89,332.74a14,14,0,1,1-14-14A14,14,0,0,1,282.89,332.74Z"/><path class="cls-31" d="M299.89,332.74a2.77,2.77,0,1,1-2.77-2.78A2.77,2.77,0,0,1,299.89,332.74Z"/><path class="cls-31" d="M243.93,332.74a2.78,2.78,0,1,1-2.78-2.78A2.78,2.78,0,0,1,243.93,332.74Z"/><g class="cls-33"><path class="cls-16" d="M271.05,336.24a2.27,2.27,0,0,0-.11-.77,1.7,1.7,0,0,0-.37-.61,2.91,2.91,0,0,0-.68-.49,6.73,6.73,0,0,0-1-.44,19.28,19.28,0,0,1-1.85-.81,6,6,0,0,1-1.42-1,3.77,3.77,0,0,1-.92-1.29,4.2,4.2,0,0,1-.33-1.75,4.26,4.26,0,0,1,.29-1.6,3.73,3.73,0,0,1,.83-1.28,4.37,4.37,0,0,1,1.29-.87,5.82,5.82,0,0,1,1.69-.44v-2.21h1.66V325a4.73,4.73,0,0,1,1.62.51,3.81,3.81,0,0,1,1.23,1,4.42,4.42,0,0,1,.79,1.45,6.05,6.05,0,0,1,.27,1.88h-3a2.88,2.88,0,0,0-.51-1.87,1.69,1.69,0,0,0-1.37-.61,2,2,0,0,0-.81.14,1.57,1.57,0,0,0-.55.37,1.59,1.59,0,0,0-.33.58,2.46,2.46,0,0,0-.1.72,2.09,2.09,0,0,0,.1.69,1.48,1.48,0,0,0,.36.58,2.72,2.72,0,0,0,.68.5,10.52,10.52,0,0,0,1,.49c.67.27,1.28.54,1.83.82a6.07,6.07,0,0,1,1.42,1,4.06,4.06,0,0,1,.92,1.29,4.84,4.84,0,0,1,0,3.38,3.87,3.87,0,0,1-.84,1.26,4.13,4.13,0,0,1-1.3.85,6.32,6.32,0,0,1-1.7.42v2.06h-1.65V340.4a7.2,7.2,0,0,1-1.66-.41,4.44,4.44,0,0,1-1.43-.9,4.16,4.16,0,0,1-1-1.48,5.5,5.5,0,0,1-.37-2.14h3a3.44,3.44,0,0,0,.19,1.24,2.14,2.14,0,0,0,.52.79,1.69,1.69,0,0,0,.73.4,2.93,2.93,0,0,0,.83.13,2.54,2.54,0,0,0,.86-.14,1.71,1.71,0,0,0,.61-.38,1.36,1.36,0,0,0,.38-.56A1.8,1.8,0,0,0,271.05,336.24Z"/></g><rect class="cls-31" x="217.5" y="312.15" width="89.74" height="41.17"/><path class="cls-32" d="M300.77,314.93H224a3.73,3.73,0,0,1-3.72,3.68h0v28.19h0a3.73,3.73,0,0,1,3.73,3.73v0h76.73v0a3.73,3.73,0,0,1,3.7-3.73V318.6A3.7,3.7,0,0,1,300.77,314.93Z"/><path class="cls-31" d="M276.36,332.74a14,14,0,1,1-14-14A14,14,0,0,1,276.36,332.74Z"/><path class="cls-31" d="M293.36,332.74a2.77,2.77,0,1,1-2.77-2.78A2.76,2.76,0,0,1,293.36,332.74Z"/><path class="cls-31" d="M237.4,332.74a2.78,2.78,0,1,1-2.79-2.78A2.78,2.78,0,0,1,237.4,332.74Z"/><g class="cls-33"><path class="cls-16" d="M264.52,336.24a2.27,2.27,0,0,0-.11-.77,1.7,1.7,0,0,0-.37-.61,2.91,2.91,0,0,0-.68-.49,6.44,6.44,0,0,0-1-.44c-.67-.26-1.29-.53-1.84-.81a6,6,0,0,1-1.42-1,3.91,3.91,0,0,1-.92-1.29,4.2,4.2,0,0,1-.33-1.75,4.26,4.26,0,0,1,.29-1.6,3.59,3.59,0,0,1,.83-1.28,4.37,4.37,0,0,1,1.29-.87,5.82,5.82,0,0,1,1.69-.44v-2.21h1.66V325a4.73,4.73,0,0,1,1.62.51,3.71,3.71,0,0,1,1.23,1,4.42,4.42,0,0,1,.79,1.45,6.05,6.05,0,0,1,.27,1.88h-3a2.88,2.88,0,0,0-.51-1.87,1.69,1.69,0,0,0-1.37-.61,2,2,0,0,0-.81.14,1.57,1.57,0,0,0-.55.37,1.59,1.59,0,0,0-.33.58,2.46,2.46,0,0,0-.1.72,2.09,2.09,0,0,0,.1.69,1.48,1.48,0,0,0,.36.58,2.85,2.85,0,0,0,.67.5c.29.15.63.32,1,.49.67.27,1.28.54,1.83.82a6.28,6.28,0,0,1,1.42,1,3.88,3.88,0,0,1,.91,1.29,4.22,4.22,0,0,1,.33,1.74,4.4,4.4,0,0,1-.29,1.64,3.87,3.87,0,0,1-.84,1.26,4.13,4.13,0,0,1-1.3.85,6.32,6.32,0,0,1-1.7.42v2.06h-1.65V340.4a7.2,7.2,0,0,1-1.66-.41,4.34,4.34,0,0,1-1.43-.9,4.16,4.16,0,0,1-1-1.48,5.5,5.5,0,0,1-.37-2.14h3a3.44,3.44,0,0,0,.19,1.24,2.14,2.14,0,0,0,.52.79,1.77,1.77,0,0,0,.72.4,3,3,0,0,0,.84.13,2.4,2.4,0,0,0,.85-.14,1.67,1.67,0,0,0,.62-.38,1.47,1.47,0,0,0,.38-.56A2,2,0,0,0,264.52,336.24Z"/></g><rect class="cls-31" x="210.98" y="312.15" width="89.74" height="41.17"/><path class="cls-32" d="M294.23,314.93H217.49a3.73,3.73,0,0,1-3.72,3.68h0v28.19h0a3.73,3.73,0,0,1,3.73,3.73v0h76.73v0a3.73,3.73,0,0,1,3.71-3.73V318.6A3.72,3.72,0,0,1,294.23,314.93Z"/><path class="cls-31" d="M269.83,332.74a14,14,0,1,1-14-14A14,14,0,0,1,269.83,332.74Z"/><path class="cls-31" d="M286.84,332.74a2.78,2.78,0,1,1-2.78-2.78A2.78,2.78,0,0,1,286.84,332.74Z"/><path class="cls-31" d="M230.86,332.74a2.78,2.78,0,1,1-2.77-2.78A2.77,2.77,0,0,1,230.86,332.74Z"/><g class="cls-33"><path class="cls-16" d="M258,336.24a2.27,2.27,0,0,0-.11-.77,1.59,1.59,0,0,0-.38-.61,2.76,2.76,0,0,0-.66-.49,7.6,7.6,0,0,0-1-.44c-.67-.26-1.29-.53-1.84-.81a6.3,6.3,0,0,1-1.43-1,3.88,3.88,0,0,1-.91-1.29,4.2,4.2,0,0,1-.33-1.75,4.26,4.26,0,0,1,.29-1.6,3.59,3.59,0,0,1,.83-1.28,4.37,4.37,0,0,1,1.29-.87,5.82,5.82,0,0,1,1.69-.44v-2.21h1.66V325a4.73,4.73,0,0,1,1.62.51,3.81,3.81,0,0,1,1.23,1,4.42,4.42,0,0,1,.79,1.45,6.05,6.05,0,0,1,.27,1.88h-3a2.88,2.88,0,0,0-.51-1.87,1.69,1.69,0,0,0-1.37-.61,2,2,0,0,0-.81.14,1.57,1.57,0,0,0-.55.37,1.59,1.59,0,0,0-.33.58,2.46,2.46,0,0,0-.1.72,2.09,2.09,0,0,0,.1.69,1.48,1.48,0,0,0,.36.58,2.85,2.85,0,0,0,.67.5,10.82,10.82,0,0,0,1.05.49c.67.27,1.28.54,1.83.82a6.07,6.07,0,0,1,1.42,1,4.06,4.06,0,0,1,.92,1.29,4.84,4.84,0,0,1,0,3.38,3.87,3.87,0,0,1-.84,1.26,4.13,4.13,0,0,1-1.3.85,6.34,6.34,0,0,1-1.69.42v2.06h-1.66V340.4a7.2,7.2,0,0,1-1.66-.41,4.34,4.34,0,0,1-1.43-.9,4.16,4.16,0,0,1-1-1.48,5.5,5.5,0,0,1-.37-2.14h3a3.44,3.44,0,0,0,.19,1.24,2.14,2.14,0,0,0,.52.79,1.69,1.69,0,0,0,.73.4,2.88,2.88,0,0,0,.83.13,2.54,2.54,0,0,0,.86-.14,1.71,1.71,0,0,0,.61-.38,1.36,1.36,0,0,0,.38-.56A2,2,0,0,0,258,336.24Z"/></g></g></g></g></svg>