<svg xmlns="http://www.w3.org/2000/svg" viewBox="0 0 129.66 226.68"><defs><style>.cls-1{fill:#575756;}.cls-2{fill:#4fd7e8;}.cls-3{fill:#878787;}.cls-4{fill:#9d9d9c;}.cls-5{fill:#772a2a;}.cls-6{fill:#39b54a;}.cls-7{fill:#bae27a;}.cls-8{fill:#414042;opacity:0.2;}.cls-11,.cls-9{fill:#ecad00;}.cls-10{fill:#fdd66f;}.cls-11{font-size:16.25px;font-family:SofiaPro-Black, SofiaPro Black;font-weight:800;}.cls-12{fill:#fff;opacity:0.3;}.cls-13{fill:#883733;}.cls-14{fill:#9b4949;}.cls-14,.cls-19{opacity:0.5;}.cls-15{fill:#a35252;}.cls-16{fill:#944;}.cls-17,.cls-19{fill:#939598;}.cls-18{fill:#e6e7e8;}.cls-20{fill:#1d1d1b;opacity:0.15;}</style></defs><g id="Capa_2" data-name="Capa 2"><g id="Layer_1" data-name="Layer 1"><rect class="cls-1" width="129.66" height="226.68" rx="18.41"/><rect class="cls-2" x="14.71" y="16.25" width="100.23" height="183.66" rx="3.7"/><path class="cls-3" d="M69.58,8.46a4.75,4.75,0,1,1-4.75-4.75A4.76,4.76,0,0,1,69.58,8.46Z"/><path class="cls-4" d="M73,213.53a8.12,8.12,0,1,1-8.12-8.12A8.11,8.11,0,0,1,73,213.53Z"/><path class="cls-4" d="M45.37,212.46a3.46,3.46,0,0,1-3.46,3.45H26.13a3.46,3.46,0,0,1-3.45-3.45h0A3.45,3.45,0,0,1,26.13,209H41.91a3.45,3.45,0,0,1,3.46,3.45Z"/><path class="cls-4" d="M106.36,212.46a3.45,3.45,0,0,1-3.45,3.45H87.13a3.46,3.46,0,0,1-3.45-3.45h0A3.45,3.45,0,0,1,87.13,209h15.78a3.44,3.44,0,0,1,3.45,3.45Z"/><path class="cls-5" d="M89.79,129.24a4.47,4.47,0,0,1-4.86,4l-44.8-4.55a4.47,4.47,0,0,1-4-4.92l3.3-32.59a4.47,4.47,0,0,1,4.87-4l44.8,4.55a4.46,4.46,0,0,1,4,4.92Z"/><rect class="cls-6" x="43.48" y="77.77" width="27.44" height="44.72" transform="translate(-28.25 22.69) rotate(-18.08)"/><path class="cls-7" d="M55.36,121.36l15.84-5.17a3.13,3.13,0,0,1,2-3.87L62.94,81a3.13,3.13,0,0,1-3.89-2s0,0,0-.06L43.19,84.08a.14.14,0,0,0,0,.06,3.13,3.13,0,0,1-2,3.93l10.23,31.32A3.14,3.14,0,0,1,55.36,121.36Z"/><path class="cls-6" d="M49.27,102.82a8.36,8.36,0,1,1,10.55,5.35A8.38,8.38,0,0,1,49.27,102.82Z"/><path class="cls-7" d="M62.92,97.51l.34,1L61.82,99a2.85,2.85,0,0,1-1.91,3.48l-.75-2.18c.57-.19.73-.6.52-1.23s-.61-.86-1-.71-.47.46-.44,1.08l0,1.15c0,1.84-.58,3-1.9,3.44a2.48,2.48,0,0,1-2.19-.17,3.79,3.79,0,0,1-1.48-1.74l-1.58.54-.34-1,1.56-.53c-.42-1.8.25-3.25,1.81-3.78l.76,2.22a1,1,0,0,0-.5,1.41c.21.62.66,1,1.19.84a1.09,1.09,0,0,0,.19-.1,1.67,1.67,0,0,0,.25-1.06V99.48c-.14-2.22,1-3,1.86-3.27a2.66,2.66,0,0,1,2.11.12A3.49,3.49,0,0,1,61.49,98Z"/><path class="cls-8" d="M51.09,125.65l26.08-8.51L63.3,74.62,62.1,75c-2.22,3.87-8.64,12.77-22.17,16.45Z"/><path class="cls-9" d="M84.16,94.72a11.55,11.55,0,1,1-7.89-14.29A11.55,11.55,0,0,1,84.16,94.72Z"/><path class="cls-9" d="M84.16,94.72a11.55,11.55,0,1,1-7.89-14.29A11.55,11.55,0,0,1,84.16,94.72Z"/><path class="cls-10" d="M82.41,94.22a9.73,9.73,0,1,1-6.65-12A9.72,9.72,0,0,1,82.41,94.22Z"/><text class="cls-11" transform="matrix(0.96, 0.28, -0.28, 0.96, 67.24, 95.45)">$</text><path class="cls-12" d="M82,90.84a8.41,8.41,0,1,1-5.75-10.41A8.42,8.42,0,0,1,82,90.84Z"/><path class="cls-12" d="M69.05,93.88a1.76,1.76,0,1,1-1.21-2.19A1.77,1.77,0,0,1,69.05,93.88Z"/><rect class="cls-13" x="35.43" y="92.1" width="58.22" height="44.46" rx="4.79"/><path class="cls-5" d="M93.65,131.77V96.89a4.79,4.79,0,0,0-2.27-4.07c-5.92,27.12-38.79,29.32-55.95,28.55v10.4a4.79,4.79,0,0,0,4.79,4.79H88.86A4.79,4.79,0,0,0,93.65,131.77Z"/><path class="cls-14" d="M40.22,92.1a4.79,4.79,0,0,0-4.79,4.79v4.52c12,2.41,33.43,4.32,44.75-9.31Z"/><path class="cls-15" d="M87,134.17H81.87a.19.19,0,0,1-.18-.19.18.18,0,0,1,.18-.18H87a.19.19,0,0,1,.19.18A.2.2,0,0,1,87,134.17Zm-10.32,0H71.56a.2.2,0,0,1-.19-.19.19.19,0,0,1,.19-.18h5.15a.18.18,0,0,1,.19.18A.19.19,0,0,1,76.71,134.17Zm-10.31,0H61.24a.19.19,0,0,1-.18-.19.18.18,0,0,1,.18-.18H66.4a.18.18,0,0,1,.18.18A.19.19,0,0,1,66.4,134.17Zm-10.32,0H50.92a.19.19,0,0,1-.18-.19.18.18,0,0,1,.18-.18h5.16a.19.19,0,0,1,.19.18A.2.2,0,0,1,56.08,134.17Zm-10.32,0H40.61a.19.19,0,0,1-.19-.19.18.18,0,0,1,.19-.18h5.15A.18.18,0,0,1,46,134,.19.19,0,0,1,45.76,134.17Zm-5.54,0a2.4,2.4,0,0,1-2.39-2.4v-1.68a.19.19,0,0,1,.18-.19.2.2,0,0,1,.19.19v1.68a2,2,0,0,0,2,2,.18.18,0,0,1,.19.18A.19.19,0,0,1,40.22,134.17Zm50.85-2.07h0a.2.2,0,0,1-.17-.2s0-.08,0-.13v-5a.18.18,0,1,1,.36,0v5.17A.19.19,0,0,1,91.07,132.1Zm-53.06-7a.18.18,0,0,1-.18-.18v-5.16a.18.18,0,0,1,.18-.18.19.19,0,0,1,.19.18v5.16A.19.19,0,0,1,38,125.11Zm53.06-3.33a.18.18,0,0,1-.18-.18v-5.16a.18.18,0,1,1,.36,0v5.16A.18.18,0,0,1,91.07,121.78ZM38,114.8a.19.19,0,0,1-.18-.19v-5.16a.18.18,0,0,1,.18-.18.19.19,0,0,1,.19.18v5.16A.2.2,0,0,1,38,114.8Zm53.06-3.34a.18.18,0,0,1-.18-.18v-5.16a.18.18,0,0,1,.36,0v5.16A.18.18,0,0,1,91.07,111.46Zm-53.06-7a.18.18,0,0,1-.18-.19V99.14A.18.18,0,0,1,38,99a.19.19,0,0,1,.19.19v5.15A.19.19,0,0,1,38,104.48Zm53.06-3.33a.18.18,0,0,1-.18-.19V96.89a2.09,2.09,0,0,0-.24-1,.18.18,0,1,1,.32-.18,2.36,2.36,0,0,1,.28,1.13V101A.18.18,0,0,1,91.07,101.15Zm-51.4-6.22a.18.18,0,0,1-.18-.13.2.2,0,0,1,.13-.23,2.46,2.46,0,0,1,.6-.07h4.6a.18.18,0,1,1,0,.36h-4.6a2.08,2.08,0,0,0-.5.07Zm46.42-.07H80.93a.18.18,0,1,1,0-.36h5.16a.18.18,0,1,1,0,.36Zm-10.32,0H70.61a.18.18,0,1,1,0-.36h5.16a.18.18,0,1,1,0,.36Zm-10.31,0H60.3a.18.18,0,1,1,0-.36h5.16a.18.18,0,1,1,0,.36Zm-10.32,0H50a.18.18,0,0,1,0-.36h5.16a.18.18,0,0,1,0,.36Z"/><path class="cls-16" d="M48.57,114.21A4.79,4.79,0,0,1,43.79,119H35.43c-2.64,0-2.58-2.15-2.58-4.79v-1.6c0-2.64-.06-4.79,2.58-4.79h8.36a4.79,4.79,0,0,1,4.78,4.79Z"/><path class="cls-17" d="M46.92,113.39a3.54,3.54,0,1,1-3.54-3.53A3.54,3.54,0,0,1,46.92,113.39Z"/><path class="cls-18" d="M46.59,112.84A2.84,2.84,0,1,1,43.75,110,2.84,2.84,0,0,1,46.59,112.84Z"/><path class="cls-12" d="M45.85,111.43a1,1,0,1,1-1-1A1,1,0,0,1,45.85,111.43Z"/><rect class="cls-18" x="74.64" y="126.4" width="12.8" height="4.42" rx="0.74"/><path class="cls-19" d="M87.45,130.08v-1.34c-1.75.43-7.75,1.57-12.81-1.4v2.74a.74.74,0,0,0,.74.74H86.71A.74.74,0,0,0,87.45,130.08Z"/><path class="cls-20" d="M64.83,0H18.41A18.41,18.41,0,0,0,0,18.41V208.27a18.41,18.41,0,0,0,18.41,18.41H64.83Z"/></g></g></svg>