<svg xmlns="http://www.w3.org/2000/svg" viewBox="0 0 335.03 529.89"><defs><style>.cls-1{isolation:isolate;}.cls-2{opacity:0.3;}.cls-3{fill:#c6babd;}.cls-4{fill:#ddd4d7;}.cls-5{fill:#a19597;}.cls-6{fill:#fff;}.cls-7{fill:#898081;}.cls-8{opacity:0.5;}.cls-9{fill:#ccc;}.cls-10{fill:#347474;}.cls-11{fill:#285e5d;}.cls-12{fill:#306663;}.cls-13{fill:#1e4c4a;}.cls-14{fill:#333;}.cls-15{fill:#79286a;}.cls-16{fill:#218400;}.cls-17{fill:#f2f2f2;}.cls-18{fill:#ff5000;}.cls-19{fill:#1a1a1a;}.cls-20{fill:#232323;}.cls-21{fill:gray;}.cls-22{fill:#0f0f0f;}.cls-23{fill:#4a8e8c;}.cls-24{mix-blend-mode:color;}</style></defs><g class="cls-1"><g id="Capa_2" data-name="Capa 2"><g id="Layer_1" data-name="Layer 1"><g class="cls-2"><rect class="cls-3" x="279.78" y="230.96" width="55.25" height="92.84"/><rect class="cls-4" x="292.1" y="237.94" width="29.95" height="44.04"/><rect class="cls-5" x="294.35" y="237.94" width="25.45" height="41.88"/><rect class="cls-4" x="296.05" y="237.94" width="22.45" height="40.43"/><path class="cls-5" d="M296.68,237.94a2.45,2.45,0,0,0,0,.27,10.53,10.53,0,1,0,21,0,2.45,2.45,0,0,0,0-.27Z"/><path class="cls-5" d="M299.48,237.94a2.45,2.45,0,0,0,0,.27,7.82,7.82,0,1,0,15.63,0c0-.09,0-.18,0-.27Z"/><path class="cls-4" d="M301.9,237.94c0,.12,0,.24,0,.36a5.4,5.4,0,1,0,10.8,0c0-.12,0-.24,0-.36Z"/><path class="cls-6" d="M306.54,274.05a7.08,7.08,0,1,1,7.08-7.07A7.07,7.07,0,0,1,306.54,274.05Z"/><path class="cls-4" d="M306.54,272a4.89,4.89,0,1,1,4.89-4.89A4.89,4.89,0,0,1,306.54,272Z"/><path class="cls-7" d="M317,271.83l-.27-.53.35-.2.51.83v.45H315.1l0,.47h-.39v-1.59h.37l0,.44c0,.09,0,.13.15.13Z"/><path class="cls-7" d="M316.18,275.24c-1.08,0-1.53-.38-1.53-1.07s.45-1.05,1.52-1.05,1.51.43,1.51,1.08S317.26,275.24,316.18,275.24Zm0-.54c.82,0,1.06-.21,1.06-.51s-.26-.51-1.12-.51-1,.19-1,.5S315.31,274.7,316.18,274.7Z"/><path class="cls-7" d="M316.18,277.67c-1.08,0-1.53-.37-1.53-1.07s.45-1,1.52-1,1.51.43,1.51,1.08S317.26,277.67,316.18,277.67Zm0-.54c.82,0,1.06-.21,1.06-.51s-.26-.51-1.12-.51-1,.19-1,.5S315.31,277.13,316.18,277.13Z"/><path class="cls-7" d="M298.89,271.83l-.28-.53.35-.2.52.83v.45H297l0,.47h-.39v-1.59h.38l0,.44c0,.09,0,.13.16.13Z"/><path class="cls-7" d="M298,275.24c-1.08,0-1.54-.38-1.54-1.07s.46-1.05,1.52-1.05,1.52.43,1.52,1.08S299.11,275.24,298,275.24Zm0-.54c.83,0,1.06-.21,1.06-.51s-.26-.51-1.12-.51-1,.19-1,.5S297.16,274.7,298,274.7Z"/><path class="cls-7" d="M298,277.67c-1.08,0-1.54-.37-1.54-1.07s.46-1,1.52-1,1.52.43,1.52,1.08S299.11,277.67,298,277.67Zm0-.54c.83,0,1.06-.21,1.06-.51s-.26-.51-1.12-.51-1,.19-1,.5S297.16,277.13,298,277.13Z"/><path class="cls-7" d="M309.18,254.21l-.75-1.45,1-.55,1.4,2.26v1.22h-6.88l-.06,1.29h-1.06v-4.32h1l.07,1.19c0,.24.1.36.41.36Z"/><path class="cls-7" d="M306.87,263.5c-2.95,0-4.2-1-4.2-2.91s1.25-2.85,4.15-2.85,4.13,1.16,4.13,2.94S309.8,263.5,306.87,263.5Zm0-1.48c2.26,0,2.9-.56,2.9-1.38s-.71-1.4-3.06-1.4c-2.15,0-2.82.53-2.82,1.38S304.48,262,306.84,262Z"/><path class="cls-7" d="M306.87,270.14c-2.95,0-4.2-1-4.2-2.9s1.25-2.86,4.15-2.86,4.13,1.17,4.13,2.94S309.8,270.14,306.87,270.14Zm0-1.47c2.26,0,2.9-.56,2.9-1.38s-.71-1.41-3.06-1.41c-2.15,0-2.82.54-2.82,1.38S304.48,268.67,306.84,268.67Z"/><path class="cls-6" d="M298.78,242.11a1.45,1.45,0,0,1,.21-2.22A1.45,1.45,0,0,1,298.78,242.11Z"/><path class="cls-6" d="M301.3,240a1.57,1.57,0,0,0-2.31-.07A1.6,1.6,0,0,0,301.3,240Z"/><path class="cls-6" d="M300,244.41a1.47,1.47,0,0,1-.28-2.23A1.5,1.5,0,0,1,300,244.41Z"/><path class="cls-6" d="M302,241.76a1.55,1.55,0,0,0-2.26.42A1.57,1.57,0,0,0,302,241.76Z"/><path class="cls-6" d="M301.9,245.76a1.48,1.48,0,0,1-.84-2.09A1.5,1.5,0,0,1,301.9,245.76Z"/><path class="cls-6" d="M303.13,242.69a1.54,1.54,0,0,0-2.07,1A1.56,1.56,0,0,0,303.13,242.69Z"/><path class="cls-6" d="M303.89,246.45a1.48,1.48,0,0,1-.94-2A1.48,1.48,0,0,1,303.89,246.45Z"/><path class="cls-6" d="M305,243.33a1.55,1.55,0,0,0-2,1.07A1.56,1.56,0,0,0,305,243.33Z"/><path class="cls-6" d="M306,247.11a1.48,1.48,0,0,1-1.36-1.79A1.49,1.49,0,0,1,306,247.11Z"/><path class="cls-6" d="M306.39,243.83a1.55,1.55,0,0,0-1.74,1.49A1.55,1.55,0,0,0,306.39,243.83Z"/><path class="cls-6" d="M307.89,247.4a1.46,1.46,0,0,1-1.35-1.79A1.49,1.49,0,0,1,307.89,247.4Z"/><path class="cls-6" d="M308.28,244.12a1.54,1.54,0,0,0-1.74,1.49A1.56,1.56,0,0,0,308.28,244.12Z"/><path class="cls-6" d="M310,247.21a1.47,1.47,0,0,1-1.44-1.72A1.49,1.49,0,0,1,310,247.21Z"/><path class="cls-6" d="M312.22,245.6a1.46,1.46,0,0,1-2.23-.2A1.46,1.46,0,0,1,312.22,245.6Z"/><path class="cls-6" d="M310.16,243.91a1.55,1.55,0,0,0-1.66,1.58A1.55,1.55,0,0,0,310.16,243.91Z"/><rect class="cls-7" x="310.75" y="263.45" width="12.81" height="1.11" transform="translate(581.16 -53.15) rotate(90)"/><rect class="cls-7" x="291.15" y="263.45" width="12.81" height="1.11" transform="translate(561.56 -33.55) rotate(90)"/><path class="cls-6" d="M307,282c-2.21-4.27-3.05-6.82-3.27-8.18-.05-.34-.1-.67-.16-1l0-.06c-.05-.33-.12-.65-.19-1l0-.08c-.08-.33-.17-.66-.28-1l0-.07a14.13,14.13,0,0,0-.66-1.68,2,2,0,0,0-2.48-1.32c-1.75.59-3.85,3.82-2.76,8.87a46,46,0,0,0,1.77,6.15,15.23,15.23,0,0,1,1.12,4.91h0c0,.24,0,.49,0,.74a.37.37,0,0,0,0,.11c0,.26,0,.52-.06.81h0c0,.27-.07.54-.11.83a1.55,1.55,0,0,1,0,.21c-.05.31-.11.62-.18.95,0,.09,0,.17-.05.26h0a14.21,14.21,0,0,0-.4,4.3,11.71,11.71,0,0,0,3.16,6.54c.64.72,2.5,2.48,3.23,3.35,1.9,2.28,2.11,6.58,2.28,8.61h10.95c.29-5,1.61-25.69,1.74-31.2,0-.4,0-.76,0-1.09Z"/><path class="cls-3" d="M307,282c0,.17,1.59,6.06,3.17,6.52s3.08-1.62,3.08-6.52Z"/><path class="cls-3" d="M298.59,272.62s-.58-3.65,1.72-3.89,2.09,3.38,2.09,3.38Z"/><rect class="cls-7" x="288.25" y="238.21" width="38.31" height="3.35"/><rect class="cls-5" x="288.25" y="234.87" width="38.31" height="3.35"/></g><g class="cls-2"><rect class="cls-3" x="12.1" y="325.95" width="98.4" height="58.17"/><path class="cls-4" d="M84.38,375.26l.14-.15a.66.66,0,0,0,.16-.66v0a.31.31,0,0,0,0-.1.39.39,0,0,0-.06-.11l0,0L73.39,363.05l0,0-.11-.05a.33.33,0,0,0-.1-.06h0a.67.67,0,0,0-.67.16l-.15.14-1.43,1.44,12.06,12.06Z"/><path class="cls-5" d="M69.19,366.32l0,0a.65.65,0,0,0,.09.8l11.13,11.13a.65.65,0,0,0,.8.09l0,0,.11-.11,1.58-1.58L70.88,364.63l-1.58,1.58Z"/><path class="cls-4" d="M40.17,373.54v-.21a.66.66,0,0,0-.36-.58h0l-.11,0a.42.42,0,0,0-.12,0H23.72l-.12,0-.11,0h0a.65.65,0,0,0-.37.58v2.23H40.17Z"/><path class="cls-5" d="M23.1,378h0a.65.65,0,0,0,.62.5H39.51a.65.65,0,0,0,.62-.5h0v-2.4H23.1V378Z"/><path class="cls-4" d="M40.17,366.24V366a.66.66,0,0,0-.36-.58h0a.35.35,0,0,0-.11,0s-.07,0-.12,0H23.72a.56.56,0,0,0-.12,0,.35.35,0,0,0-.11,0h0a.65.65,0,0,0-.37.58v2.24H40.17Z"/><path class="cls-5" d="M23.1,370.66h0a.64.64,0,0,0,.62.5H39.51a.64.64,0,0,0,.62-.5h0v-2.39H23.1v2.39Z"/><path class="cls-4" d="M43.11,359v-.2a.65.65,0,0,0-.36-.58l0,0a.53.53,0,0,0-.12,0,.45.45,0,0,0-.11,0H26.66a.35.35,0,0,0-.11,0,.53.53,0,0,0-.12,0l0,0a.65.65,0,0,0-.36.58V361H43.11Z"/><path class="cls-5" d="M26.05,363.39h0a.64.64,0,0,0,.63.5H42.45a.64.64,0,0,0,.63-.5h0V361H26.05v2.39Z"/><path class="cls-4" d="M40.17,351.68v-.21a.65.65,0,0,0-.36-.58h0l-.11,0a.42.42,0,0,0-.12,0H23.72l-.12,0-.11,0h0a.64.64,0,0,0-.37.58v2.23H40.17Z"/><path class="cls-5" d="M23.1,356.1h0a.65.65,0,0,0,.62.5H39.51a.65.65,0,0,0,.62-.5h0v-2.4H23.1v2.4Z"/><path class="cls-4" d="M43.11,344.44v-.2a.65.65,0,0,0-.36-.58l0,0-.12,0s-.07,0-.11,0H26.66a.36.36,0,0,0-.11,0l-.12,0,0,0a.65.65,0,0,0-.36.58v2.23H43.11Z"/><path class="cls-5" d="M26.05,348.86h0a.64.64,0,0,0,.63.5H42.45a.64.64,0,0,0,.63-.5h0v-2.39H26.05v2.39Z"/><path class="cls-4" d="M40.17,337.15v-.21a.65.65,0,0,0-.36-.58l0,0-.11,0a.42.42,0,0,0-.12,0H23.72l-.12,0-.11,0,0,0a.64.64,0,0,0-.37.58v2.23H40.17Z"/><path class="cls-5" d="M23.1,341.57h0a.65.65,0,0,0,.62.5H39.51a.65.65,0,0,0,.62-.5h0v-2.4H23.1v2.4Z"/><path class="cls-4" d="M64.56,373.54v-.21a.66.66,0,0,0-.36-.58h0l-.11,0a.42.42,0,0,0-.12,0H48.11l-.12,0-.11,0h0a.65.65,0,0,0-.37.58v2.23H64.56Z"/><path class="cls-5" d="M47.49,378h0a.65.65,0,0,0,.62.5H63.9a.65.65,0,0,0,.62-.5h0v-2.4H47.49V378Z"/><path class="cls-4" d="M67.5,366.27v-.21a.66.66,0,0,0-.36-.58h0l-.12,0a.45.45,0,0,0-.11,0H51.05a.35.35,0,0,0-.11,0l-.12,0h0a.66.66,0,0,0-.36.58v2.24H67.5Z"/><path class="cls-5" d="M50.44,370.69h0a.65.65,0,0,0,.63.5H66.84a.65.65,0,0,0,.63-.5h0V368.3H50.44v2.39Z"/><path class="cls-4" d="M64.56,359v-.2a.65.65,0,0,0-.36-.58l0,0a.35.35,0,0,0-.11,0,.42.42,0,0,0-.12,0H48.11l-.12,0a.35.35,0,0,0-.11,0l0,0a.64.64,0,0,0-.37.58V361H64.56Z"/><path class="cls-5" d="M47.49,363.39h0a.64.64,0,0,0,.62.5H63.9a.64.64,0,0,0,.62-.5h0V361H47.49v2.39Z"/><path class="cls-5" d="M69.11,343.59A12.09,12.09,0,1,1,57,331.5,12.09,12.09,0,0,1,69.11,343.59Z"/><circle class="cls-4" cx="57.03" cy="343.59" r="9.86"/><path class="cls-5" d="M56.44,349.47a7.27,7.27,0,0,1-2.95-.66v-2.56l1.7-.12v1c0,.31.05.43.34.53a2.72,2.72,0,0,0,.91.14v-3.21c-1.58-.43-3-1.1-3-3.09a3.13,3.13,0,0,1,3-3.13v-1.58h1.29v1.54a7.19,7.19,0,0,1,2.66.66v2.42l-1.68.1v-.93c0-.3-.05-.43-.34-.53a4,4,0,0,0-.64-.12v3h0c1.51.46,3.09,1.13,3.09,3.21a3.24,3.24,0,0,1-3.11,3.24v1.77H56.44Zm0-7V340a1.24,1.24,0,0,0-.89,1.28A1.27,1.27,0,0,0,56.44,342.51ZM57.73,345v2.68a1.36,1.36,0,0,0,1-1.43A1.32,1.32,0,0,0,57.73,345Z"/><rect class="cls-5" x="101.52" y="330.99" width="4.58" height="47.47"/><rect class="cls-5" x="92.52" y="330.99" width="4.58" height="47.47"/></g><g class="cls-2"><rect class="cls-3" x="260.66" y="8.52" width="40.7" height="55.69"/></g><g class="cls-2"><g class="cls-8"><path class="cls-3" d="M102.36,68.66A30.54,30.54,0,1,1,79.57,32,30.53,30.53,0,0,1,102.36,68.66Z"/><path class="cls-3" d="M35.5,56.78a45.4,45.4,0,0,1,19.06-37A45.47,45.47,0,1,0,90,101.34,45.52,45.52,0,0,1,35.5,56.78Z"/><path class="cls-3" d="M126.43,56.78a45.46,45.46,0,0,0-71.87-37A45.47,45.47,0,0,1,90,101.34,45.48,45.48,0,0,0,126.43,56.78Z"/><path class="cls-6" d="M50.64,30.67s-8.55,2.42-9.12,17.27c-.39,9.94,15.23,22,15.23,22l-8.34,3.63s8,5,16.11,6.1c5.88.77,14.89-.34,14.89-.34s2-24.3-5.87-33.07c-3.92,6.36-8.11,14.41-8.11,14.41s-9.61-14.5-9.2-22.55c.52-10.5,6.23-11.45,6.23-11.45Z"/><rect class="cls-3" x="11.86" y="120.59" width="124.04" height="7.3"/><rect class="cls-3" x="11.86" y="139.48" width="124.04" height="7.3"/></g><g class="cls-8"><path class="cls-3" d="M145.22,158.1H0V0H145.22ZM3.88,154.21H141.34V3.88H3.88Z"/></g></g><ellipse class="cls-9" cx="183.69" cy="506.57" rx="150.37" ry="23.32"/><rect class="cls-10" x="96.89" y="41.85" width="173.61" height="464.72"/><path class="cls-11" d="M80.49,41.85a5.78,5.78,0,0,0-5.78,5.79V506.57H96.89V41.85Z"/><path class="cls-11" d="M286.9,41.85H270.5V506.57h22.18V47.64A5.78,5.78,0,0,0,286.9,41.85Z"/><polygon class="cls-12" points="112.91 118.53 96.89 103.74 270.5 103.74 254.48 118.53 112.91 118.53"/><polygon class="cls-13" points="96.89 103.74 96.89 267 106.51 267 106.63 239.86 112.91 118.53 96.89 103.74"/><polygon class="cls-13" points="270.5 103.74 270.5 267 260.88 267 260.76 239.86 254.48 118.53 270.5 103.74"/><polygon class="cls-14" points="260.76 239.86 106.63 239.86 112.91 118.53 254.48 118.53 260.76 239.86"/><path class="cls-15" d="M242.75,179.46h4.62A1.59,1.59,0,0,0,249,177.8l-.24-4.93a1.57,1.57,0,0,0-1.57-1.51h-4.59A1.58,1.58,0,0,0,241,173l.21,4.93A1.58,1.58,0,0,0,242.75,179.46Z"/><path class="cls-15" d="M243.22,190.75h4.68a1.59,1.59,0,0,0,1.58-1.66l-.24-5.07a1.57,1.57,0,0,0-1.58-1.5H243a1.58,1.58,0,0,0-1.57,1.64l.21,5.07A1.58,1.58,0,0,0,243.22,190.75Z"/><path class="cls-15" d="M243.7,202.22h4.75a1.57,1.57,0,0,0,1.57-1.65l-.24-5.21a1.58,1.58,0,0,0-1.58-1.5h-4.71a1.58,1.58,0,0,0-1.58,1.64l.22,5.21A1.57,1.57,0,0,0,243.7,202.22Z"/><path class="cls-15" d="M250.32,206.89a1.58,1.58,0,0,0-1.58-1.51H244a1.58,1.58,0,0,0-1.58,1.65l.22,5.34a1.58,1.58,0,0,0,1.58,1.52H249a1.58,1.58,0,0,0,1.57-1.66Z"/><path class="cls-16" d="M124.66,171.36H120.1a1.59,1.59,0,0,0-1.59,1.52l-.24,4.91a1.6,1.6,0,0,0,1.59,1.67h4.59a1.58,1.58,0,0,0,1.59-1.53l.21-4.91A1.6,1.6,0,0,0,124.66,171.36Z"/><path class="cls-16" d="M124.19,182.52h-4.62A1.59,1.59,0,0,0,118,184l-.24,5.05a1.59,1.59,0,0,0,1.59,1.67H124a1.59,1.59,0,0,0,1.59-1.53l.21-5A1.59,1.59,0,0,0,124.19,182.52Z"/><path class="cls-16" d="M123.72,193.86H119a1.59,1.59,0,0,0-1.59,1.51l-.24,5.18a1.59,1.59,0,0,0,1.59,1.67h4.72a1.59,1.59,0,0,0,1.59-1.52l.21-5.18A1.59,1.59,0,0,0,123.72,193.86Z"/><path class="cls-16" d="M123.24,205.38h-4.75a1.59,1.59,0,0,0-1.59,1.52l-.25,5.32a1.59,1.59,0,0,0,1.59,1.67H123a1.6,1.6,0,0,0,1.59-1.53l.22-5.32A1.59,1.59,0,0,0,123.24,205.38Z"/><polygon class="cls-17" points="236.75 213.89 130.7 213.89 133.72 132.9 233.71 132.9 236.75 213.89"/><polygon class="cls-6" points="132.84 156.41 132.54 164.6 234.33 149.38 234.06 142.11 132.84 156.41"/><polygon class="cls-6" points="132.19 173.92 131.45 193.74 235.41 178.2 234.71 159.43 132.19 173.92"/><polygon class="cls-18" points="115.68 223.75 115.33 231.59 140.15 231.59 140.23 223.75 115.68 223.75"/><rect class="cls-19" x="117.67" y="226.69" width="20.23" height="1.96"/><polygon class="cls-18" points="242.33 232.7 211.34 232.7 211.22 221.97 241.95 221.97 242.33 232.7"/><polygon class="cls-19" points="240.5 230.76 213.08 230.76 213.05 227.91 240.38 227.91 240.5 230.76"/><polygon class="cls-20" points="260.76 239.86 106.63 239.86 96.89 260.43 270.5 260.43 266.38 251.74 260.76 239.86"/><path class="cls-21" d="M164.17,242.11H157.9c-.53,0-1,.16-1,.35l-.37,2.27c0,.19.39.35.93.35h6.38c.54,0,1-.16,1-.35l.26-2.27C165.12,242.27,164.71,242.11,164.17,242.11Z"/><path class="cls-21" d="M174.75,242.11h-6.27c-.53,0-1,.16-1,.35l-.22,2.27c0,.19.4.35,1,.35h6.38c.54,0,1-.16,1-.35l.11-2.27C175.71,242.27,175.28,242.11,174.75,242.11Z"/><path class="cls-21" d="M185.32,242.11h-6.26c-.54,0-1,.16-1,.35l-.08,2.27c0,.19.43.35,1,.35h6.38c.55,0,1-.16,1-.35l0-2.27C186.29,242.27,185.86,242.11,185.32,242.11Z"/><path class="cls-21" d="M207.61,242.11H193.92c-1.57,0-2.82.46-2.8,1l0,.91c0,.57,1.35,1,3,1H208c1.6,0,2.82-.47,2.73-1l-.15-.91C210.53,242.57,209.18,242.11,207.61,242.11Z"/><path class="cls-21" d="M163.71,246H157.3c-.54,0-1,.16-1.05.36l-.38,2.38c0,.21.39.37.95.37h6.53c.55,0,1-.16,1.05-.37l.27-2.38C164.69,246.12,164.26,246,163.71,246Z"/><path class="cls-21" d="M174.54,246h-6.41c-.55,0-1,.16-1,.36l-.23,2.38c0,.21.41.37,1,.37h6.53c.56,0,1-.16,1-.37l.11-2.38C175.52,246.12,175.09,246,174.54,246Z"/><path class="cls-21" d="M185.36,246H179c-.55,0-1,.16-1,.36l-.09,2.38c0,.21.44.37,1,.37h6.53c.56,0,1-.16,1-.37l0-2.38C186.35,246.12,185.91,246,185.36,246Z"/><path class="cls-21" d="M208.17,246h-14c-1.61,0-2.89.48-2.86,1.07l0,.95c0,.6,1.38,1.09,3,1.09h14.27c1.63,0,2.88-.49,2.78-1.09l-.15-.95C211.15,246.44,209.77,246,208.17,246Z"/><path class="cls-21" d="M163.24,250h-6.57c-.56,0-1,.17-1.07.38l-.41,2.5c0,.21.4.39,1,.39h6.69c.57,0,1.05-.18,1.08-.39l.28-2.5C164.23,250.16,163.8,250,163.24,250Z"/><path class="cls-21" d="M174.32,250h-6.57c-.56,0-1,.17-1.05.38l-.24,2.5c0,.21.42.39,1,.39h6.69c.57,0,1-.18,1.05-.39l.13-2.5C175.33,250.16,174.88,250,174.32,250Z"/><path class="cls-21" d="M185.4,250h-6.56c-.56,0-1,.17-1,.38l-.09,2.5c0,.21.45.39,1,.39h6.69c.57,0,1-.18,1-.39l0-2.5C186.42,250.16,186,250,185.4,250Z"/><path class="cls-21" d="M208.75,250H194.41c-1.65,0-3,.5-2.93,1.12l.05,1c0,.63,1.41,1.15,3.08,1.15h14.61c1.68,0,3-.52,2.86-1.15l-.17-1C211.81,250.49,210.4,250,208.75,250Z"/><path class="cls-21" d="M162.74,254.23H156c-.57,0-1.07.17-1.1.39l-.43,2.62c0,.23.41.41,1,.41h6.85c.59,0,1.08-.18,1.11-.41l.29-2.62C163.76,254.4,163.31,254.23,162.74,254.23Z"/><path class="cls-21" d="M174.09,254.23h-6.73c-.57,0-1.05.17-1.07.39l-.26,2.62c0,.23.43.41,1,.41h6.85c.59,0,1.07-.18,1.08-.41l.13-2.62C175.12,254.4,174.66,254.23,174.09,254.23Z"/><path class="cls-21" d="M185.44,254.23h-6.72c-.58,0-1.05.17-1.06.39l-.09,2.62c0,.23.47.41,1.05.41h6.86c.58,0,1.05-.18,1.05-.41l0-2.62C186.48,254.4,186,254.23,185.44,254.23Z"/><path class="cls-21" d="M209.36,254.23H194.67c-1.68,0-3,.52-3,1.17l.05,1c0,.66,1.45,1.2,3.17,1.2h15c1.72,0,3-.54,2.92-1.2l-.17-1C212.5,254.75,211.05,254.23,209.36,254.23Z"/><rect class="cls-19" x="96.89" y="260.43" width="173.61" height="6.57"/><rect class="cls-14" x="96.89" y="267" width="173.61" height="43.9"/><rect class="cls-16" x="151.87" y="279.18" width="63.66" height="19.55"/><rect class="cls-22" x="154.87" y="288.61" width="57.64" height="7.12" transform="translate(367.39 584.33) rotate(180)"/><rect class="cls-13" x="96.89" y="310.91" width="3.37" height="195.66"/><rect class="cls-13" x="267.13" y="310.91" width="3.37" height="195.66"/><rect class="cls-23" x="126.4" y="350.49" width="114.59" height="156.08"/><path class="cls-13" d="M190.39,361.82a6.7,6.7,0,1,1-6.7-6.69A6.69,6.69,0,0,1,190.39,361.82Z"/><g class="cls-24"><path class="cls-18" d="M286.89,42.1H80.35a6.19,6.19,0,0,0-6.19,6.19V506.57H293.08V48.29A6.19,6.19,0,0,0,286.89,42.1ZM136.06,54.27h95.5v37h-95.5ZM270.5,310.91H96.89V260.43l9.74-20.57,6.28-121.33H254.48l6.28,121.33,9.74,20.57Z"/></g><rect class="cls-18" x="135.83" y="54.27" width="95.73" height="37.05"/><path class="cls-17" d="M156.58,80.12h-6.82L157.58,59h6.5l7.82,21.15h-6.83l-1-3h-6.56Zm6.23-7.34-2-6.35-2,6.35Z"/><path class="cls-17" d="M171,64.77V59h18.55v5.8h-6V80.12H177V64.77Z"/><path class="cls-17" d="M198.39,66.22l-.15,0,.15,1.6V80.12h-6V59h8.94l3.41,12,.19,1.45h.15l.21-1.45,3.38-12h8.94V80.12h-6V67.85l.15-1.6-.15,0-4.23,13.9h-4.8Z"/><rect class="cls-17" x="149.63" y="83.06" width="68.12" height="1.26"/></g></g></g></svg>