<?xml version="1.0" encoding="utf-8"?>
<!-- Generator: Adobe Illustrator 16.0.0, SVG Export Plug-In . SVG Version: 6.00 Build 0)  -->
<!DOCTYPE svg PUBLIC "-//W3C//DTD SVG 1.1//EN" "http://www.w3.org/Graphics/SVG/1.1/DTD/svg11.dtd">
<svg version="1.1" xmlns="http://www.w3.org/2000/svg" xmlns:xlink="http://www.w3.org/1999/xlink" x="0px" y="0px" width="150px"
	 height="150px" viewBox="0 0 150 150" enable-background="new 0 0 150 150" xml:space="preserve">
<g id="Capa_1" display="none">
	<g id="Capa_1_1_">
		<path display="inline" fill="#FF5000" d="M90.374,52.547H50.516c-1.641,0-2.969,1.33-2.969,2.969c0,1.64,1.328,2.969,2.969,2.969
			h39.858c1.64,0,2.968-1.329,2.968-2.969S92.014,52.547,90.374,52.547"/>
		<path display="inline" fill="#FF5000" d="M50.516,44.962h14.431c1.641,0,2.969-1.331,2.969-2.97c0-1.638-1.328-2.969-2.969-2.969
			H50.516c-1.641,0-2.97,1.331-2.97,2.969C47.546,43.631,48.875,44.962,50.516,44.962"/>
		<path display="inline" fill="#FF5000" d="M64.947,104.332H50.515c-1.64,0-2.969,1.331-2.969,2.97c0,1.638,1.329,2.968,2.969,2.968
			h14.432c1.64,0,2.969-1.33,2.969-2.968C67.916,105.663,66.587,104.332,64.947,104.332"/>
		<path display="inline" fill="#FF5000" d="M50.516,71.527h34.099c1.639,0,2.968-1.331,2.968-2.971c0-1.638-1.329-2.968-2.968-2.968
			H50.516c-1.641,0-2.97,1.331-2.97,2.968C47.546,70.196,48.875,71.527,50.516,71.527"/>
		<path display="inline" fill="#FF5000" d="M90.374,78.453H50.516c-1.641,0-2.969,1.326-2.969,2.969
			c0,1.639,1.328,2.969,2.969,2.969h39.858c1.64,0,2.968-1.33,2.968-2.969C93.342,79.779,92.014,78.453,90.374,78.453"/>
		<path display="inline" fill="#FF5000" d="M130.113,42.646c0-0.964-0.463-1.825-1.178-2.365L94.037,5.378
			c-0.188-0.187-0.402-0.333-0.627-0.462c-0.057-0.035-0.115-0.066-0.178-0.096c-0.224-0.109-0.457-0.2-0.703-0.251
			c-0.01-0.002-0.022-0.003-0.033-0.005c-0.184-0.037-0.372-0.056-0.559-0.056H23.6c-1.641,0-2.969,1.331-2.969,2.969v135.012
			c0,1.639,1.328,2.969,2.969,2.969h103.503c1.64,0,2.97-1.33,2.97-2.969v-99.45C130.09,42.908,130.113,42.779,130.113,42.646
			 M119.938,39.677H94.904V14.645l12.518,12.517L119.938,39.677z M26.569,139.521V10.446h62.4v32.2c0,1.639,1.329,2.967,2.971,2.967
			h32.197v93.909H26.569z"/>
	</g>
	<g id="Capa_2" display="inline">
		<path fill="#FF5000" d="M63.154,15.087c-0.463-0.042-0.936,0.018-1.393,0.19l-3.819-8.501c-0.713-1.587-2.578-2.296-4.167-1.585
			l-13.097,5.884c-1.589,0.713-2.299,2.58-1.585,4.167l3.818,8.5c-1.471,0.766-2.114,2.545-1.425,4.077L86.68,128.45
			c0.652,1.46,2.282,2.175,3.776,1.729c4.614,3.574,10.711,8.313,12.492,9.725l1.678,3.738c0.714,1.588,2.578,2.295,4.167,1.584
			c1.587-0.713,2.296-2.58,1.583-4.168l-1.683-3.746c0.121-2.25,0.646-9.979,1.049-15.797c1.314-0.822,1.855-2.509,1.203-3.963
			L67.496,20.8c4.047-0.149,7.313,1.73,9.023,5.543l13.987,31.149c0.714,1.586,2.579,2.296,4.168,1.584
			c1.587-0.715,2.296-2.58,1.582-4.168L82.27,23.763C78.928,16.32,71.412,13.083,63.154,15.087 M48.531,28.117l12.765-5.734
			L87.128,79.9l-12.766,5.733L48.531,28.117z M53.483,12.235l2.521,5.61l-7.349,3.299l-2.519-5.61L53.483,12.235z M103.584,119.229
			c-0.398,5.672-0.674,9.662-0.859,12.494c-2.238-1.746-5.396-4.193-9.882-7.666c-0.444-0.347-0.971-0.563-1.514-0.635
			L76.941,91.384l12.768-5.733l14.393,32.055C103.807,118.148,103.622,118.672,103.584,119.229"/>
	</g>
</g>
<g id="Capa_2_1_">
	<path fill="#A5A4A5" d="M26.295,59.236h7.273v6.708c8.125,0.976,13.386,5.571,15.779,13.789l-10.016,4.112
		c-1.951-5.638-4.975-8.453-9.066-8.453c-2.05,0-3.696,0.627-4.938,1.888c-1.244,1.258-1.867,2.784-1.867,4.581
		c0,1.823,0.601,3.227,1.793,4.203c1.198,0.976,3.764,2.188,7.701,3.637c4.316,1.573,7.699,3.063,10.155,4.463
		c2.456,1.401,4.42,3.338,5.882,5.812c1.466,2.47,2.199,5.362,2.199,8.665c0,5.07-1.513,9.3-4.532,12.685
		c-3.028,3.384-7.389,5.378-13.089,5.974v8.691h-7.273v-8.643c-9.509-0.976-15.397-6.503-17.666-16.581l11.24-2.927
		c1.042,6.328,4.49,9.491,10.347,9.491c2.738,0,4.755-0.675,6.045-2.026c1.289-1.355,1.937-2.99,1.937-4.918
		c0-1.983-0.648-3.485-1.937-4.508c-1.291-1.022-4.156-2.324-8.598-3.895c-3.999-1.388-7.123-2.758-9.377-4.111
		c-2.248-1.356-4.073-3.252-5.476-5.692c-1.403-2.438-2.103-5.283-2.103-8.526c0-4.252,1.252-8.078,3.755-11.478
		c2.502-3.402,6.447-5.478,11.832-6.232V59.236z"/>
	<path fill="#A5A4A5" d="M114.633,64.018c-0.565,0-1.14-0.122-1.678-0.37c-1.409-0.655-2.313-2.068-2.313-3.62v-8.403H63.095
		c-2.205,0-3.99-1.783-3.99-3.991V27.773c0-2.203,1.786-3.991,3.99-3.991h47.548v-8.397c0-1.555,0.903-2.968,2.313-3.624
		c1.404-0.652,3.07-0.427,4.258,0.577l26.354,22.308c0.897,0.757,1.415,1.871,1.415,3.043c0,1.174-0.515,2.287-1.412,3.047
		l-26.354,22.334C116.479,63.692,115.559,64.018,114.633,64.018 M67.084,43.644h47.548c2.208,0,3.993,1.786,3.993,3.99v3.774
		l16.187-13.716l-16.187-13.697v3.778c0,2.205-1.785,3.99-3.993,3.99H67.084V43.644z"/>
	<path fill="#A5A4A5" d="M89.528,108.658c-0.922,0-1.844-0.32-2.581-0.945L60.594,85.406c-0.897-0.758-1.414-1.87-1.414-3.045
		c0-1.176,0.512-2.289,1.411-3.049l26.354-22.333c1.188-1.005,2.846-1.232,4.264-0.575c1.41,0.655,2.31,2.065,2.31,3.624v8.394
		h47.55c2.201,0,3.99,1.789,3.99,3.99v19.862c0,2.204-1.789,3.992-3.99,3.992h-47.55v8.397c0,1.553-0.899,2.972-2.31,3.623
		C90.671,108.537,90.097,108.658,89.528,108.658 M69.348,82.355l16.188,13.703v-3.784c0-2.202,1.788-3.99,3.993-3.99h47.551V76.406
		H89.528c-2.205,0-3.993-1.789-3.993-3.994v-3.771L69.348,82.355z"/>
</g>
</svg>
