<svg xmlns="http://www.w3.org/2000/svg" viewBox="0 0 169.19 169.19"><defs><style>.cls-1{fill:#a7a6a7;}.cls-2{fill:#fff;}</style></defs><g id="Capa_2" data-name="Capa 2"><g id="Layer_5" data-name="Layer 5"><path class="cls-1" d="M109.76,160.36a7.78,7.78,0,0,1-.06-3.42A76.54,76.54,0,0,1,8.12,80.59,5.92,5.92,0,0,0,4.54,78.9,6,6,0,0,0,.1,80.35a84.61,84.61,0,0,0,97.54,87.81,85.72,85.72,0,0,0,14.59-3.61A8.2,8.2,0,0,1,109.76,160.36Z"/><path class="cls-1" d="M134.91,22.22a7,7,0,0,1-3.06,2.09,76.56,76.56,0,0,1-19.77,131.76,6.13,6.13,0,0,0-.36,3.83,6.35,6.35,0,0,0,2.76,3.84A84.6,84.6,0,0,0,136.61,17.91,7.32,7.32,0,0,1,134.91,22.22Z"/><path class="cls-1" d="M4.72,76.88a7.65,7.65,0,0,1,3.56,1.25A76.57,76.57,0,0,1,129.74,22.71a5.19,5.19,0,0,0,4.73-6.42h0A84.61,84.61,0,0,0,.26,77.8,8,8,0,0,1,4.72,76.88Z"/><circle class="cls-1" cx="84.59" cy="84.6" r="74.01"/><path class="cls-2" d="M81.56,70.7H84.3v2.52a6.64,6.64,0,0,1,5.94,5.19L86.47,80q-1.11-3.18-3.42-3.18a2.44,2.44,0,0,0-1.85.71,2.36,2.36,0,0,0-.71,1.72,1.91,1.91,0,0,0,.68,1.58,11.38,11.38,0,0,0,2.9,1.37,28,28,0,0,1,3.82,1.68A6,6,0,0,1,90.1,86a6.3,6.3,0,0,1,.83,3.26,6.87,6.87,0,0,1-1.71,4.77,7.3,7.3,0,0,1-4.92,2.25v3.27H81.56V96.33q-5.37-.56-6.65-6.24L79.14,89q.58,3.57,3.9,3.57a3,3,0,0,0,2.27-.76A2.57,2.57,0,0,0,86,90a2,2,0,0,0-.73-1.7,13.52,13.52,0,0,0-3.23-1.47,19.18,19.18,0,0,1-3.53-1.54,5.8,5.8,0,0,1-2.06-2.14,6.32,6.32,0,0,1-.8-3.21,7.13,7.13,0,0,1,1.42-4.32,6.33,6.33,0,0,1,4.45-2.35Z"/><path class="cls-2" d="M83.72,129.55a4.47,4.47,0,1,1,4.47-4.47A4.47,4.47,0,0,1,83.72,129.55Zm0-5.94a1.47,1.47,0,1,0,1.47,1.47A1.47,1.47,0,0,0,83.72,123.61Z"/><path class="cls-2" d="M114.8,72.5a1.56,1.56,0,0,1-.63-.14A1.51,1.51,0,0,1,113.3,71V67.84H95.41a1.51,1.51,0,0,1-1.5-1.51V58.86a1.5,1.5,0,0,1,1.5-1.5H113.3V54.2a1.5,1.5,0,0,1,2.47-1.15l9.92,8.39a1.51,1.51,0,0,1,0,2.3l-9.92,8.4A1.46,1.46,0,0,1,114.8,72.5ZM96.91,64.83H114.8a1.51,1.51,0,0,1,1.51,1.5v1.42l6.09-5.16-6.09-5.15v1.42a1.51,1.51,0,0,1-1.51,1.5H96.91Z"/><path class="cls-2" d="M105.36,89.3a1.46,1.46,0,0,1-1-.36l-9.92-8.39a1.51,1.51,0,0,1,0-2.3l9.91-8.4A1.5,1.5,0,0,1,106.86,71v3.16h17.89a1.5,1.5,0,0,1,1.5,1.5v7.47a1.5,1.5,0,0,1-1.5,1.5H106.86v3.16a1.51,1.51,0,0,1-.87,1.37A1.56,1.56,0,0,1,105.36,89.3Zm-7.6-9.9,6.09,5.16V83.13a1.51,1.51,0,0,1,1.51-1.5h17.89V77.16H105.36a1.51,1.51,0,0,1-1.51-1.5V74.24Z"/><path class="cls-2" d="M110.8,55V49.08A8.77,8.77,0,0,0,102,40.33H65.39a8.76,8.76,0,0,0-8.75,8.75V52h0v3h0v69.38a9.93,9.93,0,0,0,9.93,9.92h34.31a9.93,9.93,0,0,0,9.92-9.92V88.88a1.5,1.5,0,0,0-3,0v27H59.64V55ZM59.64,49.08a5.75,5.75,0,0,1,5.75-5.74H102a5.76,5.76,0,0,1,5.76,5.74V52H59.64Zm48.16,69.78v5.52a6.93,6.93,0,0,1-6.92,6.91H66.57a6.93,6.93,0,0,1-6.93-6.91v-5.52Z"/></g></g></svg>