<?xml version="1.0" encoding="utf-8"?>
<!-- Generator: Adobe Illustrator 16.0.0, SVG Export Plug-In . SVG Version: 6.00 Build 0)  -->
<!DOCTYPE svg PUBLIC "-//W3C//DTD SVG 1.1//EN" "http://www.w3.org/Graphics/SVG/1.1/DTD/svg11.dtd">
<svg version="1.1" xmlns="http://www.w3.org/2000/svg" xmlns:xlink="http://www.w3.org/1999/xlink" x="0px" y="0px" width="150px"
	 height="150px" viewBox="0 0 150 150" enable-background="new 0 0 150 150" xml:space="preserve">
<g id="Capa_1" display="none">
	<path display="inline" fill="#FF5000" d="M90.374,52.547H50.516c-1.641,0-2.969,1.33-2.969,2.969c0,1.64,1.328,2.969,2.969,2.969
		h39.858c1.64,0,2.968-1.329,2.968-2.969S92.014,52.547,90.374,52.547"/>
	<path display="inline" fill="#FF5000" d="M50.516,44.962h14.431c1.641,0,2.969-1.331,2.969-2.97c0-1.638-1.328-2.969-2.969-2.969
		H50.516c-1.641,0-2.97,1.331-2.97,2.969C47.546,43.631,48.875,44.962,50.516,44.962"/>
	<path display="inline" fill="#FF5000" d="M64.947,104.332H50.515c-1.64,0-2.969,1.331-2.969,2.97c0,1.638,1.329,2.968,2.969,2.968
		h14.432c1.64,0,2.969-1.33,2.969-2.968C67.916,105.663,66.587,104.332,64.947,104.332"/>
	<path display="inline" fill="#FF5000" d="M50.516,71.527h34.099c1.639,0,2.968-1.331,2.968-2.971c0-1.638-1.329-2.968-2.968-2.968
		H50.516c-1.641,0-2.97,1.331-2.97,2.968C47.546,70.196,48.875,71.527,50.516,71.527"/>
	<path display="inline" fill="#FF5000" d="M90.374,78.453H50.516c-1.641,0-2.969,1.326-2.969,2.969c0,1.639,1.328,2.969,2.969,2.969
		h39.858c1.64,0,2.968-1.33,2.968-2.969C93.342,79.779,92.014,78.453,90.374,78.453"/>
	<path display="inline" fill="#FF5000" d="M130.113,42.646c0-0.964-0.463-1.825-1.178-2.365L94.037,5.378
		c-0.188-0.187-0.402-0.333-0.627-0.462c-0.057-0.035-0.115-0.066-0.178-0.096c-0.224-0.109-0.457-0.2-0.703-0.251
		c-0.01-0.002-0.022-0.003-0.033-0.005c-0.184-0.037-0.372-0.056-0.559-0.056H23.6c-1.641,0-2.969,1.331-2.969,2.969v135.012
		c0,1.639,1.328,2.969,2.969,2.969h103.503c1.64,0,2.97-1.33,2.97-2.969v-99.45C130.09,42.908,130.113,42.779,130.113,42.646
		 M119.938,39.677H94.904V14.645l12.518,12.517L119.938,39.677z M26.569,139.521V10.446h62.4v32.2c0,1.639,1.329,2.967,2.971,2.967
		h32.197v93.909H26.569z"/>
	<path display="inline" fill="#A5A4A5" d="M116.065,26.413v-2.228c0-0.011,0.005-0.021,0.005-0.033v-6.644
		c0-7.261-5.914-13.167-13.183-13.167H47.749c-7.261,0-13.168,5.907-13.168,13.167v4.385h-0.005v4.52h0.005v104.374
		c0,8.231,6.703,14.93,14.943,14.93h51.616c8.231,0,14.931-6.698,14.931-14.93V24.576c0-1.248-1.013-2.259-2.261-2.259
		c-1.247,0-2.259,1.011-2.259,2.259v93.394H39.099V26.413H116.065z M39.099,17.508c0-4.769,3.88-8.647,8.649-8.647h55.139
		c4.777,0,8.663,3.878,8.663,8.647v4.385H39.099V17.508z M111.551,122.488v8.299c0,5.74-4.671,10.411-10.411,10.411H49.524
		c-5.747,0-10.425-4.671-10.425-10.411v-8.299H111.551z"/>
</g>
<g id="Capa_2">
	<path fill="#A5A4A5" d="M75.003,138.409c-3.701,0-6.71-3.012-6.71-6.711c0-3.701,3.009-6.712,6.71-6.712
		c3.699,0,6.71,3.011,6.71,6.712C81.713,135.397,78.702,138.409,75.003,138.409 M75.003,129.496c-1.215,0-2.203,0.987-2.203,2.202
		c0,1.211,0.988,2.2,2.203,2.2c1.213,0,2.201-0.989,2.201-2.2C77.204,130.483,76.216,129.496,75.003,129.496"/>
	<path fill="#A5A4A5" d="M115.647,26.522v-2.223c0-0.011,0.002-0.021,0.002-0.033v-6.628c0-7.243-5.898-13.136-13.151-13.136H47.492
		c-7.243,0-13.136,5.893-13.136,13.136v4.375h-0.005v4.509h0.005v104.123c0,8.212,6.687,14.895,14.908,14.895h51.491
		c8.212,0,14.895-6.683,14.895-14.895V24.689c0-1.245-1.011-2.254-2.255-2.254s-2.254,1.009-2.254,2.254v93.167H38.863V26.522
		H115.647z M38.863,17.638c0-4.757,3.871-8.626,8.628-8.626h55.006c4.766,0,8.643,3.869,8.643,8.626v4.375H38.863V17.638z
		 M111.141,122.366v8.278c0,5.727-4.659,10.386-10.386,10.386H49.264c-5.733,0-10.401-4.659-10.401-10.386v-8.278H111.141z"/>
</g>
</svg>
