<?xml version="1.0" encoding="utf-8"?>
<!-- Generator: Adobe Illustrator 25.0.0, SVG Export Plug-In . SVG Version: 6.00 Build 0)  -->
<svg version="1.1" id="Capa_1" xmlns="http://www.w3.org/2000/svg" xmlns:xlink="http://www.w3.org/1999/xlink" x="0px" y="0px"
	 viewBox="0 0 256 110" style="enable-background:new 0 0 256 110;" xml:space="preserve">
<style type="text/css">
	.st0{fill:#FF5000;}
	.st1{opacity:0.1;fill:none;stroke:#FFFFFF;stroke-width:22.3111;stroke-miterlimit:10;}
	.st2{opacity:0.1;fill:none;stroke:#FFFFFF;stroke-width:6.5821;stroke-miterlimit:10;}
	.st3{fill:none;}
	.st4{fill:none;stroke:#FFFFFF;stroke-width:1.1156;stroke-linecap:round;stroke-miterlimit:10;stroke-dasharray:3.3467;}
	.st5{fill:none;stroke:#FFFFFF;stroke-width:1.1156;stroke-linecap:round;stroke-miterlimit:10;}
	.st6{fill:#FFFFFF;}
</style>
<path class="st0" d="M229.2,110H2.7V27.1C2.7,12.7,14.4,1,28.8,1h226.5v82.9C255.3,98.3,243.6,110,229.2,110z"/>
<path class="st1" d="M240.9,191.6c38,0,68.9-30.8,68.9-68.9s-30.8-68.9-68.9-68.9S172,84.7,172,122.8S202.8,191.6,240.9,191.6"/>
<circle class="st1" cx="17.1" cy="-10.8" r="68.9"/>
<path class="st2" d="M105.5,170.7c22.4,0,40.6-18.2,40.6-40.6S128,89.4,105.5,89.4s-40.6,18.2-40.6,40.6S83.1,170.7,105.5,170.7"/>
<circle class="st2" cx="193.9" cy="-18.1" r="40.6"/>
<path id="XMLID_13_" class="st3" d="M229.2,110.5H2.7V27.6c0-14.4,11.7-26.1,26.1-26.1h226.5v82.9
	C255.3,98.8,243.6,110.5,229.2,110.5z"/>
<line class="st4" x1="24.1" y1="100.4" x2="24.1" y2="12.7"/>
<line class="st4" x1="236.4" y1="12.7" x2="236.4" y2="100.4"/>
<line class="st5" x1="48.9" y1="17.3" x2="210.7" y2="17.3"/>
<line class="st5" x1="48.9" y1="97" x2="210.7" y2="97"/>
<g>
	<g>
		<path class="st6" d="M138.8,85.2c-0.1-0.5-0.1-0.9,0-1.3c-8.9,3.1-19.1,1.9-27.3-4.1c-8.4-6.1-12.7-15.9-12.2-25.6
			c-0.3-0.3-0.8-0.6-1.4-0.7c-0.6-0.1-1.2,0.2-1.7,0.6c-0.1,2.2,0,4.5,0.4,6.7c1.4,8.7,6,16.3,13.1,21.5c7.1,5.2,15.8,7.3,24.4,5.9
			c1.9-0.3,3.8-0.8,5.7-1.4C139.3,86.4,138.9,85.8,138.8,85.2z"/>
		<path class="st6" d="M148.5,31.5c-0.4,0.4-0.8,0.7-1.2,0.8c12.6,9.8,15.2,28,5.7,41c-3.5,4.8-8.2,8.2-13.4,10.2
			c-0.2,0.4-0.3,0.9-0.1,1.5c0.1,0.6,0.5,1.1,1.1,1.5c5.9-2.2,11.1-6.1,14.9-11.4c5.2-7.1,7.3-15.8,5.9-24.4
			c-1.3-8.3-5.6-15.7-12.3-20.8C149.2,30.5,148.9,31.1,148.5,31.5z"/>
		<path class="st6" d="M98,52.8c0.6,0.1,1,0.2,1.4,0.5c0.4-5.3,2.3-10.5,5.6-15c9.7-13.3,28.3-16.2,41.6-6.5c0.4,0,1-0.2,1.4-0.7
			c0.4-0.5,0.6-1.2,0.4-1.8c0,0,0,0,0,0c-7.1-5.2-15.8-7.3-24.4-5.9s-16.3,6-21.5,13.1c-3.6,5-5.7,10.7-6.2,16.7
			C96.8,52.8,97.4,52.7,98,52.8z"/>
	</g>
	<g>
		<g>
			<g>
				<path class="st6" d="M127.6,47.4h1.3v1.2c1.4,0.2,2.3,1,2.8,2.4l-1.8,0.7c-0.3-1-0.9-1.5-1.6-1.5c-0.4,0-0.6,0.1-0.9,0.3
					c-0.2,0.2-0.3,0.5-0.3,0.8c0,0.3,0.1,0.6,0.3,0.7c0.2,0.2,0.7,0.4,1.3,0.6c0.8,0.3,1.3,0.5,1.8,0.8c0.4,0.2,0.8,0.6,1,1
					c0.3,0.4,0.4,0.9,0.4,1.5c0,0.9-0.3,1.6-0.8,2.2c-0.5,0.6-1.3,0.9-2.3,1v1.5h-1.3v-1.5c-1.7-0.2-2.7-1.1-3.1-2.9l2-0.5
					c0.2,1.1,0.8,1.7,1.8,1.7c0.5,0,0.8-0.1,1.1-0.4c0.2-0.2,0.3-0.5,0.3-0.9c0-0.3-0.1-0.6-0.3-0.8c-0.2-0.2-0.7-0.4-1.5-0.7
					c-0.7-0.2-1.2-0.5-1.6-0.7c-0.4-0.2-0.7-0.6-1-1c-0.2-0.4-0.4-0.9-0.4-1.5c0-0.7,0.2-1.4,0.7-2c0.4-0.6,1.1-1,2.1-1.1V47.4z"/>
			</g>
			<g>
				<path class="st6" d="M128.6,74.8c-1.1,0-2.1-0.9-2.1-2.1c0-1.1,0.9-2.1,2.1-2.1c1.1,0,2.1,0.9,2.1,2.1
					C130.7,73.9,129.7,74.8,128.6,74.8z M128.6,72.1c-0.4,0-0.7,0.3-0.7,0.7c0,0.4,0.3,0.7,0.7,0.7c0.4,0,0.7-0.3,0.7-0.7
					C129.3,72.4,129,72.1,128.6,72.1z"/>
			</g>
			<g>
				<path class="st6" d="M143.1,48.2c-0.1,0-0.2,0-0.3-0.1c-0.2-0.1-0.4-0.4-0.4-0.6v-1.5H134c-0.4,0-0.7-0.3-0.7-0.7v-3.5
					c0-0.4,0.3-0.7,0.7-0.7h8.3v-1.5c0-0.3,0.2-0.5,0.4-0.6c0.2-0.1,0.5-0.1,0.7,0.1l4.6,3.9c0.2,0.1,0.2,0.3,0.2,0.5
					c0,0.2-0.1,0.4-0.2,0.5l-4.6,3.9C143.4,48.2,143.2,48.2,143.1,48.2z M134.7,44.7h8.3c0.4,0,0.7,0.3,0.7,0.7V46l2.8-2.4l-2.8-2.4
					v0.7c0,0.4-0.3,0.7-0.7,0.7h-8.3V44.7z"/>
			</g>
			<g>
				<path class="st6" d="M138.7,56.1c-0.2,0-0.3-0.1-0.5-0.2l-4.6-3.9c-0.2-0.1-0.2-0.3-0.2-0.5s0.1-0.4,0.2-0.5l4.6-3.9
					c0.2-0.2,0.5-0.2,0.7-0.1c0.2,0.1,0.4,0.4,0.4,0.6V49h8.3c0.4,0,0.7,0.3,0.7,0.7v3.5c0,0.4-0.3,0.7-0.7,0.7h-8.3v1.5
					c0,0.3-0.2,0.5-0.4,0.6C138.9,56.1,138.8,56.1,138.7,56.1z M135.1,51.5l2.8,2.4v-0.7c0-0.4,0.3-0.7,0.7-0.7h8.3v-2.1h-8.3
					c-0.4,0-0.7-0.3-0.7-0.7v-0.7L135.1,51.5z"/>
			</g>
			<path class="st6" d="M141.2,40.1v-0.7c0,0,0,0,0,0v-2.1c0-2.2-1.8-4.1-4.1-4.1h-17.1c-2.2,0-4.1,1.8-4.1,4.1v1.4h0v1.4h0v32.3
				c0,2.5,2.1,4.6,4.6,4.6h16c2.5,0,4.6-2.1,4.6-4.6V55.9c0-0.4-0.3-0.7-0.7-0.7c-0.4,0-0.7,0.3-0.7,0.7v12.6h-22.4V40.1H141.2z
				 M117.4,37.3c0-1.5,1.2-2.7,2.7-2.7h17.1c1.5,0,2.7,1.2,2.7,2.7v1.4h-22.4V37.3z M139.8,69.8v2.6c0,1.8-1.4,3.2-3.2,3.2h-16
				c-1.8,0-3.2-1.4-3.2-3.2v-2.6H139.8z"/>
		</g>
	</g>
</g>
</svg>
