<?xml version="1.0" encoding="utf-8"?>
<!-- Generator: Adobe Illustrator 16.0.0, SVG Export Plug-In . SVG Version: 6.00 Build 0)  -->
<!DOCTYPE svg PUBLIC "-//W3C//DTD SVG 1.1//EN" "http://www.w3.org/Graphics/SVG/1.1/DTD/svg11.dtd">
<svg version="1.1" xmlns="http://www.w3.org/2000/svg" xmlns:xlink="http://www.w3.org/1999/xlink" x="0px" y="0px" width="350px"
	 height="304px" viewBox="0 0 350 304" enable-background="new 0 0 350 304" xml:space="preserve">
<g id="Capa_1" display="none">
	<path display="inline" fill="#D3A773" d="M241.482,189.813l-0.752-14.271l-22.756-52.648l-13.957-18.039l-23.668,10.388
		l-0.119,0.039l-38.613,16.89l-12.013,5.273l-7.493-17.127l-6.265-14.272l-0.752-1.745l-0.674,0.278l-13.916,6.105l-2.538,1.109
		h-0.04l-10.147,4.44l3.686,8.405v0.04l0.119,0.276h0.041v0.04l10.029,22.916l0.239,0.594l5.391,12.291l4.242-1.863l-0.436,13.518
		v0.08l-0.674,21.289l0.159,0.08c0.754,0.436,4.004,2.338,8.881,5.113c5.59,3.174,13.32,7.494,21.963,12.014
		c4.876,2.418,29.021,22.438,46.148,20.852c1.109,1.15,2.379,2.498,3.766,3.926c0.477,0.475,0.912,0.951,1.389,1.428
		c0.238,0.238,0.475,0.436,0.672,0.674c5.393,5.629,11.143,11.576,11.143,11.576l38.059-14.867l1.148-0.475L241.482,189.813z
		 M179.082,172.132c-0.475-1.109-0.912-2.219-1.348-3.33l34.055,34.572C198.07,198.575,185.822,187.554,179.082,172.132"/>
	<path display="inline" fill="#D07768" d="M121.861,147.829l54.29-23.777c3.766-1.65,5.48-6.041,3.834-9.807l-37.241-85.025
		c-1.649-3.766-6.041-5.483-9.806-3.833l-54.29,23.777c-3.766,1.649-5.482,6.041-3.832,9.807l37.24,85.027
		C113.705,147.762,118.094,149.478,121.861,147.829"/>
	<path display="inline" fill="#A58E5C" d="M103.484,51.685l6.931,15.827c0.475,1.079,1.744,1.561,2.822,1.087l10.534-4.613
		c1.08-0.472,1.57-1.724,1.097-2.803l-6.932-15.828c-0.474-1.079-1.725-1.568-2.805-1.096l-10.534,4.614
		C103.518,49.346,103.012,50.604,103.484,51.685"/>
	<path display="inline" fill="#C36856" d="M165.81,81.886l10.239,23.375c-23.604,7.724-59.495-12.608-83.288-5.315l-3.516-8.028
		C110.778,79.466,145.067,96.14,165.81,81.886"/>
	<path display="inline" fill="#AA4A42" d="M179.781,113.784c-21.926,11.555-53.929,0.099-75.916,11.514L92.761,99.945
		c23.792-7.293,59.684,13.04,83.288,5.316L179.781,113.784z"/>
	<path display="inline" fill="#953533" d="M179.781,113.784l0.201,0.46c1.65,3.767-0.066,8.157-3.832,9.807l-54.29,23.777
		c-3.765,1.649-8.156-0.066-9.806-3.832l-8.189-18.698C125.853,113.883,157.855,125.339,179.781,113.784"/>
	<polygon display="inline" fill="#3E3E3C" points="105.108,55.393 105.642,56.611 120.093,50.282 119.56,49.063 115.607,50.795 
		113.129,45.136 111.911,45.669 114.388,51.329 110.279,53.128 107.801,47.469 106.583,48.003 109.061,53.662 	"/>
	<polygon display="inline" fill="#3E3E3C" points="112.21,60.853 115.222,67.73 116.441,67.197 113.963,61.538 118.071,59.737 
		120.551,65.396 121.769,64.862 119.291,59.204 123.244,57.473 122.709,56.255 	"/>
	<path display="inline" fill="#EBC99D" d="M78.276,115.569c3.135,7.159,10.378,10.905,16.176,8.366
		c5.798-2.54,7.957-10.401,4.82-17.562c-3.135-7.16-10.378-10.906-16.177-8.368C77.299,100.546,75.141,108.409,78.276,115.569"/>
	<path display="inline" fill="#EBC99D" d="M97.309,148.465c2.55,0.188,10.295-0.131,10.295-0.131
		c7.521-0.113,13.538-5.636,13.438-12.338l-0.004-0.246c-0.1-6.703-6.278-12.046-13.8-11.933l-10.295,0.131
		C76.341,125.372,78.201,149.392,97.309,148.465"/>
	<path display="inline" fill="#EBC99D" d="M103.274,172.583l17.49-0.26c7.521-0.111,13.539-5.695,13.437-12.469l-0.003-0.247
		c-0.101-6.775-6.281-12.178-13.802-12.065l-17.49,0.261C87.872,148.554,86.279,170.587,103.274,172.583"/>
	<path display="inline" fill="#EBC99D" d="M113.493,194.409l14.039-0.209c6.036-0.09,10.858-5.059,10.768-11.094l-0.002-0.223
		c-0.091-6.035-5.058-10.855-11.094-10.768l-14.039,0.209C99.276,172.235,98.394,193.271,113.493,194.409"/>
	<path display="inline" fill="#EBC99D" d="M247.906,183.392c-4.242-4.48-7.176-7.73-7.176-7.85
		c2.775-26.246-21.529-55.662-24.461-58.556l-9.238-9.159c0,0-5.748-6.739-10.109-15.62c-4.955-10.189-10.268-20.179-14.748-30.605
		c-2.814-6.463-10.188-9.713-16.769-7.175l-0.239,0.118c-3.886,1.506-6.58,4.877-7.493,8.802c-0.635,2.695-0.436,5.668,0.792,8.484
		c1.666,3.845,3.372,7.651,5.115,11.457c3.529,7.532,7.294,14.946,11.259,22.281c1.508,2.814,3.053,5.589,4.641,8.364
		c0.234,0.438,0.514,0.913,0.75,1.348c0.043,0,0.043,0.04,0.043,0.04c0.078,0.12,0.154,0.278,0.197,0.396
		c1.068,2.221,1.029,4.797-0.16,6.939c-7.176,13.122-8.563,30.05-2.576,46.146c0.436,1.111,0.871,2.221,1.348,3.33
		c6.738,15.422,18.99,26.443,32.707,31.242c4.4,1.545,8.92,2.457,13.479,2.654c1.666,0.119,3.332,0.119,4.996,0
		c0.355,0,13.123,28.109,13.479,28.109l26.879-27.912C264.002,200.2,254.408,190.29,247.906,183.392"/>
	
		<rect x="214.936" y="179.903" transform="matrix(0.7071 0.7071 -0.7071 0.7071 226.9648 -99.6329)" display="inline" fill="#ECEBEB" width="37.629" height="88.503"/>
	<g display="inline" opacity="0.1">
		<g>
			<defs>
				<rect id="SVGID_1_" x="76.836" y="73.792" width="176.887" height="198.594"/>
			</defs>
			<clipPath id="SVGID_2_">
				<use xlink:href="#SVGID_1_"  overflow="visible"/>
			</clipPath>
			<path clip-path="url(#SVGID_2_)" fill="#222120" d="M81.306,73.793l10.838,24.743c-2.919-1.498-6.163-1.794-9.049-0.53
				c-5.797,2.539-7.956,10.402-4.819,17.562c2.615,5.971,8.081,9.507,13.188,9.064l0.002,0.003v0.041l0.12,0.277h0.04v0.04
				l0.008,0.019c-14.704,4.844-11.575,24.288,5.676,23.453c0.489,0.036,1.199,0.049,1.979,0.055
				c-11.512,3.811-11.509,22.244,3.986,24.064l7.817-0.117v0.045c-10.914,1.771-11.792,17.922-0.674,21.299v0.006l0.159,0.08
				c0.752,0.438,4.004,2.34,8.88,5.115c5.59,3.172,13.32,7.492,21.963,12.012c4.875,2.418,29.019,22.438,46.146,20.854
				c1.111,1.15,2.379,2.498,3.766,3.926c0.477,0.475,0.912,0.949,1.389,1.426c0.238,0.238,0.477,0.436,0.674,0.674l0.002,0.002
				l-4.238,4.238l26.605,26.607l-3.637,3.637l4.371-4.293l37.225-37.227L81.306,73.793z"/>
		</g>
	</g>
</g>
<g id="Capa_2" display="none">
	<path display="inline" fill="#D07768" d="M88.811,155.016l69.188,71.402c4.801,4.952,12.707,5.078,17.659,0.277l111.827-108.359
		c4.953-4.8,5.079-12.708,0.278-17.66l-69.187-71.401c-4.8-4.953-12.707-5.077-17.661-0.278L89.089,137.357
		C84.136,142.157,84.011,150.063,88.811,155.016"/>
	<path display="inline" fill="#A58E5C" d="M229.167,69.792L208.351,89.96c-1.421,1.377-1.432,3.655-0.057,5.075l13.425,13.853
		c1.375,1.422,3.63,1.456,5.05,0.082l20.815-20.171c1.421-1.376,1.454-3.63,0.081-5.052l-13.427-13.855
		C232.863,68.474,230.588,68.415,229.167,69.792"/>
	<path display="inline" fill="#C36856" d="M218.217,185.456l-30.743,29.79c-25.972-32.575-15.044-100.906-40.447-134.03
		l10.556-10.229C189.774,97.534,183.657,161.202,218.217,185.456"/>
	<path display="inline" fill="#AA4A42" d="M176.265,226.107c-31.01-27.692-31.759-84.708-62.584-112.579l33.345-32.312
		c25.406,33.123,14.476,101.454,40.448,134.028L176.265,226.107z"/>
	<path display="inline" fill="#953533" d="M176.265,226.107l-0.607,0.588c-4.953,4.801-12.858,4.675-17.66-0.278l-69.187-71.401
		c-4.8-4.952-4.675-12.859,0.28-17.659l24.59-23.828C144.506,141.399,145.255,198.415,176.265,226.107"/>
	<polygon display="inline" fill="#3E3E3C" points="224.289,74.518 222.687,76.069 241.104,95.078 242.707,93.524 237.67,88.325 
		245.113,81.114 243.559,79.512 236.116,86.722 230.88,81.319 238.322,74.106 236.768,72.504 229.324,79.715 	"/>
	<polygon display="inline" fill="#3E3E3C" points="219.869,88.878 210.822,97.645 212.376,99.248 219.819,92.035 225.055,97.44 
		217.613,104.653 219.167,106.255 226.61,99.043 231.646,104.241 233.248,102.689 	"/>
	<polygon display="inline" fill="#FFFFFF" points="233.329,190.754 239.572,197.745 265.043,171.776 258.437,164.337 	"/>
	<polygon display="inline" fill="#FFFFFF" points="263.244,162.579 269.485,169.57 294.957,143.601 288.354,136.163 	"/>
	<path display="inline" fill-rule="evenodd" clip-rule="evenodd" fill="#733A36" d="M94.995,135.295h162.542
		c9.202,0,16.73,7.529,16.73,16.731v86.053c0,9.202-7.528,16.73-16.73,16.73H94.995c-9.204,0-16.731-7.528-16.731-16.73v-86.053
		C78.264,142.825,85.791,135.295,94.995,135.295"/>
	
		<path display="inline" fill="none" stroke="#B48D8A" stroke-width="3.12" stroke-linecap="round" stroke-linejoin="round" stroke-miterlimit="22.926" stroke-dasharray="3.12,9.36" d="
		M99.775,145.496h152.98c5.915,0,10.755,4.843,10.755,10.759v77.596c0,5.915-4.84,10.757-10.755,10.757H99.775
		c-5.916,0-10.755-4.842-10.755-10.757v-77.596C89.02,150.339,93.859,145.496,99.775,145.496z"/>
	<path display="inline" fill-rule="evenodd" clip-rule="evenodd" fill="#B48D8A" d="M164.611,130.33h23.309
		c2.493,0,4.531,2.038,4.531,4.531v30.545c0,2.493-2.038,4.532-4.531,4.532h-23.309c-2.495,0-4.534-2.039-4.534-4.532v-30.545
		C160.077,132.368,162.116,130.33,164.611,130.33"/>
</g>
<g id="Capa_3">
	<path fill="#D79E2F" d="M135.112,89.445c-4.597,14.154,3.15,29.354,17.309,33.952l16.646-51.257
		C154.908,67.542,139.71,75.292,135.112,89.445"/>
	<path fill="#D79E2F" d="M186.37,106.093c-0.868,2.676-2.115,5.126-3.669,7.303c-2.231,3.139-5.083,5.715-8.328,7.613
		c-5.02,2.946-10.959,4.255-16.958,3.505c-1.668-0.21-3.338-0.58-4.995-1.118l16.646-51.257c0.578,0.187,1.15,0.393,1.707,0.619
		C183.836,77.979,190.779,92.518,186.37,106.093"/>
	<path fill="#E5C039" d="M164.093,70.523c-14.155-4.596-29.354,3.154-33.951,17.308c-4.6,14.155,3.148,29.354,17.303,33.951
		c14.153,4.596,29.355-3.15,33.953-17.304C185.996,90.324,178.247,75.12,164.093,70.523"/>
	<path fill="#D79E2F" d="M134.452,89.231c-3.823,11.774,2.619,24.416,14.394,28.239l13.846-42.63
		C150.917,71.014,138.277,77.458,134.452,89.231"/>
	<path fill="#D79E2F" d="M162.691,74.838l-13.846,42.632c11.774,3.823,24.414-2.619,28.239-14.394
		C180.909,91.303,174.466,78.662,162.691,74.838"/>
	<path fill="#E5C039" d="M149.718,81.857c-0.114,0.354-0.319,0.619-0.496,0.808c-0.122-0.167-0.323-0.351-0.612-0.444
		c-0.747-0.242-1.637,0.135-2.568,3.006c-0.747,2.296-0.645,3.007,0.088,3.246c0.405,0.131,0.797,0.189,1.089,0.137
		c0.038,0.243,0.021,0.604-0.081,0.916c-0.2,0.617-0.917,0.777-1.917,0.453c-1.467-0.478-1.948-1.448-0.751-5.13
		c1.397-4.299,3.074-4.554,4.255-4.171C149.838,81.04,149.846,81.463,149.718,81.857"/>
	<path fill="#E5C039" d="M151.811,81.83c1.65,0.536,2.375,1.391,1.682,3.525c-0.424,1.301-1.045,1.924-1.719,2.169
		c0.245,0.719,0.497,2.073-0.081,4.089c-0.082,0.248-0.162,0.31-0.868,0.081c-0.222-0.071-0.519-0.179-0.839-0.314
		c0.616-2.075,0.466-3.269,0.304-3.83l-0.243-0.066l-0.108-0.035l-1.065,3.28c-0.086,0.262-0.109,0.254-1.538-0.209l2.894-8.916
		c0,0,0.085-0.261,0.347-0.173L151.811,81.83z M150.378,86.1l0.278,0.089c0.417,0.136,0.778-0.079,1.222-1.442
		c0.306-0.943,0.272-1.418-0.146-1.555l-0.371-0.121L150.378,86.1z"/>
	<path fill="#E5C039" d="M154.594,92.586c-0.085,0.263-0.058,0.272-1.542-0.209l1.223-3.765l0.049-5.722
		c0.006-0.242,0.034-0.234,1.736,0.319l-0.175,1.837c-0.068,0.69-0.305,2.046-0.443,2.655c0.244-0.574,0.867-1.818,1.217-2.416
		l0.784-1.341c0.163-0.234,0.163-0.234,1.645,0.248l-3.327,4.803L154.594,92.586z"/>
	<path fill="#E5C039" d="M160.896,84.781c1.65,0.537,2.376,1.392,1.683,3.526c-0.768,2.363-2.214,2.528-3.446,2.128l-0.104-0.034
		l-1.065,3.28c-0.085,0.262-0.099,0.258-1.541-0.21l2.895-8.916c0.06-0.183,0.122-0.248,0.348-0.173l0.104,0.034L160.896,84.781z
		 M159.741,89.142c0.417,0.134,0.778-0.081,1.254-1.547c0.273-0.842,0.24-1.316-0.179-1.452l-0.367-0.118l-0.982,3.027
		L159.741,89.142z"/>
	<path fill="#E5C039" d="M168.501,87.251l-0.359,1.101c-0.064,0.208-0.164,0.236-0.347,0.176l-1.405-0.455l-2.452,7.55
		c-0.084,0.263-0.109,0.255-1.538-0.21l2.537-7.812l-1.598-0.519l0.357-1.103c0.061-0.184,0.162-0.235,0.344-0.175L168.501,87.251z"
		/>
	<path fill="#E5C039" d="M170.867,87.87c1.703,0.553,2.007,1.757,0.833,5.373c-1.197,3.685-2.328,4.579-4.048,4.021
		c-1.713-0.557-2.07-1.659-0.81-5.542C168,88.159,169.175,87.321,170.867,87.87 M168.221,95.78c0.657,0.214,1.102-0.671,1.859-3.006
		c0.745-2.29,0.96-3.18,0.268-3.405c-0.629-0.205-1.106,0.639-1.946,3.225C167.735,94.65,167.553,95.563,168.221,95.78"/>
	<path fill="#E5C039" d="M141.25,92.008c-0.114,0.353-0.317,0.625-0.493,0.811c-0.121-0.168-0.322-0.349-0.61-0.442
		c-0.75-0.244-1.639,0.134-2.569,3.002c-0.746,2.292-0.646,3.01,0.091,3.25c0.405,0.132,0.794,0.182,1.085,0.133
		c0.036,0.242,0.019,0.601-0.082,0.915c-0.201,0.616-0.917,0.772-1.91,0.45c-1.47-0.478-1.953-1.444-0.755-5.128
		c1.395-4.301,3.074-4.552,4.253-4.169C141.373,91.191,141.377,91.614,141.25,92.008"/>
	<path fill="#E5C039" d="M141.182,98.695c-0.278,0.855-0.264,1.305,0.428,1.531c0.315,0.102,0.623,0.13,0.826,0.094l2.449-7.537
		c0.088-0.276,0.088-0.276,1.57,0.205l-2.862,8.808c-0.382,0.11-1.299,0.128-2.417-0.234c-2.055-0.667-1.958-1.955-1.486-3.408
		l2.072-6.382c0.091-0.278,0.091-0.278,1.6,0.211L141.182,98.695z"/>
	<path fill="#E5C039" d="M148.617,93.688c1.654,0.539,2.373,1.396,1.679,3.533c-0.422,1.298-1.041,1.924-1.716,2.167
		c0.244,0.718,0.499,2.079-0.082,4.088c-0.081,0.253-0.158,0.313-0.868,0.083c-0.221-0.072-0.521-0.185-0.836-0.317
		c0.615-2.072,0.468-3.268,0.298-3.828l-0.237-0.062l-0.106-0.035l-1.063,3.273c-0.085,0.264-0.113,0.255-1.538-0.208l2.895-8.913
		c0,0,0.084-0.262,0.343-0.179L148.617,93.688z M147.187,97.965l0.277,0.09c0.417,0.136,0.778-0.079,1.222-1.443
		c0.306-0.945,0.272-1.418-0.149-1.556l-0.367-0.12L147.187,97.965z"/>
	<path fill="#E5C039" d="M153.271,95.2c1.653,0.538,2.377,1.397,1.683,3.534c-0.422,1.298-1.046,1.923-1.72,2.166
		c0.243,0.717,0.498,2.078-0.082,4.088c-0.082,0.253-0.163,0.312-0.868,0.082c-0.222-0.071-0.518-0.183-0.838-0.317
		c0.616-2.073,0.468-3.268,0.302-3.827l-0.244-0.064l-0.104-0.033l-1.063,3.272c-0.086,0.265-0.109,0.257-1.539-0.208l2.894-8.914
		c0,0,0.086-0.262,0.346-0.179L153.271,95.2z M151.84,99.477l0.276,0.088c0.418,0.138,0.78-0.079,1.222-1.442
		c0.307-0.943,0.271-1.418-0.149-1.555l-0.366-0.119L151.84,99.477z"/>
	<path fill="#E5C039" d="M157.19,105.188c-0.394,1.214-0.42,1.293-0.672,1.212l-3.066-0.996l2.895-8.913c0,0,0.098-0.26,0.345-0.179
		l3.148,1.022c-0.379,1.167-0.423,1.301-0.686,1.216l-1.688-0.547l-0.727,2.239l1.595,0.517c-0.358,1.103-0.435,1.338-0.67,1.263
		l-1.36-0.443l-0.975,3.004L157.19,105.188z"/>
	<path fill="#E5C039" d="M163.557,98.833c0.086-0.264,0.114-0.253,1.539,0.209l-2.896,8.913c-0.049,0.16-0.174,0.233-0.344,0.178
		l-1.13-0.367l-0.248-3.962c-0.048-0.827,0.054-2.216,0.155-3.197c-0.225,1.091-0.538,2.277-0.806,3.101l-1.021,3.145
		c-0.086,0.264-0.099,0.258-1.542-0.21l2.895-8.913c0.059-0.183,0.163-0.236,0.348-0.176l1.152,0.373l0.257,3.896
		c0.055,0.872-0.046,2.112-0.127,3.031c0.24-1.139,0.492-2.09,0.778-2.969L163.557,98.833z"/>
	<path fill="#E5C039" d="M169.278,101.111c-0.114,0.353-0.317,0.623-0.493,0.812c-0.118-0.168-0.322-0.35-0.61-0.442
		c-0.746-0.244-1.639,0.132-2.569,3c-0.746,2.294-0.646,3.01,0.091,3.25c0.403,0.132,0.795,0.182,1.086,0.134
		c0.036,0.241,0.019,0.601-0.083,0.915c-0.2,0.616-0.917,0.773-1.913,0.45c-1.468-0.478-1.948-1.444-0.752-5.13
		c1.396-4.3,3.074-4.55,4.253-4.167C169.402,100.295,169.405,100.716,169.278,101.111"/>
	<path fill="#E5C039" d="M169.766,110.411c-0.086,0.264-0.059,0.273-1.539-0.209l1.22-3.76l0.046-5.722
		c0.008-0.248,0.035-0.237,1.739,0.317l-0.177,1.842c-0.066,0.686-0.304,2.047-0.44,2.653c0.24-0.572,0.863-1.823,1.217-2.417
		l0.783-1.338c0.165-0.238,0.165-0.238,1.646,0.242l-3.331,4.804L169.766,110.411z"/>
	<g opacity="0.3">
		<g>
			<defs>
				<rect id="SVGID_3_" x="128.837" y="69.271" width="52.225" height="41.883"/>
			</defs>
			<clipPath id="SVGID_4_">
				<use xlink:href="#SVGID_3_"  overflow="visible"/>
			</clipPath>
			<path clip-path="url(#SVGID_4_)" fill="#E5C039" d="M157.668,69.271l-24.769,12.622c-1.121,1.805-2.05,3.774-2.741,5.883
				l33.878-17.271C161.925,69.824,159.788,69.42,157.668,69.271"/>
			<path clip-path="url(#SVGID_4_)" fill="#E5C039" d="M172.5,75.021l-43.659,22.256c0.206,4.993,1.81,9.797,4.542,13.877
				l47.681-24.299C179.363,82.245,176.421,78.127,172.5,75.021"/>
		</g>
	</g>
	<path fill="#D79E2F" d="M82.975,72.242c3.398,10.77,14.88,16.747,25.652,13.348l-12.3-39.001
		C85.554,49.988,79.578,61.474,82.975,72.242"/>
	<path fill="#D79E2F" d="M121.976,59.941c0.643,2.038,0.951,4.1,0.952,6.129c0.004,2.921-0.623,5.771-1.79,8.374
		c-1.804,4.031-4.895,7.457-8.933,9.636c-1.123,0.606-2.317,1.113-3.579,1.51l-12.3-39c0.44-0.138,0.883-0.265,1.327-0.369
		C108.022,43.691,118.718,49.612,121.976,59.941"/>
	<path fill="#E5C039" d="M92.541,47.784c-10.77,3.396-16.746,14.882-13.348,25.652c3.397,10.77,14.879,16.746,25.649,13.349
		c10.77-3.396,16.748-14.88,13.352-25.65C114.796,50.366,103.311,44.387,92.541,47.784"/>
	<path fill="#D79E2F" d="M82.473,72.4c2.826,8.959,12.376,13.929,21.335,11.104L93.575,51.066
		C84.617,53.892,79.646,63.442,82.473,72.4"/>
	<path fill="#D79E2F" d="M93.576,51.067l10.232,32.438c8.958-2.824,13.929-12.376,11.103-21.336
		C112.084,53.212,102.535,48.242,93.576,51.067"/>
	<path fill="#E5C039" d="M88.653,61.12c0.084,0.27,0.075,0.523,0.051,0.718c-0.149-0.049-0.355-0.074-0.576-0.005
		c-0.564,0.178-0.949,0.803-0.261,2.989c0.551,1.748,0.928,2.141,1.486,1.966c0.309-0.098,0.574-0.234,0.733-0.395
		c0.131,0.134,0.279,0.365,0.354,0.601c0.147,0.47-0.225,0.885-0.986,1.123c-1.116,0.354-1.84-0.034-2.724-2.836
		c-1.034-3.272-0.107-4.168,0.79-4.451C88.368,60.562,88.56,60.82,88.653,61.12"/>
	<path fill="#E5C039" d="M89.935,60.182c1.256-0.399,2.08-0.188,2.592,1.435c0.313,0.99,0.203,1.65-0.106,2.097
		c0.468,0.337,1.221,1.064,1.753,2.563c0.059,0.189,0.036,0.264-0.501,0.433c-0.168,0.052-0.4,0.117-0.657,0.174
		c-0.534-1.553-1.153-2.224-1.502-2.499l-0.178,0.065l-0.082,0.024l0.788,2.497c0.063,0.201,0.044,0.206-1.043,0.549l-2.139-6.783
		c0,0-0.063-0.197,0.139-0.261L89.935,60.182z M90.932,63.45l0.21-0.067c0.318-0.099,0.446-0.392,0.119-1.429
		c-0.227-0.719-0.457-0.996-0.774-0.898l-0.282,0.089L90.932,63.45z"/>
	<path fill="#E5C039" d="M96.394,65.6c0.063,0.198,0.084,0.193-1.045,0.548l-0.903-2.863l-2.49-3.557
		c-0.104-0.152-0.083-0.159,1.214-0.567l0.7,1.212c0.263,0.455,0.713,1.398,0.897,1.834c-0.103-0.462-0.266-1.504-0.313-2.028
		l-0.106-1.174c-0.001-0.214-0.001-0.214,1.125-0.571l0.061,4.432L96.394,65.6z"/>
	<path fill="#E5C039" d="M96.848,58c1.256-0.396,2.081-0.187,2.592,1.438c0.567,1.798-0.252,2.538-1.189,2.832l-0.079,0.026
		l0.786,2.496c0.063,0.198,0.053,0.202-1.044,0.549l-2.14-6.784c-0.044-0.139-0.033-0.208,0.138-0.261l0.079-0.025L96.848,58z
		 M98.056,61.203c0.318-0.101,0.446-0.393,0.093-1.509c-0.201-0.641-0.43-0.918-0.75-0.817l-0.279,0.087l0.727,2.303L98.056,61.203z
		"/>
	<path fill="#E5C039" d="M102.635,56.175l0.265,0.837c0.049,0.157,0.002,0.219-0.138,0.263l-1.069,0.337l1.813,5.744
		c0.062,0.201,0.044,0.207-1.043,0.549l-1.875-5.943l-1.217,0.383l-0.264-0.84c-0.044-0.14-0.005-0.215,0.135-0.259L102.635,56.175z
		"/>
	<path fill="#E5C039" d="M104.369,55.515c1.295-0.409,2.014,0.201,2.88,2.953c0.884,2.804,0.58,3.854-0.729,4.268
		c-1.302,0.41-2.01-0.113-2.941-3.066C102.725,56.958,103.082,55.921,104.369,55.515 M106.22,61.568
		c0.5-0.158,0.384-0.9-0.176-2.676c-0.548-1.744-0.807-2.39-1.333-2.224c-0.48,0.152-0.402,0.883,0.218,2.85
		C105.42,61.084,105.712,61.728,106.22,61.568"/>
	<path fill="#E5C039" d="M87.896,71.123c0.085,0.268,0.078,0.524,0.052,0.719c-0.149-0.051-0.354-0.075-0.572-0.006
		c-0.57,0.181-0.953,0.806-0.263,2.986c0.55,1.747,0.927,2.145,1.488,1.969c0.308-0.097,0.571-0.238,0.729-0.396
		c0.128,0.133,0.276,0.362,0.351,0.602c0.148,0.468-0.224,0.882-0.981,1.12c-1.118,0.353-1.841-0.034-2.727-2.837
		c-1.031-3.271-0.106-4.167,0.79-4.45C87.612,70.564,87.801,70.822,87.896,71.123"/>
	<path fill="#E5C039" d="M90.799,75.284c0.205,0.648,0.413,0.923,0.939,0.756c0.24-0.075,0.442-0.193,0.551-0.308L90.481,70
		c-0.066-0.211-0.066-0.211,1.06-0.566l2.114,6.703c-0.188,0.235-0.746,0.652-1.596,0.919c-1.564,0.493-2.071-0.345-2.419-1.452
		l-1.533-4.854c-0.066-0.212-0.066-0.212,1.082-0.574L90.799,75.284z"/>
	<path fill="#E5C039" d="M93.188,68.915c1.258-0.397,2.081-0.185,2.593,1.442c0.312,0.987,0.204,1.646-0.106,2.094
		c0.468,0.336,1.225,1.063,1.75,2.561c0.062,0.193,0.041,0.263-0.498,0.433c-0.169,0.053-0.403,0.117-0.66,0.172
		c-0.531-1.55-1.149-2.224-1.5-2.495l-0.174,0.065l-0.081,0.027l0.785,2.49c0.064,0.2,0.043,0.207-1.043,0.549l-2.138-6.781
		c0,0-0.063-0.202,0.134-0.264L93.188,68.915z M94.187,72.185l0.211-0.066c0.318-0.1,0.447-0.393,0.12-1.43
		c-0.228-0.719-0.457-0.997-0.777-0.895l-0.28,0.087L94.187,72.185z"/>
	<path fill="#E5C039" d="M96.729,67.797c1.259-0.397,2.082-0.186,2.596,1.441c0.312,0.987,0.201,1.648-0.109,2.095
		c0.469,0.336,1.225,1.064,1.751,2.561c0.06,0.193,0.038,0.265-0.498,0.435c-0.17,0.052-0.402,0.114-0.659,0.171
		c-0.533-1.551-1.151-2.224-1.5-2.496l-0.179,0.067l-0.078,0.026l0.786,2.489c0.063,0.2,0.045,0.205-1.042,0.55l-2.141-6.783
		c0,0-0.061-0.2,0.136-0.263L96.729,67.797z M97.728,71.068l0.212-0.066c0.316-0.1,0.446-0.393,0.119-1.429
		c-0.228-0.719-0.459-0.996-0.777-0.896l-0.279,0.087L97.728,71.068z"/>
	<path fill="#E5C039" d="M103.551,72.24c0.292,0.924,0.31,0.985,0.118,1.046l-2.332,0.734l-2.14-6.78c0,0-0.054-0.204,0.135-0.263
		l2.395-0.757c0.28,0.888,0.313,0.99,0.111,1.054l-1.283,0.406l0.536,1.704L102.306,69c0.265,0.839,0.32,1.018,0.141,1.075
		l-1.034,0.326l0.721,2.285L103.551,72.24z"/>
	<path fill="#E5C039" d="M104.685,65.509c-0.064-0.2-0.043-0.208,1.042-0.548l2.138,6.781c0.038,0.121-0.005,0.222-0.134,0.262
		l-0.86,0.271l-1.898-2.338c-0.396-0.49-0.943-1.393-1.313-2.044c0.342,0.772,0.671,1.643,0.868,2.271l0.755,2.392
		c0.064,0.201,0.053,0.204-1.044,0.55l-2.139-6.781c-0.044-0.14-0.002-0.219,0.137-0.262l0.877-0.278l1.875,2.294
		c0.416,0.515,0.901,1.325,1.257,1.928c-0.354-0.808-0.617-1.508-0.829-2.174L104.685,65.509z"/>
	<path fill="#E5C039" d="M109.221,64.396c0.085,0.269,0.08,0.526,0.053,0.719c-0.146-0.054-0.354-0.074-0.572-0.005
		c-0.568,0.179-0.952,0.804-0.265,2.987c0.55,1.746,0.926,2.144,1.49,1.967c0.308-0.096,0.57-0.238,0.729-0.395
		c0.129,0.134,0.276,0.363,0.352,0.601c0.148,0.47-0.226,0.882-0.984,1.121c-1.116,0.353-1.84-0.032-2.724-2.838
		c-1.031-3.27-0.107-4.164,0.79-4.447C108.938,63.837,109.126,64.096,109.221,64.396"/>
	<path fill="#E5C039" d="M113.619,69.927c0.064,0.199,0.083,0.193-1.042,0.549l-0.903-2.861l-2.492-3.556
		c-0.105-0.156-0.084-0.163,1.214-0.572l0.702,1.217c0.262,0.453,0.714,1.401,0.896,1.833c-0.104-0.458-0.27-1.507-0.313-2.028
		l-0.106-1.174c-0.003-0.218-0.003-0.218,1.125-0.575l0.059,4.437L113.619,69.927z"/>
	<g opacity="0.3">
		<g>
			<defs>
				<rect id="SVGID_5_" x="78.286" y="46.858" width="31.938" height="39.56"/>
			</defs>
			<clipPath id="SVGID_6_">
				<use xlink:href="#SVGID_5_"  overflow="visible"/>
			</clipPath>
			<path clip-path="url(#SVGID_6_)" fill="#E5C039" d="M88.021,49.841L78.279,68.55c0.103,1.61,0.396,3.237,0.899,4.843
				l13.32-25.595C90.895,48.307,89.396,48.998,88.021,49.841"/>
			<path clip-path="url(#SVGID_6_)" fill="#E5C039" d="M99.717,46.858L82.55,79.844c2.328,2.993,5.435,5.254,8.921,6.573
				l18.75-36.021C107.141,48.297,103.508,47.049,99.717,46.858"/>
		</g>
	</g>
	<path fill="#D79E2F" d="M183.063,54.103c3.855,12.221,16.887,19.005,29.114,15.148l-13.96-44.265
		C185.99,28.843,179.209,41.877,183.063,54.103"/>
	<path fill="#D79E2F" d="M227.329,40.14c0.729,2.313,1.078,4.653,1.078,6.955c0.005,3.318-0.706,6.551-2.03,9.504
		c-2.047,4.575-5.558,8.463-10.139,10.937c-1.274,0.688-2.63,1.264-4.061,1.715l-13.96-44.265c0.497-0.158,1.001-0.3,1.506-0.42
		C211.491,21.697,223.631,28.416,227.329,40.14"/>
	<path fill="#E5C039" d="M193.92,26.342c-12.223,3.855-19.004,16.89-15.149,29.113s16.887,19.007,29.11,15.151
		c12.223-3.854,19.009-16.889,15.154-29.111C219.18,29.271,206.144,22.488,193.92,26.342"/>
	<path fill="#D79E2F" d="M182.492,54.281c3.208,10.168,14.046,15.809,24.215,12.603l-11.611-36.817
		C184.929,33.274,179.287,44.114,182.492,54.281"/>
	<path fill="#D79E2F" d="M195.096,30.068l11.611,36.815c10.167-3.206,15.809-14.045,12.603-24.213
		C216.102,32.503,205.264,26.86,195.096,30.068"/>
	<path fill="#E5C039" d="M189.509,41.478c0.097,0.304,0.085,0.593,0.056,0.813c-0.169-0.055-0.4-0.084-0.65-0.004
		c-0.643,0.202-1.08,0.911-0.298,3.392c0.626,1.983,1.053,2.431,1.686,2.231c0.351-0.11,0.652-0.265,0.831-0.447
		c0.149,0.15,0.318,0.412,0.401,0.682c0.169,0.532-0.253,1.003-1.117,1.275c-1.268,0.4-2.089-0.04-3.092-3.219
		c-1.171-3.714-0.121-4.731,0.896-5.054C189.185,40.844,189.401,41.138,189.509,41.478"/>
	<path fill="#E5C039" d="M190.964,40.411c1.425-0.449,2.36-0.212,2.941,1.631c0.354,1.124,0.229,1.873-0.121,2.381
		c0.531,0.38,1.386,1.205,1.989,2.907c0.066,0.215,0.041,0.299-0.567,0.491c-0.192,0.06-0.455,0.134-0.746,0.2
		c-0.605-1.764-1.31-2.524-1.704-2.838l-0.202,0.075l-0.093,0.03l0.894,2.833c0.071,0.227,0.051,0.233-1.184,0.623l-2.43-7.7
		c0,0-0.068-0.224,0.158-0.295L190.964,40.411z M192.094,44.122l0.238-0.077c0.362-0.114,0.508-0.445,0.137-1.622
		c-0.259-0.817-0.518-1.132-0.88-1.016l-0.319,0.1L192.094,44.122z"/>
	<path fill="#E5C039" d="M198.295,46.562c0.069,0.227,0.094,0.219-1.189,0.624l-1.023-3.252l-2.827-4.035
		c-0.116-0.174-0.093-0.181,1.376-0.644l0.797,1.375c0.297,0.517,0.809,1.587,1.017,2.083c-0.114-0.525-0.302-1.709-0.353-2.302
		l-0.123-1.331c-0.001-0.246-0.001-0.246,1.277-0.65l0.07,5.032L198.295,46.562z"/>
	<path fill="#E5C039" d="M198.81,37.937c1.426-0.449,2.361-0.213,2.942,1.631c0.644,2.04-0.288,2.879-1.353,3.215l-0.09,0.028
		l0.893,2.833c0.073,0.227,0.061,0.231-1.186,0.625l-2.427-7.7c-0.051-0.159-0.038-0.236,0.155-0.295l0.089-0.028L198.81,37.937z
		 M200.179,41.572c0.359-0.114,0.508-0.445,0.106-1.712c-0.229-0.726-0.488-1.042-0.852-0.928l-0.315,0.1l0.824,2.615
		L200.179,41.572z"/>
	<path fill="#E5C039" d="M205.377,35.866l0.3,0.95c0.055,0.18,0.002,0.249-0.156,0.299l-1.214,0.383l2.058,6.52
		c0.071,0.227,0.05,0.234-1.185,0.623l-2.127-6.746l-1.38,0.436l-0.301-0.954c-0.05-0.158-0.006-0.244,0.152-0.293L205.377,35.866z"
		/>
	<path fill="#E5C039" d="M207.345,35.117c1.469-0.464,2.286,0.229,3.271,3.351c1.003,3.182,0.656,4.375-0.827,4.844
		c-1.479,0.467-2.281-0.129-3.339-3.481C205.479,36.753,205.884,35.577,207.345,35.117 M209.445,41.987
		c0.568-0.179,0.438-1.021-0.198-3.039c-0.624-1.977-0.917-2.71-1.516-2.521c-0.544,0.171-0.457,1.001,0.246,3.234
		C208.539,41.438,208.868,42.169,209.445,41.987"/>
	<path fill="#E5C039" d="M188.647,52.831c0.097,0.304,0.089,0.594,0.061,0.813c-0.169-0.059-0.4-0.083-0.649-0.005
		c-0.647,0.205-1.082,0.914-0.302,3.39c0.626,1.981,1.056,2.435,1.691,2.233c0.351-0.11,0.647-0.269,0.827-0.448
		c0.146,0.15,0.313,0.41,0.397,0.683c0.17,0.532-0.255,1-1.113,1.27c-1.269,0.401-2.089-0.036-3.093-3.219
		c-1.172-3.713-0.122-4.728,0.897-5.049C188.326,52.195,188.541,52.488,188.647,52.831"/>
	<path fill="#E5C039" d="M191.944,57.552c0.232,0.739,0.468,1.048,1.065,0.86c0.272-0.085,0.502-0.221,0.626-0.349l-2.053-6.508
		c-0.074-0.238-0.074-0.238,1.203-0.642l2.399,7.608c-0.214,0.266-0.846,0.74-1.811,1.043c-1.775,0.561-2.352-0.392-2.747-1.646
		l-1.738-5.513c-0.076-0.239-0.076-0.239,1.227-0.65L191.944,57.552z"/>
	<path fill="#E5C039" d="M194.654,50.324c1.428-0.45,2.362-0.208,2.944,1.638c0.354,1.12,0.231,1.868-0.122,2.377
		c0.532,0.381,1.392,1.208,1.988,2.909c0.069,0.217,0.047,0.297-0.567,0.489c-0.191,0.061-0.457,0.132-0.746,0.197
		c-0.604-1.761-1.306-2.527-1.705-2.833l-0.195,0.074l-0.094,0.03l0.891,2.827c0.073,0.227,0.047,0.234-1.183,0.623l-2.43-7.698
		c0,0-0.068-0.227,0.155-0.298L194.654,50.324z M195.788,54.037l0.241-0.077c0.359-0.114,0.506-0.444,0.135-1.622
		c-0.257-0.816-0.519-1.132-0.883-1.016l-0.316,0.099L195.788,54.037z"/>
	<path fill="#E5C039" d="M198.672,49.058c1.429-0.451,2.366-0.211,2.947,1.636c0.354,1.12,0.228,1.869-0.123,2.378
		c0.53,0.38,1.388,1.207,1.987,2.906c0.07,0.218,0.043,0.3-0.566,0.492c-0.191,0.061-0.456,0.13-0.748,0.195
		c-0.603-1.76-1.304-2.526-1.7-2.833l-0.203,0.077l-0.089,0.028l0.891,2.827c0.071,0.227,0.051,0.233-1.183,0.623l-2.43-7.696
		c0,0-0.068-0.229,0.154-0.298L198.672,49.058z M199.808,52.769l0.239-0.075c0.361-0.114,0.506-0.445,0.135-1.622
		c-0.257-0.816-0.52-1.131-0.883-1.017l-0.315,0.1L199.808,52.769z"/>
	<path fill="#E5C039" d="M206.416,54.098c0.33,1.048,0.353,1.117,0.135,1.186l-2.648,0.835l-2.428-7.698
		c0,0-0.062-0.229,0.154-0.298l2.719-0.857c0.316,1.007,0.354,1.124,0.126,1.195l-1.457,0.461l0.609,1.932l1.377-0.434
		c0.302,0.954,0.366,1.157,0.162,1.222l-1.174,0.368l0.816,2.595L206.416,54.098z"/>
	<path fill="#E5C039" d="M207.703,46.458c-0.073-0.227-0.049-0.233,1.183-0.624l2.427,7.697c0.044,0.138-0.006,0.252-0.152,0.299
		l-0.977,0.308l-2.154-2.655c-0.448-0.555-1.071-1.58-1.49-2.32c0.389,0.877,0.762,1.866,0.985,2.578l0.857,2.715
		c0.071,0.226,0.059,0.229-1.187,0.623l-2.427-7.696c-0.05-0.158-0.004-0.25,0.154-0.298l0.996-0.314l2.128,2.604
		c0.473,0.584,1.023,1.503,1.428,2.189c-0.403-0.92-0.703-1.711-0.941-2.471L207.703,46.458z"/>
	<path fill="#E5C039" d="M212.853,45.196c0.095,0.304,0.09,0.596,0.059,0.815c-0.165-0.06-0.4-0.084-0.647-0.006
		c-0.646,0.205-1.083,0.913-0.301,3.39c0.625,1.981,1.054,2.434,1.689,2.234c0.35-0.111,0.647-0.27,0.828-0.449
		c0.146,0.151,0.313,0.41,0.396,0.682c0.171,0.532-0.253,1-1.114,1.272c-1.268,0.4-2.089-0.038-3.092-3.219
		c-1.172-3.715-0.122-4.729,0.898-5.05C212.53,44.561,212.744,44.856,212.853,45.196"/>
	<path fill="#E5C039" d="M217.845,51.472c0.071,0.227,0.095,0.221-1.186,0.623l-1.023-3.246l-2.828-4.037
		c-0.119-0.177-0.096-0.183,1.378-0.649l0.797,1.382c0.297,0.514,0.81,1.587,1.018,2.081c-0.118-0.522-0.306-1.712-0.354-2.303
		l-0.123-1.331c-0.003-0.25-0.003-0.25,1.276-0.654l0.066,5.035L217.845,51.472z"/>
	<g opacity="0.3">
		<g>
			<defs>
				<rect id="SVGID_7_" x="177.74" y="25.291" width="36.243" height="44.896"/>
			</defs>
			<clipPath id="SVGID_8_">
				<use xlink:href="#SVGID_7_"  overflow="visible"/>
			</clipPath>
			<path clip-path="url(#SVGID_8_)" fill="#E5C039" d="M188.789,28.676l-11.054,21.235c0.115,1.825,0.448,3.673,1.02,5.495
				l15.117-29.05C192.051,26.935,190.352,27.72,188.789,28.676"/>
			<path clip-path="url(#SVGID_8_)" fill="#E5C039" d="M202.064,25.291l-19.482,37.438c2.642,3.398,6.168,5.966,10.125,7.46
				l21.28-40.883C210.49,26.924,206.366,25.508,202.064,25.291"/>
		</g>
	</g>
	<path fill="#D07768" d="M93.612,195.949l62.762,64.77c4.354,4.493,11.526,4.605,16.019,0.254l101.44-98.298
		c4.495-4.354,4.607-11.526,0.254-16.02l-62.761-64.771c-4.355-4.493-11.528-4.605-16.021-0.25L93.865,179.931
		C89.371,184.283,89.258,191.456,93.612,195.949"/>
	<path fill="#A58E5C" d="M220.934,118.638l-18.882,18.297c-1.29,1.25-1.301,3.315-0.052,4.602l12.177,12.568
		c1.248,1.288,3.293,1.319,4.581,0.071l18.883-18.296c1.287-1.249,1.319-3.292,0.072-4.581l-12.179-12.568
		C224.287,117.444,222.221,117.391,220.934,118.638"/>
	<path fill="#C36856" d="M211.001,223.562l-27.888,27.023c-23.56-29.55-13.646-91.534-36.692-121.582l9.576-9.28
		C185.199,143.805,179.651,201.561,211.001,223.562"/>
	<path fill="#AA4A42" d="M172.945,260.438c-28.13-25.119-28.81-76.842-56.773-102.122l30.25-29.313
		c23.046,30.048,13.132,92.033,36.692,121.582L172.945,260.438z"/>
	<path fill="#953533" d="M172.945,260.438l-0.551,0.533c-4.493,4.355-11.665,4.243-16.019-0.252l-62.762-64.77
		c-4.354-4.494-4.241-11.665,0.252-16.021l22.307-21.613C144.135,183.596,144.814,235.318,172.945,260.438"/>
	<polygon fill="#3E3E3C" points="216.508,122.927 215.055,124.335 231.762,141.576 233.216,140.167 228.646,135.453 
		235.397,128.911 233.988,127.457 227.237,133.997 222.486,129.096 229.238,122.554 227.828,121.1 221.076,127.642 	"/>
	<polygon fill="#3E3E3C" points="212.497,135.955 204.293,143.907 205.702,145.36 212.453,138.818 217.203,143.719 210.454,150.264 
		211.862,151.717 218.614,145.174 223.182,149.89 224.637,148.481 	"/>
	<g opacity="0.1">
		<g>
			<defs>
				<rect id="SVGID_9_" x="104.604" y="262.987" width="148.213" height="12.235"/>
			</defs>
			<clipPath id="SVGID_10_">
				<use xlink:href="#SVGID_9_"  overflow="visible"/>
			</clipPath>
			<path clip-path="url(#SVGID_10_)" fill="#3E3E3C" d="M252.814,269.106c0-3.38-33.177-6.116-74.104-6.116
				c-40.926,0-74.104,2.736-74.104,6.116c0,3.377,33.177,6.116,74.104,6.116C219.638,275.223,252.814,272.483,252.814,269.106"/>
		</g>
	</g>
</g>
</svg>
