<?xml version="1.0" encoding="utf-8"?>
<!-- Generator: Adobe Illustrator 25.0.1, SVG Export Plug-In . SVG Version: 6.00 Build 0)  -->
<svg version="1.1" id="Capa_1" xmlns="http://www.w3.org/2000/svg" xmlns:xlink="http://www.w3.org/1999/xlink" x="0px" y="0px"
	 viewBox="0 0 129.7 226.7" style="enable-background:new 0 0 129.7 226.7;" xml:space="preserve">
<style type="text/css">
	.st0{fill:#575756;}
	.st1{fill:#4FD7E8;}
	.st2{fill:#878787;}
	.st3{fill:#9D9D9C;}
	.st4{fill:url(#SVGID_1_);}
	.st5{fill:url(#SVGID_2_);}
	.st6{fill:url(#SVGID_3_);}
	.st7{fill:url(#SVGID_4_);}
	.st8{fill:url(#SVGID_5_);}
	.st9{fill:#818386;}
	.st10{fill:url(#SVGID_6_);}
	.st11{fill:url(#SVGID_7_);}
	.st12{fill:#2B424C;}
	.st13{fill:#1D323B;}
	.st14{fill:url(#SVGID_8_);}
	.st15{fill:url(#SVGID_9_);}
	.st16{fill:url(#SVGID_10_);}
	.st17{fill:url(#SVGID_11_);}
	.st18{fill:url(#SVGID_12_);}
	.st19{fill:url(#SVGID_13_);}
	.st20{fill:url(#SVGID_14_);}
	.st21{fill:url(#SVGID_15_);}
	.st22{fill:url(#SVGID_16_);}
	.st23{opacity:0.3;fill:#231F20;enable-background:new    ;}
	.st24{fill:url(#SVGID_17_);}
	.st25{fill:url(#SVGID_18_);}
	.st26{fill:url(#SVGID_19_);}
	.st27{fill:url(#SVGID_20_);}
	.st28{fill:url(#SVGID_21_);}
	.st29{fill:url(#SVGID_22_);}
	.st30{fill:url(#SVGID_23_);}
	.st31{fill:url(#SVGID_24_);}
	.st32{fill:url(#SVGID_25_);}
	.st33{fill:url(#SVGID_26_);}
	.st34{fill:url(#SVGID_27_);}
	.st35{fill:url(#SVGID_28_);}
	.st36{fill:url(#SVGID_29_);}
	.st37{fill:url(#SVGID_30_);}
	.st38{fill:url(#SVGID_31_);}
	.st39{fill:url(#SVGID_32_);}
	.st40{fill:url(#SVGID_33_);}
	.st41{fill:url(#SVGID_34_);}
	.st42{fill:url(#SVGID_35_);}
	.st43{fill:url(#SVGID_36_);}
	.st44{fill:url(#SVGID_37_);}
	.st45{fill:url(#SVGID_38_);}
	.st46{fill:url(#SVGID_39_);}
	.st47{fill:url(#SVGID_40_);}
	.st48{fill:url(#SVGID_41_);}
	.st49{fill:url(#SVGID_42_);}
	.st50{fill:url(#SVGID_43_);}
	.st51{fill:url(#SVGID_44_);}
	.st52{opacity:0.15;fill:#1D1D1B;enable-background:new    ;}
</style>
<g>
	<g id="Capa_2_1_">
		<g id="Layer_1">
			<path class="st0" d="M28.9,25.7h71.8c7.9,0,14.2,6.4,14.2,14.2v146.8c0,7.9-6.4,14.2-14.2,14.2H28.9c-7.9,0-14.2-6.4-14.2-14.2
				V40C14.7,32.1,21.1,25.7,28.9,25.7z"/>
			<path class="st1" d="M28.9,38.3h71.8c1.6,0,2.9,1.3,2.9,2.9v136.2c0,1.6-1.3,2.9-2.9,2.9H28.9c-1.6,0-2.9-1.3-2.9-2.9V41.2
				C26.1,39.6,27.4,38.3,28.9,38.3z"/>
			<path class="st2" d="M68.5,32.3c0,2-1.6,3.7-3.7,3.7c-2,0-3.7-1.6-3.7-3.7s1.6-3.7,3.7-3.7C66.9,28.6,68.5,30.2,68.5,32.3z"/>
			<path class="st3" d="M71.1,190.8c0,3.5-2.8,6.3-6.3,6.3s-6.3-2.8-6.3-6.3c0-3.5,2.8-6.3,6.3-6.3l0,0
				C68.3,184.5,71.1,187.3,71.1,190.8C71.1,190.8,71.1,190.8,71.1,190.8z"/>
			<path class="st3" d="M49.8,190c0,1.5-1.2,2.7-2.7,2.7H34.9c-1.5,0-2.7-1.2-2.7-2.7l0,0c0-1.5,1.2-2.7,2.7-2.7c0,0,0,0,0,0h12.2
				C48.6,187.3,49.8,188.5,49.8,190C49.8,189.9,49.8,189.9,49.8,190L49.8,190z"/>
			<path class="st3" d="M96.9,190c0,1.5-1.2,2.7-2.7,2.7H82.1c-1.5,0-2.7-1.2-2.7-2.7l0,0c0-1.5,1.2-2.7,2.7-2.7c0,0,0,0,0,0h12.2
				C95.7,187.3,96.9,188.5,96.9,190C96.9,189.9,96.9,189.9,96.9,190L96.9,190z"/>
			
				<linearGradient id="SVGID_1_" gradientUnits="userSpaceOnUse" x1="65.0619" y1="92.6388" x2="65.0619" y2="87.9084" gradientTransform="matrix(1 0 0 -1 0 228)">
				<stop  offset="0" style="stop-color:#3A5560"/>
				<stop  offset="0.29" style="stop-color:#344E59"/>
				<stop  offset="0.73" style="stop-color:#243C45"/>
				<stop  offset="1" style="stop-color:#172D35"/>
			</linearGradient>
			<polygon class="st4" points="100.4,139.6 29.7,139.6 33.7,137.5 96.4,137.6 			"/>
			
				<linearGradient id="SVGID_2_" gradientUnits="userSpaceOnUse" x1="65.0619" y1="88.9519" x2="65.0619" y2="83.3789" gradientTransform="matrix(1 0 0 -1 0 228)">
				<stop  offset="0" style="stop-color:#FFFFFF"/>
				<stop  offset="0.4" style="stop-color:#E2E3E4"/>
				<stop  offset="1" style="stop-color:#AFB1B4"/>
			</linearGradient>
			<rect x="29.7" y="139.6" class="st5" width="70.8" height="2.8"/>
			
				<linearGradient id="SVGID_3_" gradientUnits="userSpaceOnUse" x1="64.9962" y1="122.3431" x2="64.9962" y2="148.4918" gradientTransform="matrix(1 0 0 -1 0 228)">
				<stop  offset="0" style="stop-color:#FFFFFF"/>
				<stop  offset="0.4" style="stop-color:#E2E3E4"/>
				<stop  offset="1" style="stop-color:#AFB1B4"/>
			</linearGradient>
			<polygon class="st6" points="90.6,103.8 90.6,90.9 64.8,80 39.4,90.9 39.4,103.8 			"/>
			
				<linearGradient id="SVGID_4_" gradientUnits="userSpaceOnUse" x1="64.9962" y1="152.5575" x2="64.9962" y2="130.5595" gradientTransform="matrix(1 0 0 -1 0 228)">
				<stop  offset="0" style="stop-color:#3A5560"/>
				<stop  offset="0.29" style="stop-color:#344E59"/>
				<stop  offset="0.73" style="stop-color:#243C45"/>
				<stop  offset="1" style="stop-color:#172D35"/>
			</linearGradient>
			<polygon class="st7" points="64.8,78.1 38.1,91.5 38.1,93.4 64.8,80 91.9,93.3 91.9,91.4 			"/>
			
				<linearGradient id="SVGID_5_" gradientUnits="userSpaceOnUse" x1="64.9962" y1="152.0551" x2="64.9962" y2="136.4416" gradientTransform="matrix(1 0 0 -1 0 228)">
				<stop  offset="0" style="stop-color:#FFFFFF"/>
				<stop  offset="0.4" style="stop-color:#E2E3E4"/>
				<stop  offset="1" style="stop-color:#AFB1B4"/>
			</linearGradient>
			<polygon class="st8" points="64.8,77.3 37.6,90.9 37.6,91.8 64.8,78.2 92.4,91.7 92.4,90.8 			"/>
			<polygon class="st9" points="39.4,93.2 39.4,94.1 64.8,81.4 90.6,94 90.6,93.1 64.8,80.5 			"/>
			
				<linearGradient id="SVGID_6_" gradientUnits="userSpaceOnUse" x1="64.9962" y1="152.0551" x2="64.9962" y2="136.4416" gradientTransform="matrix(1 0 0 -1 0 228)">
				<stop  offset="0" style="stop-color:#FFFFFF"/>
				<stop  offset="0.4" style="stop-color:#E2E3E4"/>
				<stop  offset="1" style="stop-color:#AFB1B4"/>
			</linearGradient>
			<polygon class="st10" points="64.8,79.9 37.6,93.5 37.6,94.4 64.8,80.8 92.4,94.3 92.4,93.4 			"/>
			
				<linearGradient id="SVGID_7_" gradientUnits="userSpaceOnUse" x1="65.058" y1="117.3653" x2="65.058" y2="92.1132" gradientTransform="matrix(1 0 0 -1 0 228)">
				<stop  offset="0" style="stop-color:#3A5560"/>
				<stop  offset="0.29" style="stop-color:#344E59"/>
				<stop  offset="0.73" style="stop-color:#243C45"/>
				<stop  offset="1" style="stop-color:#172D35"/>
			</linearGradient>
			<rect x="36.9" y="105.6" class="st11" width="56.3" height="30.8"/>
			<polygon class="st12" points="96.9,106.1 93.2,105.9 93.2,105.6 36.9,105.5 36.9,105.9 33.3,106.1 36.9,108.1 36.9,109.9 
				93.2,109.9 93.2,108.1 			"/>
			<polygon class="st13" points="93.5,107.9 96.9,106.1 93.2,105.9 93.2,105.6 36.9,105.5 36.9,105.9 33.3,106.1 36.6,107.9 			"/>
			
				<linearGradient id="SVGID_8_" gradientUnits="userSpaceOnUse" x1="65.0619" y1="96.1248" x2="65.0619" y2="91.7267" gradientTransform="matrix(1 0 0 -1 0 228)">
				<stop  offset="0" style="stop-color:#3A5560"/>
				<stop  offset="0.29" style="stop-color:#344E59"/>
				<stop  offset="0.73" style="stop-color:#243C45"/>
				<stop  offset="1" style="stop-color:#172D35"/>
			</linearGradient>
			<polygon class="st14" points="96.9,135.7 33.3,135.7 36.9,133.9 93.2,133.9 			"/>
			
				<linearGradient id="SVGID_9_" gradientUnits="userSpaceOnUse" x1="38.9673" y1="107.0272" x2="43.4117" y2="107.0272" gradientTransform="matrix(1 0 0 -1 0 228)">
				<stop  offset="0" style="stop-color:#FFFFFF"/>
				<stop  offset="0.4" style="stop-color:#E2E3E4"/>
				<stop  offset="1" style="stop-color:#AFB1B4"/>
			</linearGradient>
			<rect x="39" y="107.8" class="st15" width="4.4" height="26.3"/>
			
				<linearGradient id="SVGID_10_" gradientUnits="userSpaceOnUse" x1="42.5151" y1="107.0272" x2="43.0716" y2="107.0272" gradientTransform="matrix(1 0 0 -1 0 228)">
				<stop  offset="0" style="stop-color:#FFFFFF"/>
				<stop  offset="0.4" style="stop-color:#E2E3E4"/>
				<stop  offset="1" style="stop-color:#AFB1B4"/>
			</linearGradient>
			<rect x="42.6" y="107.8" class="st16" width="0.4" height="26.3"/>
			
				<linearGradient id="SVGID_11_" gradientUnits="userSpaceOnUse" x1="41.7267" y1="107.0272" x2="42.2214" y2="107.0272" gradientTransform="matrix(1 0 0 -1 0 228)">
				<stop  offset="0" style="stop-color:#FFFFFF"/>
				<stop  offset="0.4" style="stop-color:#E2E3E4"/>
				<stop  offset="1" style="stop-color:#AFB1B4"/>
			</linearGradient>
			<rect x="41.8" y="107.8" class="st17" width="0.4" height="26.3"/>
			
				<linearGradient id="SVGID_12_" gradientUnits="userSpaceOnUse" x1="40.9306" y1="107.0272" x2="41.4871" y2="107.0272" gradientTransform="matrix(1 0 0 -1 0 228)">
				<stop  offset="0" style="stop-color:#FFFFFF"/>
				<stop  offset="0.4" style="stop-color:#E2E3E4"/>
				<stop  offset="1" style="stop-color:#AFB1B4"/>
			</linearGradient>
			<rect x="41" y="107.8" class="st18" width="0.4" height="26.3"/>
			
				<linearGradient id="SVGID_13_" gradientUnits="userSpaceOnUse" x1="40.1422" y1="107.0272" x2="40.745" y2="107.0272" gradientTransform="matrix(1 0 0 -1 0 228)">
				<stop  offset="0" style="stop-color:#FFFFFF"/>
				<stop  offset="0.4" style="stop-color:#E2E3E4"/>
				<stop  offset="1" style="stop-color:#AFB1B4"/>
			</linearGradient>
			<rect x="40.2" y="107.8" class="st19" width="0.4" height="26.3"/>
			
				<linearGradient id="SVGID_14_" gradientUnits="userSpaceOnUse" x1="39.3692" y1="107.0272" x2="40.0417" y2="107.0272" gradientTransform="matrix(1 0 0 -1 0 228)">
				<stop  offset="0" style="stop-color:#FFFFFF"/>
				<stop  offset="0.4" style="stop-color:#E2E3E4"/>
				<stop  offset="1" style="stop-color:#AFB1B4"/>
			</linearGradient>
			<rect x="39.4" y="107.8" class="st20" width="0.4" height="26.3"/>
			
				<linearGradient id="SVGID_15_" gradientUnits="userSpaceOnUse" x1="37.8156" y1="120.2754" x2="44.5634" y2="120.2754" gradientTransform="matrix(1 0 0 -1 0 228)">
				<stop  offset="0" style="stop-color:#ECEDED"/>
				<stop  offset="0.36" style="stop-color:#C3C5C7"/>
				<stop  offset="0.52" style="stop-color:#AFB1B4"/>
				<stop  offset="0.65" style="stop-color:#A8AAAD"/>
				<stop  offset="0.84" style="stop-color:#94979A"/>
				<stop  offset="1" style="stop-color:#7F8285"/>
			</linearGradient>
			<rect x="37.8" y="106.9" class="st21" width="6.7" height="1.6"/>
			
				<linearGradient id="SVGID_16_" gradientUnits="userSpaceOnUse" x1="37.8156" y1="93.9258" x2="44.5634" y2="93.9258" gradientTransform="matrix(1 0 0 -1 0 228)">
				<stop  offset="0" style="stop-color:#ECEDED"/>
				<stop  offset="0.36" style="stop-color:#C3C5C7"/>
				<stop  offset="0.52" style="stop-color:#AFB1B4"/>
				<stop  offset="0.65" style="stop-color:#A8AAAD"/>
				<stop  offset="0.84" style="stop-color:#94979A"/>
				<stop  offset="1" style="stop-color:#7F8285"/>
			</linearGradient>
			<rect x="37.8" y="133.3" class="st22" width="6.7" height="1.6"/>
			<polygon class="st23" points="53.2,108.5 53.2,106.9 46.4,106.9 46.4,108.5 47.6,108.5 47.6,133.3 46.4,133.3 46.4,134.9 
				53.2,134.9 53.2,133.3 52,133.3 52,108.5 			"/>
			<polygon class="st23" points="82.8,108.5 82.8,106.9 76,106.9 76,108.5 77.2,108.5 77.2,133.3 76,133.3 76,134.9 82.8,134.9 
				82.8,133.3 81.6,133.3 81.6,108.5 			"/>
			<polygon class="st23" points="89.6,108.5 89.6,106.9 82.8,106.9 82.8,108.5 84,108.5 84,133.3 82.8,133.3 82.8,134.9 89.6,134.9 
				89.6,133.3 88.4,133.3 88.4,108.5 			"/>
			<polygon class="st23" points="46.8,108.5 46.8,106.9 40.1,106.9 40.1,108.5 41.2,108.5 41.2,133.3 40.1,133.3 40.1,134.9 
				46.8,134.9 46.8,133.3 45.7,133.3 45.7,108.5 			"/>
			
				<linearGradient id="SVGID_17_" gradientUnits="userSpaceOnUse" x1="46.4339" y1="107.0272" x2="50.8783" y2="107.0272" gradientTransform="matrix(1 0 0 -1 0 228)">
				<stop  offset="0" style="stop-color:#FFFFFF"/>
				<stop  offset="0.4" style="stop-color:#E2E3E4"/>
				<stop  offset="1" style="stop-color:#AFB1B4"/>
			</linearGradient>
			<rect x="46.4" y="107.8" class="st24" width="4.4" height="26.3"/>
			
				<linearGradient id="SVGID_18_" gradientUnits="userSpaceOnUse" x1="49.9817" y1="107.0272" x2="50.5383" y2="107.0272" gradientTransform="matrix(1 0 0 -1 0 228)">
				<stop  offset="0" style="stop-color:#FFFFFF"/>
				<stop  offset="0.4" style="stop-color:#E2E3E4"/>
				<stop  offset="1" style="stop-color:#AFB1B4"/>
			</linearGradient>
			<rect x="50.1" y="107.8" class="st25" width="0.4" height="26.3"/>
			
				<linearGradient id="SVGID_19_" gradientUnits="userSpaceOnUse" x1="49.1933" y1="107.0272" x2="49.688" y2="107.0272" gradientTransform="matrix(1 0 0 -1 0 228)">
				<stop  offset="0" style="stop-color:#FFFFFF"/>
				<stop  offset="0.4" style="stop-color:#E2E3E4"/>
				<stop  offset="1" style="stop-color:#AFB1B4"/>
			</linearGradient>
			<rect x="49.3" y="107.8" class="st26" width="0.4" height="26.3"/>
			
				<linearGradient id="SVGID_20_" gradientUnits="userSpaceOnUse" x1="48.3972" y1="107.0272" x2="48.9537" y2="107.0272" gradientTransform="matrix(1 0 0 -1 0 228)">
				<stop  offset="0" style="stop-color:#FFFFFF"/>
				<stop  offset="0.4" style="stop-color:#E2E3E4"/>
				<stop  offset="1" style="stop-color:#AFB1B4"/>
			</linearGradient>
			<rect x="48.5" y="107.8" class="st27" width="0.4" height="26.3"/>
			
				<linearGradient id="SVGID_21_" gradientUnits="userSpaceOnUse" x1="47.6165" y1="107.0272" x2="48.2194" y2="107.0272" gradientTransform="matrix(1 0 0 -1 0 228)">
				<stop  offset="0" style="stop-color:#FFFFFF"/>
				<stop  offset="0.4" style="stop-color:#E2E3E4"/>
				<stop  offset="1" style="stop-color:#AFB1B4"/>
			</linearGradient>
			<rect x="47.6" y="107.8" class="st28" width="0.4" height="26.3"/>
			
				<linearGradient id="SVGID_22_" gradientUnits="userSpaceOnUse" x1="46.8358" y1="107.0272" x2="47.5083" y2="107.0272" gradientTransform="matrix(1 0 0 -1 0 228)">
				<stop  offset="0" style="stop-color:#FFFFFF"/>
				<stop  offset="0.4" style="stop-color:#E2E3E4"/>
				<stop  offset="1" style="stop-color:#AFB1B4"/>
			</linearGradient>
			<rect x="46.8" y="107.8" class="st29" width="0.4" height="26.3"/>
			
				<linearGradient id="SVGID_23_" gradientUnits="userSpaceOnUse" x1="45.2822" y1="120.2754" x2="52.03" y2="120.2754" gradientTransform="matrix(1 0 0 -1 0 228)">
				<stop  offset="0" style="stop-color:#ECEDED"/>
				<stop  offset="0.36" style="stop-color:#C3C5C7"/>
				<stop  offset="0.52" style="stop-color:#AFB1B4"/>
				<stop  offset="0.65" style="stop-color:#A8AAAD"/>
				<stop  offset="0.84" style="stop-color:#94979A"/>
				<stop  offset="1" style="stop-color:#7F8285"/>
			</linearGradient>
			<rect x="45.3" y="106.9" class="st30" width="6.7" height="1.6"/>
			
				<linearGradient id="SVGID_24_" gradientUnits="userSpaceOnUse" x1="45.2822" y1="93.9258" x2="52.03" y2="93.9258" gradientTransform="matrix(1 0 0 -1 0 228)">
				<stop  offset="0" style="stop-color:#ECEDED"/>
				<stop  offset="0.36" style="stop-color:#C3C5C7"/>
				<stop  offset="0.52" style="stop-color:#AFB1B4"/>
				<stop  offset="0.65" style="stop-color:#A8AAAD"/>
				<stop  offset="0.84" style="stop-color:#94979A"/>
				<stop  offset="1" style="stop-color:#7F8285"/>
			</linearGradient>
			<rect x="45.3" y="133.3" class="st31" width="6.7" height="1.6"/>
			
				<linearGradient id="SVGID_25_" gradientUnits="userSpaceOnUse" x1="78.3875" y1="107.0272" x2="82.8319" y2="107.0272" gradientTransform="matrix(1 0 0 -1 0 228)">
				<stop  offset="0" style="stop-color:#FFFFFF"/>
				<stop  offset="0.4" style="stop-color:#E2E3E4"/>
				<stop  offset="1" style="stop-color:#AFB1B4"/>
			</linearGradient>
			<rect x="78.4" y="107.8" class="st32" width="4.4" height="26.3"/>
			
				<linearGradient id="SVGID_26_" gradientUnits="userSpaceOnUse" x1="81.9353" y1="107.0272" x2="82.4918" y2="107.0272" gradientTransform="matrix(1 0 0 -1 0 228)">
				<stop  offset="0" style="stop-color:#FFFFFF"/>
				<stop  offset="0.4" style="stop-color:#E2E3E4"/>
				<stop  offset="1" style="stop-color:#AFB1B4"/>
			</linearGradient>
			<rect x="82" y="107.8" class="st33" width="0.4" height="26.3"/>
			
				<linearGradient id="SVGID_27_" gradientUnits="userSpaceOnUse" x1="81.1469" y1="107.0272" x2="81.6415" y2="107.0272" gradientTransform="matrix(1 0 0 -1 0 228)">
				<stop  offset="0" style="stop-color:#FFFFFF"/>
				<stop  offset="0.4" style="stop-color:#E2E3E4"/>
				<stop  offset="1" style="stop-color:#AFB1B4"/>
			</linearGradient>
			<rect x="81.2" y="107.8" class="st34" width="0.4" height="26.3"/>
			
				<linearGradient id="SVGID_28_" gradientUnits="userSpaceOnUse" x1="80.3507" y1="107.0272" x2="80.9072" y2="107.0272" gradientTransform="matrix(1 0 0 -1 0 228)">
				<stop  offset="0" style="stop-color:#FFFFFF"/>
				<stop  offset="0.4" style="stop-color:#E2E3E4"/>
				<stop  offset="1" style="stop-color:#AFB1B4"/>
			</linearGradient>
			<rect x="80.4" y="107.8" class="st35" width="0.4" height="26.3"/>
			
				<linearGradient id="SVGID_29_" gradientUnits="userSpaceOnUse" x1="79.5623" y1="107.0272" x2="80.173" y2="107.0272" gradientTransform="matrix(1 0 0 -1 0 228)">
				<stop  offset="0" style="stop-color:#FFFFFF"/>
				<stop  offset="0.4" style="stop-color:#E2E3E4"/>
				<stop  offset="1" style="stop-color:#AFB1B4"/>
			</linearGradient>
			<rect x="79.6" y="107.8" class="st36" width="0.4" height="26.3"/>
			
				<linearGradient id="SVGID_30_" gradientUnits="userSpaceOnUse" x1="78.7894" y1="107.0272" x2="79.4618" y2="107.0272" gradientTransform="matrix(1 0 0 -1 0 228)">
				<stop  offset="0" style="stop-color:#FFFFFF"/>
				<stop  offset="0.4" style="stop-color:#E2E3E4"/>
				<stop  offset="1" style="stop-color:#AFB1B4"/>
			</linearGradient>
			<rect x="78.8" y="107.8" class="st37" width="0.4" height="26.3"/>
			
				<linearGradient id="SVGID_31_" gradientUnits="userSpaceOnUse" x1="77.2358" y1="120.2754" x2="83.9836" y2="120.2754" gradientTransform="matrix(1 0 0 -1 0 228)">
				<stop  offset="0" style="stop-color:#ECEDED"/>
				<stop  offset="0.36" style="stop-color:#C3C5C7"/>
				<stop  offset="0.52" style="stop-color:#AFB1B4"/>
				<stop  offset="0.65" style="stop-color:#A8AAAD"/>
				<stop  offset="0.84" style="stop-color:#94979A"/>
				<stop  offset="1" style="stop-color:#7F8285"/>
			</linearGradient>
			<rect x="77.2" y="106.9" class="st38" width="6.7" height="1.6"/>
			
				<linearGradient id="SVGID_32_" gradientUnits="userSpaceOnUse" x1="77.2358" y1="93.9258" x2="83.9836" y2="93.9258" gradientTransform="matrix(1 0 0 -1 0 228)">
				<stop  offset="0" style="stop-color:#ECEDED"/>
				<stop  offset="0.36" style="stop-color:#C3C5C7"/>
				<stop  offset="0.52" style="stop-color:#AFB1B4"/>
				<stop  offset="0.65" style="stop-color:#A8AAAD"/>
				<stop  offset="0.84" style="stop-color:#94979A"/>
				<stop  offset="1" style="stop-color:#7F8285"/>
			</linearGradient>
			<rect x="77.2" y="133.3" class="st39" width="6.7" height="1.6"/>
			
				<linearGradient id="SVGID_33_" gradientUnits="userSpaceOnUse" x1="85.8541" y1="107.0272" x2="90.2985" y2="107.0272" gradientTransform="matrix(1 0 0 -1 0 228)">
				<stop  offset="0" style="stop-color:#FFFFFF"/>
				<stop  offset="0.4" style="stop-color:#E2E3E4"/>
				<stop  offset="1" style="stop-color:#AFB1B4"/>
			</linearGradient>
			<rect x="85.9" y="107.8" class="st40" width="4.4" height="26.3"/>
			
				<linearGradient id="SVGID_34_" gradientUnits="userSpaceOnUse" x1="89.4096" y1="107.0272" x2="89.9584" y2="107.0272" gradientTransform="matrix(1 0 0 -1 0 228)">
				<stop  offset="0" style="stop-color:#FFFFFF"/>
				<stop  offset="0.4" style="stop-color:#E2E3E4"/>
				<stop  offset="1" style="stop-color:#AFB1B4"/>
			</linearGradient>
			<rect x="89.5" y="107.8" class="st41" width="0.4" height="26.3"/>
			
				<linearGradient id="SVGID_35_" gradientUnits="userSpaceOnUse" x1="88.6135" y1="107.0272" x2="89.1082" y2="107.0272" gradientTransform="matrix(1 0 0 -1 0 228)">
				<stop  offset="0" style="stop-color:#FFFFFF"/>
				<stop  offset="0.4" style="stop-color:#E2E3E4"/>
				<stop  offset="1" style="stop-color:#AFB1B4"/>
			</linearGradient>
			<rect x="88.7" y="107.8" class="st42" width="0.4" height="26.3"/>
			
				<linearGradient id="SVGID_36_" gradientUnits="userSpaceOnUse" x1="87.8174" y1="107.0272" x2="88.3816" y2="107.0272" gradientTransform="matrix(1 0 0 -1 0 228)">
				<stop  offset="0" style="stop-color:#FFFFFF"/>
				<stop  offset="0.4" style="stop-color:#E2E3E4"/>
				<stop  offset="1" style="stop-color:#AFB1B4"/>
			</linearGradient>
			<rect x="87.9" y="107.8" class="st43" width="0.4" height="26.3"/>
			
				<linearGradient id="SVGID_37_" gradientUnits="userSpaceOnUse" x1="87.0367" y1="107.0272" x2="87.6396" y2="107.0272" gradientTransform="matrix(1 0 0 -1 0 228)">
				<stop  offset="0" style="stop-color:#FFFFFF"/>
				<stop  offset="0.4" style="stop-color:#E2E3E4"/>
				<stop  offset="1" style="stop-color:#AFB1B4"/>
			</linearGradient>
			<rect x="87.1" y="107.8" class="st44" width="0.4" height="26.3"/>
			
				<linearGradient id="SVGID_38_" gradientUnits="userSpaceOnUse" x1="86.2638" y1="107.0272" x2="86.9285" y2="107.0272" gradientTransform="matrix(1 0 0 -1 0 228)">
				<stop  offset="0" style="stop-color:#FFFFFF"/>
				<stop  offset="0.4" style="stop-color:#E2E3E4"/>
				<stop  offset="1" style="stop-color:#AFB1B4"/>
			</linearGradient>
			<rect x="86.3" y="107.8" class="st45" width="0.4" height="26.3"/>
			
				<linearGradient id="SVGID_39_" gradientUnits="userSpaceOnUse" x1="84.7024" y1="120.2754" x2="91.4579" y2="120.2754" gradientTransform="matrix(1 0 0 -1 0 228)">
				<stop  offset="0" style="stop-color:#ECEDED"/>
				<stop  offset="0.36" style="stop-color:#C3C5C7"/>
				<stop  offset="0.52" style="stop-color:#AFB1B4"/>
				<stop  offset="0.65" style="stop-color:#A8AAAD"/>
				<stop  offset="0.84" style="stop-color:#94979A"/>
				<stop  offset="1" style="stop-color:#7F8285"/>
			</linearGradient>
			<rect x="84.7" y="106.9" class="st46" width="6.7" height="1.6"/>
			
				<linearGradient id="SVGID_40_" gradientUnits="userSpaceOnUse" x1="84.7024" y1="93.9258" x2="91.4579" y2="93.9258" gradientTransform="matrix(1 0 0 -1 0 228)">
				<stop  offset="0" style="stop-color:#ECEDED"/>
				<stop  offset="0.36" style="stop-color:#C3C5C7"/>
				<stop  offset="0.52" style="stop-color:#AFB1B4"/>
				<stop  offset="0.65" style="stop-color:#A8AAAD"/>
				<stop  offset="0.84" style="stop-color:#94979A"/>
				<stop  offset="1" style="stop-color:#7F8285"/>
			</linearGradient>
			<rect x="84.7" y="133.3" class="st47" width="6.7" height="1.6"/>
			
				<linearGradient id="SVGID_41_" gradientUnits="userSpaceOnUse" x1="65.0619" y1="127.3208" x2="65.0619" y2="120.0165" gradientTransform="matrix(1 0 0 -1 0 228)">
				<stop  offset="0" style="stop-color:#FFFFFF"/>
				<stop  offset="0.4" style="stop-color:#E2E3E4"/>
				<stop  offset="1" style="stop-color:#AFB1B4"/>
			</linearGradient>
			<rect x="33.3" y="102" class="st48" width="63.6" height="4.1"/>
			
				<linearGradient id="SVGID_42_" gradientUnits="userSpaceOnUse" x1="65.0619" y1="93.3499" x2="65.0619" y2="87.6147" gradientTransform="matrix(1 0 0 -1 0 228)">
				<stop  offset="0" style="stop-color:#FFFFFF"/>
				<stop  offset="0.4" style="stop-color:#E2E3E4"/>
				<stop  offset="1" style="stop-color:#AFB1B4"/>
			</linearGradient>
			<rect x="33.3" y="135.7" class="st49" width="63.6" height="2.5"/>
			
				<linearGradient id="SVGID_43_" gradientUnits="userSpaceOnUse" x1="65.0619" y1="126.888" x2="65.0619" y2="120.7585" gradientTransform="matrix(1 0 0 -1 0 228)">
				<stop  offset="0" style="stop-color:#ECEDED"/>
				<stop  offset="0.36" style="stop-color:#C3C5C7"/>
				<stop  offset="0.52" style="stop-color:#AFB1B4"/>
				<stop  offset="0.65" style="stop-color:#A8AAAD"/>
				<stop  offset="0.84" style="stop-color:#94979A"/>
				<stop  offset="1" style="stop-color:#7F8285"/>
			</linearGradient>
			<rect x="33.3" y="102.8" class="st50" width="63.6" height="2.6"/>
			
				<linearGradient id="SVGID_44_" gradientUnits="userSpaceOnUse" x1="65.0619" y1="126.7643" x2="65.0619" y2="120.0938" gradientTransform="matrix(1 0 0 -1 0 228)">
				<stop  offset="0" style="stop-color:#3A5560"/>
				<stop  offset="0.29" style="stop-color:#344E59"/>
				<stop  offset="0.73" style="stop-color:#243C45"/>
				<stop  offset="1" style="stop-color:#172D35"/>
			</linearGradient>
			<rect x="33.3" y="103.3" class="st51" width="63.6" height="1.6"/>
			<path class="st52" d="M64.8,25.7H28.9c-7.9,0-14.2,6.4-14.2,14.2v146.8c0,7.9,6.4,14.2,14.2,14.2c0,0,0,0,0,0h35.9V25.7z"/>
		</g>
	</g>
</g>
</svg>
