<svg xmlns="http://www.w3.org/2000/svg" viewBox="0 0 143.55 232.96"><defs><style>.cls-1{fill:#ccc;}.cls-2{fill:#347474;}.cls-3{fill:#285e5d;}.cls-4{fill:#f2f2f2;}.cls-5{fill:#306663;}.cls-6{fill:#1e4c4a;}.cls-7{fill:#333;}.cls-8{fill:gray;}.cls-9{fill:#fff;}.cls-10{fill:#1a1a1a;}.cls-11{fill:#232323;}.cls-12{fill:#0f0f0f;}.cls-13{fill:#4a8e8c;}</style></defs><g id="Capa_2" data-name="Capa 2"><g id="Layer_1" data-name="Layer 1"><ellipse class="cls-1" cx="71.78" cy="221.83" rx="71.78" ry="11.13"/><rect class="cls-2" x="30.34" width="82.87" height="221.83"/><rect class="cls-3" x="48.93" y="5.93" width="45.69" height="17.69"/><path class="cls-4" d="M58.84,18.27H55.58l3.73-10.1h3.1l3.74,10.1H62.89l-.46-1.43H59.3Zm3-3.51-1-3-.93,3Z"/><path class="cls-4" d="M65.71,10.94V8.17h8.85v2.77H71.71v7.33H68.56V10.94Z"/><path class="cls-4" d="M78.79,11.63l-.07,0,.07.76v5.86H75.94V8.17H80.2l1.63,5.71.09.69H82l.1-.69,1.62-5.71H88v10.1H85.12V12.41l.07-.76-.07,0-2,6.64H80.81Z"/><rect class="cls-4" x="55.52" y="19.67" width="32.52" height="0.6"/><path class="cls-3" d="M22.52,0a2.77,2.77,0,0,0-2.77,2.76V221.83H30.34V0Z"/><path class="cls-3" d="M121,0h-7.83V221.83H123.8V2.76A2.77,2.77,0,0,0,121,0Z"/><polygon class="cls-5" points="37.99 36.6 30.34 29.54 113.21 29.54 105.56 36.6 37.99 36.6"/><polygon class="cls-6" points="30.34 29.54 30.34 107.47 34.93 107.47 34.99 94.52 37.99 36.6 30.34 29.54"/><polygon class="cls-6" points="113.21 29.54 113.21 107.47 108.62 107.47 108.56 94.52 105.56 36.6 113.21 29.54"/><polygon class="cls-7" points="108.56 94.52 34.99 94.52 37.99 36.6 105.56 36.6 108.56 94.52"/><path class="cls-8" d="M100,65.68h2.2a.75.75,0,0,0,.75-.79l-.11-2.35a.76.76,0,0,0-.75-.72H99.87a.75.75,0,0,0-.75.78l.1,2.36A.74.74,0,0,0,100,65.68Z"/><path class="cls-8" d="M100.19,71.07h2.24a.75.75,0,0,0,.75-.79l-.12-2.42a.74.74,0,0,0-.75-.71h-2.22a.74.74,0,0,0-.75.78l.1,2.42A.76.76,0,0,0,100.19,71.07Z"/><path class="cls-8" d="M100.42,76.55h2.27a.75.75,0,0,0,.75-.79l-.12-2.48a.75.75,0,0,0-.75-.72h-2.25a.76.76,0,0,0-.76.78l.11,2.49A.76.76,0,0,0,100.42,76.55Z"/><path class="cls-8" d="M103.58,78.78a.76.76,0,0,0-.75-.72h-2.28a.76.76,0,0,0-.76.78l.11,2.56a.76.76,0,0,0,.75.72H103a.75.75,0,0,0,.75-.79Z"/><path class="cls-8" d="M43.6,61.82H41.42a.76.76,0,0,0-.76.72l-.11,2.35a.75.75,0,0,0,.76.79H43.5a.76.76,0,0,0,.76-.72l.1-2.35A.77.77,0,0,0,43.6,61.82Z"/><path class="cls-8" d="M43.37,67.15h-2.2a.75.75,0,0,0-.76.72l-.12,2.41a.76.76,0,0,0,.76.79h2.22a.75.75,0,0,0,.76-.73l.1-2.4A.75.75,0,0,0,43.37,67.15Z"/><path class="cls-8" d="M43.15,72.56H40.91a.77.77,0,0,0-.76.72L40,75.75a.75.75,0,0,0,.75.8h2.26a.77.77,0,0,0,.76-.73l.1-2.47A.76.76,0,0,0,43.15,72.56Z"/><path class="cls-8" d="M42.92,78.06H40.65a.77.77,0,0,0-.76.72l-.12,2.54a.76.76,0,0,0,.76.8h2.28a.75.75,0,0,0,.76-.73l.11-2.54A.76.76,0,0,0,42.92,78.06Z"/><polygon class="cls-4" points="97.1 82.12 46.48 82.12 47.92 43.46 95.65 43.46 97.1 82.12"/><polygon class="cls-9" points="47.5 54.68 47.36 58.59 95.95 51.33 95.82 47.85 47.5 54.68"/><polygon class="cls-9" points="47.19 63.04 46.84 72.5 96.46 65.08 96.13 56.12 47.19 63.04"/><polygon class="cls-8" points="39.31 86.83 39.15 90.57 50.99 90.57 51.03 86.83 39.31 86.83"/><rect class="cls-10" x="40.26" y="88.23" width="9.66" height="0.94"/><polygon class="cls-8" points="99.76 91.1 84.97 91.1 84.92 85.98 99.58 85.98 99.76 91.1"/><polygon class="cls-10" points="98.89 90.17 85.8 90.17 85.79 88.81 98.83 88.81 98.89 90.17"/><polygon class="cls-11" points="108.56 94.52 34.99 94.52 30.34 104.34 113.21 104.34 111.25 100.19 108.56 94.52"/><path class="cls-8" d="M62.46,95.59h-3c-.26,0-.48.07-.49.17l-.18,1.08c0,.09.18.17.44.17h3c.26,0,.48-.08.49-.17l.12-1.08C62.91,95.66,62.71,95.59,62.46,95.59Z"/><path class="cls-8" d="M67.51,95.59h-3c-.25,0-.46.07-.47.17l-.11,1.08c0,.09.19.17.45.17h3.05c.26,0,.47-.08.48-.17l0-1.08C68,95.66,67.76,95.59,67.51,95.59Z"/><path class="cls-8" d="M72.55,95.59h-3c-.25,0-.46.07-.46.17l0,1.08c0,.09.2.17.46.17h3c.26,0,.47-.08.47-.17l0-1.08C73,95.66,72.81,95.59,72.55,95.59Z"/><path class="cls-8" d="M83.19,95.59H76.66c-.75,0-1.35.22-1.34.49l0,.43c0,.28.64.5,1.41.5H83.4c.76,0,1.34-.22,1.3-.5l-.07-.43C84.58,95.81,83.94,95.59,83.19,95.59Z"/><path class="cls-8" d="M62.24,97.43H59.18c-.26,0-.49.08-.5.17l-.19,1.14c0,.09.19.17.46.17h3.11c.27,0,.49-.08.51-.17l.12-1.14C62.7,97.51,62.5,97.43,62.24,97.43Z"/><path class="cls-8" d="M67.41,97.43H64.35c-.27,0-.49.08-.49.17l-.12,1.14c0,.09.2.17.47.17h3.12c.26,0,.48-.08.49-.17l.05-1.14C67.88,97.51,67.67,97.43,67.41,97.43Z"/><path class="cls-8" d="M72.57,97.43H69.51c-.26,0-.47.08-.48.17l0,1.14c0,.09.21.17.48.17h3.12c.26,0,.48-.08.48-.17l0-1.14C73.05,97.51,72.83,97.43,72.57,97.43Z"/><path class="cls-8" d="M83.46,97.43H76.77c-.76,0-1.38.23-1.36.51l0,.45c0,.29.65.52,1.43.52h6.81c.79,0,1.38-.23,1.33-.52l-.07-.45C84.88,97.66,84.23,97.43,83.46,97.43Z"/><path class="cls-8" d="M62,99.35H58.88c-.27,0-.5.09-.52.19l-.19,1.19c0,.1.19.18.46.18h3.2c.27,0,.5-.08.51-.18l.14-1.19C62.49,99.44,62.28,99.35,62,99.35Z"/><path class="cls-8" d="M67.3,99.35H64.17c-.27,0-.49.09-.5.19l-.12,1.19c0,.1.2.18.47.18h3.2c.27,0,.49-.08.5-.18l.06-1.19C67.78,99.44,67.57,99.35,67.3,99.35Z"/><path class="cls-8" d="M72.59,99.35H69.46c-.27,0-.49.09-.49.19l0,1.19c0,.1.21.18.48.18h3.2c.27,0,.49-.08.49-.18l0-1.19C73.08,99.44,72.86,99.35,72.59,99.35Z"/><path class="cls-8" d="M83.74,99.35H76.89c-.78,0-1.41.24-1.4.54l0,.48c0,.3.68.54,1.48.54h7c.8,0,1.41-.24,1.36-.54l-.07-.48C85.2,99.59,84.52,99.35,83.74,99.35Z"/><path class="cls-8" d="M61.77,101.37H58.56c-.27,0-.51.09-.52.19l-.21,1.25c0,.11.2.2.48.2h3.27c.28,0,.52-.09.53-.2l.14-1.25C62.26,101.46,62.05,101.37,61.77,101.37Z"/><path class="cls-8" d="M67.19,101.37H64c-.27,0-.5.09-.51.19l-.13,1.25c0,.11.21.2.49.2H67.1c.28,0,.51-.09.52-.2l.06-1.25C67.68,101.46,67.47,101.37,67.19,101.37Z"/><path class="cls-8" d="M72.61,101.37H69.4c-.27,0-.5.09-.5.19l0,1.25c0,.11.22.2.49.2h3.28c.28,0,.5-.09.5-.2l0-1.25C73.11,101.46,72.89,101.37,72.61,101.37Z"/><path class="cls-8" d="M84,101.37H77c-.81,0-1.45.25-1.43.56l0,.51c0,.31.69.57,1.51.57h7.15c.82,0,1.44-.26,1.39-.57l-.08-.51C85.53,101.62,84.84,101.37,84,101.37Z"/><rect class="cls-10" x="30.34" y="104.34" width="82.87" height="3.14"/><rect class="cls-7" x="30.34" y="107.47" width="82.87" height="20.96"/><rect class="cls-10" x="56.58" y="113.29" width="30.39" height="9.33"/><rect class="cls-12" x="58.02" y="117.79" width="27.51" height="3.4" transform="translate(143.55 238.97) rotate(180)"/><rect class="cls-6" x="30.34" y="128.43" width="1.61" height="93.4"/><rect class="cls-6" x="111.6" y="128.43" width="1.61" height="93.4"/><rect class="cls-13" x="44.43" y="147.33" width="54.7" height="74.5"/><path class="cls-6" d="M75,152.73a3.2,3.2,0,1,1-3.19-3.19A3.19,3.19,0,0,1,75,152.73Z"/></g></g></svg>