<?xml version="1.0" encoding="utf-8"?>
<!-- Generator: Adobe Illustrator 24.3.0, SVG Export Plug-In . SVG Version: 6.00 Build 0)  -->
<svg version="1.1" id="Capa_1" xmlns="http://www.w3.org/2000/svg" xmlns:xlink="http://www.w3.org/1999/xlink" x="0px" y="0px"
	 viewBox="0 0 1920 1080" style="enable-background:new 0 0 1920 1080;" xml:space="preserve">
<style type="text/css">
	.st0{clip-path:url(#SVGID_2_);}
	.st1{display:none;clip-path:url(#SVGID_4_);fill:none;stroke:#FF5000;stroke-width:20;stroke-miterlimit:10;}
	.st2{clip-path:url(#SVGID_6_);}
	.st3{clip-path:url(#SVGID_12_);fill:#FF5000;}
	.st4{opacity:0.1;clip-path:url(#SVGID_12_);}
	.st5{clip-path:url(#SVGID_14_);fill:none;stroke:#FFFFFF;stroke-width:22;stroke-miterlimit:10;}
	.st6{clip-path:url(#SVGID_16_);fill:none;stroke:#FFFFFF;stroke-width:54.074;stroke-miterlimit:10;}
	.st7{opacity:0.4;clip-path:url(#SVGID_32_);}
	.st8{clip-path:url(#SVGID_34_);fill:#782B78;}
	.st9{fill:none;stroke:#268441;stroke-width:60;stroke-miterlimit:10;}
	.st10{fill:none;stroke:#FF5000;stroke-width:60;stroke-miterlimit:10;}
</style>
<g>
	<defs>
		<polyline id="SVGID_1_" points="1920.1,1081.9 1920.1,1.9 0.1,1.9 0.1,1081.9 		"/>
	</defs>
	<clipPath id="SVGID_2_">
		<use xlink:href="#SVGID_1_"  style="overflow:visible;"/>
	</clipPath>
	<g class="st0">
		<defs>
			<polyline id="SVGID_3_" points="1920.1,1081.9 1920.1,3.4 3.5,3.4 3.5,1081.9 			"/>
		</defs>
		<clipPath id="SVGID_4_">
			<use xlink:href="#SVGID_3_"  style="overflow:visible;"/>
		</clipPath>
		<path class="st1" d="M-86,1244.9c88.7-8.3,158.1-82.9,158.1-173.7c0-64.1-34.6-120.2-86.2-150.5"/>
	</g>
	<g class="st0">
		<defs>
			<rect id="SVGID_5_" x="61.3" y="1.9" width="272.7" height="147"/>
		</defs>
		<clipPath id="SVGID_6_">
			<use xlink:href="#SVGID_5_"  style="overflow:visible;"/>
		</clipPath>
		<g class="st2">
			<defs>
				<rect id="SVGID_7_" x="61.3" y="-4.5" width="272.7" height="153.4"/>
			</defs>
			<clipPath id="SVGID_8_">
				<use xlink:href="#SVGID_7_"  style="overflow:visible;"/>
			</clipPath>
		</g>
	</g>
	<g class="st0">
		<defs>
			<polyline id="SVGID_9_" points="0.1,1081.9 0.1,1.9 1920.1,1.9 1920.1,1081.9 			"/>
		</defs>
		<clipPath id="SVGID_10_">
			<use xlink:href="#SVGID_9_"  style="overflow:visible;"/>
		</clipPath>
	</g>
	<g class="st0">
		<defs>
			<polyline id="SVGID_11_" points="-15,1081.9 -15,-19 1932,-19 1932,1081.9 			"/>
		</defs>
		<clipPath id="SVGID_12_">
			<use xlink:href="#SVGID_11_"  style="overflow:visible;"/>
		</clipPath>
		<polygon class="st3" points="1930.8,399 -13.8,574 -13.8,-18.1 1930.8,-18.1 		"/>
		<g class="st4">
			<g>
				<defs>
					<rect id="SVGID_13_" x="1218" y="-91.3" width="747" height="402.9"/>
				</defs>
				<clipPath id="SVGID_14_">
					<use xlink:href="#SVGID_13_"  style="overflow:visible;"/>
				</clipPath>
				<path class="st5" d="M1285-36c17.5,188.7,175.5,336.4,367.8,336.4c135.8,0,254.5-73.6,318.6-183.4"/>
			</g>
		</g>
		<g class="st4">
			<g>
				<defs>
					<rect id="SVGID_15_" x="-333.5" y="-162.6" width="800.1" height="822.3"/>
				</defs>
				<clipPath id="SVGID_16_">
					<use xlink:href="#SVGID_15_"  style="overflow:visible;"/>
				</clipPath>
				<path class="st6" d="M-35.9,498.9c232.2-92,392-284.8,392-507.8c0-28-2.5-55.5-7.4-82.4"/>
			</g>
		</g>
	</g>
	<g class="st0">
		<defs>
			<polyline id="SVGID_17_" points="0.1,1081.9 0.1,1.9 1920.1,1.9 1920.1,1081.9 			"/>
		</defs>
		<clipPath id="SVGID_18_">
			<use xlink:href="#SVGID_17_"  style="overflow:visible;"/>
		</clipPath>
	</g>
	<g class="st0">
		<defs>
			<polyline id="SVGID_19_" points="0.1,1081.9 0.1,1.9 1920.1,1.9 1920.1,1081.9 			"/>
		</defs>
		<clipPath id="SVGID_20_">
			<use xlink:href="#SVGID_19_"  style="overflow:visible;"/>
		</clipPath>
	</g>
	<g class="st0">
		<defs>
			<polyline id="SVGID_21_" points="0.1,1081.9 0.1,1.9 1920.1,1.9 1920.1,1081.9 			"/>
		</defs>
		<clipPath id="SVGID_22_">
			<use xlink:href="#SVGID_21_"  style="overflow:visible;"/>
		</clipPath>
	</g>
	<g class="st0">
		<defs>
			<polyline id="SVGID_23_" points="0.1,1081.9 0.1,1.9 1920.1,1.9 1920.1,1081.9 			"/>
		</defs>
		<clipPath id="SVGID_24_">
			<use xlink:href="#SVGID_23_"  style="overflow:visible;"/>
		</clipPath>
	</g>
	<g class="st0">
		<defs>
			<polyline id="SVGID_25_" points="0.1,1081.9 0.1,1.9 1920.1,1.9 1920.1,1081.9 			"/>
		</defs>
		<clipPath id="SVGID_26_">
			<use xlink:href="#SVGID_25_"  style="overflow:visible;"/>
		</clipPath>
	</g>
	<g class="st0">
		<defs>
			<polyline id="SVGID_27_" points="0.1,1081.9 0.1,1.9 1920.1,1.9 1920.1,1081.9 			"/>
		</defs>
		<clipPath id="SVGID_28_">
			<use xlink:href="#SVGID_27_"  style="overflow:visible;"/>
		</clipPath>
	</g>
	<g class="st0">
		<defs>
			<polyline id="SVGID_29_" points="0.1,1081.9 0.1,1.9 1920.1,1.9 1920.1,1081.9 			"/>
		</defs>
		<clipPath id="SVGID_30_">
			<use xlink:href="#SVGID_29_"  style="overflow:visible;"/>
		</clipPath>
	</g>
	<g class="st0">
		<defs>
			<polyline id="SVGID_31_" points="0.1,1081.9 0.1,1.9 1920.1,1.9 1920.1,1081.9 			"/>
		</defs>
		<clipPath id="SVGID_32_">
			<use xlink:href="#SVGID_31_"  style="overflow:visible;"/>
		</clipPath>
		<g class="st7">
			<g>
				<defs>
					<line id="SVGID_33_" x1="515" y1="1154.1" x2="517" y2="1154.1"/>
				</defs>
				<clipPath id="SVGID_34_">
					<use xlink:href="#SVGID_33_"  style="overflow:visible;"/>
				</clipPath>
				<path class="st8" d="M515,1154.1"/>
				<path class="st8" d="M517,1154.1"/>
			</g>
		</g>
	</g>
</g>
<path class="st9" d="M2088.2,753.5c-186,0-336.9,150.8-336.9,336.9"/>
<path class="st10" d="M322.2,1258.4c0-186-150.8-336.9-336.9-336.9"/>
</svg>
