<?xml version="1.0" encoding="utf-8"?>
<!-- Generator: Adobe Illustrator 16.0.0, SVG Export Plug-In . SVG Version: 6.00 Build 0)  -->
<!DOCTYPE svg PUBLIC "-//W3C//DTD SVG 1.1//EN" "http://www.w3.org/Graphics/SVG/1.1/DTD/svg11.dtd">
<svg version="1.1" id="Capa_1" xmlns="http://www.w3.org/2000/svg" xmlns:xlink="http://www.w3.org/1999/xlink" x="0px" y="0px"
	 width="150px" height="150px" viewBox="0 0 150 150" enable-background="new 0 0 150 150" xml:space="preserve">
<path fill="#FF5000" d="M90.374,52.547H50.516c-1.641,0-2.969,1.33-2.969,2.969c0,1.64,1.328,2.969,2.969,2.969h39.858
	c1.64,0,2.968-1.329,2.968-2.969C93.342,53.876,92.014,52.547,90.374,52.547"/>
<path fill="#FF5000" d="M50.516,44.962h14.431c1.641,0,2.969-1.331,2.969-2.97c0-1.638-1.328-2.969-2.969-2.969H50.516
	c-1.641,0-2.97,1.331-2.97,2.969C47.546,43.631,48.875,44.962,50.516,44.962"/>
<path fill="#FF5000" d="M64.947,104.332H50.515c-1.64,0-2.969,1.331-2.969,2.97c0,1.637,1.329,2.968,2.969,2.968h14.432
	c1.64,0,2.969-1.331,2.969-2.968C67.916,105.663,66.587,104.332,64.947,104.332"/>
<path fill="#FF5000" d="M50.516,71.527h34.099c1.639,0,2.968-1.331,2.968-2.971c0-1.638-1.329-2.968-2.968-2.968H50.516
	c-1.641,0-2.97,1.331-2.97,2.968C47.546,70.196,48.875,71.527,50.516,71.527"/>
<path fill="#FF5000" d="M90.374,78.453H50.516c-1.641,0-2.969,1.327-2.969,2.969c0,1.638,1.328,2.969,2.969,2.969h39.858
	c1.64,0,2.968-1.331,2.968-2.969C93.342,79.78,92.014,78.453,90.374,78.453"/>
<path fill="#FF5000" d="M130.113,42.646c0-0.964-0.462-1.825-1.177-2.365L94.037,5.378c-0.188-0.187-0.402-0.333-0.627-0.462
	c-0.057-0.035-0.115-0.066-0.177-0.096c-0.224-0.109-0.457-0.2-0.703-0.251c-0.011-0.002-0.023-0.003-0.034-0.005
	c-0.184-0.037-0.372-0.056-0.558-0.056H23.6c-1.641,0-2.969,1.331-2.969,2.969v135.012c0,1.639,1.328,2.969,2.969,2.969h103.504
	c1.639,0,2.969-1.33,2.969-2.969V43.039C130.09,42.908,130.113,42.779,130.113,42.646 M119.938,39.677H94.905V14.645l12.517,12.517
	L119.938,39.677z M26.569,139.521V10.446h62.4v32.2c0,1.639,1.329,2.967,2.97,2.967h32.197v93.908H26.569z"/>
</svg>
