<svg xmlns="http://www.w3.org/2000/svg" viewBox="0 0 169.19 169.19"><defs><style>.cls-1{fill:#ff5000;}.cls-2{fill:#fff;}</style></defs><g id="Capa_2" data-name="Capa 2"><g id="Layer_5" data-name="Layer 5"><path class="cls-1" d="M109.76,160.36a7.78,7.78,0,0,1-.06-3.42A76.54,76.54,0,0,1,8.12,80.59,5.92,5.92,0,0,0,4.54,78.9,6,6,0,0,0,.1,80.35a84.61,84.61,0,0,0,97.54,87.81,85.72,85.72,0,0,0,14.59-3.61A8.2,8.2,0,0,1,109.76,160.36Z"/><path class="cls-1" d="M134.91,22.22a7,7,0,0,1-3.06,2.09,76.56,76.56,0,0,1-19.77,131.76,6.13,6.13,0,0,0-.36,3.83,6.35,6.35,0,0,0,2.76,3.84A84.6,84.6,0,0,0,136.61,17.91,7.32,7.32,0,0,1,134.91,22.22Z"/><path class="cls-1" d="M4.72,76.88a7.65,7.65,0,0,1,3.56,1.25A76.57,76.57,0,0,1,129.74,22.71a5.19,5.19,0,0,0,4.73-6.42h0A84.61,84.61,0,0,0,.26,77.8,8,8,0,0,1,4.72,76.88Z"/><circle class="cls-1" cx="84.59" cy="84.6" r="74.01"/><path class="cls-2" d="M122,52.09a1.63,1.63,0,0,0-.75-.22v-5.2a1.75,1.75,0,0,0-1.76-1.75h-8a1.75,1.75,0,0,0-1.75,1.75v5.2a1.75,1.75,0,0,0-1.66,1.74v61.45a1.75,1.75,0,0,0,1.53,1.74c1.53,2.87,3.54,6.67,4.13,7.8v2.28a1.76,1.76,0,1,0,3.51,0v-2.29c.57-1.11,2.6-4.92,4.14-7.79a1.75,1.75,0,0,0,1.51-1.74V56a5,5,0,0,1,3.32,4.88v19a1.76,1.76,0,0,0,3.51,0v-19C129.77,56.31,126.69,53,122,52.09Zm-10.41,3.28h7.8V90.49h-7.8Zm6.15-6.94v3.43h-4.49V48.43Zm1,65.8c-1.5,2.8-2.55,4.76-3.29,6.16l-3.27-6.15a1.77,1.77,0,0,0-.63-.67V94h7.8v19.57A1.73,1.73,0,0,0,118.82,114.23Z"/><path class="cls-2" d="M80,73.5H56.44a1.76,1.76,0,0,0,0,3.51H80a1.76,1.76,0,0,0,0-3.51Z"/><path class="cls-2" d="M56.44,69H65a1.76,1.76,0,0,0,0-3.52H56.44a1.76,1.76,0,0,0,0,3.52Z"/><path class="cls-2" d="M65,104.13H56.44a1.76,1.76,0,0,0,0,3.51H65a1.76,1.76,0,1,0,0-3.51Z"/><path class="cls-2" d="M56.44,84.73H76.61a1.76,1.76,0,1,0,0-3.51H56.44a1.76,1.76,0,0,0,0,3.51Z"/><path class="cls-2" d="M80,88.82H56.44a1.76,1.76,0,0,0,0,3.52H80a1.76,1.76,0,0,0,0-3.52Z"/><path class="cls-2" d="M103.52,67.65a1.76,1.76,0,0,0-.69-1.4L82.18,45.6a1.68,1.68,0,0,0-.37-.27.31.31,0,0,0-.1,0,1.5,1.5,0,0,0-.42-.15h0l-.33,0H40.52a1.75,1.75,0,0,0-1.75,1.76V126.7a1.75,1.75,0,0,0,1.75,1.76h61.22a1.76,1.76,0,0,0,1.76-1.76V67.88A1.79,1.79,0,0,0,103.52,67.65Zm-6-1.76H82.7V51.08l7.4,7.41ZM42.28,124.94V48.6H79.19V67.65a1.75,1.75,0,0,0,1.75,1.75h19v55.54Z"/></g></g></svg>