<?xml version="1.0" encoding="utf-8"?>
<!-- Generator: Adobe Illustrator 16.0.0, SVG Export Plug-In . SVG Version: 6.00 Build 0)  -->
<!DOCTYPE svg PUBLIC "-//W3C//DTD SVG 1.1//EN" "http://www.w3.org/Graphics/SVG/1.1/DTD/svg11.dtd">
<svg version="1.1" xmlns="http://www.w3.org/2000/svg" xmlns:xlink="http://www.w3.org/1999/xlink" x="0px" y="0px" width="150px"
	 height="150px" viewBox="0 0 150 150" enable-background="new 0 0 150 150" xml:space="preserve">
<g id="Capa_1" display="none">
	<path display="inline" fill="#FF5000" d="M90.374,52.547H50.516c-1.641,0-2.969,1.33-2.969,2.969c0,1.64,1.328,2.969,2.969,2.969
		h39.858c1.64,0,2.968-1.329,2.968-2.969C93.342,53.876,92.014,52.547,90.374,52.547"/>
	<path display="inline" fill="#FF5000" d="M50.516,44.962h14.431c1.641,0,2.969-1.331,2.969-2.97c0-1.638-1.328-2.969-2.969-2.969
		H50.516c-1.641,0-2.97,1.331-2.97,2.969C47.546,43.631,48.875,44.962,50.516,44.962"/>
	<path display="inline" fill="#FF5000" d="M64.947,104.332H50.515c-1.64,0-2.969,1.331-2.969,2.97c0,1.637,1.329,2.968,2.969,2.968
		h14.432c1.64,0,2.969-1.331,2.969-2.968C67.916,105.663,66.587,104.332,64.947,104.332"/>
	<path display="inline" fill="#FF5000" d="M50.516,71.527h34.099c1.639,0,2.968-1.331,2.968-2.971c0-1.638-1.329-2.968-2.968-2.968
		H50.516c-1.641,0-2.97,1.331-2.97,2.968C47.546,70.196,48.875,71.527,50.516,71.527"/>
	<path display="inline" fill="#FF5000" d="M90.374,78.453H50.516c-1.641,0-2.969,1.327-2.969,2.969c0,1.638,1.328,2.969,2.969,2.969
		h39.858c1.64,0,2.968-1.331,2.968-2.969C93.342,79.78,92.014,78.453,90.374,78.453"/>
	<path display="inline" fill="#FF5000" d="M130.113,42.646c0-0.964-0.462-1.825-1.177-2.365L94.037,5.378
		c-0.188-0.187-0.402-0.333-0.627-0.462c-0.057-0.035-0.115-0.066-0.177-0.096c-0.224-0.109-0.457-0.2-0.703-0.251
		c-0.011-0.002-0.023-0.003-0.034-0.005c-0.184-0.037-0.372-0.056-0.558-0.056H23.6c-1.641,0-2.969,1.331-2.969,2.969v135.012
		c0,1.639,1.328,2.969,2.969,2.969h103.504c1.639,0,2.969-1.33,2.969-2.969V43.039C130.09,42.908,130.113,42.779,130.113,42.646
		 M119.938,39.677H94.905V14.645l12.517,12.517L119.938,39.677z M26.569,139.521V10.446h62.4v32.2c0,1.639,1.329,2.967,2.97,2.967
		h32.197v93.908H26.569z"/>
</g>
<g id="Capa_2">
	<path fill="#FF5000" d="M63.154,15.087c-0.463-0.042-0.936,0.018-1.393,0.19l-3.819-8.501c-0.713-1.587-2.578-2.296-4.167-1.585
		l-13.097,5.884c-1.589,0.713-2.299,2.58-1.585,4.167l3.818,8.5c-1.471,0.766-2.114,2.545-1.425,4.077L86.679,128.45
		c0.653,1.46,2.283,2.175,3.777,1.729c4.614,3.575,10.711,8.314,12.492,9.726l1.678,3.737c0.714,1.588,2.578,2.296,4.167,1.584
		c1.587-0.713,2.296-2.579,1.583-4.167l-1.682-3.746c0.121-2.251,0.645-9.979,1.048-15.798c1.315-0.821,1.855-2.508,1.203-3.962
		L67.496,20.8c4.047-0.149,7.313,1.73,9.024,5.543l13.987,31.149c0.714,1.586,2.579,2.296,4.168,1.584
		c1.587-0.715,2.296-2.58,1.582-4.168L82.27,23.763C78.928,16.32,71.412,13.083,63.154,15.087 M48.531,28.117l12.765-5.734
		l25.832,57.517l-12.766,5.734L48.531,28.117z M53.483,12.235l2.521,5.61l-7.349,3.299l-2.519-5.61L53.483,12.235z M103.584,119.228
		c-0.398,5.673-0.674,9.663-0.86,12.494c-2.237-1.745-5.396-4.192-9.881-7.665c-0.444-0.347-0.971-0.563-1.514-0.635L76.941,91.384
		l12.768-5.734l14.393,32.055C103.806,118.148,103.622,118.672,103.584,119.228"/>
</g>
</svg>
