<?xml version="1.0" encoding="utf-8"?>
<!-- Generator: Adobe Illustrator 25.0.0, SVG Export Plug-In . SVG Version: 6.00 Build 0)  -->
<svg version="1.1" id="Capa_1" xmlns="http://www.w3.org/2000/svg" xmlns:xlink="http://www.w3.org/1999/xlink" x="0px" y="0px"
	 viewBox="0 0 256 110" style="enable-background:new 0 0 256 110;" xml:space="preserve">
<style type="text/css">
	.st0{fill:#FF5000;}
	.st1{opacity:0.1;clip-path:url(#XMLID_2_);fill:none;stroke:#FFFFFF;stroke-width:22.3111;stroke-miterlimit:10;}
	.st2{opacity:0.1;clip-path:url(#XMLID_2_);fill:none;stroke:#FFFFFF;stroke-width:6.5821;stroke-miterlimit:10;}
	.st3{fill:none;stroke:#FFFFFF;stroke-width:1.1156;stroke-linecap:round;stroke-miterlimit:10;stroke-dasharray:3.3467;}
	.st4{fill:none;stroke:#FFFFFF;stroke-width:1.1156;stroke-linecap:round;stroke-miterlimit:10;}
	.st5{fill:#FFFFFF;}
</style>
<g>
	<path class="st0" d="M227.5,109.9H2.3V27.5C2.3,13.1,14,1.4,28.4,1.4h225.2v82.3C253.6,98.2,241.9,109.9,227.5,109.9z"/>
	<g>
		<defs>
			<path id="XMLID_11_" d="M227.5,110.3H2.3V28C2.3,13.6,14,1.9,28.4,1.9h225.2v82.3C253.6,98.7,241.9,110.3,227.5,110.3z"/>
		</defs>
		<clipPath id="XMLID_2_">
			<use xlink:href="#XMLID_11_"  style="overflow:visible;"/>
		</clipPath>
		<circle class="st1" cx="239.3" cy="122.5" r="68.5"/>
		<circle class="st1" cx="16.7" cy="-10.3" r="68.5"/>
		<circle class="st2" cx="104.6" cy="129.8" r="40.4"/>
		<circle class="st2" cx="192.6" cy="-17.6" r="40.4"/>
	</g>
	<line class="st3" x1="23.6" y1="100.3" x2="23.6" y2="13.1"/>
	<line class="st3" x1="234.9" y1="13.1" x2="234.9" y2="100.3"/>
	<line class="st4" x1="48.3" y1="17.6" x2="209.3" y2="17.6"/>
	<line class="st4" x1="48.3" y1="96.9" x2="209.3" y2="96.9"/>
</g>
<g>
	<g>
		<path class="st5" d="M137.7,85.2c-0.1-0.5-0.1-0.9,0-1.3c-8.9,3.1-19,1.9-27.2-4c-8.4-6.1-12.6-15.8-12.1-25.5
			c-0.3-0.3-0.8-0.6-1.4-0.7c-0.6-0.1-1.2,0.2-1.7,0.6c-0.1,2.2,0,4.4,0.4,6.7c1.3,8.6,6,16.2,13,21.4c7.1,5.1,15.7,7.2,24.3,5.9
			c1.9-0.3,3.8-0.8,5.6-1.4C138.2,86.4,137.8,85.8,137.7,85.2z"/>
		<path class="st5" d="M147.4,31.8c-0.4,0.4-0.8,0.7-1.2,0.8c12.5,9.8,15.1,27.8,5.7,40.8c-3.5,4.8-8.1,8.2-13.3,10.2
			c-0.2,0.4-0.3,0.9-0.1,1.5c0.1,0.6,0.5,1.1,1.1,1.5c5.9-2.2,11-6.1,14.9-11.3c5.1-7.1,7.2-15.7,5.9-24.3
			c-1.3-8.3-5.6-15.6-12.2-20.7C148,30.7,147.8,31.3,147.4,31.8z"/>
		<path class="st5" d="M97.1,52.9c0.6,0,1,0.2,1.4,0.5c0.4-5.2,2.3-10.4,5.6-15c9.6-13.2,28.2-16.1,41.4-6.5c0.4,0,1-0.2,1.4-0.7
			c0.4-0.5,0.6-1.2,0.4-1.8c0,0,0,0,0,0c-7.1-5.1-15.7-7.2-24.3-5.9c-8.6,1.3-16.2,6-21.4,13c-3.6,5-5.7,10.7-6.2,16.6
			C95.9,53,96.5,52.8,97.1,52.9z"/>
	</g>
	<g>
		<path class="st5" d="M144.9,41.2c-0.1-0.1-0.2-0.1-0.3-0.1v-2.2c0-0.4-0.3-0.8-0.8-0.8h-3.5c-0.4,0-0.8,0.3-0.8,0.8v2.2
			c-0.4,0-0.7,0.3-0.7,0.8v26.5c0,0.4,0.3,0.7,0.7,0.8c0.7,1.2,1.5,2.9,1.8,3.4v1c0,0.4,0.3,0.8,0.8,0.8c0.4,0,0.8-0.3,0.8-0.8v-1
			c0.2-0.5,1.1-2.1,1.8-3.4c0.4-0.1,0.7-0.4,0.7-0.8V42.8c0.9,0.4,1.4,1.1,1.4,2.1v8.2c0,0.4,0.3,0.8,0.8,0.8s0.8-0.3,0.8-0.8V45
			C148.3,43,146.9,41.5,144.9,41.2z M140.4,42.6h3.4v15.2h-3.4V42.6z M143.1,39.6v1.5h-1.9v-1.5H143.1z M143.5,68
			c-0.6,1.2-1.1,2.1-1.4,2.7c-0.3-0.6-0.8-1.5-1.4-2.7c-0.1-0.1-0.2-0.2-0.3-0.3v-8.4h3.4v8.4C143.7,67.8,143.6,67.9,143.5,68z"/>
		<g>
			<path class="st5" d="M126.8,50.4h-10.2c-0.4,0-0.8,0.3-0.8,0.8c0,0.4,0.3,0.8,0.8,0.8h10.2c0.4,0,0.8-0.3,0.8-0.8
				C127.6,50.7,127.2,50.4,126.8,50.4z"/>
			<path class="st5" d="M116.6,48.5h3.7c0.4,0,0.8-0.3,0.8-0.8s-0.3-0.8-0.8-0.8h-3.7c-0.4,0-0.8,0.3-0.8,0.8S116.2,48.5,116.6,48.5
				z"/>
			<path class="st5" d="M120.3,63.6h-3.7c-0.4,0-0.8,0.3-0.8,0.8c0,0.4,0.3,0.8,0.8,0.8h3.7c0.4,0,0.8-0.3,0.8-0.8
				C121.1,64,120.7,63.6,120.3,63.6z"/>
			<path class="st5" d="M116.6,55.3h8.7c0.4,0,0.8-0.3,0.8-0.8c0-0.4-0.3-0.8-0.8-0.8h-8.7c-0.4,0-0.8,0.3-0.8,0.8
				C115.9,54.9,116.2,55.3,116.6,55.3z"/>
			<path class="st5" d="M126.8,57h-10.2c-0.4,0-0.8,0.3-0.8,0.8c0,0.4,0.3,0.8,0.8,0.8h10.2c0.4,0,0.8-0.3,0.8-0.8
				C127.6,57.4,127.2,57,126.8,57z"/>
			<path class="st5" d="M136.9,47.9c0-0.2-0.1-0.5-0.3-0.6l-8.9-8.9c0,0-0.1-0.1-0.2-0.1c0,0,0,0,0,0c-0.1,0-0.1-0.1-0.2-0.1
				c0,0,0,0,0,0c0,0-0.1,0-0.1,0h-17.4c-0.4,0-0.8,0.3-0.8,0.8v34.5c0,0.4,0.3,0.8,0.8,0.8h26.4c0.4,0,0.8-0.3,0.8-0.8L136.9,47.9
				C136.9,47.9,136.9,47.9,136.9,47.9z M134.3,47.1H128v-6.4l3.2,3.2L134.3,47.1z M110.5,72.6V39.7h15.9v8.2c0,0.4,0.3,0.8,0.8,0.8
				h8.2v24H110.5z"/>
		</g>
	</g>
</g>
</svg>
