<?xml version="1.0" encoding="utf-8"?>
<!-- Generator: Adobe Illustrator 16.0.0, SVG Export Plug-In . SVG Version: 6.00 Build 0)  -->
<!DOCTYPE svg PUBLIC "-//W3C//DTD SVG 1.1//EN" "http://www.w3.org/Graphics/SVG/1.1/DTD/svg11.dtd">
<svg version="1.1" id="Capa_1" xmlns="http://www.w3.org/2000/svg" xmlns:xlink="http://www.w3.org/1999/xlink" x="0px" y="0px"
	 width="695.516px" height="286.648px" viewBox="0 0 695.516 286.648" enable-background="new 0 0 695.516 286.648"
	 xml:space="preserve">
<g opacity="0.2">
	<g>
		<defs>
			<rect id="SVGID_1_" y="10.724" width="176.54" height="234.267"/>
		</defs>
		<clipPath id="SVGID_2_">
			<use xlink:href="#SVGID_1_"  overflow="visible"/>
		</clipPath>
		<path clip-path="url(#SVGID_2_)" fill="#7F7F7E" d="M81.598,92.505c-12.685,4.184-17.219,17.609-15.123,30.816
			c2.098,13.208,6.859,31.29,7.709,33.217c0.85,1.928,7.513-22.219,7.413-22.389C81.498,133.979,81.598,92.505,81.598,92.505"/>
		<path clip-path="url(#SVGID_2_)" fill="#7F7F7E" d="M101.631,92.505c12.684,4.184,17.219,17.609,15.122,30.816
			c-2.098,13.208-6.859,31.29-7.709,33.217c-0.85,1.928-7.513-22.219-7.413-22.389C101.731,133.979,101.631,92.505,101.631,92.505"
			/>
		<path clip-path="url(#SVGID_2_)" fill="#7F7F7E" d="M83.104,92.068c-13.44,3.07-13.517,23.517-7.671,33.705
			c5.627,9.807-1.412,23.147-2.274,30.614c-0.864,7.464,39.803,6.068,39.004,0.237c-0.8-5.831-9.415-17.099-3.625-31.772
			C119.254,97.685,103.993,87.294,83.104,92.068"/>
		<path clip-path="url(#SVGID_2_)" fill="#F7F7F7" d="M97.838,91.463c-3.818-0.735-8.214-0.623-12.938,0.271
			c-1.989,8.772,6.573,20.932,6.573,20.932S100.492,100.956,97.838,91.463"/>
		<path clip-path="url(#SVGID_2_)" fill="#D1D1D2" d="M95.287,90.878c-0.718-1.746-0.446-5.453-0.291-7.535L86.6,83.555
			c0.979,2.851,1.577,5.994,1.123,7.513c-0.454,1.521,1.443,2.176,3.599,2.141C93.906,93.169,96.005,92.625,95.287,90.878"/>
		<path clip-path="url(#SVGID_2_)" fill="#999999" d="M86.879,63.337c-4.934-0.819-7.629-11.182,3.833-12.318
			c11.463-1.137,9.147,11.123,5.275,12.199c-3.871,1.077-8.881,0.119-8.881,0.119S91.813,64.157,86.879,63.337"/>
		<path clip-path="url(#SVGID_2_)" fill="#D1D1D2" d="M80.204,74.599c-2.134-2.511-2.905,0.207-1.821,2.591
			c1.083,2.384,0.701,3.043,1.028,4.158c0.329,1.116,3.386,3.17,3.568-0.281c0.182-3.452-2.639-6.359-2.639-6.359
			S82.339,77.11,80.204,74.599"/>
		<path clip-path="url(#SVGID_2_)" fill="#D1D1D2" d="M102.532,74.332c2.229-2.418,2.895,0.332,1.72,2.667
			c-1.174,2.336-0.817,3.011-1.188,4.111c-0.371,1.101-3.503,3.021-3.553-0.436c-0.05-3.456,2.88-6.239,2.88-6.239
			S100.302,76.75,102.532,74.332"/>
		<g opacity="0.3" clip-path="url(#SVGID_2_)">
			<g>
				<defs>
					<rect id="SVGID_3_" x="86.6" y="83.343" width="8.604" height="8.601"/>
				</defs>
				<clipPath id="SVGID_4_">
					<use xlink:href="#SVGID_3_"  overflow="visible"/>
				</clipPath>
				<path clip-path="url(#SVGID_4_)" fill="#3B3B3B" d="M86.6,83.555c0.907,2.644,1.45,5.485,1.167,7.104
					c1.068,0.724,2.134,1.192,3.142,1.272c1.364,0.107,2.841-0.449,4.292-1.424c-0.573-1.846-0.352-5.201-0.206-7.163L86.6,83.555z"
					/>
			</g>
		</g>
		<path clip-path="url(#SVGID_2_)" fill="#D1D1D2" d="M89.779,55.705C78.081,56.022,78.185,69.65,78.766,75.261
			c0.58,5.613,7.108,15.418,12.144,15.816c5.035,0.396,11.623-8.049,12.782-14.455C104.85,70.217,104.429,55.309,89.779,55.705"/>
		<g opacity="0.2" clip-path="url(#SVGID_2_)">
			<g>
				<defs>
					<rect id="SVGID_5_" x="78.569" y="56.556" width="25.518" height="18.326"/>
				</defs>
				<clipPath id="SVGID_6_">
					<use xlink:href="#SVGID_5_"  overflow="visible"/>
				</clipPath>
				<path clip-path="url(#SVGID_6_)" fill="#212121" d="M78.732,74.881c0.175-1.456,0.821-4.672,3.199-7.708
					c2.534,1.539,6.725,2.133,11.32,1.391c3.127-0.503,5.164-1.444,6.513-2.465c3.158,3.326,3.959,7.159,4.165,8.781
					c0.506-4.733-0.007-11.955-4.522-16.057c-1.373-0.772-3.359-1.523-6.286-2.007c-4.999-0.829-8.446,0.473-10.45,1.667
					C78.322,62.706,78.339,70.675,78.732,74.881"/>
			</g>
		</g>
		<path clip-path="url(#SVGID_2_)" fill="#999999" d="M78.665,74.467c-1.214-9.261-0.861-12.029,1.969-14.188
			c2.829-2.159,7.469-0.409,2.789,4.03C78.742,68.749,78.665,74.467,78.665,74.467"/>
		<path clip-path="url(#SVGID_2_)" fill="#999999" d="M104.003,74.467c1.213-9.261,0.861-12.029-1.969-14.188
			c-2.829-2.159-7.468-0.409-2.789,4.03C103.926,68.749,104.003,74.467,104.003,74.467"/>
		<path clip-path="url(#SVGID_2_)" fill="#999999" d="M80.59,58.846c-4.142,6.118,3.454,9.988,12.661,8.502
			c9.208-1.485,9.114-6.736,9.114-6.736s-0.833-3.619-9.243-5.012C84.709,54.207,80.59,58.846,80.59,58.846"/>
		<g opacity="0.2" clip-path="url(#SVGID_2_)">
			<g>
				<defs>
					<rect id="SVGID_7_" x="79.461" y="59.864" width="22.904" height="7.801"/>
				</defs>
				<clipPath id="SVGID_8_">
					<use xlink:href="#SVGID_7_"  overflow="visible"/>
				</clipPath>
				<path clip-path="url(#SVGID_8_)" fill="#6B6B6A" d="M93.386,64.759c-6.774,1.093-12.658-0.72-13.654-4.188
					c-1.747,5.092,5.215,8.117,13.52,6.777c9.208-1.486,9.113-6.736,9.113-6.736s-0.091-0.303-0.375-0.748
					C101.171,61.527,99.029,63.848,93.386,64.759"/>
			</g>
		</g>
		<g opacity="0.2" clip-path="url(#SVGID_2_)">
			<g>
				<defs>
					<rect id="SVGID_9_" x="79.453" y="60.484" width="22.913" height="7.181"/>
				</defs>
				<clipPath id="SVGID_10_">
					<use xlink:href="#SVGID_9_"  overflow="visible"/>
				</clipPath>
				<path clip-path="url(#SVGID_10_)" fill="#FEFEFE" d="M93.252,66.793c-7.286,1.176-13.537-1.01-13.788-5
					c-0.322,4.341,6.169,6.785,13.788,5.556c9.208-1.486,9.113-6.736,9.113-6.736s-0.018-0.06-0.042-0.128
					C102.121,61.757,100.879,65.563,93.252,66.793"/>
			</g>
		</g>
		<path clip-path="url(#SVGID_2_)" fill="#919191" d="M93.279,94.757c0,0.773-0.793,1.397-1.772,1.397
			c-0.978,0-1.771-0.625-1.771-1.397c0-0.772,0.793-1.398,1.771-1.398C92.485,93.359,93.279,93.985,93.279,94.757"/>
		<g opacity="0.2" clip-path="url(#SVGID_2_)">
			<g>
				<defs>
					<rect id="SVGID_11_" x="89.317" y="93.893" width="3.543" height="2.796"/>
				</defs>
				<clipPath id="SVGID_12_">
					<use xlink:href="#SVGID_11_"  overflow="visible"/>
				</clipPath>
				<path clip-path="url(#SVGID_12_)" fill="#3B3B3B" d="M92.86,95.291c0,0.773-0.793,1.398-1.772,1.398
					c-0.978,0-1.771-0.625-1.771-1.398c0-0.772,0.793-1.397,1.771-1.397C92.067,93.893,92.86,94.519,92.86,95.291"/>
			</g>
		</g>
		<g opacity="0.2" clip-path="url(#SVGID_2_)">
			<g>
				<defs>
					<rect id="SVGID_13_" x="90.476" y="95.133" width="3.949" height="13.235"/>
				</defs>
				<clipPath id="SVGID_14_">
					<use xlink:href="#SVGID_13_"  overflow="visible"/>
				</clipPath>
				<path clip-path="url(#SVGID_14_)" fill="#3B3B3B" d="M92.64,108.048c-3.099-3.059-2.079-10.888-1.685-12.479
					c0.395-1.589,1.799,1.438,2.891,4.579c1.09,3.143,0.358,7.094,0.069,7.868C93.626,108.789,92.64,108.048,92.64,108.048"/>
			</g>
		</g>
		<g opacity="0.2" clip-path="url(#SVGID_2_)">
			<g>
				<defs>
					<rect id="SVGID_15_" x="87.364" y="95.709" width="4.399" height="9.779"/>
				</defs>
				<clipPath id="SVGID_16_">
					<use xlink:href="#SVGID_15_"  overflow="visible"/>
				</clipPath>
				<path clip-path="url(#SVGID_16_)" fill="#3B3B3B" d="M90.269,95.899c-3.351,2.091-3.008,8.024-2.753,9.241
					c0.257,1.215,1.916-0.961,3.273-3.244c1.358-2.284,0.969-5.294,0.747-5.891C91.314,95.409,90.269,95.899,90.269,95.899"/>
			</g>
		</g>
		<path clip-path="url(#SVGID_2_)" fill="#919191" d="M87.551,91.916c-0.48-0.815-2.561-0.274-2.653,0.917
			c-0.146,1.872,2.384,3.808,3.664,3.75c0.759-0.034,5.545,0.578,6.153-0.149c0.417-0.5-3.119-2.363-3.334-2.561
			C90.851,93.389,88.726,93.906,87.551,91.916"/>
		<path clip-path="url(#SVGID_2_)" fill="#EEEEED" d="M87.678,91.254c-0.48-0.815-2.561-0.275-2.653,0.917
			c-0.146,1.872,2.384,3.808,3.664,3.75c1.28-0.056,3.348-2.227,2.818-2.71C90.979,92.727,88.853,93.245,87.678,91.254"/>
		<path clip-path="url(#SVGID_2_)" fill="#919191" d="M94.989,92.02c0.481-0.813,2.561-0.273,2.653,0.917
			c0.146,1.873-2.383,3.809-3.664,3.75c-1.28-0.057-3.218-2.226-2.689-2.709C91.819,93.493,93.815,94.011,94.989,92.02"/>
		<path clip-path="url(#SVGID_2_)" fill="#EEEEED" d="M95.206,91.254c0.481-0.815,2.562-0.275,2.654,0.917
			c0.146,1.872-2.383,3.808-3.664,3.75c-1.28-0.056-3.218-2.227-2.689-2.71C92.037,92.727,94.032,93.245,95.206,91.254"/>
		<path clip-path="url(#SVGID_2_)" fill="#919191" d="M93.059,107.515c-3.099-3.059-2.08-10.889-1.686-12.479
			c0.395-1.589,1.8,1.438,2.891,4.58c1.091,3.142,0.359,7.095,0.07,7.867C94.044,108.256,93.059,107.515,93.059,107.515"/>
		<path clip-path="url(#SVGID_2_)" fill="#919191" d="M90.688,95.366c-3.352,2.091-3.009,8.023-2.754,9.241
			c0.256,1.215,1.917-0.961,3.274-3.244c1.358-2.283,0.969-5.294,0.747-5.89C91.733,94.875,90.688,95.366,90.688,95.366"/>
		<g opacity="0.1" clip-path="url(#SVGID_2_)">
			<g>
				<defs>
					<rect id="SVGID_17_" x="71.799" y="112.262" width="39.772" height="22.644"/>
				</defs>
				<clipPath id="SVGID_18_">
					<use xlink:href="#SVGID_17_"  overflow="visible"/>
				</clipPath>
				<path clip-path="url(#SVGID_18_)" fill="#5D5C5C" d="M106.56,134.905c0.024-3.132,0.57-6.489,1.976-10.052
					c1.562-3.959,2.513-7.521,3.035-10.771c-6.29,3.704-16.58,3.988-20.449,4.044c-3.958,0.06-14.538-0.317-19.322-5.863
					c0.246,4.971,1.554,9.889,3.631,13.511c1.429,2.488,2.037,5.206,2.141,7.997c0.402-0.1,0.768-0.2,1.185-0.301
					C94.377,129.69,101.958,133.819,106.56,134.905"/>
			</g>
		</g>
		<path clip-path="url(#SVGID_2_)" fill="#DADADA" d="M154.432,244.991H22.107c-8.24,0-14.921-6.681-14.921-14.922v-90.431h162.168
			v90.431C169.354,238.31,162.673,244.991,154.432,244.991"/>
		<g opacity="0.2" clip-path="url(#SVGID_2_)">
			<g>
				<defs>
					<rect id="SVGID_19_" x="7.187" y="139.638" width="162.167" height="18.626"/>
				</defs>
				<clipPath id="SVGID_20_">
					<use xlink:href="#SVGID_19_"  overflow="visible"/>
				</clipPath>
				<rect x="7.187" y="139.638" clip-path="url(#SVGID_20_)" fill="#717070" width="162.167" height="18.626"/>
			</g>
		</g>
		<g opacity="0.1" clip-path="url(#SVGID_2_)">
			<g>
				<defs>
					<rect id="SVGID_21_" x="7.187" y="139.638" width="162.167" height="45.504"/>
				</defs>
				<clipPath id="SVGID_22_">
					<use xlink:href="#SVGID_21_"  overflow="visible"/>
				</clipPath>
				<path clip-path="url(#SVGID_22_)" fill="#717070" d="M7.186,184.405c43.384-36.335,116.006-22.296,162.168,0.737v-45.504H7.186
					V184.405z"/>
			</g>
		</g>
		<g opacity="0.5" clip-path="url(#SVGID_2_)">
			<g>
				<defs>
					<rect id="SVGID_23_" x="14.521" y="11.68" width="147.499" height="114.296"/>
				</defs>
				<clipPath id="SVGID_24_">
					<use xlink:href="#SVGID_23_"  overflow="visible"/>
				</clipPath>
				<path clip-path="url(#SVGID_24_)" fill="#E8E8E7" d="M14.521,16.126v105.402c0,2.456,1.991,4.447,4.447,4.447h38.871
					c1.67,0,3.26-0.906,3.958-2.425c4.606-10.029,14.713-17.002,26.473-17.002c11.76,0,21.867,6.973,26.474,17.002
					c0.697,1.519,2.288,2.425,3.958,2.425h38.87c2.457,0,4.447-1.991,4.447-4.447V16.126c0-2.456-1.991-4.447-4.447-4.447H18.968
					C16.511,11.68,14.521,13.67,14.521,16.126"/>
			</g>
		</g>
		<path clip-path="url(#SVGID_2_)" fill="#DADADA" d="M172.142,148.343H4.398c-2.429,0-4.398-1.97-4.398-4.397v-11.049
			c0-2.429,1.969-4.397,4.398-4.397h167.744c2.428,0,4.398,1.968,4.398,4.397v11.049C176.54,146.374,174.57,148.343,172.142,148.343
			"/>
		<g opacity="0.2" clip-path="url(#SVGID_2_)">
			<g>
				<defs>
					<rect id="SVGID_25_" x="15.47" y="11.68" width="3.639" height="114.296"/>
				</defs>
				<clipPath id="SVGID_26_">
					<use xlink:href="#SVGID_25_"  overflow="visible"/>
				</clipPath>
				<path clip-path="url(#SVGID_26_)" fill="#565656" d="M15.471,13.505V124.15c0.812,1.081,2.042,1.826,3.497,1.826h0.142V11.68
					h-0.142C17.512,11.68,16.282,12.425,15.471,13.505"/>
			</g>
		</g>
		<path clip-path="url(#SVGID_2_)" fill="#DADADA" d="M17.349,138.712h-2.018c-0.448,0-0.811-0.363-0.811-0.81V11.535
			c0-0.448,0.363-0.811,0.811-0.811h2.018c0.448,0,0.812,0.363,0.812,0.811v126.367C18.16,138.349,17.796,138.712,17.349,138.712"/>
		<g opacity="0.2" clip-path="url(#SVGID_2_)">
			<g>
				<defs>
					<rect id="SVGID_27_" x="157.43" y="11.68" width="3.64" height="114.296"/>
				</defs>
				<clipPath id="SVGID_28_">
					<use xlink:href="#SVGID_27_"  overflow="visible"/>
				</clipPath>
				<path clip-path="url(#SVGID_28_)" fill="#565656" d="M161.069,13.505V124.15c-0.812,1.081-2.042,1.826-3.498,1.826h-0.141V11.68
					h0.141C159.028,11.68,160.258,12.425,161.069,13.505"/>
			</g>
		</g>
		<path clip-path="url(#SVGID_2_)" fill="#DADADA" d="M159.191,138.712h2.018c0.447,0,0.811-0.363,0.811-0.81V11.535
			c0-0.448-0.363-0.811-0.811-0.811h-2.018c-0.448,0-0.811,0.363-0.811,0.811v126.367
			C158.38,138.349,158.744,138.712,159.191,138.712"/>
		<g opacity="0.3" clip-path="url(#SVGID_2_)">
			<g>
				<defs>
					<rect id="SVGID_29_" x="14.521" y="11.68" width="147.499" height="114.296"/>
				</defs>
				<clipPath id="SVGID_30_">
					<use xlink:href="#SVGID_29_"  overflow="visible"/>
				</clipPath>
				<path clip-path="url(#SVGID_30_)" fill="#FFFFFF" d="M162.02,42.127l-79.04,64.957c1.722-0.317,3.477-0.537,5.291-0.537
					c11.759,0,21.867,6.974,26.474,17.003c0.697,1.519,2.288,2.425,3.958,2.425h2.419l40.898-23.527V42.127z"/>
				<path clip-path="url(#SVGID_30_)" fill="#FFFFFF" d="M157.572,11.68h-55.423l-87.628,96.939v12.909
					c0,2.457,1.991,4.448,4.447,4.448h10.269l130.17-113.877C158.844,11.841,158.231,11.68,157.572,11.68"/>
			</g>
		</g>
	</g>
</g>
<g opacity="0.2">
	<g>
		<defs>
			<rect id="SVGID_31_" x="180.067" y="10.724" width="176.539" height="234.267"/>
		</defs>
		<clipPath id="SVGID_32_">
			<use xlink:href="#SVGID_31_"  overflow="visible"/>
		</clipPath>
		<path clip-path="url(#SVGID_32_)" fill="#DADADA" d="M334.499,244.991H202.175c-8.24,0-14.921-6.681-14.921-14.922v-90.431H349.42
			v90.431C349.42,238.31,342.741,244.991,334.499,244.991"/>
		<g opacity="0.2" clip-path="url(#SVGID_32_)">
			<g>
				<defs>
					<rect id="SVGID_33_" x="187.253" y="139.638" width="162.167" height="18.626"/>
				</defs>
				<clipPath id="SVGID_34_">
					<use xlink:href="#SVGID_33_"  overflow="visible"/>
				</clipPath>
				<rect x="187.253" y="139.638" clip-path="url(#SVGID_34_)" fill="#717070" width="162.167" height="18.626"/>
			</g>
		</g>
		<g opacity="0.1" clip-path="url(#SVGID_32_)">
			<g>
				<defs>
					<rect id="SVGID_35_" x="187.253" y="139.638" width="162.167" height="45.504"/>
				</defs>
				<clipPath id="SVGID_36_">
					<use xlink:href="#SVGID_35_"  overflow="visible"/>
				</clipPath>
				<path clip-path="url(#SVGID_36_)" fill="#717070" d="M187.253,184.405c43.384-36.335,116.006-22.296,162.167,0.737v-45.504
					H187.253V184.405z"/>
			</g>
		</g>
		<g opacity="0.5" clip-path="url(#SVGID_32_)">
			<g>
				<defs>
					<rect id="SVGID_37_" x="194.587" y="11.68" width="147.499" height="114.296"/>
				</defs>
				<clipPath id="SVGID_38_">
					<use xlink:href="#SVGID_37_"  overflow="visible"/>
				</clipPath>
				<path clip-path="url(#SVGID_38_)" fill="#E8E8E7" d="M194.587,16.126v105.402c0,2.456,1.991,4.447,4.446,4.447h38.873
					c1.669,0,3.26-0.906,3.957-2.425c4.606-10.029,14.714-17.002,26.474-17.002c11.759,0,21.867,6.973,26.473,17.002
					c0.698,1.519,2.287,2.425,3.958,2.425h38.871c2.456,0,4.447-1.991,4.447-4.447V16.126c0-2.456-1.991-4.447-4.447-4.447H199.034
					C196.578,11.68,194.587,13.67,194.587,16.126"/>
			</g>
		</g>
		<path clip-path="url(#SVGID_32_)" fill="#DADADA" d="M352.209,148.343H184.464c-2.428,0-4.397-1.97-4.397-4.397v-11.049
			c0-2.429,1.97-4.397,4.397-4.397h167.745c2.429,0,4.396,1.968,4.396,4.397v11.049
			C356.606,146.374,354.638,148.343,352.209,148.343"/>
		<g opacity="0.2" clip-path="url(#SVGID_32_)">
			<g>
				<defs>
					<rect id="SVGID_39_" x="195.537" y="11.68" width="3.64" height="114.296"/>
				</defs>
				<clipPath id="SVGID_40_">
					<use xlink:href="#SVGID_39_"  overflow="visible"/>
				</clipPath>
				<path clip-path="url(#SVGID_40_)" fill="#565656" d="M195.537,13.505V124.15c0.812,1.081,2.042,1.826,3.498,1.826h0.142V11.68
					h-0.142C197.579,11.68,196.349,12.425,195.537,13.505"/>
			</g>
		</g>
		<path clip-path="url(#SVGID_32_)" fill="#DADADA" d="M197.416,138.712h-2.018c-0.447,0-0.81-0.363-0.81-0.81V11.535
			c0-0.448,0.363-0.811,0.81-0.811h2.018c0.448,0,0.811,0.363,0.811,0.811v126.367C198.226,138.349,197.863,138.712,197.416,138.712
			"/>
		<g opacity="0.2" clip-path="url(#SVGID_32_)">
			<g>
				<defs>
					<rect id="SVGID_41_" x="337.498" y="11.68" width="3.639" height="114.296"/>
				</defs>
				<clipPath id="SVGID_42_">
					<use xlink:href="#SVGID_41_"  overflow="visible"/>
				</clipPath>
				<path clip-path="url(#SVGID_42_)" fill="#565656" d="M341.136,13.505V124.15c-0.812,1.081-2.041,1.826-3.498,1.826h-0.141V11.68
					h0.141C339.095,11.68,340.325,12.425,341.136,13.505"/>
			</g>
		</g>
		<path clip-path="url(#SVGID_32_)" fill="#DADADA" d="M339.259,138.712h2.017c0.447,0,0.811-0.363,0.811-0.81V11.535
			c0-0.448-0.363-0.811-0.811-0.811h-2.017c-0.448,0-0.813,0.363-0.813,0.811v126.367
			C338.447,138.349,338.811,138.712,339.259,138.712"/>
		<g opacity="0.3" clip-path="url(#SVGID_32_)">
			<g>
				<defs>
					<rect id="SVGID_43_" x="194.587" y="11.68" width="147.499" height="114.296"/>
				</defs>
				<clipPath id="SVGID_44_">
					<use xlink:href="#SVGID_43_"  overflow="visible"/>
				</clipPath>
				<path clip-path="url(#SVGID_44_)" fill="#FFFFFF" d="M342.086,42.127l-79.039,64.957c1.721-0.317,3.475-0.537,5.29-0.537
					c11.759,0,21.867,6.974,26.474,17.003c0.697,1.519,2.287,2.425,3.957,2.425h2.42l40.898-23.527V42.127z"/>
				<path clip-path="url(#SVGID_44_)" fill="#FFFFFF" d="M337.639,11.68h-55.422l-87.629,96.939v12.909
					c0,2.457,1.991,4.448,4.448,4.448h10.268l130.17-113.877C338.912,11.841,338.298,11.68,337.639,11.68"/>
			</g>
		</g>
	</g>
</g>
<g opacity="0.15">
	<g>
		<defs>
			<rect id="SVGID_45_" x="468.097" y="22.238" width="227.419" height="219.694"/>
		</defs>
		<clipPath id="SVGID_46_">
			<use xlink:href="#SVGID_45_"  overflow="visible"/>
		</clipPath>
		<path clip-path="url(#SVGID_46_)" fill="#4D4D4D" d="M530.059,73.386c-21.144,15.565-7.375,45.363-7.375,45.363
			s17.824-4.806,18.12-5.889C541.101,111.776,533.531,70.831,530.059,73.386"/>
		<path clip-path="url(#SVGID_46_)" fill="#4D4D4D" d="M572.746,70.934c21.144,15.564,7.836,47.815,7.836,47.815
			s-17.824-4.806-18.122-5.889C562.164,111.776,569.273,68.378,572.746,70.934"/>
		<path clip-path="url(#SVGID_46_)" fill="#4D4D4D" d="M531.809,72.173c-14.321,8.674-4.104,28.917-1.256,40.045
			c2.846,11.128-0.995,24.112-1.707,29.641s55.297,11.379,51.39-0.711c-3.907-12.092-6.853-27.463-4.234-37.799
			c2.62-10.336,6.321-22.659-0.026-29.948C569.626,66.113,544.415,64.539,531.809,72.173"/>
		<g opacity="0.2" clip-path="url(#SVGID_46_)">
			<g>
				<defs>
					<rect id="SVGID_47_" x="524.361" y="71.97" width="55.992" height="76.267"/>
				</defs>
				<clipPath id="SVGID_48_">
					<use xlink:href="#SVGID_47_"  overflow="visible"/>
				</clipPath>
				<path clip-path="url(#SVGID_48_)" fill="#242424" d="M533.279,138.15c0.712-5.528,4.554-18.511,1.706-29.642
					c-2.513-9.824-10.743-26.739-2.792-36.539c-0.124,0.071-0.264,0.13-0.384,0.203c-14.321,8.673-4.104,28.917-1.256,40.045
					c2.846,11.128-0.995,24.112-1.707,29.64c-0.676,5.253,49.815,10.786,51.502,0.954
					C567.696,147.099,532.714,142.528,533.279,138.15"/>
			</g>
		</g>
		<path clip-path="url(#SVGID_46_)" fill="#F1F1F0" d="M541.31,68.534c-3.329,8.307,10.884,25.572,10.884,25.572
			s11.414-17.231,6.246-26.766C552.832,66.9,546.764,67.26,541.31,68.534"/>
		<path clip-path="url(#SVGID_46_)" fill="#D1D1D2" d="M543.173,59.386c2.376,3.02,2.134,4.999,1.179,8.359
			c-0.22,0.775,2.783,2.412,5.856,2.54c3.073,0.128,6.222-1.253,6.066-2.217c-0.31-1.926,0.045-6.901,0.539-8.052
			C557.306,58.864,543.173,59.386,543.173,59.386"/>
		<g opacity="0.3" clip-path="url(#SVGID_46_)">
			<g>
				<defs>
					<rect id="SVGID_49_" x="543.171" y="59.351" width="13.657" height="9.806"/>
				</defs>
				<clipPath id="SVGID_50_">
					<use xlink:href="#SVGID_49_"  overflow="visible"/>
				</clipPath>
				<path clip-path="url(#SVGID_50_)" fill="#363636" d="M555.339,69.157c0.619-0.359,0.99-0.75,0.936-1.089
					c-0.31-1.926,0.045-6.901,0.539-8.052c0.123-0.289-0.677-0.472-1.941-0.585c-3.481,3.852-8.83,4.143-9.861,1.858
					c-0.25-0.552-0.496-1.218-0.729-1.938c-0.677,0.02-1.109,0.035-1.109,0.035c2.136,2.715,2.15,4.596,1.439,7.387
					C547.367,68.327,551,68.905,555.339,69.157"/>
			</g>
		</g>
		<g opacity="0.1" clip-path="url(#SVGID_46_)">
			<g>
				<defs>
					<rect id="SVGID_51_" x="541.148" y="68.333" width="9.692" height="6.094"/>
				</defs>
				<clipPath id="SVGID_52_">
					<use xlink:href="#SVGID_51_"  overflow="visible"/>
				</clipPath>
				<path clip-path="url(#SVGID_52_)" fill="#1C1C1D" d="M544.56,68.707c-0.899-0.785-2.848-0.204-3.371,0.549
					c-0.523,0.752,4.426,4.822,6.034,5.148c1.606,0.327,3.869-2.996,3.592-3.394C550.539,70.611,545.514,69.541,544.56,68.707"/>
			</g>
		</g>
		<g opacity="0.1" clip-path="url(#SVGID_46_)">
			<g>
				<defs>
					<rect id="SVGID_53_" x="550.569" y="68.085" width="8.656" height="6.342"/>
				</defs>
				<clipPath id="SVGID_54_">
					<use xlink:href="#SVGID_53_"  overflow="visible"/>
				</clipPath>
				<path clip-path="url(#SVGID_54_)" fill="#1C1C1D" d="M556.106,68.414c0.899-0.785,2.55-0.012,3.074,0.741
					c0.523,0.752-3.385,4.924-4.992,5.25c-1.608,0.327-3.871-2.995-3.594-3.394S555.15,69.248,556.106,68.414"/>
			</g>
		</g>
		<path clip-path="url(#SVGID_46_)" fill="#919191" d="M552.57,72.823c0,1.044-0.847,1.89-1.891,1.89s-1.889-0.846-1.889-1.89
			c0-1.043,0.845-1.889,1.889-1.889S552.57,71.779,552.57,72.823"/>
		<path clip-path="url(#SVGID_46_)" fill="#E4E4E3" d="M544.66,67.963c-0.898-0.785-2.846-0.204-3.37,0.549
			c-0.523,0.753,4.425,4.822,6.033,5.149c1.607,0.327,3.87-2.996,3.593-3.395S545.615,68.797,544.66,67.963"/>
		<path clip-path="url(#SVGID_46_)" fill="#E4E4E3" d="M556.206,67.67c0.899-0.785,2.552-0.012,3.075,0.741
			c0.523,0.752-3.386,4.923-4.992,5.25c-1.608,0.327-3.871-2.996-3.594-3.395C550.971,69.868,555.251,68.504,556.206,67.67"/>
		<path clip-path="url(#SVGID_46_)" fill="#D1D1D2" d="M558.598,67.691c-5.04,0.004-13.111-1.645-15.654-4.04
			c-1.696-1.599-7.981-18.161-8.054-25.095c-0.132-12.887,21.127-18.023,26.663-8.051c5.092,9.17,1.034,9.895,3.3,16.783
			c2.265,6.889,0.793,17.137,0.232,17.838C564.524,65.828,563.126,67.688,558.598,67.691"/>
		<g opacity="0.3" clip-path="url(#SVGID_46_)">
			<g>
				<defs>
					<rect id="SVGID_55_" x="534.889" y="25.273" width="31.185" height="42.418"/>
				</defs>
				<clipPath id="SVGID_56_">
					<use xlink:href="#SVGID_55_"  overflow="visible"/>
				</clipPath>
				<path clip-path="url(#SVGID_56_)" fill="#363636" d="M566.017,54.257c-2.659-1.688-7.072,0.188-9.403,3.852
					c-3.313,5.203-9.829,5.808-10.977,3.267c-1.148-2.542-2.28-7.171-1.896-10.986c0.384-3.815,4.443-0.588,4.34-3.591
					c-0.104-3.001-1.707-7.655,6.358-6.845c4.431,0.444,7.868-0.012,9.812-1.65c-0.112-1.884-0.689-4.181-2.697-7.797
					c-2.403-4.33-7.771-5.804-13.063-5.041c-4.169,1.272-7.301,2.666-9.546,4.354c-2.455,2.223-4.091,5.17-4.054,8.738
					c0.071,6.934,6.355,23.496,8.053,25.094c2.543,2.395,10.614,4.044,15.654,4.041c4.528-0.004,5.926-1.864,6.487-2.565
					C565.473,64.644,566.294,59.601,566.017,54.257"/>
			</g>
		</g>
		<path clip-path="url(#SVGID_46_)" fill="#363636" d="M564.988,30.31c1.856,7.113-3.107,9.133-11.175,8.325
			c-8.066-0.809-6.464,3.845-6.359,6.847c0.104,3.001-3.956-0.226-4.34,3.59s0.75,8.445,1.897,10.986
			c1.147,2.541,7.663,1.936,10.977-3.267c3.31-5.202,10.838-6.835,11.546,0.293c0.45,4.532,1.112,11.29-8.646,10.992
			c-9.76-0.299-16.823-1.099-19.134-8.786c-2.312-7.688-6.697-17.197-5.783-23.733c0.912-6.534,6.61-9.734,18.804-12.77
			C564.966,19.75,564.988,30.31,564.988,30.31"/>
		<g opacity="0.3" clip-path="url(#SVGID_46_)">
			<g>
				<defs>
					<rect id="SVGID_57_" x="534.069" y="22.238" width="33.679" height="42.361"/>
				</defs>
				<clipPath id="SVGID_58_">
					<use xlink:href="#SVGID_57_"  overflow="visible"/>
				</clipPath>
				<path clip-path="url(#SVGID_58_)" fill="#606060" d="M555.988,56.792c-3.313,5.202-9.829,5.808-10.977,3.267
					c-1.067-2.362-2.105-6.524-1.94-10.165c-0.317,0.306-0.571,0.742-0.65,1.52c-0.385,3.815,0.751,8.445,1.897,10.986
					c1.148,2.542,7.663,1.935,10.976-3.267c3.312-5.203,10.838-6.835,11.546,0.293c0.158,1.584,0.332,3.44,0.086,5.173
					c1.117-2.249,0.84-5.176,0.608-7.516C566.825,49.956,559.298,51.588,555.988,56.792"/>
				<path clip-path="url(#SVGID_58_)" fill="#606060" d="M552.082,25.128c12.191-3.035,12.212,7.523,12.212,7.523
					c0.325,1.246,0.373,2.282,0.301,3.228c0.815-1.333,1.029-3.133,0.394-5.569c0,0-0.021-10.56-12.213-7.523
					c-11.938,2.972-17.619,6.123-18.71,12.386C536.102,30.421,541.733,27.705,552.082,25.128"/>
				<path clip-path="url(#SVGID_58_)" fill="#606060" d="M547.454,45.481c-0.033-0.962-0.218-2.092-0.191-3.159
					c-0.913,1.196-0.714,2.942-0.573,4.496C547.157,46.667,547.484,46.339,547.454,45.481"/>
			</g>
		</g>
		<g opacity="0.3" clip-path="url(#SVGID_46_)">
			<g>
				<defs>
					<rect id="SVGID_59_" x="533.917" y="30.061" width="33.831" height="38.024"/>
				</defs>
				<clipPath id="SVGID_60_">
					<use xlink:href="#SVGID_59_"  overflow="visible"/>
				</clipPath>
				<path clip-path="url(#SVGID_60_)" fill="#1C1C1D" d="M564.976,30.061c0.04,4.959-4.581,6.385-11.536,5.689
					c-8.067-0.811-6.466,3.844-6.36,6.846c0.104,3.001-3.956-0.226-4.34,3.59c-0.186,1.849-0.012,3.889,0.345,5.792
					c-0.065-0.989-0.065-1.972,0.029-2.905c0.384-3.815,4.444-0.589,4.34-3.59c-0.104-3.001-1.707-7.657,6.359-6.847
					c8.067,0.808,13.031-1.212,11.175-8.325C564.988,30.31,564.984,30.207,564.976,30.061"/>
				<path clip-path="url(#SVGID_60_)" fill="#1C1C1D" d="M567.534,57.083c-0.049-0.473-0.129-0.901-0.232-1.299
					c0.325,4.366-0.115,9.67-8.788,9.405c-9.759-0.299-16.823-1.099-19.134-8.787c-1.673-5.568-4.411-12.08-5.46-17.736
					c0.424,6.226,3.868,14.076,5.834,20.622c2.312,7.688,9.375,8.488,19.135,8.788C568.646,68.375,567.984,61.616,567.534,57.083"/>
			</g>
		</g>
		<path clip-path="url(#SVGID_46_)" fill="#EEEEED" d="M559.458,56.548c0.395-0.861,4.965-1.086,5.166-0.752
			c0.2,0.333-0.954,2.395-2.612,2.631C560.352,58.663,559.458,56.548,559.458,56.548"/>
		<path clip-path="url(#SVGID_46_)" fill="#D1D1D2" d="M545.449,48.585c-0.025-0.051-0.052-0.101-0.079-0.147
			c-0.969-1.604-4.085-0.52-3.698,1.978c0.398,2.568,0.301,3.843,1.465,5.466c1.165,1.624,2.364-0.942,2.391-2.392
			C545.551,52.04,546.311,50.398,545.449,48.585"/>
		<path clip-path="url(#SVGID_46_)" fill="#919191" d="M552.194,94.105c0,0,1.803-2.739,3.649-6.617l-3.999-14.103L550,73.684
			l-1.79,15.013C550.381,91.894,552.194,94.105,552.194,94.105"/>
		<path clip-path="url(#SVGID_46_)" fill="#AFB0AF" d="M682.727,241.932h-201.84c-3.148,0-5.702-2.554-5.702-5.703V119.683h213.244
			v116.546C688.429,239.378,685.875,241.932,682.727,241.932"/>
		<path clip-path="url(#SVGID_46_)" fill="#D6D6D6" d="M682.727,241.932h-201.84c-3.148,0-5.702-2.554-5.702-5.703V119.683h213.244
			v116.546C688.429,239.378,685.875,241.932,682.727,241.932"/>
		<g opacity="0.2" clip-path="url(#SVGID_46_)">
			<g>
				<defs>
					<rect id="SVGID_61_" x="475.184" y="124.087" width="213.245" height="16.282"/>
				</defs>
				<clipPath id="SVGID_62_">
					<use xlink:href="#SVGID_61_"  overflow="visible"/>
				</clipPath>
				<path clip-path="url(#SVGID_62_)" fill="#424242" d="M475.185,140.256c0.465,0.062,0.935,0.112,1.422,0.112h210.401
					c0.487,0,0.956-0.051,1.421-0.112v-16.056c-0.465-0.063-0.934-0.114-1.421-0.114H476.607c-0.487,0-0.957,0.051-1.422,0.114
					V140.256z"/>
			</g>
		</g>
		<polygon clip-path="url(#SVGID_46_)" fill="#919191" points="475.185,203.155 475.185,211.959 688.429,173.526 688.429,151.985 		
			"/>
		<g opacity="0.2" clip-path="url(#SVGID_46_)">
			<g>
				<defs>
					<rect id="SVGID_63_" x="475.184" y="171.943" width="213.245" height="40.018"/>
				</defs>
				<clipPath id="SVGID_64_">
					<use xlink:href="#SVGID_63_"  overflow="visible"/>
				</clipPath>
				<polygon clip-path="url(#SVGID_64_)" fill="#BEBDBD" points="475.185,211.959 688.429,173.526 688.429,171.943 475.185,210.378 
									"/>
			</g>
		</g>
		<g opacity="0.3" clip-path="url(#SVGID_46_)">
			<g>
				<defs>
					<rect id="SVGID_65_" x="475.184" y="151.984" width="213.245" height="53.019"/>
				</defs>
				<clipPath id="SVGID_66_">
					<use xlink:href="#SVGID_65_"  overflow="visible"/>
				</clipPath>
				<polygon clip-path="url(#SVGID_66_)" fill="#565656" points="475.185,203.155 475.185,205.002 688.429,153.833 688.429,151.985 
									"/>
			</g>
		</g>
		<path clip-path="url(#SVGID_46_)" fill="#919191" d="M475.185,229.789v7.072c0,2.8,2.87,5.072,6.41,5.072h200.423
			c3.54,0,6.411-2.272,6.411-5.072v-34.218L475.185,229.789z"/>
		<g opacity="0.3" clip-path="url(#SVGID_46_)">
			<g>
				<defs>
					<rect id="SVGID_67_" x="475.184" y="202.643" width="213.245" height="29.104"/>
				</defs>
				<clipPath id="SVGID_68_">
					<use xlink:href="#SVGID_67_"  overflow="visible"/>
				</clipPath>
				<polygon clip-path="url(#SVGID_68_)" fill="#565656" points="475.185,229.789 475.185,231.748 688.429,204.604 688.429,202.643 
									"/>
			</g>
		</g>
		<g opacity="0.1" clip-path="url(#SVGID_46_)">
			<g>
				<defs>
					<rect id="SVGID_69_" x="475.184" y="119.683" width="213.245" height="89.639"/>
				</defs>
				<clipPath id="SVGID_70_">
					<use xlink:href="#SVGID_69_"  overflow="visible"/>
				</clipPath>
				<path clip-path="url(#SVGID_70_)" fill="#313030" d="M475.185,182.537c111.342-36.145,183.439,4.787,213.244,26.785v-89.639
					H475.185V182.537z"/>
			</g>
		</g>
		<path clip-path="url(#SVGID_46_)" fill="#D6D6D6" d="M687.949,132.229H475.667c-4.18,0-7.567-3.389-7.567-7.567v-1.149
			c0-4.179,3.388-7.565,7.567-7.565h212.282c4.178,0,7.566,3.386,7.566,7.565v1.149C695.515,128.84,692.126,132.229,687.949,132.229
			"/>
		<g opacity="0.2" clip-path="url(#SVGID_46_)">
			<g>
				<defs>
					<rect id="SVGID_71_" x="468.097" y="123.605" width="227.419" height="8.623"/>
				</defs>
				<clipPath id="SVGID_72_">
					<use xlink:href="#SVGID_71_"  overflow="visible"/>
				</clipPath>
				<path clip-path="url(#SVGID_72_)" fill="#FFFFFF" d="M687.008,130.334H476.607c-4.7,0-8.508-3.013-8.508-6.73v1.895
					c0,3.716,3.808,6.729,8.508,6.729h210.401c4.697,0,8.507-3.013,8.507-6.729v-1.895
					C695.515,127.322,691.706,130.334,687.008,130.334"/>
			</g>
		</g>
		<g opacity="0.3" clip-path="url(#SVGID_46_)">
			<g>
				<defs>
					<rect id="SVGID_73_" x="468.097" y="121.51" width="227.419" height="10.719"/>
				</defs>
				<clipPath id="SVGID_74_">
					<use xlink:href="#SVGID_73_"  overflow="visible"/>
				</clipPath>
				<path clip-path="url(#SVGID_74_)" fill="#C3C2C2" d="M687.008,127.073H476.607c-4.193,0-7.658-2.404-8.359-5.563
					c-0.084,0.38-0.148,0.765-0.148,1.166v2.823c0,3.716,3.808,6.729,8.508,6.729h210.401c4.697,0,8.507-3.013,8.507-6.729v-2.823
					c0-0.401-0.065-0.786-0.148-1.166C694.667,124.669,691.202,127.073,687.008,127.073"/>
			</g>
		</g>
		<g opacity="0.3" clip-path="url(#SVGID_46_)">
			<g>
				<defs>
					<rect id="SVGID_75_" x="468.097" y="115.946" width="227.419" height="8.982"/>
				</defs>
				<clipPath id="SVGID_76_">
					<use xlink:href="#SVGID_75_"  overflow="visible"/>
				</clipPath>
				<path clip-path="url(#SVGID_76_)" fill="#FFFFFF" d="M687.008,115.947H476.607c-4.7,0-8.508,3.012-8.508,6.729v2.252
					c0-3.717,3.808-6.73,8.508-6.73h210.401c4.697,0,8.507,3.013,8.507,6.73v-2.252
					C695.515,118.958,691.706,115.947,687.008,115.947"/>
			</g>
		</g>
		<g opacity="0.3" clip-path="url(#SVGID_46_)">
			<g>
				<defs>
					<rect id="SVGID_77_" x="468.097" y="115.946" width="227.419" height="7.427"/>
				</defs>
				<clipPath id="SVGID_78_">
					<use xlink:href="#SVGID_77_"  overflow="visible"/>
				</clipPath>
				<path clip-path="url(#SVGID_78_)" fill="#FFFFFF" d="M687.008,115.947H476.607c-4.7,0-8.508,3.012-8.508,6.729v0.697
					c0-3.716,3.808-6.729,8.508-6.729h210.401c4.697,0,8.507,3.013,8.507,6.729v-0.697
					C695.515,118.958,691.706,115.947,687.008,115.947"/>
			</g>
		</g>
		<g opacity="0.1" clip-path="url(#SVGID_46_)">
			<g>
				<defs>
					<rect id="SVGID_79_" x="475.184" y="231.555" width="213.245" height="10.377"/>
				</defs>
				<clipPath id="SVGID_80_">
					<use xlink:href="#SVGID_79_"  overflow="visible"/>
				</clipPath>
				<path clip-path="url(#SVGID_80_)" fill="#030104" d="M682.018,236.626H481.595c-3.54,0-6.41-2.27-6.41-5.071v5.306
					c0,2.801,2.87,5.071,6.41,5.071h200.423c3.54,0,6.411-2.271,6.411-5.071v-5.306
					C688.429,234.357,685.558,236.626,682.018,236.626"/>
			</g>
		</g>
		<path clip-path="url(#SVGID_46_)" fill="#BEBDBD" d="M604.295,52.725v53.707c0,1.905,1.616,3.411,3.516,3.275l58.631-1.485
			c1.717-0.124,3.048-1.553,3.048-3.275V59.505c0-1.668-1.25-3.07-2.905-3.261l-58.629-6.78
			C606.005,49.239,604.295,50.763,604.295,52.725"/>
		<path clip-path="url(#SVGID_46_)" fill="#D6D6D6" d="M607.248,52.725v53.707c0,1.905,1.617,3.411,3.517,3.275l58.631-1.485
			c1.717-0.124,3.048-1.553,3.048-3.275V59.505c0-1.668-1.25-3.07-2.905-3.261l-58.63-6.78
			C608.958,49.239,607.248,50.763,607.248,52.725"/>
		<path clip-path="url(#SVGID_46_)" fill="#D6D6D6" d="M636.537,87.085c-0.409,1.301-4.015,28.862-4.015,28.862h26.958l-5.49-29.062
			L636.537,87.085z"/>
		<path clip-path="url(#SVGID_46_)" fill="#BEBDBD" d="M653.997,86.918l-0.007-0.034l-17.453,0.2
			c-0.409,1.302-4.015,28.861-4.015,28.861h2.903c0,0,3.604-27.559,4.014-28.861L653.997,86.918z"/>
		<polygon clip-path="url(#SVGID_46_)" fill="#919191" points="476.607,115.947 484.648,105.937 527.49,105.937 533.847,115.947 		
			"/>
		<g opacity="0.3" clip-path="url(#SVGID_46_)">
			<g>
				<defs>
					<rect id="SVGID_81_" x="476.61" y="105.936" width="57.234" height="10.01"/>
				</defs>
				<clipPath id="SVGID_82_">
					<use xlink:href="#SVGID_81_"  overflow="visible"/>
				</clipPath>
				<polygon clip-path="url(#SVGID_82_)" fill="#CFCFCE" points="483.404,108.272 526.246,108.272 531.119,115.947 533.847,115.947 
					527.489,105.937 484.648,105.937 476.607,115.947 477.24,115.947 				"/>
			</g>
		</g>
	</g>
</g>
<path fill="#93C5E1" d="M532.326,286.648H261.098c-8.247,0-14.934-6.686-14.934-14.933c0-8.248,6.687-14.934,14.934-14.934h271.228
	c8.247,0,14.933,6.686,14.933,14.934C547.258,279.962,540.573,286.648,532.326,286.648"/>
<path fill="#D8D8D8" d="M385.359,158.516h-3.638c-3.028,0-5.806-1.527-7.429-4.085c-1.622-2.558-1.818-5.722-0.529-8.46
	l5.583-11.844c3.924-8.332,12.411-13.714,21.62-13.714h3.799v7.401h-3.799c-6.357,0-12.217,3.717-14.926,9.467l-5.581,11.844
	c-0.283,0.604-0.069,1.101,0.085,1.343c0.153,0.242,0.51,0.646,1.177,0.646h3.638V158.516z"/>
<path fill="#E2B295" d="M440.257,152.047c-1.482,0-2.888-0.687-3.806-1.897l-11.018-14.529c-3.1-4.089-8.013-6.53-13.144-6.53
	h-6.578v-7.401h6.578c7.434,0,14.551,3.535,19.041,9.458l7.906,10.426l5.444-18.245l7.093,2.116l-6.918,23.182
	c-0.52,1.737-1.95,3.018-3.735,3.342C440.833,152.021,440.542,152.047,440.257,152.047"/>
<path fill="#D8D8D8" d="M440.257,152.047c-1.482,0-2.888-0.687-3.806-1.897l-11.018-14.529c-3.1-4.089-8.013-6.53-13.144-6.53
	h-6.578v-7.401h6.578c7.434,0,14.552,3.535,19.041,9.458l7.906,10.426l0.945-3.168l7.093,2.117l-2.419,8.104
	c-0.52,1.737-1.95,3.018-3.735,3.342C440.833,152.021,440.542,152.047,440.257,152.047"/>
<path fill="#3D396C" d="M394.125,65.216c-3.99,2.72-5.021,8.16-2.301,12.15c2.719,3.991,8.158,5.021,12.149,2.301
	c3.991-2.72,5.021-8.159,2.302-12.149C403.555,63.526,398.116,62.497,394.125,65.216"/>
<path fill="#3D396C" d="M412.697,116.081h-15.302c-4.565,0-8.269-3.701-8.269-8.267L387.073,79c0-5.242,4.249-9.49,9.49-9.49h18.513
	c5.241,0,9.491,4.249,9.491,9.49l-3.603,28.813C420.964,112.379,417.262,116.081,412.697,116.081"/>
<path fill="#DFBB98" d="M410.433,270.921L410.433,270.921c-2.549,0-4.614-2.065-4.614-4.614V183.24h9.228v83.067
	C415.046,268.856,412.981,270.921,410.433,270.921"/>
<path fill="#DFBB98" d="M399.095,270.921L399.095,270.921c-2.549,0-4.614-2.065-4.614-4.614V183.24h9.229v83.067
	C403.709,268.856,401.643,270.921,399.095,270.921"/>
<path fill="#192E44" d="M410.433,268.639c-2.549,0-4.614-2.066-4.614-4.614v2.282c0,2.549,2.065,4.614,4.614,4.614
	c2.548,0,4.613-2.065,4.613-4.614v-2.282C415.046,266.573,412.981,268.639,410.433,268.639"/>
<path fill="#192E44" d="M399.095,268.639c-2.549,0-4.614-2.066-4.614-4.614v2.282c0,2.549,2.065,4.614,4.614,4.614
	c2.548,0,4.614-2.065,4.614-4.614v-2.282C403.709,266.573,401.643,268.639,399.095,268.639"/>
<path fill="#E2B295" d="M423.545,93.551c-1.789,0-3.241,1.451-3.241,3.241c0,1.79,1.452,3.242,3.241,3.242
	c1.791,0,3.243-1.453,3.243-3.242C426.789,95.001,425.336,93.551,423.545,93.551"/>
<path fill="#E2B295" d="M423.545,95.239c-0.857,0-1.553,0.696-1.553,1.553s0.695,1.553,1.553,1.553c0.859,0,1.554-0.696,1.554-1.553
	S424.405,95.239,423.545,95.239"/>
<path fill="#E2B295" d="M388.092,93.551c-1.789,0-3.241,1.451-3.241,3.241c0,1.79,1.452,3.242,3.241,3.242
	c1.791,0,3.242-1.453,3.242-3.242C391.334,95.001,389.883,93.551,388.092,93.551"/>
<path fill="#E2B295" d="M388.092,95.239c-0.857,0-1.553,0.696-1.553,1.553s0.695,1.553,1.553,1.553c0.859,0,1.554-0.696,1.554-1.553
	S388.952,95.239,388.092,95.239"/>
<path fill="#E2B295" d="M410.97,115.481h-11.849c-4.957,0-8.974-4.017-8.974-8.974l-0.167-23.728c0-4.956,3.841-8.351,8.797-8.351
	l13.141,1.336c4.956,0,10.467,4.956,10.467,9.911l-2.441,20.832C419.944,111.464,415.926,115.481,410.97,115.481"/>
<path fill="#D0D0D0" d="M417.853,189.827c-2.294,1.975-5.281,3.165-8.558,3.165h-9.062c-3.276,0-6.265-1.19-8.559-3.165
	c-3.577-3.071-5.063-7.914-4.183-12.547c1.174-6.168,1.973-12.253,2.359-18.258c0.494-7.675,0.322-15.213-0.586-22.608
	c-0.187-1.528-0.154-3.078,0.199-4.574c1.646-6.961,7.895-12.092,15.3-12.092s13.651,5.131,15.298,12.092
	c0.354,1.496,0.387,3.045,0.197,4.574c-0.911,7.395-1.082,14.933-0.584,22.608c0.285,4.402,0.788,8.848,1.497,13.336
	c0.263,1.634,0.553,3.276,0.863,4.922C422.915,181.913,421.43,186.755,417.853,189.827"/>
<path fill="#192E44" d="M422.248,177.535H387.28c-2.659,16.561,3.854,52.203,3.854,52.203c8.933,2.372,18.329,2.372,27.261,0
	C418.394,229.738,424.908,194.095,422.248,177.535"/>
<rect x="403.983" y="124.388" fill="#D8D8D8" width="1.561" height="10.68"/>
<path fill="#192E44" d="M418.013,190.237c-2.323,1.996-5.346,3.201-8.662,3.201h-9.174c-3.315,0-6.338-1.205-8.661-3.201
	c-3.269-2.808-4.815-7.078-4.431-11.335c0-0.01,0-0.025,0.007-0.042c0.043-0.44,0.103-0.885,0.19-1.325
	c0.792-4.163,1.414-8.293,1.855-12.387c0.229-2.04,0.401-4.07,0.532-6.095h30.188c0.132,2.024,0.311,4.055,0.533,6.095
	c0.26,2.455,0.592,4.924,0.982,7.403c0.266,1.657,0.559,3.318,0.874,4.983c0.086,0.44,0.146,0.885,0.189,1.325
	c0.006,0.017,0.006,0.032,0.006,0.042C422.828,183.159,421.281,187.429,418.013,190.237"/>
<path fill="#6FB4CB" d="M421.371,172.547c-1.97-12.444-2.37-24.573-0.928-36.345c0.19-1.552,0.163-3.136-0.194-4.661
	c-0.398-1.683-1.063-3.257-1.946-4.682v-5.848l-6.693-0.734c0,0-2.574-0.396-3.188-0.542c0.004,0.169,0.004,0.353,0.004,0.542
	c0.071,4.305-0.188,13.75-3.663,13.75c-3.473,0-3.734-9.445-3.663-13.75c0-0.19,0-0.374,0.006-0.542
	c-0.613,0.146-3.188,0.542-3.188,0.542l-6.694,1.628v4.953c-0.882,1.425-1.546,3-1.944,4.682c-0.359,1.525-0.386,3.109-0.196,4.661
	c1.444,11.773,1.042,23.906-0.928,36.35c10.473,5.156,22.747,5.156,33.22,0L421.371,172.547z"/>
<path fill="#5A9CAF" d="M410.26,120.277v0.011c-0.021,0.5-0.613,14.78-5.498,14.78c-4.971,0-5.005-14.792-5.005-14.792h1.341
	c-0.075,4.164,0.147,13.749,3.664,13.749c3.475,0,3.734-9.444,3.663-13.749H410.26z"/>
<path fill="#E5E5E4" d="M404.763,124.461l4.264,3.167c0.595,0.442,1.447,0.15,1.646-0.563l1.893-6.786l-7.803-0.975l-7.802,0.975
	l1.893,6.786c0.198,0.712,1.05,1.005,1.646,0.563L404.763,124.461z"/>
<path fill="#E2B295" d="M404.763,124.461L404.763,124.461c-1.99,0-3.605-1.614-3.605-3.606v-6.708h7.212v6.708
	C408.37,122.847,406.755,124.461,404.763,124.461"/>
<path fill="#3D396C" d="M394.033,74.871c0,0,7.901,17.119,29.983,17.119c0,0,1.592-21.373-18.198-21.373
	C405.818,70.617,400.414,70.211,394.033,74.871"/>
<path fill="#3D396C" d="M400.819,74.871c0,0-9.522,4.549-13.27,17.924c0,0-1.723-14.278,7.901-19.444L400.819,74.871z"/>
<rect x="383.979" y="151.114" fill="#E2B295" width="21.564" height="7.402"/>
<path fill="#E2B295" d="M405.985,150.89c-4.202,0-7.61,3.408-7.61,7.611h15.221C413.595,154.298,410.188,150.89,405.985,150.89"/>
<rect x="383.979" y="150.596" fill="#D0D0D0" width="4.681" height="8.457"/>
<polygon fill="#D0D0D0" points="439.182,139.464 440.269,136.031 448.591,138.588 447.457,142.749 "/>
<rect x="408.766" y="134.927" fill="#FFFFFF" width="9.658" height="5.835"/>
<rect x="412.899" y="133.875" fill="#C1C1C0" width="1.392" height="2.171"/>
<path fill="#A5BF42" d="M434.293,110.97h13.355c0.521,0,0.942,0.422,0.942,0.942v7.717c0,0.52-0.421,0.942-0.942,0.942h-13.355
	c-0.52,0-0.941-0.422-0.941-0.942v-7.717C433.352,111.392,433.774,110.97,434.293,110.97"/>
<rect x="433.352" y="112.448" fill="#192E44" width="15.239" height="1.824"/>
<path fill="#E2B295" d="M443.747,119.859c-2.05,2.049-2.05,5.373,0,7.422c2.049,2.049,5.372,2.049,7.422,0
	c2.05-2.05,2.05-5.373,0-7.422S445.795,117.81,443.747,119.859"/>
<path fill="#9E9E9E" d="M352.176,151.743h-32.482v3.072h34.038v-1.517C353.732,152.439,353.037,151.743,352.176,151.743"/>
<path fill="#9E9E9E" d="M364.438,142.012h-64.04c-3.224,0-5.837-2.612-5.837-5.836V96.729c0-3.225,2.613-5.836,5.837-5.836h64.04
	c3.224,0,5.837,2.612,5.837,5.836v39.447C370.275,139.4,367.662,142.012,364.438,142.012"/>
<path fill="#C1C1C0" d="M329.397,114.938c-5.359,0-9.703,4.345-9.703,9.702v30.176h19.404V124.64
	C339.098,119.283,334.755,114.938,329.397,114.938 M328.125,140.646c-2.551,0-4.617-2.067-4.617-4.615
	c0-2.549,2.066-4.617,4.617-4.617c2.549,0,4.614,2.067,4.614,4.617C332.739,138.579,330.673,140.646,328.125,140.646"/>
<path fill="#9E9E9E" d="M329.396,114.938c-0.405,0-0.802,0.032-1.193,0.081c4.796,0.588,8.511,4.668,8.511,9.622v30.174h2.386
	v-30.174C339.099,119.281,334.755,114.938,329.396,114.938"/>
<rect x="272.053" y="45.23" fill="#E5E5E4" width="12.237" height="226.485"/>
<rect x="272.053" y="45.23" fill="#C1C1C0" width="12.237" height="2.669"/>
<rect x="280.896" y="162.538" fill="#E5E5E4" width="237.751" height="109.178"/>
<rect x="271.92" y="184.337" fill="#3E6594" width="247.079" height="58.595"/>
<rect x="271.923" y="202.145" fill="#E5E5E4" width="246.727" height="22.979"/>
<rect x="271.285" y="154.864" fill="#E5E5E4" width="250.853" height="12.128"/>
<rect x="271.285" y="162.684" fill="#C1C1C0" width="250.853" height="4.308"/>
<rect x="503.391" y="221.016" fill="#8B8B8B" width="4.938" height="50.267"/>
<rect x="459.864" y="221.016" fill="#8B8B8B" width="4.938" height="50.267"/>
<path fill="#343434" d="M512.742,221.008h-59.4c-2.491,0-4.512-2.02-4.512-4.512c0-2.491,2.021-4.511,4.512-4.511h59.4V221.008z"/>
<path fill="#343434" d="M500.211,201.07v-50.402c0-1.261,1.021-2.282,2.283-2.282h4.456c1.262,0,2.284,1.021,2.284,2.282v50.402
	H500.211z"/>
<path fill="#9E9E9E" d="M508.329,164.333L508.329,164.333v62.628c3.283,0,5.946-2.663,5.946-5.944v-50.739
	C514.275,166.994,511.612,164.333,508.329,164.333"/>
<path fill="#9E9E9E" d="M514.245,223.951v-2.935h-59.5v2.935c0,1.662,1.348,3.01,3.01,3.01h53.479
	C512.896,226.96,514.245,225.613,514.245,223.951"/>
<rect x="272.053" fill="#3E6594" width="52.223" height="45.23"/>
<path fill="#FFFFFF" d="M297.155,32.351V15.583h-2.797V13.29c0.788-0.092,1.537-0.391,2.25-0.895
	c0.712-0.503,1.226-1.114,1.538-1.833h2.293v21.79H297.155z"/>
<path fill="#252423" d="M470.857,100.057c0,0-3.367,54.004,27.756,54.569h12.484c1.592-16.611,1.062-33.807-1.141-51.463
	L470.857,100.057z"/>
<rect x="471.304" y="160.57" fill="#E2B295" width="7.403" height="42.187"/>
<path fill="#E2B295" d="M478.708,164.708h-7.403v-12.414c0-7.004,5.699-12.704,12.705-12.704h4.946v7.402h-4.946
	c-2.924,0-5.302,2.378-5.302,5.302V164.708z"/>
<path fill="#E2B295" d="M433.923,270.83l-9.744-1.557l7.696-48.128c1.797-11.23,11.355-19.383,22.729-19.383h41.31v9.87h-41.31
	c-6.497,0-11.957,4.656-12.983,11.071L433.923,270.83z"/>
<path fill="#E2B295" d="M509.478,113.536c-1.976-0.315-3.831,1.032-4.144,3.007c-0.314,1.975,1.033,3.831,3.008,4.144
	c1.976,0.314,3.83-1.033,4.145-3.008C512.799,115.704,511.452,113.849,509.478,113.536"/>
<path fill="#E2B295" d="M509.182,115.399c-0.945-0.151-1.835,0.495-1.986,1.44c-0.149,0.946,0.496,1.835,1.442,1.985
	c0.946,0.151,1.835-0.495,1.985-1.441C510.774,116.438,510.128,115.548,509.182,115.399"/>
<path fill="#E2B295" d="M510.074,105.288c0,1.032-0.082,2.081-0.249,3.132l-0.806,5.09l-0.722,4.523
	c-1.714,10.799-11.856,18.161-22.66,16.451c-10.799-1.715-18.162-11.861-16.446-22.661l1.525-9.613
	c0.059-0.385,0.13-0.764,0.216-1.14c0.9-4.128,3.051-7.699,5.984-10.374c4.294-3.919,10.27-5.919,16.46-4.938
	c5.685,0.9,10.414,4.142,13.375,8.582C508.864,97.512,510.074,101.3,510.074,105.288"/>
<path fill="#CE76A0" d="M487.329,137.319L487.329,137.319c-6.537,0-11.835,5.299-11.835,11.834v38.636
	c0,13.073,10.597,12.322,23.668,12.322v11.347v-62.305C499.162,142.618,493.864,137.319,487.329,137.319"/>
<path fill="#E2B295" d="M487.328,142.679L487.328,142.679c-1.991,0-3.606-1.615-3.606-3.607v-6.707h7.212v6.707
	C490.933,141.064,489.319,142.679,487.328,142.679"/>
<rect x="475.517" y="181.706" fill="#6B345F" width="23.645" height="7.064"/>
<path fill="#E2B295" d="M445.964,262.304l-8.773-40.843c-1.012-5.09,0.208-10.15,3.333-13.957c2.994-3.649,7.42-5.741,12.145-5.741
	h40.53v9.869h-40.53c-1.783,0-3.388,0.756-4.515,2.131c-1.244,1.517-1.718,3.593-1.299,5.699l8.759,40.769L445.964,262.304z"/>
<path fill="#E2B295" d="M436.213,259.114v12.12H413.2c0-3.127,1.184-5.977,3.132-8.125c0.694-0.776,1.498-1.461,2.377-2.037
	c1.9-1.236,4.169-1.958,6.612-1.958H436.213z"/>
<path fill="#E2B295" d="M435.993,268.577h-22.544c-0.774,0-1.402,0.628-1.402,1.401c0,0.775,0.628,1.402,1.402,1.402h22.544
	c0.775,0,1.402-0.627,1.402-1.402C437.395,269.205,436.768,268.577,435.993,268.577"/>
<path fill="#E2B295" d="M423.453,269.292l-2.659,1.54l-4.462-7.723c0.694-0.777,1.498-1.459,2.377-2.037L423.453,269.292z"/>
<polygon fill="#E2B295" points="436.213,261.747 436.213,265.86 430.265,271.131 428.224,268.831 "/>
<path fill="#E2B295" d="M456.079,259.743l1.466,11.564H434.53c0-3.127,1.184-5.977,3.133-8.125c0.694-0.776,1.497-1.46,2.378-2.037
	c1.898-1.236,4.168-1.958,6.609-1.958L456.079,259.743z"/>
<path fill="#E2B295" d="M457.325,268.649H434.78c-0.775,0-1.402,0.628-1.402,1.403c0,0.774,0.627,1.4,1.402,1.4h22.545
	c0.774,0,1.402-0.626,1.402-1.4C458.727,269.277,458.099,268.649,457.325,268.649"/>
<path fill="#E2B295" d="M444.784,269.364l-2.659,1.542l-4.462-7.724c0.694-0.776,1.496-1.46,2.378-2.037L444.784,269.364z"/>
<polygon fill="#E2B295" points="456.463,262.777 456.933,266.476 451.596,271.204 449.554,268.903 "/>
<path fill="#C44C79" d="M452.566,200.602l22.946-4.956h23.649v8.953c0,4.326-3.509,7.833-7.833,7.833h-38.085L452.566,200.602z"/>
<path fill="#C44C79" d="M493.08,212.433h-17.586V187.79h23.668l2.165,15.132C502.044,207.941,498.15,212.433,493.08,212.433"/>
<path fill="#252423" d="M479.993,88.392c0,0,13.31,20.142,29.264,23.614c0,0,5.908-21.13-14.144-26.495
	C485.722,82.999,479.993,88.392,479.993,88.392"/>
<path fill="#252423" d="M486.956,92.395c0,0-9.009,0.48-16.605,12.12c0,0-0.943-18.258,21.415-19.602L486.956,92.395z"/>
<path fill="#192E44" d="M463.256,182.002h-10.669l-1.539,15.825c-0.226,2.313,1.593,4.317,3.917,4.317h5.914
	c2.323,0,4.142-2.004,3.917-4.317L463.256,182.002z"/>
<path fill="#132437" d="M457.999,200.375h-0.153c-0.915,0-1.637-0.776-1.572-1.689l1.187-16.684h0.925l1.188,16.684
	C459.636,199.599,458.914,200.375,457.999,200.375"/>
<rect x="503.827" y="108.311" fill="#252423" width="5.672" height="27.23"/>
<path fill="#E2B295" d="M474.252,186.94h-19.508c-2.043,0-3.7-1.656-3.7-3.7s1.657-3.7,3.7-3.7h19.508
	c5.012,0,9.393-3.389,10.653-8.239l6.277-24.153c0.513-1.979,2.532-3.164,4.512-2.651c1.979,0.513,3.165,2.533,2.651,4.513
	l-6.277,24.153C489.962,181.274,482.634,186.94,474.252,186.94"/>
<path fill="#DFBB98" d="M490.495,168.219c-0.309,0-0.621-0.038-0.934-0.12c-1.979-0.513-3.166-2.533-2.651-4.512l4.273-16.44
	c0.513-1.979,2.532-3.164,4.512-2.651c1.979,0.515,3.165,2.533,2.651,4.512l-4.273,16.442
	C493.641,167.115,492.138,168.219,490.495,168.219"/>
<path fill="#6F567C" d="M494.021,168.202l-8.385-2.259l5.864-21.773c0.623-2.315,3.007-3.687,5.322-3.063
	c2.314,0.622,3.687,3.006,3.063,5.322L494.021,168.202z"/>
<path fill="#E2B295" d="M454.745,178.934c-3.397-0.351-6.436,2.12-6.786,5.518c-0.35,3.396,2.119,6.436,5.519,6.785
	c3.396,0.352,6.435-2.12,6.785-5.517C460.612,182.323,458.143,179.285,454.745,178.934"/>
</svg>
