<svg xmlns="http://www.w3.org/2000/svg" viewBox="0 0 160.4 56.13"><defs><style>.cls-1{fill:#ff5000;}</style></defs><g id="Capa_2" data-name="Capa 2"><g id="Header"><path class="cls-1" d="M42,50.16h1.75a1.29,1.29,0,0,1,.09.2,1,1,0,0,1,0,.26.49.49,0,0,1-.11.36.45.45,0,0,1-.31.11H42.06v3.26l-.23,0-.33,0a.86.86,0,0,1-.5-.12.51.51,0,0,1-.16-.44V49.67a2.05,2.05,0,0,1,.14-.78,1.43,1.43,0,0,1,.41-.53,1.76,1.76,0,0,1,.61-.31,2.8,2.8,0,0,1,.79-.1c.85,0,1.28.22,1.28.67a.6.6,0,0,1-.06.27,1,1,0,0,1-.15.19,2.45,2.45,0,0,0-.41-.12,2.52,2.52,0,0,0-.48-.05,1.1,1.1,0,0,0-.73.19.74.74,0,0,0-.24.62Z"/><path class="cls-1" d="M46.12,48.52a.65.65,0,0,1,.2-.47.69.69,0,0,1,.51-.19.68.68,0,0,1,.5.19.64.64,0,0,1,.19.47.65.65,0,0,1-.19.48.68.68,0,0,1-.5.19.69.69,0,0,1-.51-.19A.66.66,0,0,1,46.12,48.52Zm.1,1.38.23,0a1.51,1.51,0,0,1,.32,0,.82.82,0,0,1,.5.12.53.53,0,0,1,.16.44v4l-.22,0-.33,0a.82.82,0,0,1-.5-.12.51.51,0,0,1-.16-.44Z"/><path class="cls-1" d="M53.42,50.86a1,1,0,0,0-.64-.19,2.11,2.11,0,0,0-.52.07,1.94,1.94,0,0,0-.41.17v3.44l-.23,0-.33,0a.86.86,0,0,1-.5-.12.51.51,0,0,1-.16-.44v-3a.68.68,0,0,1,.09-.37,1.17,1.17,0,0,1,.3-.28,3,3,0,0,1,.74-.32,4.1,4.1,0,0,1,1-.12,2.38,2.38,0,0,1,1.53.43,1.5,1.5,0,0,1,.55,1.26v2.93l-.23,0-.32,0a.87.87,0,0,1-.51-.12.54.54,0,0,1-.16-.44v-2.4A.72.72,0,0,0,53.42,50.86Z"/><path class="cls-1" d="M59.79,49.73a2.62,2.62,0,0,1,1.51.39,1.43,1.43,0,0,1,.56,1.24v2.19a.57.57,0,0,1-.11.36,1.37,1.37,0,0,1-.29.24,2.22,2.22,0,0,1-.69.25,3.82,3.82,0,0,1-.94.1,2.67,2.67,0,0,1-1.52-.37A1.21,1.21,0,0,1,57.75,53a1.18,1.18,0,0,1,.41-1,2.15,2.15,0,0,1,1.19-.42l1.33-.13v-.17a.58.58,0,0,0-.27-.53,1.35,1.35,0,0,0-.75-.17,3,3,0,0,0-.73.09,3.42,3.42,0,0,0-.64.22.7.7,0,0,1-.18-.2.68.68,0,0,1-.07-.28.5.5,0,0,1,.09-.31.93.93,0,0,1,.3-.22,3.38,3.38,0,0,1,.63-.17A4.4,4.4,0,0,1,59.79,49.73Zm0,3.86a2.76,2.76,0,0,0,.51-.05,1.27,1.27,0,0,0,.34-.13V52.35l-.94.09a1.38,1.38,0,0,0-.59.17.44.44,0,0,0-.2.4.5.5,0,0,0,.21.43A1.14,1.14,0,0,0,59.83,53.59Z"/><path class="cls-1" d="M67.78,50.86a1,1,0,0,0-.64-.19,2.11,2.11,0,0,0-.52.07,1.94,1.94,0,0,0-.41.17v3.44l-.23,0-.33,0a.86.86,0,0,1-.5-.12.51.51,0,0,1-.16-.44v-3a.68.68,0,0,1,.09-.37,1.17,1.17,0,0,1,.3-.28,3,3,0,0,1,.74-.32,4.1,4.1,0,0,1,1-.12,2.38,2.38,0,0,1,1.53.43,1.5,1.5,0,0,1,.55,1.26v2.93l-.23,0-.32,0a.87.87,0,0,1-.51-.12.54.54,0,0,1-.16-.44v-2.4A.72.72,0,0,0,67.78,50.86Z"/><path class="cls-1" d="M72.4,54.36a.84.84,0,0,1-.18-.24.59.59,0,0,1-.07-.29.73.73,0,0,1,.07-.3,1.59,1.59,0,0,1,.18-.27l2-2.45H72.33a.51.51,0,0,1-.09-.21.77.77,0,0,1,0-.27.49.49,0,0,1,.12-.36.42.42,0,0,1,.3-.11h3.07a.69.69,0,0,1,.18.24.58.58,0,0,1,.07.3.59.59,0,0,1-.07.29,2.11,2.11,0,0,1-.18.27l-2,2.46H75.9a.63.63,0,0,1,.09.2.75.75,0,0,1,0,.26.46.46,0,0,1-.12.36.4.4,0,0,1-.31.12Z"/><path class="cls-1" d="M80.66,49.73a2.62,2.62,0,0,1,1.51.39,1.43,1.43,0,0,1,.56,1.24v2.19a.57.57,0,0,1-.11.36,1.37,1.37,0,0,1-.29.24,2.22,2.22,0,0,1-.69.25,3.82,3.82,0,0,1-.94.1,2.67,2.67,0,0,1-1.52-.37A1.21,1.21,0,0,1,78.62,53a1.18,1.18,0,0,1,.41-1,2.15,2.15,0,0,1,1.19-.42l1.33-.13v-.17a.58.58,0,0,0-.27-.53,1.35,1.35,0,0,0-.75-.17,3,3,0,0,0-.73.09,3.42,3.42,0,0,0-.64.22.7.7,0,0,1-.18-.2.68.68,0,0,1-.07-.28.5.5,0,0,1,.09-.31.93.93,0,0,1,.3-.22,3.38,3.38,0,0,1,.63-.17A4.4,4.4,0,0,1,80.66,49.73Zm0,3.86a2.76,2.76,0,0,0,.51-.05,1.27,1.27,0,0,0,.34-.13V52.35l-.94.09a1.38,1.38,0,0,0-.59.17.44.44,0,0,0-.2.4.5.5,0,0,0,.21.43A1.14,1.14,0,0,0,80.7,53.59Z"/><path class="cls-1" d="M89.42,53.09a1.2,1.2,0,0,1-.51,1,2.4,2.4,0,0,1-1.46.38,3.88,3.88,0,0,1-.72-.06,2.49,2.49,0,0,1-.56-.16A1.08,1.08,0,0,1,85.8,54a.56.56,0,0,1-.13-.35.54.54,0,0,1,.09-.31.63.63,0,0,1,.21-.22,3.26,3.26,0,0,0,.62.31,2.31,2.31,0,0,0,.82.13,1.11,1.11,0,0,0,.6-.13.39.39,0,0,0,.2-.35c0-.26-.19-.43-.58-.52l-.54-.12A2.33,2.33,0,0,1,86,52a1.18,1.18,0,0,1-.34-.87,1.22,1.22,0,0,1,.5-1,2.27,2.27,0,0,1,1.41-.38,3.2,3.2,0,0,1,.64.05,1.71,1.71,0,0,1,.51.15,1,1,0,0,1,.34.24.47.47,0,0,1,.12.32.54.54,0,0,1-.07.29A.78.78,0,0,1,89,51l-.22-.12-.31-.1-.36-.08-.37,0a1.35,1.35,0,0,0-.59.11.38.38,0,0,0-.21.34.34.34,0,0,0,.12.27,1.06,1.06,0,0,0,.42.17l.47.11a2.46,2.46,0,0,1,1.16.53A1.2,1.2,0,0,1,89.42,53.09Z"/><path class="cls-1" d="M98.35,54.49a2.78,2.78,0,0,1-.52-.05,3.68,3.68,0,0,1-.43-.13v1.75l-.23,0a1.69,1.69,0,0,1-.33,0,.86.86,0,0,1-.5-.12.51.51,0,0,1-.16-.44V50.76a.68.68,0,0,1,.09-.37,1.1,1.1,0,0,1,.29-.27,3.63,3.63,0,0,1,.7-.28,3.71,3.71,0,0,1,.93-.11,3.37,3.37,0,0,1,1,.13,2.27,2.27,0,0,1,.78.43,1.89,1.89,0,0,1,.51.74,2.8,2.8,0,0,1,.18,1.06,2.94,2.94,0,0,1-.17,1,2.2,2.2,0,0,1-.48.75,1.82,1.82,0,0,1-.72.46A2.73,2.73,0,0,1,98.35,54.49Zm-.19-1a1.2,1.2,0,0,0,.91-.35,1.54,1.54,0,0,0,.33-1.09A1.48,1.48,0,0,0,99.06,51a1.19,1.19,0,0,0-.87-.33,1.64,1.64,0,0,0-.46.07l-.34.14v2.44a1,1,0,0,0,.34.15A1.44,1.44,0,0,0,98.16,53.53Z"/><path class="cls-1" d="M105.35,49.73a2.62,2.62,0,0,1,1.51.39,1.43,1.43,0,0,1,.56,1.24v2.19a.57.57,0,0,1-.11.36,1.37,1.37,0,0,1-.29.24,2.22,2.22,0,0,1-.69.25,3.87,3.87,0,0,1-.94.1,2.67,2.67,0,0,1-1.52-.37,1.21,1.21,0,0,1-.56-1.09,1.18,1.18,0,0,1,.41-1,2.15,2.15,0,0,1,1.19-.42l1.32-.13v-.17a.57.57,0,0,0-.26-.53,1.35,1.35,0,0,0-.75-.17,3,3,0,0,0-.73.09,3.42,3.42,0,0,0-.64.22.7.7,0,0,1-.18-.2.68.68,0,0,1-.07-.28.5.5,0,0,1,.09-.31A.83.83,0,0,1,104,50a3.38,3.38,0,0,1,.63-.17A4.4,4.4,0,0,1,105.35,49.73Zm0,3.86a2.76,2.76,0,0,0,.51-.05,1.07,1.07,0,0,0,.33-.13V52.35l-.93.09a1.38,1.38,0,0,0-.59.17.44.44,0,0,0-.2.4.5.5,0,0,0,.21.43A1.14,1.14,0,0,0,105.39,53.59Z"/><path class="cls-1" d="M111.77,54.35l-.23,0-.33,0a.86.86,0,0,1-.5-.12.51.51,0,0,1-.16-.44v-3a.69.69,0,0,1,.11-.42,1,1,0,0,1,.34-.31,2.85,2.85,0,0,1,.74-.29,3.59,3.59,0,0,1,1-.11c.61,0,.91.18.91.56a.73.73,0,0,1,0,.25,1.14,1.14,0,0,1-.09.19,2.79,2.79,0,0,0-.55,0,2.61,2.61,0,0,0-.64.08,2,2,0,0,0-.51.19Z"/><path class="cls-1" d="M118,49.73a2.62,2.62,0,0,1,1.51.39,1.41,1.41,0,0,1,.57,1.24v2.19a.52.52,0,0,1-.12.36,1.16,1.16,0,0,1-.29.24,2.25,2.25,0,0,1-.68.25,4,4,0,0,1-.95.1,2.69,2.69,0,0,1-1.52-.37,1.2,1.2,0,0,1-.55-1.09,1.15,1.15,0,0,1,.41-1,2.12,2.12,0,0,1,1.19-.42l1.32-.13v-.17a.58.58,0,0,0-.27-.53,1.29,1.29,0,0,0-.74-.17,3.06,3.06,0,0,0-.74.09,3.32,3.32,0,0,0-.63.22.7.7,0,0,1-.18-.2.55.55,0,0,1-.07-.28.5.5,0,0,1,.09-.31.88.88,0,0,1,.29-.22,3.49,3.49,0,0,1,.64-.17A4.36,4.36,0,0,1,118,49.73Zm0,3.86a2.59,2.59,0,0,0,.51-.05,1,1,0,0,0,.34-.13V52.35l-.94.09a1.33,1.33,0,0,0-.58.17.43.43,0,0,0-.21.4.5.5,0,0,0,.21.43A1.16,1.16,0,0,0,118,53.59Z"/><path class="cls-1" d="M128.44,53.4a.9.9,0,0,0,.53.13,1.24,1.24,0,0,0,.33,0,1.32,1.32,0,0,0,.3-.09.59.59,0,0,1,.13.18.55.55,0,0,1-.2.72,1.45,1.45,0,0,1-.84.19,1.88,1.88,0,0,1-1.2-.34,1.28,1.28,0,0,1-.44-1.11V48.68l.22,0,.33,0a.8.8,0,0,1,.49.12.51.51,0,0,1,.16.44V50h1.42a1.29,1.29,0,0,1,.09.2,1.17,1.17,0,0,1,0,.27.49.49,0,0,1-.12.36.41.41,0,0,1-.31.11h-1.12V53A.52.52,0,0,0,128.44,53.4Z"/><path class="cls-1" d="M137.09,52.11a2.82,2.82,0,0,1-.17,1,2,2,0,0,1-.48.75,2.06,2.06,0,0,1-.74.48,2.76,2.76,0,0,1-1,.17,2.7,2.7,0,0,1-1-.17,2,2,0,0,1-1.22-1.22,2.87,2.87,0,0,1-.17-1,2.78,2.78,0,0,1,.17-1,1.94,1.94,0,0,1,.48-.75,2.1,2.1,0,0,1,.75-.48,3,3,0,0,1,1.93,0,2.1,2.1,0,0,1,.75.48,2.19,2.19,0,0,1,.48.76A2.76,2.76,0,0,1,137.09,52.11Zm-2.37-1.44a1,1,0,0,0-.82.38,2.08,2.08,0,0,0,0,2.12,1.1,1.1,0,0,0,1.65,0,1.73,1.73,0,0,0,.29-1.06,1.65,1.65,0,0,0-.3-1.06A1,1,0,0,0,134.72,50.67Z"/><path class="cls-1" d="M144.24,53.48a.64.64,0,0,1-.09.36,1.24,1.24,0,0,1-.29.25,2.77,2.77,0,0,1-.64.28,2.84,2.84,0,0,1-.92.13,2.75,2.75,0,0,1-1.83-.58,2.22,2.22,0,0,1-.68-1.79,2.91,2.91,0,0,1,.18-1.08,2.1,2.1,0,0,1,.5-.75,2,2,0,0,1,.73-.43,2.77,2.77,0,0,1,.92-.14,1.94,1.94,0,0,1,.49.05,2.08,2.08,0,0,1,.42.13V48.19a.8.8,0,0,1,.22,0,1.69,1.69,0,0,1,.33,0,.75.75,0,0,1,.5.13.49.49,0,0,1,.16.43ZM143,50.87a2.18,2.18,0,0,0-.34-.14,1.4,1.4,0,0,0-.41-.06,1.25,1.25,0,0,0-.9.35,1.87,1.87,0,0,0,0,2.18,1.25,1.25,0,0,0,.93.34,1.35,1.35,0,0,0,.43-.06,1.26,1.26,0,0,0,.31-.13Z"/><path class="cls-1" d="M151.91,52.11a2.82,2.82,0,0,1-.17,1,2,2,0,0,1-.48.75,2,2,0,0,1-.74.48,2.7,2.7,0,0,1-1,.17,2.76,2.76,0,0,1-1-.17,2.18,2.18,0,0,1-.74-.47,2.24,2.24,0,0,1-.48-.75,2.87,2.87,0,0,1-.17-1,2.78,2.78,0,0,1,.17-1,2.08,2.08,0,0,1,.49-.75,2,2,0,0,1,.74-.48,3,3,0,0,1,1.93,0,2.1,2.1,0,0,1,.75.48,2.06,2.06,0,0,1,.48.76A2.76,2.76,0,0,1,151.91,52.11Zm-2.36-1.44a1,1,0,0,0-.82.38,1.65,1.65,0,0,0-.3,1.06,1.71,1.71,0,0,0,.29,1.06,1,1,0,0,0,.83.37,1,1,0,0,0,.82-.37,1.67,1.67,0,0,0,.3-1.06,1.65,1.65,0,0,0-.3-1.06A1,1,0,0,0,149.55,50.67Z"/><path class="cls-1" d="M158.39,53.09a1.22,1.22,0,0,1-.5,1,2.41,2.41,0,0,1-1.47.38,3.84,3.84,0,0,1-.71-.06,2.35,2.35,0,0,1-.56-.16,1.08,1.08,0,0,1-.37-.27.51.51,0,0,1-.13-.35.62.62,0,0,1,.08-.31.77.77,0,0,1,.22-.22,3.26,3.26,0,0,0,.62.31,2.26,2.26,0,0,0,.81.13,1.07,1.07,0,0,0,.6-.13.38.38,0,0,0,.21-.35c0-.26-.2-.43-.58-.52l-.54-.12A2.33,2.33,0,0,1,155,52a1.15,1.15,0,0,1-.34-.87,1.22,1.22,0,0,1,.5-1,2.23,2.23,0,0,1,1.41-.38,3.26,3.26,0,0,1,.64.05,1.71,1.71,0,0,1,.51.15,1.14,1.14,0,0,1,.34.24.47.47,0,0,1,.12.32.55.55,0,0,1-.08.29.63.63,0,0,1-.18.21l-.23-.12-.31-.1-.35-.08a2.43,2.43,0,0,0-.38,0,1.3,1.3,0,0,0-.58.11.37.37,0,0,0-.22.34.34.34,0,0,0,.12.27,1.06,1.06,0,0,0,.42.17l.48.11a2.37,2.37,0,0,1,1.15.53A1.2,1.2,0,0,1,158.39,53.09Z"/><path class="cls-1" d="M28.1,32.63l1.07-.76A7.18,7.18,0,0,1,32,30.7q1.84,0,4,3.27a6.79,6.79,0,0,1,1.31,3.28,2.8,2.8,0,0,1-.8,2,9.49,9.49,0,0,1-1.87,1.47l-2,1.22a21.73,21.73,0,0,1-4,1.52,19.67,19.67,0,0,1-5.86.94,23.45,23.45,0,0,1-5.7-.73,24.5,24.5,0,0,1-5.94-2.46A24.57,24.57,0,0,1,5.58,37a19.35,19.35,0,0,1-4-6.37A22.29,22.29,0,0,1,0,22.22,21.34,21.34,0,0,1,1.54,14a18.91,18.91,0,0,1,4-6.14A22.6,22.6,0,0,1,11,3.75,24.38,24.38,0,0,1,22.69.59a20.22,20.22,0,0,1,5.68.85,20,20,0,0,1,4.36,1.73L34.16,4c.71.43,1.27.78,1.66,1.06a3.51,3.51,0,0,1,1.55,2.77,5.55,5.55,0,0,1-1.25,3.25Q33.81,14.21,32,14.21a6.3,6.3,0,0,1-3-1.28,10.33,10.33,0,0,0-6.65-2,13.15,13.15,0,0,0-7.61,2.63,10.06,10.06,0,0,0-3,3.63,11.53,11.53,0,0,0-1.18,5.29,11.53,11.53,0,0,0,1.18,5.29,10.31,10.31,0,0,0,3,3.68A12.83,12.83,0,0,0,22.28,34a12.59,12.59,0,0,0,3.47-.46A9.42,9.42,0,0,0,28.1,32.63Z"/><path class="cls-1" d="M50.38,6.21a11.3,11.3,0,0,0-.3-3C49.57,1.72,47.92,1,45.15,1c-2.53,0-4.08.53-4.63,1.58A4.64,4.64,0,0,0,40,4.13a16.59,16.59,0,0,0-.09,2v9.46H50.38Z"/><path class="cls-1" d="M39.86,38.65a8.92,8.92,0,0,0,.36,3c.47,1.48,2.1,2.22,4.87,2.22H66.48a6.83,6.83,0,0,0,3.09-.58,2,2,0,0,0,1-1.29,8.72,8.72,0,0,0,.29-2.48A8.85,8.85,0,0,0,70.58,37a2.24,2.24,0,0,0-1.19-1.37,6.92,6.92,0,0,0-2.85-.44H50.38V29.75H39.86Z"/><path class="cls-1" d="M83.88,6.21a11.82,11.82,0,0,0-.29-3Q82.81,1,78.66,1c-2.54,0-4.08.53-4.64,1.58a4.59,4.59,0,0,0-.56,1.55,16.59,16.59,0,0,0-.09,2v9.46H83.88Z"/><path class="cls-1" d="M73.37,38.65a9.26,9.26,0,0,0,.35,3c.48,1.48,2.1,2.22,4.88,2.22,2.53,0,4.08-.52,4.63-1.57a4.4,4.4,0,0,0,.56-1.52,16.48,16.48,0,0,0,.09-2v-9H73.37Z"/><path class="cls-1" d="M88,30.67A19.35,19.35,0,0,0,92,37a24.57,24.57,0,0,0,5.5,4.21,24.5,24.5,0,0,0,5.94,2.46,23.45,23.45,0,0,0,5.7.73A19.6,19.6,0,0,0,115,43.5,21.43,21.43,0,0,0,119,42L121,40.76a9.28,9.28,0,0,0,1.88-1.47,2.8,2.8,0,0,0,.8-2A6.79,6.79,0,0,0,122.38,34c-1.43-2.18-2.75-3.27-4-3.27a7.07,7.07,0,0,0-2.85,1.17l-1.07.76a9.59,9.59,0,0,1-2.35.94,12.65,12.65,0,0,1-3.47.46,12.83,12.83,0,0,1-7.55-2.57,8.89,8.89,0,0,1-1.76-1.71H87.61C87.72,30.06,87.83,30.37,88,30.67Z"/><path class="cls-1" d="M101.05,13.57a13.15,13.15,0,0,1,7.61-2.63,10.33,10.33,0,0,1,6.65,2,6.3,6.3,0,0,0,3,1.28c1.23,0,2.61-1.05,4.16-3.15a5.55,5.55,0,0,0,1.25-3.25A3.51,3.51,0,0,0,122.2,5c-.39-.28-1-.63-1.66-1.06l-1.43-.81a20,20,0,0,0-4.36-1.73,20.32,20.32,0,0,0-5.68-.85,24.38,24.38,0,0,0-11.7,3.16,22.85,22.85,0,0,0-5.5,4.06,19.06,19.06,0,0,0-4,6.14c-.22.54-.42,1.09-.59,1.66H99A8.86,8.86,0,0,1,101.05,13.57Z"/><path class="cls-1" d="M132.12,18.39c2.54,0,4.08-.52,4.64-1.57a4.85,4.85,0,0,0,.56-1.52,16.48,16.48,0,0,0,.09-2.05V5.62a11.3,11.3,0,0,0-.3-3C136.6,1.13,135,.41,132.18.41c-2.53,0-4.08.53-4.63,1.58A4.64,4.64,0,0,0,127,3.54a16.59,16.59,0,0,0-.09,2v7.63a8.92,8.92,0,0,0,.36,3Q128,18.39,132.12,18.39Z"/><path class="cls-1" d="M132.12,43.85c2.54,0,4.08-.53,4.64-1.58a4.77,4.77,0,0,0,.56-1.52,16.48,16.48,0,0,0,.09-2V31.07a11.35,11.35,0,0,0-.3-3c-.51-1.44-2.16-2.16-4.93-2.16-2.53,0-4.08.52-4.63,1.58A4.56,4.56,0,0,0,127,29a16.4,16.4,0,0,0-.09,2v7.64a9,9,0,0,0,.36,3Q128,43.85,132.12,43.85Z"/><path class="cls-1" d="M150.56,2.15A17.6,17.6,0,0,1,152.05.78a4.78,4.78,0,0,1,1.5-.69c1.13-.36,2.6.36,4.39,2.16q2.94,2.94,2,5A11.5,11.5,0,0,1,158,9.62l-8.71,8.71a15.67,15.67,0,0,1-1.51,1.38,4.59,4.59,0,0,1-1.47.68q-1.71.52-4.39-2.16-2.94-2.94-1.88-5a9,9,0,0,1,1.86-2.36Z"/><path class="cls-1" d="M158.25,34.27a16.17,16.17,0,0,1,1.37,1.49,4.6,4.6,0,0,1,.69,1.49c.36,1.14-.36,2.6-2.16,4.4q-2.94,2.94-5,2a11.17,11.17,0,0,1-2.36-1.94L142.07,33a17,17,0,0,1-1.38-1.51A4.81,4.81,0,0,1,140,30q-.52-1.71,2.16-4.4c2-2,3.64-2.58,5-1.87a9.11,9.11,0,0,1,2.36,1.85Z"/><path class="cls-1" d="M22.94,19.06h.31a.61.61,0,0,1,.23.09.37.37,0,0,1,.19.24,2,2,0,0,1,0,.9.42.42,0,0,1-.19.24,1,1,0,0,1-.24.08H20.16v.9h2.1a1,1,0,0,1,.24.08c.15.09.23.33.23.7s-.11.66-.34.74a1.67,1.67,0,0,1-.46.05H20.16v1.67a2.37,2.37,0,0,1,0,.31.61.61,0,0,1-.09.23c-.08.16-.32.24-.7.24s-.67-.11-.74-.33a1.35,1.35,0,0,1-.05-.46V19.84a.84.84,0,0,1,.17-.62,1,1,0,0,1,.65-.16Z"/><path class="cls-1" d="M28.82,19.84a2.55,2.55,0,0,1,0-.31.76.76,0,0,1,.09-.23c.08-.16.32-.24.7-.24s.67.11.75.33a1.76,1.76,0,0,1,0,.46v4.93a2.37,2.37,0,0,1,0,.31.79.79,0,0,1-.08.23c-.09.16-.32.24-.71.24s-.67-.11-.74-.33a1.67,1.67,0,0,1-.05-.46Z"/><path class="cls-1" d="M39.92,19.33a.44.44,0,0,1,.25-.21,1.75,1.75,0,0,1,.43-.05,1.66,1.66,0,0,1,.42,0,.7.7,0,0,1,.23.11.32.32,0,0,1,.11.19,1.21,1.21,0,0,1,.06.45v4.92a2,2,0,0,1,0,.31.58.58,0,0,1-.08.23c-.09.16-.32.24-.71.24a1.38,1.38,0,0,1-.48,0,.48.48,0,0,1-.23-.17q-2-2.65-2.67-3.48v2.92a2.37,2.37,0,0,1,0,.31.61.61,0,0,1-.09.23c-.08.16-.32.24-.7.24s-.6-.08-.69-.24a.75.75,0,0,1-.08-.24,2.16,2.16,0,0,1,0-.31V19.82a1,1,0,0,1,.09-.49.46.46,0,0,1,.26-.21,1.72,1.72,0,0,1,.44-.05,1.3,1.3,0,0,1,.43.05.56.56,0,0,1,.22.11l.21.23c1.26,1.7,2.11,2.82,2.54,3.36v-3A1,1,0,0,1,39.92,19.33Z"/><path class="cls-1" d="M50.46,19.52l2.44,4.95a1.14,1.14,0,0,1,.15.46c0,.21-.17.4-.52.57a1.24,1.24,0,0,1-.49.15.42.42,0,0,1-.28-.08.55.55,0,0,1-.17-.17l-.14-.26-.47-1H48.49l-.47,1-.14.26a1.2,1.2,0,0,1-.16.16.47.47,0,0,1-.29.08,1.24,1.24,0,0,1-.49-.15c-.34-.16-.52-.35-.52-.56a1.14,1.14,0,0,1,.15-.46l2.44-5a.94.94,0,0,1,.3-.33.85.85,0,0,1,.43-.12A.76.76,0,0,1,50.46,19.52Zm-.73,2.13-.59,1.22h1.2Z"/><path class="cls-1" d="M62.32,19.33a.49.49,0,0,1,.26-.21,1.75,1.75,0,0,1,.43-.05,1.66,1.66,0,0,1,.42,0,.7.7,0,0,1,.23.11.32.32,0,0,1,.11.19,1.21,1.21,0,0,1,.06.45v4.92a2,2,0,0,1,0,.31.58.58,0,0,1-.08.23c-.09.16-.32.24-.71.24a1.38,1.38,0,0,1-.48,0,.48.48,0,0,1-.23-.17q-2-2.65-2.67-3.48v2.92a2.37,2.37,0,0,1,0,.31.61.61,0,0,1-.09.23c-.08.16-.32.24-.7.24s-.6-.08-.69-.24a.75.75,0,0,1-.08-.24,2.16,2.16,0,0,1,0-.31V19.82a1,1,0,0,1,.09-.49.46.46,0,0,1,.26-.21,1.72,1.72,0,0,1,.44-.05,1.3,1.3,0,0,1,.43.05.56.56,0,0,1,.22.11l.21.23c1.26,1.7,2.11,2.82,2.54,3.36v-3A1.18,1.18,0,0,1,62.32,19.33Z"/><path class="cls-1" d="M73.19,23.86l.16-.12a1.16,1.16,0,0,1,.43-.17c.19,0,.39.16.61.49a1,1,0,0,1,.19.5.41.41,0,0,1-.12.31,1.24,1.24,0,0,1-.28.22l-.31.19a2.91,2.91,0,0,1-.61.23,2.84,2.84,0,0,1-.89.14,3.35,3.35,0,0,1-.87-.11,3.73,3.73,0,0,1-.9-.37,4,4,0,0,1-.83-.64,2.83,2.83,0,0,1-.61-1,3.35,3.35,0,0,1-.24-1.28A3.22,3.22,0,0,1,69.16,21a2.76,2.76,0,0,1,.6-.93,3.36,3.36,0,0,1,.83-.61A3.69,3.69,0,0,1,72.37,19a2.9,2.9,0,0,1,.86.13,2.73,2.73,0,0,1,.66.26l.22.12.25.16a.53.53,0,0,1,.23.42.85.85,0,0,1-.19.5c-.23.32-.44.47-.63.47a.94.94,0,0,1-.46-.19,1.58,1.58,0,0,0-1-.3,2,2,0,0,0-1.15.4,1.47,1.47,0,0,0-.45.55,1.87,1.87,0,0,0,0,1.6,1.43,1.43,0,0,0,.46.56,1.94,1.94,0,0,0,1.14.39,1.79,1.79,0,0,0,.53-.07A1.49,1.49,0,0,0,73.19,23.86Z"/><path class="cls-1" d="M79.69,19.84a2.55,2.55,0,0,1,0-.31.76.76,0,0,1,.09-.23c.08-.16.32-.24.7-.24s.67.11.75.33a1.76,1.76,0,0,1,0,.46v4.93a2.37,2.37,0,0,1,0,.31.79.79,0,0,1-.08.23c-.09.16-.32.24-.71.24s-.67-.11-.74-.33a1.67,1.67,0,0,1,0-.46Z"/><path class="cls-1" d="M88.11,24h2.78l.31,0a.67.67,0,0,1,.24.08q.24.12.24.69c0,.42-.11.66-.33.73a1.42,1.42,0,0,1-.47,0H87.31c-.42,0-.67-.11-.74-.33a1.35,1.35,0,0,1,0-.46V19.84a.84.84,0,0,1,.17-.62,1,1,0,0,1,.65-.16H91.2a.72.72,0,0,1,.24.09q.24.12.24.69c0,.41-.11.66-.33.73a1.75,1.75,0,0,1-.47.05H88.11v.9h2.1a1,1,0,0,1,.24.08c.16.09.24.32.24.7s-.11.65-.34.72a1.37,1.37,0,0,1-.47.06H88.11Z"/><path class="cls-1" d="M101.84,24.46a1.39,1.39,0,0,1,.13.47c0,.22-.18.41-.56.56a1.12,1.12,0,0,1-.46.13.46.46,0,0,1-.29-.09.55.55,0,0,1-.17-.17c-.06-.11-.29-.65-.7-1.61l-.28,0H98.37v1a2.55,2.55,0,0,1,0,.31.72.72,0,0,1-.09.24c-.08.16-.31.24-.7.24s-.67-.11-.74-.33a1.72,1.72,0,0,1,0-.46V19.84a2.55,2.55,0,0,1,0-.31.76.76,0,0,1,.09-.23c.08-.16.32-.24.7-.24h2a2.51,2.51,0,0,1,1.54.57,2.12,2.12,0,0,1,.6.74,2.45,2.45,0,0,1,.23,1.05,2.19,2.19,0,0,1-.68,1.65C101.36,23.38,101.56,23.85,101.84,24.46ZM98.37,22.2h1.16a.86.86,0,0,0,.52-.19.8.8,0,0,0,0-1.18.88.88,0,0,0-.54-.2H98.37Z"/><path class="cls-1" d="M108.55,25.51a4,4,0,0,1-1.17-.13,3.32,3.32,0,0,1-1.57-1,3.32,3.32,0,0,1,.62-4.94,3.08,3.08,0,0,1,1.51-.55,6.56,6.56,0,0,1,1.77,0,3.21,3.21,0,0,1,1.93,1.17,3.27,3.27,0,0,1,.66,1.41,3.19,3.19,0,0,1-.11,1.76,3.29,3.29,0,0,1-1.87,2,3.49,3.49,0,0,1-1.46.25ZM105.45,21a.51.51,0,0,0-.07.15,3,3,0,0,0-.15,1.28,2.15,2.15,0,0,0,.22.86,1.88,1.88,0,0,0,.3.58,3,3,0,0,0,2.46,1.35,2.93,2.93,0,0,0,1.87-.56,3.07,3.07,0,0,0-.17-5.13,3,3,0,0,0-2.07-.43,3,3,0,0,0-2,1.15A2.63,2.63,0,0,0,105.45,21Zm6.43,1.08h-.21s-.06,0,0,.05a2.81,2.81,0,0,1-.07.65s0,.06,0,.06H112s0,0,0,0a3,3,0,0,0,.07-.66q0-.08-.06-.06Zm-.73,1.77h.44a.1.1,0,0,0,.07,0,3.76,3.76,0,0,0,.32-.67c0-.05,0-.06,0-.06h-.39c-.05,0-.07,0-.08.07a3,3,0,0,1-.15.38Zm.71-2H112c.07,0,.09,0,.08-.09a4.34,4.34,0,0,0-.14-.6.07.07,0,0,0-.07,0h-.39c-.06,0-.07,0,0,.07a2.66,2.66,0,0,1,.12.56c0,.09,0,.11.12.1Zm-.25-1a1,1,0,0,1,.17,0c.07,0,.08,0,0-.08s-.16-.28-.24-.42a.17.17,0,0,0-.18-.09,2.61,2.61,0,0,1-.28,0s-.08,0,0,.06a1.52,1.52,0,0,1,.18.33A.26.26,0,0,0,111.61,20.92Zm-.16,3.2H111a.09.09,0,0,0-.06,0,3.59,3.59,0,0,1-.32.38H111a.07.07,0,0,0,.06,0A3.32,3.32,0,0,0,111.45,24.12Zm-.88-4.38v0l.29.31a.05.05,0,0,0,0,0h.42a3.6,3.6,0,0,0-.36-.33l0,0Zm.16,5h-.3a.11.11,0,0,0-.08,0,4.85,4.85,0,0,1-.61.39A2.77,2.77,0,0,0,110.73,24.77Zm-.19-5.27a1.91,1.91,0,0,0-.73-.28,1.61,1.61,0,0,1,.31.19A.5.5,0,0,0,110.54,19.5Z"/><path class="cls-1" d="M108.29,24.92A2.74,2.74,0,1,1,111,22.19,2.73,2.73,0,0,1,108.29,24.92Zm0-.23a2.5,2.5,0,1,0-2.48-2.52A2.49,2.49,0,0,0,108.29,24.69Z"/><path class="cls-1" d="M108.25,22.58a.8.8,0,0,0,0-.31c0-.09-.19-.08-.29-.12a.64.64,0,0,1-.46-.74.72.72,0,0,1,.63-.59c.09,0,.15,0,.14-.14s.09-.05.14-.05.1,0,.09.06,0,.13.13.14a1.32,1.32,0,0,1,.56.21s0,.05,0,.09l0,0c0,.07-.09.18-.16.21s-.16-.06-.24-.09c-.28-.12-.28-.12-.28.17a.94.94,0,0,0,0,.38c0,.1.21.09.33.14a.64.64,0,0,1,.45.74.71.71,0,0,1-.6.59h-.06c-.12,0-.16.06-.14.17s0,.11-.12.11-.13,0-.11-.11,0-.17-.16-.19a1.35,1.35,0,0,1-.67-.32s-.05,0,0-.08h0c.07-.08.12-.2.21-.23s.15.1.24.14.25.16.35.12S108.24,22.7,108.25,22.58Zm.24-.27c0,.19,0,.36,0,.54s0,.1.11.07l.11-.05a.25.25,0,0,0,.14-.26.28.28,0,0,0-.16-.23Zm-.23-.82h0v-.24c0-.05,0-.06-.07-.05a.33.33,0,0,0-.27.25q0,.19.21.3c.12.05.13.05.13-.08Z"/><circle class="cls-1" cx="138.35" cy="22.19" r="1.94"/></g></g></svg>