<svg xmlns="http://www.w3.org/2000/svg" viewBox="0 0 276.18 116.54"><defs><style>.cls-1{font-size:14.14px;font-family:Charcoal;}.cls-1,.cls-2{fill:#ff5200;}</style></defs><g id="Capa_2" data-name="Capa 2"><g id="Capa_1-2" data-name="Capa 1"><text class="cls-1" transform="translate(89.76 110.99)">Pensando en ti</text><path class="cls-2" d="M64.59,60.46l-.58.65C62.31,63,60.47,65.25,58.27,68q-.26.33-.57.69a7.67,7.67,0,0,0-1.45,2.15,16.71,16.71,0,0,0-.2,3v.65l9.06-4c-.07-2.59-.47-7.39-.47-8.63,0-.53,0-1,0-1.46"/><path class="cls-2" d="M274.53,0h-28.7a1.67,1.67,0,0,0-1.65,1.69,1.66,1.66,0,0,0,1.65,1.68h27V28.58a1.66,1.66,0,1,0,3.31,0V1.69A1.67,1.67,0,0,0,274.53,0"/><polygon class="cls-2" points="88.09 77.66 96.03 77.66 96.03 73.54 88.09 73.54 88.09 66.23 98.31 66.23 98.31 62.17 82.07 62.17 82.07 89.41 99.04 89.41 99.04 85.35 88.09 85.35 88.09 77.66"/><path class="cls-2" d="M109.44,68.27a10.44,10.44,0,0,0-7.7,2.83,10.18,10.18,0,0,0-2.84,7.53v.88c0,3.46,1,6,2.9,7.78a11.3,11.3,0,0,0,7.8,2.59,9.58,9.58,0,0,0,3.44-.63,8.61,8.61,0,0,0,2-.92V84.39a6.3,6.3,0,0,1-2.14,1,10.37,10.37,0,0,1-3.22.51,4.13,4.13,0,0,1-3.57-1.52c-.74-1-1.1-2.74-1.1-5.18v-.38a8.57,8.57,0,0,1,1.36-5.14,4.54,4.54,0,0,1,3.93-1.88,7.61,7.61,0,0,1,2.73.48,6,6,0,0,1,2,1.18V69.85a5.45,5.45,0,0,0-2.13-1.08,11,11,0,0,0-3.46-.5"/><path class="cls-2" d="M145.63,65.77a1.75,1.75,0,0,1,1.65-.72,3.38,3.38,0,0,1,1.37.23,5.89,5.89,0,0,1,1.07.65l1.49-3.08a7.92,7.92,0,0,0-2.29-1,10.15,10.15,0,0,0-2.76-.37,6.4,6.4,0,0,0-4.81,1.79,6.7,6.7,0,0,0-1.75,4.91v.6h-2.81v3.16h2.7V89.26h5.67V72H149v-3.2h-3.82V68a4.73,4.73,0,0,1,.41-2.22"/><path class="cls-2" d="M131.12,79.52c0,2.6-.35,4.47-1.06,5.59a3.75,3.75,0,0,1-3.43,1.69q-2.89,0-3.69-1.56c-.53-1-.79-3-.79-5.78V79c0-2.78.29-4.72.88-5.8s1.79-1.62,3.6-1.62c2,0,3.19.61,3.71,1.82a15.12,15.12,0,0,1,.78,5.6Zm-4.35-10.86q-5,0-7.59,2.8a10.23,10.23,0,0,0-2.59,7.23v1.17q0,4.76,2.78,7.29a11.67,11.67,0,0,0,14.54,0q2.76-2.54,2.76-7.36v-1.1a10.42,10.42,0,0,0-2.51-7.19c-1.67-1.9-4.13-2.84-7.39-2.84"/><path class="cls-2" d="M162.51,83.33a4.31,4.31,0,0,1-1.73,1.43,5.53,5.53,0,0,1-2.24.45,2.43,2.43,0,0,1-1.62-.55,2.77,2.77,0,0,1-.66-2.17V68.59h-5.54V83q0,3.7,1.35,5.16a4.75,4.75,0,0,0,3.69,1.45,7.38,7.38,0,0,0,4.2-1.14,10.14,10.14,0,0,0,2.68-2.5l.1,3.23h5.31V68.59h-5.54Z"/><path class="cls-2" d="M178.33,62.7h-3.55l-1.9,6.82-2.65.14v2.92h2.44V82.73a7.48,7.48,0,0,0,1.63,5.19,5.71,5.71,0,0,0,4.44,1.81,21,21,0,0,0,2.6-.18,8.63,8.63,0,0,0,2.23-.56v-3.2a9.8,9.8,0,0,1-1.24.3,9.13,9.13,0,0,1-1.4.11,2.4,2.4,0,0,1-2.06-.74,4.08,4.08,0,0,1-.54-2.35V72.61h5.4V69.48h-5.4Z"/><path class="cls-2" d="M198.28,83.72a4.38,4.38,0,0,1-1.74,1.42,5.34,5.34,0,0,1-2.24.46,2.5,2.5,0,0,1-1.62-.55,2.8,2.8,0,0,1-.65-2.17V69h-5.55V83.4q0,3.7,1.35,5.15A4.79,4.79,0,0,0,191.52,90a7.36,7.36,0,0,0,4.2-1.14,10.31,10.31,0,0,0,2.68-2.5l.1,3.22h5.32V69h-5.54Z"/><path class="cls-2" d="M212.9,73.86a2.55,2.55,0,0,1,1.67-.56,1.46,1.46,0,0,1,1.39.63,2.91,2.91,0,0,1,.36,1.49h5.11a6.81,6.81,0,0,0-.82-4.94,4.36,4.36,0,0,0-3.76-1.7,4.64,4.64,0,0,0-2.92,1,6.84,6.84,0,0,0-2,2.69l-.1-3.24h-5.32V89.68H212V75a2.54,2.54,0,0,1,.88-1.17"/><path class="cls-2" d="M229.3,85.34q-.8-1.57-.8-5.78v-.5q0-4.19.89-5.8c.59-1.08,1.79-1.62,3.59-1.62,2,0,3.2.61,3.72,1.82a15.08,15.08,0,0,1,.78,5.6v.56c0,2.6-.35,4.47-1.06,5.59A3.75,3.75,0,0,1,233,86.9c-1.92,0-3.15-.52-3.68-1.56m11,1.91Q243,84.72,243,79.89v-1.1a10.42,10.42,0,0,0-2.51-7.19c-1.67-1.9-4.13-2.84-7.39-2.84s-5.86.93-7.59,2.8A10.25,10.25,0,0,0,223,78.79V80q0,4.77,2.78,7.3a11.67,11.67,0,0,0,14.54,0"/><path class="cls-2" d="M89.62,51.26c0,1.87-.89,2.8-2.66,2.8H85.63V48.64h1.15c1.89,0,2.84.87,2.84,2.62m-4-8H86.8c1.28,0,1.92.57,1.92,1.7s-.63,1.65-1.9,1.65H85.63Zm6.3.88q0-3.06-4.23-3.06H82.35V56.23H87.6a5.91,5.91,0,0,0,3.85-1.16A4.44,4.44,0,0,0,93,51.43a4.52,4.52,0,0,0-.88-2.86,3.77,3.77,0,0,0-2.6-1.43,2.7,2.7,0,0,0,2.43-3"/><path class="cls-2" d="M101.83,52.38a2,2,0,0,1-.52,1.43,1.83,1.83,0,0,1-1.39.54,1.73,1.73,0,0,1-2-2v-.32c0-1.43.65-2.15,2-2.15s1.93.71,1.93,2.13Zm-2.27-4.11a5.57,5.57,0,0,0-3.4.94,3.56,3.56,0,0,0-1.45,3.08v.2c0,2.58,1.28,3.87,3.86,3.87a4.44,4.44,0,0,0,1.87-.38,2.76,2.76,0,0,0,1.39-1.25l.08,1.5h3V48.7a4.32,4.32,0,0,0-1.08-3.24,4.69,4.69,0,0,0-3.29-1,10.92,10.92,0,0,0-4.13.78v2a6.59,6.59,0,0,1,3.34-.83,2.8,2.8,0,0,1,1.37.31,1.18,1.18,0,0,1,.71,1.11V49a3.21,3.21,0,0,0-2.27-.68"/><path class="cls-2" d="M117.76,56.23V48.15q0-3.67-3.1-3.68a5,5,0,0,0-2.2.5,3.15,3.15,0,0,0-1.57,1.57l-.06-1.84h-3.07V56.23H111V48a2.63,2.63,0,0,1,2.11-1,1.62,1.62,0,0,1,1,.31,1.08,1.08,0,0,1,.48.92v8.08Z"/><path class="cls-2" d="M124.38,47.63a2.62,2.62,0,0,1,2.37-1.23,3.85,3.85,0,0,1,2.7.93v-2a3.22,3.22,0,0,0-1.51-.68,7.62,7.62,0,0,0-1.68-.2,6.06,6.06,0,0,0-4.33,1.53,5.56,5.56,0,0,0-1.67,4.26v.49A5.6,5.6,0,0,0,121.9,55a6.37,6.37,0,0,0,4.46,1.45,6.88,6.88,0,0,0,1.61-.24,4,4,0,0,0,1.48-.62v-2.2a3.58,3.58,0,0,1-1.45.64,7,7,0,0,1-1.61.22,2.3,2.3,0,0,1-2.21-1.14,5.76,5.76,0,0,1-.45-2.61v-.21a5,5,0,0,1,.65-2.69"/><path class="cls-2" d="M134.82,50.36q0-4,2.46-4t2.49,4v.17q0,4-2.49,4a2.08,2.08,0,0,1-2.09-1.35,7.53,7.53,0,0,1-.37-2.69Zm2.48,6.12A5.82,5.82,0,0,0,141.53,55a5.58,5.58,0,0,0,1.53-4.18v-.73a5.57,5.57,0,0,0-1.58-4.16,6.58,6.58,0,0,0-8.39,0,5.54,5.54,0,0,0-1.59,4.16v.73A5.49,5.49,0,0,0,133.08,55a5.8,5.8,0,0,0,4.22,1.52"/><path class="cls-2" d="M147.87,49.61h.47c.62,0,.92.25.92.76V51a.66.66,0,0,1-.25.55,1,1,0,0,1-.59.17h-.55Zm0,3.08h.92c1.35,0,2-.59,2-1.76v-.54a1.69,1.69,0,0,0-.54-1.36,2.11,2.11,0,0,0-1.4-.42h-2.53v6.86h1.52Z"/><polygon class="cls-2" points="156.8 51.37 155.32 48.61 153.54 48.61 155.82 52.72 155.82 55.47 157.34 55.47 157.34 52.57 159.59 48.61 158.38 48.61 156.8 51.37"/><polygon class="cls-2" points="169.92 55.48 169.92 48.61 168.91 48.61 166.33 53.61 163.79 48.61 162.67 48.61 162.67 55.48 163.72 55.48 163.72 51.53 165.66 55.48 166.45 55.48 168.52 51.53 168.52 55.48 169.92 55.48"/><polygon class="cls-2" points="177.85 49.63 177.85 48.61 173.74 48.61 173.74 55.47 178.04 55.47 178.04 54.45 175.27 54.45 175.27 52.51 177.28 52.51 177.28 51.48 175.27 51.48 175.27 49.63 177.85 49.63"/><path class="cls-2" d="M66.85,57.33C68,56.15,69.54,55,69.72,53.1a1.06,1.06,0,0,0,0-.53c-1.24-2.5-4.55.76-5.91,1.85-4.19,3.33-8.49,7.43-12.35,10.43a44.63,44.63,0,0,1-3.73,3.26c-.61-.58-11.45-11.82-17.78-15.32-.94-.42-2.81-1.22-3.3,0s1.41,3,2.24,4c1.22,1.44,2.21,2.51,3,3.48,4.54,5.23,9.67,9.84,9.9,19.45a44,44,0,0,1,0,4.79,56.94,56.94,0,0,1-1.28,10.86c5.24-2.19,10.28-4.57,15.44-6.85-.06-2.65-.36-5.06-.32-7.82,0-.83-.31-8.58.11-10a11.76,11.76,0,0,1,2.13-3C60,64.83,62.4,62,64.73,59.41c.4-.43,1.83-1.81,2.12-2.08"/><path class="cls-2" d="M46.18,54.79a5.56,5.56,0,0,1,.83-.18c-.24-.35-.5-.68-.75-1,0,.3-.06.71-.08,1.19"/><path class="cls-2" d="M41.31,45.92a5.45,5.45,0,0,1-.46.38l.25.3h0l0,0,.41-.34c.76-.61,1.53-1.25,2.32-1.94l.45-.39L43.1,42.78a4.42,4.42,0,0,1-.17.65,5.33,5.33,0,0,1-1.62,2.49"/><path class="cls-2" d="M75.92,44.37c1.18-1.23,2.67-2.41,2.78-4.15a1,1,0,0,0-.09-.45c-1.13-2.48-4.49.75-5.73,1.8C69,44.94,65,48.72,61.46,51.9c-1.17,1.1-3.28,3-4.57,4-.32-.3-3.57-3.52-7.34-7.12-.12.16-.25.32-.38.47l-.8,1c-.17.22-.37.45-.56.69a16.16,16.16,0,0,0-1.06,1.36,4.08,4.08,0,0,0-.31.57c.42.55.82,1.12,1.2,1.7h.07a5.2,5.2,0,0,1,.69.07A5.32,5.32,0,0,1,53,59.89a5.37,5.37,0,0,1-1.26,3.45,6.25,6.25,0,0,1-.57.58l0,.36.57-.47c1.77-1.41,3.6-3,5.53-4.67S61.36,55.57,63.4,54l.55-.46c1.29-1.08,3.25-2.74,4.81-2.4l.2.07a1.74,1.74,0,0,1,.55.27c1.4-1.75,2.83-3.46,4.31-5,.48-.49,1.55-1.51,2.1-2.08"/><path class="cls-2" d="M57.23,42.36a4.76,4.76,0,1,0,4.67,4.76,4.71,4.71,0,0,0-4.67-4.76"/><path class="cls-2" d="M30.6,84.29c3.39-1.41,7-3.08,10.52-4.7,0-.23,0-.42,0-.64-.43-7.81-4.19-12.09-8.19-16.58-.16-.17-.31-.35-.46-.52l-.67-.75c0,.28.07.53.07.82s.08,3.38,0,4.78c-.07,4-.53,14.25-1.22,17.59"/><path class="cls-2" d="M16.7,35c-.5,1.25,1.41,3.05,2.24,4,1.22,1.44,2.21,2.5,3,3.48,2.59,3,5.34,5.78,7.29,9.4.32.11.61.23.85.33l.09,0c2.29,1.27,6.42,4.23,13.63,11.17A5.35,5.35,0,0,1,45,55.34a5,5,0,0,1,.6-.33,11.36,11.36,0,0,1,.19-2.07v0a3.09,3.09,0,0,1,.26-.56,4.53,4.53,0,0,1,.34-.55c.46-.67,1.07-1.35,1.53-1.93.27-.35.56-.69.84-1l.38-.47.38-.46c1.76-2.17,3.56-4.32,5.32-6.29.31-.41,1.63-1.77,1.92-2.07,1.33-1.4,3.07-3.13,3.07-4.34a1.06,1.06,0,0,0-.09-.44c-1.15-2.53-4.51.89-5.86,1.85a112.31,112.31,0,0,0-8.64,7.3l-.45.39-.45.4c-.8.7-1.6,1.37-2.38,2l-.43.35,0,0-.44.41a41.55,41.55,0,0,1-3.25,2.82C37.18,49.72,26.33,38.47,20,35c-.94-.42-2.81-1.21-3.3,0"/><path class="cls-2" d="M39.91,46.14a4.68,4.68,0,0,0,.54-.3,4.25,4.25,0,0,0,.47-.37A4.8,4.8,0,0,0,42.45,43a5.36,5.36,0,0,0,.1-.7,3.41,3.41,0,0,0,.05-.46c0-.11,0-.21,0-.32a4.66,4.66,0,1,0-4.64,5.08,4.5,4.5,0,0,0,2-.46"/><path class="cls-2" d="M43.05,59.89a4.67,4.67,0,1,0,4.66-4.76,4.71,4.71,0,0,0-4.66,4.76"/><path class="cls-2" d="M3.28,93a1.66,1.66,0,0,0-1.64-1.67A1.65,1.65,0,0,0,0,93v15.67a1.65,1.65,0,0,0,1.64,1.67H80.18l.58-3.34H3.28Z"/><path class="cls-2" d="M254.77,91.14a1.63,1.63,0,0,0-2.29.36A37,37,0,0,1,222.65,107H204.09v3.34h18.56a40.19,40.19,0,0,0,32.47-16.81,1.7,1.7,0,0,0-.35-2.34"/><path class="cls-2" d="M261.29,13.54h-221C22.64,13.54,6.77,25.59,1.7,42.85a1.68,1.68,0,0,0,1.1,2.08,1.63,1.63,0,0,0,2-1.13C9.5,28,24.07,16.88,40.28,16.88H259.65V43.41a1.64,1.64,0,1,0,3.28,0V15.21a1.65,1.65,0,0,0-1.64-1.67"/></g></g></svg>