<?xml version="1.0" encoding="utf-8"?>
<!-- Generator: Adobe Illustrator 25.2.3, SVG Export Plug-In . SVG Version: 6.00 Build 0)  -->
<svg version="1.1" id="Capa_1" xmlns="http://www.w3.org/2000/svg" xmlns:xlink="http://www.w3.org/1999/xlink" x="0px" y="0px"
	 viewBox="0 0 480.3 1330.1" style="enable-background:new 0 0 480.3 1330.1;" xml:space="preserve">
<style type="text/css">
	.st0{fill:#FFFFFF;}
	.st1{clip-path:url(#SVGID_2_);}
</style>
<g id="Capa_2_1_">
	<g id="Layer_1">
		<path id="SVGID-2" class="st0" d="M42.1,5.5h397.1c21.9,0,39.7,17.8,39.7,39.7v1243.7c0,21.9-17.8,39.7-39.7,39.7H42.1
			c-21.9,0-39.7-17.8-39.7-39.7V45.3C2.4,23.3,20.2,5.5,42.1,5.5z"/>
		<g>
			<defs>
				<path id="SVGID_1_" d="M42.1,5.5h397.1c21.9,0,39.7,17.8,39.7,39.7v1243.7c0,21.9-17.8,39.7-39.7,39.7H42.1
					c-21.9,0-39.7-17.8-39.7-39.7V45.3C2.4,23.3,20.2,5.5,42.1,5.5z"/>
			</defs>
			<clipPath id="SVGID_2_">
				<use xlink:href="#SVGID_1_"  style="overflow:visible;"/>
			</clipPath>
			<g class="st1">
				
					<image style="overflow:visible;" width="2020" height="5566" xlink:href="D8C33E41.jpg"  transform="matrix(0.2491 0 0 0.2491 -10.0728 -28.2568)">
				</image>
			</g>
		</g>
	</g>
</g>
</svg>
