<?xml version="1.0" encoding="utf-8"?>
<!-- Generator: Adobe Illustrator 25.0.1, SVG Export Plug-In . SVG Version: 6.00 Build 0)  -->
<svg version="1.1" id="Capa_1" xmlns="http://www.w3.org/2000/svg" xmlns:xlink="http://www.w3.org/1999/xlink" x="0px" y="0px"
	 viewBox="0 0 33.9 33.8" style="enable-background:new 0 0 33.9 33.8;" xml:space="preserve">
<style type="text/css">
	.st0{fill:#FF4F00;}
</style>
<g id="Headlines">
	<path class="st0" d="M29.8,11c0.6,0,1,0,1.6,0c1.2,0.1,2.2,1.1,2.2,2.3c0,0.8,0,1.6,0,2.4c0,1.2-0.9,2.3-2.2,2.3c0,0-0.1,0-0.1,0
		c-1.1-0.1-2.1,0.4-2.6,1.3C26.8,21.9,24,23,21,23.6c-1.6,0.3-3.3,0.4-4.9,0.4c-0.9,0-1.4-0.4-1.4-1.2s0.5-1.2,1.4-1.2
		c0.6,0,1.2,0,1.8,0c0.5-0.1,1.1,0.2,1.3,0.7c0.1,0.2,0.3,0.3,0.5,0.3c3.2-0.5,6.1-1.5,8.2-4.2c0.4-0.5,0.7-1.2,0.8-1.9
		c0.4-2.6,0.1-5.2-0.8-7.7c-2.4-6.1-9.3-9-15.4-6.5c-4.4,1.8-7.3,6-7.4,10.8c0,1,0,2.1,0,3.1c0,1.5-0.3,1.8-1.8,1.8H2.8
		c-1.3,0-2.4-1-2.4-2.2c0,0,0,0,0,0c0-0.8,0-1.7,0-2.5c0-1.3,1-2.3,2.3-2.3c0,0,0,0,0,0c0.5,0,0.9,0,1.4,0c0.7-3.5,2.7-6.5,5.6-8.5
		C12,1,14.6,0.3,17.3,0.4c3,0.1,5.8,1.2,8.1,3.1C27.7,5.4,29.3,8.1,29.8,11z"/>
	<path class="st0" d="M22.3,24.8c-1.8,1.3-4,1.9-6.2,1.6c-3.9-0.3-7.3-2.8-8.7-6.5c-2-4.1-1.6-9,1.1-12.6c3.1-4.6,9.3-5.9,13.9-2.9
		c1.4,0.9,2.6,2.2,3.4,3.7c1.5,2.5,2,5.3,1.6,8.2c-0.2,0.8-0.5,1.5-1.1,2.1c-1.6,1.6-3.7,2.6-6,2.9c-0.2,0-0.4-0.1-0.6-0.2
		c-0.6-0.3-1.1-0.5-1.7-0.6c-0.7-0.1-1.4-0.1-2.1,0c-1.3-0.1-2.5,0.9-2.5,2.3c0,0,0,0.1,0,0.1c0,1.3,1,2.3,2.3,2.4
		c0.1,0,0.2,0,0.3,0C18,25.2,20.1,25,22.3,24.8z"/>
	<path class="st0" d="M29.7,33.6H4.5c0.2-0.3,0.4-0.5,0.6-0.8c1.9-2.6,4.6-4.5,7.7-5.6c0.4-0.1,0.8-0.1,1.2,0c2.1,0.6,4.3,0.6,6.4,0
		c0.3-0.1,0.7-0.1,1,0c3.3,1.1,6.2,3.2,8.2,6.1C29.7,33.4,29.7,33.5,29.7,33.6z"/>
</g>
</svg>
