<?xml version="1.0" encoding="utf-8"?>
<!-- Generator: Adobe Illustrator 25.0.0, SVG Export Plug-In . SVG Version: 6.00 Build 0)  -->
<svg version="1.1" id="Capa_1" xmlns="http://www.w3.org/2000/svg" xmlns:xlink="http://www.w3.org/1999/xlink" x="0px" y="0px"
	 viewBox="0 0 599.2 458.3" style="enable-background:new 0 0 599.2 458.3;" xml:space="preserve">
<style type="text/css">
	.st0{fill:#FF5000;}
	.st1{clip-path:url(#SVGID_2_);}
	.st2{opacity:0.1;}
	.st3{clip-path:url(#SVGID_4_);}
	.st4{fill:none;stroke:#FFFFFF;stroke-width:34.48;stroke-miterlimit:10;}
	.st5{clip-path:url(#SVGID_6_);}
	.st6{clip-path:url(#SVGID_8_);}
	.st7{fill:none;stroke:#FFFFFF;stroke-width:10.17;stroke-miterlimit:10;}
	.st8{clip-path:url(#SVGID_10_);}
	.st9{fill:none;stroke:#FFFFFF;stroke-width:1.72;stroke-linecap:round;stroke-miterlimit:10;stroke-dasharray:5.17,5.17;}
	.st10{fill:none;stroke:#FFFFFF;stroke-width:1.72;stroke-linecap:round;stroke-miterlimit:10;}
	.st11{fill:#FFFFFF;}
</style>
<g id="Capa_2_1_">
	<g id="Capa_1-2">
		<path class="st0" d="M538,357.5H0V160.1c0-33.8,27.4-61.2,61.2-61.2h538v197.4C599.2,330.1,571.8,357.6,538,357.5"/>
		<g>
			<defs>
				<path id="SVGID_1_" d="M61.2,100.1C27.4,100.1,0,127.5,0,161.3c0,0,0,0,0,0v197.4h538c33.8,0,61.2-27.4,61.2-61.2c0,0,0,0,0,0
					V100.1H61.2z"/>
			</defs>
			<clipPath id="SVGID_2_">
				<use xlink:href="#SVGID_1_"  style="overflow:visible;"/>
			</clipPath>
			<g class="st1">
				<g class="st2">
					<g>
						<defs>
							<rect id="SVGID_3_" x="375.4" y="198.2" width="379.1" height="379.1"/>
						</defs>
						<clipPath id="SVGID_4_">
							<use xlink:href="#SVGID_3_"  style="overflow:visible;"/>
						</clipPath>
						<g class="st3">
							<path class="st4" d="M401.6,387.7c0,90.2,73.1,163.4,163.4,163.4S728.4,478,728.4,387.7S655.2,224.4,565,224.4
								C474.8,224.4,401.6,297.5,401.6,387.7C401.6,387.7,401.6,387.7,401.6,387.7z"/>
						</g>
					</g>
				</g>
				<g class="st2">
					<g>
						<defs>
							<rect id="SVGID_5_" x="-155.3" y="-118.6" width="379.1" height="379.1"/>
						</defs>
						<clipPath id="SVGID_6_">
							<use xlink:href="#SVGID_5_"  style="overflow:visible;"/>
						</clipPath>
						<g class="st5">
							<path class="st4" d="M-129.1,71c0,90.2,73.1,163.3,163.3,163.4c90.2,0,163.4-73.1,163.4-163.3c0,0,0,0,0,0
								c0-90.2-73.2-163.3-163.4-163.3h0C-56-92.4-129-19.2-129.1,71z"/>
						</g>
					</g>
				</g>
				<g class="st2">
					<g>
						<defs>
							<rect id="SVGID_7_" x="139.9" y="300.9" width="208.2" height="208.2"/>
						</defs>
						<clipPath id="SVGID_8_">
							<use xlink:href="#SVGID_7_"  style="overflow:visible;"/>
						</clipPath>
						<g class="st6">
							<path class="st7" d="M147.6,405.1c0,53.2,43.1,96.4,96.4,96.4s96.4-43.1,96.4-96.4s-43.1-96.4-96.4-96.4c0,0,0,0,0,0
								C190.7,308.7,147.6,351.8,147.6,405.1z"/>
						</g>
					</g>
				</g>
				<g class="st2">
					<g>
						<defs>
							<rect id="SVGID_9_" x="349.6" y="-50.6" width="208.2" height="208.2"/>
						</defs>
						<clipPath id="SVGID_10_">
							<use xlink:href="#SVGID_9_"  style="overflow:visible;"/>
						</clipPath>
						<g class="st8">
							<path class="st7" d="M357.3,53.5c0,53.2,43.2,96.4,96.4,96.4c53.2,0,96.4-43.1,96.4-96.4c0-53.2-43.2-96.4-96.4-96.4
								C400.5-42.9,357.3,0.2,357.3,53.5C357.3,53.5,357.3,53.5,357.3,53.5z"/>
						</g>
					</g>
				</g>
			</g>
		</g>
		<line class="st9" x1="50.8" y1="334.7" x2="50.8" y2="126.7"/>
		<line class="st9" x1="554.5" y1="126.7" x2="554.5" y2="334.7"/>
		<line class="st10" x1="109.6" y1="137.5" x2="493.5" y2="137.5"/>
		<line class="st10" x1="109.6" y1="326.6" x2="493.5" y2="326.6"/>
		<path class="st11" d="M524.4,270.2c-0.5,0.8-1.4,1.3-2.3,1.2c-29.4,0-58.9,0-88.3,0h-0.3c-1.8,0-2.5-1.3-1.6-2.9
			c3.1-5.2,6.2-10.4,9.3-15.7c4.2-7.1,8.4-14.1,12.5-21.3c0.5-1,1.5-1.6,2.6-1.5c3.6,0,7.2,0,10.8,0h1.1c-0.2-0.4-0.4-0.7-0.5-1
			c-1.5-2.8-3.2-5.6-4.8-8.4c-3.5-6.4-2.3-14.4,2.8-19.6c3.3-3.3,7.8-5.1,12.5-4.9c9.2-0.1,16.8,7.3,16.8,16.6c0,1.7-0.2,3.4-0.7,5
			c-0.6,1.8-1.4,3.5-2.4,5.2c-1.3,2.4-2.7,4.8-4.2,7.2h1.1c3.6,0,7.3,0,10.9,0c1-0.1,2,0.4,2.4,1.4c7.4,12.5,14.7,25,22.1,37.4
			c11.1,18.7,0.1,0.1,0.2,0.2L524.4,270.2z M504.9,242.8c-0.8-1.4-1.5-2.6-2.3-3.9c-0.3,0.1-0.5,0.1-0.7,0.2l-8.8,3
			c-3.2,1.1-6.3,2.2-9.5,3.2c-1.5,0.5-2.4,0-2.7-1.6c0-0.3-0.1-0.7-0.2-1.2l-1,1.6c-1,1.7-2.4,1.7-3.4,0l-5.7-10
			c-0.2-0.3-0.3-0.5-0.5-0.8h-0.3l-9.3,34.4h24.7c0-0.2,0-0.4,0-0.5L483,255c-0.3-1.6-0.1-2.1,1.4-2.8l11.5-5.3L504.9,242.8
			 M478,240.1c0.1-0.2,0.2-0.3,0.3-0.5c3.9-6.7,7.7-13.3,11.6-20c1.6-2.6,2.2-5.6,1.7-8.5c-1-7.4-7.8-12.6-15.2-11.6
			c-0.9,0.1-1.8,0.3-2.6,0.6c-7,2.1-11,9.4-9,16.4c0.3,0.9,0.6,1.7,1,2.5c1.2,2.4,2.6,4.6,3.9,6.9
			C472.4,230.6,475.1,235.3,478,240.1 M436.2,267.9h0.4c6.5,0,13.1,0,19.6,0c0.7,0,0.8-0.3,0.9-0.8c2.3-8.7,4.7-17.4,7-26
			c0.7-2.5,1.4-5,2-7.6c-3,0-5.8,0-8.7,0c-0.6-0.1-1.2,0.3-1.4,0.8c-6.4,10.9-12.9,21.8-19.4,32.8
			C436.5,267.2,436.4,267.5,436.2,267.9 M506.6,245.8h-0.3l-19.4,9c-0.5,0.2-0.5,0.5-0.4,0.9c0.2,1.2,0.5,2.5,0.7,3.8
			c0.5,2.8,1,5.6,1.5,8.4h31L506.6,245.8 M500.8,235.8c-0.3-0.6-0.7-1.1-0.9-1.5c-0.2-0.6-0.8-0.9-1.4-0.8c-4,0-7.9,0-11.9,0
			c-0.5-0.1-1,0.2-1.2,0.6c-0.6,1.1-1.2,2.1-1.8,3.2c-0.2,0.3-0.2,0.6-0.2,0.9c0.2,1.1,0.4,2.2,0.6,3.5L500.8,235.8"/>
		<path class="st11" d="M478,220.1c-3.8,0-6.9-3-6.9-6.8s3-6.9,6.8-6.9c3.8,0,6.9,3,6.9,6.8c0,0,0,0,0,0
			C484.8,217,481.8,220.1,478,220.1 M481.4,213.2c0-1.9-1.6-3.5-3.5-3.5s-3.5,1.6-3.5,3.5c0,1.9,1.6,3.5,3.5,3.5c0,0,0,0,0,0
			C479.9,216.7,481.4,215.1,481.4,213.2"/>
		<path class="st11" d="M381.1,219.4h2.4v2.2c2.5,0.2,4.6,2,5.1,4.5l-3.2,1.3c-0.6-1.8-1.6-2.7-2.9-2.7c-0.6,0-1.1,0.2-1.5,0.6
			c-0.4,0.4-0.6,0.9-0.6,1.5c0,0.5,0.2,1,0.6,1.4c0.8,0.5,1.6,0.9,2.5,1.2c1.1,0.4,2.2,0.9,3.3,1.5c0.7,0.4,1.4,1,1.8,1.7
			c0.5,0.8,0.7,1.8,0.7,2.8c0,1.5-0.5,3-1.5,4.1c-1.1,1.2-2.6,1.8-4.2,1.9v2.8h-2.3v-2.7c-2.9-0.2-5.3-2.4-5.7-5.4l3.6-1
			c0.1,1.7,1.5,3.1,3.3,3c0,0,0,0,0.1,0c0.7,0.1,1.4-0.2,2-0.7c0.4-0.4,0.6-1,0.6-1.5c0.1-0.6-0.2-1.1-0.6-1.5
			c-0.9-0.5-1.8-1-2.8-1.3c-1.1-0.3-2.1-0.8-3-1.3c-0.7-0.4-1.4-1.1-1.8-1.8c-0.5-0.8-0.7-1.8-0.7-2.8c0-1.3,0.4-2.6,1.2-3.7
			c1-1.1,2.3-1.9,3.8-2V219.4z"/>
		<path class="st11" d="M383,270c-2.1,0-3.8-1.7-3.8-3.8c0-2.1,1.7-3.8,3.8-3.8s3.8,1.7,3.8,3.8l0,0C386.8,268.3,385.1,270,383,270
			 M383,264.9c-0.7,0-1.3,0.6-1.3,1.3c0,0.7,0.6,1.3,1.3,1.3c0.7,0,1.3-0.6,1.3-1.3C384.2,265.5,383.7,264.9,383,264.9L383,264.9"/>
		<path class="st11" d="M409.7,220.9c-0.2,0-0.4,0-0.5-0.1c-0.5-0.2-0.7-0.7-0.7-1.2v-2.7H393c-0.7,0-1.3-0.6-1.3-1.3c0,0,0,0,0,0
			v-6.4c0-0.7,0.6-1.3,1.3-1.3l0,0h15.4v-2.7c0-0.5,0.3-1,0.7-1.2c0.5-0.2,1-0.1,1.4,0.2l8.5,7.2c0.3,0.2,0.5,0.6,0.5,1
			c0,0.4-0.2,0.7-0.5,1l-8.5,7.2C410.3,220.8,410,220.9,409.7,220.9 M394.3,214.3h15.4c0.7,0,1.3,0.6,1.3,1.3c0,0,0,0,0,0v1.2
			l5.2-4.4L411,208v1.2c0,0.7-0.6,1.3-1.3,1.3l0,0h-15.4V214.3z"/>
		<path class="st11" d="M401.6,235.4c-0.3,0-0.6-0.1-0.8-0.3l-8.5-7.2c-0.3-0.2-0.5-0.6-0.5-1c0-0.4,0.2-0.7,0.5-1l8.5-7.2
			c0.4-0.3,0.9-0.4,1.4-0.2c0.5,0.2,0.7,0.7,0.7,1.2v2.7h15.4c0.7,0,1.3,0.6,1.3,1.3v6.4c0,0.7-0.6,1.3-1.3,1.3h-15.4v2.7
			c0,0.5-0.3,1-0.7,1.2C401.9,235.3,401.8,235.3,401.6,235.4 M395,226.8l5.2,4.4V230c0-0.7,0.6-1.3,1.3-1.3l0,0H417v-3.8h-15.4
			c-0.7,0-1.3-0.6-1.3-1.3c0,0,0,0,0,0v-1.2L395,226.8z"/>
		<path class="st11" d="M406.2,205.9v-5.1c0-4.2-3.4-7.6-7.6-7.6h-31.5c-4.2,0-7.6,3.4-7.6,7.6v2.5l0,0v2.6l0,0v59.7
			c0,4.7,3.8,8.5,8.5,8.5h29.5c4.7,0,8.5-3.8,8.5-8.5V235c0-0.7-0.6-1.3-1.3-1.3c-0.7,0-1.3,0.6-1.3,1.3v23.2h-41.3v-52.3H406.2z
			 M362.2,200.8c0-2.7,2.2-4.9,4.9-4.9h31.6c2.7,0,4.9,2.2,4.9,4.9v2.5h-41.4L362.2,200.8z M403.6,260.8v4.8c0,3.3-2.7,5.9-6,5.9
			h-29.5c-3.3,0-5.9-2.7-6-5.9v-4.8H403.6z"/>
		<path class="st11" d="M340.2,200.2c-0.2-0.1-0.5-0.2-0.7-0.2v-5c0-0.9-0.8-1.7-1.7-1.7l0,0h-7.7c-0.9,0-1.7,0.8-1.7,1.7l0,0v5
			c-0.9,0.1-1.6,0.8-1.6,1.7V261c0,0.9,0.7,1.6,1.5,1.7c1.5,2.8,3.4,6.4,4,7.6v2.2c0.1,0.9,0.9,1.6,1.9,1.5c0.8-0.1,1.5-0.7,1.5-1.5
			v-2.3c0.6-1.1,2.5-4.8,4-7.6c0.9-0.1,1.5-0.8,1.5-1.7v-57c2,0.7,3.3,2.6,3.2,4.7V227c-0.1,0.9,0.6,1.8,1.5,1.9
			c0.9,0.1,1.8-0.6,1.9-1.5c0-0.1,0-0.2,0-0.3v-18.4C347.8,204.4,344.6,200.7,340.2,200.2 M330.3,203.4h7.5v33.9h-7.5V203.4z
			 M336.2,200h-4.3v-3.3h4.3V200z M337.2,260.2c-1.5,2.7-2.5,4.6-3.2,5.9l-3.2-5.9c-0.1-0.3-0.4-0.5-0.6-0.6v-18.9h7.5v18.9
			C337.5,259.7,337.3,259.9,337.2,260.2"/>
		<path class="st11" d="M299.7,220.9h-22.8c-0.9-0.1-1.8,0.6-1.9,1.5s0.6,1.8,1.5,1.9c0.1,0,0.2,0,0.3,0h22.8
			c0.9,0.1,1.8-0.6,1.9-1.5c0.1-0.9-0.6-1.8-1.5-1.9C299.9,220.9,299.8,220.9,299.7,220.9"/>
		<path class="st11" d="M276.9,216.6h8.2c0.9,0,1.7-0.8,1.7-1.7c0-0.9-0.8-1.7-1.7-1.7h-8.2c-0.9,0-1.7,0.8-1.7,1.7
			C275.2,215.8,276,216.6,276.9,216.6"/>
		<path class="st11" d="M285.1,250.4h-8.2c-0.9-0.1-1.8,0.6-1.9,1.5c-0.1,0.9,0.6,1.8,1.5,1.9c0.1,0,0.2,0,0.3,0h8.2
			c0.9,0.1,1.8-0.6,1.9-1.5c0.1-0.9-0.6-1.8-1.5-1.9C285.4,250.4,285.2,250.4,285.1,250.4"/>
		<path class="st11" d="M276.9,231.7h19.5c0.9-0.1,1.6-0.9,1.5-1.9c-0.1-0.8-0.7-1.5-1.5-1.5h-19.5c-0.9-0.1-1.8,0.6-1.9,1.5
			c-0.1,0.9,0.6,1.8,1.5,1.9C276.7,231.7,276.8,231.7,276.9,231.7"/>
		<path class="st11" d="M299.7,235.7h-22.8c-0.9-0.1-1.8,0.6-1.9,1.5s0.6,1.8,1.5,1.9c0.1,0,0.2,0,0.3,0h22.8
			c0.9,0.1,1.8-0.6,1.9-1.5c0.1-0.9-0.6-1.8-1.5-1.9C299.9,235.7,299.8,235.7,299.7,235.7"/>
		<path class="st11" d="M322.3,215.2c0-0.5-0.2-1-0.7-1.4L301.8,194c-0.1-0.1-0.2-0.2-0.4-0.3h-0.1c-0.1-0.1-0.3-0.1-0.4-0.1l0,0
			c-0.1,0-0.2,0-0.3,0h-39c-0.9,0-1.7,0.8-1.7,1.7v77.1c0,0.9,0.8,1.7,1.7,1.7h59.1c0.9,0,1.7-0.8,1.7-1.7v-56.9
			C322.3,215.5,322.3,215.3,322.3,215.2 M316.5,213.5h-14.3v-14.3l7.1,7.1L316.5,213.5z M263.2,270.5v-73.6h35.6v18.4
			c0,0.9,0.8,1.7,1.7,1.7c0,0,0,0,0.1,0H319v53.6H263.2z"/>
		<path class="st11" d="M224.8,209.9h-0.1c-0.9-0.1-1.6-0.8-1.5-1.7c0,0,0,0,0-0.1c0-0.4,0-0.7,0-1.1c0-0.8-0.1-1.6-0.3-2.4
			c-0.4-1.7-1.1-3.2-2.2-4.6c-0.8-1.1-1.9-2-3-2.7c-1.8-1.1-3.8-1.7-5.9-1.7c-6.3,0-11.3,5.1-11.3,11.3c0,0.3,0,0.7,0,1
			c0.1,0.9-0.6,1.7-1.5,1.7c-0.9,0.1-1.6-0.6-1.7-1.4c0-0.5,0-0.9,0-1.4c-0.1-8,6.4-14.6,14.5-14.7c2.8,0,5.5,0.7,7.8,2.2
			c1.5,0.9,2.8,2.1,3.9,3.5c1.4,1.7,2.4,3.7,2.8,5.9c0.2,1,0.3,2,0.3,3c0,0.5,0,1,0,1.4c-0.1,0.8-0.8,1.5-1.6,1.5"/>
		<path class="st11" d="M236.1,275h-10.4l-2.4-10c-0.9,0.1-1.7,0.2-2.6,0.2h-15.2c-0.9,0-1.7,0-2.6-0.2l-2.5,10H190l-2.7-17.4
			c-2.1-2.1-4.1-4.4-5.9-6.7h-3.6c-4.2,0-7.7-3.4-7.7-7.7v-8.6c0-4.3,3.5-7.7,7.7-7.7h2.9c1.4-2.9,3.2-5.5,5.4-7.8l-4-9.6
			c-0.3-1.5,0-3,0.8-4.2c0.4-0.6,1.1-1,1.8-1c0.3,0,0.6,0.1,0.9,0.2l13.7,6.9c2-0.5,4-0.8,6.1-0.8h15.2c12.8,0,27.2,11.8,27.2,27.5
			v0.5c0,7.1-3,13.5-9.1,19.1L236.1,275z M228.2,271.7h5.1l2.4-15.8l0.4-0.4c5.7-5.1,8.5-10.6,8.5-17.1v-0.5
			c0-13.9-12.6-24.3-24-24.3h-15.2c-2,0-3.9,0.3-5.8,0.9h-0.2h-0.6l-0.3-0.2l-13.1-6.6c0,0.2-0.1,0.4-0.1,0.5l4.8,11.5l-0.8,0.8
			c-2.5,2.4-4.5,5.3-5.9,8.5l-0.4,1h-5.1c-2.5,0-4.5,2-4.6,4.5v8.7c0,2.5,2,4.6,4.6,4.6h5.2l0.5,0.6c1.9,2.6,4.1,5,6.4,7.3l0.4,0.4
			l2.4,15.7h5.1l2.6-10.5l1.5,0.3c1.2,0.2,2.3,0.3,3.5,0.3h15.2c1.2,0,2.3-0.1,3.5-0.3l1.5-0.3L228.2,271.7z"/>
		<path class="st11" d="M190.7,229.8L190.7,229.8c-0.9,0-1.6-0.7-1.6-1.6v-0.4c0-0.9,0.7-1.6,1.6-1.6l0,0c0.9,0,1.6,0.7,1.6,1.6v0.4
			C192.3,229.1,191.6,229.8,190.7,229.8"/>
		<path class="st11" d="M157.1,216.1H93.1c-0.6,0-1,0.5-1,1v7.6c0,0.6,0.5,1,1,1h64.1c0.6,0,1-0.5,1-1v-7.6
			C158.2,216.6,157.7,216.1,157.1,216.1 M156.1,223.7h-62v-5.6h62L156.1,223.7z"/>
		<path class="st11" d="M157.1,216.1H93.1c-0.6,0-1,0.5-1,1v7.6c0,0.6,0.5,1,1,1h64.1c0.6,0,1-0.5,1-1v-7.6
			C158.2,216.6,157.7,216.1,157.1,216.1 M156.1,223.7h-62v-5.6h62L156.1,223.7z"/>
		<path class="st11" d="M157.1,264.4H93.1c-0.6,0-1,0.4-1,1v7.6c0,0.6,0.5,1,1,1h64.1c0.6,0,1-0.5,1-1v-7.6
			C158.2,264.9,157.7,264.4,157.1,264.4 M156.1,271.9h-62v-5.5h62L156.1,271.9z"/>
		<path class="st11" d="M157.1,264.4H93.1c-0.6,0-1,0.4-1,1v7.6c0,0.6,0.5,1,1,1h64.1c0.6,0,1-0.5,1-1v-7.6
			C158.2,264.9,157.7,264.4,157.1,264.4 M156.1,271.9h-62v-5.5h62L156.1,271.9z"/>
		<path class="st11" d="M157.6,212.2l-32-18.7c-0.2-0.1-0.3-0.1-0.5-0.1c-0.2,0-0.4,0-0.5,0.1l-32,18.7c-0.4,0.2-0.6,0.7-0.5,1.1
			c0.1,0.4,0.5,0.8,1,0.8h64.1c0.6,0,1-0.5,1-1C158.2,212.7,158,212.4,157.6,212.2 M97,212.1l28.1-16.5l28.2,16.5H97z"/>
		<path class="st11" d="M157.6,212.2l-32-18.7c-0.2-0.1-0.3-0.1-0.5-0.1c-0.2,0-0.4,0-0.5,0.1l-32,18.7c-0.4,0.2-0.6,0.7-0.5,1.1
			c0.1,0.4,0.5,0.8,1,0.8h64.1c0.6,0,1-0.5,1-1C158.2,212.7,158,212.4,157.6,212.2 M97,212.1l28.1-16.5l28.2,16.5H97z"/>
		<path class="st11" d="M101.4,227.6c-2.4,0-4.3,1.9-4.3,4.3v26.4c0,2.4,1.9,4.3,4.3,4.3l0,0c2.4,0,4.3-1.9,4.4-4.2c0,0,0-0.1,0-0.1
			V232C105.7,229.6,103.8,227.6,101.4,227.6C101.4,227.6,101.4,227.6,101.4,227.6 M103.7,258.3c-0.2,1.3-1.4,2.1-2.7,1.9
			c-1-0.2-1.7-0.9-1.9-1.9V232c0-1.3,1-2.3,2.3-2.3l0,0c1.3,0,2.3,1,2.3,2.3L103.7,258.3z"/>
		<path class="st11" d="M101.4,227.6c-2.4,0-4.3,1.9-4.3,4.3v26.4c0,2.4,1.9,4.3,4.3,4.3l0,0c2.4,0,4.3-1.9,4.4-4.2c0,0,0-0.1,0-0.1
			V232C105.7,229.6,103.8,227.6,101.4,227.6C101.4,227.6,101.4,227.6,101.4,227.6 M103.7,258.3c-0.2,1.3-1.4,2.1-2.7,1.9
			c-1-0.2-1.7-0.9-1.9-1.9V232c0-1.3,1-2.3,2.3-2.3l0,0c1.3,0,2.3,1,2.3,2.3L103.7,258.3z"/>
		<path class="st11" d="M113.2,227.6c-2.4,0-4.3,1.9-4.3,4.3v26.4c0,2.4,1.9,4.3,4.3,4.3l0,0c2.4,0,4.3-1.9,4.4-4.3c0,0,0,0,0-0.1
			V232C117.6,229.6,115.6,227.6,113.2,227.6 M115.6,258.3c-0.1,1.3-1.2,2.2-2.5,2.1c-1.1-0.1-2-1-2.1-2.1V232c0-1.3,1-2.3,2.3-2.3
			l0,0c1.3,0,2.3,1,2.3,2.3L115.6,258.3z"/>
		<path class="st11" d="M113.2,227.6c-2.4,0-4.3,1.9-4.3,4.3v26.4c0,2.4,1.9,4.3,4.3,4.3l0,0c2.4,0,4.3-1.9,4.4-4.3c0,0,0,0,0-0.1
			V232C117.6,229.6,115.6,227.6,113.2,227.6 M115.6,258.3c-0.1,1.3-1.2,2.2-2.5,2.1c-1.1-0.1-2-1-2.1-2.1V232c0-1.3,1-2.3,2.3-2.3
			l0,0c1.3,0,2.3,1,2.3,2.3L115.6,258.3z"/>
		<path class="st11" d="M125.1,227.6c-2.4,0-4.3,1.9-4.3,4.3v26.4c0,2.4,1.9,4.3,4.3,4.3l0,0c2.4,0,4.3-1.9,4.4-4.3c0,0,0,0,0-0.1
			V232C129.4,229.6,127.5,227.6,125.1,227.6C125.1,227.6,125.1,227.6,125.1,227.6 M127.4,258.3c-0.1,1.3-1.2,2.2-2.5,2.1
			c-1.1-0.1-2-1-2.1-2.1V232c0-1.3,1-2.3,2.3-2.3l0,0c1.3,0,2.3,1,2.3,2.3L127.4,258.3z"/>
		<path class="st11" d="M125.1,227.6c-2.4,0-4.3,1.9-4.3,4.3v26.4c0,2.4,1.9,4.3,4.3,4.3l0,0c2.4,0,4.3-1.9,4.4-4.3c0,0,0,0,0-0.1
			V232C129.4,229.6,127.5,227.6,125.1,227.6C125.1,227.6,125.1,227.6,125.1,227.6 M127.4,258.3c-0.1,1.3-1.2,2.2-2.5,2.1
			c-1.1-0.1-2-1-2.1-2.1V232c0-1.3,1-2.3,2.3-2.3l0,0c1.3,0,2.3,1,2.3,2.3L127.4,258.3z"/>
		<path class="st11" d="M136.9,227.6c-2.4,0-4.3,1.9-4.3,4.3v26.4c0,2.4,1.9,4.3,4.3,4.3l0,0c2.4,0,4.3-1.9,4.4-4.3c0,0,0,0,0-0.1
			V232C141.3,229.6,139.3,227.6,136.9,227.6C136.9,227.6,136.9,227.6,136.9,227.6 M139.3,258.3c-0.2,1.3-1.4,2.1-2.7,1.9
			c-1-0.2-1.7-0.9-1.9-1.9V232c0-1.3,1-2.3,2.3-2.3l0,0c1.3,0,2.3,1,2.3,2.3V258.3z"/>
		<path class="st11" d="M136.9,227.6c-2.4,0-4.3,1.9-4.3,4.3v26.4c0,2.4,1.9,4.3,4.3,4.3l0,0c2.4,0,4.3-1.9,4.4-4.3c0,0,0,0,0-0.1
			V232C141.3,229.6,139.3,227.6,136.9,227.6C136.9,227.6,136.9,227.6,136.9,227.6 M139.3,258.3c-0.2,1.3-1.4,2.1-2.7,1.9
			c-1-0.2-1.7-0.9-1.9-1.9V232c0-1.3,1-2.3,2.3-2.3l0,0c1.3,0,2.3,1,2.3,2.3V258.3z"/>
		<path class="st11" d="M148.8,227.6c-2.4,0-4.3,1.9-4.3,4.3v26.4c0,2.4,1.9,4.3,4.3,4.3l0,0c2.4,0,4.3-1.9,4.3-4.3V232
			C153.1,229.6,151.2,227.7,148.8,227.6 M151.1,258.3c-0.3,1.3-1.5,2.1-2.7,1.8c-0.9-0.2-1.6-0.9-1.8-1.8V232c0-1.3,1-2.3,2.3-2.3
			l0,0c1.3,0,2.3,1,2.3,2.3V258.3z"/>
		<path class="st11" d="M148.8,227.6c-2.4,0-4.3,1.9-4.3,4.3v26.4c0,2.4,1.9,4.3,4.3,4.3l0,0c2.4,0,4.3-1.9,4.3-4.3V232
			C153.1,229.6,151.2,227.7,148.8,227.6 M151.1,258.3c-0.3,1.3-1.5,2.1-2.7,1.8c-0.9-0.2-1.6-0.9-1.8-1.8V232c0-1.3,1-2.3,2.3-2.3
			l0,0c1.3,0,2.3,1,2.3,2.3V258.3z"/>
	</g>
</g>
</svg>
