<?xml version="1.0" encoding="utf-8"?>
<!-- Generator: Adobe Illustrator 25.4.1, SVG Export Plug-In . SVG Version: 6.00 Build 0)  -->
<svg version="1.1" id="Capa_1" xmlns="http://www.w3.org/2000/svg" xmlns:xlink="http://www.w3.org/1999/xlink" x="0px" y="0px"
	 viewBox="0 0 183.9 144.2" style="enable-background:new 0 0 183.9 144.2;" xml:space="preserve">
<style type="text/css">
	.st0{fill:#FFFFFF;stroke:#218400;stroke-width:2;stroke-miterlimit:10;}
	.st1{fill:#218400;}
</style>
<g id="Capa_2_00000137104367309155584780000016535872443963241143_">
	<g id="Layer_1">
		<path class="st0" d="M72,1h110.9l0,0v100.4c0,23.1-18.7,41.8-41.8,41.8c0,0,0,0-0.1,0H30.2l0,0V42.8C30.2,19.7,48.9,1,72,1z"/>
		<circle class="st0" cx="29.7" cy="72.1" r="28.7"/>
		<path class="st1" d="M22.8,59.4c0.6-0.6,1.4-0.9,2.2-0.8h13.3c0.2,0.3,0.3,0.6,0.4,0.9c0.1,0.4,0.2,0.8,0.2,1.3
			c0,0.6-0.2,1.3-0.5,1.8c-0.4,0.4-0.9,0.6-1.5,0.6h-10L26.3,69c0.6-0.2,1.3-0.4,1.9-0.6c2.1-0.4,4.3-0.3,6.4,0.3
			c1.1,0.4,2.1,1,2.9,1.8c0.8,0.8,1.4,1.7,1.8,2.7c0.9,2.3,0.9,4.7,0,7c-0.4,1.1-1.1,2.1-2,2.9c-1,0.9-2.1,1.6-3.3,2
			c-1.5,0.5-3.1,0.8-4.7,0.7c-1.2,0-2.4-0.1-3.6-0.3c-1-0.2-1.9-0.5-2.8-0.9c-0.7-0.3-1.3-0.8-1.8-1.3c-0.4-0.5-0.6-1.1-0.6-1.7
			c0-0.6,0.2-1.2,0.6-1.7c0.4-0.4,0.8-0.8,1.3-1c0.8,0.6,1.7,1.2,2.7,1.7c1.3,0.6,2.6,0.8,4,0.8c1.4,0.1,2.8-0.4,3.8-1.3
			c0.9-0.9,1.3-2.1,1.3-3.3c0.1-1.2-0.4-2.3-1.3-3.1c-1-0.8-2.3-1.2-3.6-1.1c-0.8,0-1.6,0.1-2.4,0.4c-0.7,0.3-1.4,0.6-2.1,0.9
			c-1,0-1.9-0.3-2.7-0.9c-0.7-0.6-1.1-1.6-1-2.5c0-0.2,0-0.3,0-0.5c0-0.2,0-0.5,0.1-0.8l0.6-7.5C21.9,60.8,22.2,60,22.8,59.4z"/>
		<g id="ldKKOJ.tif">
			<path class="st1" d="M155.4,110.9c-0.5,0.9-1.4,1.3-2.4,1.2c-30.5,0-61,0-91.5,0h-0.3c-1.9,0-2.6-1.3-1.7-3
				c3.2-5.4,6.4-10.8,9.6-16.2c4.3-7.3,8.7-14.6,13-22c0.5-1,1.5-1.6,2.7-1.5c3.7,0,7.5,0,11.2,0h1.1c-0.2-0.4-0.4-0.7-0.5-1
				c-1.7-2.9-3.4-5.8-5-8.7C88,53,89.2,44.7,94.5,39.4c3.4-3.5,8.1-5.4,12.9-5.2c4.4-0.1,8.7,1.6,11.9,4.7c5,4.9,6.8,10.9,4.8,17.7
				c-0.6,1.9-1.5,3.7-2.5,5.3c-1.3,2.5-2.8,4.9-4.3,7.5c0.5,0,0.8,0.1,1.1,0.1c3.8,0,7.5,0,11.3,0c1-0.1,2,0.5,2.5,1.4
				c7.6,12.9,15.3,25.9,22.9,38.8c0,0.1,0.1,0.1,0.2,0.2L155.4,110.9z M135.2,82.6l-2.4-4c-0.3,0.1-0.5,0.1-0.7,0.2l-9.1,3.1
				l-9.9,3.3c-1.6,0.5-2.5,0-2.8-1.7c-0.1-0.4-0.1-0.7-0.2-1.3l-1,1.7c-1.1,1.8-2.5,1.8-3.6,0c-2-3.4-3.9-6.8-5.9-10.2
				c-0.2-0.3-0.4-0.5-0.5-0.8h-0.3l-9.6,35.6h25.7c0-0.2,0-0.4,0-0.5c-0.7-4.2-1.5-8.5-2.3-12.8c-0.3-1.7-0.1-2.2,1.5-2.9l11.9-5.5
				L135.2,82.6z M107.2,79.8c0.2-0.3,0.3-0.4,0.3-0.5l12-20.7c1.6-2.7,2.2-5.8,1.8-8.9c-1.4-8.9-9.8-14-18.4-11.4
				c-7.3,2.1-11.4,9.8-9.3,17c0.3,0.9,0.6,1.8,1.1,2.6c1.2,2.5,2.7,4.8,4.1,7.2L107.2,79.8z M64,108.6c0.3,0,0.3,0,0.4,0
				c6.8,0,13.5,0,20.3,0c0.7,0,0.8-0.3,0.9-0.9c2.4-9,4.8-18,7.3-27c0.7-2.6,1.4-5.2,2.1-7.9c-3.1,0-6,0-9,0
				c-0.6-0.1-1.2,0.3-1.5,0.8c-6.7,11.3-13.3,22.6-20,33.9C64.4,108,64.2,108.2,64,108.6z M137,85.7c-0.1,0-0.2,0-0.3,0
				c-6.7,3.1-13.4,6.2-20.1,9.3c-0.5,0.2-0.5,0.5-0.4,1c0.3,1.3,0.5,2.6,0.7,3.9c0.5,2.9,1,5.8,1.6,8.7h32.1L137,85.7z M130.9,75.5
				c-0.4-0.6-0.7-1.1-0.9-1.7c-0.2-0.6-0.8-0.9-1.4-0.9c-4.1,0-8.2,0-12.3,0c-0.5-0.1-1,0.2-1.2,0.6c-0.6,1.1-1.3,2.2-1.9,3.3
				c-0.2,0.3-0.2,0.6-0.2,0.9c0.2,1.2,0.4,2.3,0.6,3.6L130.9,75.5z"/>
			<path class="st1" d="M107.3,59.1c-3.9,0-7.1-3.2-7.1-7.1c0-3.9,3.2-7.1,7.1-7.1c3.9,0,7.1,3.2,7.1,7.1c0,0,0,0,0,0
				C114.4,55.9,111.2,59,107.3,59.1z M110.9,52c0-2-1.6-3.6-3.6-3.6c-2,0-3.6,1.6-3.6,3.6s1.6,3.6,3.6,3.6c0,0,0,0,0,0
				C109.3,55.5,110.8,54,110.9,52L110.9,52z"/>
		</g>
	</g>
</g>
</svg>
