<svg xmlns="http://www.w3.org/2000/svg" viewBox="0 0 183.86 144.18"><defs><style>.cls-1{fill:#fff;stroke:#986a4d;stroke-miterlimit:10;stroke-width:2px;}.cls-2{fill:#986a4d;}</style></defs><g id="Capa_2" data-name="Capa 2"><g id="Layer_1" data-name="Layer 1"><path class="cls-1" d="M72,1H182.86a0,0,0,0,1,0,0V101.37A41.81,41.81,0,0,1,141,143.18H30.2a0,0,0,0,1,0,0V42.81A41.81,41.81,0,0,1,72,1Z"/><circle class="cls-1" cx="29.67" cy="72.09" r="28.67"/><path class="cls-2" d="M22.8,59.39A3,3,0,0,1,25,58.56H38.28a4.21,4.21,0,0,1,.42.92,3.68,3.68,0,0,1,.2,1.27,2.53,2.53,0,0,1-.55,1.76,1.94,1.94,0,0,1-1.5.62h-10l-.53,5.92a16.27,16.27,0,0,1,1.92-.57,12.53,12.53,0,0,1,6.4.35,8.24,8.24,0,0,1,2.92,1.76,7.68,7.68,0,0,1,1.85,2.74,9.69,9.69,0,0,1,0,7,8.11,8.11,0,0,1-2,2.87,9.38,9.38,0,0,1-3.32,2,13.61,13.61,0,0,1-4.68.73,18.43,18.43,0,0,1-3.64-.33,11.58,11.58,0,0,1-2.79-.9,5.2,5.2,0,0,1-1.78-1.34,2.61,2.61,0,0,1-.63-1.69A2.52,2.52,0,0,1,21.19,80a4.2,4.2,0,0,1,1.3-1,15.31,15.31,0,0,0,2.7,1.67,8.83,8.83,0,0,0,4,.79A5.31,5.31,0,0,0,33,80.14a4.45,4.45,0,0,0,1.31-3.28,4,4,0,0,0-1.27-3.11,5.27,5.27,0,0,0-3.63-1.14A7.24,7.24,0,0,0,27,73a14.08,14.08,0,0,0-2.07.94A4.43,4.43,0,0,1,22.22,73a3.11,3.11,0,0,1-1-2.52,4.92,4.92,0,0,1,0-.51q0-.28.06-.81l.63-7.51A3.42,3.42,0,0,1,22.8,59.39Z"/><g id="ldKKOJ.tif"><path class="cls-2" d="M155.41,110.92a2.45,2.45,0,0,1-2.41,1.23q-45.75,0-91.48,0h-.28c-1.9,0-2.63-1.33-1.66-3q4.79-8.12,9.61-16.24c4.33-7.32,8.69-14.64,13-22a2.72,2.72,0,0,1,2.65-1.52c3.73,0,7.46,0,11.19,0h1.13c-.23-.42-.38-.72-.54-1-1.66-2.91-3.38-5.79-5-8.73a17.18,17.18,0,0,1,2.91-20.3,17,17,0,0,1,12.94-5.23,16.59,16.59,0,0,1,11.93,4.69c5,4.94,6.75,10.88,4.76,17.69a28.41,28.41,0,0,1-2.49,5.34c-1.35,2.49-2.82,4.92-4.31,7.5.46,0,.78.05,1.11.05,3.76,0,7.52,0,11.28,0a2.6,2.6,0,0,1,2.53,1.4q11.43,19.41,22.93,38.79a.81.81,0,0,0,.18.19ZM135.16,82.58l-2.38-4c-.26.07-.47.12-.67.19L123,81.89l-9.86,3.35c-1.6.54-2.53,0-2.82-1.7-.06-.36-.13-.72-.24-1.27l-1,1.68c-1.06,1.79-2.52,1.79-3.57,0-2-3.41-3.94-6.82-5.92-10.23-.16-.28-.36-.53-.54-.79l-.28,0-9.6,35.64h25.65c0-.24,0-.39,0-.54q-1.12-6.37-2.26-12.75c-.3-1.71-.08-2.16,1.47-2.88l11.92-5.52Zm-27.92-2.79c.18-.25.27-.36.35-.49l12-20.73a13.33,13.33,0,0,0,1.77-8.86c-1.39-8.92-9.77-14-18.42-11.39a13.71,13.71,0,0,0-8.23,19.61c1.24,2.45,2.71,4.79,4.08,7.18ZM64,108.59c.25,0,.34,0,.43,0,6.77,0,13.53,0,20.3,0,.69,0,.8-.34.95-.86q3.62-13.5,7.26-27c.7-2.59,1.39-5.18,2.11-7.86-3.07,0-6,0-9,0a1.47,1.47,0,0,0-1.49.82q-10,17-20,33.93C64.37,108,64.24,108.22,64,108.59Zm73-22.88a1.77,1.77,0,0,0-.31,0q-10,4.65-20.11,9.29c-.49.23-.51.53-.42,1,.25,1.3.47,2.59.7,3.88.51,2.89,1,5.78,1.55,8.7h32.13Zm-6.09-10.25c-.37-.63-.7-1.13-.95-1.66a1.35,1.35,0,0,0-1.45-.86c-4.11,0-8.21,0-12.32,0a1.13,1.13,0,0,0-1.19.64c-.6,1.14-1.28,2.23-1.9,3.35a1.53,1.53,0,0,0-.22.87c.16,1.17.38,2.34.6,3.59Z"/><path class="cls-2" d="M107.31,59.07a7.12,7.12,0,1,1,7.1-7.12A7.17,7.17,0,0,1,107.31,59.07Zm3.56-7.1a3.6,3.6,0,1,0-3.56,3.6A3.61,3.61,0,0,0,110.87,52Z"/></g></g></g></svg>