<?xml version="1.0" encoding="utf-8"?>
<!-- Generator: Adobe Illustrator 24.3.0, SVG Export Plug-In . SVG Version: 6.00 Build 0)  -->
<svg version="1.1" id="Capa_1" xmlns="http://www.w3.org/2000/svg" xmlns:xlink="http://www.w3.org/1999/xlink" x="0px" y="0px"
	 viewBox="0 0 460 360" style="enable-background:new 0 0 460 360;" xml:space="preserve">
<style type="text/css">
	.st0{fill:none;}
	.st1{fill:none;stroke:#268441;stroke-width:2;stroke-miterlimit:10;}
	.st2{fill:none;stroke:#782B78;stroke-width:2;stroke-miterlimit:10;}
	.st3{fill:#268441;}
</style>
<g>
	<path class="st0" d="M148.7,183.1c0-39-31.6-70.7-70.7-70.7c-0.9,0-1.9,0-2.8,0.1v141.2c0.9,0,1.8,0.1,2.8,0.1
		C117.1,253.8,148.7,222.2,148.7,183.1z"/>
	<path class="st1" d="M178.3,5.5c-56.9,0-103,46.1-103,103v4c0.9,0,1.8-0.1,2.8-0.1c39,0,70.7,31.6,70.7,70.7
		c0,39-31.6,70.7-70.7,70.7c-0.9,0-1.9,0-2.8-0.1v102.1h273.2c56.9,0,103-46.1,103-103V5.5H178.3z"/>
	<path class="st2" d="M75.3,112.6"/>
	<path class="st2" d="M75.3,253.7"/>
	<path class="st1" d="M75.3,112.6C37.5,114,7.4,145,7.4,183.1c0,38.1,30.1,69.1,67.9,70.6"/>
</g>
<path class="st3" d="M331.1,114.6c-0.2,0-0.3,0-0.5,0c-2.5-0.3-4.3-2.5-4.1-5c0.1-1,0.2-2,0.2-3.1c0-2.3-0.2-4.6-0.7-6.8
	c-1-4.7-3.1-9.2-6.1-12.9c-2.4-3.1-5.2-5.6-8.5-7.6c-5-3.1-10.8-4.7-16.7-4.7c-17.6,0-32,14.3-32,32c0,1,0,2,0.1,3
	c0.2,2.5-1.6,4.7-4.1,5c-2.5,0.2-4.7-1.6-5-4.1c-0.1-1.3-0.2-2.5-0.2-3.8c0-22.7,18.4-41.1,41.1-41.1c7.6,0,15,2.1,21.4,6
	c4.2,2.6,7.9,5.9,10.9,9.8c3.8,4.8,6.5,10.6,7.8,16.6c0.6,2.8,0.9,5.7,0.9,8.7c0,1.3-0.1,2.7-0.2,4
	C335.4,112.8,333.4,114.6,331.1,114.6"/>
<path class="st3" d="M362.9,298h-29.4l-6.9-28.3c-2.4,0.3-4.8,0.4-7.2,0.4h-42.8c-2.4,0-4.8-0.1-7.2-0.4l-6.9,28.3H233l-7.5-49.1
	c-6.2-5.8-13.6-15-16.6-18.9h-10.2c-12,0-21.8-9.8-21.8-21.8V184c0-12,9.8-21.8,21.8-21.8h8.3c3.7-7.9,9-15.4,15.3-21.9L211,113.2
	c-1.3-3.7,0.5-9.4,2.3-12c1.8-2.6,4-2.9,5.1-2.9c0.9,0,1.7,0.2,2.5,0.6l38.4,19.4c5.8-1.6,11.6-2.4,17.3-2.4h42.8
	c36.2,0,76.7,33.2,76.7,77.7v1.5c0,20-8.6,38.1-25.7,53.8L362.9,298z M340.7,288.9h14.4l6.8-44.6l1.2-1.1
	c16.1-14.3,23.9-30,23.9-48.1v-1.5c0-39.2-35.7-68.6-67.6-68.6h-42.8c-5.4,0-10.9,0.8-16.4,2.5l-0.6,0.2h-1.8l-1-0.5l-36.8-18.6
	c-0.2,0.6-0.3,1.1-0.3,1.5l13.5,32.4l-2.3,2.2c-7.2,6.9-13,15.2-16.7,23.9l-1.2,2.8h-14.3c-7,0-12.6,5.7-12.6,12.6v24.2
	c0,7,5.7,12.6,12.6,12.6h14.7l1.4,1.8c0.1,0.1,10.8,14.1,18,20.6l1.2,1.1l6.8,44.6h14.4l7.2-29.5l4.3,0.8c3.2,0.6,6.5,0.9,9.8,0.9
	h42.8c3.3,0,6.6-0.3,9.8-0.9l4.3-0.8L340.7,288.9z"/>
<path class="st3" d="M235.1,170.6L235.1,170.6c-2.6,0-4.6-2.1-4.6-4.6l0-1.1c0-2.5,2.1-4.5,4.6-4.5h0c2.5,0,4.6,2.1,4.5,4.6l0,1.1
	C239.6,168.6,237.6,170.6,235.1,170.6"/>
<g>
	<path class="st3" d="M93.3,216H59.4c-4.2,0-7.4-3.2-7.4-7.2c0-4.7,2.5-10,13.8-19.3l17.1-14c4-3.2,5-6.5,5-9.7
		c0-6.5-4.6-10.6-12.7-10.6c-10.7,0-16.8,3-21.6,9.4h-0.5v-5.2c0-8.4,6.5-16.9,24.8-16.9c14.1,0,24.5,9.8,24.5,21.4
		c0,10.7-4.2,15.5-15.3,24.1l-11.3,8.7c-2.5,1.9-5.8,5-7,6.8h34.4v5.3C103.2,213.4,99.2,216,93.3,216z"/>
</g>
</svg>
