<?xml version="1.0" encoding="utf-8"?>
<!-- Generator: Adobe Illustrator 25.4.1, SVG Export Plug-In . SVG Version: 6.00 Build 0)  -->
<svg version="1.1" id="Capa_1" xmlns="http://www.w3.org/2000/svg" xmlns:xlink="http://www.w3.org/1999/xlink" x="0px" y="0px"
	 viewBox="0 0 460 360" style="enable-background:new 0 0 460 360;" xml:space="preserve">
<style type="text/css">
	.st0{fill:none;}
	.st1{fill:none;stroke:#218400;stroke-width:2;stroke-miterlimit:10;}
	.st2{fill:none;stroke:#782B78;stroke-width:2;stroke-miterlimit:10;}
	.st3{fill:#218400;}
</style>
<g>
	<path class="st0" d="M148.7,183.1c0-39-31.6-70.7-70.7-70.7c-0.9,0-1.9,0-2.8,0.1v141.2c0.9,0,1.8,0.1,2.8,0.1
		C117.1,253.8,148.7,222.2,148.7,183.1z"/>
	<path class="st1" d="M178.3,5.5c-56.9,0-103,46.1-103,103v4c0.9,0,1.8-0.1,2.8-0.1c39,0,70.7,31.6,70.7,70.7
		c0,39-31.6,70.7-70.7,70.7c-0.9,0-1.9,0-2.8-0.1v102.1h273.2c56.9,0,103-46.1,103-103V5.5H178.3z"/>
	<path class="st2" d="M75.3,112.6"/>
	<path class="st2" d="M75.3,253.7"/>
	<path class="st1" d="M75.3,112.6C37.5,114,7.4,145,7.4,183.1s30.1,69.1,67.9,70.6"/>
</g>
<path class="st3" d="M269,141.7h7.1v6.6c7.9,1,13.1,5.5,15.4,13.5l-9.8,4c-1.9-5.5-4.9-8.3-8.9-8.3c-2,0-3.6,0.6-4.8,1.8
	c-1.2,1.2-1.8,2.7-1.8,4.5s0.6,3.2,1.8,4.1c1.2,1,3.7,2.1,7.5,3.6c4.2,1.5,7.5,3,9.9,4.4s4.3,3.3,5.8,5.7c1.4,2.4,2.2,5.2,2.2,8.5
	c0,5-1.5,9.1-4.4,12.4c-3,3.3-7.2,5.3-12.8,5.8v8.5H269v-8.5c-9.3-1-15.1-6.4-17.3-16.2l11-2.9c1,6.2,4.4,9.3,10.1,9.3
	c2.7,0,4.7-0.7,5.9-2c1.3-1.3,1.9-2.9,1.9-4.8c0-1.9-0.6-3.4-1.9-4.4s-4.1-2.3-8.4-3.8c-3.9-1.4-7-2.7-9.2-4s-4-3.2-5.4-5.6
	c-1.4-2.4-2.1-5.2-2.1-8.3c0-4.2,1.2-7.9,3.7-11.2c2.4-3.3,6.3-5.4,11.6-6.1L269,141.7L269,141.7z"/>
<path class="st3" d="M274.6,294.6c-6.4,0-11.6-5.2-11.6-11.6s5.2-11.6,11.6-11.6s11.6,5.2,11.6,11.6
	C286.3,289.4,281,294.6,274.6,294.6 M274.6,279.2c-2.1,0-3.8,1.7-3.8,3.8c0,2.1,1.7,3.8,3.8,3.8c2.1,0,3.8-1.7,3.8-3.8
	C278.4,280.9,276.7,279.2,274.6,279.2"/>
<path class="st3" d="M355.4,146.3c-0.6,0-1.1-0.1-1.6-0.4c-1.4-0.6-2.3-2-2.3-3.5v-8.2H305c-2.2,0-3.9-1.7-3.9-3.9v-19.4
	c0-2.2,1.8-3.9,3.9-3.9h46.5v-8.2c0-1.5,0.9-2.9,2.3-3.5s3-0.4,4.2,0.6l25.8,21.8c0.9,0.7,1.4,1.8,1.4,3c0,1.1-0.5,2.2-1.4,3
	L358,145.4C357.3,146,356.4,146.3,355.4,146.3 M308.9,126.4h46.5c2.2,0,3.9,1.7,3.9,3.9v3.7l15.8-13.4l-15.8-13.4v3.7
	c0,2.2-1.7,3.9-3.9,3.9h-46.5V126.4z"/>
<path class="st3" d="M330.9,190c-0.9,0-1.8-0.3-2.5-0.9l-25.8-21.8c-0.9-0.7-1.4-1.8-1.4-3c0-1.1,0.5-2.2,1.4-3l25.8-21.8
	c1.2-1,2.8-1.2,4.2-0.6c1.4,0.6,2.3,2,2.3,3.5v8.2h46.5c2.2,0,3.9,1.7,3.9,3.9V174c0,2.2-1.8,3.9-3.9,3.9h-46.5v8.2
	c0,1.5-0.9,2.9-2.3,3.5C332,189.9,331.4,190,330.9,190 M311.1,164.3l15.8,13.4V174c0-2.2,1.7-3.9,3.9-3.9h46.5v-11.6h-46.5
	c-2.2,0-3.9-1.7-3.9-3.9v-3.7L311.1,164.3z"/>
<path class="st3" d="M345,100.8V97c0,0,0,0,0-0.1V85.5c0-12.5-10.2-22.8-22.8-22.8H227c-12.5,0-22.8,10.2-22.8,22.8V93l0,0v7.8l0,0
	v180.4c0,14.2,11.6,25.8,25.8,25.8h89.2c14.2,0,25.8-11.6,25.8-25.8v-92.3c0-2.2-1.8-3.9-3.9-3.9c-2.2,0-3.9,1.7-3.9,3.9V259H212
	V100.8H345z M212,85.5c0-8.2,6.7-14.9,14.9-14.9h95.3c8.3,0,15,6.7,15,14.9V93H212V85.5z M337.2,266.9v14.3c0,9.9-8.1,18-18,18H230
	c-9.9,0-18-8.1-18-18v-14.3H337.2z"/>
<g>
	<path class="st3" d="M96.8,203.6h-5.4v17h-5.7c-5,0-8.5-3.2-8.5-9.2v-7.8H52.4c-4.8,0-8-3.3-8-6.5c0-4,1-6.1,1.9-7.9
		c5-9,20.8-32.5,31-40.6h5.3c5.1,0,8.8,3.4,8.8,10.1v33h11.5v5.7C102.9,201.1,100.8,203.6,96.8,203.6z M77.1,163.3
		c-5,6.5-15.1,20.8-19.3,28.5h19.3V163.3z"/>
</g>
</svg>
