<?xml version="1.0" encoding="utf-8"?>
<!-- Generator: Adobe Illustrator 25.4.1, SVG Export Plug-In . SVG Version: 6.00 Build 0)  -->
<svg version="1.1" id="Capa_1" xmlns="http://www.w3.org/2000/svg" xmlns:xlink="http://www.w3.org/1999/xlink" x="0px" y="0px"
	 viewBox="0 0 460 360" style="enable-background:new 0 0 460 360;" xml:space="preserve">
<style type="text/css">
	.st0{fill:none;}
	.st1{fill:none;stroke:#218400;stroke-width:2;stroke-miterlimit:10;}
	.st2{fill:none;stroke:#782B78;stroke-width:2;stroke-miterlimit:10;}
	.st3{fill:#218400;}
</style>
<g>
	<path class="st0" d="M148.7,183.1c0-39-31.6-70.7-70.7-70.7c-0.9,0-1.9,0-2.8,0.1v141.2c0.9,0,1.8,0.1,2.8,0.1
		C117.1,253.8,148.7,222.2,148.7,183.1z"/>
	<path class="st1" d="M178.3,5.5c-56.9,0-103,46.1-103,103v4c0.9,0,1.8-0.1,2.8-0.1c39,0,70.7,31.6,70.7,70.7
		c0,39-31.6,70.7-70.7,70.7c-0.9,0-1.9,0-2.8-0.1v102.1h273.2c56.9,0,103-46.1,103-103V5.5H178.3z"/>
	<path class="st2" d="M75.3,112.6"/>
	<path class="st2" d="M75.3,253.7"/>
	<path class="st1" d="M75.3,112.6C37.5,114,7.4,145,7.4,183.1s30.1,69.1,67.9,70.6"/>
</g>
<path class="st3" d="M371.5,95.5c-0.5-0.3-1.2-0.5-1.8-0.5V82.5c0-2.3-1.9-4.2-4.2-4.2h-19.3c-2.3,0-4.2,1.9-4.2,4.2V95
	c-2.2,0.1-4,2-4,4.2v148.1c0,2.1,1.6,3.9,3.7,4.2c3.7,6.9,8.5,16.1,9.9,18.8v5.5c0,2.3,1.9,4.2,4.2,4.2c2.3,0,4.2-1.9,4.2-4.2v-5.5
	c1.4-2.7,6.3-11.9,10-18.8c2.1-0.3,3.7-2.1,3.7-4.2V104.9c5,2,8,6.1,8,11.8v45.8c0,2.3,1.9,4.2,4.2,4.2c2.3,0,4.2-1.9,4.2-4.2v-45.8
	C390.1,105.7,382.7,97.6,371.5,95.5 M346.4,103.4h18.8V188h-18.8V103.4z M361.2,95h-10.8v-8.3h10.8V95z M363.7,245.3
	c-3.6,6.7-6.1,11.5-7.9,14.8c-1.8-3.4-4.3-8.1-7.9-14.8c-0.4-0.7-0.9-1.2-1.5-1.6v-47.1h18.8v47.2
	C364.6,244.1,364,244.6,363.7,245.3"/>
<path class="st3" d="M270.2,147.1h-56.8c-2.3,0-4.2,1.9-4.2,4.2s1.9,4.2,4.2,4.2h56.8c2.3,0,4.2-1.9,4.2-4.2
	C274.4,149,272.5,147.1,270.2,147.1"/>
<path class="st3" d="M213.4,136.3H234c2.3,0,4.2-1.9,4.2-4.2s-1.9-4.2-4.2-4.2h-20.6c-2.3,0-4.2,1.9-4.2,4.2
	C209.2,134.4,211,136.3,213.4,136.3"/>
<path class="st3" d="M234,220.9h-20.6c-2.3,0-4.2,1.9-4.2,4.2s1.9,4.2,4.2,4.2H234c2.3,0,4.2-1.9,4.2-4.2
	C238.2,222.8,236.3,220.9,234,220.9"/>
<path class="st3" d="M213.4,174.2H262c2.3,0,4.2-1.9,4.2-4.2s-1.9-4.2-4.2-4.2h-48.6c-2.3,0-4.2,1.9-4.2,4.2S211,174.2,213.4,174.2"
	/>
<path class="st3" d="M270.2,184.1h-56.8c-2.3,0-4.2,1.9-4.2,4.2s1.9,4.2,4.2,4.2h56.8c2.3,0,4.2-1.9,4.2-4.2
	C274.4,186,272.5,184.1,270.2,184.1"/>
<path class="st3" d="M326.8,133c0-1.4-0.7-2.6-1.7-3.4l-49.7-49.7c-0.3-0.3-0.6-0.5-0.9-0.7c-0.1,0-0.2-0.1-0.3-0.1
	c-0.3-0.2-0.7-0.3-1-0.4c0,0,0,0-0.1,0c-0.3-0.1-0.5-0.1-0.8-0.1H175c-2.3,0-4.2,1.9-4.2,4.2v192.4c0,2.3,1.9,4.2,4.2,4.2h147.5
	c2.3,0,4.2-1.9,4.2-4.2V133.6C326.8,133.4,326.8,133.2,326.8,133 M312.3,128.8h-35.7V93.1l17.8,17.8L312.3,128.8z M179.3,271.1v-184
	h88.9V133c0,2.3,1.9,4.2,4.2,4.2h45.9V271h-139V271.1z"/>
<g>
	<path class="st3" d="M74.5,220.6c-11.4,0-20.8-4.7-20.8-14.3v-5.6h0.5c4.4,4.7,11.3,7.7,21,7.7c9.5,0,13.4-4.3,13.4-9.7
		c0-6.9-4.6-9.4-13.6-9.6c-6.3-0.1-8.8-1.9-8.8-5.4V179c2-0.2,4.8-0.3,7.8-0.4c10.7-0.4,14.2-4.3,14.2-9.4c0-6.3-4.4-10.2-14.2-10.2
		c-8,0-15.5,2.7-19.3,7.6h-0.5v-6c0-5.8,7.6-13.7,22.4-13.7c15.7,0,25.9,7.9,25.9,19.9c0,10.2-5.6,15-13,16.5
		c6.3,1.4,13.4,7.9,13.4,15C102.9,211.7,93.4,220.6,74.5,220.6z"/>
</g>
</svg>
