<?xml version="1.0" encoding="utf-8"?>
<!-- Generator: Adobe Illustrator 25.4.1, SVG Export Plug-In . SVG Version: 6.00 Build 0)  -->
<svg version="1.1" id="Capa_1" xmlns="http://www.w3.org/2000/svg" xmlns:xlink="http://www.w3.org/1999/xlink" x="0px" y="0px"
	 viewBox="0 0 460 360" style="enable-background:new 0 0 460 360;" xml:space="preserve">
<style type="text/css">
	.st0{fill:#218400;}
	.st1{fill:none;}
	.st2{fill:none;stroke:#218400;stroke-width:2;stroke-miterlimit:10;}
	.st3{fill:none;stroke:#782B78;stroke-width:2;stroke-miterlimit:10;}
</style>
<path class="st0" d="M350.1,138.2H186.5c-1.4,0-2.6,1.2-2.6,2.6V160c0,1.4,1.2,2.6,2.6,2.6h163.6c1.4,0,2.6-1.2,2.6-2.6v-19.2
	C352.7,139.4,351.5,138.2,350.1,138.2 M347.5,157.4H189.1v-14h158.4V157.4z"/>
<path class="st0" d="M350.1,138.2H186.5c-1.4,0-2.6,1.2-2.6,2.6V160c0,1.4,1.2,2.6,2.6,2.6h163.6c1.4,0,2.6-1.2,2.6-2.6v-19.2
	C352.7,139.4,351.5,138.2,350.1,138.2 M347.5,157.4H189.1v-14h158.4V157.4z"/>
<path class="st0" d="M350.1,261.7H186.5c-1.4,0-2.6,1.2-2.6,2.6v19.2c0,1.4,1.2,2.6,2.6,2.6h163.6c1.4,0,2.6-1.1,2.6-2.6v-19.2
	C352.7,262.9,351.5,261.7,350.1,261.7 M347.5,280.9H189.1v-14h158.4V280.9z"/>
<path class="st0" d="M350.1,261.7H186.5c-1.4,0-2.6,1.2-2.6,2.6v19.2c0,1.4,1.2,2.6,2.6,2.6h163.6c1.4,0,2.6-1.1,2.6-2.6v-19.2
	C352.7,262.9,351.5,261.7,350.1,261.7 M347.5,280.9H189.1v-14h158.4V280.9z"/>
<path class="st0" d="M351.3,128.3l-81.7-47.7c-0.4-0.2-0.8-0.3-1.3-0.3c-0.4,0-0.9,0.1-1.3,0.3l-81.8,47.8c-1,0.6-1.5,1.8-1.2,2.9
	c0.3,1.1,1.3,1.9,2.5,1.9h163.6c1.4,0,2.6-1.2,2.6-2.6C352.7,129.6,352.2,128.7,351.3,128.3 M196.1,128l72.2-42.2l72.2,42.2H196.1z"
	/>
<path class="st0" d="M351.3,128.3l-81.7-47.7c-0.4-0.2-0.8-0.3-1.3-0.3c-0.4,0-0.9,0.1-1.3,0.3l-81.8,47.8c-1,0.6-1.5,1.8-1.2,2.9
	c0.3,1.1,1.3,1.9,2.5,1.9h163.6c1.4,0,2.6-1.2,2.6-2.6C352.7,129.6,352.2,128.7,351.3,128.3 M196.1,128l72.2-42.2l72.2,42.2H196.1z"
	/>
<path class="st0" d="M207.7,167.7c-6.1,0-11,4.9-11,11v67.4c0,6.1,4.9,11,11,11h0.2c6.1,0,11-4.9,11-11v-67.4
	C218.9,172.6,213.9,167.7,207.7,167.7 M213.7,246.1c0,3.3-2.6,5.8-6,5.8c-3.2,0-5.8-2.6-5.8-5.8v-67.4c0-3.2,2.6-5.8,5.8-5.8h0.2
	c3.2,0,5.8,2.6,5.8,5.8V246.1z"/>
<path class="st0" d="M207.7,167.7c-6.1,0-11,4.9-11,11v67.4c0,6.1,4.9,11,11,11h0.2c6.1,0,11-4.9,11-11v-67.4
	C218.9,172.6,213.9,167.7,207.7,167.7 M213.7,246.1c0,3.3-2.6,5.8-6,5.8c-3.2,0-5.8-2.6-5.8-5.8v-67.4c0-3.2,2.6-5.8,5.8-5.8h0.2
	c3.2,0,5.8,2.6,5.8,5.8V246.1z"/>
<path class="st0" d="M238,167.7c-6.1,0-11,4.9-11,11v67.4c0,6.1,4.9,11,11,11h0.2c6.1,0,11-4.9,11-11v-67.4
	C249.1,172.6,244.1,167.7,238,167.7 M244,246.1c0,3.3-2.6,5.8-6,5.8c-3.2,0-5.8-2.6-5.8-5.8v-67.4c0-3.2,2.6-5.8,5.8-5.8h0.2
	c3.2,0,5.8,2.6,5.8,5.8V246.1z"/>
<path class="st0" d="M238,167.7c-6.1,0-11,4.9-11,11v67.4c0,6.1,4.9,11,11,11h0.2c6.1,0,11-4.9,11-11v-67.4
	C249.1,172.6,244.1,167.7,238,167.7 M244,246.1c0,3.3-2.6,5.8-6,5.8c-3.2,0-5.8-2.6-5.8-5.8v-67.4c0-3.2,2.6-5.8,5.8-5.8h0.2
	c3.2,0,5.8,2.6,5.8,5.8V246.1z"/>
<path class="st0" d="M268.2,167.7c-6.1,0-11,4.9-11,11v67.4c0,6.1,4.9,11,11,11h0.2c6.1,0,11-4.9,11-11v-67.4
	C279.4,172.6,274.4,167.7,268.2,167.7 M274.2,246.1c0,3.3-2.6,5.8-6,5.8c-3.2,0-5.8-2.6-5.8-5.8v-67.4c0-3.2,2.6-5.8,5.8-5.8h0.2
	c3.2,0,5.8,2.6,5.8,5.8V246.1z"/>
<path class="st0" d="M268.2,167.7c-6.1,0-11,4.9-11,11v67.4c0,6.1,4.9,11,11,11h0.2c6.1,0,11-4.9,11-11v-67.4
	C279.4,172.6,274.4,167.7,268.2,167.7 M274.2,246.1c0,3.3-2.6,5.8-6,5.8c-3.2,0-5.8-2.6-5.8-5.8v-67.4c0-3.2,2.6-5.8,5.8-5.8h0.2
	c3.2,0,5.8,2.6,5.8,5.8V246.1z"/>
<path class="st0" d="M298.4,167.7c-6.1,0-11,4.9-11,11v67.4c0,6.1,4.9,11,11,11h0.2c6.1,0,11-4.9,11-11v-67.4
	C309.6,172.6,304.6,167.7,298.4,167.7 M304.4,246.1c0,3.3-2.6,5.8-6,5.8c-3.2,0-5.8-2.6-5.8-5.8v-67.4c0-3.2,2.6-5.8,5.8-5.8h0.2
	c3.2,0,5.8,2.6,5.8,5.8V246.1z"/>
<path class="st0" d="M298.4,167.7c-6.1,0-11,4.9-11,11v67.4c0,6.1,4.9,11,11,11h0.2c6.1,0,11-4.9,11-11v-67.4
	C309.6,172.6,304.6,167.7,298.4,167.7 M304.4,246.1c0,3.3-2.6,5.8-6,5.8c-3.2,0-5.8-2.6-5.8-5.8v-67.4c0-3.2,2.6-5.8,5.8-5.8h0.2
	c3.2,0,5.8,2.6,5.8,5.8V246.1z"/>
<path class="st0" d="M328.7,167.7c-6.1,0-11,4.9-11,11v67.4c0,6.1,4.9,11,11,11h0.2c6.1,0,11-4.9,11-11v-67.4
	C339.9,172.6,334.9,167.7,328.7,167.7 M334.7,246.1c0,3.3-2.6,5.8-6,5.8c-3.2,0-5.8-2.6-5.8-5.8v-67.4c0-3.2,2.6-5.8,5.8-5.8h0.2
	c3.2,0,5.8,2.6,5.8,5.8V246.1z"/>
<path class="st0" d="M328.7,167.7c-6.1,0-11,4.9-11,11v67.4c0,6.1,4.9,11,11,11h0.2c6.1,0,11-4.9,11-11v-67.4
	C339.9,172.6,334.9,167.7,328.7,167.7 M334.7,246.1c0,3.3-2.6,5.8-6,5.8c-3.2,0-5.8-2.6-5.8-5.8v-67.4c0-3.2,2.6-5.8,5.8-5.8h0.2
	c3.2,0,5.8,2.6,5.8,5.8V246.1z"/>
<g>
	<path class="st1" d="M148.7,183.1c0-39-31.6-70.7-70.7-70.7c-0.9,0-1.9,0-2.8,0.1v141.2c0.9,0,1.8,0.1,2.8,0.1
		C117.1,253.8,148.7,222.2,148.7,183.1z"/>
	<path class="st2" d="M178.3,5.5c-56.9,0-103,46.1-103,103v4c0.9,0,1.8-0.1,2.8-0.1c39,0,70.7,31.6,70.7,70.7
		c0,39-31.6,70.7-70.7,70.7c-0.9,0-1.9,0-2.8-0.1v102.1h273.2c56.9,0,103-46.1,103-103V5.5H178.3z"/>
	<path class="st3" d="M75.3,112.6"/>
	<path class="st3" d="M75.3,253.7"/>
	<path class="st2" d="M75.3,112.6C37.5,114,7.4,145,7.4,183.1s30.1,69.1,67.9,70.6"/>
</g>
<g>
	<path class="st0" d="M84.5,220.5c-5.2,0-9.1-3.2-9.1-9.6v-49.1l-7.3,2.6c-2.1,0.8-4,1.1-5.6,1.1c-4.2,0-6.7-2.2-7.3-5.4l-0.7-3.8
		l13.6-6c7.6-3.2,10.1-3.9,14.2-3.9c4.8,0,8,4,8,7.9v66.2H84.5z"/>
</g>
</svg>
