<svg xmlns="http://www.w3.org/2000/svg" viewBox="0 0 248.01 153.7"><defs><style>.cls-1,.cls-3{fill:#ff5000;}.cls-2{fill:#fff;stroke:#ff5000;stroke-miterlimit:10;stroke-width:2px;}.cls-3{font-size:43.9px;font-family:BalooDa2-SemiBold, "Baloo Da 2";font-weight:600;}</style></defs><g id="Capa_2" data-name="Capa 2"><g id="Layer_1" data-name="Layer 1"><path class="cls-1" d="M233.81,13.16a3.11,3.11,0,0,0-1.38-.4V3.22A3.22,3.22,0,0,0,229.2,0H214.52a3.22,3.22,0,0,0-3.22,3.22v9.54a3.2,3.2,0,0,0-3,3.2V128.78a3.23,3.23,0,0,0,2.8,3.2c2.81,5.27,6.51,12.24,7.58,14.31v4.19a3.23,3.23,0,0,0,6.45,0v-4.2c1-2.05,4.78-9,7.59-14.3a3.23,3.23,0,0,0,2.79-3.2V20.31a9.21,9.21,0,0,1,6.09,9V64.19a3.23,3.23,0,0,0,6.45,0V29.26C248,20.92,242.35,14.75,233.81,13.16Zm-19.1,6H229V83.68H214.71ZM226,6.45v6.29h-8.24V6.45Zm1.92,120.81c-2.75,5.13-4.68,8.74-6,11.3-1.36-2.57-3.28-6.17-6-11.29a3.29,3.29,0,0,0-1.14-1.23V90.12H229v35.94A3.08,3.08,0,0,0,227.9,127.26Z"/><path class="cls-1" d="M156.66,52.48H113.38a3.23,3.23,0,0,0,0,6.45h43.28a3.23,3.23,0,0,0,0-6.45Z"/><path class="cls-1" d="M113.38,44.24h15.67a3.22,3.22,0,0,0,0-6.44H113.38a3.22,3.22,0,1,0,0,6.44Z"/><path class="cls-1" d="M129.05,108.71H113.38a3.23,3.23,0,0,0,0,6.45h15.67a3.23,3.23,0,0,0,0-6.45Z"/><path class="cls-1" d="M113.38,73.09h37a3.23,3.23,0,0,0,0-6.45h-37a3.23,3.23,0,0,0,0,6.45Z"/><path class="cls-1" d="M156.66,80.61H113.38a3.23,3.23,0,0,0,0,6.45h43.28a3.23,3.23,0,0,0,0-6.45Z"/><path class="cls-1" d="M199.81,41.73a3.23,3.23,0,0,0-1.27-2.57l-37.9-37.9a3.31,3.31,0,0,0-.68-.5l-.19-.1A3.55,3.55,0,0,0,159,.38h0a3,3,0,0,0-.6-.06H84.15a3.22,3.22,0,0,0-3.22,3.22V150.15a3.22,3.22,0,0,0,3.22,3.22h112.4a3.22,3.22,0,0,0,3.22-3.22v-108A3.13,3.13,0,0,0,199.81,41.73Zm-11.05-3.22H161.58V11.32l13.59,13.59ZM87.38,146.92V6.76h67.75v35A3.23,3.23,0,0,0,158.36,45h35v102Z"/><circle class="cls-2" cx="29.67" cy="67.63" r="28.67"/><text class="cls-3" transform="translate(17.25 80.79) scale(1.02 1)">3</text></g></g></svg>