<svg xmlns="http://www.w3.org/2000/svg" viewBox="0 0 182.7 185.61"><defs><style>.cls-1,.cls-3{fill:#a7a6a7;}.cls-2{fill:#fff;stroke:#a7a6a7;stroke-miterlimit:10;stroke-width:2px;}.cls-3{font-size:43.9px;font-family:BalooDa2-SemiBold, "Baloo Da 2";font-weight:600;}</style></defs><g id="Capa_2" data-name="Capa 2"><g id="Layer_1" data-name="Layer 1"><path class="cls-1" d="M109.89,82h4.47v4.11q7.45.9,9.67,8.46l-6.14,2.52q-1.8-5.19-5.56-5.19a4.07,4.07,0,0,0-3,1.16,3.86,3.86,0,0,0-1.14,2.81,3.15,3.15,0,0,0,1.1,2.58,19.11,19.11,0,0,0,4.72,2.23,41.42,41.42,0,0,1,6.22,2.73,9.78,9.78,0,0,1,3.61,3.56,10.24,10.24,0,0,1,1.35,5.32,11.23,11.23,0,0,1-2.78,7.77,11.93,11.93,0,0,1-8,3.66v5.33h-4.47v-5.3q-8.73-.89-10.82-10.16l6.89-1.8q.95,5.82,6.34,5.82a4.93,4.93,0,0,0,3.71-1.24,4.2,4.2,0,0,0,1.18-3A3.32,3.32,0,0,0,116,110.6a22.15,22.15,0,0,0-5.28-2.39A30.83,30.83,0,0,1,105,105.7a9.55,9.55,0,0,1-3.36-3.49A10.32,10.32,0,0,1,100.34,97a11.62,11.62,0,0,1,2.3-7c1.54-2.08,4-3.35,7.25-3.82Z"/><path class="cls-1" d="M113.41,177.87a7.28,7.28,0,1,1,7.28-7.28A7.28,7.28,0,0,1,113.41,177.87Zm0-9.67a2.39,2.39,0,1,0,2.39,2.39A2.39,2.39,0,0,0,113.41,168.2Z"/><path class="cls-1" d="M164.05,84.94a2.48,2.48,0,0,1-1-.22,2.45,2.45,0,0,1-1.42-2.22V77.35H132.45A2.45,2.45,0,0,1,130,74.9V62.72a2.44,2.44,0,0,1,2.44-2.44H161.6V55.13a2.45,2.45,0,0,1,4-1.87l16.15,13.68a2.44,2.44,0,0,1,0,3.73L165.63,84.36A2.45,2.45,0,0,1,164.05,84.94ZM134.9,72.45h29.15a2.45,2.45,0,0,1,2.44,2.45v2.31l9.93-8.4-9.93-8.4v2.31a2.44,2.44,0,0,1-2.44,2.45H134.9Z"/><path class="cls-1" d="M148.66,112.31a2.45,2.45,0,0,1-1.58-.58L130.92,98.05a2.43,2.43,0,0,1,0-3.73l16.15-13.69a2.45,2.45,0,0,1,4,1.87v5.14h29.15a2.45,2.45,0,0,1,2.45,2.45v12.17a2.45,2.45,0,0,1-2.45,2.45H151.1v5.15a2.45,2.45,0,0,1-1.41,2.22A2.49,2.49,0,0,1,148.66,112.31ZM136.29,96.19l9.92,8.39v-2.32a2.45,2.45,0,0,1,2.45-2.44H177.8V92.54H148.66a2.45,2.45,0,0,1-2.45-2.45V87.78Z"/><path class="cls-1" d="M157.52,56.44V54s0,0,0,0V46.8a14.29,14.29,0,0,0-14.28-14.26H83.55A14.27,14.27,0,0,0,69.3,46.8v4.75h0v4.89h0v113a16.18,16.18,0,0,0,16.18,16.16h55.88a16.18,16.18,0,0,0,16.17-16.16V111.62a2.45,2.45,0,0,0-4.9,0v43.95H74.19V56.44ZM74.19,46.8a9.37,9.37,0,0,1,9.36-9.36h59.7a9.38,9.38,0,0,1,9.38,9.36v4.75H74.19Zm78.44,113.67v9a11.28,11.28,0,0,1-11.27,11.27H85.48a11.29,11.29,0,0,1-11.29-11.27v-9Z"/><circle class="cls-2" cx="29.67" cy="29.67" r="28.67"/><text class="cls-3" transform="translate(15.82 42.83) scale(1.02 1)">4</text></g></g></svg>