<svg xmlns="http://www.w3.org/2000/svg" viewBox="0 0 198.83 180.94"><defs><style>.cls-1{fill:#218400;}.cls-2{fill:#fff;stroke:#218400;stroke-miterlimit:10;stroke-width:2px;}</style></defs><g id="Capa_2" data-name="Capa 2"><g id="Layer_1" data-name="Layer 1"><path class="cls-1" d="M154,54.3a1.83,1.83,0,0,1-.33,0,3.15,3.15,0,0,1-2.82-3.45,19.05,19.05,0,0,0,.11-2.14,21.83,21.83,0,0,0-4.69-13.59,21.44,21.44,0,0,0-5.87-5.25,22.06,22.06,0,0,0-33.58,18.84c0,.69,0,1.38.09,2.06a3.15,3.15,0,1,1-6.28.56c-.08-.86-.12-1.74-.12-2.62a28.37,28.37,0,0,1,43.18-24.23,27.94,27.94,0,0,1,7.55,6.75,28.33,28.33,0,0,1,5.39,11.47,27.8,27.8,0,0,1,.64,6,26,26,0,0,1-.14,2.78A3.15,3.15,0,0,1,154,54.3Z"/><path class="cls-1" d="M175.93,180.94h-20.3l-4.76-19.5a43.84,43.84,0,0,1-5,.28H116.31a43.72,43.72,0,0,1-5-.28l-4.77,19.5H86.24L81.09,147A136,136,0,0,1,69.63,134h-7a15,15,0,0,1-15-15V102.26a15,15,0,0,1,15-15H68.3A56.85,56.85,0,0,1,78.86,72.11L71,53.37c-.91-2.53.31-6.47,1.57-8.25a4.29,4.29,0,0,1,3.53-2,3.78,3.78,0,0,1,1.71.41l26.53,13.38a45.57,45.57,0,0,1,11.93-1.62h29.56c25,0,53,22.94,53,53.64v1c0,13.83-6,26.32-17.75,37.13Zm-15.34-6.31h9.92l4.68-30.77.85-.75c11.09-9.88,16.48-20.73,16.48-33.19v-1c0-27.09-24.63-47.34-46.65-47.34H116.31A39.8,39.8,0,0,0,105,63.26l-.44.13h-1.21l-.69-.33L77.19,50.23A4.9,4.9,0,0,0,77,51.28l9.33,22.35-1.56,1.5A50.16,50.16,0,0,0,73.25,91.62l-.81,1.93H62.58a8.73,8.73,0,0,0-8.72,8.71v16.68a8.73,8.73,0,0,0,8.72,8.72H72.74l.94,1.24c.08.1,7.43,9.74,12.46,14.2l.85.76,4.68,30.77h9.92l5-20.4,2.94.56a37.48,37.48,0,0,0,6.8.62h29.56a37.56,37.56,0,0,0,6.8-.62l2.94-.56Z"/><path class="cls-1" d="M87.65,93h0a3.16,3.16,0,0,1-3.14-3.17V89a3.16,3.16,0,0,1,3.15-3.14h0a3.16,3.16,0,0,1,3.14,3.17v.77A3.15,3.15,0,0,1,87.65,93Z"/><circle class="cls-2" cx="29.67" cy="29.67" r="28.67"/><path class="cls-1" d="M19.82,19.48a2.51,2.51,0,0,1,.58-1.61A4.82,4.82,0,0,1,22,16.62a9.5,9.5,0,0,1,2.48-.81,16.2,16.2,0,0,1,3.14-.29,13.78,13.78,0,0,1,4.26.6A9.06,9.06,0,0,1,35,17.76a6.86,6.86,0,0,1,1.92,2.51,7.75,7.75,0,0,1,.65,3.2,9,9,0,0,1-1.32,4.61,19.17,19.17,0,0,1-4.35,4.78l-6.51,5.58h12a3.82,3.82,0,0,1,.4.92,4.06,4.06,0,0,1,.18,1.23,2.33,2.33,0,0,1-.54,1.69,2,2,0,0,1-1.47.55H20.31a3.39,3.39,0,0,1-1.12-1.23,3.63,3.63,0,0,1-.4-1.76A3.52,3.52,0,0,1,19.26,38a5.67,5.67,0,0,1,1.09-1.36l7.09-6.37a19.19,19.19,0,0,0,3.44-3.66,5.42,5.42,0,0,0,.94-2.88,3.28,3.28,0,0,0-1.21-2.63,5.32,5.32,0,0,0-3.52-1,8.82,8.82,0,0,0-3.35.59,11.83,11.83,0,0,0-2.45,1.29,3,3,0,0,1-1.05-1A2.59,2.59,0,0,1,19.82,19.48Z"/></g></g></svg>