<svg xmlns="http://www.w3.org/2000/svg" viewBox="0 0 194.26 130.84"><defs><style>.cls-1{fill:#fff;stroke:#986a4d;stroke-miterlimit:10;stroke-width:2px;}.cls-2{font-size:43.9px;font-family:BalooDa2-SemiBold, "Baloo Da 2";font-weight:600;}.cls-2,.cls-3{fill:#986a4d;}</style></defs><g id="Capa_2" data-name="Capa 2"><g id="Layer_1" data-name="Layer 1"><circle class="cls-1" cx="29.67" cy="34.75" r="28.67"/><text class="cls-2" transform="translate(16.85 47.91) scale(1.02 1)">5</text><g id="ldKKOJ.tif"><path class="cls-3" d="M194.26,128.79c-.9,1.59-2.27,2.05-4.06,2.05q-76.72,0-153.45,0h-.47c-3.19-.09-4.42-2.25-2.8-5q8-13.63,16.12-27.25C56.88,86.29,64.18,74,71.4,61.69a4.55,4.55,0,0,1,4.45-2.54c6.25.08,12.51,0,18.77,0h1.89c-.38-.71-.63-1.21-.91-1.7-2.78-4.88-5.66-9.71-8.34-14.64A28.84,28.84,0,0,1,92.15,8.78c5.9-6.1,13.26-8.86,21.71-8.78,7.67.08,14.52,2.48,20,7.88,8.41,8.28,11.33,18.24,8,29.67a47.14,47.14,0,0,1-4.16,9c-2.26,4.19-4.74,8.27-7.24,12.6.77,0,1.32.08,1.87.08,6.3,0,12.61,0,18.92,0a4.36,4.36,0,0,1,4.24,2.35q19.19,32.56,38.46,65.08a1.89,1.89,0,0,0,.32.31Zm-34-47.55c-1.4-2.37-2.69-4.52-4-6.72-.43.12-.78.21-1.12.32l-15.34,5.23c-5.51,1.88-11,3.78-16.54,5.63-2.69.9-4.26-.07-4.73-2.86-.11-.6-.23-1.2-.41-2.12l-1.66,2.81c-1.78,3-4.22,3-6,0-3.32-5.72-6.61-11.45-9.93-17.17-.27-.47-.61-.89-.91-1.33l-.47.07-16.1,59.77h43c0-.39,0-.65-.07-.91q-1.89-10.69-3.79-21.38c-.51-2.86-.14-3.62,2.47-4.83l20-9.26Zm-46.82-4.68a10,10,0,0,0,.57-.83q10-17.39,20.08-34.77a22.36,22.36,0,0,0,3-14.86c-2.33-15-16.4-23.54-30.9-19.11C92,11.31,85.72,26.66,92.38,39.88c2.07,4.12,4.53,8,6.84,12C103.91,60.07,108.61,68.2,113.45,76.56ZM41,124.88c.41,0,.57.07.72.07,11.35,0,22.7,0,34.05,0,1.16,0,1.35-.56,1.59-1.45q6.06-22.64,12.19-45.26c1.17-4.34,2.33-8.69,3.53-13.18-5.15,0-10.14,0-15.12,0a2.43,2.43,0,0,0-2.48,1.38Q58.66,94.94,41.79,123.36C41.53,123.8,41.3,124.26,41,124.88ZM163.38,86.5a2.23,2.23,0,0,0-.51.06q-16.87,7.8-33.74,15.59c-.83.38-.85.88-.71,1.63.42,2.16.79,4.33,1.17,6.5.87,4.85,1.73,9.7,2.61,14.59h53.89ZM153.16,69.28c-.61-1-1.17-1.87-1.58-2.76a2.28,2.28,0,0,0-2.44-1.46c-6.89.08-13.77.06-20.66,0a1.91,1.91,0,0,0-2,1.08c-1,1.9-2.15,3.73-3.19,5.62a2.49,2.49,0,0,0-.37,1.46c.27,2,.64,3.92,1,6Z"/><path class="cls-3" d="M113.55,41.8a12,12,0,1,1,11.92-11.95A12,12,0,0,1,113.55,41.8Zm6-11.91a6,6,0,1,0-6,6A6.06,6.06,0,0,0,119.53,29.89Z"/></g></g></g></svg>