<svg xmlns="http://www.w3.org/2000/svg" viewBox="0 0 214.28 163.71"><defs><style>.cls-1{fill:#79286a;}.cls-2{fill:#fff;stroke:#79286a;stroke-miterlimit:10;stroke-width:2px;}</style></defs><g id="Capa_2" data-name="Capa 2"><g id="Layer_1" data-name="Layer 1"><path class="cls-1" d="M212.21,46.16h-130a2.06,2.06,0,0,0-2.06,2.05V63.5a2.07,2.07,0,0,0,2.06,2.06h130a2.07,2.07,0,0,0,2.06-2.06V48.21A2.06,2.06,0,0,0,212.21,46.16Zm-2.06,15.27H84.24V50.29H210.15Z"/><path class="cls-1" d="M212.21,46.16h-130a2.06,2.06,0,0,0-2.06,2.05V63.5a2.07,2.07,0,0,0,2.06,2.06h130a2.07,2.07,0,0,0,2.06-2.06V48.21A2.06,2.06,0,0,0,212.21,46.16Zm-2.06,15.27H84.24V50.29H210.15Z"/><path class="cls-1" d="M212.21,144.33h-130a2.07,2.07,0,0,0-2.06,2.06v15.27a2.05,2.05,0,0,0,2.06,2.05h130a2.05,2.05,0,0,0,2.06-2.05V146.39A2.07,2.07,0,0,0,212.21,144.33Zm-2.06,15.27H84.24V148.44H210.15Z"/><path class="cls-1" d="M212.21,144.33h-130a2.07,2.07,0,0,0-2.06,2.06v15.27a2.05,2.05,0,0,0,2.06,2.05h130a2.05,2.05,0,0,0,2.06-2.05V146.39A2.07,2.07,0,0,0,212.21,144.33Zm-2.06,15.27H84.24V148.44H210.15Z"/><path class="cls-1" d="M213.19,38.23,148.22.28a1.94,1.94,0,0,0-1-.28,2,2,0,0,0-1,.28l-65,38a2.08,2.08,0,0,0-.95,2.32,2,2,0,0,0,2,1.52h130A2.07,2.07,0,0,0,214.28,40,2,2,0,0,0,213.19,38.23ZM89.78,38,147.19,4.43,204.61,38Z"/><path class="cls-1" d="M213.19,38.23,148.22.28a1.94,1.94,0,0,0-1-.28,2,2,0,0,0-1,.28l-65,38a2.08,2.08,0,0,0-.95,2.32,2,2,0,0,0,2,1.52h130A2.07,2.07,0,0,0,214.28,40,2,2,0,0,0,213.19,38.23ZM89.78,38,147.19,4.43,204.61,38Z"/><path class="cls-1" d="M99,69.58a8.74,8.74,0,0,0-8.73,8.75V131.9A8.73,8.73,0,0,0,99,140.64h.15a8.75,8.75,0,0,0,8.74-8.74V78.33A8.82,8.82,0,0,0,99,69.58Zm4.76,62.32a4.69,4.69,0,0,1-9.38,0V78.33A4.64,4.64,0,0,1,99,73.69h.15a4.64,4.64,0,0,1,4.61,4.64Z"/><path class="cls-1" d="M99,69.58a8.74,8.74,0,0,0-8.73,8.75V131.9A8.73,8.73,0,0,0,99,140.64h.15a8.75,8.75,0,0,0,8.74-8.74V78.33A8.82,8.82,0,0,0,99,69.58Zm4.76,62.32a4.69,4.69,0,0,1-9.38,0V78.33A4.64,4.64,0,0,1,99,73.69h.15a4.64,4.64,0,0,1,4.61,4.64Z"/><path class="cls-1" d="M123.08,69.58a8.75,8.75,0,0,0-8.75,8.75V131.9a8.75,8.75,0,0,0,8.75,8.74h.13A8.74,8.74,0,0,0,132,131.9V78.33A8.82,8.82,0,0,0,123.08,69.58Zm4.76,62.32a4.7,4.7,0,0,1-9.39,0V78.33a4.63,4.63,0,0,1,4.63-4.64h.13a4.63,4.63,0,0,1,4.63,4.64Z"/><path class="cls-1" d="M123.08,69.58a8.75,8.75,0,0,0-8.75,8.75V131.9a8.75,8.75,0,0,0,8.75,8.74h.13A8.74,8.74,0,0,0,132,131.9V78.33A8.82,8.82,0,0,0,123.08,69.58Zm4.76,62.32a4.7,4.7,0,0,1-9.39,0V78.33a4.63,4.63,0,0,1,4.63-4.64h.13a4.63,4.63,0,0,1,4.63,4.64Z"/><path class="cls-1" d="M147.13,69.58a8.74,8.74,0,0,0-8.74,8.75V131.9a8.74,8.74,0,0,0,8.74,8.74h.13A8.75,8.75,0,0,0,156,131.9V78.33A8.82,8.82,0,0,0,147.13,69.58Zm4.76,62.32a4.7,4.7,0,0,1-9.39,0V78.33a4.63,4.63,0,0,1,4.63-4.64h.13a4.63,4.63,0,0,1,4.63,4.64Z"/><path class="cls-1" d="M147.13,69.58a8.74,8.74,0,0,0-8.74,8.75V131.9a8.74,8.74,0,0,0,8.74,8.74h.13A8.75,8.75,0,0,0,156,131.9V78.33A8.82,8.82,0,0,0,147.13,69.58Zm4.76,62.32a4.7,4.7,0,0,1-9.39,0V78.33a4.63,4.63,0,0,1,4.63-4.64h.13a4.63,4.63,0,0,1,4.63,4.64Z"/><path class="cls-1" d="M171.16,69.58a8.75,8.75,0,0,0-8.74,8.75V131.9a8.75,8.75,0,0,0,8.74,8.74h.13A8.74,8.74,0,0,0,180,131.9V78.33A8.8,8.8,0,0,0,171.16,69.58Zm4.77,62.32a4.69,4.69,0,0,1-9.38,0V78.33a4.64,4.64,0,0,1,4.61-4.64h.13a4.64,4.64,0,0,1,4.64,4.64Z"/><path class="cls-1" d="M171.16,69.58a8.75,8.75,0,0,0-8.74,8.75V131.9a8.75,8.75,0,0,0,8.74,8.74h.13A8.74,8.74,0,0,0,180,131.9V78.33A8.8,8.8,0,0,0,171.16,69.58Zm4.77,62.32a4.69,4.69,0,0,1-9.38,0V78.33a4.64,4.64,0,0,1,4.61-4.64h.13a4.64,4.64,0,0,1,4.64,4.64Z"/><path class="cls-1" d="M195.22,69.58a8.74,8.74,0,0,0-8.75,8.75V131.9a8.74,8.74,0,0,0,8.75,8.74h.13a8.75,8.75,0,0,0,8.74-8.74V78.33A8.81,8.81,0,0,0,195.22,69.58ZM200,131.9a4.7,4.7,0,0,1-9.4,0V78.33a4.64,4.64,0,0,1,4.64-4.64h.13A4.64,4.64,0,0,1,200,78.33Z"/><path class="cls-1" d="M195.22,69.58a8.74,8.74,0,0,0-8.75,8.75V131.9a8.74,8.74,0,0,0,8.75,8.74h.13a8.75,8.75,0,0,0,8.74-8.74V78.33A8.81,8.81,0,0,0,195.22,69.58ZM200,131.9a4.7,4.7,0,0,1-9.4,0V78.33a4.64,4.64,0,0,1,4.64-4.64h.13A4.64,4.64,0,0,1,200,78.33Z"/><circle class="cls-2" cx="29.67" cy="95.18" r="28.67"/><path class="cls-1" d="M22.51,88.94A3.92,3.92,0,0,1,21.35,88a2.5,2.5,0,0,1-.53-1.67c0-1.29.82-2.24,2.45-2.85l5.62-2.15h1.25a3.18,3.18,0,0,1,2.28.81,2.94,2.94,0,0,1,.85,2.21v24l-1.1.22a7.8,7.8,0,0,1-1.49.13,3.83,3.83,0,0,1-2.34-.57,2.38,2.38,0,0,1-.74-2V87Z"/></g></g></svg>