<?xml version="1.0" encoding="utf-8"?>
<!-- Generator: Adobe Illustrator 25.0.1, SVG Export Plug-In . SVG Version: 6.00 Build 0)  -->
<svg version="1.1" id="Capa_1" xmlns="http://www.w3.org/2000/svg" xmlns:xlink="http://www.w3.org/1999/xlink" x="0px" y="0px"
	 viewBox="0 0 31.1 31.1" style="enable-background:new 0 0 31.1 31.1;" xml:space="preserve">
<style type="text/css">
	.st0{fill:#FF4F00;}
</style>
<g id="Headlines">
	<path class="st0" d="M30.8,12.7c-1.5-8.4-9.6-14-18-12.5s-14,9.6-12.5,18c0.3,1.5,0.7,2.9,1.4,4.2c0.2,0.4,0.2,0.8,0.1,1.2
		c-0.5,2.1-1.1,4.1-1.7,6.2c-0.3,0.9,0.1,1.3,1,1c2.1-0.5,4.3-1.1,6.4-1.5c0.4-0.1,0.9,0,1.3,0.1c7.8,3.7,17.1,0.4,20.8-7.4
		c1-2.1,1.5-4.3,1.5-6.6C31,14.6,30.9,13.7,30.8,12.7z M23,22.5c-1.4,1.1-3.3,1.4-5,0.9c-4.7-1.3-8-4.4-10.4-8.5
		c-1.3-2.1-1.1-4.8,0.6-6.6c0.8-0.8,2-1.1,3-0.7c0.4,0.1,0.7,0.5,0.9,0.9c0.5,1,0.8,2,1.3,3c0.2,0.6,0.2,1.2-0.2,1.7
		c-0.3,0.4-0.6,0.8-0.9,1.1c1.2,2,3,3.6,5.2,4.4l1.2-1.5c0.3-0.5,1-0.7,1.6-0.4c1.1,0.5,2.3,1,3.4,1.6c0.3,0.2,0.6,0.6,0.6,0.9
		C24.4,20.5,23.9,21.7,23,22.5z"/>
</g>
</svg>
