<svg xmlns="http://www.w3.org/2000/svg" viewBox="0 0 535.43 454.31"><defs><style>.cls-1{fill:#f7f7f7;}</style></defs><g id="Capa_2" data-name="Capa 2"><g id="Layer_5" data-name="Layer 5"><g id="wRAP5C.tif"><path class="cls-1" d="M274.12,315.47c1.29-57,14.56-110.52,43-160,16.44-28.6,36.65-54.26,62.18-75.44,7-5.83,14.77-6.7,21.81-2.74,6.49,3.65,10.51,10.87,8.84,18.51a22.51,22.51,0,0,1-6.34,11.5c-49.27,43.58-78,98.26-88.25,162.84-4.75,29.8-4.42,59.71,0,89.56.61,4.13,1.26,8.28,1.49,12.44.56,10-6.34,18.47-15.69,19.6-10.18,1.23-19.41-5.25-20.66-15.57C278.06,356,276.22,335.73,274.12,315.47Z" transform="translate(0)"/><path class="cls-1" d="M224.68,315.49c-2.05,20.08-3.89,40.19-6.23,60.23-1.23,10.47-10,17-20.26,16.1-9.64-.87-16.91-9.26-16.13-19.63,1.27-16.83,4.17-33.61,4.45-50.45,1.43-84.47-27.21-156.45-90.6-213.53-8.37-7.54-9.84-18.5-3.25-26.49,6.88-8.35,17.93-9.14,27-1.63,26,21.68,46.52,48,63.18,77.28,23.09,40.59,35.94,84.39,39.66,130.86.72,9,1.81,14.24,1.81,23.29C224.35,312.36,224.68,315.15,224.68,315.49Z" transform="translate(0)"/><path class="cls-1" d="M374.07,334.87c4.43-61,38-101.25,90.69-128a108.31,108.31,0,0,1,14.37-6.17c10-3.36,20,1.42,23.5,10.81,3.53,9.55-.81,19.46-10.7,23.5-14.6,6-28.35,13.36-40.5,23.47-24.45,20.35-39.14,45.82-40.54,78.17-.11,2.43-.4,4.86-.66,7.28-1.15,10.37-9,17.24-19.05,16.79-9.88-.44-17.37-8.32-17.53-18.54C373.62,339.74,373.92,337.31,374.07,334.87Z" transform="translate(0)"/><path class="cls-1" d="M22.87,199.48c25.18,1,48.57,7.29,68.09,24.05,22,18.93,33.24,43.73,37.66,72A114.31,114.31,0,0,1,130,310c.31,10.89-7,19.05-17.39,19.68-9.59.58-18.08-6.57-19-16.95-1.21-12.91-3.38-25.51-8.84-37.37-11.2-24.35-30.64-36.53-57-38.53-3.13-.24-6.26-.38-9.39-.65C6.93,235.21-.49,227.42,0,217s8.91-17.63,20.22-17.49C21.12,199.49,22,199.48,22.87,199.48Z" transform="translate(0)"/><path class="cls-1" d="M255.79,112.44c-.41,4.37-.65,9.61-1.43,14.76a18.18,18.18,0,0,1-20.15,15.54c-9.82-1.22-17.26-9.81-16-19.78,3.94-32.21-11.57-54.27-36.58-71.56-2.43-1.68-5-3.11-7.51-4.73-8.68-5.69-11.38-16-6.51-24.62S183.31,9.57,191.92,15c10.86,6.8,21.53,14.27,30.91,22.94,17.48,16.16,28.54,36.27,31.89,60.15C255.34,102.52,255.4,107.07,255.79,112.44Z" transform="translate(0)"/><path class="cls-1" d="M423.27,27c6.73-1.7,12.88-2.94,18.79-4.91a13.88,13.88,0,0,0,6.59-4.94C452.3,11.89,455.34,6.23,459.07,0c3.64,6.06,6.64,11.7,10.31,16.88a15,15,0,0,0,7,5.24c5.73,2,11.74,3.12,18.48,4.82-4.52,5.59-8.89,10.63-12.78,16a12.32,12.32,0,0,0-2.12,7c.1,6.59.76,13.17,1.27,20.64C474.89,68,469,65.67,463.31,63.05c-2.88-1.32-5.31-1.56-8.3-.1-5.46,2.66-11.16,4.8-17.47,7.46,0-3.54-.56-6.77.1-9.73,2.26-10.17.1-18.7-7.84-25.74C427.5,32.9,425.83,30.15,423.27,27Z" transform="translate(0)"/><path class="cls-1" d="M90.09,369.55c-4.59,5.62-8.84,10.4-12.55,15.58a13.46,13.46,0,0,0-2.4,7.43c0,6.59.73,13.17,1.22,20.66-6.43-2.73-12.18-5.47-18.17-7.56a12.73,12.73,0,0,0-7.77,0c-5.88,2-11.52,4.72-18.19,7.56.45-7.25,1.19-13.73,1.11-20.2a15.8,15.8,0,0,0-2.79-8.37C27,379.57,22.83,375,18.42,369.58c7-1.8,13.27-3.15,19.33-5.09a12,12,0,0,0,5.86-4.37c3.67-5.4,6.83-11.14,10.65-17.51,3.82,6.37,7,12.12,10.66,17.53a12.06,12.06,0,0,0,5.87,4.36C76.73,366.4,82.86,367.71,90.09,369.55Z" transform="translate(0)"/><path class="cls-1" d="M477.58,373.53c.53-7.22.85-13.29,1.46-19.33a11.26,11.26,0,0,0-3-9.48c-4.08-4.48-7.73-9.37-12.15-14.8,6.91-1.79,13.27-3.22,19.47-5.16a11.07,11.07,0,0,0,5.49-4c3.67-5.49,6.87-11.28,10.8-17.85,3.63,6.07,6.7,11.78,10.38,17.06a14.13,14.13,0,0,0,6.61,4.94c5.85,2,11.94,3.26,18.76,5-4.53,5.59-8.78,10.37-12.43,15.58a14.52,14.52,0,0,0-2.45,7.9c0,6.41.77,12.82,1.3,20.18-6.31-2.67-11.89-5.41-17.73-7.34a14.93,14.93,0,0,0-8.73-.05C489.66,368.05,484.2,370.73,477.58,373.53Z" transform="translate(0)"/><path class="cls-1" d="M46.12,155.76a18.43,18.43,0,0,1-18.27,18.29,18.73,18.73,0,0,1-18.4-18.28A18.35,18.35,0,0,1,28.1,137.39,18.07,18.07,0,0,1,46.12,155.76Z" transform="translate(0)"/><path class="cls-1" d="M311.54,31.19a18,18,0,0,1,18-18.39A18.42,18.42,0,0,1,348.2,31.17a18.82,18.82,0,0,1-18.4,18.3A18.39,18.39,0,0,1,311.54,31.19Z" transform="translate(0)"/><path class="cls-1" d="M432.81,137.39a18.07,18.07,0,0,1,18.13,18.26,18.44,18.44,0,0,1-18.16,18.4,18.64,18.64,0,0,1-18.49-18.69A18.31,18.31,0,0,1,432.81,137.39Z" transform="translate(0)"/><path class="cls-1" d="M245.81,417.65a18.3,18.3,0,0,1,18.39,18.1,18.35,18.35,0,1,1-36.69.06A18.2,18.2,0,0,1,245.81,417.65Z" transform="translate(0)"/></g></g></g></svg>