<svg xmlns="http://www.w3.org/2000/svg" viewBox="0 0 28.82 33.38"><defs><style>.cls-1{fill:#79286a;}</style></defs><g id="Capa_2" data-name="Capa 2"><g id="Capa_1-2" data-name="Capa 1"><path class="cls-1" d="M0,9.45V9.39L5.27,6.52,6.07,8,7.86,7l.26.46.22.4C12.06,6.08,15.85,5.1,20,6.18l-.2-.24A3.55,3.55,0,0,1,20.32.7,4.55,4.55,0,0,1,22,0h.92A.59.59,0,0,0,23,.06a3.55,3.55,0,0,1,0,7,9.23,9.23,0,0,1-1.18.06,9,9,0,0,1,.65.76,6.46,6.46,0,0,1,.94,2.47c.15.83.28,1.67.43,2.52h.36c1-.11,1.92-.21,2.87-.34a1.37,1.37,0,0,1,1.47.58,3.27,3.27,0,0,1,.22.51V14a1.39,1.39,0,0,1-1,1,14.06,14.06,0,0,1-4.29.4,2.14,2.14,0,0,1-2.14-1.87c-.07-.29-.13-.59-.21-1l-.63,2c-.58,1.74-1.15,3.48-1.75,5.22a.59.59,0,0,0,.1.63c.71.89,1.43,1.78,2.08,2.72a2.33,2.33,0,0,1,.21,2.52,16,16,0,0,1-1.05,1.91c-1.13,1.58-2.31,3.13-3.46,4.69a2.72,2.72,0,0,1-1.35,1.11h-.65a5,5,0,0,1-.52-.25,1.62,1.62,0,0,1-.35-2.48c.8-1.06,1.63-2.09,2.41-3.16.61-.84,1.17-1.73,1.75-2.6a.39.39,0,0,0,0-.33,7.44,7.44,0,0,0-.54-.75l-.11.15L12.29,31.4a3.57,3.57,0,0,1-.3.38,1.63,1.63,0,0,1-2.19.14,1.66,1.66,0,0,1-.22-2.34q2.26-3.27,4.51-6.55A6,6,0,0,0,15,21.19a.53.53,0,0,0-.1-.5c-.4-.58-.8-1.16-1.16-1.77a3,3,0,0,1-.48-1.7A8.12,8.12,0,0,1,14,14.57c.65-1.42,1.36-2.81,2-4.22.32-.65.62-1.31,1-2a16,16,0,0,0-7.43,1.8l.59,1.1-1.77,1,.83,1.54L4,16.64l-.21-.37C2.59,14.09,1.4,11.91.2,9.74c-.06-.1-.13-.19-.2-.29m7.34-.69-.56.32c.36.67.72,1.31,1.07,2l.58-.31-1.09-2"/></g></g></svg>