<?xml version="1.0" encoding="utf-8"?>
<!-- Generator: Adobe Illustrator 16.0.0, SVG Export Plug-In . SVG Version: 6.00 Build 0)  -->
<!DOCTYPE svg PUBLIC "-//W3C//DTD SVG 1.1//EN" "http://www.w3.org/Graphics/SVG/1.1/DTD/svg11.dtd">
<svg version="1.1" id="Capa_1" xmlns="http://www.w3.org/2000/svg" xmlns:xlink="http://www.w3.org/1999/xlink" x="0px" y="0px"
	 width="538.117px" height="292.933px" viewBox="0 0 538.117 292.933" enable-background="new 0 0 538.117 292.933"
	 xml:space="preserve">
<g opacity="0.2">
	<g>
		<defs>
			<rect id="SVGID_1_" y="146.241" width="538.117" height="134.587"/>
		</defs>
		<clipPath id="SVGID_2_">
			<use xlink:href="#SVGID_1_"  overflow="visible"/>
		</clipPath>
		<rect x="13.035" y="266.169" clip-path="url(#SVGID_2_)" fill="#565656" width="1.878" height="10.836"/>
		<path clip-path="url(#SVGID_2_)" fill="#8C8C8C" d="M21.357,257.545c0-14.702-7.051-40.717-7.051-40.717
			s-7.052,26.015-7.052,40.717c0,14.701,1.763,16.048,7.052,16.048C19.594,273.593,21.357,272.247,21.357,257.545"/>
		<polygon clip-path="url(#SVGID_2_)" fill="#C5C5C5" points="132.5,277.896 103.049,277.896 103.049,208.911 132.5,219.578 		"/>
		<rect x="111.625" y="222.349" clip-path="url(#SVGID_2_)" fill="#7F7F7F" width="17.726" height="55.547"/>
		<rect x="110.683" y="226.534" clip-path="url(#SVGID_2_)" fill="#C5C5C5" width="13.979" height="6.953"/>
		<rect x="113.053" y="228.363" clip-path="url(#SVGID_2_)" fill="#525252" width="9.239" height="3.295"/>
		<rect x="110.683" y="237.514" clip-path="url(#SVGID_2_)" fill="#C5C5C5" width="13.979" height="6.953"/>
		<rect x="113.053" y="239.343" clip-path="url(#SVGID_2_)" fill="#525252" width="9.239" height="3.296"/>
		<rect x="110.683" y="248.496" clip-path="url(#SVGID_2_)" fill="#C5C5C5" width="13.979" height="6.953"/>
		<rect x="113.053" y="250.325" clip-path="url(#SVGID_2_)" fill="#525252" width="9.239" height="3.294"/>
		<polygon clip-path="url(#SVGID_2_)" fill="#555555" points="111.533,209.185 138.267,219.211 138.267,223.317 112.252,223.317 		
			"/>
		<rect x="30.053" y="160.386" clip-path="url(#SVGID_2_)" fill="#A8A8A8" width="83.833" height="115"/>
		<rect x="30.053" y="160.386" clip-path="url(#SVGID_2_)" fill="#7F7F7F" width="83.833" height="4.811"/>
		<rect x="36.236" y="215.972" clip-path="url(#SVGID_2_)" fill="#7F7F7F" width="71.466" height="12.246"/>
		<rect x="34.171" y="215.342" clip-path="url(#SVGID_2_)" fill="#E9E9E9" width="75.596" height="3.153"/>
		<polygon clip-path="url(#SVGID_2_)" fill="#656565" points="109.742,215.358 34.198,215.358 38.171,208.702 105.768,208.702 		"/>
		<polygon clip-path="url(#SVGID_2_)" fill="#656565" points="118.612,161.955 25.327,161.955 32.312,146.241 111.627,146.241 		"/>
		<polygon clip-path="url(#SVGID_2_)" fill="#555555" points="27.605,156.83 25.328,161.955 118.612,161.955 116.334,156.83 		"/>
		<rect x="63.815" y="240.094" clip-path="url(#SVGID_2_)" fill="#E9E9E9" width="16.471" height="33.304"/>
		<rect x="66.36" y="232.92" clip-path="url(#SVGID_2_)" fill="#E9E9E9" width="11.537" height="4.371"/>
		<path clip-path="url(#SVGID_2_)" fill="#E9E9E9" d="M72.129,230.726L72.129,230.726c-2.06,0-3.729-1.67-3.729-3.729v-1.173
			c0-2.06,1.669-3.729,3.729-3.729c2.06,0,3.729,1.67,3.729,3.729v1.173C75.858,229.056,74.189,230.726,72.129,230.726"/>
		<path clip-path="url(#SVGID_2_)" fill="#525252" d="M72.129,228.458L72.129,228.458c-0.977,0-1.769-0.792-1.769-1.769v-0.557
			c0-0.977,0.792-1.769,1.769-1.769s1.769,0.792,1.769,1.769v0.557C73.898,227.666,73.105,228.458,72.129,228.458"/>
		<rect x="65.247" y="241.717" clip-path="url(#SVGID_2_)" fill="#6D6D6D" width="13.606" height="31.681"/>
		<polygon clip-path="url(#SVGID_2_)" fill="#565656" points="65.247,258.406 65.247,273.398 78.853,273.398 78.853,244.801 		"/>
		<rect x="37.513" y="233.875" clip-path="url(#SVGID_2_)" fill="#E9E9E9" width="13.909" height="22.216"/>
		<rect x="39.694" y="236.268" clip-path="url(#SVGID_2_)" fill="#707070" width="9.546" height="17.432"/>
		<path clip-path="url(#SVGID_2_)" fill="#525252" d="M49.24,238.673v-2.405h-9.545v9.165
			C42.884,243.185,46.061,240.927,49.24,238.673"/>
		<rect x="91.895" y="233.875" clip-path="url(#SVGID_2_)" fill="#E9E9E9" width="13.909" height="22.216"/>
		<rect x="94.076" y="236.268" clip-path="url(#SVGID_2_)" fill="#707070" width="9.545" height="17.432"/>
		<path clip-path="url(#SVGID_2_)" fill="#525252" d="M103.621,238.673v-2.405h-9.545v9.165
			C97.265,243.185,100.441,240.927,103.621,238.673"/>
		<rect x="37.513" y="176.282" clip-path="url(#SVGID_2_)" fill="#E9E9E9" width="13.909" height="22.217"/>
		<rect x="39.694" y="178.674" clip-path="url(#SVGID_2_)" fill="#707070" width="9.546" height="17.432"/>
		<path clip-path="url(#SVGID_2_)" fill="#525252" d="M49.24,181.08v-2.405h-9.545v9.166
			C42.884,185.591,46.061,183.334,49.24,181.08"/>
		<rect x="65.126" y="176.282" clip-path="url(#SVGID_2_)" fill="#E9E9E9" width="13.909" height="22.217"/>
		<rect x="67.308" y="178.674" clip-path="url(#SVGID_2_)" fill="#707070" width="9.545" height="17.432"/>
		<path clip-path="url(#SVGID_2_)" fill="#525252" d="M76.853,181.08v-2.405h-9.545v9.166
			C70.497,185.591,73.673,183.334,76.853,181.08"/>
		<rect x="91.895" y="176.282" clip-path="url(#SVGID_2_)" fill="#E9E9E9" width="13.909" height="22.217"/>
		<rect x="94.076" y="178.674" clip-path="url(#SVGID_2_)" fill="#707070" width="9.545" height="17.432"/>
		<path clip-path="url(#SVGID_2_)" fill="#525252" d="M103.621,181.08v-2.405h-9.545v9.166
			C97.265,185.591,100.441,183.334,103.621,181.08"/>
		<rect x="27.423" y="272.282" clip-path="url(#SVGID_2_)" fill="#CDCDCD" width="89.092" height="5.644"/>
		<rect x="61.281" y="272.282" clip-path="url(#SVGID_2_)" fill="#ADADAD" width="21.376" height="5.644"/>
		<rect x="61.281" y="273.554" clip-path="url(#SVGID_2_)" fill="#808080" width="21.376" height="1.319"/>
		<rect x="2.027" y="276.227" clip-path="url(#SVGID_2_)" fill="#B7B7B7" width="139.885" height="4.602"/>
		<rect x="2.027" y="265.489" clip-path="url(#SVGID_2_)" fill="#E9E9E9" width="2.188" height="10.738"/>
		<rect x="0" y="264.813" clip-path="url(#SVGID_2_)" fill="#E9E9E9" width="61.167" height="2.188"/>
		<rect x="83.454" y="264.813" clip-path="url(#SVGID_2_)" fill="#E9E9E9" width="61.167" height="2.188"/>
		<rect x="8.912" y="265.489" clip-path="url(#SVGID_2_)" fill="#E9E9E9" width="2.188" height="10.738"/>
		<rect x="15.796" y="265.489" clip-path="url(#SVGID_2_)" fill="#E9E9E9" width="2.188" height="10.738"/>
		<rect x="22.681" y="265.489" clip-path="url(#SVGID_2_)" fill="#E9E9E9" width="2.188" height="10.738"/>
		<rect x="55.897" y="221.267" clip-path="url(#SVGID_2_)" fill="#E9E9E9" width="3.594" height="51.123"/>
		<rect x="55.218" y="220.031" clip-path="url(#SVGID_2_)" fill="#C5C5C5" width="4.953" height="1.849"/>
		<rect x="54.119" y="218.235" clip-path="url(#SVGID_2_)" fill="#E9E9E9" width="7.15" height="1.848"/>
		<rect x="55.218" y="268.642" clip-path="url(#SVGID_2_)" fill="#C5C5C5" width="4.953" height="1.848"/>
		<rect x="54.12" y="270.438" clip-path="url(#SVGID_2_)" fill="#E9E9E9" width="7.15" height="1.848"/>
		<rect x="35.949" y="221.267" clip-path="url(#SVGID_2_)" fill="#E9E9E9" width="3.594" height="51.123"/>
		<rect x="35.269" y="220.031" clip-path="url(#SVGID_2_)" fill="#C5C5C5" width="4.953" height="1.849"/>
		<rect x="34.171" y="218.235" clip-path="url(#SVGID_2_)" fill="#E9E9E9" width="7.149" height="1.848"/>
		<rect x="35.27" y="268.641" clip-path="url(#SVGID_2_)" fill="#C5C5C5" width="4.953" height="1.849"/>
		<rect x="34.171" y="270.438" clip-path="url(#SVGID_2_)" fill="#E9E9E9" width="7.149" height="1.848"/>
		<rect x="104.422" y="221.267" clip-path="url(#SVGID_2_)" fill="#E9E9E9" width="3.594" height="51.123"/>
		<rect x="103.742" y="220.031" clip-path="url(#SVGID_2_)" fill="#C5C5C5" width="4.954" height="1.849"/>
		<rect x="102.644" y="218.235" clip-path="url(#SVGID_2_)" fill="#E9E9E9" width="7.149" height="1.848"/>
		<rect x="103.742" y="268.642" clip-path="url(#SVGID_2_)" fill="#C5C5C5" width="4.954" height="1.848"/>
		<rect x="102.644" y="270.438" clip-path="url(#SVGID_2_)" fill="#E9E9E9" width="7.15" height="1.848"/>
		<rect x="84.474" y="221.267" clip-path="url(#SVGID_2_)" fill="#E9E9E9" width="3.594" height="51.123"/>
		<rect x="83.793" y="220.031" clip-path="url(#SVGID_2_)" fill="#C5C5C5" width="4.953" height="1.849"/>
		<rect x="82.695" y="218.235" clip-path="url(#SVGID_2_)" fill="#E9E9E9" width="7.15" height="1.848"/>
		<rect x="83.794" y="268.642" clip-path="url(#SVGID_2_)" fill="#C5C5C5" width="4.954" height="1.848"/>
		<rect x="82.696" y="270.438" clip-path="url(#SVGID_2_)" fill="#E9E9E9" width="7.149" height="1.848"/>
		<rect x="29.565" y="265.489" clip-path="url(#SVGID_2_)" fill="#E9E9E9" width="2.188" height="10.738"/>
		<rect x="36.449" y="265.489" clip-path="url(#SVGID_2_)" fill="#E9E9E9" width="2.188" height="10.738"/>
		<rect x="43.333" y="265.489" clip-path="url(#SVGID_2_)" fill="#E9E9E9" width="2.188" height="10.738"/>
		<rect x="50.218" y="265.489" clip-path="url(#SVGID_2_)" fill="#E9E9E9" width="2.188" height="10.738"/>
		<rect x="57.102" y="265.489" clip-path="url(#SVGID_2_)" fill="#E9E9E9" width="2.188" height="10.738"/>
		<rect x="84.64" y="265.489" clip-path="url(#SVGID_2_)" fill="#E9E9E9" width="2.188" height="10.738"/>
		<rect x="91.524" y="265.489" clip-path="url(#SVGID_2_)" fill="#E9E9E9" width="2.188" height="10.738"/>
		<rect x="98.409" y="265.489" clip-path="url(#SVGID_2_)" fill="#E9E9E9" width="2.188" height="10.738"/>
		<rect x="105.292" y="265.489" clip-path="url(#SVGID_2_)" fill="#E9E9E9" width="2.188" height="10.738"/>
		<rect x="112.177" y="265.489" clip-path="url(#SVGID_2_)" fill="#E9E9E9" width="2.188" height="10.738"/>
		<rect x="119.061" y="265.489" clip-path="url(#SVGID_2_)" fill="#E9E9E9" width="2.188" height="10.738"/>
		<rect x="125.945" y="265.489" clip-path="url(#SVGID_2_)" fill="#E9E9E9" width="2.188" height="10.738"/>
		<rect x="132.83" y="265.489" clip-path="url(#SVGID_2_)" fill="#E9E9E9" width="2.188" height="10.738"/>
		<rect x="139.714" y="265.489" clip-path="url(#SVGID_2_)" fill="#E9E9E9" width="2.188" height="10.738"/>
		<rect x="39.694" y="169.89" clip-path="url(#SVGID_2_)" fill="#E9E9E9" width="9.546" height="3.045"/>
		<rect x="67.308" y="169.89" clip-path="url(#SVGID_2_)" fill="#E9E9E9" width="9.545" height="3.045"/>
		<rect x="81.531" y="204.778" clip-path="url(#SVGID_2_)" fill="#7F7F7F" width="4.62" height="1.475"/>
		<rect x="60.466" y="198.443" clip-path="url(#SVGID_2_)" fill="#7F7F7F" width="4.621" height="1.475"/>
		<rect x="76.989" y="168.324" clip-path="url(#SVGID_2_)" fill="#7F7F7F" width="4.621" height="1.475"/>
		<rect x="52.841" y="172.827" clip-path="url(#SVGID_2_)" fill="#7F7F7F" width="4.621" height="1.474"/>
		<rect x="105.864" y="183.18" clip-path="url(#SVGID_2_)" fill="#7F7F7F" width="4.62" height="1.474"/>
		<rect x="34.844" y="202.834" clip-path="url(#SVGID_2_)" fill="#7F7F7F" width="4.203" height="1.475"/>
		<rect x="62.158" y="231.446" clip-path="url(#SVGID_2_)" fill="#7F7F7F" width="4.203" height="1.476"/>
		<rect x="48.23" y="259.935" clip-path="url(#SVGID_2_)" fill="#7F7F7F" width="4.203" height="1.475"/>
		<rect x="91.944" y="257.686" clip-path="url(#SVGID_2_)" fill="#7F7F7F" width="4.202" height="1.475"/>
		<rect x="94.076" y="169.89" clip-path="url(#SVGID_2_)" fill="#E9E9E9" width="9.545" height="3.045"/>
		<g opacity="0.5" clip-path="url(#SVGID_2_)">
			<g>
				<defs>
					<rect id="SVGID_3_" x="319.107" y="147.89" width="114.525" height="91.934"/>
				</defs>
				<clipPath id="SVGID_4_">
					<use xlink:href="#SVGID_3_"  overflow="visible"/>
				</clipPath>
				<polygon clip-path="url(#SVGID_4_)" fill="#C5C5C5" points="429.726,237.531 406.699,237.531 406.699,183.594 429.726,191.935 
									"/>
				<rect x="413.404" y="194.101" clip-path="url(#SVGID_4_)" fill="#6D6D6D" width="13.858" height="43.43"/>
				<rect x="412.176" y="207.64" clip-path="url(#SVGID_4_)" fill="#C5C5C5" width="10.55" height="16.28"/>
				<rect x="415.31" y="209.344" clip-path="url(#SVGID_4_)" fill="#525252" width="5.645" height="12.871"/>
				<polygon clip-path="url(#SVGID_4_)" fill="#555555" points="413.031,184.321 433.633,191.65 433.633,195.881 413.895,195.881 
									"/>
				<polygon clip-path="url(#SVGID_4_)" fill="#C5C5C5" points="323.86,237.531 346.887,237.531 346.887,183.594 323.86,191.935 
									"/>
				<rect x="326.322" y="194.101" clip-path="url(#SVGID_4_)" fill="#6D6D6D" width="13.859" height="43.43"/>
				<rect x="330.861" y="207.64" clip-path="url(#SVGID_4_)" fill="#C5C5C5" width="10.549" height="16.28"/>
				<rect x="332.631" y="209.344" clip-path="url(#SVGID_4_)" fill="#525252" width="5.646" height="12.871"/>
				<polygon clip-path="url(#SVGID_4_)" fill="#555555" points="340.131,184.321 319.107,191.65 319.107,195.881 339.691,195.881 
									"/>
				<rect x="336.316" y="166.106" clip-path="url(#SVGID_4_)" fill="#9D9D9D" width="80.75" height="71.528"/>
				<rect x="336.316" y="166.106" clip-path="url(#SVGID_4_)" fill="#7C7C7C" width="80.75" height="3.762"/>
				<polygon clip-path="url(#SVGID_4_)" fill="#656565" points="421.617,167.333 331.764,167.333 346.824,147.89 406.559,147.89 
									"/>
				<polygon clip-path="url(#SVGID_4_)" fill="#555555" points="334.865,163.331 331.764,167.333 421.618,167.333 418.517,163.331 
									"/>
				<rect x="369.383" y="207.129" clip-path="url(#SVGID_4_)" fill="#E9E9E9" width="14.741" height="26.884"/>
				<rect x="371.77" y="202.869" clip-path="url(#SVGID_4_)" fill="#E9E9E9" width="9.969" height="2.386"/>
				<rect x="371.436" y="209.245" clip-path="url(#SVGID_4_)" fill="#7F7F7F" width="10.637" height="24.769"/>
				<polygon clip-path="url(#SVGID_4_)" fill="#5C5C5C" points="371.436,222.292 371.436,234.013 382.072,234.013 382.072,211.655 
									"/>
				<rect x="389.77" y="203.113" clip-path="url(#SVGID_4_)" fill="#E9E9E9" width="17.148" height="17.37"/>
				<rect x="391.584" y="204.984" clip-path="url(#SVGID_4_)" fill="#707070" width="13.521" height="13.629"/>
				<polygon clip-path="url(#SVGID_4_)" fill="#525252" points="401.934,204.984 391.584,204.984 391.584,213.903 				"/>
				<rect x="397.313" y="203.113" clip-path="url(#SVGID_4_)" fill="#E9E9E9" width="2.064" height="17.37"/>
				<rect x="390.281" y="210.766" clip-path="url(#SVGID_4_)" fill="#E9E9E9" width="16.126" height="2.065"/>
				<rect x="347.59" y="203.113" clip-path="url(#SVGID_4_)" fill="#E9E9E9" width="17.148" height="17.37"/>
				<rect x="349.404" y="204.984" clip-path="url(#SVGID_4_)" fill="#707070" width="13.521" height="13.629"/>
				<polygon clip-path="url(#SVGID_4_)" fill="#525252" points="359.754,204.984 349.404,204.984 349.404,213.903 				"/>
				<rect x="355.131" y="203.113" clip-path="url(#SVGID_4_)" fill="#E9E9E9" width="2.066" height="17.37"/>
				<rect x="348.102" y="210.766" clip-path="url(#SVGID_4_)" fill="#E9E9E9" width="16.126" height="2.065"/>
				<rect x="340.038" y="178.536" clip-path="url(#SVGID_4_)" fill="#E9E9E9" width="10.874" height="17.369"/>
				<rect x="341.742" y="180.406" clip-path="url(#SVGID_4_)" fill="#707070" width="7.463" height="13.629"/>
				<path clip-path="url(#SVGID_4_)" fill="#525252" d="M349.206,182.286v-1.88h-7.462v7.166
					C344.236,185.814,346.72,184.048,349.206,182.286"/>
				<rect x="360.945" y="178.536" clip-path="url(#SVGID_4_)" fill="#E9E9E9" width="10.875" height="17.369"/>
				<rect x="362.65" y="180.406" clip-path="url(#SVGID_4_)" fill="#707070" width="7.463" height="13.629"/>
				<path clip-path="url(#SVGID_4_)" fill="#525252" d="M370.113,182.286v-1.88h-7.463v7.166
					C365.145,185.814,367.628,184.048,370.113,182.286"/>
				<rect x="381.875" y="178.536" clip-path="url(#SVGID_4_)" fill="#E9E9E9" width="10.873" height="17.369"/>
				<rect x="383.579" y="180.406" clip-path="url(#SVGID_4_)" fill="#707070" width="7.464" height="13.629"/>
				<path clip-path="url(#SVGID_4_)" fill="#525252" d="M391.043,182.286v-1.88h-7.464v7.166
					C386.072,185.814,388.557,184.048,391.043,182.286"/>
				<rect x="341.862" y="233.141" clip-path="url(#SVGID_4_)" fill="#CDCDCD" width="69.657" height="4.412"/>
				<rect x="368.334" y="233.141" clip-path="url(#SVGID_4_)" fill="#ADADAD" width="16.714" height="4.412"/>
				<rect x="368.334" y="234.136" clip-path="url(#SVGID_4_)" fill="#808080" width="16.714" height="1.032"/>
				<rect x="322.007" y="236.225" clip-path="url(#SVGID_4_)" fill="#B7B7B7" width="109.368" height="3.599"/>
				<rect x="322.007" y="227.83" clip-path="url(#SVGID_4_)" fill="#E9E9E9" width="1.71" height="8.396"/>
				<rect x="320.422" y="227.301" clip-path="url(#SVGID_4_)" fill="#E9E9E9" width="47.822" height="1.71"/>
				<rect x="385.67" y="227.301" clip-path="url(#SVGID_4_)" fill="#E9E9E9" width="47.822" height="1.71"/>
				<rect x="327.389" y="227.83" clip-path="url(#SVGID_4_)" fill="#E9E9E9" width="1.711" height="8.396"/>
				<rect x="332.772" y="227.83" clip-path="url(#SVGID_4_)" fill="#E9E9E9" width="1.711" height="8.396"/>
				<rect x="338.154" y="227.83" clip-path="url(#SVGID_4_)" fill="#E9E9E9" width="1.711" height="8.396"/>
				<rect x="343.537" y="227.83" clip-path="url(#SVGID_4_)" fill="#E9E9E9" width="1.71" height="8.396"/>
				<rect x="348.92" y="227.83" clip-path="url(#SVGID_4_)" fill="#E9E9E9" width="1.71" height="8.396"/>
				<rect x="354.303" y="227.83" clip-path="url(#SVGID_4_)" fill="#E9E9E9" width="1.71" height="8.396"/>
				<rect x="359.685" y="227.83" clip-path="url(#SVGID_4_)" fill="#E9E9E9" width="1.71" height="8.396"/>
				<rect x="365.066" y="227.83" clip-path="url(#SVGID_4_)" fill="#E9E9E9" width="1.711" height="8.396"/>
				<rect x="386.597" y="227.83" clip-path="url(#SVGID_4_)" fill="#E9E9E9" width="1.711" height="8.396"/>
				<rect x="391.98" y="227.83" clip-path="url(#SVGID_4_)" fill="#E9E9E9" width="1.71" height="8.396"/>
				<rect x="397.362" y="227.83" clip-path="url(#SVGID_4_)" fill="#E9E9E9" width="1.71" height="8.396"/>
				<rect x="402.744" y="227.83" clip-path="url(#SVGID_4_)" fill="#E9E9E9" width="1.711" height="8.396"/>
				<rect x="408.127" y="227.83" clip-path="url(#SVGID_4_)" fill="#E9E9E9" width="1.711" height="8.396"/>
				<rect x="413.51" y="227.83" clip-path="url(#SVGID_4_)" fill="#E9E9E9" width="1.711" height="8.396"/>
				<rect x="418.892" y="227.83" clip-path="url(#SVGID_4_)" fill="#E9E9E9" width="1.712" height="8.396"/>
				<rect x="424.274" y="227.83" clip-path="url(#SVGID_4_)" fill="#E9E9E9" width="1.71" height="8.396"/>
				<rect x="429.656" y="227.83" clip-path="url(#SVGID_4_)" fill="#E9E9E9" width="1.711" height="8.396"/>
				<rect x="341.742" y="173.539" clip-path="url(#SVGID_4_)" fill="#E9E9E9" width="7.463" height="2.38"/>
				<rect x="362.65" y="173.538" clip-path="url(#SVGID_4_)" fill="#E9E9E9" width="7.463" height="2.381"/>
				<rect x="383.579" y="173.538" clip-path="url(#SVGID_4_)" fill="#E9E9E9" width="7.464" height="2.381"/>
				<rect x="358.17" y="158.609" clip-path="url(#SVGID_4_)" fill="#555555" width="2.769" height="0.947"/>
				<rect x="391.836" y="152.156" clip-path="url(#SVGID_4_)" fill="#555555" width="2.77" height="0.948"/>
				<rect x="348.719" y="152.156" clip-path="url(#SVGID_4_)" fill="#555555" width="2.77" height="0.948"/>
				<rect x="397.801" y="156.076" clip-path="url(#SVGID_4_)" fill="#555555" width="2.77" height="0.948"/>
				<rect x="363.205" y="151.815" clip-path="url(#SVGID_4_)" fill="#555555" width="2.769" height="0.948"/>
				<rect x="341.562" y="160.167" clip-path="url(#SVGID_4_)" fill="#555555" width="2.769" height="0.947"/>
				<rect x="402.307" y="178.536" clip-path="url(#SVGID_4_)" fill="#E9E9E9" width="10.875" height="17.369"/>
				<rect x="404.012" y="180.406" clip-path="url(#SVGID_4_)" fill="#707070" width="7.463" height="13.629"/>
				<path clip-path="url(#SVGID_4_)" fill="#525252" d="M411.475,182.286v-1.88h-7.463v7.166
					C406.506,185.814,408.99,184.048,411.475,182.286"/>
				<rect x="404.012" y="173.539" clip-path="url(#SVGID_4_)" fill="#E9E9E9" width="7.463" height="2.38"/>
				<path clip-path="url(#SVGID_4_)" fill="#555555" d="M387.021,164.256H366.36l1.43-4.22c1.21-3.57,4.798-6.003,8.855-6.003h0.091
					c4.059,0,7.646,2.433,8.855,6.003L387.021,164.256z"/>
				<path clip-path="url(#SVGID_4_)" fill="#9D9D9D" d="M386.213,165.279h-19.044l1.318-4.22c1.114-3.57,4.421-6.002,8.162-6.002
					h0.083c3.74,0,7.047,2.432,8.162,6.002L386.213,165.279z"/>
				<path clip-path="url(#SVGID_4_)" fill="#7C7C7C" d="M384.572,160.262c-1.332-3.124-4.391-5.205-7.84-5.205h-0.083
					c-3.45,0-6.509,2.081-7.841,5.205H384.572z"/>
				<path clip-path="url(#SVGID_4_)" fill="#E9E9E9" d="M379.949,160.347c0,1.882-1.526,3.408-3.408,3.408
					c-1.883,0-3.409-1.526-3.409-3.408c0-1.883,1.526-3.408,3.409-3.408C378.423,156.939,379.949,158.464,379.949,160.347"/>
				<path clip-path="url(#SVGID_4_)" fill="#BDBDBD" d="M379.385,160.347c0,1.571-1.274,2.844-2.845,2.844
					c-1.569,0-2.844-1.272-2.844-2.844c0-1.57,1.274-2.844,2.844-2.844C378.11,157.503,379.385,158.777,379.385,160.347"/>
				<path clip-path="url(#SVGID_4_)" fill="#E9E9E9" d="M377.563,160.347c0,0.564-0.457,1.022-1.021,1.022
					c-0.566,0-1.022-0.458-1.022-1.022s0.456-1.022,1.022-1.022C377.105,159.325,377.563,159.783,377.563,160.347"/>
			</g>
		</g>
		<rect x="409.003" y="261.027" clip-path="url(#SVGID_2_)" fill="#565656" width="1.88" height="10.836"/>
		<path clip-path="url(#SVGID_2_)" fill="#8C8C8C" d="M416.717,243.396c0-22.212-6.443-61.515-6.443-61.515
			s-6.444,39.303-6.444,61.515c0,22.211,1.61,24.245,6.444,24.245C415.105,267.641,416.717,265.607,416.717,243.396"/>
		<polygon clip-path="url(#SVGID_2_)" fill="#BDBDBD" points="531.111,208.788 531.111,274.517 493.578,274.517 493.578,206.905 		
			"/>
		<polygon clip-path="url(#SVGID_2_)" fill="#535353" points="508.949,208.735 537.616,208.735 516.798,169.566 508.949,182.217 		
			"/>
		<rect x="493.578" y="211.506" clip-path="url(#SVGID_2_)" fill="#767676" width="34.605" height="63.011"/>
		<rect x="506.011" y="228.872" clip-path="url(#SVGID_2_)" fill="#B8B8B8" width="13.89" height="23.669"/>
		<rect x="508.895" y="231.471" clip-path="url(#SVGID_2_)" fill="#737373" width="8.121" height="18.469"/>
		<rect x="423.628" y="205.005" clip-path="url(#SVGID_2_)" fill="#E9E9E9" width="89.093" height="67.777"/>
		<polygon clip-path="url(#SVGID_2_)" fill="#747474" points="423.285,163.583 420.669,205.233 515.924,205.233 512.002,163.583 		
			"/>
		<polygon clip-path="url(#SVGID_2_)" fill="#5F5F5F" points="421.295,195.287 420.67,205.233 515.924,205.233 514.987,195.287 		
			"/>
		<rect x="469.415" y="207.544" clip-path="url(#SVGID_2_)" fill="#A4A4A4" width="40.677" height="62.7"/>
		<polygon clip-path="url(#SVGID_2_)" fill="#E9E9E9" points="474.728,198.229 446.412,159.756 418.412,198.229 		"/>
		<polygon clip-path="url(#SVGID_2_)" fill="#A4A4A4" points="469.277,195.722 446.442,164.309 423.861,195.722 		"/>
		<path clip-path="url(#SVGID_2_)" fill="#A4A4A4" d="M426.602,194.306c-0.215,1.182-0.343,2.394-0.343,3.636v72.303h40.622v-72.303
			c0-1.242-0.13-2.454-0.344-3.636H426.602z"/>
		<rect x="481.987" y="236.835" clip-path="url(#SVGID_2_)" fill="#E9E9E9" width="19.339" height="32.51"/>
		<path clip-path="url(#SVGID_2_)" fill="#E9E9E9" d="M498.581,232.048h-13.665c-1.567,0-2.837-1.271-2.837-2.836v-0.988
			c0-1.566,1.27-2.837,2.837-2.837h13.665c1.567,0,2.837,1.271,2.837,2.837v0.988C501.418,230.778,500.148,232.048,498.581,232.048"
			/>
		<rect x="486.537" y="227.823" clip-path="url(#SVGID_2_)" fill="#747474" width="10.425" height="1.79"/>
		<rect x="484.383" y="239.967" clip-path="url(#SVGID_2_)" fill="#7F7F7F" width="14.547" height="29.377"/>
		<polygon clip-path="url(#SVGID_2_)" fill="#5C5C5C" points="498.93,269.344 498.93,243.264 484.383,257.811 484.383,269.344 		"/>
		<rect x="423.629" y="267.138" clip-path="url(#SVGID_2_)" fill="#CDCDCD" width="89.093" height="5.645"/>
		<rect x="479.633" y="267.138" clip-path="url(#SVGID_2_)" fill="#ADADAD" width="23.916" height="5.645"/>
		<rect x="479.633" y="268.412" clip-path="url(#SVGID_2_)" fill="#808080" width="23.916" height="1.319"/>
		<rect x="481.275" y="184.712" clip-path="url(#SVGID_2_)" fill="#5F5F5F" width="3.862" height="1.067"/>
		<rect x="496.543" y="193.706" clip-path="url(#SVGID_2_)" fill="#5F5F5F" width="3.864" height="1.068"/>
		<rect x="496.531" y="177.802" clip-path="url(#SVGID_2_)" fill="#5F5F5F" width="3.862" height="1.067"/>
		<rect x="470.642" y="166.213" clip-path="url(#SVGID_2_)" fill="#5F5F5F" width="3.862" height="1.068"/>
		<rect x="487.55" y="169.024" clip-path="url(#SVGID_2_)" fill="#5F5F5F" width="3.863" height="1.069"/>
		<rect x="426.888" y="173.292" clip-path="url(#SVGID_2_)" fill="#5F5F5F" width="3.863" height="1.068"/>
		<rect x="459.094" y="172.203" clip-path="url(#SVGID_2_)" fill="#5F5F5F" width="3.863" height="1.068"/>
		<rect x="433.442" y="219.428" clip-path="url(#SVGID_2_)" fill="#767676" width="3.862" height="1.068"/>
		<rect x="456.042" y="198.578" clip-path="url(#SVGID_2_)" fill="#767676" width="3.863" height="1.068"/>
		<rect x="455.171" y="255.47" clip-path="url(#SVGID_2_)" fill="#767676" width="3.862" height="1.068"/>
		<rect x="480.021" y="215.559" clip-path="url(#SVGID_2_)" fill="#767676" width="3.863" height="1.067"/>
		<rect x="461.025" y="228.103" clip-path="url(#SVGID_2_)" fill="#767676" width="3.864" height="1.068"/>
		<rect x="472.827" y="252.615" clip-path="url(#SVGID_2_)" fill="#767676" width="3.862" height="1.068"/>
		<rect x="398.232" y="271.084" clip-path="url(#SVGID_2_)" fill="#B7B7B7" width="139.885" height="4.603"/>
		<rect x="438.793" y="229.133" clip-path="url(#SVGID_2_)" fill="#E9E9E9" width="14.1" height="22.521"/>
		<rect x="441.209" y="231.931" clip-path="url(#SVGID_2_)" fill="#B0B0B0" width="9.269" height="16.926"/>
		<path clip-path="url(#SVGID_2_)" fill="#737373" d="M450.478,234.266v-2.336h-9.269v8.901
			C444.305,238.648,447.39,236.456,450.478,234.266"/>
		<path clip-path="url(#SVGID_2_)" fill="#E9E9E9" d="M452.893,213.4h-14.1v-22.011c0-3.894,3.156-7.05,7.05-7.05
			s7.05,3.156,7.05,7.05V213.4z"/>
		<rect x="441.209" y="193.675" clip-path="url(#SVGID_2_)" fill="#B0B0B0" width="9.269" height="16.927"/>
		<path clip-path="url(#SVGID_2_)" fill="#737373" d="M446.07,191.747h-0.455c-1.332,0-2.413-1.08-2.413-2.414
			c0-1.333,1.081-2.414,2.413-2.414h0.455c1.332,0,2.413,1.081,2.413,2.414C448.483,190.667,447.402,191.747,446.07,191.747"/>
		<rect x="444.586" y="174.688" clip-path="url(#SVGID_2_)" fill="#444444" width="2.513" height="4.634"/>
		<rect x="490.524" y="214.684" clip-path="url(#SVGID_2_)" fill="#444444" width="2.514" height="4.635"/>
		<path clip-path="url(#SVGID_2_)" fill="#737373" d="M450.478,196.011v-2.336h-9.269v8.9
			C444.305,200.393,447.39,198.202,450.478,196.011"/>
		<g opacity="0.5" clip-path="url(#SVGID_2_)">
			<g>
				<defs>
					<rect id="SVGID_5_" x="120.34" y="163.869" width="119.475" height="83.956"/>
				</defs>
				<clipPath id="SVGID_6_">
					<use xlink:href="#SVGID_5_"  overflow="visible"/>
				</clipPath>
				<rect x="125.711" y="185.74" clip-path="url(#SVGID_6_)" fill="#CACACA" width="108.733" height="60.15"/>
				<rect x="127.812" y="185.74" clip-path="url(#SVGID_6_)" fill="#EBEBEB" width="104.531" height="60.15"/>
				<rect x="127.812" y="185.74" clip-path="url(#SVGID_6_)" fill="#CACACA" width="104.531" height="5.836"/>
				<rect x="169.349" y="224.889" clip-path="url(#SVGID_6_)" fill="#CACACA" width="21.588" height="20.491"/>
				<path clip-path="url(#SVGID_6_)" fill="#CACACA" d="M183.415,223.432h-6.544c-1.446,0-2.619-1.172-2.619-2.618
					s1.173-2.619,2.619-2.619h6.544c1.446,0,2.619,1.173,2.619,2.619S184.861,223.432,183.415,223.432"/>
				<rect x="177.132" y="220.299" clip-path="url(#SVGID_6_)" fill="#7C7C7C" width="6.021" height="1.111"/>
				<rect x="171.586" y="227.146" clip-path="url(#SVGID_6_)" fill="#565656" width="7.909" height="18.057"/>
				<path clip-path="url(#SVGID_6_)" fill="#6D6D6D" d="M179.495,232.144v-4.998h-7.909V242.5
					C174.216,239.04,176.854,235.589,179.495,232.144"/>
				<rect x="180.692" y="227.146" clip-path="url(#SVGID_6_)" fill="#565656" width="7.909" height="18.057"/>
				<path clip-path="url(#SVGID_6_)" fill="#6D6D6D" d="M188.602,232.144v-4.998h-7.909V242.5
					C183.322,239.04,185.96,235.589,188.602,232.144"/>
				<rect x="120.34" y="244.539" clip-path="url(#SVGID_6_)" fill="#898989" width="119.475" height="3.286"/>
				<rect x="122.753" y="182.471" clip-path="url(#SVGID_6_)" fill="#EBEBEB" width="114.648" height="3.735"/>
				<polygon clip-path="url(#SVGID_6_)" fill="#676767" points="239.114,182.625 121.041,182.625 125.194,166.282 234.961,166.282 
									"/>
				<polygon clip-path="url(#SVGID_6_)" fill="#505050" points="122.465,177.022 121.041,182.625 239.114,182.625 237.69,177.022 
									"/>
				<rect x="136.574" y="168.269" clip-path="url(#SVGID_6_)" fill="#EBEBEB" width="8.203" height="11.258"/>
				<rect x="138.435" y="170.565" clip-path="url(#SVGID_6_)" fill="#707070" width="4.481" height="6.665"/>
				<path clip-path="url(#SVGID_6_)" fill="#525252" d="M142.917,171.787v-1.222h-4.481v5.704
					C139.931,174.777,141.426,173.285,142.917,171.787"/>
				<path clip-path="url(#SVGID_6_)" fill="#505050" d="M140.699,167.251c1.478,0,2.42,0.77,2.874,1.787h3.077l-5.991-5.17
					l-5.992,5.17h3.039C138.232,168.021,139.229,167.251,140.699,167.251"/>
				<polygon clip-path="url(#SVGID_6_)" fill="#EBEBEB" points="144.778,169.046 140.659,165.676 136.538,169.046 				"/>
				<rect x="176.112" y="168.269" clip-path="url(#SVGID_6_)" fill="#EBEBEB" width="8.204" height="11.258"/>
				<rect x="177.973" y="170.565" clip-path="url(#SVGID_6_)" fill="#707070" width="4.481" height="6.665"/>
				<path clip-path="url(#SVGID_6_)" fill="#525252" d="M182.455,171.787v-1.222h-4.482v5.704
					C179.469,174.777,180.965,173.285,182.455,171.787"/>
				<path clip-path="url(#SVGID_6_)" fill="#505050" d="M180.276,167.368c1.421,0,2.353,0.711,2.825,1.671h3.086l-5.991-5.17
					l-5.992,5.17h3.134C177.881,168.079,178.861,167.368,180.276,167.368"/>
				<polygon clip-path="url(#SVGID_6_)" fill="#EBEBEB" points="184.316,169.046 180.196,165.676 176.077,169.046 				"/>
				<rect x="215.651" y="168.269" clip-path="url(#SVGID_6_)" fill="#EBEBEB" width="8.204" height="11.258"/>
				<rect x="217.512" y="170.565" clip-path="url(#SVGID_6_)" fill="#707070" width="4.482" height="6.665"/>
				<path clip-path="url(#SVGID_6_)" fill="#525252" d="M221.994,171.787v-1.222h-4.481v5.704
					C219.008,174.777,220.503,173.285,221.994,171.787"/>
				<path clip-path="url(#SVGID_6_)" fill="#505050" d="M217.278,168.053c0.666-0.62,1.559-0.919,2.458-0.919h0.117
					c1.31,0,2.351,0.816,2.894,1.904h2.979l-5.992-5.17l-5.991,5.17h2.816C216.752,168.663,216.998,168.315,217.278,168.053"/>
				<polygon clip-path="url(#SVGID_6_)" fill="#EBEBEB" points="223.855,169.046 219.735,165.676 215.616,169.046 				"/>
				<rect x="135.792" y="194.491" clip-path="url(#SVGID_6_)" fill="#CACACA" width="9.933" height="15.866"/>
				<rect x="146.806" y="194.491" clip-path="url(#SVGID_6_)" fill="#858585" width="5.146" height="15.866"/>
				<rect x="129.371" y="194.491" clip-path="url(#SVGID_6_)" fill="#858585" width="5.147" height="15.866"/>
				<rect x="137.351" y="196.2" clip-path="url(#SVGID_6_)" fill="#707070" width="6.817" height="12.447"/>
				<path clip-path="url(#SVGID_6_)" fill="#525252" d="M144.167,197.917V196.2h-6.816v6.546
					C139.628,201.14,141.897,199.528,144.167,197.917"/>
				<rect x="175.175" y="194.491" clip-path="url(#SVGID_6_)" fill="#CACACA" width="9.933" height="15.866"/>
				<rect x="186.188" y="194.491" clip-path="url(#SVGID_6_)" fill="#858585" width="5.147" height="15.866"/>
				<rect x="168.754" y="194.491" clip-path="url(#SVGID_6_)" fill="#858585" width="5.147" height="15.866"/>
				<rect x="176.733" y="196.2" clip-path="url(#SVGID_6_)" fill="#707070" width="6.817" height="12.447"/>
				<path clip-path="url(#SVGID_6_)" fill="#525252" d="M183.55,197.917V196.2h-6.816v6.546
					C179.011,201.14,181.28,199.528,183.55,197.917"/>
				<rect x="214.559" y="194.491" clip-path="url(#SVGID_6_)" fill="#CACACA" width="9.933" height="15.866"/>
				<rect x="225.572" y="194.491" clip-path="url(#SVGID_6_)" fill="#858585" width="5.146" height="15.866"/>
				<rect x="208.137" y="194.491" clip-path="url(#SVGID_6_)" fill="#858585" width="5.146" height="15.866"/>
				<rect x="216.117" y="196.2" clip-path="url(#SVGID_6_)" fill="#707070" width="6.816" height="12.447"/>
				<path clip-path="url(#SVGID_6_)" fill="#525252" d="M222.934,197.917V196.2h-6.817v6.546
					C218.395,201.14,220.663,199.528,222.934,197.917"/>
				<rect x="135.792" y="219.241" clip-path="url(#SVGID_6_)" fill="#CACACA" width="9.933" height="15.865"/>
				<rect x="146.806" y="219.241" clip-path="url(#SVGID_6_)" fill="#858585" width="5.146" height="15.865"/>
				<rect x="129.371" y="219.241" clip-path="url(#SVGID_6_)" fill="#858585" width="5.147" height="15.865"/>
				<rect x="137.351" y="220.95" clip-path="url(#SVGID_6_)" fill="#707070" width="6.817" height="12.449"/>
				<path clip-path="url(#SVGID_6_)" fill="#525252" d="M144.167,222.667v-1.718h-6.816v6.547
					C139.628,225.89,141.897,224.278,144.167,222.667"/>
				<rect x="214.559" y="219.241" clip-path="url(#SVGID_6_)" fill="#CACACA" width="9.933" height="15.865"/>
				<rect x="225.572" y="219.241" clip-path="url(#SVGID_6_)" fill="#858585" width="5.146" height="15.865"/>
				<rect x="208.137" y="219.241" clip-path="url(#SVGID_6_)" fill="#858585" width="5.146" height="15.865"/>
				<rect x="146.806" y="194.491" clip-path="url(#SVGID_6_)" fill="#858585" width="5.146" height="15.866"/>
				<rect x="129.371" y="194.491" clip-path="url(#SVGID_6_)" fill="#858585" width="5.147" height="15.866"/>
				<rect x="186.188" y="194.491" clip-path="url(#SVGID_6_)" fill="#858585" width="5.147" height="15.866"/>
				<rect x="168.754" y="194.491" clip-path="url(#SVGID_6_)" fill="#858585" width="5.147" height="15.866"/>
				<rect x="225.572" y="194.491" clip-path="url(#SVGID_6_)" fill="#858585" width="5.146" height="15.866"/>
				<rect x="208.137" y="194.491" clip-path="url(#SVGID_6_)" fill="#858585" width="5.146" height="15.866"/>
				<rect x="146.806" y="219.241" clip-path="url(#SVGID_6_)" fill="#858585" width="5.146" height="15.865"/>
				<rect x="129.371" y="219.241" clip-path="url(#SVGID_6_)" fill="#858585" width="5.147" height="15.865"/>
				<rect x="225.572" y="219.241" clip-path="url(#SVGID_6_)" fill="#858585" width="5.146" height="15.865"/>
				<rect x="208.137" y="219.241" clip-path="url(#SVGID_6_)" fill="#858585" width="5.146" height="15.865"/>
				<rect x="216.117" y="220.95" clip-path="url(#SVGID_6_)" fill="#707070" width="6.816" height="12.449"/>
				<path clip-path="url(#SVGID_6_)" fill="#525252" d="M222.934,222.667v-1.718h-6.817v6.547
					C218.395,225.89,220.663,224.278,222.934,222.667"/>
				<rect x="131.133" y="187.432" clip-path="url(#SVGID_6_)" fill="#8A8A8A" width="1.566" height="2.875"/>
				<rect x="140.774" y="187.432" clip-path="url(#SVGID_6_)" fill="#8A8A8A" width="1.566" height="2.875"/>
				<rect x="150.416" y="187.432" clip-path="url(#SVGID_6_)" fill="#8A8A8A" width="1.566" height="2.875"/>
				<rect x="160.057" y="187.432" clip-path="url(#SVGID_6_)" fill="#8A8A8A" width="1.565" height="2.875"/>
				<rect x="169.699" y="187.432" clip-path="url(#SVGID_6_)" fill="#8A8A8A" width="1.565" height="2.875"/>
				<rect x="179.34" y="187.432" clip-path="url(#SVGID_6_)" fill="#8A8A8A" width="1.566" height="2.875"/>
				<rect x="188.981" y="187.432" clip-path="url(#SVGID_6_)" fill="#8A8A8A" width="1.566" height="2.875"/>
				<rect x="198.623" y="187.432" clip-path="url(#SVGID_6_)" fill="#8A8A8A" width="1.566" height="2.875"/>
				<rect x="208.264" y="187.432" clip-path="url(#SVGID_6_)" fill="#8A8A8A" width="1.566" height="2.875"/>
				<rect x="217.905" y="187.432" clip-path="url(#SVGID_6_)" fill="#8A8A8A" width="1.565" height="2.875"/>
				<rect x="227.546" y="187.432" clip-path="url(#SVGID_6_)" fill="#8A8A8A" width="1.566" height="2.875"/>
				<rect x="158.208" y="172.898" clip-path="url(#SVGID_6_)" fill="#505050" width="2.919" height="0.817"/>
				<rect x="205.958" y="169.395" clip-path="url(#SVGID_6_)" fill="#505050" width="2.919" height="0.816"/>
				<rect x="194.633" y="174.882" clip-path="url(#SVGID_6_)" fill="#505050" width="2.919" height="0.817"/>
				<rect x="129.138" y="174.882" clip-path="url(#SVGID_6_)" fill="#505050" width="2.919" height="0.817"/>
				<rect x="150.737" y="168.811" clip-path="url(#SVGID_6_)" fill="#505050" width="2.918" height="0.817"/>
				<rect x="229.657" y="172.859" clip-path="url(#SVGID_6_)" fill="#505050" width="2.919" height="0.816"/>
				<rect x="160.543" y="217.612" clip-path="url(#SVGID_6_)" fill="#CACACA" width="2.919" height="0.816"/>
				<rect x="200.393" y="230.221" clip-path="url(#SVGID_6_)" fill="#CACACA" width="2.919" height="0.816"/>
				<rect x="153.305" y="206.17" clip-path="url(#SVGID_6_)" fill="#CACACA" width="2.918" height="0.817"/>
				<rect x="193.543" y="198.465" clip-path="url(#SVGID_6_)" fill="#CACACA" width="2.919" height="0.817"/>
				<rect x="199.926" y="212.165" clip-path="url(#SVGID_6_)" fill="#CACACA" width="2.919" height="0.816"/>
				<rect x="216.426" y="236.758" clip-path="url(#SVGID_6_)" fill="#CACACA" width="2.918" height="0.817"/>
				<rect x="152.604" y="235.512" clip-path="url(#SVGID_6_)" fill="#CACACA" width="2.919" height="0.817"/>
				<path clip-path="url(#SVGID_6_)" fill="#B7B7B7" d="M235.689,244.556h-40.083c-1.075,0-1.946-0.871-1.946-1.946v-3.322
					c0-1.075,0.871-1.946,1.946-1.946h40.083c1.075,0,1.946,0.871,1.946,1.946v3.322
					C237.635,243.685,236.764,244.556,235.689,244.556"/>
				<path clip-path="url(#SVGID_6_)" fill="#B7B7B7" d="M164.707,244.556h-40.083c-1.075,0-1.946-0.871-1.946-1.946v-3.322
					c0-1.075,0.871-1.946,1.946-1.946h40.083c1.075,0,1.946,0.871,1.946,1.946v3.322
					C166.653,243.685,165.782,244.556,164.707,244.556"/>
				<path clip-path="url(#SVGID_6_)" fill="#8C8C8C" d="M193.687,242.868c0.127,0.951,0.933,1.688,1.92,1.688h40.083
					c0.987,0,1.793-0.737,1.92-1.688H193.687z"/>
				<path clip-path="url(#SVGID_6_)" fill="#8C8C8C" d="M122.704,242.868c0.127,0.951,0.934,1.688,1.92,1.688h40.083
					c0.986,0,1.792-0.737,1.919-1.688H122.704z"/>
			</g>
		</g>
	</g>
</g>
<g opacity="0.2">
	<g>
		<defs>
			<rect id="SVGID_7_" x="91.557" y="275.408" width="398.159" height="17.525"/>
		</defs>
		<clipPath id="SVGID_8_">
			<use xlink:href="#SVGID_7_"  overflow="visible"/>
		</clipPath>
		<path clip-path="url(#SVGID_8_)" fill="#272425" d="M489.716,284.17c0,4.839-89.133,8.763-199.079,8.763
			c-109.949,0-199.079-3.924-199.079-8.763s89.13-8.763,199.079-8.763C400.583,275.408,489.716,279.332,489.716,284.17"/>
	</g>
</g>
<rect x="173.197" y="113.276" fill="#585E66" width="218.045" height="142.984"/>
<polygon fill="#E8E2D4" points="143.42,100.38 422.774,100.38 422.774,75.971 280.031,0 143.42,75.405 "/>
<polygon fill="#9A9284" points="168.983,91.179 154.69,91.179 167.28,84.571 279.998,22.355 396.848,84.546 409.708,91.179 
	395.193,91.179 "/>
<polygon fill="#585E66" points="168.983,87.656 280.027,26.363 395.193,87.656 "/>
<rect x="140.573" y="103.686" fill="#9A9284" width="286.554" height="16.048"/>
<rect x="137.049" y="95.269" fill="#E8E2D4" width="293.601" height="16.441"/>
<rect x="137.049" y="95.27" fill="#9A9284" width="293.601" height="5.11"/>
<rect x="140.573" y="250.094" fill="#9A9284" width="286.554" height="16.048"/>
<rect x="137.049" y="258.117" fill="#E8E2D4" width="293.601" height="16.444"/>
<rect x="132.744" y="266.1" fill="#585E66" width="302.213" height="16.92"/>
<rect x="167.683" y="122.058" fill="#585E66" width="15.438" height="11.247"/>
<polygon fill="#E8E2D4" points="165.075,129.119 163.293,224.316 187.582,224.316 185.886,129.108 "/>
<polygon fill="#9A9284" points="187.055,230.266 192.836,231.788 192.836,246.782 158.366,246.782 158.366,231.788 164.124,230.296 
	"/>
<polygon fill="#F3E6D1" points="192.722,231.725 187.055,228.676 164.124,228.702 158.483,231.725 "/>
<rect x="173.198" y="121.838" fill="#9A9284" width="4.487" height="7.276"/>
<rect x="180.874" y="121.838" fill="#9A9284" width="4.493" height="7.276"/>
<rect x="162.841" y="119.001" fill="#9A9284" width="25.132" height="4.48"/>
<path fill="#9A9284" d="M189.101,227.653c0,0.757-0.787,1.374-1.76,1.374h-23.478c-0.973,0-1.76-0.617-1.76-1.374
	c0-0.755,0.787-1.367,1.76-1.367h23.478C188.313,226.286,189.101,226.898,189.101,227.653"/>
<path fill="#9A9284" d="M189.101,225.081c0,0.754-0.787,1.366-1.76,1.366h-23.478c-0.973,0-1.76-0.612-1.76-1.366
	c0-0.756,0.787-1.374,1.76-1.374h23.478C188.313,223.707,189.101,224.325,189.101,225.081"/>
<path fill="#9A9284" d="M163.306,223.797c-0.695,0.182-1.204,0.678-1.204,1.283c0,0.609,0.525,1.112,1.235,1.288
	c-0.71,0.172-1.235,0.675-1.235,1.284c0,0.683,0.655,1.227,1.497,1.33l-5.116,2.742h0.123l-0.239,0.063v14.994h17.205V120.634
	h-12.73v2.847h1.996L163.306,223.797z"/>
<rect x="168.363" y="123.481" fill="#585E66" width="3.189" height="5.633"/>
<rect x="151.338" y="235.833" fill="#9A9284" width="47.956" height="17.674"/>
<rect x="238.868" y="122.058" fill="#585E66" width="15.439" height="11.247"/>
<polygon fill="#E8E2D4" points="236.261,129.119 234.479,224.316 258.769,224.316 257.072,129.108 "/>
<polygon fill="#9A9284" points="258.241,230.266 264.023,231.788 264.023,246.782 229.553,246.782 229.553,231.788 235.309,230.296 
	"/>
<polygon fill="#F3E6D1" points="263.907,231.725 258.241,228.676 235.309,228.702 229.669,231.725 "/>
<rect x="244.384" y="121.838" fill="#9A9284" width="4.486" height="7.276"/>
<rect x="252.06" y="121.838" fill="#9A9284" width="4.493" height="7.276"/>
<rect x="234.026" y="119.001" fill="#9A9284" width="25.133" height="4.48"/>
<path fill="#9A9284" d="M260.285,227.653c0,0.757-0.787,1.374-1.759,1.374h-23.477c-0.974,0-1.76-0.617-1.76-1.374
	c0-0.755,0.787-1.367,1.76-1.367h23.477C259.499,226.286,260.285,226.898,260.285,227.653"/>
<path fill="#9A9284" d="M260.285,225.081c0,0.754-0.787,1.366-1.759,1.366h-23.477c-0.974,0-1.76-0.612-1.76-1.366
	c0-0.756,0.787-1.374,1.76-1.374h23.477C259.499,223.707,260.285,224.325,260.285,225.081"/>
<path fill="#9A9284" d="M234.493,223.797c-0.695,0.182-1.204,0.678-1.204,1.283c0,0.609,0.523,1.112,1.233,1.288
	c-0.71,0.172-1.233,0.675-1.233,1.284c0,0.683,0.655,1.227,1.496,1.33l-5.116,2.742h0.122l-0.238,0.063v14.994h17.205V120.634
	h-12.732v2.847h1.997L234.493,223.797z"/>
<rect x="239.549" y="123.481" fill="#585E66" width="3.19" height="5.633"/>
<rect x="222.524" y="235.833" fill="#9A9284" width="47.955" height="17.674"/>
<rect x="310.055" y="122.058" fill="#585E66" width="15.439" height="11.247"/>
<polygon fill="#E8E2D4" points="307.447,129.119 305.666,224.316 329.955,224.316 328.258,129.108 "/>
<polygon fill="#9A9284" points="329.428,230.266 335.211,231.788 335.211,246.782 300.739,246.782 300.739,231.788 306.496,230.296 
	"/>
<polygon fill="#F3E6D1" points="335.094,231.725 329.428,228.676 306.496,228.702 300.857,231.725 "/>
<rect x="315.57" y="121.838" fill="#9A9284" width="4.486" height="7.276"/>
<rect x="323.246" y="121.838" fill="#9A9284" width="4.492" height="7.276"/>
<rect x="305.213" y="119.001" fill="#9A9284" width="25.135" height="4.48"/>
<path fill="#9A9284" d="M331.471,227.653c0,0.757-0.783,1.374-1.76,1.374h-23.477c-0.973,0-1.76-0.617-1.76-1.374
	c0-0.755,0.787-1.367,1.76-1.367h23.477C330.688,226.286,331.471,226.898,331.471,227.653"/>
<path fill="#9A9284" d="M331.471,225.081c0,0.754-0.783,1.366-1.76,1.366h-23.477c-0.973,0-1.76-0.612-1.76-1.366
	c0-0.756,0.787-1.374,1.76-1.374h23.477C330.688,223.707,331.471,224.325,331.471,225.081"/>
<path fill="#9A9284" d="M305.678,223.797c-0.693,0.182-1.201,0.678-1.201,1.283c0,0.609,0.523,1.112,1.231,1.288
	c-0.708,0.172-1.231,0.675-1.231,1.284c0,0.683,0.652,1.227,1.494,1.33l-5.113,2.742h0.12l-0.238,0.063v14.994h17.205V120.634
	h-12.732v2.847h1.996L305.678,223.797z"/>
<rect x="310.734" y="123.481" fill="#585E66" width="3.191" height="5.633"/>
<rect x="293.71" y="235.833" fill="#9A9284" width="47.955" height="17.674"/>
<rect x="381.238" y="122.058" fill="#585E66" width="15.439" height="11.247"/>
<polygon fill="#E8E2D4" points="378.634,129.119 376.853,224.316 401.139,224.316 399.445,129.108 "/>
<polygon fill="#9A9284" points="400.612,230.266 406.395,231.788 406.395,246.782 371.926,246.782 371.926,231.788 377.68,230.296 
	"/>
<polygon fill="#F3E6D1" points="406.279,231.725 400.612,228.676 377.68,228.702 372.042,231.725 "/>
<rect x="386.757" y="121.838" fill="#9A9284" width="4.485" height="7.276"/>
<rect x="394.432" y="121.838" fill="#9A9284" width="4.492" height="7.276"/>
<rect x="376.398" y="119.001" fill="#9A9284" width="25.135" height="4.48"/>
<path fill="#9A9284" d="M402.658,227.653c0,0.757-0.787,1.374-1.762,1.374H377.42c-0.973,0-1.76-0.617-1.76-1.374
	c0-0.755,0.787-1.367,1.76-1.367h23.477C401.871,226.286,402.658,226.898,402.658,227.653"/>
<path fill="#9A9284" d="M402.658,225.081c0,0.754-0.787,1.366-1.762,1.366H377.42c-0.973,0-1.76-0.612-1.76-1.366
	c0-0.756,0.787-1.374,1.76-1.374h23.477C401.871,223.707,402.658,224.325,402.658,225.081"/>
<path fill="#9A9284" d="M376.863,223.797c-0.693,0.182-1.203,0.678-1.203,1.283c0,0.609,0.522,1.112,1.233,1.288
	c-0.711,0.172-1.233,0.675-1.233,1.284c0,0.683,0.655,1.227,1.496,1.33l-5.114,2.742h0.122l-0.238,0.063v14.994h17.205V120.634
	h-12.732v2.847h1.996L376.863,223.797z"/>
<rect x="381.921" y="123.481" fill="#585E66" width="3.188" height="5.633"/>
<rect x="364.896" y="235.833" fill="#9A9284" width="47.955" height="17.674"/>
<rect x="199" y="139.472" fill="#9A9284" width="22.706" height="31.512"/>
<rect x="201.154" y="141.869" fill="#E8E2D4" width="18.398" height="26.716"/>
<rect x="199" y="184.769" fill="#9A9284" width="22.706" height="31.511"/>
<rect x="201.154" y="187.165" fill="#E8E2D4" width="18.398" height="26.72"/>
<rect x="270.846" y="139.472" fill="#9A9284" width="22.705" height="31.512"/>
<rect x="272.999" y="141.869" fill="#E8E2D4" width="18.4" height="26.716"/>
<rect x="270.846" y="184.769" fill="#9A9284" width="22.705" height="31.511"/>
<rect x="272.999" y="187.165" fill="#E8E2D4" width="18.4" height="26.72"/>
<rect x="342.691" y="139.472" fill="#9A9284" width="22.703" height="31.512"/>
<rect x="344.845" y="141.869" fill="#E8E2D4" width="18.4" height="26.716"/>
<rect x="342.691" y="184.769" fill="#9A9284" width="22.703" height="31.511"/>
<rect x="344.845" y="187.165" fill="#E8E2D4" width="18.4" height="26.72"/>
<polygon fill="#9A9284" points="399.171,80.883 294.451,25.164 296.047,22.355 400.762,78.072 "/>
</svg>
