<?xml version="1.0" encoding="utf-8"?>
<!-- Generator: Adobe Illustrator 16.0.0, SVG Export Plug-In . SVG Version: 6.00 Build 0)  -->
<!DOCTYPE svg PUBLIC "-//W3C//DTD SVG 1.1//EN" "http://www.w3.org/Graphics/SVG/1.1/DTD/svg11.dtd">
<svg version="1.1" xmlns="http://www.w3.org/2000/svg" xmlns:xlink="http://www.w3.org/1999/xlink" x="0px" y="0px" width="200px"
	 height="200px" viewBox="0 0 200 200" enable-background="new 0 0 200 200" xml:space="preserve">
<g id="Capa_1">
	<path fill="#8B6A50" d="M93.366,189.357c3.906,6.735,9.318,6.753,13.253,0.091l50.419-88.442c2.285-4.334,4.415-8.748,5.767-13.362
		c7.414-25.299,0.938-47.365-17.677-65.681c-12.155-11.966-27.322-17.275-44.301-17.45c-18.705-0.188-35.009,5.931-48.054,19.437
		C33.066,44.352,28.344,74.311,41.942,99.356c4.863,8.958,10.007,17.761,15.106,26.593l-0.352-0.62l0.352,0.62
		c1.121,1.94,2.246,3.874,3.355,5.818c0.327,0.568,0.639,1.16,0.982,1.816l15.792,27.776
		C82.576,170.695,87.958,180.032,93.366,189.357 M53.266,92.809c-14.737-29.285-0.751-63.27,30.551-72.824
		c32.117-9.807,63.269,9.177,68.413,42.317c1.81,11.614-0.714,22.679-6.587,32.883c-14.788,25.683-29.629,51.337-44.453,76.997
		c-0.275,0.479-0.631,0.912-1.28,1.837c-10.695-18.517-21.113-36.518-31.498-54.536C63.309,110.621,57.857,101.931,53.266,92.809"/>
	<path fill="#8B6A50" d="M100.146,97.06c14.519-0.08,26.434-12.031,26.389-26.467c-0.043-14.399-12.033-26.379-26.469-26.449
		C85.586,44.076,73.32,56.408,73.501,70.848C73.682,85.359,85.656,97.143,100.146,97.06 M99.887,57.199
		c7.43-0.076,13.515,6.007,13.501,13.489c-0.015,7.37-5.873,13.286-13.242,13.377c-7.468,0.09-13.515-5.945-13.496-13.468
		C86.667,63.259,92.583,57.278,99.887,57.199"/>
</g>
<g id="Capa_2" display="none">
	<path display="inline" fill="#8B6A50" d="M100.505,15.759h-2.902c-9.579,0-19.159,0.078-28.736-0.042
		c-3.181-0.04-5.185,1.116-6.813,3.893C51.004,38.475,39.819,57.263,28.68,76.078c-8.232,13.901-16.478,27.795-24.685,41.715
		c-2.486,4.219-0.6,7.527,4.279,7.652c0.241,0.008,0.484,0.005,0.725,0.005c78.316,0,156.636-0.01,234.955,0.038
		c2.741,0.003,4.846-0.71,6.213-3.148v-2.896c-0.163-0.153-0.374-0.281-0.484-0.47c-19.646-33.206-39.304-66.404-58.889-99.647
		c-1.543-2.619-3.524-3.632-6.492-3.602C174.645,15.822,100.505,15.759,100.505,15.759 M129.053,24.606l4.565,24.141
		c0.273,1.407,0.469,2.32,0.627,3.241c0.728,4.267,3.125,5.764,7.246,4.38c8.451-2.84,16.882-5.742,25.32-8.617
		c7.831-2.668,15.659-5.343,23.49-8.006c0.52-0.176,1.052-0.306,1.716-0.494c1.999,3.361,3.958,6.662,6.113,10.284
		c-8.107,3.757-15.969,7.397-23.827,11.04c-10.207,4.728-20.413,9.451-30.615,14.187c-3.988,1.854-4.558,3.015-3.777,7.385
		c1.944,10.914,3.876,21.831,5.805,32.75c0.067,0.386,0.063,0.787,0.11,1.385H79.938c8.237-30.583,16.442-61.052,24.647-91.521
		c0.241-0.033,0.479-0.063,0.718-0.095L129.053,24.606z M142.473,46.5c-0.552-3.208-1.127-6.201-1.538-9.216
		c-0.098-0.71,0.211-1.573,0.574-2.232c1.588-2.887,3.331-5.689,4.874-8.599c0.713-1.342,1.623-1.668,3.067-1.661
		c10.546,0.06,21.091,0.093,31.634-0.022c1.906-0.02,2.97,0.569,3.737,2.222c0.635,1.365,1.485,2.624,2.421,4.242
		C172.132,36.386,157.407,41.405,142.473,46.5 M68.684,116.523c-17.378-0.078-34.754-0.048-52.132-0.053
		c-0.238,0-0.481-0.05-1.101-0.12c0.514-0.946,0.873-1.644,1.267-2.318c17.188-29.039,34.39-58.068,51.517-87.141
		c0.958-1.625,1.981-2.135,3.803-2.109c7.633,0.103,15.269,0.042,23.149,0.042c-1.843,6.873-3.616,13.53-5.41,20.182
		c-6.224,23.097-12.464,46.189-18.66,69.294C70.75,115.663,70.467,116.531,68.684,116.523 M155.145,116.346
		c-1.339-7.495-2.664-14.918-3.988-22.337c-0.592-3.324-1.159-6.652-1.793-9.966c-0.221-1.139-0.188-1.904,1.088-2.491
		c17.232-7.929,34.438-15.911,51.652-23.873c0.136-0.063,0.312-0.042,0.788-0.095c11.559,19.533,23.087,39.01,34.776,58.762H155.145
		z"/>
</g>
</svg>
