<?xml version="1.0" encoding="utf-8"?>
<!-- Generator: Adobe Illustrator 16.0.0, SVG Export Plug-In . SVG Version: 6.00 Build 0)  -->
<!DOCTYPE svg PUBLIC "-//W3C//DTD SVG 1.1//EN" "http://www.w3.org/Graphics/SVG/1.1/DTD/svg11.dtd">
<svg version="1.1" xmlns="http://www.w3.org/2000/svg" xmlns:xlink="http://www.w3.org/1999/xlink" x="0px" y="0px"
	 width="247.266px" height="189.919px" viewBox="0 0 247.266 189.919" enable-background="new 0 0 247.266 189.919"
	 xml:space="preserve">
<g id="Capa_1" display="none">
	<path display="inline" fill="#8B6A50" d="M90.465,184.85c3.906,6.735,9.318,6.753,13.253,0.091l50.419-88.442
		c2.285-4.334,4.415-8.748,5.767-13.362c7.414-25.299,0.938-47.365-17.677-65.681C130.072,5.489,114.905,0.179,97.926,0.004
		C79.221-0.184,62.917,5.935,49.872,19.441C30.166,39.844,25.443,69.803,39.042,94.848c4.863,8.958,10.007,17.761,15.106,26.593
		l-0.352-0.62l0.352,0.62c1.121,1.94,2.246,3.874,3.355,5.818c0.327,0.568,0.639,1.16,0.982,1.816l15.792,27.776
		C79.675,166.188,85.058,175.524,90.465,184.85 M50.365,88.301c-14.737-29.285-0.751-63.27,30.551-72.824
		c32.117-9.807,63.269,9.177,68.413,42.317c1.81,11.614-0.714,22.679-6.587,32.883c-14.788,25.683-29.629,51.337-44.453,76.997
		c-0.275,0.479-0.631,0.912-1.28,1.837c-10.695-18.517-21.113-36.518-31.498-54.536C60.408,106.113,54.957,97.423,50.365,88.301"/>
	<path display="inline" fill="#8B6A50" d="M97.245,92.552c14.519-0.08,26.434-12.031,26.389-26.467
		C123.59,51.687,111.6,39.706,97.165,39.637C82.686,39.568,70.419,51.9,70.6,66.34C70.781,80.852,82.755,92.635,97.245,92.552
		 M96.986,52.691c7.43-0.076,13.515,6.007,13.501,13.489c-0.015,7.37-5.873,13.286-13.242,13.377
		c-7.468,0.09-13.515-5.945-13.496-13.468C83.766,58.751,89.682,52.771,96.986,52.691"/>
</g>
<g id="Capa_2">
	<path fill="#8B6A50" d="M99.201,43.481h-2.725c-8.991,0-17.984,0.073-26.974-0.04c-2.985-0.038-4.866,1.048-6.395,3.654
		c-10.372,17.708-20.871,35.344-31.327,53.005c-7.728,13.049-15.467,26.09-23.17,39.155c-2.333,3.96-0.563,7.066,4.017,7.184
		c0.226,0.007,0.454,0.004,0.68,0.004c73.513,0,147.028-0.009,220.543,0.036c2.573,0.003,4.549-0.666,5.832-2.955v-2.719
		c-0.153-0.145-0.352-0.265-0.455-0.441c-18.44-31.168-36.893-62.331-55.276-93.535c-1.448-2.458-3.308-3.409-6.094-3.381
		C168.792,43.541,99.201,43.481,99.201,43.481 M125.997,51.786l4.286,22.66c0.256,1.321,0.439,2.178,0.588,3.042
		c0.683,4.005,2.934,5.411,6.802,4.111c7.933-2.666,15.847-5.389,23.768-8.088c7.351-2.505,14.698-5.015,22.049-7.516
		c0.488-0.165,0.987-0.287,1.61-0.463c1.877,3.154,3.716,6.253,5.738,9.653c-7.609,3.527-14.989,6.943-22.365,10.362
		c-9.581,4.438-19.161,8.872-28.737,13.317c-3.743,1.74-4.278,2.83-3.546,6.932c1.825,10.244,3.639,20.492,5.449,30.74
		c0.063,0.362,0.059,0.739,0.104,1.3H79.895c7.732-28.706,15.434-57.307,23.136-85.907c0.227-0.031,0.45-0.059,0.674-0.089
		L125.997,51.786z M138.593,72.336c-0.518-3.011-1.058-5.82-1.443-8.65c-0.092-0.667,0.198-1.477,0.539-2.096
		c1.49-2.71,3.127-5.34,4.575-8.071c0.669-1.26,1.523-1.565,2.879-1.559c9.899,0.056,19.797,0.087,29.693-0.021
		c1.789-0.019,2.788,0.534,3.508,2.085c0.597,1.281,1.395,2.463,2.272,3.982C166.433,62.842,152.612,67.554,138.593,72.336
		 M69.331,138.064c-16.312-0.073-32.622-0.045-48.934-0.05c-0.224,0-0.452-0.046-1.034-0.112c0.483-0.889,0.82-1.543,1.189-2.176
		c16.133-27.259,32.281-54.507,48.357-81.796c0.899-1.526,1.86-2.004,3.569-1.98c7.165,0.096,14.332,0.04,21.729,0.04
		c-1.73,6.451-3.395,12.7-5.078,18.944c-5.842,21.681-11.7,43.356-17.516,65.044C71.271,137.257,71.004,138.072,69.331,138.064
		 M150.488,137.897c-1.256-7.035-2.5-14.002-3.743-20.967c-0.556-3.12-1.088-6.244-1.683-9.354
		c-0.208-1.069-0.178-1.787,1.021-2.338c16.176-7.442,32.325-14.935,48.484-22.409c0.127-0.059,0.292-0.04,0.739-0.089
		c10.85,18.335,21.671,36.618,32.644,55.157H150.488z"/>
</g>
</svg>
