<svg xmlns="http://www.w3.org/2000/svg" viewBox="0 0 169.19 169.19"><defs><style>.cls-1{fill:#986a4d;}.cls-2{fill:#fff;}</style></defs><g id="Capa_2" data-name="Capa 2"><g id="Layer_5" data-name="Layer 5"><path class="cls-1" d="M109.76,160.36a7.78,7.78,0,0,1-.06-3.42A76.54,76.54,0,0,1,8.12,80.59,5.92,5.92,0,0,0,4.54,78.9,6,6,0,0,0,.1,80.35a84.61,84.61,0,0,0,97.54,87.81,85.72,85.72,0,0,0,14.59-3.61A8.2,8.2,0,0,1,109.76,160.36Z"/><path class="cls-1" d="M134.91,22.22a7,7,0,0,1-3.06,2.09,76.56,76.56,0,0,1-19.77,131.76,6.13,6.13,0,0,0-.36,3.83,6.35,6.35,0,0,0,2.76,3.84A84.6,84.6,0,0,0,136.61,17.91,7.32,7.32,0,0,1,134.91,22.22Z"/><path class="cls-1" d="M4.72,76.88a7.65,7.65,0,0,1,3.56,1.25A76.57,76.57,0,0,1,129.74,22.71a5.19,5.19,0,0,0,4.73-6.42h0A84.61,84.61,0,0,0,.26,77.8,8,8,0,0,1,4.72,76.88Z"/><circle class="cls-1" cx="84.59" cy="84.6" r="74.01"/><g id="ldKKOJ.tif"><path class="cls-2" d="M135,114.82a2.45,2.45,0,0,1-2.42,1.23q-45.73,0-91.47,0h-.28c-1.9,0-2.63-1.34-1.67-3q4.8-8.13,9.61-16.24,6.51-11,13-22a2.69,2.69,0,0,1,2.65-1.52c3.73,0,7.46,0,11.19,0h1.13c-.23-.43-.38-.73-.55-1-1.65-2.9-3.37-5.78-5-8.72A17.39,17.39,0,0,1,87.07,38.05,16.66,16.66,0,0,1,99,42.75c5,4.93,6.75,10.87,4.75,17.68a28.08,28.08,0,0,1-2.48,5.34c-1.35,2.5-2.82,4.93-4.31,7.51.46,0,.78,0,1.11,0,3.76,0,7.52,0,11.28,0a2.61,2.61,0,0,1,2.53,1.41q11.43,19.41,22.92,38.79a1.62,1.62,0,0,0,.19.18ZM114.73,86.48l-2.38-4-.66.19-9.15,3.12C99.26,86.9,96,88,92.68,89.14c-1.6.53-2.53,0-2.82-1.71-.06-.36-.14-.71-.24-1.26-.4.66-.69,1.17-1,1.67-1.06,1.8-2.52,1.79-3.57,0-2-3.41-3.94-6.83-5.92-10.24-.16-.27-.36-.52-.55-.79l-.27,0q-4.8,17.79-9.6,35.63H94.37c0-.23,0-.39,0-.54q-1.12-6.37-2.26-12.75c-.31-1.7-.08-2.15,1.47-2.87l11.92-5.53ZM86.82,83.69l.35-.49q6-10.36,12-20.74a13.29,13.29,0,0,0,1.78-8.85c-1.39-8.92-9.77-14-18.42-11.39a13.7,13.7,0,0,0-8.23,19.6C75.5,64.28,77,66.62,78.34,69Zm-43.21,28.8c.25,0,.34.05.43.05,6.77,0,13.53,0,20.3,0,.69,0,.8-.34.94-.87l7.27-27c.7-2.59,1.39-5.18,2.11-7.85-3.07,0-6,0-9,0a1.46,1.46,0,0,0-1.48.82q-10,17-20,33.93C44,111.85,43.81,112.12,43.61,112.49Zm73-22.88c-.19,0-.26,0-.31,0L96.17,98.94c-.5.23-.51.53-.42,1,.25,1.29.47,2.59.7,3.88.51,2.89,1,5.78,1.55,8.7h32.13Zm-6.1-10.26c-.36-.63-.69-1.12-.94-1.65a1.37,1.37,0,0,0-1.45-.87c-4.11,0-8.21,0-12.32,0a1.14,1.14,0,0,0-1.19.65c-.6,1.13-1.28,2.22-1.9,3.35a1.51,1.51,0,0,0-.22.87c.16,1.17.38,2.34.59,3.58Z"/><path class="cls-2" d="M86.88,63A7.13,7.13,0,1,1,94,55.84,7.17,7.17,0,0,1,86.88,63Zm3.57-7.1a3.6,3.6,0,1,0-3.57,3.6A3.61,3.61,0,0,0,90.45,55.87Z"/></g></g></g></svg>