<?xml version="1.0" encoding="utf-8"?>
<!-- Generator: Adobe Illustrator 25.0.0, SVG Export Plug-In . SVG Version: 6.00 Build 0)  -->
<svg version="1.1" id="Capa_1" xmlns="http://www.w3.org/2000/svg" xmlns:xlink="http://www.w3.org/1999/xlink" x="0px" y="0px"
	 viewBox="0 0 256 110" style="enable-background:new 0 0 256 110;" xml:space="preserve">
<style type="text/css">
	.st0{fill:#FF5000;}
	.st1{opacity:0.1;fill:none;stroke:#FFFFFF;stroke-width:22.3111;stroke-miterlimit:10;}
	.st2{opacity:0.1;fill:none;stroke:#FFFFFF;stroke-width:6.5821;stroke-miterlimit:10;}
	.st3{fill:none;}
	.st4{fill:none;stroke:#FFFFFF;stroke-width:1.1156;stroke-linecap:round;stroke-miterlimit:10;stroke-dasharray:3.3467;}
	.st5{fill:none;stroke:#FFFFFF;stroke-width:1.1156;stroke-linecap:round;stroke-miterlimit:10;}
	.st6{fill:#FFFFFF;}
</style>
<path class="st0" d="M226.9,109H5V28.1C5,13.7,16.7,2,31.1,2H253v80.9C253,97.3,241.3,109,226.9,109z"/>
<path class="st1" d="M306.4,121.6c0-37.3-30.3-67.6-67.6-67.6s-67.6,30.3-67.6,67.6s30.3,67.6,67.6,67.6"/>
<path class="st1" d="M19.2-77.2c-37.3,0-67.6,30.3-67.6,67.6"/>
<path class="st1" d="M-48.4-9.6c0,37.3,30.3,67.6,67.6,67.6S86.8,27.8,86.8-9.6S56.5-77.2,19.2-77.2"/>
<path class="st2" d="M106,168.6c22,0,39.9-17.9,39.9-39.9S128,88.8,106,88.8s-39.9,17.9-39.9,39.9S83.9,168.6,106,168.6"/>
<path class="st2" d="M192.8-56.7c-22,0-39.9,17.9-39.9,39.9s17.9,39.9,39.9,39.9s39.9-17.9,39.9-39.9S214.8-56.7,192.8-56.7"/>
<path id="XMLID_15_" class="st3" d="M226.9,109.5H5V28.6C5,14.2,16.7,2.5,31.1,2.5H253v80.9C253,97.8,241.3,109.5,226.9,109.5z"/>
<line class="st4" x1="26" y1="99.6" x2="26" y2="13.5"/>
<line class="st4" x1="234.5" y1="13.5" x2="234.5" y2="99.6"/>
<line class="st5" x1="50.4" y1="18" x2="209.2" y2="18"/>
<line class="st5" x1="50.4" y1="96.2" x2="209.2" y2="96.2"/>
<g>
	<g>
		<path class="st6" d="M138.6,84.7c-0.1-0.5-0.1-0.9,0-1.3c-8.7,3-18.8,1.9-26.8-4c-8.3-6-12.4-15.6-11.9-25.1
			c-0.3-0.3-0.8-0.6-1.4-0.6c-0.6-0.1-1.2,0.2-1.7,0.6c-0.1,2.2,0,4.4,0.4,6.6c1.3,8.5,5.9,16,12.9,21.1c7,5.1,15.5,7.1,24,5.8
			c1.9-0.3,3.8-0.8,5.6-1.4C139.1,85.8,138.7,85.3,138.6,84.7z"/>
		<path class="st6" d="M148.2,32c-0.4,0.4-0.8,0.7-1.2,0.8c12.3,9.7,14.9,27.5,5.6,40.2c-3.4,4.7-8,8.1-13.1,10
			c-0.2,0.4-0.3,0.9-0.1,1.5c0.1,0.6,0.5,1.1,1,1.5c5.8-2.2,10.9-6,14.7-11.2c5.1-7,7.1-15.5,5.8-24c-1.3-8.2-5.5-15.4-12-20.5
			C148.8,30.9,148.6,31.5,148.2,32z"/>
		<path class="st6" d="M98.5,52.8c0.5,0,1,0.2,1.4,0.5c0.4-5.2,2.2-10.3,5.5-14.8c9.5-13,27.8-15.9,40.8-6.4c0.4,0,1-0.2,1.4-0.7
			c0.4-0.5,0.6-1.1,0.4-1.8c0,0,0,0,0,0c-7-5.1-15.5-7.1-24-5.8c-8.5,1.3-16,5.9-21.1,12.9c-3.6,4.9-5.6,10.5-6.1,16.4
			C97.4,52.9,97.9,52.8,98.5,52.8z"/>
	</g>
	<g id="ldKKOJ.tif_1_">
		<g>
			<path class="st6" d="M152.1,69.6c-0.3,0.4-0.6,0.6-1.1,0.6c-14.4,0-28.8,0-43.2,0c0,0-0.1,0-0.1,0c-0.9,0-1.2-0.6-0.8-1.4
				c1.5-2.6,3-5.1,4.5-7.7c2.1-3.5,4.1-6.9,6.1-10.4c0.3-0.5,0.7-0.7,1.3-0.7c1.8,0,3.5,0,5.3,0c0.2,0,0.3,0,0.5,0
				c-0.1-0.2-0.2-0.3-0.3-0.5c-0.8-1.4-1.6-2.7-2.3-4.1c-1.7-3.2-1.1-7,1.4-9.6c1.7-1.7,3.7-2.5,6.1-2.5c2.2,0,4.1,0.7,5.6,2.2
				c2.4,2.3,3.2,5.1,2.2,8.4c-0.3,0.9-0.7,1.7-1.2,2.5c-0.6,1.2-1.3,2.3-2,3.5c0.2,0,0.4,0,0.5,0c1.8,0,3.6,0,5.3,0
				c0.5,0,0.9,0.2,1.2,0.7c3.6,6.1,7.2,12.2,10.8,18.3c0,0,0.1,0.1,0.1,0.1C152.1,69.2,152.1,69.4,152.1,69.6z M142.5,56.2
				c-0.4-0.7-0.8-1.3-1.1-1.9c-0.1,0-0.2,0.1-0.3,0.1c-1.4,0.5-2.9,1-4.3,1.5c-1.6,0.5-3.1,1.1-4.7,1.6c-0.8,0.3-1.2,0-1.3-0.8
				c0-0.2-0.1-0.3-0.1-0.6c-0.2,0.3-0.3,0.6-0.5,0.8c-0.5,0.8-1.2,0.8-1.7,0c-0.9-1.6-1.9-3.2-2.8-4.8c-0.1-0.1-0.2-0.2-0.3-0.4
				c0,0-0.1,0-0.1,0c-1.5,5.6-3,11.2-4.5,16.8c4.1,0,8.1,0,12.1,0c0-0.1,0-0.2,0-0.3c-0.4-2-0.7-4-1.1-6c-0.1-0.8,0-1,0.7-1.4
				c1.9-0.9,3.8-1.7,5.6-2.6C139.6,57.5,141,56.8,142.5,56.2z M129.3,54.8c0.1-0.1,0.1-0.2,0.2-0.2c1.9-3.3,3.8-6.5,5.7-9.8
				c0.7-1.3,1.1-2.7,0.8-4.2c-0.7-4.2-4.6-6.6-8.7-5.4c-4,1.2-5.8,5.5-3.9,9.3c0.6,1.2,1.3,2.3,1.9,3.4
				C126.6,50.2,127.9,52.5,129.3,54.8z M108.9,68.5c0.1,0,0.2,0,0.2,0c3.2,0,6.4,0,9.6,0c0.3,0,0.4-0.2,0.4-0.4
				c1.1-4.3,2.3-8.5,3.4-12.8c0.3-1.2,0.7-2.4,1-3.7c-1.5,0-2.9,0-4.3,0c-0.3,0-0.5,0.1-0.7,0.4c-3.2,5.4-6.3,10.7-9.5,16
				C109,68.1,109,68.3,108.9,68.5z M143.4,57.6c-0.1,0-0.1,0-0.1,0c-3.2,1.5-6.3,2.9-9.5,4.4c-0.2,0.1-0.2,0.2-0.2,0.5
				c0.1,0.6,0.2,1.2,0.3,1.8c0.2,1.4,0.5,2.7,0.7,4.1c5.1,0,10.1,0,15.2,0C147.6,64.8,145.5,61.2,143.4,57.6z M140.5,52.8
				c-0.2-0.3-0.3-0.5-0.4-0.8c-0.1-0.3-0.3-0.4-0.7-0.4c-1.9,0-3.9,0-5.8,0c-0.3,0-0.4,0.1-0.6,0.3c-0.3,0.5-0.6,1.1-0.9,1.6
				c-0.1,0.1-0.1,0.3-0.1,0.4c0.1,0.6,0.2,1.1,0.3,1.7C135,54.7,137.7,53.7,140.5,52.8z"/>
			<path class="st6" d="M129.3,45c-1.8,0-3.4-1.5-3.4-3.3c0-1.8,1.5-3.4,3.4-3.4c1.8,0,3.4,1.5,3.4,3.4
				C132.7,43.5,131.2,45,129.3,45z M131,41.7c0-1-0.8-1.7-1.7-1.7c-0.9,0-1.7,0.8-1.7,1.7c0,1,0.8,1.7,1.7,1.7
				C130.3,43.4,131,42.6,131,41.7z"/>
		</g>
	</g>
</g>
</svg>
