<?xml version="1.0" encoding="utf-8"?>
<!-- Generator: Adobe Illustrator 25.0.0, SVG Export Plug-In . SVG Version: 6.00 Build 0)  -->
<svg version="1.1" id="Capa_1" xmlns="http://www.w3.org/2000/svg" xmlns:xlink="http://www.w3.org/1999/xlink" x="0px" y="0px"
	 viewBox="0 0 225 240" style="enable-background:new 0 0 225 240;" xml:space="preserve">
<style type="text/css">
	.st0{display:none;}
	.st1{display:inline;fill:#395B6A;}
	.st2{display:inline;opacity:0.3;}
	.st3{clip-path:url(#SVGID_2_);fill:#7CB9BA;}
	.st4{display:inline;fill:#577C89;}
	.st5{display:inline;fill:#AEEFF9;}
	.st6{display:inline;opacity:0.5;}
	.st7{clip-path:url(#SVGID_4_);fill:#AEEFF9;}
	.st8{display:inline;fill:#7CB9BA;}
	.st9{display:inline;fill:#8EBBC4;}
	.st10{clip-path:url(#SVGID_6_);fill:#AEEFF9;}
	.st11{display:inline;fill:#EDE5E9;}
	.st12{clip-path:url(#SVGID_8_);fill:#7CB9BA;}
	.st13{clip-path:url(#SVGID_10_);fill:#AEEFF9;}
	.st14{display:inline;fill:#EAD7AC;}
	.st15{clip-path:url(#SVGID_12_);fill:#EAD7AC;}
	.st16{clip-path:url(#SVGID_14_);fill:#AEEFF9;}
	.st17{display:inline;fill:#E4E4E4;}
	.st18{display:inline;fill:#80623E;}
	.st19{clip-path:url(#SVGID_16_);fill:#AEEFF9;}
	.st20{clip-path:url(#SVGID_18_);fill:#AEEFF9;}
	.st21{clip-path:url(#SVGID_20_);fill:#AEEFF9;}
	.st22{clip-path:url(#SVGID_22_);fill:#AEEFF9;}
	.st23{clip-path:url(#SVGID_24_);fill:#AEEFF9;}
	.st24{clip-path:url(#SVGID_26_);fill:#AEEFF9;}
	.st25{clip-path:url(#SVGID_28_);fill:#AEEFF9;}
	.st26{clip-path:url(#SVGID_30_);fill:#AEEFF9;}
	.st27{clip-path:url(#SVGID_32_);fill:#AEEFF9;}
	.st28{display:inline;fill:#573B1C;}
	.st29{clip-path:url(#SVGID_34_);fill:#AEEFF9;}
	.st30{display:inline;fill:#3D2614;}
	.st31{clip-path:url(#SVGID_36_);fill:#7CB9BA;}
	.st32{clip-path:url(#SVGID_38_);fill:#7CB9BA;}
	.st33{clip-path:url(#SVGID_40_);fill:#7CB9BA;}
	.st34{clip-path:url(#SVGID_42_);fill:#AEEFF9;}
	.st35{clip-path:url(#SVGID_44_);fill:#AEEFF9;}
	.st36{clip-path:url(#SVGID_46_);fill:#7CB9BA;}
	.st37{clip-path:url(#SVGID_48_);fill:#AEEFF9;}
	.st38{display:inline;fill:#E3BE99;}
	.st39{display:inline;fill:#406A9C;}
	.st40{display:inline;fill:#D7B18C;}
	.st41{display:inline;fill:#203554;}
	.st42{display:inline;fill:#34373F;}
	.st43{display:inline;fill:#1B2E45;}
	.st44{display:inline;fill:#343434;}
	.st45{display:inline;fill:#D4907E;}
	.st46{display:inline;fill:#F1F1F1;}
	.st47{display:inline;fill:#E3E3E3;}
	.st48{display:inline;fill:#C0C0C0;}
	.st49{display:inline;opacity:0.4;}
	.st50{clip-path:url(#SVGID_50_);fill:#B7E1DE;}
	.st51{display:inline;fill:#858585;}
	.st52{display:inline;fill:#9D9D9D;}
	.st53{display:inline;fill:#2A435B;}
	.st54{display:inline;fill:#38628D;}
	.st55{display:inline;fill:#325775;}
	.st56{display:inline;fill:#29475D;}
	.st57{display:inline;fill:#E06C27;}
	.st58{display:inline;fill:#B1E3FD;}
	.st59{display:inline;fill:#E8A127;}
	.st60{display:inline;fill:#F0C963;}
	.st61{display:inline;fill:#FFFFFF;}
	.st62{display:inline;fill:#5FA6F0;}
	.st63{display:inline;fill:#4C81B6;}
	.st64{display:inline;opacity:0.7;}
	.st65{clip-path:url(#SVGID_52_);fill:#FFFFFF;}
	.st66{clip-path:url(#SVGID_54_);fill:#FFFFFF;}
	.st67{clip-path:url(#SVGID_56_);fill:#FFFFFF;}
	.st68{display:inline;fill:#3A66A1;}
	.st69{clip-path:url(#SVGID_58_);fill:#FFFFFF;}
	.st70{clip-path:url(#SVGID_60_);fill:#FFFFFF;}
	.st71{clip-path:url(#SVGID_62_);fill:#FFFFFF;}
	.st72{clip-path:url(#SVGID_64_);fill:#FFFFFF;}
	.st73{clip-path:url(#SVGID_66_);fill:#FFFFFF;}
	.st74{clip-path:url(#SVGID_68_);fill:#FFFFFF;}
	.st75{display:inline;fill:#62ABEB;}
	.st76{display:inline;fill:#DB8DAD;}
	.st77{display:inline;fill:#5290EE;}
	.st78{display:inline;fill:#3B6185;}
	.st79{display:inline;fill:#DCAF83;}
	.st80{display:inline;fill:#E1A29B;}
	.st81{display:inline;fill:#8BADD4;}
	.st82{display:inline;fill:#5780AB;}
	.st83{display:inline;fill:#BE7B74;}
	.st84{display:inline;fill:#2A2D32;}
	.st85{display:inline;fill:#3E404A;}
	.st86{display:inline;fill:#555860;}
	.st87{display:inline;fill:#C0A076;}
	.st88{display:inline;fill:#413D5A;}
	.st89{display:inline;fill:#2F2B43;}
	.st90{display:inline;fill:#EFCF6A;}
	.st91{display:inline;fill:#EAAD29;}
	.st92{display:inline;fill:#8DCDF9;}
	.st93{display:inline;fill:#C0E7FD;}
	.st94{clip-path:url(#SVGID_70_);fill:#E4FBFF;}
	.st95{display:inline;opacity:0.8;}
	.st96{clip-path:url(#SVGID_72_);fill:#FFFFFF;}
	.st97{clip-path:url(#SVGID_74_);fill:#FFFFFF;}
	.st98{clip-path:url(#SVGID_76_);fill:#FFFFFF;}
	.st99{clip-path:url(#SVGID_78_);fill:#FFFFFF;}
	.st100{display:inline;fill:#E4FBFF;}
	.st101{clip-path:url(#SVGID_80_);fill:#5FA6F0;}
	.st102{clip-path:url(#SVGID_82_);fill:#5FA6F0;}
	.st103{display:inline;fill:#504A75;}
	.st104{clip-path:url(#SVGID_84_);fill:#504A75;}
	.st105{clip-path:url(#SVGID_86_);fill:#504A75;}
	.st106{clip-path:url(#SVGID_88_);fill:#504A75;}
	.st107{clip-path:url(#SVGID_90_);fill:#504A75;}
	.st108{clip-path:url(#SVGID_92_);fill:#504A75;}
	.st109{clip-path:url(#SVGID_94_);fill:#504A75;}
	.st110{display:inline;fill:#CACACA;}
	.st111{display:inline;fill:#7F7F7F;}
	.st112{clip-path:url(#SVGID_96_);fill:#AEEFF9;}
	.st113{clip-path:url(#SVGID_98_);fill:#AEEFF9;}
	.st114{clip-path:url(#SVGID_100_);fill:#AEEFF9;}
	.st115{clip-path:url(#SVGID_102_);fill:#AEEFF9;}
	.st116{clip-path:url(#SVGID_104_);fill:#AEEFF9;}
	.st117{clip-path:url(#SVGID_106_);fill:#AEEFF9;}
	.st118{display:inline;fill:#6C442A;}
	.st119{display:inline;fill:#764D32;}
	.st120{display:inline;fill:#5EA4BA;}
	.st121{display:inline;fill:#B3B3B3;}
	.st122{display:inline;opacity:0.17;}
	.st123{clip-path:url(#SVGID_108_);fill:#7EBBD5;}
	.st124{display:inline;fill:#3F3B70;}
	.st125{display:inline;fill:#DC4E44;}
	.st126{display:inline;fill:#375E78;}
	.st127{display:inline;fill:#DD605D;}
	.st128{display:inline;fill:#182B41;}
	.st129{display:inline;fill:#406E8D;}
	.st130{display:inline;fill:#DD5E55;}
	.st131{display:inline;fill:#D74F47;}
	.st132{display:inline;fill:#DF7371;}
	.st133{display:inline;fill:#1E344F;}
	.st134{display:none;fill:#F2F2F2;}
	.st135{fill:#BC3500;}
	.st136{fill:#FF5000;}
	.st137{fill:#6D2F05;}
	.st138{fill:#B74A00;}
	.st139{fill:#333333;}
	.st140{fill:#79286A;}
	.st141{fill:#218400;}
	.st142{fill:#F2F2F2;}
	.st143{fill:#FFFFFF;}
	.st144{fill:#1A1A1A;}
	.st145{fill:#232323;}
	.st146{fill:#808080;}
	.st147{fill:#0F0F0F;}
	.st148{fill:#1E4C4A;}
	.st149{fill:#4A8E8C;}
</style>
<g id="Capa_1_1_" class="st0">
	<path class="st1" d="M156,223.8H18.7c-0.4,0-0.7-0.3-0.7-0.7v-1.7c0-0.4,0.3-0.7,0.7-0.7H156"/>
	<path class="st1" d="M58.3,161.8H20.5c-0.4,0-0.7-0.3-0.7-0.7v-3.9c0-0.4,0.3-0.7,0.7-0.7h37.8"/>
	<g class="st2">
		<g>
			<g>
				<defs>
					<rect id="SVGID_1_" x="53.1" y="156.7" width="5.2" height="63.9"/>
				</defs>
				<clipPath id="SVGID_2_">
					<use xlink:href="#SVGID_1_"  style="overflow:visible;"/>
				</clipPath>
				<polyline class="st3" points="58.3,220.6 53.1,220.6 53.1,156.7 58.3,156.7 				"/>
			</g>
		</g>
	</g>
	<path class="st4" d="M33.3,195.6c0,0.4,0.4,0.8,0.8,0.8h17c0.4,0,0.8-0.4,0.8-0.8v-24.4c0-0.4-0.3-0.8-0.8-0.8h-17
		c-0.4,0-0.8,0.4-0.8,0.8V195.6z"/>
	<path class="st5" d="M34.5,194.6c0,0.4,0.3,0.7,0.7,0.7h14.9c0.4,0,0.7-0.3,0.7-0.7v-22.3c0-0.4-0.3-0.7-0.7-0.7H35.2
		c-0.4,0-0.7,0.3-0.7,0.7V194.6z"/>
	<g class="st6">
		<g>
			<g>
				<defs>
					<rect id="SVGID_3_" x="34.5" y="172.3" width="16.3" height="23"/>
				</defs>
				<clipPath id="SVGID_4_">
					<use xlink:href="#SVGID_3_"  style="overflow:visible;"/>
				</clipPath>
				<path class="st7" d="M34.5,194.6c0,0.4,0.3,0.7,0.7,0.7h14.9c0.4,0,0.7-0.3,0.7-0.7c0,0-16.3-22.7-16.3-22.3V194.6z"/>
			</g>
		</g>
	</g>
	<path class="st1" d="M31.2,199.5c0,0.4,0.3,0.7,0.7,0.7h21.5c0.4,0,0.7-0.3,0.7-0.7v-4.4c0-0.4-0.3-0.7-0.7-0.7H31.9
		c-0.4,0-0.7,0.3-0.7,0.7L31.2,199.5L31.2,199.5z"/>
	<rect x="138.9" y="151.1" class="st8" width="64.4" height="70.3"/>
	<rect x="138.9" y="201.8" class="st4" width="64.4" height="19.6"/>
	<rect x="54.8" y="123.1" class="st8" width="106.9" height="98.3"/>
	<rect x="54.8" y="194" class="st4" width="106.9" height="27.4"/>
	<path class="st1" d="M207.1,221.1c0-0.5-0.4-0.8-0.8-0.8H51.8c-0.5,0-0.8,0.4-0.8,0.8v1.9c0,0.5,0.4,0.8,0.8,0.8h154.4
		c0.5,0,0.8-0.4,0.8-0.8L207.1,221.1L207.1,221.1z"/>
	<path class="st1" d="M204.2,148.1h-42.5v6.1h42.5c0.5,0,0.8-0.4,0.8-0.8v-4.4C205,148.5,204.6,148.1,204.2,148.1"/>
	<path class="st1" d="M167.5,120.9c0-0.5-0.4-0.8-0.8-0.8H49.8c-0.5,0-0.8,0.4-0.8,0.8v4.4c0,0.5,0.4,0.8,0.8,0.8h116.9
		c0.5,0,0.8-0.4,0.8-0.8L167.5,120.9L167.5,120.9z"/>
	<path class="st1" d="M121.9,221.6c0,0.5,0.4,0.9,0.9,0.9h27.2c0.5,0,0.9-0.4,0.9-0.9v-42.5c0-0.5-0.4-0.9-0.9-0.9h-27.2
		c-0.5,0-0.9,0.4-0.9,0.9V221.6z"/>
	<path class="st9" d="M122.5,220.7c0,0.5,0.4,0.8,0.8,0.8h26c0.5,0,0.8-0.4,0.8-0.8V180c0-0.5-0.4-0.8-0.8-0.8h-26
		c-0.5,0-0.8,0.4-0.8,0.8C122.5,180,122.5,220.7,122.5,220.7z"/>
	<path class="st4" d="M61.7,192.2c0,0.5,0.4,0.9,0.9,0.9h44.1c0.5,0,0.9-0.4,0.9-0.9V148c0-0.5-0.4-0.9-0.9-0.9H62.5
		c-0.5,0-0.9,0.4-0.9,0.9V192.2z"/>
	<path class="st5" d="M62.9,191c0,0.5,0.4,0.8,0.8,0.8h41.7c0.5,0,0.8-0.4,0.8-0.8v-41.7c0-0.5-0.4-0.8-0.8-0.8H63.8
		c-0.5,0-0.8,0.4-0.8,0.8V191z"/>
	<g class="st6">
		<g>
			<g>
				<defs>
					<rect id="SVGID_5_" x="62.9" y="149.3" width="43.4" height="42.5"/>
				</defs>
				<clipPath id="SVGID_6_">
					<use xlink:href="#SVGID_5_"  style="overflow:visible;"/>
				</clipPath>
				<path class="st10" d="M62.9,191c0,0.5,0.4,0.8,0.8,0.8h41.7c0.5,0,0.8-0.4,0.8-0.8c0,0-43.4-42.2-43.4-41.7
					C62.9,149.3,62.9,191,62.9,191z"/>
			</g>
		</g>
	</g>
	<path class="st1" d="M59.2,196.5c0,0.5,0.4,0.8,0.8,0.8h49.2c0.5,0,0.8-0.4,0.8-0.8v-5c0-0.5-0.4-0.8-0.8-0.8H60
		c-0.5,0-0.8,0.4-0.8,0.8C59.2,191.5,59.2,196.5,59.2,196.5z"/>
	<path class="st1" d="M124.9,219v-36.5c0-0.5,0.4-0.8,0.8-0.8h21.2c0.5,0,0.8,0.4,0.8,0.8V219H124.9z"/>
	<path class="st11" d="M126.7,200.4c0,1,0.8,1.7,1.7,1.7c1,0,1.7-0.8,1.7-1.7s-0.8-1.7-1.7-1.7C127.5,198.6,126.7,199.4,126.7,200.4
		"/>
	<path class="st9" d="M119,223.8v-3.6c0-0.7,0.4-1.3,0.8-1.3h32.9c0.5,0,0.8,0.6,0.8,1.3v3.6H119z"/>
	<g class="st2">
		<g>
			<g>
				<defs>
					<rect id="SVGID_7_" x="161.7" y="148.4" width="5.8" height="71.8"/>
				</defs>
				<clipPath id="SVGID_8_">
					<use xlink:href="#SVGID_7_"  style="overflow:visible;"/>
				</clipPath>
				<rect x="161.7" y="148.4" class="st12" width="5.8" height="71.8"/>
			</g>
		</g>
	</g>
	<path class="st4" d="M189.7,192.2c0,0.5-0.4,0.9-0.9,0.9h-19.1c-0.5,0-0.9-0.4-0.9-0.9v-27.5c0-0.5,0.4-0.9,0.9-0.9h19.1
		c0.5,0,0.9,0.4,0.9,0.9V192.2z"/>
	<path class="st5" d="M188.5,191c0,0.5-0.4,0.8-0.8,0.8h-16.7c-0.5,0-0.8-0.4-0.8-0.8v-25c0-0.5,0.4-0.8,0.8-0.8h16.7
		c0.5,0,0.8,0.4,0.8,0.8V191z"/>
	<g class="st6">
		<g>
			<g>
				<defs>
					<rect id="SVGID_9_" x="170.1" y="165.9" width="18.4" height="25.9"/>
				</defs>
				<clipPath id="SVGID_10_">
					<use xlink:href="#SVGID_9_"  style="overflow:visible;"/>
				</clipPath>
				<path class="st13" d="M188.5,191c0,0.5-0.4,0.8-0.8,0.8h-16.7c-0.5,0-0.8-0.4-0.8-0.8c0,0,18.4-25.5,18.4-25L188.5,191
					L188.5,191z"/>
			</g>
		</g>
	</g>
	<path class="st1" d="M192.2,196.5c0,0.5-0.4,0.8-0.8,0.8h-24.2c-0.5,0-0.8-0.4-0.8-0.8v-5c0-0.5,0.4-0.8,0.8-0.8h24.2
		c0.5,0,0.8,0.4,0.8,0.8L192.2,196.5L192.2,196.5z"/>
</g>
<g id="Capa_3" class="st0">
	<rect x="45.7" y="41.3" class="st14" width="130.4" height="134.4"/>
	<g class="st6">
		<g>
			<g>
				<defs>
					<rect id="SVGID_11_" x="45.7" y="148.8" width="130.4" height="27"/>
				</defs>
				<clipPath id="SVGID_12_">
					<use xlink:href="#SVGID_11_"  style="overflow:visible;"/>
				</clipPath>
				<rect x="45.7" y="148.8" class="st15" width="130.4" height="27"/>
			</g>
		</g>
	</g>
	<rect x="51.5" y="49.3" class="st5" width="24.6" height="25.7"/>
	<g class="st6">
		<g>
			<g>
				<defs>
					<rect id="SVGID_13_" x="51.5" y="49.3" width="24.6" height="25.7"/>
				</defs>
				<clipPath id="SVGID_14_">
					<use xlink:href="#SVGID_13_"  style="overflow:visible;"/>
				</clipPath>
				<polygon class="st16" points="76.1,75 51.5,75 76.1,49.3 				"/>
			</g>
		</g>
	</g>
	<rect x="51.5" y="48.5" class="st17" width="24.6" height="0.7"/>
	<rect x="51.5" y="75" class="st17" width="24.6" height="0.7"/>
	<path class="st1" d="M77.2,78.4c0,0.4-0.3,0.6-0.6,0.6H51.1c-0.4,0-0.6-0.3-0.6-0.6v-2c0-0.4,0.3-0.6,0.6-0.6h25.4
		c0.4,0,0.6,0.3,0.6,0.6L77.2,78.4L77.2,78.4z"/>
	<rect x="51.5" y="47.4" class="st18" width="24.6" height="1.1"/>
	<rect x="82.9" y="49.3" class="st5" width="24.6" height="25.7"/>
	<g class="st6">
		<g>
			<g>
				<defs>
					<rect id="SVGID_15_" x="82.9" y="49.3" width="24.6" height="25.7"/>
				</defs>
				<clipPath id="SVGID_16_">
					<use xlink:href="#SVGID_15_"  style="overflow:visible;"/>
				</clipPath>
				<polygon class="st19" points="107.5,75 82.9,75 107.5,49.3 				"/>
			</g>
		</g>
	</g>
	<rect x="82.9" y="48.5" class="st17" width="24.6" height="0.7"/>
	<rect x="82.9" y="75" class="st17" width="24.6" height="0.7"/>
	<path class="st1" d="M108.5,78.4c0,0.4-0.3,0.6-0.6,0.6H82.5c-0.4,0-0.6-0.3-0.6-0.6v-2c0-0.4,0.3-0.6,0.6-0.6h25.4
		c0.4,0,0.6,0.3,0.6,0.6L108.5,78.4L108.5,78.4z"/>
	<rect x="82.9" y="47.4" class="st18" width="24.6" height="1.1"/>
	<rect x="114.3" y="49.3" class="st5" width="24.6" height="25.7"/>
	<g class="st6">
		<g>
			<g>
				<defs>
					<rect id="SVGID_17_" x="114.3" y="49.3" width="24.6" height="25.7"/>
				</defs>
				<clipPath id="SVGID_18_">
					<use xlink:href="#SVGID_17_"  style="overflow:visible;"/>
				</clipPath>
				<polygon class="st20" points="138.9,75 114.3,75 138.9,49.3 				"/>
			</g>
		</g>
	</g>
	<rect x="114.3" y="48.5" class="st17" width="24.6" height="0.7"/>
	<rect x="114.3" y="75" class="st17" width="24.6" height="0.7"/>
	<path class="st1" d="M139.9,78.4c0,0.4-0.3,0.6-0.6,0.6h-25.4c-0.4,0-0.6-0.3-0.6-0.6v-2c0-0.4,0.3-0.6,0.6-0.6h25.4
		c0.4,0,0.6,0.3,0.6,0.6V78.4z"/>
	<rect x="114.3" y="47.4" class="st18" width="24.6" height="1.1"/>
	<rect x="145.7" y="49.3" class="st5" width="24.6" height="25.7"/>
	<g class="st6">
		<g>
			<g>
				<defs>
					<rect id="SVGID_19_" x="145.7" y="49.3" width="24.6" height="25.7"/>
				</defs>
				<clipPath id="SVGID_20_">
					<use xlink:href="#SVGID_19_"  style="overflow:visible;"/>
				</clipPath>
				<polygon class="st21" points="170.2,75 145.7,75 170.2,49.3 				"/>
			</g>
		</g>
	</g>
	<rect x="145.7" y="48.5" class="st17" width="24.6" height="0.7"/>
	<rect x="145.7" y="75" class="st17" width="24.6" height="0.7"/>
	<path class="st1" d="M171.3,78.4c0,0.4-0.3,0.6-0.6,0.6h-25.4c-0.4,0-0.6-0.3-0.6-0.6v-2c0-0.4,0.3-0.6,0.6-0.6h25.4
		c0.4,0,0.6,0.3,0.6,0.6V78.4z"/>
	<rect x="145.7" y="47.4" class="st18" width="24.6" height="1.1"/>
	<rect x="51.5" y="90.4" class="st5" width="24.6" height="25.7"/>
	<g class="st6">
		<g>
			<g>
				<defs>
					<rect id="SVGID_21_" x="51.5" y="90.4" width="24.6" height="25.7"/>
				</defs>
				<clipPath id="SVGID_22_">
					<use xlink:href="#SVGID_21_"  style="overflow:visible;"/>
				</clipPath>
				<polygon class="st22" points="76.1,116.1 51.5,116.1 76.1,90.4 				"/>
			</g>
		</g>
	</g>
	<rect x="51.5" y="89.6" class="st17" width="24.6" height="0.7"/>
	<rect x="51.5" y="116.1" class="st17" width="24.6" height="0.7"/>
	<path class="st1" d="M77.2,119.4c0,0.4-0.3,0.6-0.6,0.6H51.1c-0.4,0-0.6-0.3-0.6-0.6v-2c0-0.4,0.3-0.6,0.6-0.6h25.4
		c0.4,0,0.6,0.3,0.6,0.6L77.2,119.4L77.2,119.4z"/>
	<rect x="51.5" y="88.5" class="st18" width="24.6" height="1.1"/>
	<rect x="82.9" y="90.4" class="st5" width="24.6" height="25.7"/>
	<g class="st6">
		<g>
			<g>
				<defs>
					<rect id="SVGID_23_" x="82.9" y="90.4" width="24.6" height="25.7"/>
				</defs>
				<clipPath id="SVGID_24_">
					<use xlink:href="#SVGID_23_"  style="overflow:visible;"/>
				</clipPath>
				<polygon class="st23" points="107.5,116.1 82.9,116.1 107.5,90.4 				"/>
			</g>
		</g>
	</g>
	<rect x="82.9" y="89.6" class="st17" width="24.6" height="0.7"/>
	<rect x="82.9" y="116.1" class="st17" width="24.6" height="0.7"/>
	<path class="st1" d="M108.5,119.4c0,0.4-0.3,0.6-0.6,0.6H82.5c-0.4,0-0.6-0.3-0.6-0.6v-2c0-0.4,0.3-0.6,0.6-0.6h25.4
		c0.4,0,0.6,0.3,0.6,0.6L108.5,119.4L108.5,119.4z"/>
	<rect x="82.9" y="88.5" class="st18" width="24.6" height="1.1"/>
	<rect x="114.3" y="90.4" class="st5" width="24.6" height="25.7"/>
	<g class="st6">
		<g>
			<g>
				<defs>
					<rect id="SVGID_25_" x="114.3" y="90.4" width="24.6" height="25.7"/>
				</defs>
				<clipPath id="SVGID_26_">
					<use xlink:href="#SVGID_25_"  style="overflow:visible;"/>
				</clipPath>
				<polygon class="st24" points="138.9,116.1 114.3,116.1 138.9,90.4 				"/>
			</g>
		</g>
	</g>
	<rect x="114.3" y="89.6" class="st17" width="24.6" height="0.7"/>
	<rect x="114.3" y="116.1" class="st17" width="24.6" height="0.7"/>
	<path class="st1" d="M139.9,119.4c0,0.4-0.3,0.6-0.6,0.6h-25.4c-0.4,0-0.6-0.3-0.6-0.6v-2c0-0.4,0.3-0.6,0.6-0.6h25.4
		c0.4,0,0.6,0.3,0.6,0.6V119.4z"/>
	<rect x="114.3" y="88.5" class="st18" width="24.6" height="1.1"/>
	<rect x="145.7" y="90.4" class="st5" width="24.6" height="25.7"/>
	<g class="st6">
		<g>
			<g>
				<defs>
					<rect id="SVGID_27_" x="145.7" y="90.4" width="24.6" height="25.7"/>
				</defs>
				<clipPath id="SVGID_28_">
					<use xlink:href="#SVGID_27_"  style="overflow:visible;"/>
				</clipPath>
				<polygon class="st25" points="170.2,116.1 145.7,116.1 170.2,90.4 				"/>
			</g>
		</g>
	</g>
	<rect x="145.7" y="89.6" class="st17" width="24.6" height="0.7"/>
	<rect x="145.7" y="116.1" class="st17" width="24.6" height="0.7"/>
	<path class="st1" d="M171.3,119.4c0,0.4-0.3,0.6-0.6,0.6h-25.4c-0.4,0-0.6-0.3-0.6-0.6v-2c0-0.4,0.3-0.6,0.6-0.6h25.4
		c0.4,0,0.6,0.3,0.6,0.6V119.4z"/>
	<rect x="145.7" y="88.5" class="st18" width="24.6" height="1.1"/>
	<rect x="51.5" y="131.4" class="st5" width="24.6" height="25.7"/>
	<g class="st6">
		<g>
			<g>
				<defs>
					<rect id="SVGID_29_" x="51.5" y="131.4" width="24.6" height="25.7"/>
				</defs>
				<clipPath id="SVGID_30_">
					<use xlink:href="#SVGID_29_"  style="overflow:visible;"/>
				</clipPath>
				<polygon class="st26" points="76.1,157.2 51.5,157.2 76.1,131.4 				"/>
			</g>
		</g>
	</g>
	<rect x="51.5" y="130.7" class="st17" width="24.6" height="0.7"/>
	<rect x="51.5" y="157.2" class="st17" width="24.6" height="0.7"/>
	<path class="st1" d="M77.2,160.5c0,0.4-0.3,0.6-0.6,0.6H51.1c-0.4,0-0.6-0.3-0.6-0.6v-2c0-0.4,0.3-0.6,0.6-0.6h25.4
		c0.4,0,0.6,0.3,0.6,0.6L77.2,160.5L77.2,160.5z"/>
	<rect x="51.5" y="129.6" class="st18" width="24.6" height="1.1"/>
	<rect x="114.3" y="131.4" class="st5" width="24.6" height="25.7"/>
	<g class="st6">
		<g>
			<g>
				<defs>
					<rect id="SVGID_31_" x="114.3" y="131.4" width="24.6" height="25.7"/>
				</defs>
				<clipPath id="SVGID_32_">
					<use xlink:href="#SVGID_31_"  style="overflow:visible;"/>
				</clipPath>
				<polygon class="st27" points="138.9,157.2 114.3,157.2 138.9,131.4 				"/>
			</g>
		</g>
	</g>
	<rect x="114.3" y="130.7" class="st17" width="24.6" height="0.7"/>
	<rect x="114.3" y="157.2" class="st17" width="24.6" height="0.7"/>
	<path class="st28" d="M139.9,160.5c0,0.4-0.3,0.6-0.6,0.6h-25.4c-0.4,0-0.6-0.3-0.6-0.6v-2c0-0.4,0.3-0.6,0.6-0.6h25.4
		c0.4,0,0.6,0.3,0.6,0.6V160.5z"/>
	<rect x="114.3" y="129.6" class="st18" width="24.6" height="1.1"/>
	<rect x="145.7" y="131.4" class="st5" width="24.6" height="25.7"/>
	<g class="st6">
		<g>
			<g>
				<defs>
					<rect id="SVGID_33_" x="145.7" y="131.4" width="24.6" height="25.7"/>
				</defs>
				<clipPath id="SVGID_34_">
					<use xlink:href="#SVGID_33_"  style="overflow:visible;"/>
				</clipPath>
				<polygon class="st29" points="170.2,157.2 145.7,157.2 170.2,131.4 				"/>
			</g>
		</g>
	</g>
	<rect x="145.7" y="130.7" class="st17" width="24.6" height="0.7"/>
	<rect x="145.7" y="157.2" class="st17" width="24.6" height="0.7"/>
	<path class="st28" d="M171.3,160.5c0,0.4-0.3,0.6-0.6,0.6h-25.4c-0.4,0-0.6-0.3-0.6-0.6v-2c0-0.4,0.3-0.6,0.6-0.6h25.4
		c0.4,0,0.6,0.3,0.6,0.6V160.5z"/>
	<rect x="145.7" y="129.6" class="st18" width="24.6" height="1.1"/>
	<path class="st30" d="M181.7,178.6c0,0.6-0.4,1-1,1H41.1c-0.6,0-1-0.4-1-1v-5.8c0-0.6,0.4-1,1-1h139.6c0.6,0,1,0.4,1,1V178.6z"/>
	<path class="st28" d="M83.5,177.8c0,0.4,0.3,0.7,0.7,0.7h22c0.4,0,0.7-0.3,0.7-0.7v-47.5c0-0.4-0.3-0.7-0.7-0.7h-22
		c-0.4,0-0.7,0.3-0.7,0.7V177.8z"/>
	<path class="st17" d="M84,177.1c0,0.4,0.3,0.7,0.7,0.7h21c0.4,0,0.7-0.3,0.7-0.7v-46c0-0.4-0.3-0.7-0.7-0.7h-21
		c-0.4,0-0.7,0.3-0.7,0.7V177.1z"/>
	<path class="st18" d="M85.9,175.7v-42.6c0-0.4,0.3-0.7,0.7-0.7h17.2c0.4,0,0.7,0.3,0.7,0.7v42.6H85.9z"/>
	<path class="st11" d="M87.4,154.1c0,0.8,0.6,1.4,1.4,1.4c0.8,0,1.4-0.6,1.4-1.4c0-0.8-0.6-1.4-1.4-1.4
		C88.1,152.7,87.4,153.3,87.4,154.1"/>
	<path class="st28" d="M108.5,175.7H85.1h-3.3h0c-0.4,0-0.7,0.5-0.7,1v2.9h4.6h23.4v-2.9C109.2,176.2,108.9,175.7,108.5,175.7"/>
	<g class="st2">
		<g>
			<g>
				<defs>
					<rect id="SVGID_35_" x="45.5" y="36.1" width="130.7" height="5.1"/>
				</defs>
				<clipPath id="SVGID_36_">
					<use xlink:href="#SVGID_35_"  style="overflow:visible;"/>
				</clipPath>
				<rect x="45.5" y="36.1" class="st31" width="130.7" height="5.1"/>
			</g>
		</g>
	</g>
	<polygon class="st1" points="181.7,37.6 40.1,37.6 50.1,11 171.7,11 	"/>
	<g class="st2">
		<g>
			<g>
				<defs>
					<rect id="SVGID_37_" x="45.7" y="124.9" width="131.1" height="37.4"/>
				</defs>
				<clipPath id="SVGID_38_">
					<use xlink:href="#SVGID_37_"  style="overflow:visible;"/>
				</clipPath>
				<polygon class="st32" points="45.7,162.2 53.9,124.9 166.1,124.9 176.8,154 				"/>
			</g>
		</g>
	</g>
	<polyline class="st14" points="78.9,163.9 21.6,163.9 21.6,226.4 78.9,226.4 	"/>
	<polyline class="st4" points="78.9,209 21.6,209 21.6,226.4 78.9,226.4 	"/>
	<path class="st1" d="M156.3,228.6H19c-0.4,0-0.7-0.3-0.7-0.7v-1.7c0-0.4,0.3-0.7,0.7-0.7h137.3"/>
	<path class="st1" d="M58.7,166.6H20.9c-0.4,0-0.7-0.3-0.7-0.7V162c0-0.4,0.3-0.7,0.7-0.7h37.8"/>
	<g class="st2">
		<g>
			<g>
				<defs>
					<rect id="SVGID_39_" x="53.5" y="161.5" width="5.2" height="63.9"/>
				</defs>
				<clipPath id="SVGID_40_">
					<use xlink:href="#SVGID_39_"  style="overflow:visible;"/>
				</clipPath>
				<polyline class="st33" points="58.7,225.4 53.5,225.4 53.5,161.5 58.7,161.5 				"/>
			</g>
		</g>
	</g>
	<path class="st4" d="M33.7,200.4c0,0.4,0.4,0.8,0.8,0.8h17c0.4,0,0.8-0.4,0.8-0.8V176c0-0.4-0.4-0.8-0.8-0.8h-17
		c-0.4,0-0.8,0.4-0.8,0.8C33.7,176,33.7,200.4,33.7,200.4z"/>
	<path class="st5" d="M34.8,199.3c0,0.4,0.3,0.7,0.7,0.7h14.9c0.4,0,0.7-0.3,0.7-0.7v-22.3c0-0.4-0.3-0.7-0.7-0.7H35.6
		c-0.4,0-0.7,0.3-0.7,0.7C34.8,177.1,34.8,199.3,34.8,199.3z"/>
	<g class="st6">
		<g>
			<g>
				<defs>
					<rect id="SVGID_41_" x="34.8" y="177.1" width="16.3" height="23"/>
				</defs>
				<clipPath id="SVGID_42_">
					<use xlink:href="#SVGID_41_"  style="overflow:visible;"/>
				</clipPath>
				<path class="st34" d="M34.8,199.3c0,0.4,0.3,0.7,0.7,0.7h14.9c0.4,0,0.7-0.3,0.7-0.7c0,0-16.3-22.7-16.3-22.3L34.8,199.3
					L34.8,199.3z"/>
			</g>
		</g>
	</g>
	<path class="st1" d="M31.5,204.3c0,0.4,0.3,0.7,0.7,0.7h21.5c0.4,0,0.7-0.3,0.7-0.7v-4.4c0-0.4-0.3-0.7-0.7-0.7H32.3
		c-0.4,0-0.7,0.3-0.7,0.7L31.5,204.3L31.5,204.3z"/>
	<rect x="139.3" y="155.9" class="st14" width="64.4" height="70.3"/>
	<rect x="139.3" y="206.6" class="st4" width="64.4" height="19.6"/>
	<rect x="55.1" y="127.9" class="st14" width="106.9" height="98.3"/>
	<rect x="55.1" y="198.8" class="st4" width="106.9" height="27.4"/>
	<path class="st1" d="M207.4,225.9c0-0.5-0.4-0.8-0.8-0.8H52.2c-0.5,0-0.8,0.4-0.8,0.8v1.9c0,0.5,0.4,0.8,0.8,0.8h154.4
		c0.5,0,0.8-0.4,0.8-0.8L207.4,225.9L207.4,225.9z"/>
	<path class="st1" d="M204.5,152.9H162v6.1h42.5c0.5,0,0.8-0.4,0.8-0.8v-4.4C205.4,153.3,205,152.9,204.5,152.9"/>
	<path class="st1" d="M167.9,125.7c0-0.5-0.4-0.8-0.8-0.8H50.1c-0.5,0-0.8,0.4-0.8,0.8v4.4c0,0.5,0.4,0.8,0.8,0.8H167
		c0.5,0,0.8-0.4,0.8-0.8L167.9,125.7L167.9,125.7z"/>
	<path class="st1" d="M122.2,226.4c0,0.5,0.4,0.9,0.9,0.9h27.1c0.5,0,0.9-0.4,0.9-0.9v-42.5c0-0.5-0.4-0.9-0.9-0.9h-27.2
		c-0.5,0-0.9,0.4-0.9,0.9C122.2,183.9,122.2,226.4,122.2,226.4z"/>
	<path class="st9" d="M122.9,225.5c0,0.5,0.4,0.8,0.8,0.8h26c0.5,0,0.8-0.4,0.8-0.8v-40.7c0-0.5-0.4-0.8-0.8-0.8h-26
		c-0.5,0-0.8,0.4-0.8,0.8C122.9,184.8,122.9,225.5,122.9,225.5z"/>
	<path class="st4" d="M62,197c0,0.5,0.4,0.9,0.9,0.9h44.1c0.5,0,0.9-0.4,0.9-0.9v-44.1c0-0.5-0.4-0.9-0.9-0.9H62.9
		c-0.5,0-0.9,0.4-0.9,0.9V197z"/>
	<path class="st5" d="M63.3,195.7c0,0.5,0.4,0.8,0.8,0.8h41.7c0.5,0,0.8-0.4,0.8-0.8V154c0-0.5-0.4-0.8-0.8-0.8H64.1
		c-0.5,0-0.8,0.4-0.8,0.8V195.7z"/>
	<g class="st6">
		<g>
			<g>
				<defs>
					<rect id="SVGID_43_" x="63.3" y="154" width="43.4" height="42.5"/>
				</defs>
				<clipPath id="SVGID_44_">
					<use xlink:href="#SVGID_43_"  style="overflow:visible;"/>
				</clipPath>
				<path class="st35" d="M63.3,195.7c0,0.5,0.4,0.8,0.8,0.8h41.7c0.5,0,0.8-0.4,0.8-0.8c0,0-43.4-42.2-43.4-41.7V195.7z"/>
			</g>
		</g>
	</g>
	<path class="st1" d="M59.6,201.3c0,0.5,0.4,0.8,0.8,0.8h49.2c0.5,0,0.8-0.4,0.8-0.8v-5c0-0.5-0.4-0.8-0.8-0.8H60.4
		c-0.5,0-0.8,0.4-0.8,0.8V201.3z"/>
	<path class="st1" d="M125.2,223.8v-36.5c0-0.5,0.4-0.8,0.8-0.8h21.2c0.5,0,0.8,0.4,0.8,0.8v36.5H125.2z"/>
	<path class="st11" d="M127.1,205.1c0,1,0.8,1.7,1.7,1.7c1,0,1.7-0.8,1.7-1.7c0-1-0.8-1.7-1.7-1.7S127.1,204.2,127.1,205.1"/>
	<path class="st9" d="M119.4,228.6v-3.6c0-0.7,0.4-1.3,0.8-1.3h32.9c0.5,0,0.8,0.6,0.8,1.3v3.6H119.4z"/>
	<g class="st2">
		<g>
			<g>
				<defs>
					<rect id="SVGID_45_" x="162" y="153.2" width="5.8" height="71.8"/>
				</defs>
				<clipPath id="SVGID_46_">
					<use xlink:href="#SVGID_45_"  style="overflow:visible;"/>
				</clipPath>
				<rect x="162" y="153.2" class="st36" width="5.8" height="71.8"/>
			</g>
		</g>
	</g>
	<path class="st4" d="M190.1,197c0,0.5-0.4,0.9-0.9,0.9h-19.1c-0.5,0-0.9-0.4-0.9-0.9v-27.5c0-0.5,0.4-0.9,0.9-0.9h19.1
		c0.5,0,0.9,0.4,0.9,0.9L190.1,197L190.1,197z"/>
	<path class="st5" d="M188.8,195.7c0,0.5-0.4,0.8-0.8,0.8h-16.7c-0.5,0-0.8-0.4-0.8-0.8v-25c0-0.5,0.4-0.8,0.8-0.8H188
		c0.5,0,0.8,0.4,0.8,0.8V195.7z"/>
	<g class="st6">
		<g>
			<g>
				<defs>
					<rect id="SVGID_47_" x="170.5" y="170.7" width="18.4" height="25.9"/>
				</defs>
				<clipPath id="SVGID_48_">
					<use xlink:href="#SVGID_47_"  style="overflow:visible;"/>
				</clipPath>
				<path class="st37" d="M188.8,195.7c0,0.5-0.4,0.8-0.8,0.8h-16.7c-0.5,0-0.8-0.4-0.8-0.8c0,0,18.4-25.5,18.4-25L188.8,195.7
					L188.8,195.7z"/>
			</g>
		</g>
	</g>
	<path class="st1" d="M192.6,201.3c0,0.5-0.4,0.8-0.8,0.8h-24.2c-0.5,0-0.8-0.4-0.8-0.8v-5c0-0.5,0.4-0.8,0.8-0.8h24.2
		c0.5,0,0.8,0.4,0.8,0.8L192.6,201.3L192.6,201.3z"/>
</g>
<g id="Capa_4" class="st0">
	<path class="st38" d="M108,163.7l-7-7.5c-2.8-2.9-3.3-7.3-1.4-10.9l4.4-8.1c1.9-3.4,5.4-5.5,9.3-5.5h10.2c3.9,0,7.5,2.1,9.3,5.5
		l4.4,8.1c1.9,3.6,1.4,7.9-1.4,10.9l-7,7.5l-3.3-3.1l7-7.5c1.4-1.5,1.7-3.8,0.7-5.6l-4.4-8.1c-1.1-2-3.1-3.2-5.4-3.2h-10.2
		c-2.3,0-4.3,1.2-5.4,3.2l-4.4,8.1c-1,1.8-0.7,4.1,0.7,5.6l7,7.5L108,163.7z"/>
	<path class="st39" d="M106,161.5l-5-5.3c-2.8-3-3.3-7.3-1.4-10.9l4.4-8.1c1.9-3.4,5.4-5.5,9.3-5.5h5.1v4.5h-5.1
		c-2.3,0-4.3,1.2-5.4,3.2l-4.4,8.1c-1,1.8-0.7,4.1,0.7,5.6l5,5.3L106,161.5z"/>
	<path class="st39" d="M130.9,161.5l-3.2-3.1l5-5.3c1.4-1.5,1.7-3.8,0.7-5.6l-4.4-8.1c-1.1-2-3.1-3.2-5.4-3.2h-5.1v-4.5h5.1
		c3.9,0,7.5,2.1,9.3,5.5l4.4,8.1c1.9,3.5,1.4,7.9-1.4,10.9L130.9,161.5z"/>
	<rect x="110.3" y="161.6" class="st40" width="5.3" height="52.4"/>
	<rect x="121.3" y="161.6" class="st40" width="5.3" height="52.4"/>
	<path class="st41" d="M109.7,162.7c0.1,3.5,3,6.3,6.5,6.3h4.5c3.5,0,6.4-2.8,6.5-6.3H109.7z"/>
	<polygon class="st41" points="115.6,214.3 110,214.4 109.7,161.1 117,161.1 	"/>
	<polygon class="st41" points="126.6,213.1 121.3,213.1 120,161.1 127.2,161.1 	"/>
	<path class="st42" d="M111.5,208.9L111.5,208.9c2.3,0,4.1,1.9,4.1,4.1v1.2h-8.3v-1.2C107.3,210.8,109.2,208.9,111.5,208.9"/>
	<path class="st42" d="M124.1,208.9L124.1,208.9c2.3,0,4.1,1.9,4.1,4.1v1.2H120v-1.2C120,210.8,121.8,208.9,124.1,208.9"/>
	<rect x="120" y="214.3" class="st43" width="8.3" height="0.9"/>
	<rect x="107.3" y="214.3" class="st43" width="8.3" height="0.9"/>
	<path class="st44" d="M118.6,105.2L118.6,105.2c-5.3,0-9.7,4.3-9.7,9.7v4.9h19.3v-4.9C128.2,109.6,123.9,105.2,118.6,105.2"/>
	<path class="st38" d="M109.8,118.2c0.9,0,1.6,0.7,1.6,1.6s-0.7,1.6-1.6,1.6c-0.9,0-1.6-0.7-1.6-1.6S108.9,118.2,109.8,118.2"/>
	<path class="st45" d="M109.8,119c0.4,0,0.8,0.4,0.8,0.8s-0.4,0.8-0.8,0.8s-0.8-0.4-0.8-0.8C109,119.4,109.4,119,109.8,119"/>
	<path class="st38" d="M127.7,118.2c0.9,0,1.6,0.7,1.6,1.6s-0.7,1.6-1.6,1.6s-1.6-0.7-1.6-1.6S126.8,118.2,127.7,118.2"/>
	<path class="st45" d="M127.7,119c0.4,0,0.8,0.4,0.8,0.8s-0.4,0.8-0.8,0.8s-0.8-0.4-0.8-0.8C126.9,119.4,127.3,119,127.7,119"/>
	<path class="st38" d="M118.4,129.2L118.4,129.2c4.9,0,8.9-4,8.9-8.9v-4.4c0-4.9-4-8.9-8.9-8.9c-4.9,0-8.9,4-8.9,8.9v4.4
		C109.4,125.2,113.4,129.2,118.4,129.2"/>
	<path class="st46" d="M109.3,139.1l0.6,23.2H127l0.6-23.2c0.1-4-3.1-7.4-7.2-7.4h-4c-0.8,0-1.5,0.1-2.2,0.4
		C111.3,133.1,109.2,135.9,109.3,139.1"/>
	<polygon class="st42" points="116.9,146.3 117.9,134.9 119,134.9 120,146.3 	"/>
	<path class="st39" d="M109.1,138.9l0.1,25.4h7.5c0.7,0,1.3-0.4,1.6-1c0.1-0.3,0.2-0.5,0.2-0.8v-19.1l-0.2-0.6l-4.1-11
		C111.1,132.7,109,135.6,109.1,138.9"/>
	<path class="st39" d="M118.4,143.4v19.1c0,0.3,0.1,0.6,0.2,0.8c0.3,0.6,0.9,1,1.6,1h7.5l0.1-25.4c0.1-3.3-2.1-6.2-5.1-7.2l-4.1,11
		L118.4,143.4z"/>
	<polygon class="st41" points="118.4,143.4 114.9,131.4 112.1,131.7 114.5,137.1 115.6,137.4 114.9,138.2 	"/>
	<polygon class="st41" points="118.4,143.4 122,131.4 124.9,131.7 122.4,137.1 121.3,137.4 122,138.2 	"/>
	<path class="st41" d="M118.2,142.8v20.6h0c0.1-0.3,0.2-0.5,0.2-0.8c0,0.3,0.1,0.6,0.2,0.8h0v-20.6l-0.2,0.6L118.2,142.8z"/>
	<path class="st42" d="M119.5,134c0,0,0.2,1.4-1,1.4c-1.2,0-1.1-1.5-1.1-1.5l1.1-0.6L119.5,134z"/>
	<path class="st47" d="M118.5,133.7c-0.1,0.2-0.2,0.3-0.2,0.3l-2.4,1.6c0,0-1.5-2.5-1-4.3c0,0,1.8-0.4,3.6-0.4s3.6,0.4,3.6,0.4
		c0.5,1.8-1,4.3-1,4.3l-2.4-1.6C118.6,134.1,118.6,133.9,118.5,133.7"/>
	<path class="st47" d="M118.5,133.7c-0.1,0.2-0.2,0.3-0.2,0.3l-2.4,1.6c0,0-1.5-2.5-1-4.3c0,0,1.8-0.4,3.6-0.4s3.6,0.4,3.6,0.4
		c0.5,1.8-1,4.3-1,4.3l-2.4-1.6C118.6,134.1,118.6,133.9,118.5,133.7"/>
	<path class="st38" d="M118.5,133.6L118.5,133.6c1,0,1.8-0.8,1.8-1.8v-3.3h-3.5v3.3C116.7,132.8,117.5,133.6,118.5,133.6"/>
	<path class="st41" d="M117,146.8c0.2,0,0.4,0.2,0.4,0.4c0,0.2-0.2,0.4-0.4,0.4s-0.4-0.2-0.4-0.4C116.5,147,116.7,146.8,117,146.8"
		/>
	<path class="st41" d="M117,151.2c0.2,0,0.4,0.2,0.4,0.4c0,0.2-0.2,0.4-0.4,0.4s-0.4-0.2-0.4-0.4C116.5,151.4,116.7,151.2,117,151.2
		"/>
	<path class="st41" d="M117,155.5c0.2,0,0.4,0.2,0.4,0.4c0,0.2-0.2,0.4-0.4,0.4s-0.4-0.2-0.4-0.4C116.5,155.7,116.7,155.5,117,155.5
		"/>
	<path class="st41" d="M120.2,146.8c0.2,0,0.4,0.2,0.4,0.4c0,0.2-0.2,0.4-0.4,0.4s-0.4-0.2-0.4-0.4C119.8,147,120,146.8,120.2,146.8
		"/>
	<path class="st41" d="M120.2,151.2c0.2,0,0.4,0.2,0.4,0.4c0,0.2-0.2,0.4-0.4,0.4s-0.4-0.2-0.4-0.4
		C119.8,151.4,120,151.2,120.2,151.2"/>
	<path class="st41" d="M120.2,155.5c0.2,0,0.4,0.2,0.4,0.4c0,0.2-0.2,0.4-0.4,0.4s-0.4-0.2-0.4-0.4
		C119.8,155.7,120,155.5,120.2,155.5"/>
	<path class="st38" d="M106.9,161.6c0-1.7,1.4-3.1,3.1-3.1c1.7,0,3.1,1.4,3.1,3.1c0,1.7-1.4,3.1-3.1,3.1
		C108.3,164.7,106.9,163.3,106.9,161.6"/>
	<path class="st38" d="M130.1,161.6c0-1.7-1.4-3.1-3.1-3.1s-3.1,1.4-3.1,3.1c0,1.7,1.4,3.1,3.1,3.1
		C128.7,164.7,130.1,163.3,130.1,161.6"/>
	<path class="st44" d="M126.1,110.9c0,0-7,0.4-10.5,2.8s-6.5,2.1-6.5,2.1s0-9.9,9.1-9.9C125.6,106,126.1,110.9,126.1,110.9"/>
	<rect x="61.9" y="139.8" class="st47" width="92.7" height="5.5"/>
	<rect x="61.9" y="143.4" class="st48" width="92.7" height="2"/>
	<rect x="61.8" y="145.3" class="st47" width="93" height="78.6"/>
	<rect x="62" y="168.8" class="st39" width="92.7" height="31.6"/>
	<rect x="62" y="178.4" class="st47" width="92.6" height="12.4"/>
	<polygon class="st47" points="154.6,87.7 154.6,139.8 151.6,139.8 151.6,90.7 64.9,90.7 64.9,139.8 61.9,139.8 61.9,87.7 	"/>
	<g class="st49">
		<g>
			<g>
				<defs>
					<rect id="SVGID_49_" x="64.9" y="90.7" width="86.7" height="49.1"/>
				</defs>
				<clipPath id="SVGID_50_">
					<use xlink:href="#SVGID_49_"  style="overflow:visible;"/>
				</clipPath>
				<path class="st50" d="M151.6,90.7v49.1h-31.4V139c0-1.8-1.5-3.3-3.3-3.3H99.7c-1.8,0-3.3,1.5-3.3,3.3v0.8H64.9V90.7H151.6z"/>
			</g>
		</g>
	</g>
	<rect x="61.9" y="72.3" class="st39" width="92.7" height="15.3"/>
	<path class="st44" d="M110.3,129.1h-4.1c-0.9,0-1.6-0.7-1.6-1.6s0.7-1.6,1.6-1.6h4.1c0.9,0,1.6,0.7,1.6,1.6
		C111.9,128.4,111.2,129.1,110.3,129.1"/>
	<rect x="106.1" y="126.5" class="st48" width="4.4" height="0.3"/>
	<rect x="106.1" y="127.2" class="st48" width="4.4" height="0.3"/>
	<rect x="106.1" y="127.9" class="st48" width="4.4" height="0.3"/>
	<rect x="96.4" y="139.8" class="st51" width="23.8" height="3.6"/>
	<rect x="96.7" y="140.1" class="st52" width="23.2" height="3"/>
	<path class="st48" d="M109.8,141.6h-3c-0.2,0-0.4-0.2-0.4-0.4c0-0.2,0.2-0.4,0.4-0.4h3c0.2,0,0.4,0.2,0.4,0.4
		C110.2,141.4,110,141.6,109.8,141.6"/>
	<polygon class="st53" points="155.2,223.9 164.3,215.9 164.3,78.2 155.1,72.3 	"/>
</g>
<g id="Capa_5" class="st0">
	<path class="st54" d="M196.3,202.5c0,10.2-8,18.5-17.9,18.5c-8.5,0-15.6-6.1-17.4-14.2c-0.3-1.4-0.5-2.8-0.5-4.3
		c0-10.2,8-18.5,17.9-18.5c0.2,0,0.5,0,0.7,0C188.7,184.4,196.3,192.5,196.3,202.5"/>
	<path class="st55" d="M189.2,198.8c0,8.6-6.8,15.7-15.2,15.7c-5.6,0-10.4-3.1-13.1-7.7c-0.3-1.4-0.5-2.8-0.5-4.3
		c0-10.2,8-18.5,17.9-18.5c0.2,0,0.5,0,0.7,0C185,186.2,189.2,192,189.2,198.8"/>
	<path class="st56" d="M110.6,195c0,10.2-8,18.5-17.9,18.5c-8.5,0-15.6-6.1-17.4-14.2c-0.3-1.4-0.5-2.8-0.5-4.3
		c0-10.2,8-18.5,17.9-18.5c0.2,0,0.5,0,0.7,0C103,176.9,110.6,185.1,110.6,195"/>
	<path class="st56" d="M103.5,191.3c0,8.6-6.8,15.7-15.2,15.7c-5.6,0-10.4-3.1-13.1-7.7c-0.3-1.4-0.5-2.8-0.5-4.3
		c0-10.2,8-18.5,17.9-18.5c0.2,0,0.5,0,0.7,0C99.3,178.7,103.5,184.5,103.5,191.3"/>
	<path class="st56" d="M178.2,157.3h-2.7c-1.8,0-3.2-1.4-3.2-3.2v-8.5c0-1.8,1.4-3.2,3.2-3.2h2.7c1.8,0,3.2,1.4,3.2,3.2v8.5
		C181.3,155.9,179.9,157.3,178.2,157.3"/>
	<rect x="98.7" y="118.4" class="st57" width="37.9" height="76.9"/>
	<path class="st57" d="M180.6,154.4h-47.4l14.7,10.7l-0.1,0V195h54.3v-26.4c0-1.8-1-3.4-2.5-4.2L180.6,154.4z"/>
	<polygon class="st57" points="133.2,154.4 120.9,118.4 168.5,118.4 180.6,154.4 	"/>
	<rect x="133.3" y="154.4" class="st57" width="15.6" height="40.6"/>
	<path class="st57" d="M100,194.7H23.6v-58.5c0-9.9,8-17.9,17.9-17.9H100V194.7z"/>
	<path class="st58" d="M175.5,154.4h-38.4c-0.8,0-1.5-0.5-1.7-1.2l-5.8-17.4l-2-6l-1.4-4.2l-0.4-1.2c-0.1-0.4-0.1-0.8,0-1.2
		c0.3-0.7,0.9-1.2,1.7-1.2h38.6c0.8,0,1.5,0.5,1.7,1.2l5.9,18v0l3.3,10.2l0.2,0.6C177.6,153.2,176.7,154.4,175.5,154.4"/>
	<path class="st58" d="M128.4,154.4h-25.3c-1,0-1.8-0.8-1.8-1.8v-28.9c0-0.8,0.5-1.4,1.1-1.7c0.2-0.1,0.4-0.1,0.7-0.1h15.4
		c0.8,0,1.5,0.5,1.7,1.2l6.6,19.2v0l0.8,2.5l2,5.9v0l0.4,1.3C130.5,153.2,129.6,154.4,128.4,154.4"/>
	<rect x="148.9" y="171.1" class="st56" width="54.4" height="17"/>
	<path class="st59" d="M202.1,173.7v11.1c0,0.7-0.5,1.2-1.2,1.2H196c-0.7,0-1.2-0.5-1.2-1.2v-11.1c0-0.7,0.5-1.2,1.2-1.2h4.9
		C201.6,172.4,202.1,173,202.1,173.7"/>
	<path class="st60" d="M202.1,183.3v1.4c0,0.7-0.5,1.2-1.2,1.2H196c-0.7,0-1.2-0.5-1.2-1.2v-1.4c0.1-0.1,0.1-0.1,0.2-0.2
		c0.4-0.4,0.9-0.6,1.5-0.6h3.9C201.1,182.5,201.7,182.8,202.1,183.3"/>
	<path class="st59" d="M157.3,173.7v11.1c0,0.7-0.5,1.2-1.2,1.2h-4.9c-0.7,0-1.2-0.5-1.2-1.2v-11.1c0-0.7,0.5-1.2,1.2-1.2h4.9
		C156.8,172.4,157.3,173,157.3,173.7"/>
	<path class="st60" d="M157.3,183.3v1.4c0,0.7-0.5,1.2-1.2,1.2h-4.9c-0.7,0-1.2-0.5-1.2-1.2v-1.4c0.1-0.1,0.1-0.1,0.2-0.2
		c0.4-0.4,0.9-0.6,1.5-0.6h3.9C156.3,182.5,156.9,182.8,157.3,183.3"/>
	<path class="st61" d="M161.7,184.6h28.7c1.1,0,1.9-0.9,1.9-1.9v-7.4c0-1.1-0.9-1.9-1.9-1.9h-28.7c-1.1,0-1.9,0.9-1.9,1.9v7.4
		C159.8,183.7,160.7,184.6,161.7,184.6"/>
	<rect x="187.2" y="173.4" class="st56" width="1.2" height="11.1"/>
	<rect x="182.5" y="173.4" class="st56" width="1.2" height="11.1"/>
	<rect x="177.8" y="173.4" class="st56" width="1.2" height="11.1"/>
	<rect x="173.1" y="173.4" class="st56" width="1.2" height="11.1"/>
	<rect x="168.4" y="173.4" class="st56" width="1.2" height="11.1"/>
	<rect x="163.8" y="173.4" class="st56" width="1.2" height="11.1"/>
	<rect x="159.8" y="178.4" class="st56" width="32.5" height="1.2"/>
	<path class="st56" d="M198.9,205.5H28.4c-3.2,0-5.9-2.6-5.9-5.9v-1.7c0-3.2,2.6-5.9,5.9-5.9h170.5c3.2,0,5.9,2.6,5.9,5.9v1.7
		C204.8,202.9,202.1,205.5,198.9,205.5"/>
	<path class="st54" d="M126.1,204.3c0,9.2-8,16.7-18,16.7c-9.9,0-18-7.5-18-16.7c0-9.2,8-16.7,18-16.7
		C118,187.6,126.1,195.1,126.1,204.3"/>
	<path class="st55" d="M114.9,203.7c0,6.7-5,12.2-11.1,12.2s-11.1-5.4-11.1-12.2c0-6.7,5-12.2,11.1-12.2S114.9,197,114.9,203.7"/>
	<path class="st62" d="M108.4,201.9v3.4l3.9,1.8c0,0,0.6-2.1,0.4-4.4s-0.5-2.6-0.5-2.6L108.4,201.9z"/>
	<path class="st62" d="M99.1,201.9v3.4l-3.9,1.8c0,0-0.6-2.1-0.4-4.4c0.2-2.3,0.5-2.6,0.5-2.6L99.1,201.9z"/>
	<path class="st62" d="M105.1,198.7l2.1,1.1l2.9-3.5c0,0-0.6-0.8-1.6-1.5c-1.2-0.7-2.6-0.7-2.4-0.5L105.1,198.7z"/>
	<path class="st62" d="M100.4,199.8l2.2-1.1l-1.1-4.3c0,0-1-0.1-2.2,0.4c-0.8,0.4-1.9,1.6-1.9,1.6L100.4,199.8z"/>
	<path class="st62" d="M102.3,208.7l-2.1-1.1l-2.9,3.5c0,0,0.6,0.8,1.6,1.5c1.2,0.7,2.6,0.7,2.4,0.5L102.3,208.7z"/>
	<path class="st62" d="M107.1,207.6l-2.2,1.1l1.1,4.3c0,0,1,0.1,2.2-0.4c0.8-0.4,1.9-1.6,1.9-1.6L107.1,207.6z"/>
	<path class="st55" d="M108.7,203.8c0,2.9-2.2,5.3-5,5.3s-5-2.4-5-5.3c0-2.9,2.2-5.3,5-5.3S108.7,200.9,108.7,203.8"/>
	<path class="st63" d="M108.9,183.7c-10.8,0-19.5,8.7-19.5,19.5c0,0.4,0,0.7,0,1.1h0.6c1.3-9.2,7.8-16.2,15.7-16.2
		c7.9,0,14.5,7,15.7,16.2h6.8c0-0.4,0-0.7,0-1.1C128.4,192.4,119.7,183.7,108.9,183.7"/>
	<path class="st58" d="M98.7,184.7c-0.1,0-0.2-0.1-0.2-0.2v-64c0-0.1,0.1-0.2,0.2-0.2s0.2,0.1,0.2,0.2v64
		C99,184.6,98.8,184.7,98.7,184.7"/>
	<path class="st58" d="M94.1,187H67.9c-0.2,0-0.3-0.1-0.3-0.3v-14.5c0-0.2,0.1-0.3,0.3-0.3c0.2,0,0.3,0.1,0.3,0.3v14.1h25.5V172
		c0-0.2,0.1-0.3,0.3-0.3s0.3,0.1,0.3,0.3v14.6C94.4,186.9,94.2,187,94.1,187"/>
	<path class="st58" d="M94.1,163.4c-0.2,0-0.4-0.2-0.4-0.4v-36.3H68.3v36.3c0,0.2-0.2,0.4-0.4,0.4c-0.2,0-0.4-0.2-0.4-0.4v-36.7
		c0-0.2,0.2-0.4,0.4-0.4h26.1c0.2,0,0.4,0.2,0.4,0.4v36.7C94.4,163.3,94.3,163.4,94.1,163.4"/>
	<rect x="70.4" y="129.7" class="st63" width="21.2" height="12.4"/>
	<rect x="71.8" y="131" class="st58" width="18.5" height="9.7"/>
	<g class="st64">
		<g>
			<g>
				<defs>
					<rect id="SVGID_51_" x="71.8" y="131" width="18.5" height="9.7"/>
				</defs>
				<clipPath id="SVGID_52_">
					<use xlink:href="#SVGID_51_"  style="overflow:visible;"/>
				</clipPath>
				<polygon class="st65" points="76.5,140.7 74.2,140.7 71.8,138.2 71.8,135.7 				"/>
			</g>
			<g>
				<defs>
					<rect id="SVGID_53_" x="71.8" y="131" width="18.5" height="9.7"/>
				</defs>
				<clipPath id="SVGID_54_">
					<use xlink:href="#SVGID_53_"  style="overflow:visible;"/>
				</clipPath>
				<polygon class="st66" points="90.3,135.9 85.6,131 84.5,131 90.3,137.1 				"/>
			</g>
			<g>
				<defs>
					<rect id="SVGID_55_" x="71.8" y="131" width="18.5" height="9.7"/>
				</defs>
				<clipPath id="SVGID_56_">
					<use xlink:href="#SVGID_55_"  style="overflow:visible;"/>
				</clipPath>
				<polygon class="st67" points="90.3,140 90.3,140.7 86.5,140.7 77.2,131 81.7,131 				"/>
			</g>
		</g>
	</g>
	<path class="st61" d="M95.5,133c0-0.3-0.2-0.6-0.5-0.7v-1.2c0-0.5-0.4-1-1-1c-0.5,0-1,0.4-1,1v1.2c-0.3,0.1-0.5,0.4-0.5,0.7
		c0,0.3,0.2,0.6,0.5,0.7v1.9c0,0.5,0.4,1,1,1c0.5,0,1-0.4,1-1v-1.9C95.3,133.6,95.5,133.3,95.5,133"/>
	<path class="st61" d="M95.5,179c0-0.3-0.2-0.6-0.5-0.7v-1.2c0-0.5-0.4-1-1-1c-0.5,0-1,0.4-1,1v1.2c-0.3,0.1-0.5,0.4-0.5,0.7
		s0.2,0.6,0.5,0.7v1.9c0,0.5,0.4,1,1,1c0.5,0,1-0.4,1-1v-1.9C95.3,179.6,95.5,179.3,95.5,179"/>
	<path class="st56" d="M74.7,156.2h-1.9c-0.9,0-1.7-0.8-1.7-1.7c0-0.9,0.8-1.7,1.7-1.7h1.9c0.9,0,1.7,0.8,1.7,1.7
		C76.4,155.4,75.6,156.2,74.7,156.2"/>
	<path class="st68" d="M76.4,155.1h-5.3c-0.4,0-0.6-0.3-0.6-0.6c0-0.4,0.3-0.6,0.6-0.6h5.3c0.4,0,0.6,0.3,0.6,0.6
		C77,154.8,76.7,155.1,76.4,155.1"/>
	<path class="st56" d="M63,156.2h-1.9c-0.9,0-1.7-0.8-1.7-1.7c0-0.9,0.8-1.7,1.7-1.7H63c0.9,0,1.7,0.8,1.7,1.7
		C64.7,155.4,63.9,156.2,63,156.2"/>
	<path class="st68" d="M64.7,155.1h-5.3c-0.4,0-0.6-0.3-0.6-0.6c0-0.4,0.3-0.6,0.6-0.6h5.3c0.4,0,0.6,0.3,0.6,0.6
		C65.3,154.8,65,155.1,64.7,155.1"/>
	<path class="st62" d="M102.5,166.4c0,1.2,0.5,2.2,1.2,3H23.6v-5.9h80.2C103,164.2,102.5,165.2,102.5,166.4"/>
	<path class="st56" d="M110,166.4c0,1.8-1.5,3.3-3.3,3.3c-1.8,0-3.3-1.5-3.3-3.3s1.5-3.3,3.3-3.3C108.5,163.1,110,164.6,110,166.4"
		/>
	<path class="st68" d="M109.5,167.6h-5.5c-0.7,0-1.3-0.6-1.3-1.3s0.6-1.3,1.3-1.3h5.5c0.7,0,1.3,0.6,1.3,1.3
		S110.2,167.6,109.5,167.6"/>
	<g class="st64">
		<g>
			<g>
				<defs>
					<rect id="SVGID_57_" x="125.7" y="121.9" width="51.3" height="32.5"/>
				</defs>
				<clipPath id="SVGID_58_">
					<use xlink:href="#SVGID_57_"  style="overflow:visible;"/>
				</clipPath>
				<polygon class="st69" points="151.1,154.4 147.3,154.4 129.6,135.7 127.6,129.7 				"/>
			</g>
			<g>
				<defs>
					<rect id="SVGID_59_" x="125.7" y="121.9" width="51.3" height="32.5"/>
				</defs>
				<clipPath id="SVGID_60_">
					<use xlink:href="#SVGID_59_"  style="overflow:visible;"/>
				</clipPath>
				<polygon class="st70" points="177,151.5 148.9,121.9 155.4,121.9 173.7,141.2 173.7,141.2 				"/>
			</g>
			<g>
				<defs>
					<rect id="SVGID_61_" x="125.7" y="121.9" width="51.3" height="32.5"/>
				</defs>
				<clipPath id="SVGID_62_">
					<use xlink:href="#SVGID_61_"  style="overflow:visible;"/>
				</clipPath>
				<path class="st71" d="M155.6,154.4l-29.7-31.3c-0.1,0.4-0.2,0.8,0,1.2l0.4,1.2l27.5,28.9H155.6z"/>
			</g>
		</g>
	</g>
	<g class="st64">
		<g>
			<g>
				<defs>
					<rect id="SVGID_63_" x="101.3" y="121.9" width="28.9" height="32.5"/>
				</defs>
				<clipPath id="SVGID_64_">
					<use xlink:href="#SVGID_63_"  style="overflow:visible;"/>
				</clipPath>
				<polygon class="st72" points="114.5,154.4 111.5,154.4 101.3,143.7 101.3,140.5 				"/>
			</g>
			<g>
				<defs>
					<rect id="SVGID_65_" x="101.3" y="121.9" width="28.9" height="32.5"/>
				</defs>
				<clipPath id="SVGID_66_">
					<use xlink:href="#SVGID_65_"  style="overflow:visible;"/>
				</clipPath>
				<polygon class="st73" points="127.6,144.8 105.9,121.9 107.4,121.9 126.7,142.3 126.7,142.3 				"/>
			</g>
			<g>
				<defs>
					<rect id="SVGID_67_" x="101.3" y="121.9" width="28.9" height="32.5"/>
				</defs>
				<clipPath id="SVGID_68_">
					<use xlink:href="#SVGID_67_"  style="overflow:visible;"/>
				</clipPath>
				<path class="st74" d="M128.4,154.4h-1l-26.1-27.4v-3.2c0-0.8,0.5-1.4,1.1-1.7l27.2,28.7v0l0.4,1.3
					C130.5,153.2,129.6,154.4,128.4,154.4"/>
			</g>
		</g>
	</g>
	<path class="st58" d="M132,151.2c-0.1,0-0.2-0.1-0.2-0.2l-8.9-26.2c0-0.1,0-0.3,0.1-0.3c0.1,0,0.3,0,0.3,0.1l8.9,26.2
		C132.3,151,132.2,151.1,132,151.2C132.1,151.2,132,151.2,132,151.2"/>
	<path class="st56" d="M126.7,158.3H124c-1.8,0-3.2-1.4-3.2-3.2v-8.5c0-1.8,1.4-3.2,3.2-3.2h2.7c1.8,0,3.2,1.4,3.2,3.2v8.5
		C129.8,156.9,128.4,158.3,126.7,158.3"/>
	<path class="st56" d="M129.2,154.1l3.3,2.3c0.6,0.4,1.4,0.2,1.8-0.4c0.4-0.6,0.2-1.4-0.4-1.7l-4.6-2.6L129.2,154.1L129.2,154.1z"/>
	<path class="st54" d="M67.9,204.3c0,9.2-8,16.7-18,16.7s-18-7.5-18-16.7c0-9.2,8-16.7,18-16.7C59.9,187.6,67.9,195.1,67.9,204.3"/>
	<path class="st55" d="M56.7,203.7c0,6.7-5,12.2-11.1,12.2s-11.1-5.4-11.1-12.2c0-6.7,5-12.2,11.1-12.2S56.7,197,56.7,203.7"/>
	<path class="st62" d="M50.3,201.9v3.4l3.9,1.8c0,0,0.6-2.1,0.4-4.4c-0.2-2.3-0.5-2.6-0.5-2.6L50.3,201.9z"/>
	<path class="st62" d="M41,201.9v3.4l-3.9,1.8c0,0-0.6-2.1-0.4-4.4c0.2-2.3,0.5-2.6,0.5-2.6L41,201.9z"/>
	<path class="st62" d="M47,198.7l2.1,1.1l2.9-3.5c0,0-0.6-0.8-1.6-1.5c-1.2-0.7-2.6-0.7-2.4-0.5L47,198.7z"/>
	<path class="st62" d="M42.2,199.8l2.2-1.1l-1.1-4.3c0,0-1-0.1-2.2,0.4c-0.8,0.4-1.9,1.6-1.9,1.6L42.2,199.8z"/>
	<path class="st62" d="M44.2,208.7l-2.1-1.1l-2.9,3.5c0,0,0.6,0.8,1.6,1.5c1.2,0.7,2.6,0.7,2.4,0.5L44.2,208.7z"/>
	<path class="st62" d="M48.9,207.6l-2.2,1.1l1.1,4.3c0,0,1,0.1,2.2-0.4c0.8-0.4,1.9-1.6,1.9-1.6L48.9,207.6z"/>
	<path class="st55" d="M50.5,203.8c0,2.9-2.2,5.3-5,5.3s-5-2.4-5-5.3c0-2.9,2.2-5.3,5-5.3S50.5,200.9,50.5,203.8"/>
	<path class="st63" d="M50.8,183.7c-10.8,0-19.5,8.7-19.5,19.5c0,0.4,0,0.7,0,1.1h0.6c1.3-9.2,7.8-16.2,15.7-16.2s14.5,7,15.7,16.2
		h6.8c0-0.4,0-0.7,0-1.1C70.3,192.4,61.5,183.7,50.8,183.7"/>
	<path class="st62" d="M146.6,164.9C146.6,164.9,146.6,164.9,146.6,164.9l-1.8-1.5h-14.2h-21c0.8,0.8,1.2,1.8,1.2,3
		c0,1.2-0.5,2.2-1.2,3h21h2.6H149l0-0.3C149,167.6,148.1,165.9,146.6,164.9"/>
	<path class="st58" d="M148.9,170.3L148.9,170.3c-0.1,0-0.2-0.1-0.2-0.2l0-1c0-1.5-0.9-3.2-2.4-4.3l-9.8-8.1c-0.1-0.1-0.1-0.2,0-0.3
		c0.1-0.1,0.2-0.1,0.3,0l9.8,8.1c1.6,1.1,2.7,3,2.6,4.7l0,1C149.1,170.2,149,170.3,148.9,170.3"/>
	<path class="st58" d="M200.1,166.9h-49.4c-0.1,0-0.2-0.1-0.2-0.2s0.1-0.2,0.2-0.2h49.4c0.1,0,0.2,0.1,0.2,0.2
		S200.3,166.9,200.1,166.9"/>
	<path class="st61" d="M67.9,168.9c-0.1,0-0.2-0.1-0.2-0.2v-4.6c0-0.1,0.1-0.2,0.2-0.2s0.2,0.1,0.2,0.2v4.6
		C68.2,168.8,68.1,168.9,67.9,168.9"/>
	<path class="st61" d="M94.1,168.9c-0.1,0-0.2-0.1-0.2-0.2v-4.6c0-0.1,0.1-0.2,0.2-0.2s0.2,0.1,0.2,0.2v4.6
		C94.3,168.8,94.2,168.9,94.1,168.9"/>
	<rect x="31.3" y="126" class="st62" width="0.6" height="10.3"/>
	<rect x="29.6" y="126" class="st62" width="0.3" height="10.3"/>
	<rect x="27.9" y="126" class="st62" width="0.1" height="10.3"/>
	<rect x="33" y="126" class="st62" width="0.9" height="10.3"/>
	<rect x="34.5" y="126" class="st62" width="1.4" height="10.3"/>
	<rect x="36.6" y="126" class="st62" width="2.3" height="10.3"/>
	<rect x="39.4" y="126" class="st62" width="3.4" height="10.3"/>
	<path class="st75" d="M24.7,187.2c0,2,0.9,3.6,1.9,3.6s1.9-1.6,1.9-3.6s-0.9-3.6-1.9-3.6C25.6,183.7,24.7,185.3,24.7,187.2"/>
	<path class="st76" d="M24.7,187.2c0,1.3,0.6,2.4,1.3,2.4c0.7,0,1.3-1.1,1.3-2.4s-0.6-2.4-1.3-2.4C25.3,184.8,24.7,185.9,24.7,187.2
		"/>
	<path class="st77" d="M151.9,162.2c0,1.9-1,3.4-2.2,3.4c-1.2,0-2.2-1.5-2.2-3.4c0-1.9,1-3.4,2.2-3.4
		C150.9,158.8,151.9,160.3,151.9,162.2"/>
	<path class="st78" d="M151.6,162.4c0,0.8-0.4,1.5-1,1.5s-1-0.7-1-1.5c0-0.8,0.4-1.5,1-1.5S151.6,161.6,151.6,162.4"/>
	<path class="st78" d="M152.7,168.7c-0.2,0-0.3-0.1-0.3-0.3l-1.5-5.9c-0.1-0.2,0.1-0.4,0.3-0.4c0.2,0,0.4,0.1,0.4,0.3l1.5,5.9
		C153.1,168.4,153,168.6,152.7,168.7C152.8,168.7,152.8,168.7,152.7,168.7"/>
	<path class="st77" d="M199,162.2c0,1.9,1,3.4,2.2,3.4c1.2,0,2.2-1.5,2.2-3.4c0-1.9-1-3.4-2.2-3.4C200,158.8,199,160.3,199,162.2"/>
	<path class="st78" d="M199.3,162.4c0,0.8,0.4,1.5,1,1.5s1-0.7,1-1.5c0-0.8-0.4-1.5-1-1.5S199.3,161.6,199.3,162.4"/>
	<path class="st78" d="M198.1,168.7C198.1,168.7,198,168.7,198.1,168.7c-0.3-0.1-0.4-0.3-0.3-0.4l1.5-5.9c0.1-0.2,0.2-0.3,0.4-0.3
		c0.2,0,0.3,0.2,0.3,0.4l-1.5,5.9C198.4,168.6,198.3,168.7,198.1,168.7"/>
	<path class="st79" d="M98.2,181c-0.7-0.2-0.8-0.7-0.7-1.3c0.1-0.6,0.3-0.9-0.3-1.2c-0.5-0.3-1.9,1-1.6,1.4c0.3,0.4,0.9,0.9,0.5,1.5
		c-0.2-0.3-0.5-0.6-0.8-0.9c0.1,0.2,0,0.5,0,0.7c-0.1,0.2-0.1,0.2-0.1,0.3c-1.1-1.5-1.2-2.6,0-4c0.6-0.7,1.2-0.8,1.7-1.1
		c0.6-0.3,0.6-0.4,1.1-0.8c0.4,0.4,0.9,0.7,1.3,1.1c0,0.1-0.1,0.1-0.1,0.2c0,0,0,0,0,0c-0.1,0.3-0.1,0.5-0.2,0.8c0,0,0,0,0,0
		c0,0.1-0.1,0.3-0.1,0.4c0,0,0,0.1,0,0.1c0,0.1,0,0.1,0,0.2c0,0,0,0,0,0c0,0.2-0.1,0.5-0.1,0.6C98.6,179.7,98.3,180.3,98.2,181"/>
	<path class="st80" d="M99.2,176.9C99.2,176.9,99.2,176.9,99.2,176.9c-0.1,0.3-0.1,0.5-0.2,0.8h0c0,0.1-0.1,0.3-0.1,0.4
		c0,0,0,0.1,0,0.1c0,0.1,0,0.1,0,0.2l0,0c-0.1-0.1-0.3-0.1-0.4-0.3c-0.5-0.5-1.4-1.2-1.5-1.7C97,176.4,98.9,176.8,99.2,176.9
		C99.3,176.9,99.2,176.9,99.2,176.9"/>
	<path class="st81" d="M110,161.3c-0.2,0.7-0.5,1.3-0.8,1.9c-0.1,0.2-0.2,0.3-0.2,0.5c0,0,0,0,0,0v0c-1.2,2.3-2.8,4.1-3.4,4.8
		c-0.7,1-1.5,3.6-2.7,5.8c0,0,0,0,0,0v0l0,0c-0.3,0.5-3.3,3.6-3.3,3.6s-3.3-1.8-3.3-1.8c0,0,7.4-13.5,8.3-15.7
		c1.7-3.8,3.2-4.8,3.6-5c0.1,0,0.1,0,0.1,0l0,0l0,0c0,0,0,0,0.1,0l0,0c0.3,0.2,1.8,1.4,1.9,3.1C110.4,159.5,110.3,160.4,110,161.3"
		/>
	<path class="st82" d="M109.5,163.1C109.5,163.1,109.5,163.1,109.5,163.1c-1.2,2.2-3.4,4.7-3.9,5.4c-0.7,1-1.5,3.6-2.7,5.8
		c0,0,0,0,0,0c0,0,0,0,0,0c0,0,0.2-0.3,0.3-1.3c0.2-1.1,2.4-5.7,3.7-8.7c0.7-1.7,2.6-3,2.6-3S110.9,162,109.5,163.1"/>
	<path class="st81" d="M125.5,168.6c-0.9,0.2-1.6,0.1-2.1-0.1c-0.2-0.1-0.4-0.2-0.5-0.2c-0.1-0.1-0.2-0.2-0.2-0.2
		c-0.7-0.7-1.3-1.8-1.8-3c-0.2-0.4-0.3-0.8-0.4-1.2c-0.1-0.4-0.2-0.7-0.3-1.1c-0.9-3.3,0.6-8.4,0.6-8.4s1.8,1.8,3.5,5.6c0,0,0,0,0,0
		c0.3,0.7,0.6,1.5,0.9,2.4c0.1,0.4,0.3,0.8,0.4,1.2c0.2,0.7,0.4,1.5,0.5,2.2c0,0,0,0,0,0C126.3,167,126.2,168,125.5,168.6"/>
	<path class="st79" d="M140.1,160.2c-0.1,0.1-0.2,0.2-0.3,0.2c0.1,0,0.2,0,0.3,0.2c0.2,0.5-2,2.1-3.3,2.4c-0.4,0.1-0.6,0.2-0.9,0.3
		c-0.1,0-0.3,0.1-0.4,0.1c-0.1,0-0.1,0-0.2,0c0,0,0,0-0.1,0c-0.1,0-0.2,0-0.2,0c-0.2,0-0.4,0-0.5-0.1c-0.1,0-0.2,0-0.2,0l-1.2-1.3
		l0,0l1-0.6l0.1-0.1l0.3-0.2l0.2-0.1l0.1,0l0.6-0.7c0.2-0.3,0.6-0.7,0.9-1.1c0.5-0.6,1-1.3,1-1.3s0.2,0.4,0.1,0.9
		c0,0.2-0.1,0.5-0.2,0.8c-0.1,0.2-0.1,0.4,0,0.6c0.1,0.1,0.4-0.1,0.8-0.3c0.6-0.4,1.3-0.9,1.5-0.9c0.5,0,0.2,0.4,0.2,0.4
		s0.3,0,0.5,0.2C140.4,159.8,140.3,160,140.1,160.2"/>
	<polygon class="st83" points="134.5,161.2 135.6,163.4 135.2,163.5 134.1,161.4 	"/>
	<path class="st81" d="M135.2,163.5C135.2,163.5,135.2,163.5,135.2,163.5C135.2,163.5,135.2,163.5,135.2,163.5L135.2,163.5
		c-0.2,0.2-1.8,1.2-3.5,2.3c-1.7,1.1-3.6,2.2-4.5,2.5c-0.3,0.1-0.7,0.2-0.9,0.2c-0.9,0.2-1.6,0.1-2.1-0.1c-0.2-0.1-0.4-0.2-0.5-0.2
		c-0.1-0.1-0.2-0.2-0.2-0.2v0c0-0.4,0-2.5,1.7-3.8c0.3-0.2,0.7-0.4,1.2-0.6c1-0.4,2.3-0.8,3.5-1.2c0,0,0,0,0,0
		c2.1-0.6,4.1-0.9,4.2-1c0,0,0,0,0,0l0,0.1l0,0.1L135.2,163.5z"/>
	<path class="st84" d="M107.2,216.9c0,0-0.2,3.1,0,4.7c0.2,1.6,0.3,2.6,0.3,2.6h-9.7c0,0,0.2-1.6,3.6-2.5c3.3-0.9,3.1-5.2,3.1-5.2
		L107.2,216.9z"/>
	<path class="st84" d="M118.9,216.5c0,0,0.1,2.4-0.3,4.2c-0.4,2-0.4,3.4-0.4,3.4h8.4c0,0-0.1-1.7-2.5-2.3c-2.4-0.6-2-3.8-2.2-5.7
		S118.9,216.5,118.9,216.5"/>
	<path class="st85" d="M124,198.1L124,198.1c0,0.6,0,1.1,0,1.5v0.1v0c0,0.3,0,0.6,0,1c-0.1,4.9-0.8,16.2-0.8,16.2
		c-0.4,0.2-0.8,0.3-1.3,0.4c-1.1,0.2-2.2,0.1-3,0c-0.8-0.1-1.3-0.3-1.3-0.3s0.1-2.3,0.1-6v0v-0.1c0,0,0-0.1,0-0.1c0,0,0-0.1,0-0.1
		c0-0.1,0-0.3,0-0.5c0,0,0-0.1,0-0.1c0-0.2,0-0.3,0-0.5c0-0.1,0-0.1,0-0.2c0-0.1,0-0.2,0-0.4c0,0,0-0.1,0-0.1c0-0.1,0-0.2,0-0.3
		c0-0.1,0-0.1,0-0.2c0-0.1,0-0.1,0-0.2c0-0.2,0-0.4,0-0.5c0-0.1,0-0.1,0-0.2c0-0.2,0-0.3,0-0.5c0-0.1,0-0.1,0-0.2c0,0,0-0.1,0-0.1
		c0-0.1,0-0.1,0-0.2c0-0.4,0-0.8,0.1-1.1c0-0.1,0-0.2,0-0.2c0,0,0-0.1,0-0.1c0-0.1,0-0.2,0-0.2c0,0,0,0,0-0.1c0-0.1,0-0.1,0-0.2
		c0,0,0,0,0,0c0-0.1,0-0.1,0-0.2c0-0.2,0-0.3,0-0.5c0-0.1,0-0.2,0-0.2c0-0.2,0-0.3,0-0.5l0-0.1c0-0.1,0-0.3,0-0.4c0-0.1,0-0.2,0-0.2
		c0.1-1.5,0.1-3.1,0.1-4.6c0-0.1,0-0.2,0-0.2c0-0.3,0-0.6,0-0.9v-0.2c0-0.3,0-0.6,0-0.9v0c0-0.1,0-0.1,0-0.2c0,0,0-0.1,0-0.1
		c0,0,0,0,0-0.1c0-0.5,0-1-0.1-1.5c0-0.1,0-0.2,0-0.3v0c0-0.1,0-0.2,0-0.3c0-0.1,0-0.2,0-0.3c0,0,0-0.1,0-0.1c0,0,0-0.1,0-0.1
		c0,0,0,0,0-0.1c0-0.1,0-0.1,0-0.2v0c0-0.1,0-0.1,0-0.2c0-0.1,0-0.2,0-0.3c0-0.1,0-0.1,0-0.2c0-0.1,0-0.3,0-0.4c0-0.1,0-0.1,0-0.2
		c0,0,0,0,0,0c0-0.1,0-0.3,0-0.4c0-0.3-0.1-0.6-0.1-0.9c0,0,0-0.1,0-0.1c0-0.1,0-0.2,0-0.4c0-0.1,0-0.1,0-0.1c0,0,0,0,0,0
		c0-0.1,0-0.1,0-0.2c0-0.2-0.1-0.4-0.1-0.6c0-0.1,0-0.3-0.1-0.4c0,0,0-0.1,0-0.1c0-0.1,0-0.1,0-0.2c0,0,0-0.1,0-0.1
		c-0.1-0.5-0.1-0.9-0.2-1.3c0,0,0,0,0,0c0-0.2-0.1-0.3-0.1-0.5c0,0,0,0,0,0c0,0,0-0.1,0-0.1l0,0c0,0,0-0.1,0-0.1c0,0,0,0,0,0
		c0,0,0,0,0,0c0,0,0,0,0,0c0,0,0,0,0,0l-1.1-0.1c-0.8,2.7-4,13.5-4.1,15c-0.1,1.5-0.6,4.9-1.8,8.9c-1.2,3.9-1.9,8.2-1.9,8.2
		c-0.4,0.1-0.7,0.2-1.1,0.2h0c-1,0.1-2,0.1-2.8,0h0c-1-0.1-1.7-0.3-1.7-0.3c1.4-5.6,2.7-12.1,3.6-17.8c0-0.3,0.1-0.6,0.1-0.8
		c0-0.1,0-0.1,0-0.2c0.1-0.5,0.1-0.9,0.2-1.4c0.5-3.1,0.8-5.7,1-7.7c0.4-4.2,1.4-8.1,1.8-10.2c0-0.2,0.3-1.2,0.4-1.7
		c0-0.2,0.1-0.4,0.1-0.4s2-0.2,4.4-0.4c0.1,0,0.2,0,0.3,0c0.1,0,0.2,0,0.4,0c0.6,0,1.2-0.1,1.8-0.1h0c0.4,0,0.9,0,1.3,0
		c0.1,0,0.2,0,0.4,0c1,0,1.9,0,2.7,0.1l0,0c0.9,0.1,1.6,0.3,1.9,0.5c0.1,0.1,0.2,0.3,0.3,0.5c0.2,0.5,0.3,1.3,0.4,2.3
		C124.2,185,124,193.8,124,198.1"/>
	<path class="st84" d="M118.2,196.6c0,4.8-0.4,10.6-0.5,14.4c0,0,0.1-3.1,1.3-7.7c1.2-4.6,0.4-8.4,0-12.9s-1.9-4.8-1.9-4.8
		S118.2,191.8,118.2,196.6"/>
	<path class="st86" d="M110,148.2c0.3,2.7,3.4,4,3.7,4c0,0,5.8-2.8,7.5-7.9c0.7-2.1-0.5-4.4-2.3-4.7c-0.2,0-0.5,0-0.8,0
		c-2.2,0.4-2,1.6-2,1.6c0,0-1.3-3.5-3.2-2c-1.4,1-1,3.7-1,3.7s-1.4-1.5-2.1,0c-0.6,1.5,1.3,2.6,1.3,2.6s-0.2,0-0.5,0.2
		C110.3,145.9,109.8,146.6,110,148.2"/>
	<path class="st85" d="M110,148.2c0.3,2.7,3.4,4,3.7,4c0,0,5.8-2.8,7.5-7.9c0.7-2.1-0.5-4.4-2.3-4.7c-0.8,2.1-2.3,5.1-4.2,5.6
		c-1.5,0.4-2.9,0.5-4,0.4C110.3,145.9,109.8,146.6,110,148.2"/>
	<path class="st87" d="M118.7,154.8c0,0,0,0.6-0.6,1.3c-0.5,0.6-1.6,2.3-4.1,1.6c-2.5-0.7-2.6-3-2.6-3c0.5-0.1,1.1-0.1,1.3-0.4
		c0.3-0.3,0.2-3,0.1-4.3c0-0.4,0-0.7,0-0.7l4.1,1.6c0,0-0.1,1.1-0.1,2c0,0.5,0,1,0,1.1C117,154.6,118.7,154.8,118.7,154.8"/>
	<path class="st87" d="M114,149.1c-0.1,0.4-0.9,0.4-1.7,0.1c-0.8-0.3-1.2-0.8-1.1-1.2c0.1-0.5,0.9-0.4,1.7-0.1
		C113.6,148.1,114.2,148.7,114,149.1"/>
	<path class="st79" d="M112.7,147.4c0,2.6,1.3,4.8,3.1,4.8c1.3,0,2.3-1,2.8-2.5c0.2-0.5,0.3-1.1,0.3-1.7c0-0.1,0-0.2,0-0.3
		c0-0.8-0.1-2.1-0.2-2.6c-0.2,0.1-0.6,0.2-1.1,0.3c-1.4,0.3-1.8-0.1-3.2-0.2c-0.2,0-0.5-0.1-0.7-0.1c-0.4-0.1-0.8,0.2-0.9,0.6
		C112.8,146.2,112.7,146.8,112.7,147.4"/>
	<path class="st81" d="M123.3,172c0,0.5,0,0.9,0,1.3v0c0,0.2,0,0.5,0,0.7v0c0,0.1,0,0.2,0,0.3c0,0,0,0,0,0.1c0,0.1,0,0.1,0,0.2v0
		c0,0,0,0.1,0,0.1c0,0,0,0,0,0.1c0,0,0,0.1,0,0.1c0,0.1-0.1,0.3-0.1,0.4c0,0,0,0.1,0,0.1c-0.1,0.2-0.1,0.4-0.2,0.6c0,0,0,0,0,0
		c0,0,0,0.1-0.1,0.1c0,0,0,0,0,0c0,0,0,0,0,0l0,0c0,0,0,0-0.1,0.1c0,0,0,0,0,0c-0.1,0.1-0.2,0.2-0.3,0.2c0,0,0,0,0,0c0,0,0,0-0.1,0
		c0,0,0,0,0,0c0,0,0,0,0,0c0,0,0,0,0,0c0,0-0.1,0-0.1,0c0,0,0,0,0,0l0,0c0,0,0,0,0,0c-0.1,0-0.1,0-0.2,0.1c0,0,0,0,0,0c0,0,0,0,0,0
		c0,0-0.1,0-0.1,0c0,0-0.1,0-0.1,0c0,0,0,0,0,0c0,0,0,0,0,0c-0.1,0-0.1,0-0.2,0c0,0,0,0,0,0c0,0,0,0-0.1,0c0,0,0,0-0.1,0
		c-0.1,0-0.2,0-0.3,0.1c0,0-0.1,0-0.1,0c0,0,0,0-0.1,0c0,0-0.1,0-0.1,0c0,0,0,0-0.1,0c0,0,0,0,0,0c0,0-0.1,0-0.1,0c0,0-0.1,0-0.1,0
		l-0.1,0c0,0,0,0,0,0c0,0-0.1,0-0.1,0c0,0,0,0,0,0c0,0,0,0-0.1,0c0,0,0,0,0,0c0,0,0,0-0.1,0c0,0-0.1,0-0.1,0c-0.4,0-0.7,0.1-1.1,0.1
		c-0.1,0-0.2,0-0.4,0c-1,0-2.1-0.1-3.1-0.2c-0.1,0-0.2,0-0.4,0c-0.1,0-0.2,0-0.3,0c-2-0.2-3.7-0.6-4.2-0.9c0,0-0.1-0.1-0.1-0.1
		c-1-0.9-0.6-2.7-0.5-5.1c0-0.3,0-0.8,0-1.4c0-0.3,0-0.6-0.1-0.9c-0.3-4.5-1.3-13.2-1.3-13.2l2.9-1.2l1.9-0.8l2.9-0.2
		c0.7,0.2,1.8,0.4,2.7,0.6c1.2,0.3,2.2,0.4,2.2,0.4s0.9,2.6,1.2,4.8c0,0.3,0.1,0.6,0.1,0.9l0,0c0,0.2,0.1,0.4,0.1,0.6
		c0.1,0.3,0.1,0.7,0.2,1.1c0,0.1,0,0.1,0,0.2c0,0.1,0,0.2,0,0.3c0,0.3,0.1,0.6,0.1,0.9c0,0.1,0,0.1,0,0.2c0,0,0,0,0,0
		c0,0.1,0,0.2,0,0.3c0,0.2,0,0.4,0.1,0.5c0,0.1,0,0.3,0.1,0.4c0,0.1,0,0.1,0,0.2c0,0.3,0.1,0.6,0.1,0.9c0,0.1,0,0.2,0,0.3
		c0,0.2,0,0.4,0.1,0.7c0,0.1,0,0.2,0,0.3c0,0.1,0,0.3,0,0.4v0c0,0.1,0,0.2,0,0.2c0,0.3,0,0.6,0.1,0.8c0,0.1,0,0.1,0,0.2
		c0,0.1,0,0.1,0,0.2c0,0,0,0.1,0,0.1c0,0.1,0,0.1,0,0.2c0,0,0,0.1,0,0.1c0,0,0,0.1,0,0.1c0,0,0,0.1,0,0.1c0,0,0,0,0,0
		c0,0,0,0.1,0,0.1c0,0.1,0,0.2,0,0.3c0,0.1,0,0.1,0,0.2c0,0.1,0,0.1,0,0.2c0,0,0,0.1,0,0.1c0,0.2,0,0.3,0,0.5c0,0,0,0.1,0,0.1
		c0,0,0,0,0,0c0,0.1,0,0.1,0,0.1c0,0,0,0,0,0C123.3,171.5,123.3,171.7,123.3,172"/>
	<path class="st88" d="M123.3,172c0,0.5,0,0.9,0,1.3v0c0,0.2,0,0.5,0,0.7v0c0,0.1,0,0.2,0,0.3c0,0,0,0,0,0.1c0,0.1,0,0.1,0,0.2v0
		c0,0,0,0.1,0,0.1c0,0,0,0,0,0.1c0,0,0,0.1,0,0.1c0,0.1-0.1,0.3-0.1,0.4c0,0,0,0.1,0,0.1c-0.1,0.2-0.1,0.4-0.2,0.6c0,0,0,0,0,0
		c0,0,0,0.1-0.1,0.1c0,0,0,0,0,0c0,0,0,0,0,0l0,0c0,0,0,0-0.1,0.1c0,0,0,0,0,0c-0.1,0.1-0.2,0.2-0.3,0.2c0,0,0,0,0,0c0,0,0,0-0.1,0
		c0,0,0,0,0,0c0,0,0,0,0,0c0,0,0,0,0,0c0,0-0.1,0-0.1,0c0,0,0,0,0,0l0,0c0,0,0,0,0,0c-0.1,0-0.1,0-0.2,0.1c0,0,0,0,0,0c0,0,0,0,0,0
		c0,0-0.1,0-0.1,0c0,0-0.1,0-0.1,0c0,0,0,0,0,0c0,0,0,0,0,0c-0.1,0-0.1,0-0.2,0c0,0,0,0,0,0c0,0,0,0-0.1,0c0,0,0,0-0.1,0
		c-0.1,0-0.2,0-0.3,0.1c0,0-0.1,0-0.1,0c0,0,0,0-0.1,0c0,0-0.1,0-0.1,0c0,0,0,0-0.1,0c0,0,0,0,0,0c0,0-0.1,0-0.1,0c0,0-0.1,0-0.1,0
		l-0.1,0c0,0,0,0,0,0c0,0-0.1,0-0.1,0c0,0,0,0,0,0c0,0,0,0-0.1,0c0,0,0,0,0,0c0,0,0,0-0.1,0c0,0-0.1,0-0.1,0c-0.4,0-0.7,0.1-1.1,0.1
		c-0.1,0-0.2,0-0.4,0c-1,0-2.1-0.1-3.1-0.2c-0.1,0-0.2,0-0.4,0c-0.1,0-0.2,0-0.3,0c-2-0.2-3.7-0.6-4.2-0.9c0,0-0.1-0.1-0.1-0.1
		c-1-0.9-0.6-3-0.7-5.4c-0.1-2-0.5-5.8-0.4-7.7c0,0,0.6-1.6,0.4-2.9c-0.2-2.3-1.2-4.5-1.2-4.5l2.9-1.2l1.4,1.7
		c1.4,1.7,3.9,1.8,5.3,0.2c0.4-0.5,0.7-1,0.8-1.7l0.1-0.6c1.2,0.3,2.2,0.4,2.2,0.4s0.9,2.6,1.2,4.8c0,0.3,0.1,0.6,0.1,0.9l0,0
		c0,0.2,0.1,0.4,0.1,0.6c0.1,0.3,0.1,0.7,0.2,1.1c0,0.1,0,0.1,0,0.2c0,0.1,0,0.2,0,0.3c0,0.3,0.1,0.6,0.1,0.9c0,0.1,0,0.1,0,0.2
		c0,0,0,0,0,0c0,0.1,0,0.2,0,0.3c0,0.2,0,0.4,0.1,0.5c0,0.1,0,0.3,0.1,0.4c0,0.1,0,0.1,0,0.2c0,0.3,0.1,0.6,0.1,0.9
		c0,0.1,0,0.2,0,0.3c0,0.2,0,0.4,0.1,0.7c0,0.1,0,0.2,0,0.3c0,0.1,0,0.3,0,0.4v0c0,0.1,0,0.2,0,0.2c0,0.3,0,0.6,0.1,0.8
		c0,0.1,0,0.1,0,0.2c0,0.1,0,0.1,0,0.2c0,0,0,0.1,0,0.1c0,0.1,0,0.1,0,0.2c0,0,0,0.1,0,0.1c0,0,0,0.1,0,0.1c0,0,0,0.1,0,0.1
		c0,0,0,0,0,0c0,0,0,0.1,0,0.1c0,0.1,0,0.2,0,0.3c0,0.1,0,0.1,0,0.2c0,0.1,0,0.1,0,0.2c0,0,0,0.1,0,0.1c0,0.2,0,0.3,0,0.5
		c0,0,0,0.1,0,0.1c0,0,0,0,0,0c0,0.1,0,0.1,0,0.1c0,0,0,0,0,0C123.3,171.5,123.3,171.7,123.3,172"/>
	<path class="st89" d="M123.2,173.3L123.2,173.3c0,0.2,0,0.5,0,0.7c0,0.1,0,0.2,0,0.3c0,0,0,0,0,0.1c0,0.1,0,0.1,0,0.2v0
		c0,0,0,0.1,0,0.1c0,0,0,0,0,0.1c0,0,0,0.1,0,0.1c0,0.1-0.1,0.3-0.1,0.4c0,0,0,0.1,0,0.1c-0.1,0.2-0.1,0.4-0.2,0.6c0,0,0,0,0,0
		c0,0,0,0.1-0.1,0.1c0,0,0,0,0,0c0,0,0,0,0,0c0,0,0,0,0,0c0,0,0,0-0.1,0.1c-0.1,0.1-0.2,0.2-0.3,0.3c0,0,0,0,0,0c0,0,0,0-0.1,0
		c0,0,0,0,0,0l0,0c0,0,0,0,0,0c0,0-0.1,0-0.1,0c0,0,0,0,0,0c0,0,0,0,0,0c0,0,0,0,0,0c-0.1,0-0.1,0-0.2,0.1c0,0,0,0,0,0c0,0,0,0,0,0
		c0,0-0.1,0-0.1,0c0,0-0.1,0-0.1,0c0,0,0,0,0,0c0,0,0,0,0,0c-0.1,0-0.1,0-0.2,0c0,0,0,0,0,0c0,0,0,0-0.1,0s0,0-0.1,0
		c-0.1,0-0.2,0-0.3,0.1c0,0-0.1,0-0.1,0l-0.1,0c0,0-0.1,0-0.1,0c0,0,0,0-0.1,0c0,0,0,0,0,0c0,0-0.1,0-0.1,0c0,0-0.1,0-0.1,0
		c0,0,0,0-0.1,0c0,0,0,0,0,0c0,0-0.1,0-0.1,0c0,0,0,0,0,0c0,0,0,0-0.1,0c0,0,0,0,0,0c0,0,0,0-0.1,0c0,0-0.1,0-0.1,0
		c-0.4,0-0.8-0.1-1.1-0.1c-0.1,0-0.2,0-0.4,0c-0.6-0.1-1-0.1-1.3-0.2c-0.2,0-0.2,0-0.2,0s0-0.1,0-0.4c0-0.1,0-0.2,0-0.4
		c0-0.1,0-0.1,0-0.2c0.1-1,0.3-2.6,0.9-4.2c0.9-2.5,4.1-3.4,3.7-5.5c-0.2-1.1,0.1-2.2,0.5-3.1c0.3-0.8,0.7-1.4,0.7-1.4
		c0,0.1,0,0.1,0,0.2c0,0.1,0,0.2,0,0.3c0,0.3,0.1,0.6,0.1,0.9c0,0.1,0,0.1,0,0.2c0,0,0,0,0,0c0,0.1,0,0.2,0,0.3c0,0.2,0,0.4,0.1,0.5
		c0,0.2,0.1,0.4,0.1,0.6c0,0.3,0.1,0.6,0.1,0.9c0,0.1,0,0.2,0,0.3c0,0.2,0,0.4,0.1,0.7c0,0.1,0,0.2,0,0.3c0,0.1,0,0.3,0,0.4v0
		c0,0.1,0,0.2,0,0.2c0,0.3,0,0.6,0.1,0.8c0,0.1,0,0.1,0,0.2c0,0.1,0,0.2,0,0.3c0,0.1,0,0.1,0,0.2c0,0,0,0.1,0,0.1c0,0,0,0.1,0,0.1
		c0,0,0,0.1,0,0.1c0,0,0,0,0,0l0,0.1c0,0.1,0,0.2,0,0.3c0,0.1,0,0.1,0,0.2s0,0.1,0,0.2c0,0,0,0.1,0,0.1c0,0.2,0,0.3,0,0.5
		c0,0,0,0.1,0,0.1c0,0,0,0,0,0c0,0.1,0,0.1,0,0.2c0,0,0,0,0,0c0,0.2,0,0.5,0,0.7C123.3,172.4,123.3,172.9,123.2,173.3"/>
	<path class="st84" d="M110.9,178.4h11.4c0.6,0,1.1-0.5,1.1-1.1V177c0-0.6-0.5-1.1-1.1-1.1h-11.4c-0.6,0-1.1,0.5-1.1,1.1v0.3
		C109.8,177.9,110.3,178.4,110.9,178.4"/>
	<path class="st90" d="M117.9,178.4h-2.7c-0.4,0-0.7-0.3-0.7-0.7v-1c0-0.4,0.3-0.7,0.7-0.7h2.7c0.4,0,0.7,0.3,0.7,0.7v1
		C118.6,178.1,118.3,178.4,117.9,178.4 M115.2,176.3c-0.2,0-0.4,0.2-0.4,0.4v1c0,0.2,0.2,0.4,0.4,0.4h2.7c0.2,0,0.4-0.2,0.4-0.4v-1
		c0-0.2-0.2-0.4-0.4-0.4H115.2z"/>
	<path class="st91" d="M117.9,178.1h-2.7c-0.2,0-0.4-0.2-0.4-0.4v-1c0-0.2,0.2-0.4,0.4-0.4h2.7c0.2,0,0.4,0.2,0.4,0.4v1
		C118.3,177.9,118.1,178.1,117.9,178.1 M117.9,176.7l-2.7,0l0,1l2.7,0V176.7z"/>
	<polygon class="st61" points="116.9,152.9 117.8,154 116.8,155.4 115.8,153.3 	"/>
	<polygon class="st61" points="113,152.7 112,153.9 116,155.5 115.9,153.3 	"/>
	<polyline class="st62" points="105,181.1 105,182.1 105.9,182.1 105.3,181.4 105.1,181.2 105,181.1 105,181.1 	"/>
	<path class="st62" d="M106.3,181.9V194c0,0.1,0,0.3-0.1,0.4c-0.2,0.3-0.5,0.5-0.9,0.6c0,0,0,0-0.1,0H88c0,0-0.1,0-0.1,0
		c-0.4,0-0.7-0.2-0.9-0.5c-0.1-0.1-0.1-0.3-0.1-0.4v-12.1c0-0.4,0.3-0.7,0.7-0.9c0.1,0,0.3-0.1,0.4-0.1h17.2c0.1,0,0.1,0,0.2,0
		c0.2,0,0.3,0.1,0.4,0.2c0.1,0,0.1,0.1,0.2,0.1l0,0c0,0,0.1,0.1,0.1,0.1C106.2,181.5,106.3,181.7,106.3,181.9"/>
	<path class="st92" d="M86.9,182.8v12.1c0,0.2,0.1,0.4,0.2,0.5c0.2,0.2,0.4,0.4,0.7,0.4c0.1,0,0.1,0,0.2,0h17.2
		c0.6,0,1.1-0.4,1.1-0.9v-12.1c0-0.1,0-0.2,0-0.3c-0.1-0.2-0.2-0.3-0.3-0.4c-0.1-0.1-0.3-0.2-0.5-0.2c0,0-0.1,0-0.1,0
		c0,0-0.1,0-0.1,0H88C87.4,181.9,86.9,182.3,86.9,182.8"/>
	<path class="st93" d="M87.8,183.4v11c0,0.2,0.1,0.3,0.1,0.5c0.1,0.2,0.4,0.3,0.6,0.4c0.1,0,0.1,0,0.2,0h15.6c0.2,0,0.3,0,0.5-0.1
		c0.3-0.1,0.5-0.4,0.5-0.7v-11c0-0.1,0-0.2,0-0.2c-0.1-0.2-0.1-0.3-0.3-0.4c-0.1-0.1-0.3-0.2-0.5-0.2c0,0,0,0-0.1,0c0,0-0.1,0-0.1,0
		H88.8C88.2,182.5,87.8,182.9,87.8,183.4"/>
	<g class="st6">
		<g>
			<g>
				<defs>
					<rect id="SVGID_69_" x="87.8" y="182.5" width="17.6" height="12.7"/>
				</defs>
				<clipPath id="SVGID_70_">
					<use xlink:href="#SVGID_69_"  style="overflow:visible;"/>
				</clipPath>
				<path class="st94" d="M87.8,183.3v11c0,0.2,0.1,0.3,0.2,0.5c0.1,0.2,0.4,0.3,0.6,0.4c0.1,0,0.1,0,0.2,0h15.7
					c0.2,0,0.4,0,0.5-0.1l0,0c0.4-0.2,0.5-0.8,0.1-1l-16-11.4c-0.2-0.2-0.6-0.2-0.9,0C88,182.8,87.8,183,87.8,183.3"/>
			</g>
		</g>
	</g>
	<path class="st68" d="M104.7,182.2c0,0.4,0.2,0.7,0.6,0.9c0.2,0.1,0.4,0.1,0.6,0.1c0.1,0,0.2,0,0.3,0v-0.4c0-0.1,0-0.2,0-0.3
		c-0.1-0.2-0.2-0.3-0.3-0.4c-0.1-0.1-0.3-0.2-0.5-0.2c0,0-0.1,0-0.1,0c0,0-0.1,0-0.1,0h-0.4C104.7,182,104.7,182.1,104.7,182.2"/>
	<path class="st68" d="M104.7,195.4c0,0.2,0,0.3,0.1,0.4h0.4c0.6,0,1.1-0.4,1.1-0.9v-0.5c-0.1,0-0.2,0-0.3,0
		C105.2,194.3,104.7,194.8,104.7,195.4"/>
	<g class="st95">
		<g>
			<g>
				<defs>
					<rect id="SVGID_71_" x="87.8" y="182.5" width="17.6" height="12.7"/>
				</defs>
				<clipPath id="SVGID_72_">
					<use xlink:href="#SVGID_71_"  style="overflow:visible;"/>
				</clipPath>
				<polygon class="st96" points="103.1,182.5 105.4,186.7 105.4,185.7 103.6,182.5 				"/>
			</g>
			<g>
				<defs>
					<rect id="SVGID_73_" x="87.8" y="182.5" width="17.6" height="12.7"/>
				</defs>
				<clipPath id="SVGID_74_">
					<use xlink:href="#SVGID_73_"  style="overflow:visible;"/>
				</clipPath>
				<polygon class="st97" points="87.8,185 87.8,185.5 93,195.2 93.3,195.2 				"/>
			</g>
			<g>
				<defs>
					<rect id="SVGID_75_" x="87.8" y="182.5" width="17.6" height="12.7"/>
				</defs>
				<clipPath id="SVGID_76_">
					<use xlink:href="#SVGID_75_"  style="overflow:visible;"/>
				</clipPath>
				<path class="st98" d="M97.1,182.5l6.9,12.7h0.5c0.2,0,0.4,0,0.5-0.1l-6.8-12.6H97.1z"/>
			</g>
			<g>
				<defs>
					<rect id="SVGID_77_" x="87.8" y="182.5" width="17.6" height="12.7"/>
				</defs>
				<clipPath id="SVGID_78_">
					<use xlink:href="#SVGID_77_"  style="overflow:visible;"/>
				</clipPath>
				<polygon class="st99" points="87.8,186.8 87.8,189.9 90.6,195.2 92.3,195.2 				"/>
			</g>
		</g>
	</g>
	<path class="st62" d="M99.3,181.1C99.3,181.1,99.3,181.1,99.3,181.1c0-0.4-0.1-0.8-0.3-1.1c-0.3-0.6-0.8-1.1-1.4-1.3l0,0
		c-0.3-0.2-0.7-0.2-1.1-0.3h0c0,0-0.1,0-0.1,0c-1.5,0-2.7,1.2-2.9,2.6c0,0,0,0,0,0.1c0,0.1,0,0.2,0,0.3v0c0,0.1,0,0.2,0,0.3h1
		c0-0.1,0-0.2,0-0.3v0c0-0.1,0-0.2,0-0.3c0,0,0,0,0-0.1c0.2-0.9,0.9-1.6,1.9-1.6c0,0,0.1,0,0.1,0c0.9,0.1,1.6,0.7,1.7,1.6
		c0,0,0,0,0,0.1c0,0.1,0,0.2,0,0.3v0c0,0.1,0,0.2,0,0.3h1c0-0.1,0-0.2,0-0.3v0C99.3,181.3,99.3,181.2,99.3,181.1"/>
	<path class="st93" d="M99.6,181.1C99.6,181.1,99.6,181.1,99.6,181.1c-0.2-1.5-1.4-2.7-2.9-2.7c0,0-0.1,0-0.1,0h0
		c-1.4,0.1-2.6,1.2-2.7,2.6c0,0,0,0,0,0.1c0,0.1,0,0.2,0,0.3v0c0,0.1,0,0.2,0,0.3h1c0-0.1,0-0.2,0-0.3v0c0-0.1,0-0.2,0-0.3
		c0,0,0,0,0-0.1c0.1-0.9,0.9-1.5,1.7-1.6c0,0,0.1,0,0.1,0c0.9,0,1.7,0.7,1.9,1.6c0,0,0,0,0,0.1c0,0.1,0,0.2,0,0.3v0
		c0,0.1,0,0.2,0,0.3h1c0-0.1,0-0.2,0-0.3v0C99.6,181.3,99.6,181.2,99.6,181.1"/>
	<path class="st68" d="M95.3,181.3v0.2c0,0.1-0.1,0.2-0.2,0.2h-1.7c-0.1,0-0.2-0.1-0.2-0.2v-0.2c0-0.1,0.1-0.2,0.2-0.2h1.7
		C95.2,181.1,95.3,181.2,95.3,181.3"/>
	<path class="st68" d="M100,181.3v0.2c0,0.1-0.1,0.2-0.2,0.2h-1.7c-0.1,0-0.2-0.1-0.2-0.2v-0.2c0-0.1,0.1-0.2,0.2-0.2h1.7
		C99.9,181.1,100,181.2,100,181.3"/>
	<path class="st100" d="M98.9,180.4c-0.1,0-0.1,0-0.1-0.1c-0.1-0.6-0.9-1.6-2.3-1.5c-0.1,0-0.1,0-0.1-0.1c0-0.1,0-0.1,0.1-0.1
		c1.5-0.1,2.4,0.9,2.6,1.7C99.1,180.3,99,180.4,98.9,180.4C99,180.4,99,180.4,98.9,180.4"/>
	<g class="st6">
		<g>
			<g>
				<defs>
					<rect id="SVGID_79_" x="93.2" y="181.1" width="2.1" height="0.3"/>
				</defs>
				<clipPath id="SVGID_80_">
					<use xlink:href="#SVGID_79_"  style="overflow:visible;"/>
				</clipPath>
				<path class="st101" d="M95.3,181.3v0.1h-2.1v-0.1c0-0.1,0.1-0.2,0.2-0.2h1.7C95.2,181.1,95.3,181.2,95.3,181.3"/>
			</g>
		</g>
	</g>
	<g class="st6">
		<g>
			<g>
				<defs>
					<rect id="SVGID_81_" x="97.9" y="181.1" width="2.1" height="0.3"/>
				</defs>
				<clipPath id="SVGID_82_">
					<use xlink:href="#SVGID_81_"  style="overflow:visible;"/>
				</clipPath>
				<path class="st102" d="M100,181.3v0.1h-2.1v-0.1c0-0.1,0.1-0.2,0.2-0.2h1.7C99.9,181.1,100,181.2,100,181.3"/>
			</g>
		</g>
	</g>
	<path class="st100" d="M99.2,180.7c0,0.1-0.1,0.2-0.2,0.2s-0.2-0.1-0.2-0.2c0-0.1,0.1-0.2,0.2-0.2S99.2,180.6,99.2,180.7"/>
	<path class="st68" d="M106.3,181.9l-0.2,0.4l-0.6-0.4l-0.1-0.9c0.2,0,0.3,0.1,0.4,0.2c0.1,0,0.1,0.1,0.2,0.1c0,0,0,0,0,0
		c0,0,0.1,0.1,0.1,0.1C106.2,181.5,106.3,181.7,106.3,181.9"/>
	<path class="st68" d="M86.9,182.8v0.4c0.1,0.1,0.3,0.1,0.5,0.1c0.7,0,1.2-0.5,1.2-1.1c0-0.1,0-0.3-0.1-0.4H88
		C87.4,181.9,86.9,182.3,86.9,182.8"/>
	<path class="st68" d="M86.9,194.4v0.5c0,0.2,0.1,0.4,0.2,0.5c0.2,0.2,0.4,0.4,0.7,0.4c0.1,0,0.1,0,0.2,0h0.5
		c0.1-0.1,0.1-0.3,0.1-0.4c0-0.6-0.5-1.1-1.2-1.1C87.3,194.3,87.1,194.3,86.9,194.4C87,194.4,86.9,194.4,86.9,194.4"/>
	<path class="st68" d="M87.8,181.9L87.8,181.9l-0.5,0.4l0,0.2l-0.3-0.6c0-0.4,0.3-0.7,0.7-0.9L87.8,181.9z"/>
	<path class="st79" d="M98.2,181c-0.7-0.2-0.8-0.7-0.7-1.3c0.1-0.6,0.3-0.9-0.3-1.2c-0.5-0.3-2.5-0.4-2-1c0.5-0.7,1.2-0.8,1.7-1.1
		l2.2,1.2c0,0-0.1,0.4-0.1,0.5c0,0,0,0.1,0,0.1c0,0.1,0,0.1,0,0.2c0,0,0,0,0,0c0,0.2-0.1,0.5-0.1,0.6
		C98.6,179.7,98.3,180.3,98.2,181"/>
	<path class="st82" d="M109.3,161.4l-0.6,0.5l0.2,1.1l0,0C109.1,162.5,109.3,161.9,109.3,161.4"/>
	<path class="st103" d="M120,160.5c-0.3,0-0.6-0.1-0.8-0.3c-0.3-0.2-0.5-0.6-0.6-1l-0.2-1.7c0-0.1,0-0.2,0.1-0.2
		c0.1,0,0.2,0,0.2,0.1l0.2,1.7c0,0.3,0.2,0.6,0.5,0.8c0.2,0.2,0.5,0.2,0.8,0.2c0.6-0.1,1-0.7,0.9-1.3l-0.3-2.3c0-0.1,0-0.2,0.1-0.2
		c0.1,0,0.2,0,0.2,0.1l0.3,2.3c0.1,0.8-0.4,1.5-1.2,1.6C120.2,160.5,120.1,160.5,120,160.5"/>
	<path class="st103" d="M111.5,161.2c-0.6,0-1.2-0.4-1.4-1.1l-0.6-2.2c0-0.1,0-0.2,0.1-0.2c0.1,0,0.2,0,0.2,0.1l0.6,2.2
		c0.2,0.6,0.8,1,1.3,0.8c0.3-0.1,0.5-0.3,0.7-0.5c0.2-0.3,0.2-0.6,0.1-0.9l-0.4-1.6c0-0.1,0-0.2,0.1-0.2c0.1,0,0.2,0,0.2,0.1
		l0.4,1.6c0.1,0.4,0,0.8-0.2,1.1c-0.2,0.3-0.5,0.6-0.9,0.7C111.8,161.1,111.6,161.2,111.5,161.2"/>
	<g class="st6">
		<g>
			<g>
				<defs>
					<rect id="SVGID_83_" x="110.9" y="158.4" width="9.9" height="7"/>
				</defs>
				<clipPath id="SVGID_84_">
					<use xlink:href="#SVGID_83_"  style="overflow:visible;"/>
				</clipPath>
				<path class="st104" d="M117.6,158.8h-3.8c-0.1,0-0.2-0.1-0.2-0.2c0-0.1,0.1-0.2,0.2-0.2h3.8c0.1,0,0.2,0.1,0.2,0.2
					C117.8,158.7,117.7,158.8,117.6,158.8"/>
			</g>
			<g>
				<defs>
					<rect id="SVGID_85_" x="110.9" y="158.4" width="9.9" height="7"/>
				</defs>
				<clipPath id="SVGID_86_">
					<use xlink:href="#SVGID_85_"  style="overflow:visible;"/>
				</clipPath>
				<path class="st105" d="M117.2,160.1h-3c-0.1,0-0.2-0.1-0.2-0.2s0.1-0.2,0.2-0.2h3c0.1,0,0.2,0.1,0.2,0.2
					S117.3,160.1,117.2,160.1"/>
			</g>
			<g>
				<defs>
					<rect id="SVGID_87_" x="110.9" y="158.4" width="9.9" height="7"/>
				</defs>
				<clipPath id="SVGID_88_">
					<use xlink:href="#SVGID_87_"  style="overflow:visible;"/>
				</clipPath>
				<path class="st106" d="M119.8,162.7h-7.9c-0.1,0-0.2-0.1-0.2-0.2c0-0.1,0.1-0.2,0.2-0.2h7.9c0.1,0,0.2,0.1,0.2,0.2
					C120,162.6,119.9,162.7,119.8,162.7"/>
			</g>
			<g>
				<defs>
					<rect id="SVGID_89_" x="110.9" y="158.4" width="9.9" height="7"/>
				</defs>
				<clipPath id="SVGID_90_">
					<use xlink:href="#SVGID_89_"  style="overflow:visible;"/>
				</clipPath>
				<path class="st107" d="M120.7,164h-9.6c-0.1,0-0.2-0.1-0.2-0.2c0-0.1,0.1-0.2,0.2-0.2h9.6c0.1,0,0.2,0.1,0.2,0.2
					C120.9,163.9,120.8,164,120.7,164"/>
			</g>
			<g>
				<defs>
					<rect id="SVGID_91_" x="110.9" y="158.4" width="9.9" height="7"/>
				</defs>
				<clipPath id="SVGID_92_">
					<use xlink:href="#SVGID_91_"  style="overflow:visible;"/>
				</clipPath>
				<path class="st108" d="M120.1,165.4h-8.8c-0.1,0-0.2-0.1-0.2-0.2c0-0.1,0.1-0.2,0.2-0.2h8.8c0.1,0,0.2,0.1,0.2,0.2
					C120.3,165.3,120.2,165.4,120.1,165.4"/>
			</g>
			<g>
				<defs>
					<rect id="SVGID_93_" x="110.9" y="158.4" width="9.9" height="7"/>
				</defs>
				<clipPath id="SVGID_94_">
					<use xlink:href="#SVGID_93_"  style="overflow:visible;"/>
				</clipPath>
				<path class="st109" d="M116.8,161.4h-1.9c-0.1,0-0.2-0.1-0.2-0.2c0-0.1,0.1-0.2,0.2-0.2h1.9c0.1,0,0.2,0.1,0.2,0.2
					C117,161.3,116.9,161.4,116.8,161.4"/>
			</g>
		</g>
	</g>
	<path class="st84" d="M109.1,183.2l-0.2,0c-0.6-0.1-0.9-0.7-0.8-1.2l1-4.8c0.1-0.6,0.7-0.9,1.2-0.8l0.2,0c0.6,0.1,0.9,0.7,0.8,1.2
		l-1,4.8C110.2,182.9,109.7,183.3,109.1,183.2"/>
	<path class="st84" d="M111.2,181.3L111.2,181.3c-0.4-0.1-0.7-0.5-0.6-0.9l0.5-2.5c0.1-0.4,0.5-0.7,0.9-0.6c0.4,0.1,0.7,0.5,0.6,0.9
		l-0.5,2.5C112,181.1,111.6,181.4,111.2,181.3"/>
	<path class="st84" d="M112.5,178.7l-3.6-0.7l0.3-1.5c0.1-0.3,0.4-0.5,0.7-0.4l2.5,0.5c0.3,0.1,0.5,0.4,0.4,0.7L112.5,178.7z"/>
	<path class="st85" d="M109.2,182.7c-0.1,0-0.1,0-0.2,0l-0.1,0c-0.1,0-0.1-0.1-0.1-0.2c0-0.1,0.1-0.1,0.2-0.1l0.1,0
		c0.1,0,0.3,0,0.4-0.1c0.1-0.1,0.2-0.2,0.2-0.3l0.3-1c0.1-0.4,0.5-0.7,1-0.6c0.3,0.1,0.5-0.1,0.6-0.4l0.5-2.4c0-0.1,0.1-0.1,0.2-0.1
		c0.1,0,0.1,0.1,0.1,0.2l-0.5,2.4c-0.1,0.5-0.5,0.8-1,0.7c-0.3-0.1-0.5,0.1-0.6,0.4l-0.3,1c-0.1,0.2-0.2,0.4-0.4,0.5
		C109.5,182.6,109.3,182.7,109.2,182.7"/>
</g>
<g id="Capa_6" class="st0">
	<path class="st1" d="M161.3,223.6c0,0.7-0.6,1.2-1.3,1.2H65.9c-0.7,0-1.3-0.5-1.3-1.2v-2.9c0-0.7,0.6-1.2,1.3-1.2h94.2
		c0.7,0,1.3,0.5,1.3,1.2L161.3,223.6L161.3,223.6z"/>
	<rect x="69.5" y="89" class="st14" width="87.2" height="130.5"/>
	<rect x="69.5" y="209" class="st110" width="87.2" height="10.5"/>
	<rect x="69.5" y="84.2" class="st111" width="87.2" height="4.8"/>
	<path class="st1" d="M112.5,223.5c0,0.3,0.2,0.5,0.5,0.5h16.3c0.3,0,0.5-0.2,0.5-0.5v-35.2c0-0.3-0.2-0.5-0.5-0.5H113
		c-0.3,0-0.5,0.2-0.5,0.5C112.5,188.2,112.5,223.5,112.5,223.5z"/>
	<path class="st17" d="M112.9,222.9c0,0.3,0.2,0.5,0.5,0.5H129c0.3,0,0.5-0.2,0.5-0.5v-34.1c0-0.3-0.2-0.5-0.5-0.5h-15.6
		c-0.3,0-0.5,0.2-0.5,0.5V222.9z"/>
	<path class="st1" d="M114.3,221.9v-31.6c0-0.3,0.2-0.5,0.5-0.5h12.8c0.3,0,0.5,0.2,0.5,0.5v31.6H114.3z"/>
	<path class="st11" d="M115.4,205.8c0,0.6,0.5,1,1,1c0.6,0,1-0.5,1-1c0-0.6-0.5-1-1-1C115.9,204.8,115.4,205.3,115.4,205.8"/>
	<path class="st1" d="M112.5,223.5c0,0.3-0.2,0.5-0.5,0.5H95.7c-0.3,0-0.5-0.2-0.5-0.5v-35.2c0-0.3,0.2-0.5,0.5-0.5H112
		c0.3,0,0.5,0.2,0.5,0.5L112.5,223.5L112.5,223.5z"/>
	<path class="st17" d="M112.1,222.9c0,0.3-0.2,0.5-0.5,0.5H96c-0.3,0-0.5-0.2-0.5-0.5v-34.1c0-0.3,0.2-0.5,0.5-0.5h15.6
		c0.3,0,0.5,0.2,0.5,0.5V222.9z"/>
	<path class="st1" d="M110.7,221.9v-31.6c0-0.3-0.2-0.5-0.5-0.5H97.4c-0.3,0-0.5,0.2-0.5,0.5v31.6H110.7z"/>
	<path class="st11" d="M109.6,205.8c0,0.6-0.5,1-1,1c-0.6,0-1-0.5-1-1c0-0.6,0.5-1,1-1C109.1,204.8,109.6,205.3,109.6,205.8"/>
	<path class="st110" d="M131.1,221.9h-17.4h-2.4H93.9c-0.3,0-0.5,0.3-0.5,0.8v2.1h17.4h3.4h17.4v-2.1
		C131.6,222.2,131.4,221.9,131.1,221.9"/>
	<path class="st5" d="M149.5,108.3c0,0.7-0.5,1.2-1.2,1.2H78c-0.7,0-1.2-0.5-1.2-1.2V94.7c0-0.7,0.5-1.2,1.2-1.2h70.3
		c0.7,0,1.2,0.5,1.2,1.2V108.3z"/>
	<g class="st6">
		<g>
			<g>
				<defs>
					<rect id="SVGID_95_" x="76.8" y="94.6" width="72.7" height="14.9"/>
				</defs>
				<clipPath id="SVGID_96_">
					<use xlink:href="#SVGID_95_"  style="overflow:visible;"/>
				</clipPath>
				<path class="st112" d="M149.5,108.3c0,0.7-0.5,1.2-1.2,1.2H78c-0.7,0-1.2-0.5-1.2-1.2c0,0,72.7-14.4,72.7-13.7L149.5,108.3
					L149.5,108.3z"/>
			</g>
		</g>
	</g>
	<path class="st5" d="M149.5,132.4c0,0.7-0.5,1.2-1.2,1.2H78c-0.7,0-1.2-0.5-1.2-1.2v-13.7c0-0.7,0.5-1.2,1.2-1.2h70.3
		c0.7,0,1.2,0.5,1.2,1.2V132.4z"/>
	<g class="st6">
		<g>
			<g>
				<defs>
					<rect id="SVGID_97_" x="76.8" y="118.7" width="72.7" height="14.9"/>
				</defs>
				<clipPath id="SVGID_98_">
					<use xlink:href="#SVGID_97_"  style="overflow:visible;"/>
				</clipPath>
				<path class="st113" d="M149.5,132.4c0,0.7-0.5,1.2-1.2,1.2H78c-0.7,0-1.2-0.5-1.2-1.2c0,0,72.7-14.4,72.7-13.7L149.5,132.4
					L149.5,132.4z"/>
			</g>
		</g>
	</g>
	<path class="st5" d="M149.5,156.5c0,0.7-0.5,1.2-1.2,1.2H78c-0.7,0-1.2-0.5-1.2-1.2v-13.7c0-0.7,0.5-1.2,1.2-1.2h70.3
		c0.7,0,1.2,0.5,1.2,1.2V156.5z"/>
	<g class="st6">
		<g>
			<g>
				<defs>
					<rect id="SVGID_99_" x="76.8" y="142.8" width="72.7" height="14.9"/>
				</defs>
				<clipPath id="SVGID_100_">
					<use xlink:href="#SVGID_99_"  style="overflow:visible;"/>
				</clipPath>
				<path class="st114" d="M149.5,156.5c0,0.7-0.5,1.2-1.2,1.2H78c-0.7,0-1.2-0.5-1.2-1.2c0,0,72.7-14.4,72.7-13.7L149.5,156.5
					L149.5,156.5z"/>
			</g>
		</g>
	</g>
	<path class="st5" d="M149.5,180.5c0,0.7-0.5,1.2-1.2,1.2H78c-0.7,0-1.2-0.5-1.2-1.2v-13.7c0-0.7,0.5-1.2,1.2-1.2h70.3
		c0.7,0,1.2,0.5,1.2,1.2V180.5z"/>
	<g class="st6">
		<g>
			<g>
				<defs>
					<rect id="SVGID_101_" x="76.8" y="166.8" width="72.7" height="14.9"/>
				</defs>
				<clipPath id="SVGID_102_">
					<use xlink:href="#SVGID_101_"  style="overflow:visible;"/>
				</clipPath>
				<path class="st115" d="M149.5,180.5c0,0.7-0.5,1.2-1.2,1.2H78c-0.7,0-1.2-0.5-1.2-1.2c0,0,72.7-14.4,72.7-13.7L149.5,180.5
					L149.5,180.5z"/>
			</g>
		</g>
	</g>
	<path class="st5" d="M92.7,202c0,0.7-0.5,1.2-1.2,1.2H78c-0.7,0-1.2-0.5-1.2-1.2v-13.7c0-0.7,0.5-1.2,1.2-1.2h13.5
		c0.7,0,1.2,0.5,1.2,1.2L92.7,202L92.7,202z"/>
	<g class="st6">
		<g>
			<g>
				<defs>
					<rect id="SVGID_103_" x="76.8" y="188.3" width="15.9" height="14.9"/>
				</defs>
				<clipPath id="SVGID_104_">
					<use xlink:href="#SVGID_103_"  style="overflow:visible;"/>
				</clipPath>
				<path class="st116" d="M92.7,202c0,0.7-0.5,1.2-1.2,1.2H78c-0.7,0-1.2-0.5-1.2-1.2c0,0,15.9-14.4,15.9-13.7L92.7,202L92.7,202z"
					/>
			</g>
		</g>
	</g>
	<path class="st5" d="M149.5,202c0,0.7-0.5,1.2-1.2,1.2h-13.5c-0.7,0-1.2-0.5-1.2-1.2v-13.7c0-0.7,0.5-1.2,1.2-1.2h13.5
		c0.7,0,1.2,0.5,1.2,1.2V202z"/>
	<g class="st6">
		<g>
			<g>
				<defs>
					<rect id="SVGID_105_" x="133.5" y="188.3" width="15.9" height="14.9"/>
				</defs>
				<clipPath id="SVGID_106_">
					<use xlink:href="#SVGID_105_"  style="overflow:visible;"/>
				</clipPath>
				<path class="st117" d="M149.5,202c0,0.7-0.5,1.2-1.2,1.2h-13.5c-0.7,0-1.2-0.5-1.2-1.2c0,0,15.9-14.4,15.9-13.7V202z"/>
			</g>
		</g>
	</g>
	<path class="st1" d="M161,83.8c0,0.7-0.5,1.2-1.2,1.2H66.5c-0.7,0-1.2-0.5-1.2-1.2v-5.5c0-0.7,0.5-1.2,1.2-1.2h93.3
		c0.7,0,1.2,0.5,1.2,1.2V83.8z"/>
</g>
<g id="Capa_7" class="st0">
	<path class="st118" d="M143.2,127.8c-2.4,0.7-3.7,3.1-3,5.5c0.7,2.4,3.1,3.7,5.5,3c2.4-0.7,3.7-3.1,3-5.5
		C148,128.4,145.5,127.1,143.2,127.8"/>
	<path class="st38" d="M158.7,170.9l-8.7-23.6c-1.2-3.1-4.2-5.3-7.5-5.3h-4.4v-4.4h4.4c5.2,0,9.9,3.3,11.7,8.1l8.7,23.6L158.7,170.9
		z"/>
	<path class="st61" d="M157.3,167.2l-7.3-19.9c-1.2-3.1-4.2-5.3-7.5-5.3h-4.4v-4.4h4.4c5.2,0,9.9,3.3,11.7,8.1l7.3,19.9L157.3,167.2
		z"/>
	<path class="st38" d="M158.8,170.9c0-2.3,1.9-4.2,4.2-4.2s4.2,1.9,4.2,4.2H158.8z"/>
	<path class="st38" d="M118.1,170.9l-4.1-1.5l8.7-23.6c1.8-4.9,6.5-8.1,11.7-8.1h4.4v4.4h-4.4c-3.4,0-6.4,2.1-7.5,5.3L118.1,170.9z"
		/>
	<path class="st61" d="M119.5,167.2l-4.1-1.5l7.3-19.9c1.8-4.9,6.5-8.1,11.7-8.1h4.4v4.4h-4.4c-3.4,0-6.4,2.1-7.5,5.3L119.5,167.2z"
		/>
	<path class="st119" d="M137,133.8h3c5.5,0,10-4.5,10-10v-7c0-6.3-5.1-11.5-11.5-11.5c-6.3,0-11.5,5.1-11.5,11.5v7
		C127,129.3,131.5,133.8,137,133.8"/>
	<path class="st38" d="M135.1,226.2L135.1,226.2c1.5,0,2.7-1.2,2.7-2.7v-49.3h-5.5v49.3C132.4,225,133.6,226.2,135.1,226.2"/>
	<path class="st38" d="M141.8,226.2L141.8,226.2c1.5,0,2.7-1.2,2.7-2.7v-49.3h-5.5v49.3C139.1,225,140.3,226.2,141.8,226.2"/>
	<path class="st43" d="M135.1,224.9c1.5,0,2.7-1.2,2.7-2.7v1.4c0,1.5-1.2,2.7-2.7,2.7c-1.5,0-2.7-1.2-2.7-2.7v-1.4
		C132.4,223.6,133.6,224.9,135.1,224.9"/>
	<path class="st43" d="M141.8,224.9c1.5,0,2.7-1.2,2.7-2.7v1.4c0,1.5-1.2,2.7-2.7,2.7c-1.5,0-2.7-1.2-2.7-2.7v-1.4
		C139.1,223.6,140.3,224.9,141.8,224.9"/>
	<path class="st38" d="M127.6,120c1.1,0,2,0.9,2,2c0,1.1-0.9,2-2,2c-1.1,0-2-0.9-2-2C125.6,120.8,126.5,120,127.6,120"/>
	<path class="st45" d="M127.6,121c0.5,0,1,0.4,1,1c0,0.5-0.4,1-1,1c-0.5,0-1-0.4-1-1C126.7,121.4,127.1,121,127.6,121"/>
	<path class="st38" d="M149.3,120c1.1,0,2,0.9,2,2c0,1.1-0.9,2-2,2s-2-0.9-2-2C147.4,120.8,148.2,120,149.3,120"/>
	<path class="st45" d="M149.3,121c0.5,0,1,0.4,1,1c0,0.5-0.4,1-1,1s-1-0.4-1-1C148.4,121.4,148.8,121,149.3,121"/>
	<path class="st38" d="M138.5,133.4L138.5,133.4c6,0,10.9-4.9,10.9-10.9v-5.3c0-6-4.9-10.9-10.9-10.9c-6,0-10.9,4.9-10.9,10.9v5.3
		C127.6,128.5,132.5,133.4,138.5,133.4"/>
	<path class="st47" d="M130.7,178.1c1.4,1.2,3.1,1.9,5.1,1.9h5.4c1.9,0,3.7-0.7,5.1-1.9c2.1-1.8,3-4.7,2.5-7.4
		c-0.7-3.7-1.2-7.3-1.4-10.8c-0.3-4.6-0.2-9,0.3-13.4c0.1-0.9,0.1-1.8-0.1-2.7c-1-4.1-4.7-7.2-9.1-7.2s-8.1,3-9.1,7.2
		c-0.2,0.9-0.2,1.8-0.1,2.7c0.5,4.4,0.6,8.9,0.3,13.4c-0.2,2.6-0.5,5.2-0.9,7.9c-0.2,1-0.3,1.9-0.5,2.9
		C127.7,173.4,128.6,176.3,130.7,178.1"/>
	<path class="st43" d="M128.1,170.8h20.7c1.6,9.8-2.3,31-2.3,31c-5.3,1.4-10.9,1.4-16.2,0C130.4,201.8,126.5,180.6,128.1,170.8"/>
	<rect x="138" y="139.3" class="st61" width="0.9" height="6.3"/>
	<path class="st43" d="M130.6,178.3c1.4,1.2,3.2,1.9,5.1,1.9h5.4c2,0,3.8-0.7,5.1-1.9c1.9-1.7,2.9-4.2,2.6-6.7c0,0,0,0,0,0
		c0-0.3-0.1-0.5-0.1-0.8c-0.5-2.5-0.8-4.9-1.1-7.3c-0.1-1.2-0.2-2.4-0.3-3.6h-17.9c-0.1,1.2-0.2,2.4-0.3,3.6
		c-0.2,1.5-0.4,2.9-0.6,4.4c-0.2,1-0.3,2-0.5,3c-0.1,0.3-0.1,0.5-0.1,0.8c0,0,0,0,0,0C127.8,174.1,128.7,176.7,130.6,178.3"/>
	<path class="st39" d="M128.3,168.3c1.2-7.6,1.4-15,0.6-22.2c-0.1-0.9-0.1-1.9,0.1-2.8c0.2-1,0.6-2,1.2-2.9v-2.9l4.1-1.1
		c0,0,1.6-0.2,1.9-0.3c0,0.1,0,0.2,0,0.3c0,2.6,0.1,8.4,2.2,8.4s2.3-5.8,2.2-8.4c0-0.1,0-0.2,0-0.3c0.4,0.1,1.9,0.3,1.9,0.3l4.1,1.2
		v2.8c0.5,0.9,0.9,1.8,1.2,2.9c0.2,0.9,0.2,1.9,0.1,2.8c-0.9,7.2-0.6,14.6,0.6,22.2C142.2,171.4,134.7,171.4,128.3,168.3
		L128.3,168.3z"/>
	<path class="st120" d="M135.2,136.8L135.2,136.8c0,0.3,0.4,8.8,3.3,8.8c2.9,0,3-8.8,3-8.8h-0.8c0,2.5-0.1,8.2-2.2,8.2
		c-2.1,0-2.2-5.6-2.2-8.2L135.2,136.8L135.2,136.8z"/>
	<path class="st61" d="M138.5,139.3l-2.5,1.9c-0.4,0.3-0.9,0.1-1-0.3l-1.1-4l4.6-0.6l4.6,0.6l-1.1,4c-0.1,0.4-0.6,0.6-1,0.3
		L138.5,139.3z"/>
	<path class="st38" d="M138.5,139.3L138.5,139.3c1.2,0,2.1-1,2.1-2.1v-4h-4.3v4C136.3,138.4,137.3,139.3,138.5,139.3"/>
	<path class="st119" d="M145.7,108.5c0,0-4.8,10.5-18.4,10.5c0,0-1-13.1,11.2-13.1C138.5,105.9,141.8,105.6,145.7,108.5"/>
	<path class="st119" d="M141.5,108.5c0,0,5.8,2.8,8.1,11c0,0,1.1-8.8-4.8-11.9L141.5,108.5z"/>
	<rect x="141.4" y="145.5" class="st61" width="5.7" height="3.5"/>
	<rect x="143.9" y="144.9" class="st48" width="0.8" height="1.3"/>
	<path class="st38" d="M118.1,170.9c0-2.3-1.9-4.2-4.2-4.2s-4.2,1.9-4.2,4.2H118.1z"/>
	<rect x="61" y="175.5" class="st52" width="111.1" height="50.9"/>
	<rect x="61.1" y="185.9" class="st39" width="110.8" height="29.4"/>
	<rect x="61.2" y="195.3" class="st47" width="110.6" height="10.6"/>
	<rect x="52.9" y="170.8" class="st48" width="121.9" height="4.7"/>
	<rect x="52.9" y="196.6" class="st121" width="2.9" height="29.8"/>
	<rect x="78.7" y="196.6" class="st121" width="2.9" height="29.8"/>
	<path class="st44" d="M50.3,196.6h35.2c1.5,0,2.7-1.2,2.7-2.7c0-1.5-1.2-2.7-2.7-2.7H50.3V196.6z"/>
	<path class="st44" d="M57.7,184.8v-29c0-1.3-1-2.3-2.3-2.3h-0.8c-1.3,0-2.3,1-2.3,2.3v29H57.7z"/>
	<path class="st48" d="M52.9,163L52.9,163v37.1c-1.9,0-3.5-1.6-3.5-3.5v-30.1C49.4,164.6,51,163,52.9,163"/>
	<path class="st48" d="M49.4,196.6L49.4,196.6h35.3c0,1.9-1.6,3.5-3.5,3.5H52.9C51,200.1,49.4,198.5,49.4,196.6"/>
	<g class="st122">
		<g>
			<g>
				<defs>
					<rect id="SVGID_107_" x="83.3" y="89.9" width="90.6" height="81"/>
				</defs>
				<clipPath id="SVGID_108_">
					<use xlink:href="#SVGID_107_"  style="overflow:visible;"/>
				</clipPath>
				<rect x="83.3" y="89.9" class="st123" width="90.6" height="81"/>
			</g>
		</g>
	</g>
	<path class="st124" d="M77.1,127.6c0,0-1.9,17.7-1.3,20.4c0,0-14.3-2-18.7,0l-1.3-16.8l1.3-8l9.7-4.9l5.8,2.3L77.1,127.6z"/>
	<path class="st38" d="M80.1,153.3c-0.2,0-0.5,0-0.7,0l-14.2-1c-1.2-0.1-2.1-1.1-2-2.4c0.1-1.2,1.1-2.1,2.4-2l14.2,1
		c1.6,0.1,3.2-0.6,4.2-1.9l7.8-10.6c0.7-1,2.1-1.2,3.1-0.5c1,0.7,1.2,2.1,0.5,3.1l-7.9,10.6C85.7,151.9,83,153.3,80.1,153.3"/>
	
		<rect x="69" y="144.6" transform="matrix(7.320126e-02 -0.9973 0.9973 7.320126e-02 -84.0286 210.4096)" class="st125" width="4.4" height="11.6"/>
	<path class="st126" d="M97.1,226.1l-4.6-28.5c-0.6-3.8-3.8-6.6-7.7-6.6H60.3v-5.9h24.5c6.7,0,12.4,4.8,13.5,11.5l4.6,28.5
		L97.1,226.1z"/>
	<path class="st38" d="M52.9,126.9c-0.1,0.6-0.1,1.3-0.1,1.9L53,132l0.1,2.8c0.3,6.7,6,11.9,12.7,11.5c6.7-0.3,11.9-6,11.5-12.7
		l-0.3-6c0-0.2,0-0.5-0.1-0.7c-0.3-2.6-1.4-4.9-3-6.7c-2.4-2.7-5.9-4.3-9.7-4.1c-3.5,0.2-6.6,1.8-8.7,4.4
		C54.1,122.2,53.2,124.5,52.9,126.9"/>
	<path class="st127" d="M65.4,147L65.4,147c3.9,0,7,3.1,7,7v22.9c0,7.8-6.3,7.3-14,7.3v6.7v-37C58.4,150.1,61.5,147,65.4,147"/>
	<path class="st38" d="M65.4,150.1L65.4,150.1c1.2,0,2.1-1,2.1-2.1v-4h-4.3v4C63.2,149.2,64.2,150.1,65.4,150.1"/>
	<rect x="58.4" y="173.3" class="st41" width="14" height="4.2"/>
	<path class="st40" d="M95.7,219.2v7.2h13.7c0-1.9-0.7-3.5-1.9-4.8c-0.4-0.5-0.9-0.9-1.4-1.2c-1.1-0.7-2.5-1.2-3.9-1.2H95.7z"/>
	<path class="st128" d="M95.8,224.8h13.4c0.5,0,0.8,0.4,0.8,0.8s-0.4,0.8-0.8,0.8H95.8c-0.5,0-0.8-0.4-0.8-0.8
		S95.4,224.8,95.8,224.8"/>
	<path class="st128" d="M103.3,225.2l1.6,0.9l2.6-4.6c-0.4-0.5-0.9-0.9-1.4-1.2L103.3,225.2z"/>
	<polygon class="st128" points="95.7,220.8 95.7,223.2 99.2,226.3 100.4,225 	"/>
	<path class="st129" d="M62,191.2h10.4v-14.4h-14l-1.3,8.8C56.7,188.6,59,191.2,62,191.2"/>
	<path class="st124" d="M72.4,118.6c0,0-9.4,11.4-19.4,12.5c0,0-2.2-13.3,10.4-15.2C69.2,114.9,72.4,118.6,72.4,118.6"/>
	<path class="st124" d="M67.8,120.6c0,0,5.5,0.9,9.3,8.5c0,0,1.8-11.1-11.8-13.4L67.8,120.6z"/>
	<path class="st130" d="M79.7,173.5H86l0.9,9.4c0.1,1.4-0.9,2.6-2.3,2.6h-3.5c-1.4,0-2.5-1.2-2.3-2.6L79.7,173.5z"/>
	<path class="st131" d="M82.8,184.4L82.8,184.4c0.6,0,1.1-0.5,1-1l-0.7-9.9h-0.5l-0.7,9.9C81.8,183.9,82.2,184.4,82.8,184.4"/>
	<path class="st38" d="M84.7,176.4H73.1c-5,0-9.3-3.4-10.6-8.2l-3.7-14.3c-0.3-1.2,0.4-2.4,1.6-2.7c1.2-0.3,2.4,0.4,2.7,1.6
		l3.7,14.3c0.7,2.9,3.3,4.9,6.3,4.9h11.6c1.2,0,2.2,1,2.2,2.2C86.9,175.4,85.9,176.4,84.7,176.4"/>
	<path class="st38" d="M63.5,165.3c-1,0-1.9-0.7-2.1-1.6l-2.5-9.8c-0.3-1.2,0.4-2.4,1.6-2.7c1.2-0.3,2.4,0.4,2.7,1.6l2.5,9.8
		c0.3,1.2-0.4,2.4-1.6,2.7C63.9,165.3,63.7,165.3,63.5,165.3"/>
	<path class="st132" d="M61.4,165.3l5-1.3L62.9,151c-0.4-1.4-1.8-2.2-3.2-1.8c-1.4,0.4-2.2,1.8-1.8,3.2L61.4,165.3z"/>
	<path class="st38" d="M84.7,171.6c2-0.2,3.8,1.3,4,3.3c0.2,2-1.3,3.8-3.3,4c-2,0.2-3.8-1.3-4-3.3S82.7,171.8,84.7,171.6"/>
	<path class="st38" d="M94.5,134c2-0.2,3.8,1.3,4,3.3c0.2,2-1.3,3.8-3.3,4c-2,0.2-3.8-1.3-4-3.3S92.5,134.2,94.5,134"/>
	<path class="st129" d="M89.9,221.1l-5.7-1.2l5.2-24.2c0.2-1.2,0-2.4-0.8-3.3c-0.7-0.8-1.6-1.3-2.7-1.3h-24v-5.9h24
		c2.8,0,5.4,1.2,7.2,3.4c1.9,2.3,2.6,5.3,2,8.2L89.9,221.1z"/>
	<path class="st38" d="M83.9,219.6l-0.9,6.9h13.7c0-1.9-0.7-3.5-1.9-4.8c-0.4-0.5-0.9-0.9-1.4-1.2c-1.1-0.7-2.5-1.2-3.9-1.2
		L83.9,219.6z"/>
	<path class="st133" d="M83.2,224.9h13.4c0.5,0,0.8,0.4,0.8,0.8s-0.4,0.8-0.8,0.8H83.2c-0.5,0-0.8-0.4-0.8-0.8
		S82.7,224.9,83.2,224.9"/>
	<path class="st133" d="M90.6,225.3l1.6,0.9l2.6-4.6c-0.4-0.5-0.9-0.9-1.4-1.2L90.6,225.3z"/>
	<polygon class="st133" points="83.7,221.4 83.4,223.6 86.6,226.4 87.8,225 	"/>
	<path class="st124" d="M53.3,124.6c0,0-2.8,12.2-1,24.2c0,0,4.8,3.5,10.3,1.9c0,0-5-12.4-3.9-22.6L53.3,124.6z"/>
	<rect x="80.2" y="87.7" class="st39" width="94.7" height="2.3"/>
</g>
<rect x="126" y="112.8" class="st134" width="138.7" height="248.2"/>
<g>
	<g>
		<rect x="68.1" y="90.4" class="st135" width="90.3" height="241.7"/>
	</g>
	<g>
		<path class="st136" d="M59.6,90.4c-1.7,0-3,1.3-3,3v238.7h11.5V90.4H59.6z"/>
	</g>
	<g>
		<path class="st136" d="M167,90.4h-8.5v241.7H170V93.4C170,91.7,168.6,90.4,167,90.4z"/>
	</g>
	<g>
		<g>
			<polygon class="st137" points="76.5,130.2 68.1,122.6 158.4,122.6 150.1,130.2 			"/>
		</g>
		<g>
			<polygon class="st138" points="68.1,122.6 68.1,207.5 73.1,207.5 73.2,193.3 76.5,130.2 			"/>
		</g>
		<g>
			<polygon class="st138" points="158.4,122.6 158.4,207.5 153.4,207.5 153.4,193.3 150.1,130.2 			"/>
		</g>
	</g>
	<polygon class="st139" points="153.4,193.3 73.2,193.3 76.5,130.2 150.1,130.2 	"/>
	<g>
		<g>
			<path class="st140" d="M144,161.9h2.4c0.5,0,0.8-0.4,0.8-0.9l-0.1-2.6c0-0.4-0.4-0.8-0.8-0.8h-2.4c-0.5,0-0.8,0.4-0.8,0.9
				l0.1,2.6C143.2,161.6,143.6,161.9,144,161.9z"/>
			<path class="st140" d="M144.2,167.8h2.4c0.5,0,0.8-0.4,0.8-0.9l-0.1-2.6c0-0.4-0.4-0.8-0.8-0.8h-2.4c-0.5,0-0.8,0.4-0.8,0.9
				l0.1,2.6C143.4,167.5,143.8,167.8,144.2,167.8z"/>
			<path class="st140" d="M144.5,173.8h2.5c0.5,0,0.8-0.4,0.8-0.9l-0.1-2.7c0-0.4-0.4-0.8-0.8-0.8h-2.5c-0.5,0-0.8,0.4-0.8,0.9
				l0.1,2.7C143.7,173.4,144,173.8,144.5,173.8z"/>
			<path class="st140" d="M147.9,176.2c0-0.4-0.4-0.8-0.8-0.8h-2.5c-0.5,0-0.8,0.4-0.8,0.9l0.1,2.8c0,0.4,0.4,0.8,0.8,0.8h2.5
				c0.5,0,0.8-0.4,0.8-0.9L147.9,176.2z"/>
		</g>
	</g>
	<g>
		<g>
			<path class="st141" d="M82.6,157.7h-2.4c-0.4,0-0.8,0.3-0.8,0.8l-0.1,2.6c0,0.5,0.4,0.9,0.8,0.9h2.4c0.4,0,0.8-0.3,0.8-0.8
				l0.1-2.6C83.4,158.1,83,157.7,82.6,157.7z"/>
			<path class="st141" d="M82.3,163.5h-2.4c-0.4,0-0.8,0.3-0.8,0.8l-0.1,2.6c0,0.5,0.4,0.9,0.8,0.9h2.4c0.4,0,0.8-0.3,0.8-0.8
				l0.1-2.6C83.2,163.9,82.8,163.5,82.3,163.5z"/>
			<path class="st141" d="M82.1,169.4h-2.4c-0.4,0-0.8,0.3-0.8,0.8l-0.1,2.7c0,0.5,0.4,0.9,0.8,0.9H82c0.4,0,0.8-0.3,0.8-0.8
				l0.1-2.7C82.9,169.8,82.6,169.4,82.1,169.4z"/>
			<path class="st141" d="M81.8,175.4h-2.5c-0.4,0-0.8,0.3-0.8,0.8l-0.1,2.8c0,0.5,0.4,0.9,0.8,0.9h2.5c0.4,0,0.8-0.3,0.8-0.8
				l0.1-2.8C82.7,175.8,82.3,175.4,81.8,175.4z"/>
		</g>
	</g>
	<g>
		<polygon class="st142" points="140.9,179.8 85.7,179.8 87.3,137.7 139.3,137.7 		"/>
		<polygon class="st143" points="86.8,150 86.7,154.2 139.6,146.3 139.5,142.5 		"/>
		<polygon class="st143" points="86.5,159.1 86.1,169.4 140.2,161.3 139.8,151.5 		"/>
	</g>
	<polygon class="st136" points="77.9,185 77.7,189 90.6,189 90.7,185 	"/>
	<rect x="78.9" y="186.5" class="st144" width="10.5" height="1"/>
	<polygon class="st136" points="143.8,189.6 127.7,189.6 127.6,184 143.6,184 	"/>
	<polygon class="st144" points="142.8,188.6 128.6,188.6 128.5,187.1 142.8,187.1 	"/>
	<g>
		<g>
			<polygon class="st145" points="153.4,193.3 73.2,193.3 68.1,204 158.4,204 156.3,199.5 			"/>
			<g>
				<g>
					<path class="st146" d="M103.1,194.5h-3.3c-0.3,0-0.5,0.1-0.5,0.2l-0.2,1.2c0,0.1,0.2,0.2,0.5,0.2h3.3c0.3,0,0.5-0.1,0.5-0.2
						l0.1-1.2C103.6,194.6,103.4,194.5,103.1,194.5z"/>
					<path class="st146" d="M108.6,194.5h-3.3c-0.3,0-0.5,0.1-0.5,0.2l-0.1,1.2c0,0.1,0.2,0.2,0.5,0.2h3.3c0.3,0,0.5-0.1,0.5-0.2
						l0.1-1.2C109.1,194.6,108.9,194.5,108.6,194.5z"/>
					<path class="st146" d="M114.1,194.5h-3.3c-0.3,0-0.5,0.1-0.5,0.2l0,1.2c0,0.1,0.2,0.2,0.5,0.2h3.3c0.3,0,0.5-0.1,0.5-0.2l0-1.2
						C114.6,194.6,114.4,194.5,114.1,194.5z"/>
					<path class="st146" d="M125.7,194.5h-7.1c-0.8,0-1.5,0.2-1.5,0.5l0,0.5c0,0.3,0.7,0.5,1.5,0.5h7.2c0.8,0,1.5-0.2,1.4-0.5
						l-0.1-0.5C127.2,194.8,126.5,194.5,125.7,194.5z"/>
				</g>
				<g>
					<path class="st146" d="M102.9,196.5h-3.3c-0.3,0-0.5,0.1-0.5,0.2l-0.2,1.2c0,0.1,0.2,0.2,0.5,0.2h3.4c0.3,0,0.5-0.1,0.5-0.2
						l0.1-1.2C103.4,196.6,103.2,196.5,102.9,196.5z"/>
					<path class="st146" d="M108.5,196.5h-3.3c-0.3,0-0.5,0.1-0.5,0.2l-0.1,1.2c0,0.1,0.2,0.2,0.5,0.2h3.4c0.3,0,0.5-0.1,0.5-0.2
						l0.1-1.2C109,196.6,108.8,196.5,108.5,196.5z"/>
					<path class="st146" d="M114.1,196.5h-3.3c-0.3,0-0.5,0.1-0.5,0.2l0,1.2c0,0.1,0.2,0.2,0.5,0.2h3.4c0.3,0,0.5-0.1,0.5-0.2l0-1.2
						C114.7,196.6,114.4,196.5,114.1,196.5z"/>
					<path class="st146" d="M126,196.5h-7.3c-0.8,0-1.5,0.2-1.5,0.6l0,0.5c0,0.3,0.7,0.6,1.6,0.6h7.4c0.9,0,1.5-0.3,1.4-0.6
						l-0.1-0.5C127.6,196.8,126.8,196.5,126,196.5z"/>
				</g>
				<g>
					<path class="st146" d="M102.6,198.6h-3.4c-0.3,0-0.5,0.1-0.6,0.2l-0.2,1.3c0,0.1,0.2,0.2,0.5,0.2h3.5c0.3,0,0.5-0.1,0.6-0.2
						l0.1-1.3C103.2,198.7,102.9,198.6,102.6,198.6z"/>
					<path class="st146" d="M108.4,198.6H105c-0.3,0-0.5,0.1-0.5,0.2l-0.1,1.3c0,0.1,0.2,0.2,0.5,0.2h3.5c0.3,0,0.5-0.1,0.5-0.2
						l0.1-1.3C108.9,198.7,108.7,198.6,108.4,198.6z"/>
					<path class="st146" d="M114.2,198.6h-3.4c-0.3,0-0.5,0.1-0.5,0.2l0,1.3c0,0.1,0.2,0.2,0.5,0.2h3.5c0.3,0,0.5-0.1,0.5-0.2l0-1.3
						C114.7,198.7,114.5,198.6,114.2,198.6z"/>
					<path class="st146" d="M126.3,198.6h-7.5c-0.9,0-1.5,0.3-1.5,0.6l0,0.5c0,0.3,0.7,0.6,1.6,0.6h7.6c0.9,0,1.5-0.3,1.5-0.6
						l-0.1-0.5C127.9,198.9,127.2,198.6,126.3,198.6z"/>
				</g>
				<g>
					<path class="st146" d="M102.4,200.8h-3.5c-0.3,0-0.6,0.1-0.6,0.2l-0.2,1.4c0,0.1,0.2,0.2,0.5,0.2h3.6c0.3,0,0.6-0.1,0.6-0.2
						l0.2-1.4C102.9,200.9,102.7,200.8,102.4,200.8z"/>
					<path class="st146" d="M108.3,200.8h-3.5c-0.3,0-0.5,0.1-0.6,0.2l-0.1,1.4c0,0.1,0.2,0.2,0.5,0.2h3.6c0.3,0,0.6-0.1,0.6-0.2
						l0.1-1.4C108.8,200.9,108.6,200.8,108.3,200.8z"/>
					<path class="st146" d="M114.2,200.8h-3.5c-0.3,0-0.5,0.1-0.5,0.2l0,1.4c0,0.1,0.2,0.2,0.5,0.2h3.6c0.3,0,0.5-0.1,0.5-0.2l0-1.4
						C114.7,200.9,114.5,200.8,114.2,200.8z"/>
					<path class="st146" d="M126.6,200.8H119c-0.9,0-1.6,0.3-1.6,0.6l0,0.5c0,0.3,0.8,0.6,1.6,0.6h7.8c0.9,0,1.6-0.3,1.5-0.6
						l-0.1-0.5C128.3,201.1,127.5,200.8,126.6,200.8z"/>
				</g>
			</g>
		</g>
		<rect x="68.1" y="204" class="st144" width="90.3" height="3.4"/>
	</g>
	<rect x="68.1" y="207.5" class="st139" width="90.3" height="22.8"/>
	<g>
		<rect x="96.7" y="213.8" class="st141" width="33.1" height="10.2"/>
		
			<rect x="98.3" y="218.7" transform="matrix(-1 -1.224647e-16 1.224647e-16 -1 226.5613 441.102)" class="st147" width="30" height="3.7"/>
	</g>
	<g>
		<rect x="68.1" y="230.3" class="st148" width="1.8" height="101.8"/>
		<rect x="156.7" y="230.3" class="st148" width="1.8" height="101.8"/>
		<g>
			<rect x="83.5" y="250.9" class="st149" width="59.6" height="81.2"/>
			<path class="st148" d="M116.8,256.8c0,1.9-1.6,3.5-3.5,3.5c-1.9,0-3.5-1.6-3.5-3.5c0-1.9,1.6-3.5,3.5-3.5
				C115.2,253.3,116.8,254.9,116.8,256.8z"/>
		</g>
	</g>
	<g>
		<g>
			<path class="st136" d="M401.9,97.9H294.5c-1.8,0-3.2,1.4-3.2,3.2v238.3h113.9V101.1C405.1,99.4,403.7,97.9,401.9,97.9z
				 M323.5,104.3h49.7v19.3h-49.7V104.3z M393.4,237.7h-90.3v-26.3l5.1-10.7l3.3-63.1h73.6l3.3,63.1l5.1,10.7V237.7z"/>
		</g>
	</g>
	<rect x="88.4" y="96.8" class="st136" width="49.8" height="19.3"/>
	<g>
		<g>
			<path class="st142" d="M99.2,110.3h-3.6l4.1-11h3.4l4.1,11h-3.6l-0.5-1.6h-3.4L99.2,110.3z M102.4,106.5l-1-3.3l-1,3.3H102.4z"/>
			<path class="st142" d="M106.7,102.3v-3h9.6v3h-3.1v8h-3.4v-8H106.7z"/>
			<path class="st142" d="M120.9,103L120.9,103v0.8v6.4h-3.1v-11h4.7l1.8,6.2l0.1,0.8h0.1l0.1-0.8l1.8-6.2h4.7v11h-3.1v-6.4l0.1-0.8
				l-0.1,0l-2.2,7.2h-2.5L120.9,103z"/>
		</g>
		<g>
			<rect x="95.6" y="111.8" class="st142" width="35.4" height="0.7"/>
		</g>
	</g>
</g>
</svg>
