<?xml version="1.0" encoding="utf-8"?>
<!-- Generator: Adobe Illustrator 16.0.0, SVG Export Plug-In . SVG Version: 6.00 Build 0)  -->
<!DOCTYPE svg PUBLIC "-//W3C//DTD SVG 1.1//EN" "http://www.w3.org/Graphics/SVG/1.1/DTD/svg11.dtd">
<svg version="1.1" xmlns="http://www.w3.org/2000/svg" xmlns:xlink="http://www.w3.org/1999/xlink" x="0px" y="0px" width="200px"
	 height="200px" viewBox="0 0 200 200" enable-background="new 0 0 200 200" xml:space="preserve">
<g id="Capa_1" display="none">
	
		<rect x="12.641" y="6.838" display="inline" fill="none" stroke="#405E5D" stroke-width="5.296" stroke-miterlimit="10" width="174.762" height="184.797"/>
	<path display="inline" fill="#405E5D" d="M168.843,57.625H31.374V23.767h137.469V57.625z M35.044,53.953H165.17V27.438H35.044
		V53.953z"/>
	<polygon display="inline" fill="#62AAA7" points="60.785,34.102 55.921,40.503 55.921,40.604 63.651,39.581 63.651,43.063 
		55.921,42.14 55.921,42.242 60.836,48.387 57.611,50.231 54.537,43.063 54.436,43.063 51.107,50.281 48.188,48.438 53.052,42.191 
		53.052,42.089 45.476,43.063 45.476,39.581 53.001,40.552 53.001,40.45 48.188,34.204 51.312,32.413 54.485,39.529 54.589,39.529 
		57.713,32.361 	"/>
	<polygon display="inline" fill="#62AAA7" points="90.901,34.102 86.037,40.503 86.037,40.604 93.768,39.581 93.768,43.063 
		86.037,42.14 86.037,42.242 90.953,48.387 87.728,50.231 84.654,43.063 84.551,43.063 81.225,50.281 78.304,48.438 83.167,42.191 
		83.167,42.089 75.592,43.063 75.592,39.581 83.117,40.552 83.117,40.45 78.304,34.204 81.428,32.413 84.602,39.529 84.705,39.529 
		87.829,32.361 	"/>
	<polygon display="inline" fill="#62AAA7" points="121.017,34.102 116.152,40.503 116.152,40.604 123.885,39.581 123.885,43.063 
		116.152,42.14 116.152,42.242 121.068,48.387 117.844,50.231 114.771,43.063 114.668,43.063 111.34,50.281 108.421,48.438 
		113.286,42.191 113.286,42.089 105.708,43.063 105.708,39.581 113.235,40.552 113.235,40.45 108.421,34.204 111.545,32.413 
		114.721,39.529 114.821,39.529 117.946,32.361 	"/>
	<polygon display="inline" fill="#62AAA7" points="151.133,34.102 146.269,40.503 146.269,40.604 153.999,39.581 153.999,43.063 
		146.269,42.14 146.269,42.242 151.185,48.387 147.959,50.231 144.889,43.063 144.783,43.063 141.457,50.281 138.537,48.438 
		143.402,42.191 143.402,42.089 135.825,43.063 135.825,39.581 143.351,40.552 143.351,40.45 138.537,34.204 141.662,32.413 
		144.834,39.529 144.937,39.529 148.06,32.361 	"/>
	<rect x="38.564" y="70.045" display="inline" fill="#405E5D" width="31.308" height="18.896"/>
	<rect x="84.454" y="70.045" display="inline" fill="#405E5D" width="31.309" height="18.896"/>
	<rect x="130.345" y="70.045" display="inline" fill="#405E5D" width="31.307" height="18.896"/>
	<rect x="38.564" y="98.443" display="inline" fill="#405E5D" width="31.308" height="18.897"/>
	<rect x="84.454" y="98.443" display="inline" fill="#405E5D" width="31.309" height="18.897"/>
	<rect x="130.345" y="98.443" display="inline" fill="#405E5D" width="31.307" height="18.897"/>
	<rect x="38.564" y="126.845" display="inline" fill="#405E5D" width="31.308" height="18.896"/>
	<rect x="84.454" y="126.845" display="inline" fill="#405E5D" width="31.309" height="18.896"/>
	<rect x="84.454" y="155.244" display="inline" fill="#405E5D" width="31.309" height="18.896"/>
	<rect x="130.345" y="126.845" display="inline" fill="#405E5D" width="31.307" height="18.896"/>
</g>
<g id="Capa_2">
	<g>
		<defs>
			<path id="SVGID_1_" d="M5.188,100c0,52.423,42.497,94.92,94.919,94.92c52.425,0,94.921-42.497,94.921-94.92
				c0-52.421-42.496-94.919-94.921-94.919C47.685,5.081,5.188,47.579,5.188,100"/>
		</defs>
		<clipPath id="SVGID_2_">
			<use xlink:href="#SVGID_1_"  overflow="visible"/>
		</clipPath>
		<path clip-path="url(#SVGID_2_)" fill="#ECC9A4" d="M116.829,82.399c0,0-3.819,3.064-4.919,7.947
			c-1.098,4.881-0.729,23.488-0.729,23.488l-27.619-12.639c0,0,4.331-16.025,2.602-23.334c-1.729-7.311-2.602-14.441-2.602-14.441
			L116.829,82.399z"/>
		<path clip-path="url(#SVGID_2_)" fill="#ECC9A4" d="M120.195,25.025c3.596,1.151,6.556,3.059,7.803,6.765
			c0.662,1.966,1.587,4.567,1.694,6.806c0.257,5.475-1.312,10.715-1.256,13.287c0.061,2.804,2.553,5.199,4.725,7.301
			c2.17,2.104,2.572,3.863,0.76,5.551c-0.976,0.909-3.553,1.484-3.25,3.756c0.222,1.666,1.976,2.302-0.059,4.066
			c1.356,2.034,0.03,2.592-1.117,3.257c-0.688,0.398-2.039,0.546-1.411,2.471c2.071,6.354-1.437,8.578-12.51,6.322
			c-5.479-1.117-10.438-3.994-16.326-7.755c-6.672-4.262-15.686-13.432-15.686-13.432S98.197,17.987,120.195,25.025"/>
		<path clip-path="url(#SVGID_2_)" fill="#222328" d="M131.401,157.223c0.426-13.194-3.815-35.168-20.363-52.391
			c0,2.697-0.78,4.914-4.487,3.313c-5.225-2.256-16.25-12.259-21.363-14.129c-9.667,5.152-20.508,13.672-21.9,30.51
			c-0.462,5.596,1.447,15.597,3.772,26.325c4.012,2.068,16.379,9.849,19.043,28.282c3.19,22.066-1.372,31.588-4.805,45.397
			c-1.812,7.285-3.651,12.985-4.999,16.798c5.178,1.845,11.577,3.272,19.113,3.272c13.947,0,28.939-4.581,28.939-4.581
			c0.282-12.864-0.439-23.434,3.153-32.393C132.602,194.917,131.142,165.169,131.401,157.223"/>
		<path clip-path="url(#SVGID_2_)" fill="#222328" d="M86.104,179.134C83.439,160.7,71.072,152.92,67.06,150.852
			c3.698,17.067,8.453,35.99,6.426,42.036c-10.307,30.734-12.16,40.094-12.16,40.094s5.326,4.911,14.973,8.348
			c1.348-3.813,3.187-9.513,4.999-16.797C84.731,210.722,89.294,201.2,86.104,179.134"/>
		<path clip-path="url(#SVGID_2_)" fill="#222328" d="M124.103,40.086c1.813,0.099,4.136,1.276,2.594,2.09
			c-0.846,0.446-3.436-0.021-6.378,1.125c-3.021,1.176-7.295,4.621-7.295,4.621S116.501,39.672,124.103,40.086"/>
		<path clip-path="url(#SVGID_2_)" fill="#E0AF88" d="M115.574,84.605c0,0-9.073-2.677-12.56-5.415
			c-5.254-4.126-11.526-9.926-11.526-9.926s3.89,9.283,7.848,13.135c5.807,5.647,12.574,7.947,12.574,7.947
			S113.221,85.475,115.574,84.605"/>
		<path clip-path="url(#SVGID_2_)" fill="#222328" d="M94.451,178.097c0,0-10.762,25.646-14.035,29.817
			c-3.274,4.172-4.632,9.381-4.632,9.381l2.266,9.288c0,0,11.962-18.601,16.401-30.44C98.888,184.302,94.451,178.097,94.451,178.097
			"/>
		<path clip-path="url(#SVGID_2_)" fill="#ECC9A4" d="M73.318,157.802c0,0,3.161,19.097,3.028,23.627s-0.132,16.793,1.379,18.062
			c1.509,1.265,9.443,6.096,15.896,9.42c6.452,3.323,31.694,8.994,43.536,13.407c11.841,4.412,12.623,6.402,16.495,5.762
			c3.873-0.641,6.903-1.635,8.055-3.309c1.431-2.086,3.6-5.619,3.902-7.102c0.302-1.48-0.38-3.729-1.286-5.239
			c-0.905-1.51-3.786-3.879-5.66-5.029c-5.816-3.568-15.705-1.789-19.329-2.405c-3.624-0.614-32.953-17.632-33.712-17.993
			c-2.784-1.324-5.427-2.499-5.427-2.499l3.578-24.746L73.318,157.802z"/>
		<path clip-path="url(#SVGID_2_)" fill="#222328" d="M79.686,102.813c-9.79,5.113-13.159,16.103-13.783,35.646
			s1.157,21.627,1.157,21.627s10.99,3.745,18.663,3.368c7.671-0.378,20.712-3.362,20.712-3.362s0.267-24.824-3.832-35.134
			C98.506,114.647,88.976,97.96,79.686,102.813"/>
		<path clip-path="url(#SVGID_2_)" fill="#222328" d="M121.92,32.182c0,0-0.961,9.22-4.383,15.235s-7.286,8.163-7.286,8.163
			s1.791-3.797,2.772-7.658c1.017-3.998,1.055-5.771,1.055-5.771s-4.016,9.658-7.337,14.552c-3.322,4.895-7.2,8.032-7.2,8.032
			s4.363-8.684,5.01-11.727c1.268-5.959,1.618-9.011,1.618-9.011s-8.191,13.895-10.757,17.001
			c-2.564,3.104-5.584,9.526-6.188,12.356c-0.604,2.829-2.725,10.953-2.725,10.953S74.426,73.96,71.104,60.998
			c-3.322-12.963-0.677-18.692,4.5-29.114c6.721-13.523,15.885-15.196,15.885-15.196s5.835-7.248,24.086-3.218
			c7.809,1.726-1.206,5.695,1.813,7.81c3.02,2.114,10.569,3.322,10.569,3.322s-2.565,2.778-9.014,2.687
			c-3.432-0.048,13.702,5.557,13.702,5.557s3.088,5.023,2.182,9.232c-0.906,4.207-6.391,9.805-6.391,9.805s1.527-8.997-1.236-13.676
			C125.015,34.505,121.92,32.182,121.92,32.182"/>
		<path clip-path="url(#SVGID_2_)" fill="#222328" d="M117.109,53.23c0,0,2.485-3.078,4.454-4.064
			c2.156-1.081,3.827-1.092,3.827-1.092s-0.003,1.055-0.997,1.457C121.818,49.931,117.109,53.23,117.109,53.23"/>
		<path clip-path="url(#SVGID_2_)" fill="#ECC9A4" d="M101.683,54.986c0,0-3.549-5.567-6.948-5.077
			c-3.396,0.489-4.077,4.142-3.246,7.397c0.831,3.256,4.9,6.503,4.9,6.503L101.683,54.986z"/>
		<path clip-path="url(#SVGID_2_)" fill="#E0AF88" d="M98.643,56.432c0,0-2.388-5.296-4.333-4.645
			c-1.945,0.649-1.95,3.693-1.95,3.693s1.613-1.491,2.992-0.7c1.38,0.792,0.046,2.195-0.179,2.787
			c-0.723,1.919,1.834,3.078,1.834,3.078s-0.261-2.02-0.03-2.964C97.234,56.62,98.643,56.432,98.643,56.432"/>
		<path clip-path="url(#SVGID_2_)" fill="#222328" d="M94.451,61.988c0,0-0.848,3.754-1.099,6.694
			c-0.362,4.216-0.993,8.506-0.993,8.506s-1.192-6.14-0.717-10.344C91.998,63.699,94.451,61.988,94.451,61.988"/>
		<path clip-path="url(#SVGID_2_)" fill="#222328" d="M92.359,67.224c0,0-1.321,3.825-1.928,8.154
			c-0.604,4.328-0.202,10.085-0.202,10.085s-2.415-3.844-2.415-10.085c0-6.241,3.672-11.173,3.672-11.173L92.359,67.224z"/>
		<path clip-path="url(#SVGID_2_)" fill="#222328" d="M78.05,74.556c0.344,0.47,3.926,5.034,4.529,8.657
			c0.604,3.624,0.983,7.601,0.983,7.601s2.528-5.251,2.937-6.877C88.865,74.556,78.05,74.556,78.05,74.556"/>
		<g opacity="0.24" clip-path="url(#SVGID_2_)">
			<g>
				<defs>
					<rect id="SVGID_3_" x="92.279" y="45.633" width="37.112" height="25.579"/>
				</defs>
				<clipPath id="SVGID_4_">
					<use xlink:href="#SVGID_3_"  overflow="visible"/>
				</clipPath>
				<path clip-path="url(#SVGID_4_)" fill="#222328" d="M128.433,50.442c0.144,0,0.262,3.126,0.872,4.432
					c1.019,2.167-6.978,3.347-10.959,5.772c-6.649,4.047-12.859,9.166-25.986,10.565c0,0-0.964-12.297,4.065-16.337
					c5.028-4.04,16.646-7.841,19.148-8.846c2.504-1.003,5.736,0.075,8.069,1.331C125.979,48.615,128.433,50.442,128.433,50.442"/>
			</g>
		</g>
		<path clip-path="url(#SVGID_2_)" fill="#222328" d="M115.574,13.47c21.053,6.608,17.976,24.881,17.976,24.881
			c9.191,2.646,10.968,5.583,13.962,8.251c2.992,2.668,0,3.352,0,3.352c-14.082-4.481-18.908,0.697-18.908,0.697
			c-27.454-8.29-49.887,25.65-49.887,25.65s-4.519-25.621,3.727-32.984c8.247-7.361,3.988-20.112,7.644-21.549
			C93.743,20.332,115.574,13.47,115.574,13.47"/>
	</g>
</g>
<g id="Capa_3" display="none">
	<polygon display="inline" fill="#363636" points="190.613,169.462 10.181,169.462 17.53,27.424 183.264,27.424 	"/>
	<path display="inline" fill="#7F7F7F" d="M169.539,98.752h5.403c1.055,0,1.896-0.882,1.847-1.936l-0.273-5.781
		c-0.047-0.985-0.859-1.761-1.848-1.761h-5.369c-1.052,0-1.891,0.875-1.847,1.926l0.24,5.781
		C167.733,97.971,168.547,98.752,169.539,98.752"/>
	<path display="inline" fill="#7F7F7F" d="M170.091,111.967h5.477c1.054,0,1.897-0.88,1.847-1.937l-0.282-5.934
		c-0.045-0.986-0.859-1.762-1.846-1.762h-5.443c-1.051,0-1.89,0.875-1.847,1.926l0.248,5.936
		C168.283,111.187,169.098,111.967,170.091,111.967"/>
	<path display="inline" fill="#7F7F7F" d="M170.649,125.4h5.553c1.055,0,1.896-0.881,1.849-1.937l-0.29-6.094
		c-0.046-0.985-0.859-1.762-1.848-1.762h-5.517c-1.052,0-1.893,0.877-1.848,1.928l0.253,6.093
		C168.844,124.619,169.657,125.4,170.649,125.4"/>
	<path display="inline" fill="#7F7F7F" d="M178.399,130.864c-0.048-0.986-0.859-1.762-1.848-1.762h-5.594
		c-1.051,0-1.892,0.875-1.847,1.926l0.261,6.257c0.04,0.989,0.855,1.771,1.847,1.771h5.628c1.056,0,1.896-0.882,1.847-1.935
		L178.399,130.864z"/>
	<path display="inline" fill="#7F7F7F" d="M31.283,89.274h-5.34c-0.995,0-1.815,0.782-1.861,1.775l-0.271,5.752
		c-0.051,1.062,0.797,1.951,1.859,1.951h5.374c0.999,0,1.82-0.788,1.861-1.784l0.24-5.754
		C33.188,90.156,32.342,89.274,31.283,89.274"/>
	<path display="inline" fill="#7F7F7F" d="M30.739,102.335h-5.415c-0.995,0-1.814,0.781-1.86,1.775l-0.28,5.906
		c-0.05,1.063,0.798,1.95,1.86,1.95h5.448c0.999,0,1.82-0.788,1.863-1.784l0.246-5.908
		C32.644,103.216,31.798,102.335,30.739,102.335"/>
	<path display="inline" fill="#7F7F7F" d="M30.187,115.608h-5.489c-0.995,0-1.813,0.782-1.861,1.777l-0.286,6.063
		c-0.05,1.063,0.797,1.952,1.86,1.952h5.523c1,0,1.82-0.789,1.863-1.785l0.251-6.066C32.091,116.493,31.245,115.608,30.187,115.608"
		/>
	<path display="inline" fill="#7F7F7F" d="M29.625,129.103H24.06c-0.995,0-1.815,0.782-1.863,1.775l-0.294,6.227
		c-0.049,1.063,0.798,1.952,1.86,1.952h5.602c0.999,0,1.819-0.788,1.86-1.785l0.26-6.229
		C31.529,129.984,30.683,129.103,29.625,129.103"/>
	<polygon display="inline" fill="#F1F1F1" points="162.504,139.057 38.353,139.057 41.891,44.243 158.952,44.243 	"/>
	<polygon display="inline" fill="#FFFFFF" points="40.863,71.773 40.506,81.354 159.675,63.54 159.355,55.025 	"/>
	<polygon display="inline" fill="#FFFFFF" points="40.099,92.263 39.231,115.476 160.938,97.283 160.115,75.301 	"/>
	<polygon display="inline" fill="#7F7F7F" points="20.771,150.601 20.365,159.781 49.416,159.781 49.516,150.601 	"/>
	<rect x="23.099" y="154.043" display="inline" fill="#202020" width="23.684" height="2.296"/>
	<polygon display="inline" fill="#7F7F7F" points="169.038,161.086 132.759,161.086 132.622,148.52 168.599,148.52 	"/>
	<polygon display="inline" fill="#202020" points="166.896,158.809 134.8,158.809 134.767,155.471 166.755,155.471 	"/>
	<path display="inline" fill="#405E5D" d="M147.889,103.722h-94.92V80.342h94.92V103.722z M55.502,101.186h89.851V82.878H55.502
		V101.186z"/>
	<path display="inline" fill="#62AAA7" d="M61.7,93.361c0.474-0.134,0.967-0.16,1.471-0.141c0.5,0.03,1.014,0.128,1.515,0.323
		c0.503,0.199,0.989,0.511,1.408,0.931c0.43,0.419,0.716,0.969,0.935,1.535l-2.103,0.406c-0.071-0.386-0.101-0.671-0.128-1.005
		c-0.02-0.322-0.018-0.644-0.007-0.967c0.034-0.644,0.123-1.295,0.308-1.932c0.345-1.273,1.065-2.516,2.098-3.418
		c1.022-0.914,2.306-1.443,3.549-1.617c1.251-0.184,2.482-0.063,3.628,0.315c-1.146,0.378-2.218,0.748-3.165,1.224
		c-0.948,0.471-1.752,1.054-2.357,1.759c-0.614,0.7-1.046,1.526-1.34,2.45c-0.139,0.463-0.256,0.945-0.331,1.441
		c-0.041,0.248-0.07,0.5-0.089,0.75c-0.026,0.24-0.038,0.53-0.042,0.711l-2.102,0.407c-0.052-0.315-0.118-0.637-0.282-0.937
		c-0.163-0.296-0.386-0.594-0.68-0.87c-0.299-0.266-0.647-0.52-1.034-0.745C62.567,93.75,62.148,93.549,61.7,93.361"/>
	<path display="inline" fill="#62AAA7" d="M83.247,93.361c0.475-0.134,0.967-0.16,1.472-0.141c0.502,0.03,1.014,0.128,1.516,0.323
		c0.502,0.199,0.989,0.511,1.407,0.931c0.431,0.419,0.716,0.969,0.935,1.535l-2.103,0.406c-0.071-0.386-0.102-0.671-0.127-1.005
		c-0.02-0.322-0.019-0.644-0.008-0.967c0.034-0.644,0.122-1.295,0.308-1.932c0.345-1.273,1.065-2.516,2.098-3.418
		c1.024-0.914,2.306-1.443,3.55-1.617c1.25-0.184,2.482-0.063,3.628,0.315c-1.146,0.378-2.218,0.748-3.166,1.224
		c-0.948,0.471-1.75,1.054-2.356,1.759c-0.614,0.7-1.047,1.526-1.34,2.45c-0.139,0.463-0.255,0.945-0.331,1.441
		c-0.039,0.248-0.07,0.5-0.089,0.75c-0.027,0.24-0.038,0.53-0.042,0.711l-2.102,0.407c-0.053-0.315-0.119-0.637-0.282-0.937
		c-0.164-0.296-0.386-0.594-0.68-0.87c-0.299-0.266-0.646-0.52-1.034-0.745C84.115,93.75,83.696,93.549,83.247,93.361"/>
	<path display="inline" fill="#62AAA7" d="M104.795,93.361c0.473-0.134,0.968-0.16,1.472-0.141c0.499,0.03,1.013,0.128,1.516,0.323
		c0.502,0.199,0.988,0.511,1.407,0.931c0.429,0.419,0.715,0.969,0.933,1.535l-2.103,0.406c-0.069-0.386-0.099-0.671-0.126-1.005
		c-0.021-0.322-0.021-0.644-0.009-0.967c0.034-0.644,0.123-1.295,0.309-1.932c0.345-1.273,1.065-2.516,2.099-3.418
		c1.021-0.914,2.305-1.443,3.551-1.617c1.25-0.184,2.479-0.063,3.627,0.315c-1.144,0.378-2.22,0.748-3.165,1.224
		c-0.949,0.471-1.752,1.054-2.356,1.759c-0.615,0.7-1.048,1.526-1.34,2.45c-0.139,0.463-0.257,0.945-0.332,1.441
		c-0.039,0.248-0.07,0.5-0.091,0.75c-0.024,0.24-0.037,0.53-0.039,0.711l-2.104,0.407c-0.052-0.315-0.118-0.637-0.281-0.937
		c-0.163-0.296-0.387-0.594-0.68-0.87c-0.3-0.266-0.646-0.52-1.034-0.745C105.663,93.75,105.244,93.549,104.795,93.361"/>
	<path display="inline" fill="#62AAA7" d="M126.342,93.361c0.474-0.134,0.967-0.16,1.471-0.141c0.502,0.03,1.015,0.128,1.518,0.323
		c0.501,0.199,0.988,0.511,1.405,0.931c0.431,0.419,0.717,0.969,0.936,1.535l-2.103,0.406c-0.07-0.386-0.102-0.671-0.126-1.005
		c-0.021-0.322-0.02-0.644-0.008-0.967c0.032-0.644,0.122-1.295,0.307-1.932c0.345-1.273,1.065-2.516,2.099-3.418
		c1.023-0.914,2.304-1.443,3.55-1.617c1.25-0.184,2.481-0.063,3.627,0.315c-1.146,0.378-2.218,0.748-3.164,1.224
		c-0.948,0.471-1.752,1.054-2.357,1.759c-0.613,0.7-1.046,1.526-1.339,2.45c-0.14,0.463-0.257,0.945-0.333,1.441
		c-0.038,0.248-0.068,0.5-0.089,0.75c-0.025,0.24-0.039,0.53-0.041,0.711l-2.103,0.407c-0.054-0.315-0.118-0.637-0.282-0.937
		c-0.162-0.296-0.386-0.594-0.679-0.87c-0.3-0.266-0.646-0.52-1.034-0.745C127.209,93.75,126.791,93.549,126.342,93.361"/>
</g>
<g id="Capa_4" display="none">
	<g display="inline">
		<defs>
			<rect id="SVGID_5_" x="-3.657" y="18.919" width="206.096" height="145.094"/>
		</defs>
		<clipPath id="SVGID_6_">
			<use xlink:href="#SVGID_5_"  overflow="visible"/>
		</clipPath>
		<rect x="2.5" y="6.838" display="none" clip-path="url(#SVGID_6_)" fill="#BF0411" width="197.5" height="180.346"/>
		<path clip-path="url(#SVGID_6_)" fill="#F4F4F4" d="M19.472,164.615c0-43.754,35.47-79.223,79.223-79.223
			c43.753,0,79.222,35.469,79.222,79.223"/>
		<path clip-path="url(#SVGID_6_)" fill="#DEDEDE" d="M194.869,69.785c-0.003,0.043-0.689,0.03-1.928,0.002
			c-1.239-0.014-3.038-0.034-5.249,0.163c-2.207,0.19-4.833,0.653-7.569,1.731c-1.361,0.55-2.745,1.238-4.11,2.083
			c-1.355,0.86-2.688,1.864-3.993,2.975l-0.242,0.207l-0.205-0.261c-0.283-0.356-0.586-0.737-0.89-1.121
			c-1.17-1.338-2.515-2.459-3.923-3.382c-1.435-0.879-2.892-1.615-4.348-2.157c-2.904-1.114-5.692-1.604-8.032-1.867
			c-2.345-0.244-4.263-0.25-5.584-0.19c-1.319,0.056-2.052,0.122-2.061,0.07c-0.002-0.02,0.179-0.059,0.525-0.115
			c0.347-0.046,0.856-0.149,1.521-0.192c1.323-0.132,3.26-0.193,5.64-0.002c2.372,0.21,5.211,0.664,8.188,1.771
			c1.493,0.539,2.992,1.281,4.473,2.18c1.454,0.942,2.849,2.098,4.064,3.488c0.315,0.399,0.631,0.797,0.922,1.166l-0.447-0.054
			c1.326-1.128,2.69-2.146,4.078-3.018c1.401-0.854,2.826-1.546,4.224-2.095c2.812-1.072,5.5-1.496,7.736-1.635
			c2.243-0.144,4.051-0.059,5.291,0.028c0.622,0.042,1.102,0.101,1.427,0.136C194.699,69.735,194.871,69.764,194.869,69.785"/>
		<path clip-path="url(#SVGID_6_)" fill="#DEDEDE" d="M26.978,123.718v26.302c-2.247,0-4.07-1.823-4.07-4.071v-11.503
			c0-1.761-1.426-3.188-3.186-3.188c-1.76,0-3.186,1.427-3.186,3.188v9.982c0,5.628,4.564,10.19,10.193,10.19h0.072v32.565h8.672
			v-13.097h2.714c4.691,0,8.525-3.741,8.638-8.43l0.418-17.34c0.047-1.979-1.544-3.607-3.523-3.607c-1.989,0-3.583,1.64-3.523,3.627
			c0.165,5.462,0.382,15.507-0.123,18.67c-0.708,4.427-4.424,3.186-4.424,3.186s1.438-32.17,1.73-46.374
			c0.06-2.911-2.289-5.302-5.202-5.302C29.308,118.517,26.978,120.846,26.978,123.718"/>
		<path clip-path="url(#SVGID_6_)" fill="#DEDEDE" d="M36.114,124.448c0,0.062,0.462,0.112,1.032,0.112
			c0.57,0,1.033-0.051,1.033-0.112s-0.462-0.112-1.033-0.112C36.576,124.336,36.114,124.387,36.114,124.448"/>
		<path clip-path="url(#SVGID_6_)" fill="#DEDEDE" d="M36.489,126.827c0,0.062,0.406,0.111,0.907,0.111s0.907-0.05,0.907-0.111
			s-0.406-0.112-0.907-0.112S36.489,126.766,36.489,126.827"/>
		<path clip-path="url(#SVGID_6_)" fill="#DEDEDE" d="M25.913,125.199c0,0.062,0.42,0.112,0.938,0.112s0.939-0.051,0.939-0.112
			s-0.42-0.112-0.939-0.112S25.913,125.138,25.913,125.199"/>
		<path clip-path="url(#SVGID_6_)" fill="#DEDEDE" d="M25.974,122.508c0,0.062,0.31,0.112,0.689,0.112
			c0.38,0,0.688-0.051,0.688-0.112s-0.308-0.112-0.688-0.112C26.284,122.396,25.974,122.446,25.974,122.508"/>
		<path clip-path="url(#SVGID_6_)" fill="#DEDEDE" d="M36.242,122.514c0.032,0.054,0.533-0.185,1.121-0.53s1.037-0.67,1.006-0.724
			c-0.032-0.053-0.533,0.185-1.122,0.531C36.661,122.137,36.211,122.461,36.242,122.514"/>
		<path clip-path="url(#SVGID_6_)" fill="#DEDEDE" d="M34.279,120.365c0.049,0.039,0.431-0.358,0.854-0.889
			c0.423-0.529,0.727-0.989,0.677-1.028c-0.048-0.039-0.429,0.359-0.853,0.889C34.535,119.867,34.231,120.326,34.279,120.365"/>
		<path clip-path="url(#SVGID_6_)" fill="#DEDEDE" d="M31.88,119.691c0.062,0.003,0.124-0.613,0.138-1.374s-0.024-1.378-0.086-1.379
			c-0.062-0.001-0.124,0.614-0.139,1.374C31.781,119.073,31.818,119.69,31.88,119.691"/>
		<path clip-path="url(#SVGID_6_)" fill="#DEDEDE" d="M28.467,117.759c-0.053,0.034,0.214,0.55,0.594,1.154
			c0.381,0.604,0.733,1.069,0.784,1.035c0.053-0.033-0.213-0.55-0.594-1.154S28.518,117.726,28.467,117.759"/>
		<path clip-path="url(#SVGID_6_)" fill="#DEDEDE" d="M27.223,120.072c-0.041,0.045,0.222,0.346,0.589,0.67
			c0.366,0.325,0.696,0.552,0.737,0.505c0.042-0.047-0.222-0.347-0.588-0.671C27.594,120.25,27.265,120.024,27.223,120.072"/>
		<path clip-path="url(#SVGID_6_)" fill="#DEDEDE" d="M35.863,130.278c0.002,0.062,0.689,0.099,1.536,0.082
			c0.848-0.018,1.532-0.082,1.531-0.144c-0.001-0.063-0.688-0.099-1.535-0.081C36.547,130.152,35.862,130.217,35.863,130.278"/>
		<path clip-path="url(#SVGID_6_)" fill="#DEDEDE" d="M24.536,127.827c0,0.062,0.84,0.112,1.877,0.112s1.878-0.051,1.878-0.112
			s-0.841-0.112-1.878-0.112S24.536,127.766,24.536,127.827"/>
		<path clip-path="url(#SVGID_6_)" fill="#DEDEDE" d="M26.413,130.08c0,0.063,0.28,0.112,0.626,0.112
			c0.346,0,0.626-0.05,0.626-0.112c0-0.062-0.28-0.11-0.626-0.11C26.693,129.97,26.413,130.019,26.413,130.08"/>
		<path clip-path="url(#SVGID_6_)" fill="#DEDEDE" d="M35.175,132.896c0,0.062,0.743,0.112,1.657,0.112
			c0.917,0,1.659-0.051,1.659-0.112c0-0.061-0.742-0.111-1.659-0.111C35.918,132.785,35.175,132.836,35.175,132.896"/>
		<path clip-path="url(#SVGID_6_)" fill="#DEDEDE" d="M34.047,134.883c0,0.062,0.898,0.112,2.005,0.112s2.004-0.051,2.004-0.112
			s-0.897-0.112-2.004-0.112S34.047,134.821,34.047,134.883"/>
		<path clip-path="url(#SVGID_6_)" fill="#DEDEDE" d="M25.082,133.715c0,0.062,0.652,0.112,1.457,0.112
			c0.806,0,1.458-0.051,1.458-0.112s-0.652-0.112-1.458-0.112C25.734,133.603,25.082,133.653,25.082,133.715"/>
		<path clip-path="url(#SVGID_6_)" fill="#DEDEDE" d="M26.102,135.901c0,0.062,0.294,0.112,0.656,0.112
			c0.363,0,0.656-0.051,0.656-0.112s-0.292-0.112-0.656-0.112C26.396,135.789,26.102,135.84,26.102,135.901"/>
		<path clip-path="url(#SVGID_6_)" fill="#DEDEDE" d="M35.87,137.944c0,0.062,0.571,0.111,1.275,0.111s1.276-0.05,1.276-0.111
			c0-0.063-0.572-0.112-1.276-0.112S35.87,137.882,35.87,137.944"/>
		<path clip-path="url(#SVGID_6_)" fill="#DEDEDE" d="M35.796,139.912c0,0.063,0.409,0.111,0.911,0.111
			c0.504,0,0.911-0.049,0.911-0.111c0-0.062-0.407-0.111-0.911-0.111C36.205,139.801,35.796,139.851,35.796,139.912"/>
		<path clip-path="url(#SVGID_6_)" fill="#DEDEDE" d="M26.173,139.315c0.004,0.062,0.381,0.096,0.844,0.075s0.835-0.087,0.833-0.146
			c-0.002-0.062-0.379-0.096-0.842-0.075C26.543,139.188,26.171,139.254,26.173,139.315"/>
		<path clip-path="url(#SVGID_6_)" fill="#DEDEDE" d="M34.485,142.901c0,0.062,0.767,0.111,1.712,0.111
			c0.947,0,1.714-0.05,1.714-0.111c0-0.063-0.767-0.112-1.714-0.112C35.251,142.789,34.485,142.839,34.485,142.901"/>
		<path clip-path="url(#SVGID_6_)" fill="#DEDEDE" d="M25.519,143.629c0,0.062,0.686,0.112,1.531,0.112
			c0.846,0,1.53-0.051,1.53-0.112s-0.685-0.112-1.53-0.112C26.204,143.517,25.519,143.567,25.519,143.629"/>
		<path clip-path="url(#SVGID_6_)" fill="#DEDEDE" d="M27.195,145.305c-0.043,0.046-0.03,0.129,0.031,0.19
			c0.061,0.06,0.144,0.073,0.188,0.029c0.045-0.043,0.031-0.128-0.029-0.188C27.322,145.275,27.239,145.261,27.195,145.305"/>
		<path clip-path="url(#SVGID_6_)" fill="#DEDEDE" d="M20.854,134.516c0.02,0.056,0.71-0.171,1.432-0.691
			c0.725-0.515,1.164-1.094,1.118-1.131c-0.048-0.043-0.547,0.451-1.249,0.951C21.458,134.146,20.827,134.457,20.854,134.516"/>
		<path clip-path="url(#SVGID_6_)" fill="#DEDEDE" d="M20.693,133.709c0.05,0.028,0.513-0.648,0.89-1.584
			c0.38-0.936,0.519-1.745,0.461-1.758c-0.063-0.015-0.295,0.757-0.669,1.673C21.007,132.958,20.637,133.676,20.693,133.709"/>
		<path clip-path="url(#SVGID_6_)" fill="#DEDEDE" d="M19.592,133.642c0.063,0,0.104-0.784,0.096-1.75
			c-0.009-0.966-0.066-1.749-0.128-1.748c-0.062,0-0.104,0.785-0.096,1.75C19.473,132.86,19.53,133.645,19.592,133.642"/>
		<path clip-path="url(#SVGID_6_)" fill="#DEDEDE" d="M16.549,130.29c-0.054,0.027,0.267,0.776,0.797,1.625
			c0.529,0.851,1.059,1.468,1.106,1.434c0.051-0.039-0.394-0.711-0.917-1.552C17.012,130.957,16.606,130.262,16.549,130.29"/>
		<path clip-path="url(#SVGID_6_)" fill="#DEDEDE" d="M15.021,133.133c-0.04,0.049,0.44,0.504,1.072,1.02
			c0.631,0.515,1.174,0.893,1.213,0.845c0.038-0.048-0.441-0.504-1.073-1.019C15.603,133.466,15.059,133.085,15.021,133.133"/>
		<path clip-path="url(#SVGID_6_)" fill="#DEDEDE" d="M14.868,135.924c-0.024,0.061,0.482,0.303,1.125,0.548
			c0.643,0.243,1.183,0.392,1.204,0.334c0.022-0.057-0.482-0.302-1.125-0.544C15.428,136.019,14.889,135.867,14.868,135.924"/>
		<path clip-path="url(#SVGID_6_)" fill="#DEDEDE" d="M15.313,138.235c-0.028,0.053,0.356,0.28,0.892,0.322
			c0.536,0.044,0.949-0.121,0.931-0.177c-0.016-0.063-0.421-0.005-0.914-0.048C15.73,138.299,15.338,138.175,15.313,138.235"/>
		<path clip-path="url(#SVGID_6_)" fill="#DEDEDE" d="M21.874,136.776c0.014,0.062,0.612-0.021,1.336-0.181
			c0.726-0.163,1.302-0.342,1.288-0.401c-0.013-0.062-0.611,0.021-1.336,0.182C22.436,136.538,21.86,136.716,21.874,136.776"/>
		<path clip-path="url(#SVGID_6_)" fill="#DEDEDE" d="M21.586,138.111c0.011,0.06,0.59,0.012,1.294-0.112
			c0.706-0.122,1.267-0.271,1.256-0.329c-0.01-0.063-0.589-0.012-1.293,0.109S21.575,138.049,21.586,138.111"/>
		<path clip-path="url(#SVGID_6_)" fill="#DEDEDE" d="M21.582,139.256c-0.013,0.06,0.369,0.189,0.852,0.29
			c0.484,0.101,0.886,0.136,0.898,0.074c0.013-0.061-0.37-0.19-0.853-0.293C21.996,139.229,21.594,139.193,21.582,139.256"/>
		<path clip-path="url(#SVGID_6_)" fill="#DEDEDE" d="M44.472,146.473c0.057,0.025,0.335-0.529,0.619-1.231
			c0.286-0.703,0.471-1.292,0.414-1.315c-0.057-0.022-0.335,0.527-0.621,1.232C44.599,145.861,44.415,146.45,44.472,146.473"/>
		<path clip-path="url(#SVGID_6_)" fill="#DEDEDE" d="M42.896,146.683c0.061-0.014-0.035-0.646-0.214-1.41
			c-0.178-0.765-0.373-1.374-0.433-1.36c-0.062,0.014,0.035,0.646,0.215,1.411C42.643,146.088,42.837,146.699,42.896,146.683"/>
		<path clip-path="url(#SVGID_6_)" fill="#DEDEDE" d="M45.781,147.855c0.039,0.046,0.593-0.339,1.236-0.861
			c0.644-0.524,1.135-0.986,1.096-1.034c-0.039-0.049-0.593,0.336-1.237,0.86C46.232,147.343,45.742,147.808,45.781,147.855"/>
		<path clip-path="url(#SVGID_6_)" fill="#DEDEDE" d="M46.001,148.726c0.009,0.062,0.571,0.029,1.256-0.073
			c0.685-0.099,1.232-0.231,1.223-0.293c-0.009-0.06-0.571-0.027-1.256,0.073C46.54,148.533,45.992,148.664,46.001,148.726"/>
		<path clip-path="url(#SVGID_6_)" fill="#DEDEDE" d="M46.147,150.624c0.007,0.062,0.52,0.048,1.144-0.028
			c0.625-0.078,1.125-0.189,1.118-0.252c-0.007-0.062-0.52-0.048-1.144,0.03C46.64,150.45,46.14,150.562,46.147,150.624"/>
		<path clip-path="url(#SVGID_6_)" fill="#DEDEDE" d="M46.076,152.707c0,0.062,0.409,0.11,0.912,0.105
			c0.502-0.005,0.91-0.058,0.91-0.119c-0.001-0.063-0.409-0.11-0.914-0.107C46.482,152.592,46.074,152.645,46.076,152.707"/>
		<path clip-path="url(#SVGID_6_)" fill="#DEDEDE" d="M39.807,152.39c0.002,0.062,0.412,0.098,0.915,0.076
			c0.504-0.018,0.91-0.084,0.908-0.146c-0.002-0.062-0.413-0.096-0.917-0.078C40.209,152.264,39.804,152.326,39.807,152.39"/>
		<path clip-path="url(#SVGID_6_)" fill="#DEDEDE" d="M39.515,150.45c0,0.062,0.424,0.109,0.948,0.106
			c0.523-0.002,0.948-0.053,0.947-0.114c0-0.062-0.424-0.109-0.948-0.109C39.938,150.335,39.515,150.388,39.515,150.45"/>
		<path clip-path="url(#SVGID_6_)" fill="#DEDEDE" d="M39.225,147.924c-0.026,0.058,0.443,0.33,1.046,0.611
			c0.604,0.281,1.115,0.465,1.141,0.41c0.025-0.058-0.443-0.33-1.046-0.611C39.762,148.052,39.25,147.869,39.225,147.924"/>
		<path clip-path="url(#SVGID_6_)" fill="#DEDEDE" d="M39.936,146.054c-0.042,0.046,0.305,0.422,0.774,0.836
			c0.469,0.417,0.883,0.717,0.924,0.67c0.041-0.045-0.307-0.421-0.775-0.838C40.391,146.306,39.977,146.006,39.936,146.054"/>
		<path clip-path="url(#SVGID_6_)" fill="#DEDEDE" d="M35.138,145.165c-0.017,0.058,0.486,0.243,1.141,0.261
			c0.655,0.02,1.169-0.14,1.155-0.196c-0.012-0.062-0.523-0.007-1.149-0.027C35.66,145.186,35.153,145.104,35.138,145.165"/>
		<path clip-path="url(#SVGID_6_)" fill="#DEDEDE" d="M34.731,147.399c-0.013,0.06,0.715,0.261,1.637,0.349
			c0.924,0.089,1.676,0.029,1.675-0.03c-0.001-0.063-0.743-0.105-1.652-0.192C35.48,147.438,34.744,147.338,34.731,147.399"/>
		<path clip-path="url(#SVGID_6_)" fill="#DEDEDE" d="M34.329,149.277c-0.009,0.06,0.783,0.235,1.771,0.389
			c0.988,0.156,1.796,0.232,1.805,0.172c0.009-0.062-0.783-0.235-1.771-0.392C35.147,149.291,34.338,149.216,34.329,149.277"/>
		<path clip-path="url(#SVGID_6_)" fill="#DEDEDE" d="M26.223,146.596c0.002,0.063,0.396,0.099,0.881,0.085s0.877-0.077,0.876-0.14
			c-0.002-0.06-0.397-0.099-0.883-0.085C26.613,146.473,26.221,146.534,26.223,146.596"/>
		<path clip-path="url(#SVGID_6_)" fill="#DEDEDE" d="M25.951,147.608c-0.003,0.062,0.296,0.126,0.67,0.144
			c0.374,0.02,0.678-0.016,0.681-0.078c0.003-0.062-0.296-0.126-0.67-0.146C26.259,147.512,25.955,147.547,25.951,147.608"/>
		<path clip-path="url(#SVGID_6_)" fill="#DEDEDE" d="M21.225,141.648c-0.001,0.06,0.777,0.105,1.723-0.046
			c0.947-0.148,1.673-0.435,1.654-0.49c-0.02-0.062-0.763,0.124-1.689,0.269C21.987,141.532,21.223,141.584,21.225,141.648"/>
		<path clip-path="url(#SVGID_6_)" fill="#DEDEDE" d="M14.535,140.453c-0.007,0.062,0.545,0.186,1.236,0.276
			c0.69,0.093,1.255,0.117,1.264,0.056s-0.545-0.186-1.235-0.277S14.543,140.392,14.535,140.453"/>
		<path clip-path="url(#SVGID_6_)" fill="#DEDEDE" d="M35.005,153.618c0.011,0.062,0.641-0.009,1.406-0.158
			c0.766-0.148,1.376-0.317,1.364-0.378c-0.012-0.062-0.643,0.01-1.407,0.158C35.604,153.39,34.994,153.56,35.005,153.618"/>
		<path clip-path="url(#SVGID_6_)" fill="#DEDEDE" d="M158.823,133.231c1.826,0.792,3.17,2.479,3.845,4.355
			c0.673,1.872,0.734,3.92,0.51,5.897c-0.433,3.828-2.608,7.693-4.95,10.754c-3.224-2.813-3.966-7.723-4.187-10.236
			C153.693,140.029,155.478,132.64,158.823,133.231"/>
		<path clip-path="url(#SVGID_6_)" fill="#DEDEDE" d="M161.975,160.556c-0.516-2.164,0.384-4.538,2.045-6.017
			c1.661-1.482,3.982-2.106,6.199-1.938c1.025,0.08,2.134,0.378,2.72,1.223c0.551,0.79,0.488,1.892,0.044,2.742
			c-0.445,0.853-1.218,1.491-2.031,2.002C168.156,160.319,165.133,161.504,161.975,160.556"/>
		<path clip-path="url(#SVGID_6_)" fill="#DEDEDE" d="M157.84,172.294c-0.021-0.005,0.025-0.283,0.114-0.785
			c0.103-0.552,0.233-1.269,0.391-2.127c0.356-1.774,0.814-4.32,2.195-6.791c1.361-2.464,3.268-4.278,4.872-5.179
			c0.799-0.463,1.496-0.737,1.987-0.879c0.244-0.082,0.442-0.115,0.573-0.146c0.133-0.028,0.203-0.037,0.205-0.028
			c0.022,0.063-1.118,0.269-2.663,1.224c-1.55,0.927-3.392,2.722-4.731,5.145c-1.354,2.419-1.839,4.929-2.245,6.696
			c-0.195,0.892-0.354,1.612-0.479,2.109C157.939,172.028,157.858,172.299,157.84,172.294"/>
		<path clip-path="url(#SVGID_6_)" fill="#DEDEDE" d="M157.962,138.979c0.009,0,0.022,0.118,0.039,0.343
			c0.015,0.257,0.034,0.581,0.058,0.987c0.047,0.858,0.098,2.099,0.146,3.633c0.1,3.065,0.178,7.306,0.157,11.991
			c-0.021,4.684-0.135,8.924-0.261,11.99c-0.064,1.534-0.124,2.772-0.178,3.628c-0.027,0.406-0.049,0.733-0.066,0.987
			c-0.018,0.228-0.033,0.343-0.043,0.343s-0.014-0.118-0.013-0.345c0.003-0.255,0.008-0.582,0.014-0.987
			c0.021-0.893,0.052-2.125,0.089-3.634c0.074-3.065,0.158-7.303,0.179-11.985c0.021-4.68-0.026-8.918-0.076-11.983
			c-0.022-1.509-0.042-2.74-0.056-3.634c-0.002-0.405-0.005-0.732-0.007-0.989C157.946,139.098,157.952,138.979,157.962,138.979"/>
		<path clip-path="url(#SVGID_6_)" fill="#DEDEDE" d="M156.396,162.887c-0.733-4.633-3.855-8.82-8.084-10.847
			c-1.077-0.515-2.486-0.854-3.37-0.053c-0.888,0.805-0.688,2.244-0.255,3.359c1.806,4.639,6.655,7.912,11.632,7.855"/>
		<path clip-path="url(#SVGID_6_)" fill="#DEDEDE" d="M148.834,155.673c0.009-0.02,0.25,0.088,0.685,0.297
			c0.218,0.104,0.483,0.231,0.773,0.412c0.289,0.181,0.64,0.357,0.982,0.618c0.353,0.247,0.744,0.513,1.127,0.845
			c0.4,0.313,0.79,0.691,1.198,1.09c0.793,0.819,1.594,1.797,2.276,2.927c0.673,1.135,1.159,2.301,1.5,3.391
			c0.152,0.551,0.3,1.073,0.377,1.575c0.111,0.496,0.151,0.968,0.195,1.396c0.059,0.428,0.04,0.819,0.054,1.16
			c0.016,0.341-0.006,0.637-0.025,0.875c-0.036,0.481-0.063,0.744-0.084,0.742c-0.063-0.003,0.047-1.064-0.142-2.757
			c-0.055-0.421-0.105-0.886-0.224-1.372c-0.086-0.494-0.24-1.005-0.396-1.545c-0.348-1.064-0.834-2.208-1.494-3.322
			c-0.672-1.11-1.45-2.074-2.222-2.89c-0.396-0.398-0.774-0.775-1.162-1.092c-0.37-0.337-0.753-0.606-1.092-0.863
			C149.776,156.169,148.806,155.727,148.834,155.673"/>
		<rect x="56.131" y="131.603" clip-path="url(#SVGID_6_)" fill="#405E5D" width="89.065" height="102.421"/>
		<polygon clip-path="url(#SVGID_6_)" fill="#363636" points="140.149,95.852 60.305,95.852 63.557,32.999 136.896,32.999 		"/>
		<path clip-path="url(#SVGID_6_)" fill="#7F7F7F" d="M130.823,64.561h2.391c0.467,0,0.839-0.389,0.817-0.855l-0.121-2.559
			c-0.021-0.436-0.381-0.779-0.817-0.779h-2.375c-0.467,0-0.838,0.387-0.817,0.851l0.105,2.559
			C130.024,64.215,130.384,64.561,130.823,64.561"/>
		<path clip-path="url(#SVGID_6_)" fill="#7F7F7F" d="M131.066,70.41h2.422c0.468,0,0.841-0.39,0.818-0.855l-0.123-2.628
			c-0.021-0.436-0.382-0.779-0.817-0.779h-2.408c-0.466,0-0.838,0.388-0.817,0.853l0.108,2.626
			C130.267,70.064,130.628,70.41,131.066,70.41"/>
		<path clip-path="url(#SVGID_6_)" fill="#7F7F7F" d="M131.314,76.355h2.457c0.467,0,0.839-0.391,0.817-0.856l-0.129-2.697
			c-0.02-0.437-0.381-0.779-0.815-0.779h-2.442c-0.466,0-0.836,0.387-0.817,0.852l0.112,2.697
			C130.516,76.008,130.876,76.355,131.314,76.355"/>
		<path clip-path="url(#SVGID_6_)" fill="#7F7F7F" d="M134.743,78.771c-0.021-0.437-0.38-0.779-0.817-0.779h-2.476
			c-0.466,0-0.836,0.388-0.817,0.851l0.116,2.77c0.018,0.438,0.378,0.784,0.817,0.784h2.489c0.468,0,0.841-0.391,0.817-0.856
			L134.743,78.771z"/>
		<path clip-path="url(#SVGID_6_)" fill="#7F7F7F" d="M69.643,60.368h-2.364c-0.44,0-0.802,0.346-0.824,0.785l-0.12,2.544
			c-0.022,0.471,0.352,0.863,0.824,0.863h2.378c0.442,0,0.805-0.348,0.823-0.79l0.106-2.545
			C70.487,60.758,70.111,60.368,69.643,60.368"/>
		<path clip-path="url(#SVGID_6_)" fill="#7F7F7F" d="M69.403,66.147h-2.396c-0.44,0-0.804,0.347-0.823,0.786l-0.125,2.613
			c-0.022,0.47,0.353,0.863,0.824,0.863h2.411c0.442,0,0.806-0.348,0.824-0.79l0.109-2.614
			C70.247,66.537,69.871,66.147,69.403,66.147"/>
		<path clip-path="url(#SVGID_6_)" fill="#7F7F7F" d="M69.158,72.022h-2.428c-0.441,0-0.803,0.346-0.824,0.785l-0.127,2.683
			c-0.021,0.471,0.354,0.865,0.824,0.865h2.444c0.441,0,0.805-0.349,0.822-0.791l0.113-2.684
			C70.001,72.412,69.625,72.022,69.158,72.022"/>
		<path clip-path="url(#SVGID_6_)" fill="#7F7F7F" d="M68.909,77.992h-2.463c-0.44,0-0.802,0.347-0.822,0.786l-0.13,2.756
			c-0.023,0.47,0.353,0.863,0.823,0.863h2.479c0.441,0,0.805-0.348,0.822-0.79l0.117-2.755
			C69.753,78.382,69.378,77.992,68.909,77.992"/>
		<polygon clip-path="url(#SVGID_6_)" fill="#F1F1F1" points="127.71,82.397 72.771,82.397 74.336,40.441 126.138,40.441 		"/>
		<polygon clip-path="url(#SVGID_6_)" fill="#FFFFFF" points="73.882,52.624 73.724,56.864 126.457,48.98 126.315,45.212 		"/>
		<polygon clip-path="url(#SVGID_6_)" fill="#FFFFFF" points="73.544,61.69 73.161,71.962 127.018,63.913 126.653,54.184 		"/>
		<polygon clip-path="url(#SVGID_6_)" fill="#7F7F7F" points="64.992,87.506 64.812,91.568 77.667,91.568 77.711,87.506 		"/>
		<rect x="66.022" y="89.031" clip-path="url(#SVGID_6_)" fill="#202020" width="10.479" height="1.013"/>
		<polygon clip-path="url(#SVGID_6_)" fill="#7F7F7F" points="130.602,92.145 114.547,92.145 114.487,86.585 130.406,86.585 		"/>
		<polygon clip-path="url(#SVGID_6_)" fill="#202020" points="129.652,91.138 115.45,91.138 115.437,89.661 129.59,89.661 		"/>
		<polygon clip-path="url(#SVGID_6_)" fill="#282828" points="140.149,95.852 60.305,95.852 55.258,106.51 145.196,106.51 
			143.064,102.008 		"/>
		<path clip-path="url(#SVGID_6_)" fill="#7F7F7F" d="M90.113,97.02h-3.247c-0.276,0-0.514,0.08-0.53,0.178l-0.191,1.176
			c-0.016,0.102,0.199,0.183,0.481,0.183h3.305c0.282,0,0.52-0.081,0.531-0.183l0.131-1.176C90.605,97.1,90.39,97.02,90.113,97.02"
			/>
		<path clip-path="url(#SVGID_6_)" fill="#7F7F7F" d="M95.592,97.02h-3.247c-0.276,0-0.509,0.08-0.518,0.178l-0.116,1.176
			c-0.01,0.102,0.211,0.183,0.493,0.183h3.305c0.281,0,0.515-0.081,0.52-0.183l0.057-1.176C96.089,97.1,95.869,97.02,95.592,97.02"
			/>
		<path clip-path="url(#SVGID_6_)" fill="#7F7F7F" d="M101.071,97.02h-3.248c-0.276,0-0.504,0.08-0.506,0.178l-0.041,1.176
			c-0.002,0.102,0.222,0.183,0.505,0.183h3.304c0.283,0,0.51-0.081,0.509-0.183l-0.019-1.176
			C101.573,97.1,101.349,97.02,101.071,97.02"/>
		<path clip-path="url(#SVGID_6_)" fill="#7F7F7F" d="M112.616,97.02h-7.092c-0.813,0-1.462,0.235-1.448,0.528l0.019,0.471
			c0.016,0.295,0.698,0.538,1.526,0.538h7.218c0.826,0,1.461-0.243,1.413-0.538l-0.077-0.471
			C114.127,97.255,113.43,97.02,112.616,97.02"/>
		<path clip-path="url(#SVGID_6_)" fill="#7F7F7F" d="M89.877,99.013h-3.322c-0.285,0-0.527,0.083-0.544,0.188l-0.199,1.23
			c-0.018,0.106,0.202,0.193,0.491,0.193h3.383c0.288,0,0.532-0.087,0.544-0.193l0.139-1.23
			C90.381,99.097,90.16,99.013,89.877,99.013"/>
		<path clip-path="url(#SVGID_6_)" fill="#7F7F7F" d="M95.483,99.013h-3.321c-0.284,0-0.522,0.083-0.532,0.188l-0.121,1.23
			c-0.01,0.106,0.216,0.193,0.504,0.193h3.383c0.288,0,0.526-0.087,0.532-0.193l0.06-1.23
			C95.992,99.097,95.767,99.013,95.483,99.013"/>
		<path clip-path="url(#SVGID_6_)" fill="#7F7F7F" d="M101.09,99.013h-3.32c-0.285,0-0.517,0.083-0.521,0.188l-0.043,1.23
			c-0.001,0.106,0.229,0.193,0.518,0.193h3.383c0.287,0,0.521-0.087,0.52-0.193l-0.02-1.23
			C101.604,99.097,101.374,99.013,101.09,99.013"/>
		<path clip-path="url(#SVGID_6_)" fill="#7F7F7F" d="M112.905,99.013h-7.257c-0.832,0-1.496,0.246-1.482,0.553l0.021,0.493
			c0.016,0.312,0.715,0.565,1.563,0.565h7.389c0.848,0,1.494-0.254,1.443-0.565l-0.079-0.493
			C114.452,99.259,113.737,99.013,112.905,99.013"/>
		<path clip-path="url(#SVGID_6_)" fill="#7F7F7F" d="M89.63,101.104h-3.401c-0.291,0-0.541,0.087-0.559,0.195l-0.209,1.291
			c-0.018,0.113,0.207,0.203,0.503,0.203h3.465c0.295,0,0.545-0.09,0.558-0.203l0.144-1.291
			C90.145,101.19,89.919,101.104,89.63,101.104"/>
		<path clip-path="url(#SVGID_6_)" fill="#7F7F7F" d="M95.37,101.104h-3.401c-0.29,0-0.534,0.087-0.545,0.195l-0.127,1.291
			c-0.01,0.113,0.221,0.203,0.517,0.203h3.465c0.296,0,0.54-0.09,0.545-0.203l0.061-1.291
			C95.892,101.19,95.661,101.104,95.37,101.104"/>
		<path clip-path="url(#SVGID_6_)" fill="#7F7F7F" d="M101.11,101.104h-3.401c-0.29,0-0.529,0.087-0.533,0.195l-0.044,1.291
			c-0.003,0.113,0.234,0.203,0.53,0.203h3.465c0.295,0,0.533-0.09,0.531-0.203l-0.02-1.291
			C101.638,101.19,101.401,101.104,101.11,101.104"/>
		<path clip-path="url(#SVGID_6_)" fill="#7F7F7F" d="M113.208,101.103h-7.431c-0.851,0-1.531,0.259-1.518,0.579l0.024,0.52
			c0.015,0.326,0.73,0.592,1.6,0.592h7.568c0.869,0,1.53-0.266,1.478-0.592l-0.086-0.52
			C114.794,101.361,114.061,101.103,113.208,101.103"/>
		<path clip-path="url(#SVGID_6_)" fill="#7F7F7F" d="M89.37,103.295h-3.484c-0.299,0-0.553,0.093-0.572,0.206l-0.219,1.356
			c-0.02,0.118,0.21,0.213,0.514,0.213h3.553c0.302,0,0.558-0.095,0.572-0.213l0.151-1.356
			C89.897,103.388,89.668,103.295,89.37,103.295"/>
		<path clip-path="url(#SVGID_6_)" fill="#7F7F7F" d="M95.25,103.295h-3.483c-0.298,0-0.547,0.093-0.558,0.206l-0.134,1.356
			c-0.01,0.118,0.226,0.213,0.529,0.213h3.551c0.303,0,0.554-0.095,0.561-0.213l0.064-1.356
			C95.785,103.388,95.548,103.295,95.25,103.295"/>
		<path clip-path="url(#SVGID_6_)" fill="#7F7F7F" d="M101.132,103.295h-3.484c-0.298,0-0.543,0.093-0.546,0.206l-0.044,1.356
			c-0.004,0.118,0.238,0.213,0.541,0.213h3.551c0.304,0,0.549-0.095,0.547-0.213l-0.021-1.356
			C101.673,103.388,101.431,103.295,101.132,103.295"/>
		<path clip-path="url(#SVGID_6_)" fill="#7F7F7F" d="M113.525,103.295h-7.611c-0.873,0-1.569,0.271-1.555,0.607l0.025,0.544
			c0.015,0.345,0.748,0.624,1.64,0.624h7.758c0.891,0,1.566-0.279,1.512-0.624l-0.089-0.544
			C115.151,103.566,114.399,103.295,113.525,103.295"/>
		<rect x="55.258" y="106.51" clip-path="url(#SVGID_6_)" fill="#202020" width="89.938" height="3.405"/>
		<rect x="55.258" y="109.915" clip-path="url(#SVGID_6_)" fill="#363636" width="89.938" height="22.744"/>
		<rect x="83.739" y="116.224" clip-path="url(#SVGID_6_)" fill="#202020" width="32.977" height="10.127"/>
		<rect x="85.296" y="121.106" clip-path="url(#SVGID_6_)" fill="#161616" width="29.862" height="3.688"/>
		<rect x="55.258" y="132.659" clip-path="url(#SVGID_6_)" fill="#344D4B" width="1.747" height="101.364"/>
		<rect x="143.45" y="132.659" clip-path="url(#SVGID_6_)" fill="#344D4B" width="1.746" height="101.364"/>
		<rect x="70.546" y="153.165" clip-path="url(#SVGID_6_)" fill="#638C8A" width="59.361" height="80.858"/>
		<path clip-path="url(#SVGID_6_)" fill="#344D4B" d="M103.693,159.035c0,1.917-1.552,3.467-3.466,3.467
			c-1.914,0-3.466-1.55-3.466-3.467c0-1.914,1.552-3.466,3.466-3.466C102.142,155.569,103.693,157.121,103.693,159.035"/>
	</g>
	<g id="Capa_6" display="inline">
	</g>
</g>
<g id="Capa_5" display="none">
	<polygon display="inline" fill="#363636" points="174.5,124.462 27.018,124.462 33.026,8.364 168.494,8.364 	"/>
	<path display="inline" fill="#7F7F7F" d="M157.274,66.667h4.416c0.86,0,1.549-0.721,1.509-1.583l-0.224-4.726
		c-0.038-0.806-0.702-1.439-1.508-1.439h-4.391c-0.858,0-1.547,0.716-1.508,1.574l0.194,4.724
		C155.798,66.027,156.465,66.667,157.274,66.667"/>
	<path display="inline" fill="#7F7F7F" d="M157.726,77.469h4.476c0.861,0,1.551-0.722,1.509-1.584l-0.23-4.851
		c-0.037-0.806-0.701-1.44-1.507-1.44h-4.451c-0.858,0-1.546,0.716-1.51,1.576l0.203,4.85
		C156.248,76.83,156.915,77.469,157.726,77.469"/>
	<path display="inline" fill="#7F7F7F" d="M158.182,88.448h4.537c0.862,0,1.552-0.72,1.509-1.582l-0.233-4.981
		c-0.038-0.807-0.704-1.439-1.508-1.439h-4.512c-0.861,0-1.546,0.715-1.51,1.573L156.671,87
		C156.706,87.809,157.372,88.448,158.182,88.448"/>
	<path display="inline" fill="#7F7F7F" d="M164.516,92.913c-0.039-0.805-0.703-1.439-1.51-1.439h-4.572
		c-0.858,0-1.548,0.715-1.509,1.575l0.214,5.114c0.031,0.81,0.697,1.448,1.507,1.448h4.602c0.864,0,1.549-0.721,1.511-1.583
		L164.516,92.913z"/>
	<path display="inline" fill="#7F7F7F" d="M44.268,58.919h-4.366c-0.813,0-1.482,0.638-1.52,1.451l-0.223,4.7
		c-0.042,0.869,0.651,1.596,1.52,1.596h4.392c0.817,0,1.487-0.644,1.522-1.458l0.195-4.704
		C45.825,59.64,45.132,58.919,44.268,58.919"/>
	<path display="inline" fill="#7F7F7F" d="M43.822,69.594h-4.425c-0.812,0-1.482,0.64-1.52,1.451l-0.229,4.828
		c-0.042,0.868,0.651,1.596,1.521,1.596h4.454c0.815,0,1.487-0.646,1.52-1.46l0.203-4.828C45.38,70.316,44.688,69.594,43.822,69.594
		"/>
	<path display="inline" fill="#7F7F7F" d="M43.371,80.445h-4.486c-0.814,0-1.485,0.639-1.521,1.451l-0.234,4.958
		c-0.042,0.868,0.651,1.594,1.52,1.594h4.515c0.817,0,1.487-0.643,1.52-1.458l0.208-4.959
		C44.929,81.167,44.237,80.445,43.371,80.445"/>
	<path display="inline" fill="#7F7F7F" d="M42.911,91.474h-4.549c-0.813,0-1.483,0.639-1.521,1.452L36.6,98.015
		c-0.041,0.869,0.653,1.595,1.521,1.595h4.579c0.816,0,1.488-0.645,1.521-1.46l0.213-5.09
		C44.469,92.196,43.777,91.474,42.911,91.474"/>
	<polygon display="inline" fill="#F1F1F1" points="151.524,99.61 50.044,99.61 52.936,22.112 148.62,22.112 	"/>
	<polygon display="inline" fill="#FFFFFF" points="52.098,44.614 51.805,52.446 149.211,37.885 148.951,30.925 	"/>
	<polygon display="inline" fill="#FFFFFF" points="51.473,61.363 50.765,80.336 150.245,65.464 149.572,47.497 	"/>
	<polygon display="inline" fill="#7F7F7F" points="35.675,109.046 35.342,116.552 59.087,116.552 59.17,109.046 	"/>
	<rect x="37.579" y="111.86" display="inline" fill="#202020" width="19.357" height="1.875"/>
	<polygon display="inline" fill="#7F7F7F" points="156.866,117.616 127.211,117.616 127.099,107.345 156.504,107.345 	"/>
	<polygon display="inline" fill="#202020" points="155.11,115.755 128.881,115.755 128.854,113.026 154.997,113.026 	"/>
	<polygon display="inline" fill="#282828" points="174.5,124.462 27.018,124.462 17.695,144.149 183.824,144.149 179.886,135.835 	
		"/>
	<path display="inline" fill="#7F7F7F" d="M82.076,126.618h-5.996c-0.512,0-0.95,0.148-0.98,0.332l-0.351,2.17
		c-0.03,0.189,0.366,0.342,0.887,0.342h6.105c0.521,0,0.959-0.152,0.98-0.342l0.246-2.17
		C82.987,126.767,82.588,126.618,82.076,126.618"/>
	<path display="inline" fill="#7F7F7F" d="M92.196,126.618h-5.995c-0.512,0-0.941,0.148-0.96,0.332l-0.213,2.17
		c-0.018,0.189,0.39,0.342,0.911,0.342h6.103c0.521,0,0.952-0.152,0.961-0.342l0.104-2.17
		C93.117,126.767,92.709,126.618,92.196,126.618"/>
	<path display="inline" fill="#7F7F7F" d="M102.317,126.618h-5.995c-0.512,0-0.932,0.148-0.938,0.332l-0.073,2.17
		c-0.007,0.189,0.411,0.342,0.933,0.342h6.104c0.519,0,0.939-0.152,0.936-0.342l-0.032-2.17
		C103.246,126.767,102.829,126.618,102.317,126.618"/>
	<path display="inline" fill="#7F7F7F" d="M123.644,126.618h-13.099c-1.502,0-2.702,0.438-2.678,0.975l0.04,0.873
		c0.023,0.549,1.284,0.996,2.814,0.996h13.334c1.53,0,2.697-0.447,2.609-0.996l-0.145-0.873
		C126.434,127.056,125.146,126.618,123.644,126.618"/>
	<path display="inline" fill="#7F7F7F" d="M81.64,130.304h-6.134c-0.525,0-0.976,0.154-1.006,0.346l-0.367,2.273
		c-0.032,0.197,0.374,0.357,0.907,0.357h6.249c0.534,0,0.984-0.16,1.005-0.357l0.256-2.273
		C82.571,130.458,82.163,130.304,81.64,130.304"/>
	<path display="inline" fill="#7F7F7F" d="M91.997,130.304h-6.135c-0.524,0-0.964,0.154-0.983,0.346l-0.224,2.273
		c-0.018,0.197,0.399,0.357,0.931,0.357h6.25c0.534,0,0.974-0.16,0.982-0.357l0.11-2.273
		C92.938,130.458,92.521,130.304,91.997,130.304"/>
	<path display="inline" fill="#7F7F7F" d="M102.354,130.304H96.22c-0.525,0-0.956,0.154-0.961,0.346l-0.078,2.273
		c-0.007,0.197,0.421,0.357,0.954,0.357h6.249c0.533,0,0.962-0.16,0.961-0.357l-0.038-2.273
		C103.305,130.458,102.877,130.304,102.354,130.304"/>
	<path display="inline" fill="#7F7F7F" d="M124.177,130.304h-13.403c-1.539,0-2.764,0.455-2.738,1.02l0.041,0.912
		c0.024,0.576,1.316,1.045,2.882,1.045h13.649c1.567,0,2.763-0.469,2.668-1.045l-0.147-0.912
		C127.036,130.759,125.714,130.304,124.177,130.304"/>
	<path display="inline" fill="#7F7F7F" d="M81.184,134.163h-6.282c-0.537,0-0.998,0.162-1.03,0.363l-0.386,2.385
		c-0.034,0.207,0.382,0.375,0.927,0.375h6.401c0.546,0,1.009-0.168,1.033-0.375l0.266-2.385
		C82.138,134.325,81.721,134.163,81.184,134.163"/>
	<path display="inline" fill="#7F7F7F" d="M91.788,134.163h-6.282c-0.537,0-0.987,0.162-1.006,0.363l-0.236,2.385
		c-0.019,0.207,0.407,0.375,0.954,0.375h6.402c0.546,0,0.996-0.168,1.006-0.375l0.117-2.385
		C92.751,134.325,92.325,134.163,91.788,134.163"/>
	<path display="inline" fill="#7F7F7F" d="M102.393,134.163H96.11c-0.536,0-0.977,0.162-0.985,0.363l-0.078,2.385
		c-0.008,0.207,0.428,0.375,0.975,0.375h6.401c0.545,0,0.986-0.168,0.984-0.375l-0.038-2.385
		C103.365,134.325,102.929,134.163,102.393,134.163"/>
	<path display="inline" fill="#7F7F7F" d="M124.736,134.163h-13.723c-1.574,0-2.83,0.477-2.803,1.07l0.043,0.955
		c0.026,0.605,1.348,1.098,2.953,1.098h13.982c1.604,0,2.826-0.492,2.728-1.098l-0.156-0.955
		C127.666,134.64,126.312,134.163,124.736,134.163"/>
	<path display="inline" fill="#7F7F7F" d="M80.704,138.212h-6.435c-0.551,0-1.022,0.17-1.057,0.381l-0.406,2.506
		c-0.035,0.217,0.39,0.393,0.948,0.393h6.562c0.559,0,1.033-0.176,1.057-0.393l0.282-2.506
		C81.681,138.382,81.253,138.212,80.704,138.212"/>
	<path display="inline" fill="#7F7F7F" d="M91.568,138.212h-6.436c-0.551,0-1.011,0.17-1.033,0.381l-0.245,2.506
		c-0.021,0.217,0.415,0.393,0.975,0.393h6.56c0.562,0,1.023-0.176,1.033-0.393l0.122-2.506
		C92.555,138.382,92.116,138.212,91.568,138.212"/>
	<path display="inline" fill="#7F7F7F" d="M102.432,138.212h-6.436c-0.55,0-1,0.17-1.008,0.381l-0.085,2.506
		c-0.008,0.217,0.44,0.393,1.001,0.393h6.561c0.561,0,1.012-0.176,1.008-0.393l-0.04-2.506
		C103.43,138.382,102.98,138.212,102.432,138.212"/>
	<path display="inline" fill="#7F7F7F" d="M125.323,138.212h-14.059c-1.615,0-2.899,0.502-2.871,1.123l0.045,1.004
		c0.026,0.635,1.386,1.152,3.029,1.152H125.8c1.644,0,2.894-0.518,2.79-1.152l-0.164-1.004
		C128.325,138.714,126.938,138.212,125.323,138.212"/>
	<rect x="17.695" y="144.149" display="inline" fill="#202020" width="166.129" height="6.289"/>
	<rect x="17.695" y="150.438" display="inline" fill="#363636" width="166.129" height="42.014"/>
	<rect x="70.302" y="162.095" display="inline" fill="#202020" width="60.914" height="18.705"/>
	<rect x="73.183" y="171.112" display="inline" fill="#161616" width="55.156" height="6.809"/>
	<path display="inline" fill="none" stroke="#62AAA7" stroke-width="1.918" stroke-miterlimit="10" d="M161.027,111.862
		c0,10.518-8.526,19.043-19.045,19.043c-10.518,0-19.045-8.525-19.045-19.043c0-10.521,8.527-19.047,19.045-19.047
		C152.501,92.815,161.027,101.341,161.027,111.862z"/>
	
		<circle display="inline" fill="none" stroke="#62AAA7" stroke-width="1.918" stroke-miterlimit="10" cx="88.199" cy="133.28" r="19.045"/>
	
		<rect x="66.356" y="158.446" display="inline" fill="none" stroke="#62AAA7" stroke-width="1.918" stroke-miterlimit="10" width="68.798" height="27.635"/>
</g>
<g id="Capa_7" display="none">
	<g display="inline">
		<defs>
			<path id="SVGID_7_" d="M5.351,99.236c0,52.333,42.424,94.758,94.758,94.758s94.758-42.426,94.758-94.758
				c0-52.332-42.424-94.757-94.758-94.757S5.351,46.904,5.351,99.236"/>
		</defs>
		<clipPath id="SVGID_8_">
			<use xlink:href="#SVGID_7_"  overflow="visible"/>
		</clipPath>
		<path clip-path="url(#SVGID_8_)" fill="#261C58" d="M79.763,82.216c0,0,4.107,1.42,9.014,10.835
			c2.508,4.81,6.388,11.052,6.388,11.052l-11.451,6.215c0,0-6.158-2.662-9.117-6.066C71.638,100.849,79.763,82.216,79.763,82.216"/>
		<path clip-path="url(#SVGID_8_)" fill="#3F4CA8" d="M49.021,245.57l-1.148,6.061l-0.668,3.547l-1.065,5.617
			c0,0-7.227,1.188-7.067-2.043l0.107-2.854l0.166-4.6l0.272-7.361L49.021,245.57z"/>
		<path clip-path="url(#SVGID_8_)" fill="#2C3970" d="M47.874,251.631l-0.668,3.547c-1.103,0.271-3.563,0.709-8.026,0.721l0.166-4.6
			c2.912-1.359,5.895-2.502,5.895-2.502L47.874,251.631z"/>
		<path clip-path="url(#SVGID_8_)" fill="#3F4CA8" d="M84.943,240.949l-0.354,4.154l-0.313,3.693l-0.503,5.924
			c0,0-6.275,2.189-6.972-1.645l-0.355-1.941l-1.167-6.381l-0.78-4.279L84.943,240.949z"/>
		<path clip-path="url(#SVGID_8_)" fill="#2C3970" d="M84.589,245.104l-0.313,3.693c0,0-1.758,1.426-7.831,2.338l-1.167-6.381
			c0.25-0.266,0.405-0.42,0.405-0.42s5.425-0.592,6.065-0.396C82.245,244.086,83.866,244.789,84.589,245.104"/>
		<path clip-path="url(#SVGID_8_)" fill="#313C8C" d="M50.108,157.902c1.769,4.381,5.386,12.313,8.706,19.469
			c3.611,7.777,6.878,14.635,7.074,15.039l0.005,0.018l7.325,55.482c0,0,4.445,1.582,10.185,0.537
			c1.666-0.303,3.181-0.932,3.181-0.932s2.022-45.586-0.123-60.4c-1.566-10.822-11.688-46.547-11.688-46.547l-28.215-1.912
			C46.556,138.656,46.361,148.629,50.108,157.902"/>
		<path clip-path="url(#SVGID_8_)" fill="#252E64" d="M58.814,177.371c3.611,7.777,6.878,14.639,7.074,15.039l-5.598-29.18
			L58.814,177.371z"/>
		<path clip-path="url(#SVGID_8_)" fill="#313C8C" d="M58.427,139.529c0,0-2.463,3.146-12.794,3.652
			c-3.277,0.158-10.294,0.408-13.102-0.721c0,0-2.776,7.869,2.31,19.84l4.714,31.863c0,0-3.178,52.262-3.024,58.602
			c5.425,2.27,14.106,1.809,14.106,1.809s10.38-54.082,10.676-59.098C61.611,190.465,58.427,139.529,58.427,139.529"/>
		<path clip-path="url(#SVGID_8_)" fill="#261C58" d="M49.208,77.673l-9.495,2.595l-6.023,13.38v43.082c0,0-1.93,5.094,2.608,6.475
			s32.884,0.918,36.779,0.088c3.666-0.779,3.81-3.201,3.547-4.289c-0.456-1.873-0.485-4.07-0.399-5.996
			c0.361-8.115,1.061-25.428,2.551-33.552c0.943-5.136,0.988-17.24,0.988-17.24s-5.018-2.22-8.153-2.784
			C61.425,77.481,49.208,77.673,49.208,77.673"/>
		<path clip-path="url(#SVGID_8_)" fill="#3F4CA8" d="M71.61,79.432c0,0-1.945,5.484-9.047,5.218
			c-7.103-0.261-13.355-6.977-13.355-6.977c2.303-1.04,4.091-3.036,4.848-5.516c0.307-1.03,0.651-2.06,0.983-2.936
			c1.184-3.106,6.586-20.313,15.997-23.374l-1.662,21.054l-0.178,2.219c0,0-0.609,2.811-0.775,5.582
			c-0.029,0.497-0.042,0.995-0.037,1.474c0.013,1.254,0.801,2.367,1.979,2.799L71.61,79.432z"/>
		<path clip-path="url(#SVGID_8_)" fill="#2C3970" d="M69.374,66.902l-0.178,2.219c0,0-0.609,2.81-0.775,5.582
			c-6.038-2.338-6.333-9.073-6.333-9.073L69.374,66.902z"/>
		<path clip-path="url(#SVGID_8_)" fill="#3F4CA8" d="M82.366,52.031c0,0,1.332,9.94-5.031,18.581
			c-2.577,3.497-6.66,4.092-9.593,1.929c-2.156-1.59-6.544-5.21-6.893-7.867c-0.163-1.248-0.161-2.684,0.208-4.195
			c1.28-5.243,6.146-11.388,8.743-13.727C74.687,42.35,83.304,44.39,82.366,52.031"/>
		<path clip-path="url(#SVGID_8_)" fill="#261C58" d="M68.449,52.675c0.034-0.042,0.076-0.083,0.105-0.127
			c0.591-0.837-12.43-3.698-12.43-3.698s0.098,1.43-0.742,2.86c-0.838,1.431,0.791,3.452,0,5.623
			c-0.788,2.171,0.601,4.34,0.746,5.524c0.143,1.184,0,3.371,0,3.371s1.108-2.866,2.359-5.279c0.337-0.651,0.958-1.125,1.683-1.233
			c0.005,0,0.01-0.001,0.014-0.001c0.81-0.12,1.654-0.116,2.41-0.433c0.651-0.272,1.2-0.78,1.524-1.407
			c0.243-0.472,0.379-1.031,0.794-1.361c0.543-0.431,1.341-0.302,1.977-0.581c0.632-0.278,1.016-0.921,1.342-1.531
			c0.283-0.535,0.553-1.078,0.81-1.626L68.449,52.675z"/>
		<path clip-path="url(#SVGID_8_)" fill="#261C58" d="M56.026,48.966c0,0,15.717,6.547,26.797,5.834c0,0,3.464-13.941-9.314-16.901
			C57.933,34.292,56.026,48.966,56.026,48.966"/>
		<path clip-path="url(#SVGID_8_)" fill="#18133B" d="M64.739,56.544c0,0,8.193,3.309,17.429,2.521c0,0-0.07,0.79-0.228,1.518
			c-0.053,0.243-0.462,3.045-2.534,3.02c-1.485-0.017-2.43-1.923-3.132-2.146c-0.704-0.222-2.245,2.64-6.166,1.685
			c-3.409-0.83-5.555-6.006-5.555-6.006"/>
		<path clip-path="url(#SVGID_8_)" fill="#18133B" d="M55.791,50.843c0,0-0.892-0.376-0.71-1.402
			c0.205-1.165,1.011-0.933,1.011-0.933s14.426,6.543,26.805,5.828c0,0,1.041,0.043,0.773,1.357
			c-0.247,1.208-1.354,1.292-1.354,1.292s-3.593,0.792-12.749-1.164C65.958,55.051,61.575,53.658,55.791,50.843"/>
		<path clip-path="url(#SVGID_8_)" fill="#261C58" d="M76.625,252.662c0,0-1.239,1.621-1.557,3.795
			c-0.246,1.682-0.373,5.68-0.373,5.68s3.083,0.814,6.855,1.529c6.371,1.48,12.233,2.322,12.233,2.322
			c1.627,0.49,6.164-2.246-1.678-6.381c-1.213-1.201-6.371-5.793-7.078-6.533c-0.785-0.822-1.076-1.184-1.91-1.174
			c-1.199,0.018-1.271,0.988-2.378,1.264C78.127,253.814,76.625,252.662,76.625,252.662"/>
		<path clip-path="url(#SVGID_8_)" fill="#261C58" d="M46.793,259.121c0,0-0.286-0.807-1.938-0.846
			c-1.654-0.037-3.307,0.924-4.231,1.115c-0.923,0.193-1.478-1.115-1.478-1.115s-1.125,2.635-1.791,4.885
			c-0.587,1.986,0,5.588,0,5.588h19.188c0,0,1.487,0.002,1.629-1.627c0.103-1.18-0.31-2.463-5.665-3.885
			C50.115,262.602,47.353,259.584,46.793,259.121"/>
		<path clip-path="url(#SVGID_8_)" fill="#E5B44A" d="M41.96,171.539c-2.213-3.6-6.929-4.723-10.533-2.508c0,0-0.002,0-0.002,0.002
			c0,0,0,0-0.006,0.002c0,0.002,0,0.002-0.001,0.002c-3.603,2.217-4.726,6.932-2.511,10.533c0.98,1.594,2.451,2.699,4.099,3.248
			l-0.003,0.002c0,0,4.096,1.244,6.016,3.957l2.404-1.479l0.006-0.006l2.404-1.477c-1.553-2.939-0.818-7.156-0.818-7.156
			l-0.004,0.004C43.265,174.945,42.942,173.135,41.96,171.539"/>
		<path clip-path="url(#SVGID_8_)" fill="#E5B44A" d="M41.96,171.539c-2.213-3.6-6.929-4.723-10.533-2.508c0,0-0.002,0-0.002,0.002
			c0,0,0,0-0.006,0.002c0,0.002,0,0.002-0.001,0.002c-3.603,2.217-4.726,6.932-2.511,10.533c0.98,1.594,2.451,2.699,4.099,3.248
			l-0.003,0.002c0,0,4.096,1.244,6.016,3.957l2.404-1.479l0.006-0.006l2.404-1.477c-1.553-2.939-0.818-7.156-0.818-7.156
			l-0.004,0.004C43.265,174.945,42.942,173.135,41.96,171.539"/>
		<path clip-path="url(#SVGID_8_)" fill="none" stroke="#FFFFFF" stroke-width="0.4" stroke-miterlimit="10" d="M42.024,184.293
			c0,0-6.278-9.861-4.425-11.744c1.39-1.412,2.469,2.125-0.67,3.973c-0.44,0.262-0.874,0.525-1.303,0.803
			c-3.068,1.969-5.736-0.59-3.849-1.191c2.516-0.807,8.486,9.242,8.486,9.242"/>
		<g opacity="0.5" clip-path="url(#SVGID_8_)">
			<g>
				<defs>
					<rect id="SVGID_9_" x="30.44" y="167.893" width="13.394" height="17.201"/>
				</defs>
				<clipPath id="SVGID_10_">
					<use xlink:href="#SVGID_9_"  overflow="visible"/>
				</clipPath>
				<path clip-path="url(#SVGID_10_)" fill="#D68529" d="M43.009,176.664l0.007-0.004c0,0-0.734,4.215,0.813,7.158l-2.073,1.275
					c-1.555-2.938-0.823-7.154-0.823-7.154c0.248-1.715-0.072-3.523-1.052-5.117c-2.001-3.252-6.027-4.482-9.445-3.07
					c0.305-0.262,0.633-0.5,0.985-0.717l0.006-0.004c3.603-2.215,8.319-1.092,10.534,2.51
					C42.943,173.137,43.264,174.943,43.009,176.664"/>
			</g>
		</g>
		<path clip-path="url(#SVGID_8_)" fill="#FFFFFF" d="M44.405,183.221c0.193,0.311,0.028,0.637-0.215,0.906
			c-0.044,0.049-0.104,0.225-0.104,0.225c-0.103,0.211-0.088,0.463,0.034,0.658l0.761,1.238c0.744,1.209,0.301,2.822-1.013,3.473
			c-0.085,0.045-0.175,0.078-0.26,0.107l-0.008,0.002c-1.082,0.377-2.314-0.113-2.935-1.121l-0.702-1.141
			c-0.122-0.197-0.338-0.324-0.574-0.328c0,0-0.191-0.021-0.246-0.008c-0.352,0.098-0.717,0.098-0.906-0.215
			c-0.191-0.311-0.099-0.721,0.212-0.912l5.048-3.107C43.806,182.807,44.215,182.912,44.405,183.221"/>
		
			<rect x="39.688" y="186.268" transform="matrix(0.8518 -0.5239 0.5239 0.8518 -91.4327 49.7082)" clip-path="url(#SVGID_8_)" fill="#DEDEDE" width="4.884" height="0.337"/>
		
			<rect x="40.039" y="186.838" transform="matrix(0.8517 -0.524 0.524 0.8517 -91.6871 49.9841)" clip-path="url(#SVGID_8_)" fill="#DEDEDE" width="4.883" height="0.339"/>
		
			<rect x="40.391" y="187.41" transform="matrix(0.8519 -0.5236 0.5236 0.8519 -91.8802 50.2002)" clip-path="url(#SVGID_8_)" fill="#DEDEDE" width="4.883" height="0.339"/>
		<g opacity="0.5" clip-path="url(#SVGID_8_)">
			<g>
				<defs>
					<rect id="SVGID_11_" x="41.392" y="182.904" width="3.845" height="6.924"/>
				</defs>
				<clipPath id="SVGID_12_">
					<use xlink:href="#SVGID_11_"  overflow="visible"/>
				</clipPath>
				<path clip-path="url(#SVGID_12_)" fill="#DEDEDE" d="M44.405,183.221c0.193,0.311,0.028,0.637-0.215,0.906
					c-0.044,0.049-0.104,0.225-0.104,0.225c-0.103,0.211-0.088,0.463,0.034,0.658l0.761,1.238c0.744,1.209,0.301,2.822-1.013,3.473
					c-0.085,0.045-0.175,0.078-0.26,0.107c0.877-0.635,0.213-1.727,0.213-1.727l-1.438-2.338c-0.152-0.248-0.222-0.537-0.203-0.828
					c0.01-0.193,0.008-0.367-0.148-0.531c-0.284-0.313-0.637-0.111-0.637-0.111l2.102-1.295
					C43.806,182.807,44.215,182.912,44.405,183.221"/>
			</g>
		</g>
		<path clip-path="url(#SVGID_8_)" fill="#E5B44A" d="M52.886,198.953c3.692-2.059,5.017-6.719,2.958-10.414
			c0-0.004,0-0.004-0.002-0.004c0-0.002,0-0.002-0.002-0.004l0,0c-2.061-3.697-6.723-5.021-10.415-2.965
			c-1.634,0.912-2.802,2.334-3.422,3.955l-0.001-0.002c0,0-1.422,4.037-4.212,5.84l1.374,2.465l0.005,0.01l1.373,2.463
			c3.001-1.428,7.184-0.51,7.184-0.51l-0.003-0.002C49.427,200.109,51.251,199.865,52.886,198.953"/>
		<path clip-path="url(#SVGID_8_)" fill="#E5B44A" d="M52.886,198.953c3.692-2.059,5.017-6.719,2.958-10.414
			c0-0.004,0-0.004-0.002-0.004c0-0.002,0-0.002-0.002-0.004l0,0c-2.061-3.697-6.723-5.021-10.415-2.965
			c-1.634,0.912-2.802,2.334-3.422,3.955l-0.001-0.002c0,0-1.422,4.037-4.212,5.84l1.374,2.465l0.005,0.01l1.373,2.463
			c3.001-1.428,7.184-0.51,7.184-0.51l-0.003-0.002C49.427,200.109,51.251,199.865,52.886,198.953"/>
		<path clip-path="url(#SVGID_8_)" fill="none" stroke="#FFFFFF" stroke-width="0.4" stroke-miterlimit="10" d="M40.142,198.469
			c0,0,10.123-5.85,11.923-3.918c1.351,1.449-2.229,2.379-3.941-0.84c-0.24-0.451-0.487-0.896-0.745-1.336
			c-1.834-3.15,0.835-5.707,1.358-3.793c0.695,2.549-9.602,8.078-9.602,8.078"/>
		<g opacity="0.5" clip-path="url(#SVGID_8_)">
			<g>
				<defs>
					<rect id="SVGID_13_" x="39.355" y="187.518" width="17.466" height="12.775"/>
				</defs>
				<clipPath id="SVGID_14_">
					<use xlink:href="#SVGID_13_"  overflow="visible"/>
				</clipPath>
				<path clip-path="url(#SVGID_14_)" fill="#D68529" d="M47.721,199.779l0.004,0.008c0,0-4.179-0.914-7.185,0.506l-1.187-2.127
					c3.001-1.428,7.181-0.514,7.181-0.514c1.706,0.32,3.523,0.08,5.161-0.832c3.333-1.857,4.736-5.828,3.473-9.303
					c0.248,0.314,0.473,0.654,0.674,1.014l0.002,0.008c2.06,3.693,0.732,8.355-2.961,10.416
					C51.248,199.867,49.43,200.107,47.721,199.779"/>
			</g>
		</g>
		<path clip-path="url(#SVGID_8_)" fill="#FFFFFF" d="M41.109,200.893c-0.318,0.178-0.636,0.002-0.896-0.254
			c-0.045-0.047-0.218-0.113-0.218-0.113c-0.208-0.113-0.459-0.109-0.661,0.004l-1.269,0.707c-1.241,0.691-2.833,0.182-3.427-1.162
			c-0.039-0.086-0.071-0.176-0.093-0.264l-0.004-0.008c-0.329-1.098,0.213-2.309,1.246-2.885l1.171-0.652
			c0.201-0.111,0.337-0.322,0.352-0.559c0,0,0.03-0.189,0.017-0.246c-0.079-0.355-0.064-0.717,0.256-0.896
			c0.318-0.178,0.725-0.068,0.903,0.252l2.885,5.176C41.548,200.311,41.429,200.717,41.109,200.893"/>
		
			<rect x="35.554" y="198.312" transform="matrix(0.4868 0.8735 -0.8735 0.4868 192.8688 68.6635)" clip-path="url(#SVGID_8_)" fill="#DEDEDE" width="4.883" height="0.338"/>
		
			<rect x="34.968" y="198.638" transform="matrix(0.4868 0.8735 -0.8735 0.4868 192.8529 69.3429)" clip-path="url(#SVGID_8_)" fill="#DEDEDE" width="4.883" height="0.337"/>
		
			<rect x="34.383" y="198.963" transform="matrix(0.4871 0.8734 -0.8734 0.4871 192.8007 69.9781)" clip-path="url(#SVGID_8_)" fill="#DEDEDE" width="4.882" height="0.339"/>
		<g opacity="0.5" clip-path="url(#SVGID_8_)">
			<g>
				<defs>
					<rect id="SVGID_15_" x="34.541" y="197.836" width="6.918" height="3.707"/>
				</defs>
				<clipPath id="SVGID_16_">
					<use xlink:href="#SVGID_15_"  overflow="visible"/>
				</clipPath>
				<path clip-path="url(#SVGID_16_)" fill="#DEDEDE" d="M41.109,200.893c-0.318,0.178-0.636,0.002-0.896-0.254
					c-0.045-0.047-0.218-0.113-0.218-0.113c-0.208-0.113-0.459-0.109-0.661,0.004l-1.269,0.707
					c-1.241,0.691-2.833,0.182-3.427-1.162c-0.039-0.086-0.071-0.176-0.093-0.264c0.595,0.902,1.714,0.287,1.714,0.287l2.397-1.334
					c0.254-0.143,0.546-0.201,0.835-0.17c0.191,0.02,0.366,0.025,0.539-0.125c0.321-0.27,0.139-0.631,0.139-0.631l1.201,2.154
					C41.548,200.311,41.429,200.717,41.109,200.893"/>
			</g>
		</g>
		<path clip-path="url(#SVGID_8_)" fill="#E5B44A" d="M35.129,201.01c3.532,2.322,8.278,1.34,10.603-2.197v-0.002
			c0.002,0,0.003-0.002,0.004-0.004c0.002,0,0.002-0.002,0.002-0.002c2.322-3.537,1.338-8.281-2.193-10.604
			c-1.564-1.027-3.366-1.402-5.09-1.203l0.001-0.004c0,0-4.237,0.609-7.126-1.029l-1.548,2.357l-0.006,0.008l-1.549,2.357
			c2.653,2.002,3.776,6.133,3.776,6.133l0.002-0.004C32.504,198.479,33.564,199.982,35.129,201.01"/>
		<path clip-path="url(#SVGID_8_)" fill="#E5B44A" d="M35.129,201.01c3.532,2.322,8.278,1.34,10.603-2.197v-0.002
			c0.002,0,0.003-0.002,0.004-0.004c0.002,0,0.002-0.002,0.002-0.002c2.322-3.537,1.338-8.281-2.193-10.604
			c-1.564-1.027-3.366-1.402-5.09-1.203l0.001-0.004c0,0-4.237,0.609-7.126-1.029l-1.548,2.357l-0.006,0.008l-1.549,2.357
			c2.653,2.002,3.776,6.133,3.776,6.133l0.002-0.004C32.504,198.479,33.564,199.982,35.129,201.01"/>
		<path clip-path="url(#SVGID_8_)" fill="none" stroke="#FFFFFF" stroke-width="0.4" stroke-miterlimit="10" d="M29.663,189.488
			c0,0,9.868,6.266,8.988,8.756c-0.66,1.869-3.138-0.873-1.078-3.881c0.289-0.422,0.568-0.848,0.841-1.279
			c1.942-3.084,5.442-1.898,3.99-0.551c-1.936,1.795-11.606-4.775-11.606-4.775"/>
		<g opacity="0.5" clip-path="url(#SVGID_8_)">
			<g>
				<defs>
					<rect id="SVGID_17_" x="28.229" y="188.648" width="18.1" height="13.619"/>
				</defs>
				<clipPath id="SVGID_18_">
					<use xlink:href="#SVGID_17_"  overflow="visible"/>
				</clipPath>
				<path clip-path="url(#SVGID_18_)" fill="#D68529" d="M32.006,196.813l-0.004,0.006c0,0-1.123-4.127-3.773-6.135l1.336-2.035
					c2.655,2,3.778,6.129,3.778,6.129c0.505,1.66,1.559,3.162,3.125,4.189c3.19,2.096,7.36,1.502,9.854-1.229
					c-0.165,0.367-0.361,0.725-0.588,1.068l-0.004,0.008c-2.322,3.531-7.07,4.518-10.604,2.195
					C33.562,199.98,32.506,198.48,32.006,196.813"/>
			</g>
		</g>
		<path clip-path="url(#SVGID_8_)" fill="#FFFFFF" d="M27.96,191.467c-0.304-0.201-0.293-0.563-0.188-0.912
			c0.021-0.061,0-0.246,0-0.246c0.004-0.234-0.119-0.457-0.309-0.584l-1.214-0.797c-1.188-0.779-1.471-2.428-0.557-3.574
			c0.059-0.074,0.125-0.145,0.192-0.207l0.004-0.006c0.82-0.801,2.145-0.879,3.133-0.23l1.121,0.736
			c0.192,0.127,0.442,0.15,0.659,0.053c0,0,0.181-0.059,0.224-0.098c0.278-0.236,0.608-0.391,0.914-0.189
			c0.304,0.201,0.395,0.611,0.195,0.918l-3.254,4.953C28.679,191.59,28.265,191.668,27.96,191.467"/>
		
			<rect x="26.217" y="187.421" transform="matrix(-0.5492 0.8357 -0.8357 -0.5492 201.1601 266.6736)" clip-path="url(#SVGID_8_)" fill="#DEDEDE" width="4.882" height="0.337"/>
		
			<rect x="25.656" y="187.053" transform="matrix(-0.5489 0.8359 -0.8359 -0.5489 200.0154 266.5048)" clip-path="url(#SVGID_8_)" fill="#DEDEDE" width="4.884" height="0.338"/>
		
			<rect x="25.095" y="186.683" transform="matrix(-0.549 0.8358 -0.8358 -0.549 198.832 266.4158)" clip-path="url(#SVGID_8_)" fill="#DEDEDE" width="4.884" height="0.339"/>
		<g opacity="0.5" clip-path="url(#SVGID_8_)">
			<g>
				<defs>
					<rect id="SVGID_19_" x="25.153" y="185.148" width="5.085" height="6.43"/>
				</defs>
				<clipPath id="SVGID_20_">
					<use xlink:href="#SVGID_19_"  overflow="visible"/>
				</clipPath>
				<path clip-path="url(#SVGID_20_)" fill="#DEDEDE" d="M27.96,191.467c-0.304-0.201-0.293-0.563-0.188-0.912
					c0.021-0.061,0-0.246,0-0.246c0.004-0.234-0.119-0.457-0.309-0.584l-1.214-0.797c-1.188-0.779-1.471-2.428-0.557-3.574
					c0.059-0.074,0.125-0.145,0.192-0.207c-0.527,0.945,0.536,1.654,0.536,1.654l2.294,1.508c0.244,0.158,0.43,0.391,0.536,0.662
					c0.07,0.178,0.146,0.334,0.359,0.418c0.389,0.162,0.624-0.168,0.624-0.168l-1.355,2.063
					C28.679,191.59,28.265,191.668,27.96,191.467"/>
			</g>
		</g>
		<path clip-path="url(#SVGID_8_)" fill="#707FD1" d="M46.321,153.225c-6.696,5.029-13.383,10.615-17.625,17.965
			c-3.969,6.877-5.563,15.648-1.916,23.004c1.743,3.512,4.634,6.014,8.29,7.391c3.702,1.395,8.011,1.859,11.931,1.355
			c3.687-0.475,6.974-2.248,8.678-5.654c1.599-3.197,1.64-6.879,1.033-10.33c-1.786-10.129-9.534-19.486-7.287-30.178
			c0.082-0.389-0.513-0.555-0.598-0.164c-1.801,8.568,2.796,16.527,5.578,24.326c2.297,6.439,4.158,16.65-3.587,20.316
			c-3.613,1.709-8.19,1.469-12.021,0.725c-3.885-0.754-7.648-2.471-10.047-5.729c-4.865-6.605-3.999-15.715-0.585-22.74
			c3.997-8.234,11.29-14.359,18.468-19.754C46.947,153.523,46.64,152.984,46.321,153.225"/>
		<path clip-path="url(#SVGID_8_)" fill="#707FD1" d="M46.983,153.465c-6.076,5.133-11.458,11.234-15.078,18.359
			c-2.381,4.688-4.064,9.844-4.133,15.139c-0.053,4.152,0.695,8.59,3.035,12.098c0.22,0.33,0.756,0.021,0.535-0.314
			c-3.656-5.475-3.568-13.027-1.844-19.156c1.548-5.502,4.354-10.611,7.792-15.156c2.949-3.895,6.404-7.383,10.133-10.533
			C47.726,153.645,47.286,153.209,46.983,153.465"/>
		<path clip-path="url(#SVGID_8_)" fill="#707FD1" d="M47.267,154.008c-2.684,2.365-4.902,5.246-6.877,8.217
			c-2.036,3.068-3.842,6.307-5.328,9.678c-2.969,6.729-4.654,14.496-3.704,21.857c0.318,2.469,0.914,5.16,2.502,7.15
			c0.248,0.311,0.684-0.129,0.438-0.438c-1.366-1.715-1.917-4.057-2.245-6.176c-0.524-3.391-0.386-6.895,0.122-10.277
			c1.114-7.406,4.133-14.293,8.153-20.568c2.09-3.262,4.457-6.434,7.376-9.008C48.003,154.18,47.565,153.746,47.267,154.008"/>
		<path clip-path="url(#SVGID_8_)" fill="#707FD1" d="M46.983,155.289c-1.934,1.764-3.303,4.174-4.513,6.463
			c-1.679,3.176-3.066,6.508-4.278,9.889c-1.253,3.506-2.322,7.092-3.092,10.74c-0.622,2.955-1.113,6.014-0.922,9.043
			c0.25,3.959,1.18,8.826,4.727,11.188c0.332,0.223,0.642-0.314,0.313-0.535c-3.279-2.182-4.147-6.781-4.405-10.432
			c-0.209-2.949,0.229-5.912,0.822-8.795c1.411-6.855,3.758-13.668,6.92-19.916c1.286-2.539,2.736-5.266,4.867-7.207
			C47.716,155.459,47.278,155.021,46.983,155.289"/>
		<path clip-path="url(#SVGID_8_)" fill="#707FD1" d="M48.803,156.832c-0.8,2.668-1.478,5.381-1.646,8.172
			c-0.184,3.025,0.308,5.994,1.11,8.902c0.841,3.051,2.026,5.977,3.038,8.971c1.038,3.066,1.686,6.342,1.686,9.588
			c-0.003,3.172-0.677,6.787-3.024,9.088c-0.285,0.281,0.152,0.717,0.436,0.439c1.889-1.852,2.679-4.398,3.036-6.965
			c0.417-3.01,0.049-6.127-0.621-9.074c-1.457-6.391-4.884-12.223-5.075-18.908c-0.099-3.439,0.677-6.777,1.655-10.049
			C49.514,156.613,48.916,156.449,48.803,156.832"/>
		<path clip-path="url(#SVGID_8_)" fill="#707FD1" d="M47.523,155.412c-2.198,2.795-3.643,6.166-4.933,9.455
			c-0.808,2.063-1.562,4.133-2.088,6.285c-0.726,2.969-1.333,5.973-1.733,9.004c-0.445,3.377-0.447,6.719-0.119,10.105
			c0.396,4.09,0.97,8.145,1.172,12.252c0.021,0.396,0.639,0.4,0.62,0c-0.338-6.83-1.927-13.68-1.265-20.531
			c0.494-5.098,1.542-10.262,3.304-15.08c1.391-3.809,2.95-7.836,5.481-11.051C48.206,155.539,47.77,155.1,47.523,155.412"/>
		<path clip-path="url(#SVGID_8_)" fill="#707FD1" d="M47.299,157.178c-1.106,1.539-1.698,3.295-2.321,5.061
			c-0.774,2.195-1.371,4.455-1.816,6.738c-0.647,3.307-0.972,6.691-0.834,10.064c0.161,3.855,0.942,7.674,1.282,11.518
			c0.357,4.049,0.435,8.246-0.93,12.129c-0.134,0.377,0.464,0.539,0.596,0.166c2.423-6.898,0.611-14.465-0.155-21.484
			c-0.667-6.113,0.277-12.416,2.204-18.234c0.646-1.953,1.304-3.965,2.508-5.645C48.067,157.168,47.529,156.857,47.299,157.178"/>
		<path clip-path="url(#SVGID_8_)" fill="#707FD1" d="M47.818,157.705c-0.983,2.234-1.801,4.445-2.171,6.852
			c-0.453,2.938-0.704,5.93-0.556,8.9c0.186,3.686,1.434,7.096,2.436,10.613c1.066,3.744,1.462,7.375,0.813,11.24
			c-0.411,2.439-1.046,5.027-2.22,7.23c-0.187,0.352,0.347,0.666,0.535,0.313c0.884-1.662,1.443-3.547,1.875-5.367
			c0.849-3.584,1.054-7.215,0.29-10.83c-0.77-3.648-2.332-7.131-2.883-10.822c-0.478-3.209-0.29-6.525,0.113-9.73
			c0.131-1.033,0.274-2.07,0.489-3.088c0.356-1.709,1.112-3.406,1.813-4.998C48.511,157.656,47.978,157.342,47.818,157.705"/>
		<path clip-path="url(#SVGID_8_)" fill="#707FD1" d="M25.985,192.133c0.892,0.564,1.717,1.244,2.588,1.844
			c1.54,1.059,3.146,2.025,4.83,2.844c4.26,2.072,9.027,3.172,13.755,2.402c3.393-0.557,6.517-2.059,9.262-4.098
			c0.316-0.236,0.008-0.771-0.313-0.535c-4.605,3.424-10.14,4.98-15.823,3.918c-4.019-0.754-7.745-2.592-11.111-4.869
			c-0.972-0.656-1.886-1.412-2.878-2.041C25.959,191.385,25.65,191.918,25.985,192.133"/>
		<path clip-path="url(#SVGID_8_)" fill="#707FD1" d="M25.173,188.527c2.769,1.008,5.616,1.809,8.375,2.83
			c1.253,0.465,2.5,0.908,3.796,1.254c5.232,1.4,10.616,1.482,15.856,0.072c1.264-0.342,2.54-0.74,3.728-1.295
			c0.359-0.168,0.047-0.703-0.312-0.533c-3.224,1.504-7.031,2.172-10.555,2.266c-4.203,0.109-8.354-0.848-12.267-2.328
			c-0.884-0.332-2.333-0.762-3.424-1.123c-1.686-0.557-3.365-1.131-5.032-1.738C24.963,187.793,24.802,188.393,25.173,188.527"/>
		<path clip-path="url(#SVGID_8_)" fill="#707FD1" d="M24.949,185.4c2.023,0.662,4.09,0.871,6.139,1.373
			c1.777,0.434,3.575,0.791,5.382,1.082c5.358,0.865,10.683,0.945,15.952-0.523c1.31-0.363,2.652-0.789,3.866-1.414
			c0.354-0.184,0.042-0.719-0.313-0.537c-0.956,0.498-2.003,0.842-3.029,1.154c-2.604,0.795-5.344,1.271-8.065,1.367
			c-4.474,0.158-9.019-0.625-13.358-1.66c-2.141-0.512-4.301-0.748-6.408-1.439C24.734,184.68,24.571,185.277,24.949,185.4"/>
		<path clip-path="url(#SVGID_8_)" fill="#707FD1" d="M25.399,182.205c3.657,0.488,7.356,0.846,11.028,1.225
			c2.67,0.275,5.345,0.6,8.035,0.488c2.315-0.098,4.623-0.414,6.896-0.852c1.27-0.244,2.542-0.518,3.787-0.871
			c0.383-0.109,0.22-0.707-0.165-0.596c-3.185,0.904-6.532,1.461-9.832,1.662c-2.629,0.162-5.223-0.096-7.834-0.359
			c-2.398-0.242-4.794-0.51-7.188-0.793c-1.571-0.189-3.16-0.314-4.726-0.523C25.006,181.535,25.01,182.154,25.399,182.205"/>
		<path clip-path="url(#SVGID_8_)" fill="#707FD1" d="M25.993,178.779c1.089,0.074,2.18,0.303,3.26,0.461
			c1.772,0.264,3.55,0.498,5.331,0.699c2.135,0.238,4.28,0.438,6.43,0.492c2.274,0.059,4.509-0.217,6.756-0.551
			c2.049-0.303,4.096-0.658,6.118-1.111c0.388-0.088,0.225-0.684-0.164-0.598c-3.974,0.893-8.152,1.705-12.234,1.65
			c-3.969-0.051-7.944-0.572-11.867-1.148c-1.202-0.176-2.418-0.43-3.63-0.512C25.596,178.133,25.598,178.754,25.993,178.779"/>
		<path clip-path="url(#SVGID_8_)" fill="#707FD1" d="M27.321,175.023c3.362,0.848,6.723,1.549,10.189,1.834
			c4.484,0.369,9.097-0.023,13.505-0.926c0.549-0.111,1.125-0.217,1.644-0.436c0.366-0.154,0.051-0.688-0.312-0.535
			c0.165-0.07-0.157,0.049-0.209,0.064c-0.316,0.092-0.636,0.17-0.959,0.24c-1.611,0.354-3.255,0.563-4.892,0.748
			c-4.89,0.555-9.684,0.367-14.517-0.578c-1.444-0.281-2.859-0.65-4.285-1.01C27.1,174.328,26.935,174.924,27.321,175.023"/>
		<path clip-path="url(#SVGID_8_)" fill="#707FD1" d="M28.462,172.467c3.801,0.748,7.667,1.176,11.54,1.215
			c3.746,0.037,7.406-0.785,11.058-1.539c0.39-0.08,0.224-0.676-0.164-0.598c-3.599,0.742-7.204,1.555-10.894,1.518
			c-3.82-0.039-7.629-0.455-11.375-1.191C28.239,171.795,28.072,172.391,28.462,172.467"/>
		<path clip-path="url(#SVGID_8_)" fill="#707FD1" d="M30.163,169.656c6.614,1.412,13.569,2.223,20.115,0.047
			c0.374-0.125,0.214-0.725-0.165-0.598c-6.446,2.145-13.275,1.344-19.787-0.045C29.939,168.977,29.772,169.574,30.163,169.656"/>
		<path clip-path="url(#SVGID_8_)" fill="#707FD1" d="M31.602,167.467c5.865,1.596,11.999,1.875,17.988,0.832
			c0.391-0.068,0.225-0.664-0.165-0.596c-5.877,1.021-11.904,0.732-17.659-0.834C31.382,166.764,31.218,167.361,31.602,167.467"/>
		<path clip-path="url(#SVGID_8_)" fill="#707FD1" d="M33.775,164.939c4.923,1.875,10.267,2.363,15.453,1.439
			c0.391-0.068,0.225-0.664-0.165-0.596c-5.077,0.904-10.307,0.395-15.123-1.441C33.567,164.201,33.406,164.801,33.775,164.939"/>
		<path clip-path="url(#SVGID_8_)" fill="#707FD1" d="M36.123,162.6c2.084,0.811,4.234,1.434,6.432,1.846
			c2.052,0.383,4.217,0.725,6.288,0.305c0.39-0.082,0.224-0.678-0.165-0.598c-2.101,0.426-4.347,0.021-6.419-0.395
			c-2.039-0.41-4.034-1.002-5.972-1.756C35.915,161.859,35.755,162.457,36.123,162.6"/>
		<path clip-path="url(#SVGID_8_)" fill="#707FD1" d="M38.215,160.42c2.843,2.506,6.67,3.75,10.444,3.357
			c0.393-0.043,0.396-0.66,0-0.619c-3.613,0.377-7.278-0.771-10.007-3.176C38.354,159.723,37.916,160.156,38.215,160.42"/>
		<path clip-path="url(#SVGID_8_)" fill="#707FD1" d="M40.037,158.949c2.474,1.9,5.338,3.488,8.527,3.574
			c0.397,0.01,0.397-0.609,0-0.619c-3.077-0.084-5.833-1.66-8.216-3.488C40.032,158.174,39.724,158.709,40.037,158.949"/>
		<path clip-path="url(#SVGID_8_)" fill="#707FD1" d="M41.824,157.262c1.544,2.133,3.896,3.617,6.501,4.043
			c0.389,0.064,0.557-0.533,0.164-0.596c-2.44-0.4-4.679-1.754-6.132-3.76C42.126,156.629,41.589,156.938,41.824,157.262"/>
		<path clip-path="url(#SVGID_8_)" fill="#707FD1" d="M43.426,155.689c0.131,0.502,0.482,0.879,0.851,1.225
			c0.394,0.375,0.803,0.732,1.225,1.074c0.854,0.689,1.76,1.314,2.709,1.867c0.345,0.201,0.658-0.334,0.314-0.533
			c-0.88-0.51-1.726-1.082-2.52-1.721c-0.391-0.313-0.77-0.639-1.138-0.98c-0.336-0.313-0.725-0.635-0.846-1.098
			C43.923,155.139,43.326,155.303,43.426,155.689"/>
		<g opacity="0.5" clip-path="url(#SVGID_8_)">
			<g>
				<defs>
					<rect id="SVGID_21_" x="33.853" y="144.576" width="39.787" height="1.758"/>
				</defs>
				<clipPath id="SVGID_22_">
					<use xlink:href="#SVGID_21_"  overflow="visible"/>
				</clipPath>
				<path clip-path="url(#SVGID_22_)" fill="#252E64" d="M33.856,145.109c0,0,0.622,0.041,1.711,0.115
					c1.087,0.078,2.644,0.152,4.509,0.242c0.933,0.051,1.943,0.09,3.012,0.125c1.069,0.031,2.197,0.064,3.364,0.096
					c1.167,0.025,2.373,0.055,3.597,0.063c1.225-0.004,2.47,0.018,3.713-0.014c1.245-0.004,2.49-0.006,3.713-0.049
					c1.225-0.021,2.429-0.061,3.594-0.127c1.167-0.051,2.292-0.096,3.359-0.172c1.066-0.066,2.078-0.115,3.005-0.211
					c0.932-0.078,1.785-0.148,2.542-0.213c0.754-0.08,1.413-0.152,1.952-0.213c1.087-0.113,1.707-0.176,1.707-0.176
					s-0.615,0.104-1.69,0.289c-0.539,0.09-1.194,0.197-1.942,0.318c-0.755,0.098-1.605,0.207-2.535,0.326
					c-0.929,0.125-1.938,0.207-3.008,0.311c-0.534,0.047-1.082,0.1-1.642,0.148c-0.563,0.035-1.137,0.07-1.722,0.105
					c-1.168,0.078-2.375,0.131-3.606,0.166c-1.226,0.055-2.476,0.072-3.722,0.09c-1.249,0.016-2.498-0.02-3.727-0.029
					c-1.227-0.02-2.437-0.064-3.605-0.1c-1.169-0.049-2.299-0.102-3.369-0.182c-1.07-0.068-2.081-0.143-3.013-0.221
					c-1.865-0.146-3.415-0.334-4.499-0.461C34.473,145.209,33.856,145.109,33.856,145.109"/>
			</g>
		</g>
		<path clip-path="url(#SVGID_8_)" fill="#3F4CA8" d="M46.555,145.734c0,0,1.458,1.885,2.691,2.377
			c1.232,0.494,3.008,0.73,3.945,1.174c0.937,0.445,2.17,2.244,3.128,3.254c0.468,0.494-0.761,1.482-2.191,0.74
			c-1.431-0.74-2.172-1.504-3.082-1.924c-0.912-0.418-0.986-0.045-1.777,0.637c-0.789,0.684-2.961,2.949-2.961,2.949
			s-1.552,0-2.168-1.773c-0.616-1.777-1.727-2.895-2.442-3.834"/>
		<path clip-path="url(#SVGID_8_)" fill="#707FD1" d="M54.289,151.758c1.712-0.908,4.079,0.25,4.154-0.268
			c0.073-0.518-1.177-3.094-2.403-3.514c-1.229-0.42-3.581,2.123-3.581,2.123S53.328,150.969,54.289,151.758"/>
		<path clip-path="url(#SVGID_8_)" fill="#3F4CA8" d="M44.335,153.615c0,0,0.52,1.367,0.964,1.908
			c0.443,0.545,2.219,1.975,3.131,2.367c0.913,0.396,1.801,0.346,2.293,0.15c0.494-0.197,0.543-0.543,0.543-0.543
			s0.616,0,1.358-0.395c0.739-0.395,0.64-1.086,0.64-1.086s0.69-0.172,1.035-0.592c0.345-0.418,0.247-1.037,0.247-1.037
			s0.59,0,0.886-0.465c0.3-0.469-0.097-1.311-0.121-1.434c-0.025-0.123-4.636-1.75-4.636-1.75H49.06
			C48.924,150.74,44.335,153.615,44.335,153.615"/>
		<path clip-path="url(#SVGID_8_)" fill="#261C58" d="M35.04,82.814c-4.053,3.84-14.065,15.332-17.648,37.344
			c-0.397,2.438,0.435,4.914,1.837,6.945c3.475,5.037,9.47,12.914,22.732,24.092l6.553-5.605l-14.541-23.553
			c0,0,10.108-14.15,14.425-27.639c1.452-4.538,1.283-9.026-1.973-12.231c-0.142-0.139-0.282-0.271-0.423-0.396
			C42.769,78.921,38.167,79.849,35.04,82.814"/>
		<path clip-path="url(#SVGID_8_)" fill="#1D1949" d="M47.203,97.78c-0.412,1.08-0.859,2.144-1.308,3.208
			c-0.448,1.066-0.901,2.127-1.379,3.178c-0.472,1.057-0.957,2.104-1.457,3.145c-0.494,1.045-0.998,2.084-1.523,3.115
			c-0.521,1.029-1.045,2.063-1.595,3.08c-0.552,1.016-1.109,2.031-1.688,3.035c-0.292,0.5-0.578,1.004-0.885,1.498l-0.927,1.479
			l-0.978,1.451c-0.336,0.479-0.709,0.941-1.062,1.41l0.039-0.631l3.579,5.924l3.543,5.945c1.174,1.984,2.347,3.973,3.499,5.973
			c1.156,1.996,2.321,3.988,3.453,6c-1.292-1.912-2.552-3.846-3.819-5.775c-1.271-1.926-2.522-3.863-3.771-5.803l-3.727-5.832
			l-3.692-5.854l-0.193-0.307l0.23-0.322l0.986-1.379l0.939-1.426c0.605-0.971,1.188-1.953,1.77-2.943
			c0.584-0.986,1.146-1.986,1.704-2.992l1.669-3.018l3.286-6.078L47.203,97.78z"/>
		<path clip-path="url(#SVGID_8_)" fill="#7F88FA" d="M71.476,60.833c-0.046,0.507,0.174,0.941,0.493,0.972
			c0.317,0.028,0.614-0.359,0.659-0.866c0.047-0.507-0.173-0.942-0.492-0.971C71.818,59.938,71.522,60.326,71.476,60.833"/>
		<path clip-path="url(#SVGID_8_)" fill="#7F88FA" d="M79.446,61.575c-0.089,0.5-0.418,0.86-0.731,0.805
			c-0.315-0.057-0.497-0.509-0.406-1.011c0.09-0.5,0.418-0.859,0.732-0.804C79.356,60.622,79.537,61.074,79.446,61.575"/>
		<path clip-path="url(#SVGID_8_)" fill="#2C3970" d="M73.312,68.347c0.058-0.008,0.118,0.013,0.185,0.062
			c1.693,1.239,3.17,0.602,3.186,0.595c0.199-0.084,0.269,0.035,0.287,0.075c0.048,0.109-0.002,0.221-0.123,0.275
			c-0.128,0.057-1.301,0.535-2.765-0.132c-0.031-0.014-0.064-0.03-0.094-0.046c-0.227-0.116-0.447-0.278-0.677-0.446l-0.037-0.028
			c-0.134-0.099-0.126-0.211-0.074-0.285C73.228,68.379,73.268,68.354,73.312,68.347"/>
		<path clip-path="url(#SVGID_8_)" fill="#2C3970" d="M75.878,65.566c0.023,0.01,0.048,0.014,0.074,0.011
			c0.036-0.001,0.868-0.033,1.179-0.811c0.296-0.74-0.298-2.056-0.323-2.113c-0.037-0.093-0.091-0.169-0.185-0.131
			c-0.095,0.038-0.073,0.126-0.035,0.22c0.143,0.351,0.402,1.387,0.202,1.886c-0.224,0.562-0.838,0.669-0.865,0.67
			c-0.1,0.007-0.182,0.074-0.176,0.133C75.754,65.506,75.812,65.542,75.878,65.566"/>
		<path clip-path="url(#SVGID_8_)" fill="#3F4CA8" d="M64.982,58.035c0,0,0.317-2.493-2.371-2.489
			c-3.677,0.006-2.019,6.633-0.393,7.324C63.165,63.273,64.658,61.805,64.982,58.035"/>
		<path clip-path="url(#SVGID_8_)" fill="#ECC6A6" d="M153.403,101.293l4.032,11.484l15.599-16.588l4.897,3.817
			c0,0-2.999,4.246-5.589,9.65c-4.474,9.34-10.944,21.754-14.907,22.168c-5.66,0.592-13.534-17.172-13.534-17.172l-2.144-12.619
			L153.403,101.293z"/>
		<path clip-path="url(#SVGID_8_)" fill="#ECC6A6" d="M118.594,240.928l-0.012,0.059l-1.266,6.518l-0.006,0.006l-3.186,16.359
			c-2.467,1.77-6.48,0-6.48,0v-22.309l1.557-0.088l9.08-0.525L118.594,240.928z"/>
		<path clip-path="url(#SVGID_8_)" fill="#ECC6A6" d="M152.735,240.109l-0.444,4.406l-0.356,3.582l-1.562,15.553
			c0,0-2.896,1.865-5.493,0l-1.769-11.684l-1.32-8.695l-0.581-3.822L152.735,240.109z"/>
		<path clip-path="url(#SVGID_8_)" fill="#D49574" d="M152.291,244.516l-0.356,3.582h-0.007c-5.337,3.236-8.646,3.84-8.816,3.869
			l-1.32-8.695c2.248,0.25,10.137,1.207,10.137,1.207S152.071,244.486,152.291,244.516"/>
		<path clip-path="url(#SVGID_8_)" fill="#D49574" d="M118.582,240.986l-1.266,6.518l-0.006,0.006c0,0-2.119,1.568-9.666,3.049
			v-7.873c0.556-0.443,1.083-0.852,1.557-1.213c1.201-0.918,2.029-1.51,2.029-1.51l7.051,0.984L118.582,240.986z"/>
		<path clip-path="url(#SVGID_8_)" fill="#4450D3" d="M147.752,137.26c7.181,11.334,7.608,34.367,8.364,54.641
			c0.648,17.406,1.319,53.754,1.319,53.754s-6.646,3.158-20.17,0.494L134.513,192l-4.06-30.176l-4.128-32.258L147.752,137.26z"/>
		<path clip-path="url(#SVGID_8_)" fill="#4450D3" d="M113.932,138.443c0,0-3.784,9.855-5.363,19.73
			c-1.333,8.328-5.293,86.811-5.293,86.811s9.914,2.971,19.104,1.271c0,0,11.45-65.789,13.172-82.656
			c1.724-16.869,1.714-25.156,1.714-25.156H113.932z"/>
		<path clip-path="url(#SVGID_8_)" fill="#030545" d="M142.603,50.845c0,0,1.757,1.222,1.972,5.92c0.128,2.766-1.282,3.649,0,7.497
			c1.283,3.847,2.483,6.328,1.793,10.275c-0.69,3.946-4.656,10.28-3.768,12.451c0,0,1.843-0.984-4.913-2.391
			c-1.512-0.315-5.738-2.283-5.738-2.283s-0.494-6.609,0-7.596c0.492-0.987,5.426-22.096,5.426-22.096"/>
		<path clip-path="url(#SVGID_8_)" fill="#ECC6A6" d="M132.54,92.574c-6.665-0.059-18.608-7.139-18.608-7.139l6.169-2.217
			c1.587-0.57,2.754-1.96,2.993-3.63c0.937-6.578-0.912-18.384-0.912-18.384l11.245,5.77c0.153,1.829,0.504,4.159,0.895,6.439
			c0.42,2.457,0.892,4.848,1.229,6.47c0.075,0.359,0.143,0.682,0.198,0.958c0.139,0.658,0.642,1.177,1.297,1.334l3.233,0.774
			l1.632,0.536C141.911,83.486,143.785,92.669,132.54,92.574"/>
		<path clip-path="url(#SVGID_8_)" fill="#D49574" d="M135.552,79.884c-6.339-1.598-6.859-7.333-6.859-7.333l5.629,0.863
			C134.741,75.871,135.215,78.262,135.552,79.884"/>
		<path clip-path="url(#SVGID_8_)" fill="#ECC6A6" d="M141.863,62.282c0.608,3.985,2.084,13.897-2.85,14.73
			c-11.479,1.94-18.064-14.73-18.064-14.73s-1.169-11.717,8.77-12.855C139.627,48.292,140.961,56.376,141.863,62.282"/>
		<path clip-path="url(#SVGID_8_)" fill="#030545" d="M139.275,55.509c-1.854,0.906-5.765,0.823-5.659,2.919
			c0.153,3.12-2.096,4.261-3.925,6.628c-1.686,2.197-2.58-0.596-4.173,1.835c-1.051,1.602-1.914,4.624-2.143,9.612
			c-0.065,1.441-0.146,2.575-0.295,3.447c-0.249,1.448-1.257,2.646-2.637,3.142l-2.306,0.828c-0.674,0.456-3.212,2.507-3.882,2.305
			c-0.03-1.687,0.433-7.694,1.579-10.007c1.335-2.692,3.179-3.562,3.085-7.409c-0.103-3.847-3.967-10.908-1.576-16.584
			c1.878-4.438,5.891-5.953,10.903-6.753c4.634-0.74,7.126-5.238,11.05-4.883C146.448,41.228,148.449,50.994,139.275,55.509"/>
		<path clip-path="url(#SVGID_8_)" fill="#E7B794" d="M130.216,68.079c0.106,0.703,0.985,1.15,1.966,1.002
			c0.978-0.149,1.685-0.84,1.577-1.542c-0.107-0.704-0.987-1.153-1.966-1.003C130.815,66.683,130.107,67.375,130.216,68.079"/>
		<path clip-path="url(#SVGID_8_)" fill="#E7B794" d="M140.547,67.028c0.076,0.489,0.538,0.823,1.038,0.747
			c0.496-0.076,0.841-0.533,0.767-1.022c-0.075-0.487-0.541-0.821-1.037-0.747C140.816,66.083,140.475,66.54,140.547,67.028"/>
		<path clip-path="url(#SVGID_8_)" fill="#030545" d="M134.413,62.269c0,0-1.921-0.18-2.904,0.603c0,0-0.15,0.122-0.236,0.051
			c-0.048-0.04,0.09-0.217,0.09-0.217s0.899-1.359,3.095-0.919c0,0,0.282,0.072,0.251,0.261
			C134.671,62.268,134.413,62.269,134.413,62.269"/>
		<path clip-path="url(#SVGID_8_)" fill="#030545" d="M133.013,64.366c0.082,0.502,0.408,0.867,0.724,0.814
			c0.315-0.054,0.501-0.504,0.416-1.006c-0.083-0.502-0.408-0.866-0.723-0.813C133.115,63.416,132.929,63.864,133.013,64.366"/>
		<path clip-path="url(#SVGID_8_)" fill="#030545" d="M141.196,61.524c-0.157-0.009-0.608-0.004-1.007,0.037
			c-0.379,0.05-0.838,0.194-0.838,0.194s-0.311,0.06-0.432-0.142c-0.1-0.174,0.083-0.317,0.171-0.362
			c0.338-0.166,0.754-0.204,1.111-0.204c0.517,0.012,0.972,0.229,1.093,0.334C141.325,61.411,141.383,61.535,141.196,61.524"/>
		<path clip-path="url(#SVGID_8_)" fill="#030545" d="M140.986,63.647c0.02,0.508-0.223,0.93-0.543,0.943
			c-0.319,0.013-0.593-0.388-0.613-0.898c-0.02-0.508,0.222-0.93,0.54-0.942C140.691,62.738,140.964,63.139,140.986,63.647"/>
		<path clip-path="url(#SVGID_8_)" fill="#8D6351" d="M136.416,72.293c0.053-0.024,0.115-0.021,0.195,0.007
			c1.978,0.7,3.207-0.333,3.221-0.346c0.166-0.136,0.268-0.042,0.296-0.009c0.079,0.089,0.063,0.212-0.038,0.298
			c-0.106,0.092-1.092,0.886-2.685,0.667c-0.035-0.004-0.069-0.01-0.104-0.016c-0.25-0.047-0.506-0.138-0.775-0.234l-0.044-0.014
			c-0.158-0.057-0.183-0.167-0.152-0.253C136.345,72.347,136.376,72.313,136.416,72.293"/>
		<path clip-path="url(#SVGID_8_)" fill="#8D6351" d="M138.138,68.957c0.024,0.005,0.049,0.005,0.074-0.001
			c0.036-0.008,0.849-0.182,1.021-1.003c0.165-0.779-0.646-1.973-0.681-2.024c-0.054-0.086-0.119-0.151-0.205-0.098
			c-0.085,0.055-0.05,0.137,0.004,0.223c0.2,0.321,0.636,1.297,0.523,1.824c-0.124,0.59-0.711,0.803-0.734,0.808
			c-0.1,0.024-0.167,0.104-0.152,0.162C138.006,68.92,138.069,68.945,138.138,68.957"/>
		<path clip-path="url(#SVGID_8_)" fill="#FFFFFF" d="M154.439,102.145c0,0-1.237,1.889-4.989,3.775
			c-1.48,0.744-3.354,1.498-5.705,2.131c-2.499,0.674-5.529,1.219-9.192,1.49c-15.821,1.186-32.793-7.006-32.793-7.006
			s2.441-11.513,12.17-17.1l5.039-1.811c0,0,7.571,6.379,13.41,5.694c9.275-1.084,6.943-6.6,6.943-6.6s7.601,0.834,10.873,7.784
			C152.887,96.213,154.439,102.145,154.439,102.145"/>
		<path clip-path="url(#SVGID_8_)" fill="#EDEDED" d="M149.45,105.92c-1.48,0.744-3.356,1.498-5.705,2.131
			c0.773-3.391,2.325-9.813,2.325-9.813S148.194,101.576,149.45,105.92"/>
		<path clip-path="url(#SVGID_8_)" fill="#FFFFFF" d="M145.429,94.941c0,0,1.654,9.901,2.323,11.754
			c0.408,1.139,1.264,8.432,1.191,19.123c-0.044,6.779,3.563,10.957-0.128,13.811c-8.997,6.955-35.71,3.863-37.681,0.691
			c-1.144-1.84,0.957-0.83,1.598-13.516c0.705-13.91,1.199-25.354,1.199-25.354"/>
		<g opacity="0.59" clip-path="url(#SVGID_8_)">
			<g>
				<defs>
					<rect id="SVGID_23_" x="118.106" y="110.318" width="28.216" height="21.309"/>
				</defs>
				<clipPath id="SVGID_24_">
					<use xlink:href="#SVGID_23_"  overflow="visible"/>
				</clipPath>
				<path clip-path="url(#SVGID_24_)" fill="#EDEDED" d="M146.323,110.318c0,0-4.542,3.109-17.877,5.625
					c-9.191,1.732-10.341,15.684-10.341,15.684s9.125-9.318,14.6-11.92S144.103,115.5,146.323,110.318"/>
			</g>
		</g>
		<path clip-path="url(#SVGID_8_)" fill="#A2ACE6" d="M120.554,141.256H88.658c-1.119,0-2.086-0.779-2.326-1.873l-8.648-39.629
			c-0.324-1.485,0.807-2.889,2.325-2.889h31.897c1.12,0,2.089,0.779,2.327,1.872l8.647,39.63
			C123.203,139.852,122.074,141.256,120.554,141.256"/>
		<path clip-path="url(#SVGID_8_)" fill="#C3CAFA" d="M118.591,141.256H88.658c-1.119,0-2.086-0.779-2.326-1.873l-8.648-39.629
			c-0.324-1.485,0.807-2.889,2.326-2.889h29.934c1.118,0,2.087,0.779,2.327,1.872l8.646,39.63
			C121.24,139.852,120.11,141.256,118.591,141.256"/>
		<path clip-path="url(#SVGID_8_)" fill="#324194" d="M114.328,145.215c0,0,0.536,0.143,1.485,0.338
			c0.473,0.107,1.054,0.209,1.715,0.336c0.668,0.102,1.416,0.244,2.236,0.354c0.41,0.057,0.84,0.117,1.281,0.182
			c0.444,0.047,0.903,0.094,1.376,0.145c0.942,0.121,1.945,0.148,2.975,0.246c1.034,0.045,2.103,0.105,3.188,0.107
			c1.085-0.021,2.19,0.012,3.289-0.082c0.551-0.027,1.102-0.055,1.648-0.08c0.549-0.039,1.092-0.113,1.631-0.166
			c0.54-0.057,1.076-0.107,1.604-0.174c0.524-0.09,1.042-0.18,1.552-0.268c0.509-0.088,1.011-0.176,1.499-0.262
			c0.485-0.113,0.961-0.223,1.421-0.33c0.462-0.107,0.912-0.211,1.346-0.311c0.435-0.102,0.84-0.256,1.236-0.373
			c0.792-0.246,1.516-0.473,2.161-0.674c0.625-0.248,1.173-0.465,1.622-0.643c0.904-0.352,1.422-0.555,1.422-0.555
			s-0.499,0.24-1.375,0.66c-0.441,0.205-0.978,0.457-1.591,0.744c-0.629,0.248-1.35,0.504-2.137,0.783
			c-0.396,0.133-0.8,0.303-1.234,0.422c-0.434,0.119-0.883,0.238-1.346,0.365c-0.461,0.125-0.937,0.254-1.422,0.387
			c-0.491,0.115-0.998,0.189-1.512,0.289c-0.514,0.096-1.036,0.191-1.565,0.289c-0.532,0.076-1.074,0.131-1.617,0.199
			c-0.546,0.059-1.094,0.141-1.649,0.186c-0.554,0.033-1.11,0.064-1.665,0.1c-1.112,0.08-2.229,0.035-3.327,0.043
			c-1.094-0.016-2.172-0.09-3.214-0.146c-1.039-0.102-2.045-0.178-2.991-0.33c-0.473-0.066-0.934-0.135-1.379-0.199
			c-0.44-0.078-0.87-0.154-1.28-0.229c-0.824-0.131-1.565-0.324-2.228-0.465c-0.655-0.168-1.229-0.305-1.697-0.439
			C114.85,145.404,114.328,145.215,114.328,145.215"/>
		<polygon clip-path="url(#SVGID_8_)" fill="#324194" points="133.098,181.479 135.177,166.859 134.513,192 		"/>
		<path clip-path="url(#SVGID_8_)" fill="#324194" d="M135.884,146.824c0,0,0.182,4.109,0.146,8.217
			c-0.012,2.055-0.079,4.107-0.19,5.645c-0.059,0.768-0.109,1.408-0.168,1.854c-0.052,0.447-0.082,0.699-0.082,0.699
			s0.021-0.254,0.056-0.703c0.044-0.445,0.069-1.086,0.101-1.854c0.056-1.537,0.051-3.588-0.011-5.637
			c-0.113-4.098-0.439-8.184-0.439-8.184L135.884,146.824z"/>
		<path clip-path="url(#SVGID_8_)" fill="#324194" d="M137.646,144.934c0,0.482-0.332,0.873-0.74,0.873
			c-0.409,0-0.739-0.391-0.739-0.873c0-0.484,0.33-0.877,0.739-0.877C137.313,144.057,137.646,144.449,137.646,144.934"/>
		<path clip-path="url(#SVGID_8_)" fill="#ECC6A6" d="M89.977,120.311c-0.107,0.117-0.964,0.971-1.533,1.152
			c0.197,0.084,0.356,0.203,0.463,0.387c0,0,0.194,0.537-0.125,0.723c-0.248,0.141-1.728,0.604-2.407,0.811
			c0.455,0.348,0.342,0.744,0.176,0.756c-0.271,0.037-2.307,0.641-2.669,0.705c-0.243,0.047-0.669,0.107-1.291,0.125h-0.035
			c-0.9-0.074-1.397-0.668-1.397-0.668s-0.667-0.107-0.981-0.422c-0.315-0.313-0.386-1.242-0.386-1.242s-0.539-0.332-0.686-1
			c-0.148-0.664,0.166-1.568,0.166-1.568s-0.556-0.443-0.663-0.775c-0.101-0.303-0.225-1.279,0.555-2.652
			c0.87-1.527,1.771-1.988,1.771-1.988l0.627,2.865l0.544,0.201l2.492-0.15c0,0,2.487-1.543,3.073-0.336
			c0,0,0.135,0.439-0.113,0.682c-0.352,0.34-2.248,1.688-2.592,1.793l1.26,0.053c0,0,3.285-1.301,3.893-0.266
			C90.118,119.494,90.353,119.906,89.977,120.311"/>
		<path clip-path="url(#SVGID_8_)" fill="#CA9D7E" d="M84.964,119.707c0,0-0.062,0.041-0.171,0.111
			c-0.11,0.066-0.267,0.168-0.477,0.254c-0.212,0.096-0.484,0.107-0.753,0.143c-0.277,0.029-0.573,0.057-0.871,0.068
			c-0.593,0.018-1.187-0.016-1.631-0.064c-0.44-0.055-0.732-0.109-0.732-0.109s0.296,0.01,0.74,0.025
			c0.442,0.012,1.031,0.029,1.619,0.002c0.293-0.008,0.586-0.027,0.862-0.049c0.279-0.031,0.535-0.014,0.737-0.096
			C84.702,119.854,84.964,119.707,84.964,119.707"/>
		<path clip-path="url(#SVGID_8_)" fill="#CA9D7E" d="M88.444,121.465c0,0-0.446,0.135-1.117,0.336
			c-0.333,0.107-0.723,0.236-1.151,0.342c-0.223,0.049-0.441,0.07-0.674,0.098c-0.231,0.023-0.462,0.047-0.696,0.068
			c-1.865,0.145-3.735,0.121-3.735,0.121s1.862-0.135,3.723-0.268c0.465-0.037,0.933-0.068,1.354-0.146
			c0.425-0.09,0.82-0.189,1.162-0.275C87.991,121.574,88.444,121.465,88.444,121.465"/>
		<path clip-path="url(#SVGID_8_)" fill="#CA9D7E" d="M82.083,124.137c0,0,0.358-0.033,0.896-0.084
			c0.268-0.031,0.582-0.057,0.906-0.127c0.327-0.072,0.673-0.17,1.022-0.258c1.39-0.377,2.796-0.703,2.796-0.703
			s-1.366,0.471-2.759,0.84c-0.348,0.096-0.698,0.193-1.031,0.26c-0.34,0.061-0.655,0.082-0.927,0.09
			c-0.271,0.012-0.497,0.002-0.655-0.006C82.171,124.141,82.083,124.137,82.083,124.137"/>
		<path clip-path="url(#SVGID_8_)" fill="#4450D3" d="M152.601,265.314c-0.418-0.752-1.029-0.508-1.119-1.889
			c-0.091-1.385-0.096-1.594-0.111-2.523c-0.022-1.283-0.496-2.258-0.496-2.258s-0.055,0.432-0.289,0.643
			c-0.192,0.17-0.53,0.174-0.842-0.133c-0.145-0.225-0.455-0.975-1.106-1.287c-0.421-0.199-2.008-0.299-3.001,0.195
			c-0.257,0.127-0.61,0.826-0.737,1.162c-0.025,0.066-0.083,0.123-0.156,0.121c-0.183-0.006-0.425-0.205-0.654-0.891
			c0,0-1.019,1.365-1.379,3.049c-0.36,1.682,0.4,2.58,0.439,3.502c0.038,0.92-0.854,1.816-0.243,2.857c0,0-0.064,0.477,0.554,0.477
			h9.058c0,0,0.716,0,0.396-0.715C152.913,267.625,153.352,266.666,152.601,265.314"/>
		<path clip-path="url(#SVGID_8_)" fill="#ECC6A6" d="M182.576,84.688c-0.396,0.191-3.093,3.208-3.417,3.58
			c-0.323,0.37-2.664,3.097-2.664,3.097s0.813-1.733,0.88-2.399c0.095-0.998-0.47-1.396-0.75-1.282
			c-0.28,0.114-2.826,3.415-3.378,4.176c-0.552,0.76-1.13,5.642-1.59,6.209c-0.096,0.12-0.241,0.279-0.413,0.456
			c-0.921,0.953-1.068,2.418-0.353,3.534c0.96,1.5,3.037,1.771,4.347,0.568c0.96-0.885,1.891-1.91,2.693-2.621
			c0.062,0.018,0.856-0.631,1.494-1.006c1.494-0.875,1.742-1.37,1.775-2.022c0.037-0.653-0.098-1.478-0.098-1.478
			s0.365-1.325,0.135-1.685c-0.058-0.089-0.131-0.194-0.206-0.299c-0.279-0.382-0.458-0.824-0.521-1.294
			c-0.04-0.271-0.115-0.56-0.271-0.721c-0.222-0.229-0.444-0.363-0.585-0.437l1.194-1.882c0.027-0.045,0.055-0.084,0.086-0.126
			c0.325-0.455,2.456-3.447,2.386-3.901C183.25,84.689,182.974,84.496,182.576,84.688"/>
		<path clip-path="url(#SVGID_8_)" fill="#324194" d="M118.993,147.211c0,0-0.006,0.291-0.049,0.797
			c-0.052,0.506-0.113,1.23-0.261,2.092c-0.146,0.857-0.332,1.861-0.596,2.918c-0.136,0.529-0.281,1.076-0.451,1.623
			c-0.177,0.547-0.348,1.104-0.554,1.65c-0.195,0.549-0.425,1.086-0.648,1.617c-0.243,0.523-0.446,1.037-0.743,1.525
			c-0.297,0.484-0.663,0.924-1.048,1.25c-0.381,0.346-0.775,0.627-1.151,0.855c-0.75,0.475-1.446,0.725-1.924,0.895
			c-0.482,0.164-0.769,0.219-0.769,0.219s0.27-0.107,0.724-0.328c0.229-0.107,0.498-0.252,0.801-0.426
			c0.296-0.186,0.633-0.387,0.979-0.641c0.346-0.246,0.7-0.543,1.033-0.893c0.345-0.348,0.632-0.742,0.894-1.186l0.181-0.35
			l0.164-0.379c0.11-0.252,0.222-0.51,0.335-0.77c0.214-0.523,0.428-1.055,0.619-1.596c0.21-0.535,0.386-1.082,0.567-1.617
			c0.173-0.537,0.345-1.068,0.494-1.586c0.303-1.033,0.575-2.006,0.772-2.85c0.2-0.842,0.371-1.545,0.469-2.041
			C118.934,147.496,118.993,147.211,118.993,147.211"/>
		<path clip-path="url(#SVGID_8_)" fill="#ECC6A6" d="M130.022,65.621c0,0-1.725-2.479-3.772-1.771
			c-2.839,0.98,0.231,8.569,2.282,7.417"/>
		<path clip-path="url(#SVGID_8_)" fill="#EDEDED" d="M119.092,85.19c0,0,0.318,0.295,0.916,0.764
			c0.59,0.473,1.474,1.101,2.579,1.771c1.105,0.67,2.46,1.342,3.971,1.885c1.509,0.54,3.193,0.927,4.896,0.989
			c0.85,0.046,1.704,0.033,2.538-0.064c0.825-0.101,1.655-0.253,2.404-0.491c0.755-0.241,1.46-0.544,2.066-0.94
			c0.602-0.396,1.096-0.881,1.456-1.397c0.724-1.042,0.921-2.143,0.947-2.887c0.03-0.753-0.064-1.184-0.064-1.184
			s0.146,0.416,0.178,1.185c0.021,0.751-0.059,1.917-0.785,3.069c-0.709,1.152-2.052,2.136-3.642,2.641
			c-0.8,0.266-1.629,0.431-2.494,0.551c-0.864,0.115-1.75,0.142-2.635,0.108c-1.769-0.088-3.502-0.519-5.045-1.099
			c-1.547-0.575-2.878-1.365-3.971-2.085c-1.096-0.724-1.913-1.452-2.476-1.965C119.373,85.522,119.092,85.19,119.092,85.19"/>
		<path clip-path="url(#SVGID_8_)" fill="#CA9D7E" d="M179.131,91.701l-0.922,1.134l-0.002,0.004l-0.005,0.002
			c-0.64,0.44-1.271,0.9-1.833,1.426c-0.135,0.136-0.271,0.276-0.368,0.43c-0.083,0.143-0.121,0.355-0.106,0.522
			c0.009,0.18,0.109,0.331,0.265,0.404c0.158,0.072,0.348,0.079,0.532,0.06c0.374-0.052,0.724-0.22,1.071-0.392
			c0.344-0.174,0.679-0.369,1.011-0.571c0.331-0.201,0.658-0.417,0.977-0.631c0.299-0.241,0.55-0.545,0.773-0.86
			c-0.209,0.327-0.44,0.645-0.733,0.909c-0.315,0.239-0.641,0.447-0.967,0.66c-0.33,0.209-0.664,0.412-1.009,0.595
			c-0.345,0.177-0.707,0.361-1.106,0.423c-0.196,0.025-0.412,0.027-0.611-0.062c-0.207-0.085-0.336-0.313-0.341-0.523
			c-0.008-0.217,0.025-0.407,0.134-0.602c0.115-0.172,0.257-0.309,0.398-0.448c0.583-0.527,1.223-0.972,1.872-1.404l-0.009,0.008
			L179.131,91.701z"/>
		<path clip-path="url(#SVGID_8_)" fill="#CA9D7E" d="M176.921,95.779c0,0-0.087,0.052-0.229,0.165
			c-0.135,0.114-0.339,0.288-0.463,0.56c-0.059,0.133-0.08,0.299-0.02,0.452c0.029,0.077,0.078,0.156,0.135,0.217
			c0.052,0.046,0.145,0.074,0.236,0.087c0.38,0.036,0.802-0.055,1.211-0.137c0.209-0.042,0.416-0.088,0.617-0.13
			c0.206-0.045,0.414-0.058,0.599-0.12c0.378-0.107,0.697-0.299,0.961-0.474c0.521-0.362,0.801-0.681,0.801-0.681
			s-0.273,0.327-0.785,0.703c-0.259,0.182-0.578,0.383-0.961,0.504c-0.192,0.068-0.396,0.084-0.599,0.133
			c-0.202,0.047-0.409,0.097-0.614,0.145c-0.413,0.089-0.828,0.19-1.242,0.159c-0.103-0.012-0.209-0.032-0.302-0.112
			c-0.073-0.077-0.126-0.158-0.165-0.25c-0.078-0.186-0.054-0.39,0.011-0.544c0.136-0.312,0.351-0.497,0.491-0.621
			c0.146-0.123,0.238-0.18,0.238-0.18L176.921,95.779z"/>
		<path clip-path="url(#SVGID_8_)" fill="#CA9D7E" d="M177.066,97.34c0,0-0.04,0.064-0.098,0.188
			c-0.051,0.118-0.144,0.313-0.119,0.517c0.009,0.049,0.032,0.092,0.068,0.127c0.042,0.03,0.101,0.052,0.157,0.064
			c0.126,0.028,0.27,0.034,0.417,0.035c0.297,0.003,0.614-0.022,0.934-0.047c0.161-0.009,0.32-0.02,0.478-0.03
			c0.164,0.004,0.307-0.012,0.447-0.064c0.281-0.097,0.529-0.23,0.738-0.344c0.417-0.235,0.682-0.416,0.682-0.416
			s-0.258,0.188-0.671,0.436c-0.205,0.121-0.449,0.26-0.733,0.368c-0.139,0.059-0.31,0.082-0.458,0.082
			c-0.158,0.014-0.315,0.029-0.476,0.043c-0.316,0.033-0.635,0.068-0.94,0.074c-0.149,0.003-0.297,0.001-0.441-0.026
			c-0.077-0.015-0.146-0.039-0.209-0.083c-0.062-0.052-0.099-0.126-0.114-0.193c-0.026-0.138,0.001-0.254,0.024-0.354
			c0.027-0.1,0.06-0.179,0.087-0.247c0.057-0.132,0.1-0.205,0.1-0.205L177.066,97.34z"/>
		<path clip-path="url(#SVGID_8_)" fill="#4450D3" d="M95.842,267.697c0.038-0.113,0.089-0.205,0.135-0.275
			c-0.067-0.332-0.036-0.754,0.185-1.297c0.845-2.066,4.16-1.92,6.662-2.996c2.502-1.076,3.84-3.75,4.857-3.84
			c1.018-0.086,1.28,2.24,2.502,2.416c0.775,0.111,1.834-0.695,2.754-1.266c0.744-0.461,1.74-0.277,2.245,0.441
			c0.006,0.006,0.01,0.012,0.014,0.018c0.446,0.641-0.098,2.25-0.077,2.91c0.015,0.508,0.521,1.713,0.47,3.273l0.008-0.012
			c0,0,0.171,0.379,0.259,0.758c0.086,0.377-0.049,0.721-0.483,0.721H97.18h-0.975C95.735,268.549,95.756,267.959,95.842,267.697"/>
	</g>
</g>
</svg>
