<svg xmlns="http://www.w3.org/2000/svg" viewBox="0 0 162.63 139.33"><defs><style>.cls-1{fill:#231f20;}.cls-1,.cls-5{opacity:0.2;}.cls-2{fill:#772a2a;}.cls-3{fill:#39b54a;}.cls-4{fill:#bae27a;}.cls-5{fill:#414042;}.cls-6,.cls-8{fill:#ecad00;}.cls-7{fill:#fdd66f;}.cls-8{font-size:34.78px;font-family:SofiaPro-Black, SofiaPro Black;font-weight:800;}.cls-9{fill:#fff;opacity:0.3;}.cls-10{fill:#883733;}.cls-11{fill:#9b4949;}.cls-11,.cls-16{opacity:0.5;}.cls-12{fill:#a35252;}.cls-13{fill:#944;}.cls-14,.cls-16{fill:#939598;}.cls-15{fill:#e6e7e8;}</style></defs><g id="Capa_2" data-name="Capa 2"><g id="Layer_1" data-name="Layer 1"><path class="cls-1" d="M162.63,130.77c0,4.73-36.41,8.56-81.32,8.56S0,135.5,0,130.77s36.4-8.55,81.31-8.55S162.63,126.05,162.63,130.77Z"/><path class="cls-2" d="M133.9,116.93a9.56,9.56,0,0,1-10.42,8.63l-95.91-9.74a9.56,9.56,0,0,1-8.48-10.53l7.08-69.78a9.56,9.56,0,0,1,10.42-8.62l95.91,9.73A9.57,9.57,0,0,1,141,47.16Z"/><rect class="cls-3" x="34.74" y="6.75" width="58.74" height="95.75" transform="translate(-13.78 22.59) rotate(-18.08)"/><path class="cls-4" d="M60.17,100.06,94.09,89a6.71,6.71,0,0,1,4.21-8.28L76.41,13.65a6.72,6.72,0,0,1-8.33-4.33.74.74,0,0,0,0-.14L34.12,20.26l.05.12A6.71,6.71,0,0,1,30,28.79L51.89,95.86A6.7,6.7,0,0,1,60.17,100.06Z"/><path class="cls-3" d="M47.15,60.37A17.9,17.9,0,1,1,69.73,71.84,17.91,17.91,0,0,1,47.15,60.37Z"/><path class="cls-4" d="M76.36,49l.73,2.16L74,52.21c.66,3.41-.76,6.33-4.1,7.47L68.32,55c1.21-.41,1.57-1.28,1.11-2.63s-1.32-1.84-2.24-1.52c-.7.24-1,1-1,2.33l0,2.45c.12,3.94-1.23,6.4-4.07,7.36a5.24,5.24,0,0,1-4.69-.37,8.06,8.06,0,0,1-3.17-3.71L51,60.05l-.73-2.16,3.34-1.14c-.91-3.85.54-6.94,3.88-8.08l1.61,4.74c-1.09.47-1.59,1.48-1.07,3,.45,1.32,1.43,2.18,2.55,1.8A2.62,2.62,0,0,0,61,58a3.6,3.6,0,0,0,.53-2.28V53.22c-.3-4.75,2.22-6.36,4-7a5.69,5.69,0,0,1,4.53.25A7.34,7.34,0,0,1,73.3,50Z"/><path class="cls-5" d="M51.05,109.25,106.88,91,77.17,0,74.62.83C69.86,9.12,56.11,28.18,27.15,36.05Z"/><path class="cls-6" d="M121.84,43a24.72,24.72,0,1,1-16.9-30.61A24.72,24.72,0,0,1,121.84,43Z"/><path class="cls-6" d="M121.84,43a24.72,24.72,0,1,1-16.9-30.61A24.72,24.72,0,0,1,121.84,43Z"/><path class="cls-7" d="M118.08,42a20.81,20.81,0,1,1-14.22-25.77A20.8,20.8,0,0,1,118.08,42Z"/><text class="cls-8" transform="matrix(0.96, 0.28, -0.28, 0.96, 85.61, 44.63)">$</text><path class="cls-9" d="M117.26,34.73a18,18,0,1,1-12.32-22.3A18,18,0,0,1,117.26,34.73Z"/><path class="cls-9" d="M89.49,41.23a3.78,3.78,0,1,1-2.59-4.69A3.78,3.78,0,0,1,89.49,41.23Z"/><rect class="cls-10" x="17.52" y="37.43" width="124.63" height="95.18" rx="10.25"/><path class="cls-2" d="M142.15,122.36V47.68A10.23,10.23,0,0,0,137.29,39c-12.68,58.07-83,62.76-119.77,61.11v22.28a10.25,10.25,0,0,0,10.25,10.25H131.9A10.25,10.25,0,0,0,142.15,122.36Z"/><path class="cls-11" d="M27.77,37.43A10.25,10.25,0,0,0,17.52,47.68v9.67c25.61,5.16,71.56,9.25,95.8-19.92Z"/><path class="cls-12" d="M128,127.48h-11a.39.39,0,0,1-.39-.39.4.4,0,0,1,.39-.4h11a.4.4,0,0,1,.39.4A.39.39,0,0,1,128,127.48Zm-22.09,0h-11a.39.39,0,0,1-.4-.39.4.4,0,0,1,.4-.4h11a.39.39,0,0,1,.39.4A.38.38,0,0,1,105.9,127.48Zm-22.09,0h-11a.39.39,0,0,1-.4-.39.4.4,0,0,1,.4-.4h11a.4.4,0,0,1,.4.4A.39.39,0,0,1,83.81,127.48Zm-22.08,0h-11a.38.38,0,0,1-.39-.39.39.39,0,0,1,.39-.4h11a.4.4,0,0,1,.39.4A.39.39,0,0,1,61.73,127.48Zm-22.09,0h-11a.39.39,0,0,1-.4-.39.4.4,0,0,1,.4-.4h11a.39.39,0,0,1,.39.4A.38.38,0,0,1,39.64,127.48Zm-11.87,0a5.13,5.13,0,0,1-5.12-5.12v-3.61a.39.39,0,0,1,.39-.4.4.4,0,0,1,.4.4v3.61a4.33,4.33,0,0,0,4.33,4.33.4.4,0,0,1,.4.4A.39.39,0,0,1,27.77,127.48Zm108.85-4.42h0a.41.41,0,0,1-.37-.43c0-.09,0-.18,0-.27V111.62a.39.39,0,1,1,.78,0v11.07A.41.41,0,0,1,136.62,123.06ZM23,108.1a.39.39,0,0,1-.39-.39v-11a.38.38,0,0,1,.39-.39.39.39,0,0,1,.4.39v11A.4.4,0,0,1,23,108.1ZM136.63,101a.39.39,0,0,1-.39-.4v-11a.39.39,0,0,1,.78,0v11A.39.39,0,0,1,136.63,101ZM23,86a.38.38,0,0,1-.39-.39V74.57a.38.38,0,0,1,.39-.39.39.39,0,0,1,.4.39V85.62A.39.39,0,0,1,23,86Zm113.59-7.13a.38.38,0,0,1-.39-.39v-11a.39.39,0,0,1,.78,0v11A.38.38,0,0,1,136.63,78.88ZM23,63.93a.39.39,0,0,1-.39-.4v-11a.39.39,0,0,1,.39-.4.4.4,0,0,1,.4.4v11A.4.4,0,0,1,23,63.93Zm113.59-7.14a.38.38,0,0,1-.39-.39V47.68a4.37,4.37,0,0,0-.51-2,.39.39,0,0,1,.16-.54.39.39,0,0,1,.53.16,5.1,5.1,0,0,1,.6,2.42V56.4A.38.38,0,0,1,136.63,56.79Zm-110-13.3a.39.39,0,0,1-.1-.77,5.06,5.06,0,0,1,1.28-.17h9.85a.4.4,0,0,1,.4.4.39.39,0,0,1-.4.39H27.77a4.38,4.38,0,0,0-1.08.14ZM126,43.34h-11a.39.39,0,0,1-.4-.39.4.4,0,0,1,.4-.4h11a.39.39,0,0,1,.39.4A.38.38,0,0,1,126,43.34Zm-22.09,0h-11a.39.39,0,0,1-.4-.39.4.4,0,0,1,.4-.4h11a.4.4,0,0,1,.4.4A.39.39,0,0,1,103.88,43.34Zm-22.08,0h-11a.38.38,0,0,1-.39-.39.39.39,0,0,1,.39-.4h11a.4.4,0,0,1,.39.4A.39.39,0,0,1,81.8,43.34Zm-22.09,0H48.66a.38.38,0,0,1-.39-.39.39.39,0,0,1,.39-.4H59.71a.39.39,0,0,1,.39.4A.38.38,0,0,1,59.71,43.34Z"/><path class="cls-13" d="M45.66,84.76A10.26,10.26,0,0,1,35.4,95H17.52C11.86,95,12,90.42,12,84.76V81.34c0-5.67-.14-10.26,5.52-10.26H35.4A10.26,10.26,0,0,1,45.66,81.34Z"/><path class="cls-14" d="M42.1,83a7.58,7.58,0,1,1-7.57-7.57A7.57,7.57,0,0,1,42.1,83Z"/><path class="cls-15" d="M41.41,81.82a6.09,6.09,0,1,1-6.08-6.09A6.08,6.08,0,0,1,41.41,81.82Z"/><path class="cls-9" d="M39.81,78.81A2.21,2.21,0,1,1,37.6,76.6,2.21,2.21,0,0,1,39.81,78.81Z"/><path class="cls-15" d="M128.88,118.74a1.58,1.58,0,0,1-1.58,1.58H103a1.58,1.58,0,0,1-1.58-1.58v-6.31a1.58,1.58,0,0,1,1.58-1.58H127.3a1.58,1.58,0,0,1,1.58,1.58Z"/><path class="cls-16" d="M128.88,118.74v-2.87c-3.75.92-16.59,3.35-27.42-3v5.87a1.58,1.58,0,0,0,1.58,1.58H127.3A1.58,1.58,0,0,0,128.88,118.74Z"/></g></g></svg>