<svg xmlns="http://www.w3.org/2000/svg" xmlns:xlink="http://www.w3.org/1999/xlink" viewBox="0 0 403.51 417.06"><defs><style>.cls-1{fill:none;}.cls-2{isolation:isolate;}.cls-3{opacity:0.5;}.cls-4{clip-path:url(#clip-path);}.cls-5{fill:#f5f5f5;}.cls-6{fill:#e0e0e0;}.cls-7{fill:#fff;}.cls-8{clip-path:url(#clip-path-2);}.cls-9{fill:#110239;}.cls-10{fill:#f45762;}.cls-11{opacity:0.35;mix-blend-mode:multiply;}.cls-12{clip-path:url(#clip-path-3);}.cls-13{fill:#c9071e;}.cls-14{fill:#fcd4ca;}.cls-15{fill:#e8a393;}.cls-16{fill:#bbeadb;}.cls-17{fill:#83ccc3;}.cls-18{fill:#198068;}.cls-19{fill:#4dc5ac;}.cls-20{fill:#87decd;}.cls-21{fill:#f5a505;}.cls-22{fill:#ffca00;}.cls-23{opacity:0.3;}.cls-23,.cls-27{mix-blend-mode:screen;}.cls-24{clip-path:url(#clip-path-4);}.cls-25{clip-path:url(#clip-path-5);}.cls-26{clip-path:url(#clip-path-6);}.cls-27{opacity:0.4;}.cls-28{clip-path:url(#clip-path-7);}</style><clipPath id="clip-path" transform="translate(0)"><rect class="cls-1" y="314.64" width="134.5" height="95.73"/></clipPath><clipPath id="clip-path-2" transform="translate(0)"><rect class="cls-1" x="145.58" y="78.92" width="161.25" height="330.54"/></clipPath><clipPath id="clip-path-3" transform="translate(0)"><rect class="cls-1" x="260.34" y="169.43" width="54.47" height="124.53"/></clipPath><clipPath id="clip-path-4" transform="translate(0)"><rect class="cls-1" x="324.95" y="137.52" width="29.84" height="16.79"/></clipPath><clipPath id="clip-path-5" transform="translate(0)"><rect class="cls-1" x="323.88" y="103.83" width="17.85" height="29.84"/></clipPath><clipPath id="clip-path-6" transform="translate(0)"><rect class="cls-1" x="354.29" y="122.67" width="25.14" height="27.73"/></clipPath><clipPath id="clip-path-7" transform="translate(0)"><rect class="cls-1" x="306" y="67.39" width="79.69" height="108.25"/></clipPath></defs><g class="cls-2"><g id="Capa_2" data-name="Capa 2"><g id="Capa_1-2" data-name="Capa 1"><g class="cls-3"><g class="cls-4"><polygon class="cls-5" points="4.83 372.95 4.83 410.37 59.55 410.37 119.91 410.37 119.91 372.95 4.83 372.95"/><polygon class="cls-6" points="0 362.49 0 372.95 123.93 372.95 123.93 362.49 59.55 362.49 0 362.49"/><polygon class="cls-6" points="61.97 410.37 119.91 410.37 119.91 372.95 123.93 372.95 123.93 362.49 59.55 362.49 59.55 371.98 61.97 410.37"/><rect class="cls-6" x="20.92" y="378.98" width="23.34" height="5.63"/><rect class="cls-7" x="17.92" y="391.66" width="29.97" height="11.9"/><polygon class="cls-5" points="15.4 325.1 15.4 362.52 70.12 362.52 130.48 362.52 130.48 325.1 15.4 325.1"/><polygon class="cls-6" points="10.57 314.64 10.57 325.1 134.5 325.1 134.5 314.64 70.12 314.64 10.57 314.64"/><polygon class="cls-6" points="72.54 362.52 130.48 362.52 130.48 325.1 134.5 325.1 134.5 314.64 70.12 314.64 70.12 324.13 72.54 362.52"/><rect class="cls-6" x="31.49" y="331.13" width="23.34" height="5.63"/><rect class="cls-7" x="28.49" y="343.81" width="29.97" height="11.89"/></g></g><g class="cls-3"><g class="cls-8"><path class="cls-5" d="M187.78,143.17s-6,4.55-6,10.58v30.81h44.93V152.37s-.63-7.9-5.91-9.2Z" transform="translate(0)"/><path class="cls-6" d="M185.17,182.89a87.2,87.2,0,0,1-.67-9.47,7.61,7.61,0,0,1,5.27-7c2.37-.65,4.85.21,7.27.62a19.3,19.3,0,0,0,11.63-1.74c3-1.51,5.8-3.86,9.18-4.17,2.21-.21,4.75.83,5.37,3a7.3,7.3,0,0,1-.06,3.12c-.71,4.76.21,10.65.21,15.22-12.58.58-25.61.17-38.2.44" transform="translate(0)"/><polygon class="cls-6" points="178.91 188.91 185.68 184.56 226.69 184.56 233.27 188.91 178.91 188.91"/><path class="cls-5" d="M177.64,88.69v45.86h55.63v54.36H178.91v13h93.78V88.69a9.76,9.76,0,0,0-9.77-9.77H187.41a9.76,9.76,0,0,0-9.77,9.77" transform="translate(0)"/><path class="cls-6" d="M272.69,89.73c0,.22-21.28.4-47.52.4s-47.53-.18-47.53-.4,21.28-.4,47.53-.4,47.52.18,47.52.4" transform="translate(0)"/><path class="cls-6" d="M246.31,202c-.23,0-.41-27.47-.41-61.35s.18-61.36.41-61.36.4,27.46.4,61.36-.18,61.35-.4,61.35" transform="translate(0)"/><path class="cls-6" d="M172.61,169.7,172,155.81a18.79,18.79,0,0,1,3-11.34c1.79-2.63,4.44-5,8.19-5h37.53v3.66H184s-6.63.7-7.5,9.78a89,89,0,0,0,0,16.75Z" transform="translate(0)"/><rect class="cls-6" x="206.7" y="379.79" width="16.45" height="29.67"/><rect class="cls-6" x="279.42" y="379.79" width="16.46" height="29.67"/><rect class="cls-6" x="170.55" y="201.95" width="136.28" height="177.84"/><rect class="cls-5" x="145.58" y="201.95" width="132.75" height="177.84"/><rect class="cls-5" x="157.31" y="379.79" width="16.45" height="29.67"/><rect class="cls-5" x="251.93" y="379.79" width="16.46" height="29.67"/><path class="cls-6" d="M267.77,359.47s0-.27,0-.78,0-1.28,0-2.27c0-2,0-4.94-.05-8.72,0-7.57-.05-18.52-.1-32.13l.19.19-113.93.08h0l.27-.27c0,15.35,0,30.18,0,43.9l-.26-.25,81.61.12,23.73.07,6.37,0,1.65,0h.57s-.18,0-.54,0l-1.62,0-6.31,0-23.67.07-81.79.12h-.26v-.26c0-13.72,0-28.55,0-43.9v-.26h.27l113.93.08H268v.18c0,13.66-.07,24.65-.1,32.24,0,3.76,0,6.68,0,8.68,0,1,0,1.72,0,2.24s0,.74,0,.74" transform="translate(0)"/><path class="cls-6" d="M214.24,337.52s-.05-.3-.2-.81a3.48,3.48,0,0,0-1.27-1.77,3.23,3.23,0,0,0-5.14,2.58,3.23,3.23,0,0,0,2.09,3,3.26,3.26,0,0,0,3.05-.41,3.48,3.48,0,0,0,1.27-1.77c.15-.51.16-.82.2-.82a1.53,1.53,0,0,1,0,.87,3.45,3.45,0,0,1-1.24,2,3.62,3.62,0,0,1-3.45.58,3.67,3.67,0,0,1,0-6.93,3.6,3.6,0,0,1,3.45.58,3.42,3.42,0,0,1,1.24,2c.1.56,0,.87,0,.86" transform="translate(0)"/><path class="cls-6" d="M267.77,306.9s0-.27,0-.79,0-1.28,0-2.27c0-2,0-4.93-.05-8.71,0-7.57-.05-18.52-.1-32.13l.19.18-113.93.09h0l.27-.27c0,15.34,0,30.17,0,43.9l-.26-.26,81.61.12,23.73.08,6.37,0h1.65l.57,0-.54,0h-1.62l-6.31,0-23.67.07-81.79.12h-.26v-.26c0-13.73,0-28.56,0-43.9v-.27h.27l113.93.08H268V263c0,13.66-.07,24.64-.1,32.24,0,3.76,0,6.68,0,8.67,0,1,0,1.72,0,2.24s0,.75,0,.75" transform="translate(0)"/><path class="cls-6" d="M214.24,285s-.05-.31-.2-.81a3.44,3.44,0,0,0-1.27-1.77,3.21,3.21,0,1,0,0,5.16,3.44,3.44,0,0,0,1.27-1.77c.15-.5.16-.81.2-.81a1.53,1.53,0,0,1,0,.87,3.48,3.48,0,0,1-1.24,2,3.6,3.6,0,0,1-3.45.57,3.66,3.66,0,0,1,0-6.92,3.6,3.6,0,0,1,3.45.57,3.48,3.48,0,0,1,1.24,2,1.53,1.53,0,0,1,0,.87" transform="translate(0)"/><path class="cls-6" d="M267.77,255s0-.28,0-.79,0-1.28,0-2.27c0-2,0-4.94-.05-8.72,0-7.57-.05-18.52-.1-32.12l.19.18-113.93.08h0l.27-.26c0,15.34,0,30.17,0,43.9l-.26-.26,81.61.12,23.73.07,6.37,0,1.65,0,.57,0h-.54l-1.62,0-6.31,0-23.67.07-81.79.12h-.26V255c0-13.73,0-28.56,0-43.9v-.27h.27l113.93.08H268v.19c0,13.65-.07,24.64-.1,32.23,0,3.77,0,6.68,0,8.68,0,1,0,1.72,0,2.24s0,.75,0,.75" transform="translate(0)"/><path class="cls-6" d="M214.24,233.09s-.05-.31-.2-.82a3.48,3.48,0,0,0-1.27-1.77,3.21,3.21,0,1,0,0,5.17A3.48,3.48,0,0,0,214,233.9c.15-.51.16-.82.2-.81s.1.3,0,.86a3.42,3.42,0,0,1-1.24,2,3.6,3.6,0,0,1-3.45.58,3.67,3.67,0,0,1,0-6.93,3.62,3.62,0,0,1,3.45.58,3.45,3.45,0,0,1,1.24,2,1.53,1.53,0,0,1,0,.87" transform="translate(0)"/><path class="cls-6" d="M271.33,202c0,.22-20.67.4-46.16.4S179,202.17,179,202s20.67-.4,46.17-.4,46.16.17,46.16.4" transform="translate(0)"/></g></g><path class="cls-9" d="M218.38,377s-9.34,18.32-7.26,22.13,41.24,20.06,45.91,17.72,4.91-9.07-2.59-14.47c-8-5.8-13.33-5-18.08-9.39s0-12.71,0-12.71Z" transform="translate(0)"/><path class="cls-9" d="M349.87,383.69s-.47,20,2.92,22.74,45.79,2.47,49.18-1.49,1.27-9.47-7.36-11.2c-7.76-1.55-13.49.08-19.5-2.35-5.27-2.12-8.12-13.79-8.12-13.79Z" transform="translate(0)"/><path class="cls-10" d="M315.59,168.85l-55.25,3.39s46.43,104.21,52.14,116.14,34.75,98,34.75,98l22.44-8.3S344.12,288.38,341,280.6s-25.42-111.75-25.42-111.75" transform="translate(0)"/><g class="cls-11"><g class="cls-12"><path class="cls-13" d="M296.86,209.63c1.8-9.25,3.07-21.25,5.08-30.46.8-3.65,5.9-3.83,6.29-7.47a10.34,10.34,0,0,1-2.21-2.27l-45.68,2.81s46.43,104.21,52.14,116.14c.56,1.18,1.36,3.11,2.33,5.58q0-3-.25-6c-1.2-16.08-19.74-67.84-17.7-78.34" transform="translate(0)"/></g></g><path class="cls-10" d="M300,173.51H252.82s-8.3,17.12-5.44,37.35,3.54,66.45,3.2,71.64S219,358.58,215.33,377.94l21.75,7.78S280,298.06,281.35,296,300,173.51,300,173.51" transform="translate(0)"/><path class="cls-14" d="M313.25,152.51S322.59,166,329.08,165,375,136.68,375,136.68l-3.63-8.81s-36.05,24.64-39.68,23.6-8.3-10.9-8.3-10.9Z" transform="translate(0)"/><path class="cls-15" d="M313.25,152.51S322.59,166,329.08,165,375,136.68,375,136.68l-3.63-8.81s-36.05,24.64-39.68,23.6-8.3-10.9-8.3-10.9Z" transform="translate(0)"/><path class="cls-16" d="M240.55,189.42s47.37,10.72,83.68-2.42c0,0-8.12-33.54-11-52.22s-6.65-48.07-17.37-55.33S278,71.07,278,71.07s-2.07,7-8.56,8.55-19.71-8.55-19.71-8.55S219.62,84.92,216.2,90.54c-7,11.49,21.06,43.29,25.21,60.15s-.86,38.73-.86,38.73" transform="translate(0)"/><path class="cls-17" d="M264.44,146.35c-2.2-7.71-2-24.93-11.11-33.64-5.27-5-11.71-12.83-19.54-14.18-9.45-1.64-10.06.32-18.52-1.64,1.76,14.25,22.6,39.43,26.14,53.8,4.15,16.86-.86,38.73-.86,38.73a206.12,206.12,0,0,0,41.56,4.12c-8.52-14.39-13.3-31.89-17.67-47.19" transform="translate(0)"/><path class="cls-14" d="M243.75,49.54s10.63,18.93,5.44,24.64c0,0,14.27,13,25.42,7.52s4.68-10.34,4.68-10.34S271.5,68,267.61,51.61s-23.86-2.07-23.86-2.07" transform="translate(0)"/><path class="cls-15" d="M255,78.43A23.45,23.45,0,0,1,274.2,66.72c-2.27-3-4.83-7.71-6.59-15.11-3.89-16.34-23.86-2.07-23.86-2.07s10.63,18.93,5.44,24.64A44.15,44.15,0,0,0,255,78.43" transform="translate(0)"/><path class="cls-9" d="M237.78,12.06A12.15,12.15,0,1,1,225.63,0a12.11,12.11,0,0,1,12.15,12.06" transform="translate(0)"/><path class="cls-14" d="M262.45,11.15s7.88,2.34,9.7,9.21.9,4,2.46,4.93,9.73,7,9.08,8-4.8,3.63-5.84,4.15c0,0,1.82,3.11,4.15,7.39s-12.84,9.6-18.15,7.65S245.3,42.15,244.78,29.44s5.26-22,17.67-18.29" transform="translate(0)"/><path class="cls-9" d="M230.3,11.15s9.84-4.67,14.45-6.74,10-5.19,16.72-3.63,12.86,8.54,9.28,16.46c0,0-4.79-6.52-9.45-5.18s-3.64,8.43-6.23,12.06,2.42,16.48,5.19,19.65c0,0,18,1.4,20.25-1.6,0,0,1.62,2.44,4,6.85s6.22,10.76.64,13.75-22.43-.13-23.86-1.56-6-13.52-11.28-11.67-3.77,4.87-3.77,4.87-3.23,2.13-10.62-4.09-8-14-6.49-20.62,1.26-17.64,1.21-18.55" transform="translate(0)"/><path class="cls-14" d="M254,42.75s-2.93-5.42-5.86-8-7.5.51-6.33,6.22,14,4.82,12.19,1.83" transform="translate(0)"/><path class="cls-15" d="M245,36.81a4.55,4.55,0,0,1,4.91,1.89c1.77,2.6.38,6.32-1.46,4.66s-.91-2.82-1.13-4A3.75,3.75,0,0,0,245,36.81" transform="translate(0)"/><path class="cls-14" d="M373.46,135.1c.85-.55,2,.05,3.49,1.33-1.93-2.4-4.23-4.89-2-5.22s3.71,3.07,5.3,4.12c-.85-1.18-5.87-4.67-3.92-7.29,1.17-1.56,6.54,4.54,7.65,5.75-1.05-1-5.57-5.75-3.17-6.74,2.17-.88,5.27,3.2,6.81,4.5,1.13.95,2.72,1.74,3,3.3.52,3-3.91,5.11-6.21,5.75a11.9,11.9,0,0,1-9.05-1.52c-1.56-.91-2.76-3.42-1.91-4" transform="translate(0)"/><rect class="cls-18" x="314.44" y="60.4" width="47.61" height="15.18" transform="translate(-6.76 70.5) rotate(-11.78)"/><path class="cls-19" d="M396.44,141.92a22,22,0,0,1-17,26l-39,8.13a22,22,0,0,1-26-17l-11.92-57.13a22,22,0,0,1,17-26l39-8.13a22,22,0,0,1,26,17Z" transform="translate(0)"/><path class="cls-20" d="M339.35,170.74a16.57,16.57,0,0,1-19.59-12.82l-11.92-57.14A16.57,16.57,0,0,1,320.67,81.2l39-8.13a16.58,16.58,0,0,1,19.59,12.82L391.14,143a16.58,16.58,0,0,1-12.82,19.59Z" transform="translate(0)"/><path class="cls-21" d="M330.54,143.45a14.92,14.92,0,0,0,2.17,21l18.82-23.16a14.91,14.91,0,0,0-21,2.17" transform="translate(0)"/><path class="cls-21" d="M353.7,162.27a15.06,15.06,0,0,1-3.36,3,14.67,14.67,0,0,1-5.82,2.27,15,15,0,0,1-9.46-1.57,15.52,15.52,0,0,1-2.35-1.57l18.82-23.16c.26.21.51.43.76.66a14.93,14.93,0,0,1,1.41,20.33" transform="translate(0)"/><path class="cls-22" d="M349.28,139.45a14.92,14.92,0,1,0,2.17,21,14.92,14.92,0,0,0-2.17-21" transform="translate(0)"/><path class="cls-21" d="M330.24,143.2a12.42,12.42,0,0,0,1.81,17.47L347.7,141.4a12.41,12.41,0,0,0-17.46,1.8" transform="translate(0)"/><path class="cls-21" d="M347.7,141.4l-15.65,19.27A12.41,12.41,0,0,0,347.7,141.4" transform="translate(0)"/><path class="cls-22" d="M333.23,159.2A10.53,10.53,0,1,1,348,157.67a10.54,10.54,0,0,1-14.81,1.53m13-16a10.06,10.06,0,1,0,1.46,14.15,10.08,10.08,0,0,0-1.46-14.15" transform="translate(0)"/><path class="cls-22" d="M338.42,145.58c1.69-2,3.49-1.67,5.11-.43l1-1.23,1.36,1.13-1,1.23a12.56,12.56,0,0,1,2.12,2.47l-1.49,1.83c-.81-.79-2.29-2.11-3-2.69s-1.29-1-1.94-.17l-.29.35c-.51.62-.46,1.08.31,1.7l1.15.95c2.12,1.74,1.14,3.84.19,5l-.49.6c-2,2.43-3.9,1.8-5.32.63l-1,1.17L333.81,157l1-1.19a9.82,9.82,0,0,1-2.16-2.5l1.5-1.81c.53.51,1.86,1.76,3.19,2.85.61.5,1.21.75,1.72.14l.34-.42c.42-.51.51-.95-.19-1.53l-1.11-.91a3.35,3.35,0,0,1-.39-5.15Z" transform="translate(0)"/><g class="cls-23"><g class="cls-24"><path class="cls-22" d="M346.21,137.52,330.9,139.1a15.21,15.21,0,0,0-2.59,2.49l20.95-2.16a15.08,15.08,0,0,0-3.05-1.91" transform="translate(0)"/><path class="cls-22" d="M352.73,143.45l-27,2.79a15,15,0,0,0-.41,8.08l29.47-3a15,15,0,0,0-2.06-7.82" transform="translate(0)"/></g></g><path class="cls-21" d="M330.6,128.46a14.92,14.92,0,0,0,20.85-3.25l-24.1-17.6a14.92,14.92,0,0,0,3.25,20.85" transform="translate(0)"/><path class="cls-21" d="M348.2,104.36a14.89,14.89,0,0,1,3.25,20.85l-24.1-17.6c.2-.27.41-.54.62-.8a14.92,14.92,0,0,1,20.23-2.45" transform="translate(0)"/><path class="cls-22" d="M325.64,109.94a14.92,14.92,0,1,0,20.85-3.24,14.94,14.94,0,0,0-20.85,3.24" transform="translate(0)"/><path class="cls-21" d="M330.37,128.77a12.4,12.4,0,0,0,17.34-2.7l-20-14.64a12.42,12.42,0,0,0,2.7,17.34" transform="translate(0)"/><path class="cls-21" d="M327.67,111.43l20,14.64a12.41,12.41,0,1,0-20-14.64" transform="translate(0)"/><path class="cls-22" d="M346.2,125a10.53,10.53,0,1,1-2.3-14.72A10.55,10.55,0,0,1,346.2,125m-16.63-12.15a10.06,10.06,0,1,0,14.06-2.19,10.06,10.06,0,0,0-14.06,2.19" transform="translate(0)"/><path class="cls-22" d="M332.32,120.48c-2.12-1.58-1.84-3.41-.68-5.08l-1.28-1,1-1.42,1.3,1a12.43,12.43,0,0,1,2.35-2.25l1.9,1.4c-.74.85-2,2.4-2.53,3.13s-.89,1.33-.07,1.94l.37.27c.64.48,1.1.4,1.68-.39l.88-1.2c1.63-2.21,3.78-1.33,5-.45l.62.46c2.53,1.86,2,3.8.91,5.28l1.22.9L344,124.49l-1.24-.91a9.78,9.78,0,0,1-2.39,2.28l-1.88-1.39c.48-.57,1.66-2,2.68-3.35.47-.63.69-1.24.05-1.72l-.43-.32c-.54-.39-1-.47-1.52.27l-.85,1.16c-2,2.66-4.31,1.25-5.13.65Z" transform="translate(0)"/><g class="cls-23"><g class="cls-25"><path class="cls-22" d="M323.88,113.11l2.36,15.21a15.06,15.06,0,0,0,2.63,2.46L325.62,110a14.94,14.94,0,0,0-1.74,3.14" transform="translate(0)"/><path class="cls-22" d="M329.46,106.29l4.17,26.82a14.92,14.92,0,0,0,8.09,0l-4.56-29.28a15.14,15.14,0,0,0-7.7,2.46" transform="translate(0)"/></g></g><path class="cls-21" d="M357.32,139.22a14.92,14.92,0,0,0,17,12.52l-4.47-29.51a14.93,14.93,0,0,0-12.52,17" transform="translate(0)"/><path class="cls-21" d="M386.83,134.75a14.93,14.93,0,0,1-9.77,16.31,16.5,16.5,0,0,1-2.75.68l-4.47-29.51c.33,0,.67-.09,1-.12a15,15,0,0,1,16,12.64" transform="translate(0)"/><path class="cls-22" d="M367,122.67a14.92,14.92,0,1,0,17,12.51,14.91,14.91,0,0,0-17-12.51" transform="translate(0)"/><path class="cls-21" d="M356.94,139.28a12.41,12.41,0,0,0,14.13,10.41l-3.72-24.54a12.41,12.41,0,0,0-10.41,14.13" transform="translate(0)"/><path class="cls-21" d="M367.35,125.15l3.72,24.54a12.41,12.41,0,0,0-3.72-24.54" transform="translate(0)"/><path class="cls-22" d="M370.79,147.83a10.53,10.53,0,1,1,8.83-12,10.53,10.53,0,0,1-8.83,12m-3.09-20.36a10.06,10.06,0,1,0,11.46,8.45,10.08,10.08,0,0,0-11.46-8.45" transform="translate(0)"/><path class="cls-22" d="M364.21,134.83c-.38-2.63,1.11-3.71,3.12-4.07l-.24-1.58,1.75-.25.23,1.59a12.7,12.7,0,0,1,3.26.08l.35,2.34c-1.13.07-3.1.27-4,.41-1.06.14-1.57.3-1.42,1.31l.06.46c.12.79.49,1,1.46.91l1.47-.22c2.73-.39,3.62,1.75,3.84,3.22l.1.77c.46,3.11-1.29,4.09-3.11,4.36l.22,1.5-1.74.25-.23-1.52a9.69,9.69,0,0,1-3.3-.09l-.34-2.32c.74,0,2.56-.19,4.27-.44.77-.12,1.37-.39,1.25-1.18l-.07-.53c-.1-.66-.36-1-1.26-.89l-1.42.21c-3.29.48-3.93-2.18-4.08-3.19Z" transform="translate(0)"/><g class="cls-23"><g class="cls-26"><path class="cls-22" d="M363.48,123.64,354.35,136a14.93,14.93,0,0,0,.1,3.59l12.49-17a15.27,15.27,0,0,0-3.46,1" transform="translate(0)"/><path class="cls-22" d="M372.26,122.81l-16.11,21.84a15,15,0,0,0,5.7,5.75l17.58-23.86a15.07,15.07,0,0,0-7.17-3.73" transform="translate(0)"/></g></g><path class="cls-21" d="M313.49,113.76l5.23-1.14a.9.9,0,0,1,1.08.7l6.63,30.34a.91.91,0,0,1-.7,1.09l-5.22,1.13a.89.89,0,0,1-1.07-.7l-6.63-30.34a.9.9,0,0,1,.68-1.08" transform="translate(0)"/><rect class="cls-22" x="319.07" y="142.57" width="7.16" height="1.06" transform="translate(-23.11 72.17) rotate(-12.32)"/><polygon class="cls-22" points="318.48 140.83 325.48 139.31 325.71 140.34 318.71 141.87 318.48 140.83"/><rect class="cls-22" x="317.97" y="137.54" width="7.16" height="1.06" transform="translate(-22.1 72.04) rotate(-12.36)"/><polygon class="cls-22" points="317.39 135.8 324.38 134.27 324.61 135.3 317.61 136.83 317.39 135.8"/><polygon class="cls-22" points="316.83 133.28 323.83 131.75 324.06 132.79 317.06 134.31 316.83 133.28"/><rect class="cls-22" x="316.32" y="129.99" width="7.16" height="1.06" transform="translate(-20.46 71.15) rotate(-12.3)"/><rect class="cls-22" x="315.76" y="127.46" width="7.17" height="1.06" transform="translate(-19.92 70.89) rotate(-12.29)"/><rect class="cls-22" x="315.21" y="124.94" width="7.17" height="1.06" transform="translate(-19.7 72.62) rotate(-12.61)"/><rect class="cls-22" x="314.66" y="122.42" width="7.17" height="1.06" transform="translate(-18.97 71.13) rotate(-12.39)"/><rect class="cls-22" x="314.11" y="119.9" width="7.17" height="1.06" transform="translate(-18.5 71.36) rotate(-12.46)"/><rect class="cls-22" x="313.55" y="117.38" width="7.17" height="1.06" transform="matrix(0.98, -0.21, 0.21, 0.98, -17.87, 70.49)"/><rect class="cls-22" x="313" y="114.86" width="7.17" height="1.06" transform="translate(-17.32 70.11) rotate(-12.3)"/><path class="cls-21" d="M382,106.92l-2.61,4.66a.92.92,0,0,1-1.25.35L351,96.73a.92.92,0,0,1-.35-1.25l2.62-4.66a.89.89,0,0,1,1.23-.34l27.09,15.2a.92.92,0,0,1,.35,1.24" transform="translate(0)"/><rect class="cls-22" x="350.39" y="93.73" width="7.16" height="1.06" transform="translate(98.54 356.82) rotate(-60.7)"/><polygon class="cls-22" points="358.43 92.66 354.92 98.9 354 98.39 357.51 92.14 358.43 92.66"/><polygon class="cls-22" points="360.67 93.92 357.17 100.17 356.25 99.64 359.75 93.4 360.67 93.92"/><polygon class="cls-22" points="362.92 95.18 359.42 101.43 358.5 100.91 362 94.67 362.92 95.18"/><rect class="cls-22" x="359.38" y="98.78" width="7.16" height="1.06" transform="translate(98.83 367.33) rotate(-60.72)"/><polygon class="cls-22" points="367.41 97.71 363.91 103.95 362.99 103.43 366.49 97.19 367.41 97.71"/><polygon class="cls-22" points="366.17 105.22 365.24 104.7 368.75 98.45 369.68 98.97 366.17 105.22"/><polygon class="cls-22" points="368.42 106.48 367.49 105.96 371 99.71 371.93 100.23 368.42 106.48"/><rect class="cls-22" x="368.37" y="103.83" width="7.17" height="1.07" transform="translate(98.69 377.43) rotate(-60.65)"/><rect class="cls-22" x="370.62" y="105.09" width="7.17" height="1.06" transform="translate(99.12 380.42) rotate(-60.73)"/><polygon class="cls-22" points="375.16 110.27 374.24 109.75 377.75 103.5 378.68 104.02 375.16 110.27"/><polygon class="cls-22" points="377.41 111.53 376.49 111.01 380 104.76 380.92 105.28 377.41 111.53"/><path class="cls-21" d="M353.94,107.85l2.43-4.77a.91.91,0,0,1,1.23-.4l27.67,14.1a.91.91,0,0,1,.4,1.23l-2.43,4.76a.91.91,0,0,1-1.22.39l-27.67-14.1a.9.9,0,0,1-.41-1.21" transform="translate(0)"/><rect class="cls-22" x="378.86" y="118.83" width="7.16" height="1.06" transform="translate(102.5 405.96) rotate(-63.01)"/><rect class="cls-22" x="376.57" y="117.66" width="7.16" height="1.06" transform="translate(102.13 403.12) rotate(-62.97)"/><rect class="cls-22" x="374.27" y="116.49" width="7.16" height="1.06" transform="translate(102.18 400.69) rotate(-63.03)"/><polygon class="cls-22" points="373.46 118.8 376.71 112.41 377.65 112.9 374.4 119.28 373.46 118.8"/><rect class="cls-22" x="369.68" y="114.15" width="7.16" height="1.06" transform="translate(101.83 395.39) rotate(-63.04)"/><polygon class="cls-22" points="368.87 116.46 372.12 110.08 373.06 110.56 369.81 116.94 368.87 116.46"/><polygon class="cls-22" points="369.81 108.9 370.76 109.38 367.5 115.77 366.56 115.29 369.81 108.9"/><rect class="cls-22" x="362.77" y="110.64" width="7.17" height="1.06" transform="translate(101.21 387.35) rotate(-63.05)"/><rect class="cls-22" x="360.48" y="109.46" width="7.17" height="1.06" transform="translate(100.43 384.1) rotate(-62.93)"/><rect class="cls-22" x="358.18" y="108.29" width="7.17" height="1.06" transform="translate(100.67 381.85) rotate(-63.02)"/><rect class="cls-22" x="355.88" y="107.12" width="7.17" height="1.06" transform="translate(99.65 378.39) rotate(-62.85)"/><polygon class="cls-22" points="358.32 103.05 359.27 103.53 356.01 109.92 355.07 109.43 358.32 103.05"/><path class="cls-21" d="M382.48,154.31l1.15,5.23a.92.92,0,0,1-.7,1.09l-30.34,6.63a.93.93,0,0,1-1.09-.7l-1.14-5.23a.91.91,0,0,1,.7-1.07l30.34-6.63a.9.9,0,0,1,1.08.68" transform="translate(0)"/><polygon class="cls-22" points="352.89 159.86 354.42 166.86 353.39 167.08 351.86 160.09 352.89 159.86"/><polygon class="cls-22" points="355.42 159.31 356.94 166.31 355.91 166.53 354.38 159.54 355.42 159.31"/><polygon class="cls-22" points="357.93 158.76 359.46 165.75 358.42 165.98 356.89 158.99 357.93 158.76"/><polygon class="cls-22" points="360.45 158.22 361.98 165.21 360.94 165.43 359.41 158.43 360.45 158.22"/><polygon class="cls-22" points="362.96 157.66 364.5 164.65 363.46 164.88 361.93 157.89 362.96 157.66"/><rect class="cls-22" x="365.2" y="157.14" width="1.06" height="7.16" transform="translate(-25.86 81.66) rotate(-12.31)"/><polygon class="cls-22" points="369.54 163.55 368.5 163.78 366.97 156.78 368 156.55 369.54 163.55"/><rect class="cls-22" x="370.24" y="156.03" width="1.06" height="7.17" transform="translate(-25.75 84) rotate(-12.5)"/><rect class="cls-22" x="372.76" y="155.48" width="1.06" height="7.17" transform="translate(-25.37 83.48) rotate(-12.34)"/><rect class="cls-22" x="375.29" y="154.93" width="1.06" height="7.17" transform="translate(-25.33 84.69) rotate(-12.44)"/><polygon class="cls-22" points="379.62 161.35 378.58 161.57 377.05 154.57 378.09 154.35 379.62 161.35"/><polygon class="cls-22" points="382.14 160.8 381.1 161.03 379.57 154.02 380.61 153.8 382.14 160.8"/><path class="cls-19" d="M362.13,61.5,313.76,71.59a4.06,4.06,0,0,1-4.8-3.15l-.84-4a4.06,4.06,0,0,1,3.15-4.81l48.36-10.09a4.07,4.07,0,0,1,4.8,3.15l.84,4a4.05,4.05,0,0,1-3.14,4.8" transform="translate(0)"/><g class="cls-27"><g class="cls-28"><polygon class="cls-7" points="336.14 72.44 306 118.47 308.83 132.02 349.7 69.61 336.14 72.44"/><path class="cls-7" d="M384.52,84.79a22,22,0,0,0-19.74-17.4L312.12,147.8,314.46,159a22,22,0,0,0,15.4,16.62l55.83-85.26Z" transform="translate(0)"/></g></g><path class="cls-14" d="M247.64,125.53s13.48,27.75,16.34,28,52-3.63,55.56-5.7c2.08-1.21,3.67-3,5.49-4.57a27,27,0,0,1,2.55-2,30,30,0,0,0,3.17-1.79c.76-.64,3.44-4.63,5-4.25,1.2.3,1.1,1.21.88,2.18-.27,1.24-2,2.42-2.8,3.31-.48.51-1.89,1.94-1.64,2.75.33,1.11,2.77-.82,3.32-1.17a9.82,9.82,0,0,0,2.27-2,33.64,33.64,0,0,0,2.07-2.76c.4-.57.78-1.19,1.16-1.76.65-1,1.22-1.83,1.78-2.85.43-.76,1.1-1.64,2.07-1.12s0,2.38-.41,3.16a27.08,27.08,0,0,0-1.2,2.49c-.24.57-1.18,1.54-.86,2.21a13.48,13.48,0,0,0,2.69-3.08c.5-.66,3-4.79,4.17-4,1.82,1.28-.36,4-1.21,5.13a12.47,12.47,0,0,1-1.88,2.09c-.31.26-1.67,1.71-1.42,1.69,1.73-.17,3-2.79,4.05-4,.67-.77,2.78-3,3.07-.77a3.45,3.45,0,0,1-.9,2.34,12,12,0,0,1-2.71,2.93,9.77,9.77,0,0,0-1.76,2c1.29,0,3.84-3.32,5-2.44.76.57-.07,2.15-.49,2.62-3,3.34-7.53,5.57-11.41,7.68A119.17,119.17,0,0,1,326.48,158c-6.37,2.52-60.43,19.45-66.91,18.68S236,142.72,231,133.09s16.6-7.56,16.6-7.56" transform="translate(0)"/><path class="cls-16" d="M229.22,140.57s17.12-6.34,27-15.23c0,0-22.08-49.61-37.76-37.16s10.78,52.39,10.78,52.39" transform="translate(0)"/></g></g></g></svg>