<svg xmlns="http://www.w3.org/2000/svg" viewBox="0 0 117.65 161.17"><defs><style>.cls-1{fill:#231f20;}.cls-1,.cls-11,.cls-5{opacity:0.2;}.cls-2{fill:#a7e5ea;}.cls-3{fill:#fdd66f;}.cls-10,.cls-4,.cls-7,.cls-9{fill:#ecad00;}.cls-13,.cls-6,.cls-8{fill:#fff;}.cls-7{font-size:26.96px;}.cls-10,.cls-7,.cls-9{font-family:SofiaPro-Black, SofiaPro Black;font-weight:800;}.cls-8{opacity:0.3;}.cls-9{font-size:26.96px;}.cls-10{font-size:26.96px;}.cls-11{fill:#cdf8f9;}.cls-12{fill:#a97c50;}.cls-13{opacity:0.8;}.cls-14{fill:#726658;}</style></defs><g id="Capa_2" data-name="Capa 2"><g id="Layer_1" data-name="Layer 1"><path class="cls-1" d="M117.65,153.11c0,4.45-26.33,8.06-58.82,8.06S0,157.56,0,153.11s26.34-8.06,58.83-8.06S117.65,148.66,117.65,153.11Z"/><path class="cls-2" d="M94,34.93s21.57,8.33,23.12,21.61-2.26,79.4-19.21,95.28c0,0-15.58,5-38.39,5s-22.75,0-38.4-5C4.18,135.94.38,69.81,1.93,56.54S25.05,34.93,25.05,34.93Z"/><rect class="cls-3" x="39.16" y="142.69" width="40.78" height="5.12"/><rect class="cls-4" x="37.16" y="143.5" width="44.78" height="5.62"/><g class="cls-5"><polygon class="cls-6" points="37.68 149.13 46.61 149.13 50.55 143.5 41.62 143.5 37.68 149.13"/><polygon class="cls-6" points="58.41 143.5 55.08 143.5 51.14 149.13 54.48 149.13 58.41 143.5"/><polygon class="cls-6" points="81.94 145.12 79.13 149.13 81.94 149.13 81.94 145.12"/><polygon class="cls-6" points="76 143.5 67.08 143.5 63.14 149.13 72.06 149.13 76 143.5"/></g><rect class="cls-3" x="62.86" y="118.42" width="5.12" height="40.78" transform="translate(-74.11 202.66) rotate(-89.36)"/><rect class="cls-4" x="62.6" y="117.48" width="5.62" height="44.78" transform="translate(-75.19 203.7) rotate(-89.36)"/><g class="cls-5"><polygon class="cls-6" points="43.51 142.44 52.44 142.53 56.44 136.96 47.51 136.86 43.51 142.44"/><polygon class="cls-6" points="64.3 137.05 60.97 137.01 56.97 142.59 60.3 142.63 64.3 137.05"/><polygon class="cls-6" points="87.81 138.93 84.95 142.9 87.76 142.93 87.81 138.93"/><polygon class="cls-6" points="81.89 137.25 72.97 137.14 68.96 142.72 77.89 142.82 81.89 137.25"/></g><rect class="cls-3" x="55.85" y="112.14" width="5.12" height="40.78" transform="translate(-74.19 190.78) rotate(-89.93)"/><rect class="cls-4" x="55.6" y="111.21" width="5.62" height="44.78" transform="translate(-75.26 191.85) rotate(-89.93)"/><g class="cls-5"><polygon class="cls-6" points="36.55 136.38 45.48 136.39 49.42 130.78 40.49 130.76 36.55 136.38"/><polygon class="cls-6" points="57.28 130.78 53.95 130.78 50.01 136.4 53.34 136.4 57.28 130.78"/><polygon class="cls-6" points="80.8 132.43 77.99 136.43 80.8 136.43 80.8 132.43"/><polygon class="cls-6" points="74.88 130.81 65.94 130.8 62 136.41 70.93 136.42 74.88 130.81"/></g><rect class="cls-3" x="61.75" y="105.65" width="5.12" height="40.78" transform="translate(-61.82 190.18) rotate(-89.92)"/><rect class="cls-4" x="61.49" y="104.72" width="5.62" height="44.78" transform="translate(-62.88 191.25) rotate(-89.93)"/><g class="cls-5"><polygon class="cls-6" points="42.44 129.89 51.37 129.9 55.31 124.28 46.38 124.27 42.44 129.89"/><polygon class="cls-6" points="63.17 124.29 59.84 124.29 55.9 129.9 59.23 129.91 63.17 124.29"/><polygon class="cls-6" points="86.69 125.94 83.88 129.94 86.69 129.94 86.69 125.94"/><polygon class="cls-6" points="80.77 124.32 71.84 124.31 67.89 129.92 76.82 129.93 80.77 124.32"/></g><rect class="cls-3" x="43.77" y="111.16" width="40.78" height="5.12" transform="translate(-9.29 5.77) rotate(-4.8)"/><rect class="cls-4" x="41.86" y="111.97" width="44.78" height="5.62" transform="translate(-9.38 5.78) rotate(-4.8)"/><g class="cls-5"><polygon class="cls-6" points="42.7 119.41 51.59 118.66 55.05 112.73 46.15 113.48 42.7 119.41"/><polygon class="cls-6" points="62.88 112.07 59.57 112.35 56.11 118.28 59.43 118 62.88 112.07"/><polygon class="cls-6" points="86.46 111.72 84 115.94 86.8 115.71 86.46 111.72"/><polygon class="cls-6" points="80.42 110.6 71.52 111.35 68.06 117.28 76.96 116.53 80.42 110.6"/></g><rect class="cls-3" x="58.11" y="99.65" width="5.12" height="40.78" transform="translate(-60.51 178.41) rotate(-88.9)"/><rect class="cls-4" x="57.84" y="98.72" width="5.62" height="44.78" transform="matrix(0.02, -1, 1, 0.02, -61.6, 179.43)"/><g class="cls-5"><polygon class="cls-6" points="38.74 123.5 47.66 123.67 51.71 118.13 42.79 117.96 38.74 123.5"/><polygon class="cls-6" points="59.57 118.28 56.24 118.21 52.2 123.76 55.53 123.82 59.57 118.28"/><polygon class="cls-6" points="83.06 120.34 80.18 124.3 82.98 124.35 83.06 120.34"/><polygon class="cls-6" points="77.16 118.61 68.23 118.44 64.19 123.99 73.11 124.16 77.16 118.61"/></g><rect class="cls-3" x="58.22" y="84.94" width="5.12" height="40.78" transform="translate(-50.02 155.45) rotate(-84.35)"/><rect class="cls-4" x="57.86" y="84" width="5.62" height="44.78" transform="translate(-51.17 156.3) rotate(-84.35)"/><g class="cls-5"><polygon class="cls-6" points="38.64 107.04 47.52 107.92 52 102.71 43.11 101.83 38.64 107.04"/><polygon class="cls-6" points="59.82 103.48 56.51 103.15 52.03 108.36 55.35 108.69 59.82 103.48"/><polygon class="cls-6" points="83.07 107.41 79.88 111.11 82.67 111.39 83.07 107.41"/><polygon class="cls-6" points="77.33 105.22 68.44 104.33 63.97 109.54 72.85 110.42 77.33 105.22"/></g><path class="cls-4" d="M88.39,85.3a19.16,19.16,0,1,1-15.2-22.44A19.18,19.18,0,0,1,88.39,85.3Z"/><path class="cls-4" d="M88.39,85.3a19.16,19.16,0,1,1-15.2-22.44A19.18,19.18,0,0,1,88.39,85.3Z"/><path class="cls-3" d="M85.41,84.73a16.13,16.13,0,1,1-12.8-18.89A16.13,16.13,0,0,1,85.41,84.73Z"/><text class="cls-7" transform="matrix(0.98, 0.19, -0.19, 0.98, 60.63, 89.14)">$</text><path class="cls-8" d="M84.26,79.21A14,14,0,1,1,73.19,62.86,13.95,13.95,0,0,1,84.26,79.21Z"/><path class="cls-8" d="M63.29,86.18A2.93,2.93,0,1,1,61,82.75,2.92,2.92,0,0,1,63.29,86.18Z"/><path class="cls-4" d="M77.42,15.4A19.16,19.16,0,1,1,54.86.38,19.17,19.17,0,0,1,77.42,15.4Z"/><path class="cls-4" d="M77.42,15.4A19.16,19.16,0,1,1,54.86.38,19.17,19.17,0,0,1,77.42,15.4Z"/><path class="cls-3" d="M74.45,16a16.13,16.13,0,1,1-19-12.65A16.14,16.14,0,0,1,74.45,16Z"/><text class="cls-9" transform="matrix(0.98, -0.2, 0.2, 0.98, 53.18, 29.51)">$</text><path class="cls-8" d="M71.3,11.32A14,14,0,1,1,54.86.38,14,14,0,0,1,71.3,11.32Z"/><path class="cls-8" d="M54.51,25.7a2.93,2.93,0,1,1-3.45-2.29A2.94,2.94,0,0,1,54.51,25.7Z"/><path class="cls-4" d="M61.11,123.73a19.17,19.17,0,1,1-24.34-11.92A19.17,19.17,0,0,1,61.11,123.73Z"/><path class="cls-4" d="M61.11,123.73a19.17,19.17,0,1,1-24.34-11.92A19.17,19.17,0,0,1,61.11,123.73Z"/><path class="cls-3" d="M58.25,124.72a16.13,16.13,0,1,1-20.49-10A16.14,16.14,0,0,1,58.25,124.72Z"/><text class="cls-10" transform="translate(38.99 140.9) rotate(-18.91)">$</text><path class="cls-8" d="M54.51,120.5a14,14,0,1,1-17.74-8.69A14,14,0,0,1,54.51,120.5Z"/><path class="cls-8" d="M39.76,137A2.93,2.93,0,1,1,36,135.14,2.93,2.93,0,0,1,39.76,137Z"/><path class="cls-11" d="M59.53,151c-19.77,0-34.08-.58-37-1.44C7,133.91,3,70,4.52,56.84c1.24-10.59,18.11-18.08,21-19.3H93.5c2.93,1.22,19.8,8.71,21,19.3,1.52,13.11-2.49,77.07-18,92.66C93.6,150.37,79.24,151,59.53,151Z"/><polygon class="cls-12" points="19.36 25.35 24.01 35.6 94.46 35.6 99.7 25.35 19.36 25.35"/><path class="cls-13" d="M38.48,43.62H20C7.12,52,8,60.37,8,60.37c0,46.56,15.73,79.41,15.73,79.41s-2.9-38.07-2.9-60C20.87,63.9,32.17,50.09,38.48,43.62Z"/><path class="cls-13" d="M99.64,44h-10c12.4,3.43,23.75,22.75,23.75,22.75C113.36,53.68,104.34,46.76,99.64,44Z"/><polygon class="cls-14" points="22.32 31.88 24.01 35.6 94.46 35.6 96.37 31.88 22.32 31.88"/></g></g></svg>