<svg xmlns="http://www.w3.org/2000/svg" viewBox="0 0 182.98 205.45"><defs><style>.cls-1{fill:#231f20;opacity:0.2;}.cls-2{fill:#edf5d0;}.cls-3{fill:#9da88f;}.cls-4{fill:#ededed;}.cls-5{fill:#f5b026;}.cls-6{fill:#cfcfcf;}.cls-7{fill:#da8108;}.cls-8{fill:#81b53c;}.cls-8,.cls-9{fill-rule:evenodd;}.cls-9{fill:#94cc49;}.cls-10{fill:#1d1d1b;opacity:0.15;}</style></defs><g id="Capa_2" data-name="Capa 2"><g id="Layer_1" data-name="Layer 1"><path class="cls-1" d="M183,196.47c0,5-41,9-91.49,9s-91.49-4-91.49-9,41-9,91.49-9S183,191.51,183,196.47Z"/><polygon class="cls-2" points="75.31 182.18 24 182.18 37.28 169.76 80.2 169.76 80.73 168.41 33.61 168.41 14.95 184.38 74.44 184.38 75.31 182.18"/><path class="cls-2" d="M148.09,170.32H106.64l4.34,11h48.45Zm-14.72,6.54c-3,0-5.78-.71-6.27-1.57s1.42-1.48,4.22-1.48,5.59.65,6.22,1.48S136.33,176.86,133.37,176.86Z"/><path class="cls-2" d="M27.46,181.34H75.64l4.34-11H38.8ZM61,178.55H44.43l.59-.74H61.37Zm3-1.41H43.31l.6-.71h20.4Zm-11.84-4c.48-.65,2.7-1.17,5-1.17s3.79.52,3.4,1.17-2.64,1.24-5,1.24S51.62,173.8,52.12,173.12Zm-9.81,1.94H67.73l-.3.68H41.71Z"/><polygon class="cls-2" points="149.62 169.76 162.89 182.18 111.31 182.18 112.17 184.38 171.95 184.38 153.28 168.41 105.88 168.41 106.42 169.76 149.62 169.76"/><polygon class="cls-3" points="149.62 169.76 106.42 169.76 106.64 170.32 148.09 170.32 159.43 181.34 110.98 181.34 111.31 182.18 162.89 182.18 149.62 169.76"/><polygon class="cls-3" points="27.46 181.34 38.8 170.32 79.98 170.32 80.2 169.76 37.28 169.76 24 182.18 75.31 182.18 75.64 181.34 27.46 181.34"/><path class="cls-3" d="M131.32,173.81c-2.8,0-4.7.65-4.22,1.48s3.31,1.57,6.27,1.57,4.82-.71,4.17-1.57S134.13,173.81,131.32,173.81Z"/><path class="cls-3" d="M55.49,174.36c2.36,0,4.61-.56,5-1.24S59.35,172,57.09,172s-4.49.52-5,1.17S53.12,174.36,55.49,174.36Z"/><polygon class="cls-3" points="67.73 175.06 42.31 175.06 41.71 175.74 67.43 175.74 67.73 175.06"/><polygon class="cls-3" points="43.31 177.14 63.96 177.14 64.31 176.43 43.91 176.43 43.31 177.14"/><polygon class="cls-3" points="44.43 178.55 60.97 178.55 61.37 177.81 45.02 177.81 44.43 178.55"/><rect class="cls-3" x="14.95" y="184.38" width="59.49" height="12.79"/><rect class="cls-3" x="112.17" y="184.38" width="59.77" height="12.79"/><polygon class="cls-4" points="109.96 184.38 112.17 184.38 111.31 182.18 110.98 181.34 106.64 170.32 106.42 169.76 105.88 168.41 104.41 168.41 109.96 184.38"/><polygon class="cls-4" points="79.54 184.38 107.08 184.38 102.49 168.41 84.13 168.41 79.54 184.38"/><polygon class="cls-4" points="79.98 170.32 75.64 181.34 75.31 182.18 74.44 184.38 76.66 184.38 82.21 168.41 80.73 168.41 80.2 169.76 79.98 170.32"/><polygon class="cls-5" points="76.66 184.38 79.54 184.38 84.13 168.41 82.21 168.41 76.66 184.38"/><polygon class="cls-5" points="107.08 184.38 109.96 184.38 104.41 168.41 102.49 168.41 107.08 184.38"/><rect class="cls-6" x="74.44" y="184.38" width="2.21" height="12.79"/><rect class="cls-6" x="109.96" y="184.38" width="2.21" height="12.79"/><rect class="cls-6" x="79.54" y="184.38" width="27.54" height="12.79"/><rect class="cls-7" x="76.66" y="184.38" width="2.88" height="12.79"/><rect class="cls-7" x="107.08" y="184.38" width="2.88" height="12.79"/><polygon class="cls-2" points="72.27 167.78 21 169.44 33.86 156.6 76.76 155.21 77.25 153.84 30.15 155.37 12.02 171.93 71.48 170 72.27 167.78"/><path class="cls-2" d="M144.63,153.57l-41.43,1.34,4.7,10.88,48.43-1.57Zm-14.5,7c-3,.1-5.79-.52-6.32-1.36s1.37-1.53,4.18-1.62,5.6.47,6.26,1.28S133.09,160.49,130.13,160.58Z"/><path class="cls-2" d="M24.42,168.49l48.15-1.56,4-11.15L35.4,157.11Zm33.41-3.87-16.54.54.57-.77,16.34-.53Zm2.94-1.51-20.64.67.57-.73,20.4-.66Zm-12-3.63c.46-.67,2.67-1.27,4.93-1.34s3.81.4,3.44,1.07-2.6,1.32-5,1.39S48.32,160.17,48.8,159.48Zm-9.74,2.25,25.41-.82-.28.69-25.71.83Z"/><polygon class="cls-2" points="146.14 152.96 159.81 164.95 108.25 166.62 109.19 168.78 168.93 166.85 149.76 151.49 102.39 153.03 102.96 154.36 146.14 152.96"/><polygon class="cls-3" points="146.14 152.96 102.96 154.36 103.2 154.91 144.63 153.57 156.33 164.22 107.9 165.79 108.25 166.62 159.81 164.95 146.14 152.96"/><polygon class="cls-3" points="24.42 168.49 35.4 157.11 76.56 155.78 76.76 155.21 33.86 156.6 21 169.44 72.27 167.78 72.57 166.94 24.42 168.49"/><path class="cls-3" d="M128,157.6c-2.81.09-4.69.8-4.18,1.62s3.36,1.46,6.32,1.36,4.8-.87,4.12-1.7S130.8,157.51,128,157.6Z"/><path class="cls-3" d="M52.21,160.6c2.36-.07,4.59-.71,5-1.39s-1.18-1.14-3.44-1.07-4.47.67-4.93,1.34S49.85,160.68,52.21,160.6Z"/><polygon class="cls-3" points="64.47 160.91 39.06 161.73 38.48 162.43 64.19 161.6 64.47 160.91"/><polygon class="cls-3" points="40.13 163.78 60.77 163.11 61.1 162.39 40.7 163.05 40.13 163.78"/><polygon class="cls-3" points="41.29 165.16 57.83 164.62 58.2 163.86 41.86 164.39 41.29 165.16"/><rect class="cls-3" x="12.21" y="170.96" width="59.49" height="12.79" transform="translate(-5.72 1.45) rotate(-1.86)"/><rect class="cls-3" x="109.38" y="167.81" width="59.77" height="12.79" transform="translate(-5.57 4.6) rotate(-1.86)"/><polygon class="cls-4" points="106.98 168.85 109.19 168.78 108.25 166.62 107.9 165.79 103.2 154.91 102.96 154.36 102.39 153.03 100.91 153.07 106.98 168.85"/><polygon class="cls-4" points="76.57 169.84 104.1 168.95 98.99 153.14 80.64 153.73 76.57 169.84"/><polygon class="cls-4" points="76.56 155.78 72.57 166.94 72.27 167.78 71.48 170 73.69 169.93 78.72 153.79 77.25 153.84 76.76 155.21 76.56 155.78"/><polygon class="cls-5" points="73.69 169.93 76.57 169.84 80.64 153.73 78.72 153.79 73.69 169.93"/><polygon class="cls-5" points="104.1 168.95 106.98 168.85 100.91 153.07 98.99 153.14 104.1 168.95"/><rect class="cls-6" x="71.69" y="169.96" width="2.21" height="12.79" transform="translate(-5.67 2.45) rotate(-1.86)"/><rect class="cls-6" x="107.18" y="168.81" width="2.21" height="12.79" transform="translate(-5.61 3.6) rotate(-1.85)"/><rect class="cls-6" x="76.77" y="169.39" width="27.54" height="12.79" transform="translate(-5.64 3.02) rotate(-1.85)"/><rect class="cls-7" x="73.9" y="169.88" width="2.88" height="12.79" transform="translate(-5.67 2.53) rotate(-1.86)"/><rect class="cls-7" x="104.3" y="168.9" width="2.88" height="12.79" transform="translate(-5.62 3.52) rotate(-1.86)"/><polygon class="cls-2" points="75.31 151.95 24 151.95 37.28 139.53 80.2 139.53 80.73 138.18 33.61 138.18 14.95 154.15 74.44 154.15 75.31 151.95"/><path class="cls-2" d="M148.09,140.09H106.64l4.34,11h48.45Zm-14.72,6.54c-3,0-5.78-.71-6.27-1.57s1.42-1.48,4.22-1.48,5.59.65,6.22,1.48S136.33,146.63,133.37,146.63Z"/><path class="cls-2" d="M27.46,151.12H75.64l4.34-11H38.8ZM61,148.33H44.43l.59-.75H61.37Zm3-1.41H43.31l.6-.72h20.4Zm-11.84-4c.48-.66,2.7-1.18,5-1.18s3.79.52,3.4,1.18-2.64,1.23-5,1.23S51.62,143.57,52.12,142.9Zm-9.81,1.93H67.73l-.3.68H41.71Z"/><polygon class="cls-2" points="149.62 139.53 162.89 151.95 111.31 151.95 112.17 154.15 171.95 154.15 153.28 138.18 105.88 138.18 106.42 139.53 149.62 139.53"/><polygon class="cls-3" points="149.62 139.53 106.42 139.53 106.64 140.09 148.09 140.09 159.43 151.12 110.98 151.12 111.31 151.95 162.89 151.95 149.62 139.53"/><polygon class="cls-3" points="27.46 151.12 38.8 140.09 79.98 140.09 80.2 139.53 37.28 139.53 24 151.95 75.31 151.95 75.64 151.12 27.46 151.12"/><path class="cls-3" d="M131.32,143.58c-2.8,0-4.7.65-4.22,1.48s3.31,1.57,6.27,1.57,4.82-.71,4.17-1.57S134.13,143.58,131.32,143.58Z"/><path class="cls-3" d="M55.49,144.13c2.36,0,4.61-.56,5-1.23s-1.14-1.18-3.4-1.18-4.49.52-5,1.18S53.12,144.13,55.49,144.13Z"/><polygon class="cls-3" points="67.73 144.83 42.31 144.83 41.71 145.51 67.43 145.51 67.73 144.83"/><polygon class="cls-3" points="43.31 146.91 63.96 146.91 64.31 146.2 43.91 146.2 43.31 146.91"/><polygon class="cls-3" points="44.43 148.33 60.97 148.33 61.37 147.58 45.02 147.58 44.43 148.33"/><rect class="cls-3" x="14.95" y="154.15" width="59.49" height="12.79"/><rect class="cls-3" x="112.17" y="154.15" width="59.77" height="12.79"/><polygon class="cls-4" points="109.96 154.15 112.17 154.15 111.31 151.95 110.98 151.12 106.64 140.09 106.42 139.53 105.88 138.18 104.41 138.18 109.96 154.15"/><polygon class="cls-4" points="79.54 154.15 107.08 154.15 102.49 138.18 84.13 138.18 79.54 154.15"/><polygon class="cls-4" points="79.98 140.09 75.64 151.12 75.31 151.95 74.44 154.15 76.66 154.15 82.21 138.18 80.73 138.18 80.2 139.53 79.98 140.09"/><polygon class="cls-5" points="76.66 154.15 79.54 154.15 84.13 138.18 82.21 138.18 76.66 154.15"/><polygon class="cls-5" points="107.08 154.15 109.96 154.15 104.41 138.18 102.49 138.18 107.08 154.15"/><rect class="cls-6" x="74.44" y="154.15" width="2.21" height="12.79"/><rect class="cls-6" x="109.96" y="154.15" width="2.21" height="12.79"/><rect class="cls-6" x="79.54" y="154.15" width="27.54" height="12.79"/><rect class="cls-7" x="76.66" y="154.15" width="2.88" height="12.79"/><rect class="cls-7" x="107.08" y="154.15" width="2.88" height="12.79"/><path class="cls-8" d="M93.31,24.21h0a.51.51,0,0,0-.5.5L89,144.29h8.66L93.82,24.71A.52.52,0,0,0,93.31,24.21Z"/><path class="cls-9" d="M77.18,86.82c9.07,9.06,4.81,15.39-1.71,21.91s-12.85,10.78-21.91,1.72S42.65,75.91,42.65,75.91,68.12,77.76,77.18,86.82Z"/><path class="cls-8" d="M47,80.25h0c-.32.32-.19,1,.3,1.49l45.36,46.68,2.54-2.54L48.49,80.55C48,80.05,47.32,79.92,47,80.25Z"/><path class="cls-8" d="M59.54,112.52h0c.15.26.37.42.48.36l12.39-6.44-1.18-2-11.77,7.51C59.36,112,59.39,112.26,59.54,112.52Z"/><path class="cls-8" d="M53.49,107.55h0c.12.2.31.31.44.24l13.05-7-.9-1.56L53.5,107.06C53.38,107.14,53.37,107.36,53.49,107.55Z"/><path class="cls-8" d="M50.46,100.87h0c.1.18.27.28.37.22l10.72-5.7L60.75,94l-10.3,6.42C50.35,100.51,50.36,100.7,50.46,100.87Z"/><path class="cls-8" d="M48,93.81h0c.09.15.22.25.29.21l7.88-4.13-.69-1.2L48,93.45C47.93,93.49,48,93.65,48,93.81Z"/><path class="cls-8" d="M45.62,87.75h0c.06.11.15.17.2.15L51.33,85l-.48-.83L45.6,87.5C45.55,87.53,45.56,87.64,45.62,87.75Z"/><path class="cls-8" d="M79.27,92.79h0c.26.15.42.37.36.48L73.2,105.67l-2-1.18,7.51-11.77C78.74,92.61,79,92.64,79.27,92.79Z"/><path class="cls-8" d="M74.3,86.74h0c.2.12.31.31.24.44l-7,13L66,99.33l7.81-12.58C73.89,86.63,74.11,86.62,74.3,86.74Z"/><path class="cls-8" d="M67.62,83.71h0c.18.1.28.27.22.37L62.15,94.8,60.77,94l6.42-10.3C67.26,83.6,67.45,83.61,67.62,83.71Z"/><path class="cls-8" d="M60.56,81.29h0c.15.09.25.22.21.29l-4.13,7.88-1.2-.69,4.76-7.51C60.24,81.18,60.4,81.2,60.56,81.29Z"/><path class="cls-8" d="M54.5,78.87h0c.11.06.17.15.15.2l-2.89,5.5-.83-.48,3.32-5.25S54.39,78.81,54.5,78.87Z"/><path class="cls-9" d="M79.53,47.41c7.79,7.8,4.14,13.24-1.47,18.85S67,75.53,59.21,67.73,49.83,38,49.83,38,71.74,39.62,79.53,47.41Z"/><path class="cls-8" d="M53.57,41.76h0c-.28.28-.17.85.26,1.29l39,40.14L95,81,54.85,42C54.42,41.59,53.85,41.48,53.57,41.76Z"/><path class="cls-8" d="M64.36,69.52h0c.13.22.32.36.42.3L75.43,64.3l-1-1.76L64.3,69C64.2,69.06,64.23,69.29,64.36,69.52Z"/><path class="cls-8" d="M59.15,65.25h0c.1.17.26.26.37.21l11.22-6L70,58.11,59.16,64.82C59.06,64.89,59.05,65.08,59.15,65.25Z"/><path class="cls-8" d="M56.55,59.5h0c.09.15.23.23.32.19l9.22-4.91L65.4,53.6l-8.86,5.53C56.46,59.18,56.46,59.35,56.55,59.5Z"/><path class="cls-8" d="M54.46,53.42h0c.07.13.18.21.25.17l6.77-3.55-.59-1-6.46,4.09C54.38,53.15,54.39,53.29,54.46,53.42Z"/><path class="cls-8" d="M52.39,48.21h0c0,.09.13.14.18.12l4.73-2.48-.42-.72L52.37,48S52.34,48.12,52.39,48.21Z"/><path class="cls-8" d="M81.33,52.55h0c.23.12.37.31.31.41L76.11,63.62l-1.76-1,6.46-10.12C80.87,52.39,81.1,52.42,81.33,52.55Z"/><path class="cls-8" d="M77.05,47.34h0c.17.1.26.26.21.37l-6,11.22-1.33-.77,6.71-10.82C76.69,47.25,76.88,47.25,77.05,47.34Z"/><path class="cls-8" d="M71.31,44.74h0c.15.09.23.23.19.32L66.6,54.28l-1.19-.69,5.53-8.86C71,44.65,71.16,44.65,71.31,44.74Z"/><path class="cls-8" d="M65.23,42.65h0c.13.07.21.19.17.25l-3.55,6.77-1-.59,4.09-6.46C65,42.57,65.1,42.58,65.23,42.65Z"/><path class="cls-8" d="M60,40.58h0c.1.06.15.13.13.18l-2.48,4.73L57,45.08l2.86-4.52S59.93,40.53,60,40.58Z"/><path class="cls-9" d="M110.25,86.82c-9.07,9.06-4.81,15.39,1.71,21.91s12.85,10.78,21.91,1.72,10.91-34.54,10.91-34.54S119.31,77.76,110.25,86.82Z"/><path class="cls-8" d="M140.43,80.25h0c.32.32.19,1-.31,1.49L94.79,128.43l-2.54-2.54,46.69-45.34C139.45,80.05,140.11,79.92,140.43,80.25Z"/><path class="cls-8" d="M127.88,112.52h0c-.15.26-.37.42-.49.36L115,106.45l1.18-2L128,111.92C128.07,112,128,112.26,127.88,112.52Z"/><path class="cls-8" d="M133.94,107.55h0c-.11.2-.3.31-.43.24l-13-7,.9-1.56,12.58,7.81C134.05,107.14,134.05,107.36,133.94,107.55Z"/><path class="cls-8" d="M137,100.87h0c-.1.18-.26.28-.36.22l-10.72-5.7.8-1.38,10.3,6.42C137.07,100.51,137.07,100.7,137,100.87Z"/><path class="cls-8" d="M139.39,93.81h0c-.09.15-.22.25-.3.21l-7.87-4.13.69-1.2,7.51,4.76C139.49,93.49,139.48,93.65,139.39,93.81Z"/><path class="cls-8" d="M141.8,87.75h0c-.06.11-.15.17-.21.15L136.09,85l.49-.83,5.24,3.32C141.87,87.53,141.86,87.64,141.8,87.75Z"/><path class="cls-8" d="M108.16,92.79h0c-.26.15-.42.37-.36.48l6.43,12.39,2-1.18-7.5-11.77C108.69,92.61,108.42,92.64,108.16,92.79Z"/><path class="cls-8" d="M113.12,86.74h0c-.2.12-.31.31-.24.44l7,13,1.55-.9-7.8-12.58C113.54,86.63,113.32,86.62,113.12,86.74Z"/><path class="cls-8" d="M119.8,83.71h0c-.18.1-.28.27-.22.37l5.7,10.72,1.38-.8-6.43-10.3C120.17,83.6,120,83.61,119.8,83.71Z"/><path class="cls-8" d="M126.87,81.29h0c-.16.09-.25.22-.21.29l4.13,7.88,1.2-.69-4.76-7.51C127.18,81.18,127,81.2,126.87,81.29Z"/><path class="cls-8" d="M132.93,78.87h0c-.11.06-.18.15-.15.2l2.89,5.5.83-.48-3.32-5.25S133,78.81,132.93,78.87Z"/><path class="cls-9" d="M107.9,47.41c-7.8,7.8-4.14,13.24,1.47,18.85s11,9.27,18.85,1.47S137.6,38,137.6,38,115.69,39.62,107.9,47.41Z"/><path class="cls-8" d="M133.86,41.76h0c.28.28.17.85-.26,1.29L94.6,83.2,92.42,81l40.15-39C133,41.59,133.58,41.48,133.86,41.76Z"/><path class="cls-8" d="M123.07,69.52h0c-.13.22-.31.36-.41.3L112,64.3l1-1.76L123.13,69C123.22,69.06,123.2,69.29,123.07,69.52Z"/><path class="cls-8" d="M128.27,65.25h0c-.1.17-.26.26-.37.21l-11.22-6,.77-1.33,10.82,6.71C128.37,64.89,128.37,65.08,128.27,65.25Z"/><path class="cls-8" d="M130.88,59.5h0c-.09.15-.23.23-.32.19l-9.22-4.91L122,53.6l8.86,5.53C131,59.18,131,59.35,130.88,59.5Z"/><path class="cls-8" d="M133,53.42h0c-.07.13-.19.21-.25.17l-6.77-3.55.59-1L133,53.11C133.05,53.15,133,53.29,133,53.42Z"/><path class="cls-8" d="M135,48.21h0c-.06.09-.14.14-.18.12l-4.73-2.48.41-.72L135.06,48S135.09,48.12,135,48.21Z"/><path class="cls-8" d="M106.1,52.55h0c-.22.12-.36.31-.31.41l5.54,10.65,1.75-1-6.45-10.12C106.56,52.39,106.33,52.42,106.1,52.55Z"/><path class="cls-8" d="M110.37,47.34h0c-.17.1-.27.26-.21.37l6,11.22,1.33-.77L110.8,47.35C110.73,47.25,110.54,47.25,110.37,47.34Z"/><path class="cls-8" d="M116.12,44.74h0c-.15.09-.23.23-.19.32l4.91,9.22,1.19-.69-5.53-8.86C116.43,44.65,116.27,44.65,116.12,44.74Z"/><path class="cls-8" d="M122.2,42.65h0c-.13.07-.21.19-.17.25l3.55,6.77,1-.59-4.08-6.46C122.47,42.57,122.33,42.58,122.2,42.65Z"/><path class="cls-8" d="M127.41,40.58h0c-.09.06-.14.13-.12.18l2.48,4.73.72-.41-2.86-4.52S127.5,40.53,127.41,40.58Z"/><path class="cls-9" d="M78.94,27.64c0,11,6.43,12.28,14.37,12.28s14.37-1.26,14.37-12.28S93.31,0,93.31,0,78.94,16.61,78.94,27.64Z"/><path class="cls-8" d="M93.3,5.28h0c.39,0,.71.48.72,1.09l.8,56H91.76l.82-56C92.58,5.76,92.91,5.28,93.3,5.28Z"/><path class="cls-8" d="M105.3,32.54h0c.07.25,0,.48-.08.51L93.78,36.68l-.53-2L105,32.13C105.09,32.11,105.23,32.29,105.3,32.54Z"/><path class="cls-8" d="M106,25.84h0c.05.19,0,.38-.12.41L93.65,29.94l-.4-1.49,12.4-2.91C105.77,25.52,105.91,25.65,106,25.84Z"/><path class="cls-8" d="M103.74,19.93h0c.05.17,0,.33-.09.36l-10,3.05L93.31,22l10.17-2.35C103.58,19.64,103.69,19.76,103.74,19.93Z"/><path class="cls-8" d="M100.91,14.16h0c0,.14,0,.28-.06.3l-7.3,2.28-.31-1.15,7.47-1.68C100.79,13.91,100.88,14,100.91,14.16Z"/><path class="cls-8" d="M98.7,9h0c0,.11,0,.2,0,.22l-5.1,1.59-.21-.8,5.21-1.17S98.67,8.91,98.7,9Z"/><path class="cls-8" d="M81.3,32.54h0c-.07.25,0,.48.08.51l11.44,3.62.53-2L81.63,32.13C81.51,32.11,81.37,32.29,81.3,32.54Z"/><path class="cls-8" d="M80.64,25.84h0c0,.19,0,.38.12.41L93,29.94l.4-1.49L81,25.54C80.83,25.52,80.69,25.65,80.64,25.84Z"/><path class="cls-8" d="M82.86,19.93h0c0,.17,0,.33.09.36l10,3.05L93.29,22,83.12,19.67C83,19.64,82.91,19.76,82.86,19.93Z"/><path class="cls-8" d="M85.69,14.16h0c0,.14,0,.28,0,.3L93,16.75l.31-1.15-7.46-1.68C85.81,13.91,85.73,14,85.69,14.16Z"/><path class="cls-8" d="M87.9,9h0c0,.11,0,.2,0,.22L93,10.82l.21-.8L88,8.85C88,8.83,87.93,8.91,87.9,9Z"/><path class="cls-10" d="M93.31,0S78.94,16.61,78.94,27.64c0,10.45,5.79,12.12,13.15,12.26l-.19,13-.78,24.31L78.91,65.38c5.1-5.3,8-10.58.62-18C71.74,39.62,49.83,38,49.83,38s1.59,21.91,9.38,29.7c7.39,7.4,12.67,4.48,18-.62L91,81.31l-1.25,39.3-13.28-12.9c5.93-6.17,9.31-12.3.72-20.89-9.06-9.06-34.53-10.91-34.53-10.91s1.84,25.47,10.91,34.54c8.59,8.59,14.72,5.2,20.9-.73l15.13,15.56-.41,12.9H33.61L15,154.15v12.79h2.53l-5.46,5,.41,12.78,2.52-.08v12.54H93.31Z"/></g></g></svg>