<svg xmlns="http://www.w3.org/2000/svg" xmlns:xlink="http://www.w3.org/1999/xlink" viewBox="0 0 381.76 324.71"><defs><style>.cls-1{fill:none;}.cls-2{isolation:isolate;}.cls-3{fill:#f45762;}.cls-4{fill:#ebebeb;}.cls-5{fill:#110239;}.cls-6{opacity:0.35;mix-blend-mode:multiply;}.cls-7{clip-path:url(#clip-path);}.cls-8{fill:#c9071e;}.cls-9{fill:#09c9ce;}.cls-10{fill:#23a1ad;}.cls-11{fill:#ffd066;}.cls-12{fill:#feac1a;}</style><clipPath id="clip-path"><rect class="cls-1" x="146.32" y="94.27" width="121.22" height="181.28"/></clipPath></defs><g class="cls-2"><g id="Capa_2" data-name="Capa 2"><g id="Capa_1-2" data-name="Capa 1"><path class="cls-3" d="M349.06,174.18A101.37,101.37,0,1,1,247.69,72.82,101.37,101.37,0,0,1,349.06,174.18"/><path class="cls-4" d="M324.52,174.18a76.84,76.84,0,1,1-76.83-76.83,76.83,76.83,0,0,1,76.83,76.83"/><path class="cls-3" d="M302.57,174.18a54.88,54.88,0,1,1-54.88-54.88,54.89,54.89,0,0,1,54.88,54.88"/><path class="cls-4" d="M285.46,174.18a37.77,37.77,0,1,1-37.77-37.77,37.77,37.77,0,0,1,37.77,37.77"/><path class="cls-3" d="M265.12,174.18a17.43,17.43,0,1,1-17.43-17.43,17.43,17.43,0,0,1,17.43,17.43"/><path class="cls-3" d="M377.59,107.19c-1.56-1.74-6.28-7.87-16.75,1.61-10,9-22.09,21.91-22.09,21.91s17.11-4.44,29.82-8.87c13.34-4.65,10.29-12.64,9-14.65"/><path class="cls-5" d="M362.78,111.26,345.19,118a95.49,95.49,0,0,0-15.27,7.47l-82.23,49.81,82.75-34a94.52,94.52,0,0,0,25.66-15.72l9.4-8.06a15.86,15.86,0,0,1-2.72-6.2"/><path class="cls-3" d="M336.31,130.71s2.37-26,16.58-37,11.19,21.09,11.19,21.09Z"/><path class="cls-3" d="M336.31,130.55s23.74,11,40.35,4.17S364,114.48,364,114.48Z"/><g class="cls-6"><g class="cls-7"><path class="cls-8" d="M261.74,257.59c-.8-26.19,12-55.41,1.86-80.13-9.72-23.66-26.42-55-46.6-71.42-9.37-7.64-20.88-8.74-31.64-11.77a101.36,101.36,0,0,0,77.23,180.18c-.48-5.82-.69-11.55-.85-16.86"/></g></g><path class="cls-9" d="M113.82,56.67s-31,7.75-54.23,25-47.35,70.59-52.09,108-14.2,66.72,0,85.87,60.26,23,99.86,26.91,94.25-5.6,105.24-19.37,10.12-118-10.54-157.38-58.11-69.9-88.24-69"/><path class="cls-10" d="M202.24,226.23c-19.93-.19-35.66,4.09-47.09,21.37-7.57,11.44-17.65,29.28-11.89,43.61A79.39,79.39,0,0,0,149,302.28c29-2.62,56.18-9.93,63.58-19.19,4.57-5.74,7.08-27.18,7-53.08-5.48-1.74-11-3.73-17.33-3.78"/><path class="cls-10" d="M166.6,281c-8-2.65-16.15-5.54-22.72-10.95-14.1-11.62-22.69-15.07-40.24-14.9-16,.16-31.56.12-45.34-9C46,238,39.15,219.91,42.12,205.67c2.15-10.37,5.26-18.63,11.66-27.12,9-12,10.76-20.61,7.55-35.59-3.84-17.91-4.42-33.21.84-51,2.71-9.17,9.11-15.83,16.31-21.83a131.79,131.79,0,0,0-18.9,11.47c-23.24,17.22-47.34,70.59-52.08,108s-14.2,66.72,0,85.87,60.26,23,99.86,26.91,94.25-5.6,105.24-19.37c2.13-2.68,3.81-8.78,5-17.14-13.75,13.6-31.58,21.49-51,15.05"/><path class="cls-9" d="M109.52,64.42S76.27,56.35,71.75,31.17,80.46-2.73,90.63,3.08s11.78,2.68,18.89-1.72S127,4.05,132.11,11.48s6.14-1.29,18.41-2.26,16.46,10.33,10,25.18-12.59,30.67-51,30"/><path class="cls-10" d="M145.56,50.26c-8.62,2.22-3.52-8.91-4.92-12.78-2.25.11-3.09,3.85-3.84,5.47a10.12,10.12,0,0,1-9.16,5.82c-5.36-.07-6.11-5.93-8.4-9.53-1-1.51-1.42-1.46-2,.36-.66,2,0,4.34-1.88,5.9-3.44,2.89-9.16-.39-11.83-2.71-2.91-2.53-4.13-6.69-7.24-9.15a4.3,4.3,0,0,0-1,2.17c-.77,3.62-.54,10.52-6.44,9.25-5-1.07-8.37-9.25-10-13.41C77,26.86,75.28,21.14,75.3,16a47,47,0,0,1,.45-6.62A18.88,18.88,0,0,1,77,4.26l0,0c-4.79,4.21-7.67,13.08-5.19,26.93,3.85,21.42,28.48,30.46,35.75,32.68a13.42,13.42,0,0,0,3.93.59C141.68,64.52,151.09,54,157,42.09l-.06.06s-8.33,7.32-11.41,8.11"/><path class="cls-11" d="M123.52,139.23c16.3,1.61,31,8.93,30.74,25.25L127.05,164c0-6.18-6.34-7.61-10.32-7.68-2.49,0-10.58-.19-10.67,4.81-.2,11.18,50.16.45,49.6,32.07-.33,19-15.31,25.77-33.57,26.77l.81,20.18-16.61-.3,1.38-20.28c-16.88-2.07-32.48-10.29-32.17-27.35l27.21.48,0,.59c0,7.5,8.37,9.12,12.64,9.2s12.22-.07,12.31-5.52c.21-11.62-50.13-1.92-49.6-32.51.32-17.65,14.12-24.18,31.06-25.34l-.67-20.32,16.62.29Z"/><path class="cls-11" d="M261.75,275.55A49.16,49.16,0,1,1,212.6,226.4a49.16,49.16,0,0,1,49.15,49.15"/><path class="cls-12" d="M252.71,275.55a40.12,40.12,0,1,1-40.11-40.11,40.11,40.11,0,0,1,40.11,40.11"/><path class="cls-11" d="M207.82,254.9c8.05-2.49,16.5-2,19.62,5.84l-13,5.2c-1.25-2.92-4.53-2.34-6.43-1.58-1.19.48-5,2-4.1,4.41,2.14,5.34,23.88-9.8,29.93,5.31,3.62,9.06-2.12,15.28-10.58,19.4l4.41,9.4-7.94,3.18-3.39-9.9c-8.42,2.39-17.46,1.61-20.72-6.54l13-5.2.11.28c1.51,3.55,5.8,2.65,7.83,1.84s5.78-2.48,4.74-5.08c-2.22-5.55-24.16,9.1-30-5.51-3.37-8.44,1.87-14.29,9.67-18.22l-4.37-9.5,7.94-3.18Z"/><path class="cls-11" d="M85.3,52.45l-3,15.85s8.5,8.17,31.63,8.17,35.62-8.17,35.62-8.17L148,54s-31.65,8-62.74-1.53"/></g></g></g></svg>