<svg xmlns="http://www.w3.org/2000/svg" xmlns:xlink="http://www.w3.org/1999/xlink" viewBox="0 0 599.23 389.55"><defs><style>.cls-1,.cls-37,.cls-38{fill:none;}.cls-2{isolation:isolate;}.cls-3{opacity:0.18;}.cls-4{clip-path:url(#clip-path);}.cls-5{fill:#d3d3d3;}.cls-6{fill:#d5d5d5;}.cls-7{fill:#9e9e9e;}.cls-8{fill:#9a9a9a;}.cls-9{fill:#3b3b3b;}.cls-10{fill:#353535;}.cls-11{fill:#9c9c9c;}.cls-12{fill:#fff;}.cls-13{fill:#efefef;}.cls-14{fill:#818181;}.cls-15{fill:#686868;}.cls-16{fill:#e6e6e6;}.cls-17{fill:#c8c8c8;}.cls-18{opacity:0.45;mix-blend-mode:multiply;}.cls-19{clip-path:url(#clip-path-2);}.cls-20{clip-path:url(#clip-path-3);}.cls-21{fill:url(#Degradado_sin_nombre);}.cls-22{fill:#c6c6c6;}.cls-23{fill:#b4b4b4;}.cls-24{fill:#b0b0b0;}.cls-25{clip-path:url(#clip-path-4);}.cls-26{fill:#9b9b9b;}.cls-27{fill:#5a5a5a;}.cls-28{fill:#7e7e7e;}.cls-29{fill:#999;}.cls-30{fill:#979797;}.cls-31{fill:#d0d0d0;}.cls-32{fill:#787878;}.cls-33{fill:#767676;}.cls-34{fill:#c1c1c1;}.cls-35{fill:#aaa;}.cls-36{fill:#b3b3b3;}.cls-37,.cls-38{stroke:#ababab;stroke-miterlimit:10;}.cls-37{stroke-width:1.26px;}.cls-38{stroke-linecap:round;stroke-width:1.28px;}.cls-39{fill:#ababab;}.cls-40{fill:#cdcdcd;}.cls-41{fill:#c9c9c9;}.cls-42{fill:#aeaeae;}.cls-43{fill:#09c9ce;}.cls-44{fill:#ffd066;}.cls-45{fill:#0186cb;}.cls-46{fill:#1e1ea4;}.cls-47{fill:#110239;}.cls-48{fill:#feac1a;}.cls-49{fill:#e8a393;}.cls-50{fill:#fcd4ca;}.cls-51{fill:#ebebeb;}.cls-52{fill:#23a1ad;}.cls-53{opacity:0.65;}.cls-54{clip-path:url(#clip-path-5);}.cls-55{fill:#0056a3;}.cls-56{clip-path:url(#clip-path-6);}</style><clipPath id="clip-path" transform="translate(0 0)"><rect class="cls-1" width="599.23" height="388.67"/></clipPath><clipPath id="clip-path-2" transform="translate(0 0)"><rect class="cls-1" x="102.74" y="206.04" width="39.14" height="32.85"/></clipPath><clipPath id="clip-path-3" transform="translate(0 0)"><path class="cls-1" d="M141.68,215.4c.14-.11.29.12.14.23a67.54,67.54,0,0,0-10.43,9.71,81.23,81.23,0,0,0-8.09,11.73.13.13,0,0,1-.24-.12c4.07-8.54,11-16,18.62-21.55m-17.21,3.08a45.46,45.46,0,0,0-3.06,18.67.12.12,0,0,0,.24,0,57.29,57.29,0,0,1,3.14-18.54c.06-.18-.25-.3-.32-.12m-7.57-12.37a86.76,86.76,0,0,0,2.55,31.19.13.13,0,1,0,.25-.08,137.22,137.22,0,0,1-2.42-15.76,130.68,130.68,0,0,1-.2-15.33c0-.1-.17-.12-.18,0m-9.29,15.35c3.09,4.39,6.51,12.5,10.56,16a.17.17,0,0,0,.23-.25c-3.66-4-7.25-11.58-10.54-15.94-.11-.15-.36,0-.25.15m33.26,6.8c-6.12,2.76-12.43,6-17.62,10.32-.16.14,0,.41.18.29,5.71-3.79,11.24-7.53,17.52-10.36.15-.07.08-.32-.08-.25m-38.06-.76c4.46,2.66,9.22,8.35,14.08,10.2.16.06.28-.15.13-.23-4.71-2.3-9.53-7.6-14.08-10.21-.16-.09-.28.15-.13.24"/></clipPath><linearGradient id="Degradado_sin_nombre" x1="-604.53" y1="1014.37" x2="-603.53" y2="1014.37" gradientTransform="matrix(0, 33.35, 33.35, 0, -33706.76, 20366.75)" gradientUnits="userSpaceOnUse"><stop offset="0" stop-color="#bcbec0"/><stop offset="0.37" stop-color="#bcbec0"/><stop offset="0.99" stop-color="#757779"/><stop offset="1" stop-color="#757779"/></linearGradient><clipPath id="clip-path-4" transform="translate(0 0)"><path class="cls-1" d="M140.38,321.88c8.68-7.19,19.15-14.77,22.37-25.52-9,6.4-15.54,15.5-21.86,24.54,3.16-6,4.32-6.75,8-13.35a58.63,58.63,0,0,0,7.24-23.29c-6.78,8.6-11.26,18.9-14.69,29.42,2.91-14,8.87-27.32,7.43-41.69a77.9,77.9,0,0,0-8.57,24.08c-.42,2.41-.74,4.65-1,6.79a122.82,122.82,0,0,0-3.72-28.48,47.48,47.48,0,0,0-2.37,20.83,84.1,84.1,0,0,0,2,10.87A138.1,138.1,0,0,0,126,285a11.44,11.44,0,0,0-2.69-3.57c-.83,2.58-.71,8.13-.21,10.79a53,53,0,0,0,7.24,19,37.31,37.31,0,0,0-13.65-8.1c3.41,9.23,14.42,15.7,23.37,19l0,0,0,0,.16.06a3.65,3.65,0,0,1,.18-.34"/></clipPath><clipPath id="clip-path-5" transform="translate(0 0)"><rect class="cls-1" x="125.82" y="155.25" width="83.82" height="87.54"/></clipPath><clipPath id="clip-path-6" transform="translate(0 0)"><rect class="cls-1" x="121.11" y="169.64" width="25.12" height="68.84"/></clipPath></defs><g class="cls-2"><g id="Capa_2" data-name="Capa 2"><g id="Capa_1-2" data-name="Capa 1"><g class="cls-3"><g class="cls-4"><rect class="cls-5" x="10.27" y="102.55" width="183.07" height="12.67"/><rect class="cls-5" x="10.27" y="180.68" width="183.07" height="12.67"/><rect class="cls-5" x="10.27" y="258.82" width="183.07" height="12.67"/><rect class="cls-5" x="10.27" y="336.95" width="183.07" height="12.67"/><rect class="cls-5" x="28.21" y="90.88" width="12.67" height="292"/><rect class="cls-6" x="162.73" y="90.88" width="12.67" height="292"/><rect class="cls-7" x="28.21" y="349.62" width="12.67" height="4"/><rect class="cls-7" x="162.73" y="349.62" width="12.67" height="4"/><rect class="cls-7" x="28.21" y="115.21" width="12.67" height="4"/><rect class="cls-7" x="162.73" y="115.21" width="12.67" height="4"/><rect class="cls-7" x="28.21" y="193.35" width="12.67" height="4"/><rect class="cls-7" x="162.73" y="193.35" width="12.67" height="4"/><rect class="cls-7" x="28.21" y="271.48" width="12.67" height="4"/><rect class="cls-7" x="162.73" y="271.48" width="12.67" height="4"/><path class="cls-8" d="M59.92,81.05S46.4,73.14,43.47,57.59c0,0,12.74,2.64,19.12,23.46" transform="translate(0 0)"/><path class="cls-8" d="M65.26,81.05s13.52-7.91,16.46-23.46c0,0-12.74,2.64-19.13,23.46" transform="translate(0 0)"/><path class="cls-8" d="M61.18,79.78S51.42,67.52,54.3,52c0,0,10.93,7.07,9.37,28.79" transform="translate(0 0)"/><path class="cls-8" d="M64.33,79.83s9.46-12.49,6.21-28c0,0-10.76,7.32-8.68,29" transform="translate(0 0)"/><rect class="cls-9" x="47.54" y="77.9" width="29.47" height="24.65"/><rect class="cls-10" x="71.22" y="77.9" width="5.79" height="24.65"/><path class="cls-11" d="M103.64,73.39s.94-5.46,4.13-4.25.66,6.56.66,6.56,2.57-4.48,5-2.61S111,80.85,111,80.85s3.63-3.33,4.73-.58-4.73,6.1-4.73,6.1H96.28s-5.83-3.36-4.73-6.1,4.73.58,4.73.58S91.37,75,93.83,73.09s5,2.61,5,2.61-2.53-5.35.66-6.56,4.12,4.25,4.12,4.25" transform="translate(0 0)"/><rect class="cls-12" x="93.41" y="84.86" width="21.15" height="17.69"/><rect class="cls-13" x="110.4" y="84.86" width="4.16" height="17.69"/><path class="cls-14" d="M143.93,88c-2.12,2.36-6.65-1-8.28-2.85s-2.63-4.54-4.72-6c-1.69-1.2-3.85-1.46-5.91-1.68,3.06-1.22,4.79-.73,7.94.27s10.59,6.23,9.83,9.83" transform="translate(0 0)"/><path class="cls-14" d="M143.08,84.15c-1.15-.89-1.82-2.77-2.22-4.16s-.58-2.85-1-4.25a14.74,14.74,0,0,0-4.28-7c3.42.15,6.44,2.71,7.79,5.85a15.83,15.83,0,0,1,.39,10.09" transform="translate(0 0)"/><path class="cls-14" d="M142,88.23c-.09-2.84,2.42-9.25,4-11.62a27.71,27.71,0,0,1,5.87-6.12,4.5,4.5,0,0,1,2.84-1.28A13.42,13.42,0,0,0,150,76.05c-.44,1.48-.61,3-1,4.5-1.14,4.06-1.79,6.59-5.86,7.68" transform="translate(0 0)"/><path class="cls-14" d="M143.62,88a8.88,8.88,0,0,0,4.7-2c2.79-2.37,3.92-6.28,6.74-8.61a8.56,8.56,0,0,1,3.88-1.81,5.43,5.43,0,0,0-4.09-.72c-5.34.78-9.7,5-12,9.86" transform="translate(0 0)"/><path class="cls-14" d="M143.36,77a13.55,13.55,0,0,1,7.9-12.24,15.38,15.38,0,0,1-1.72,3.35,29.07,29.07,0,0,0-3.94,12.25" transform="translate(0 0)"/><path class="cls-14" d="M141.41,80.23c.56-5.3,1.08-10.92-.77-16.66a23.57,23.57,0,0,1,5,8.26c1,3.08,1.19,6.37.15,8.71" transform="translate(0 0)"/><path class="cls-14" d="M141.88,87.38c-2.3-3.53-8-13.54-11.37-16,2.1-.47,4-.23,6.41,1.92,3.23,2.91,5.84,8.91,6.77,13.16" transform="translate(0 0)"/><path class="cls-15" d="M128.82,77.63c3.15.27,5.21,3.14,7.12,5.33a21.06,21.06,0,0,0,3.34,3c.62.46,1.25.9,1.9,1.32a9,9,0,0,0,1.93,1.14.28.28,0,0,0,.27-.46,13.22,13.22,0,0,0-1.88-1.23c-.71-.46-1.4-.94-2.08-1.44A23.49,23.49,0,0,1,135.88,82c-1.81-2-4.17-4.43-7.06-4.63-.18,0-.17.26,0,.28" transform="translate(0 0)"/><path class="cls-15" d="M134.87,74.57a23,23,0,0,1,4.64,6.92,27.46,27.46,0,0,1,1.34,3.92,4.47,4.47,0,0,0,2.23,2.91.22.22,0,0,0,.26-.34A11.1,11.1,0,0,1,142,86.43a8.63,8.63,0,0,1-.69-2.12,20.5,20.5,0,0,0-1.38-3.64,20,20,0,0,0-2.1-3.42,25.62,25.62,0,0,0-2.73-2.88c-.14-.13-.34.07-.21.2" transform="translate(0 0)"/><path class="cls-15" d="M138.83,71.25c2.81,1.86,3.14,5.53,3.28,8.59.08,1.68.15,3.37.24,5,.06,1.16,0,2.48,1,3.31a.2.2,0,0,0,.32-.24,5.31,5.31,0,0,1-.61-1.81c-.09-.86-.08-1.73-.12-2.58-.08-1.76-.13-3.52-.26-5.27-.2-2.82-1-5.89-3.66-7.31a.15.15,0,0,0-.15.26" transform="translate(0 0)"/><path class="cls-15" d="M142.47,68.7A23.68,23.68,0,0,1,144,78.49c-.13,3-1.5,6.43-.36,9.37.11.29.63.29.59-.08a17.94,17.94,0,0,1,0-4.8,37.37,37.37,0,0,0,.57-4.94,21.7,21.7,0,0,0-.46-4.82,22.69,22.69,0,0,0-1.61-4.63c-.06-.14-.31,0-.25.11" transform="translate(0 0)"/><path class="cls-15" d="M148.07,68.54c-1.91,2.44-2,5.6-2.4,8.56A84.45,84.45,0,0,1,144,87.25c-.06.27.34.46.46.2,1.35-2.86,1.3-6.31,1.58-9.4s.59-6.6,2.21-9.34c.08-.13-.12-.3-.22-.17" transform="translate(0 0)"/><path class="cls-15" d="M153.79,77.74A6.41,6.41,0,0,0,151,79.35,17.32,17.32,0,0,0,148.58,82c-.74,1-1.43,2-2.17,3s-1.66,1.83-2.42,2.81c-.14.18.13.37.3.29a7.71,7.71,0,0,0,2.51-2.38c.73-.92,1.39-1.9,2.07-2.86a22.28,22.28,0,0,1,2.18-2.67A16.81,16.81,0,0,1,153.9,78a.15.15,0,0,0-.11-.27" transform="translate(0 0)"/><path class="cls-15" d="M149.62,73.88c-2.34,1.22-2.55,3.87-2.87,6.2a15.52,15.52,0,0,1-1.11,4c-.54,1.24-1.28,2.37-1.88,3.58-.11.22.18.48.36.28,1.61-1.76,2.43-4.39,2.94-6.67s.57-5.55,2.7-7.16c.14-.1,0-.33-.14-.24" transform="translate(0 0)"/><rect class="cls-16" x="132.74" y="84.86" width="21.15" height="17.69"/><rect class="cls-17" x="149.73" y="84.86" width="4.16" height="17.69"/><path class="cls-8" d="M128.1,237.71s12-.64,12-3.07c0-1.89-7.3-.29-7.3-.29s8-2.32,11.69-4.22a6.62,6.62,0,0,0,2.21-1.58A2.34,2.34,0,0,0,147,226c-.63-1.07-2.12-1.16-3.35-1-4.92.6-8.38,3.23-12.81,5.46a40.78,40.78,0,0,0,8.83-6.13c2.49-2.23,5.38-4.31,7-7.28,1-1.86,1.45-4.61-.39-6.14s-4.34-.79-6.3-.1A25.56,25.56,0,0,0,127.16,221a44.75,44.75,0,0,0,1.81-6.72c.18-.91.24-2.05-.52-2.59-1-.71-2.3.24-3.06,1.18a23.1,23.1,0,0,0-4.15,7.7c.6-6.27,1.2-12.67-.16-18.83a10.16,10.16,0,0,0-1.62-4,4.31,4.31,0,0,0-3.72-1.81,5.65,5.65,0,0,0-3.38,2.12,18.71,18.71,0,0,0-.59,24.26,25.38,25.38,0,0,0-4.89-4c-.4-.26-1-.47-1.29-.11a1,1,0,0,0-.13.71c.27,3,2.27,5.48,4.19,7.79a19.34,19.34,0,0,0-16-6.6,2.32,2.32,0,0,0-1.9.84,2,2,0,0,0-.18,1.22c.32,3,3,5.16,5.56,6.68,2.18,1.28,4.48,2.35,6.78,3.42a18.83,18.83,0,0,0-4-.14,1.08,1.08,0,0,0-.82.31c-.35.45.14,1.07.6,1.4a17.67,17.67,0,0,0,11.58,3.26" transform="translate(0 0)"/><g class="cls-18"><g class="cls-19"><g class="cls-20"><rect class="cls-21" x="102.02" y="205.25" width="40.58" height="34.51" transform="translate(-8.72 5.02) rotate(-2.27)"/></g></g></g><rect class="cls-22" x="108.44" y="237" width="26.08" height="21.81"/><rect class="cls-23" x="129.39" y="237" width="5.13" height="21.81"/><path class="cls-24" d="M140,322.19c6.59-9.47,13.37-19.12,22.75-25.83-3.27,10.91-14,18.55-22.75,25.83" transform="translate(0 0)"/><path class="cls-24" d="M139.2,321.11c3.71-13,8.58-26.23,17-36.85a56.73,56.73,0,0,1-7,22.93c-4,7.05-5.11,7.9-8.91,15" transform="translate(0 0)"/><path class="cls-24" d="M137.34,320.38c-7.78-8.41-12.18-16.86-14.28-28.13-.5-2.66-.61-8.21.22-10.79A11.41,11.41,0,0,1,126,285c6.39,11.49,11,24.45,14.24,37.19" transform="translate(0 0)"/><path class="cls-24" d="M139.13,320.88c-2-8.72-4.89-16.77-5.87-25.67a47.48,47.48,0,0,1,2.37-20.83c4.11,15.31,4.07,31.41,3.59,47.26" transform="translate(0 0)"/><path class="cls-24" d="M140.2,322.22c-9-3.24-20.12-9.74-23.55-19,12.28,4.44,15.72,10.3,23.55,19" transform="translate(0 0)"/><path class="cls-24" d="M139.2,321.11a93.9,93.9,0,0,1,1.12-25A77.9,77.9,0,0,1,148.89,272c1.69,16.85-6.82,32.21-8.62,49.05" transform="translate(0 0)"/><g class="cls-25"><path class="cls-26" d="M125.63,318.89c3.75-1.52,7.33-3,11.39-3.44s7.84.2,11.85.75c.47.07.54-.61.14-.78-7.12-2.93-17.52-1.52-23.79,2.87-.36.25,0,.75.41.6" transform="translate(0 0)"/><path class="cls-26" d="M126.46,316c9.3-3.55,18.25-3.34,27.69-.61a.17.17,0,0,0,.11-.33c-8.65-3.7-19.42-3-27.93.67-.18.08,0,.34.13.27" transform="translate(0 0)"/><path class="cls-26" d="M119.87,313.4c6.36-2.57,12.66-4.41,19.56-4.61a47.51,47.51,0,0,1,9.15.61c3.42.56,6.6,1.75,9.94,2.6.33.09.63-.39.29-.58-5.69-3.16-13.35-3.87-19.74-3.59a42,42,0,0,0-19.34,5.29.16.16,0,0,0,.14.28" transform="translate(0 0)"/><path class="cls-26" d="M127.14,319.77c7.61-3.3,15.51-3.47,23.51-1.74.16,0,.25-.2.08-.25-7.73-2.63-16.38-1.61-23.75,1.66-.21.1,0,.42.16.33" transform="translate(0 0)"/><path class="cls-26" d="M132.77,320.78c5.36-1.58,10.55-1.34,16-.45.21,0,.27-.3.07-.36-5.22-1.75-11-1.22-16.14.42-.25.08-.17.47.08.39" transform="translate(0 0)"/><path class="cls-26" d="M120.89,310.71c14.36-5.44,31.3-3.75,45.68.55a.17.17,0,0,0,.11-.32c-7.49-3.46-16.56-3.89-24.67-3.95-7.22-.06-14.52.66-21.22,3.53-.12.05,0,.24.1.19" transform="translate(0 0)"/><path class="cls-26" d="M121.05,302c6.58-2.74,14.5-3,21.52-2.43a62.65,62.65,0,0,1,20.26,5.18c.19.08.29-.22.1-.3a62.65,62.65,0,0,0-21.28-5.25c-6.74-.43-14.44-.18-20.7,2.59-.14.06,0,.27.1.21" transform="translate(0 0)"/><path class="cls-26" d="M121.25,299.35a72.4,72.4,0,0,1,47.38,5c.28.12.51-.35.24-.49-14.54-7.34-32-8.81-47.66-4.69-.11,0-.08.21,0,.18" transform="translate(0 0)"/><path class="cls-26" d="M129,290.68c.06,0,.1-.08,0-.1s-.1.08,0,.1" transform="translate(0 0)"/><path class="cls-26" d="M117.77,293.12c13.57-7.11,31.61-9.92,44.88-.83.17.11.4-.13.24-.28-5.81-5.59-15.29-6.3-22.9-5.75A52.35,52.35,0,0,0,117.72,293c-.06,0,0,.13,0,.1" transform="translate(0 0)"/></g><rect class="cls-22" x="124.47" y="315.14" width="26.08" height="21.81"/><rect class="cls-23" x="145.43" y="315.14" width="5.13" height="21.81"/><path class="cls-27" d="M97.15,164.5c-3.48-6.25-9.7-11.4-17.08-11.7a17.87,17.87,0,0,0-10.78,3.3A26.81,26.81,0,0,0,63.94,161c-.4.49-.69.89-1.16,1.45a55.74,55.74,0,0,1-7.55,7.5c-3.46,2.83-7.4,5.51-12,6-4.3.44-8.59-.66-12.82-1.28-4.4-.64-9.24-1.17-13.51.38-6.44,2.34-10.26,8.83-11.07,15.4a16.43,16.43,0,0,0-.12,2.1.26.26,0,0,0,.52,0c.5-6.3,3.46-13,9.31-16,3.9-2,8.43-1.8,12.66-1.3s8.5,1.64,12.82,1.7a17.55,17.55,0,0,0,5.72-.8,23.46,23.46,0,0,0,5.92-3.12,52.2,52.2,0,0,0,9-8c1.55-1.7,2.89-3.56,4.5-5.2a20.15,20.15,0,0,1,10.62-6c7.25-1.28,14.14,3,18.29,8.66.53.73,1,1.49,1.47,2.26a.3.3,0,0,0,.53-.3" transform="translate(0 0)"/><path class="cls-27" d="M109.55,164.77a20,20,0,0,1,9.79-11.27c4.39-2.29,9.76-2.9,14.25-.52,5.33,2.82,8.21,8.93,9.29,14.62,1,5.33,1.34,10.77,3.07,15.94a24.45,24.45,0,0,0,4.09,7.71,18.84,18.84,0,0,0,7.7,5.54,16.91,16.91,0,0,0,2.62.81.26.26,0,0,0,.14-.5A19.78,19.78,0,0,1,147.08,184c-1.89-5.28-2.22-10.87-3.2-16.35-1-5.78-3.88-11.94-9.06-15.1-4.45-2.73-9.91-2.53-14.59-.47a20.58,20.58,0,0,0-10.64,10.71,15.6,15.6,0,0,0-.62,1.78.3.3,0,0,0,.58.16" transform="translate(0 0)"/><path class="cls-27" d="M104.09,163.63a23.9,23.9,0,0,1,3.28-9.32,18.43,18.43,0,0,1,5.25-5c2.07-1.37,4.27-2.51,6.34-3.86a27.59,27.59,0,0,0,6.32-5.53,27.31,27.31,0,0,0,3.17-4.8,26.9,26.9,0,0,0,2.61-6.86c.05-.27-.36-.49-.48-.2-.87,2-1.6,4.11-2.61,6.08a27.68,27.68,0,0,1-2.89,4.59,26.72,26.72,0,0,1-6.36,5.73c-4.12,2.72-8.79,4.69-11.72,8.84a21.93,21.93,0,0,0-3.51,10.26c0,.33.54.41.6.08" transform="translate(0 0)"/><path class="cls-27" d="M100.12,163.55A18.6,18.6,0,0,0,97,153.34,18.93,18.93,0,0,0,89.51,147a26.14,26.14,0,0,0-20.19-.66,20.21,20.21,0,0,0-9.45,6.79c-.18.25.2.52.41.31A29.34,29.34,0,0,1,64.13,150a25.4,25.4,0,0,1,4.41-2.47,26,26,0,0,1,9.73-2c6.42-.08,13.11,2.18,17.28,7.25a18.71,18.71,0,0,1,4,10.75.31.31,0,0,0,.61,0" transform="translate(0 0)"/><path class="cls-22" d="M101.81,160.86h-29s1.66,19.82,29,19.82,29-19.82,29-19.82Z" transform="translate(0 0)"/><path class="cls-28" d="M60.09,164.36s-7.83,3.38-9.27-.81c-1.06-3.1,5.53-4.4,9.27.81" transform="translate(0 0)"/><path class="cls-27" d="M53.63,163.23a11.3,11.3,0,0,0,4.59.94,7.74,7.74,0,0,0,2.26-.35,7.18,7.18,0,0,0,2-1l.55.84a7.91,7.91,0,0,1-2.35.89,8.22,8.22,0,0,1-2.47.13,11.55,11.55,0,0,1-4.57-1.44" transform="translate(0 0)"/><path class="cls-29" d="M79.9,152.76s-5.87-2-4.58-5c1-2.19,5.14.36,4.58,5" transform="translate(0 0)"/><path class="cls-27" d="M77,149a8.13,8.13,0,0,0,2,2.76,5.2,5.2,0,0,0,1.38.92,5.52,5.52,0,0,0,1.57.45l-.12.72a5.88,5.88,0,0,1-1.7-.68A6,6,0,0,1,78.73,152,8.34,8.34,0,0,1,77,149" transform="translate(0 0)"/><path class="cls-28" d="M113.18,159.37s5.52-2.85,6.77.12c.93,2.2-3.8,3.47-6.77-.12" transform="translate(0 0)"/><path class="cls-27" d="M117.92,159.86a8.29,8.29,0,0,0-3.37-.45,5.6,5.6,0,0,0-1.63.37,5.34,5.34,0,0,0-1.4.83l-.44-.58a6,6,0,0,1,1.67-.77,6.39,6.39,0,0,1,1.78-.22,8.33,8.33,0,0,1,3.39.82" transform="translate(0 0)"/><path class="cls-28" d="M123.8,152s7.19-.49,7.16,3.26c0,2.76-5.65,1.94-7.16-3.26" transform="translate(0 0)"/><path class="cls-27" d="M128.63,154.71a9.61,9.61,0,0,0-3.39-2,6.63,6.63,0,0,0-1.91-.35,6.19,6.19,0,0,0-1.87.23l-.2-.82a6.92,6.92,0,0,1,2.13,0,6.8,6.8,0,0,1,2,.59,9.87,9.87,0,0,1,3.24,2.43" transform="translate(0 0)"/><path class="cls-29" d="M118.71,152.56s4.79-5.4,1.8-7.66c-2.21-1.67-5,3.28-1.8,7.66" transform="translate(0 0)"/><path class="cls-27" d="M119.51,147.08a9.71,9.71,0,0,1-.05,4,6.81,6.81,0,0,1-.76,1.94,6.65,6.65,0,0,1-1.34,1.66l-.52-.67a6,6,0,0,0,1.33-1.33,6.65,6.65,0,0,0,.88-1.72,9.48,9.48,0,0,0,.46-3.93" transform="translate(0 0)"/><path class="cls-28" d="M108.64,151.43s2.36-4.84-.25-5.87c-1.92-.75-2.93,3.37.25,5.87" transform="translate(0 0)"/><path class="cls-27" d="M108.11,147.33a7.17,7.17,0,0,1,.78,2.92,5.08,5.08,0,0,1-.15,1.55,5,5,0,0,1-.63,1.46l-.51-.37a4.49,4.49,0,0,0,.69-1.23,4.78,4.78,0,0,0,.29-1.41,7.17,7.17,0,0,0-.47-2.92" transform="translate(0 0)"/><path class="cls-28" d="M100.23,153.14s2.36-4.84-.25-5.86c-1.92-.76-2.93,3.36.25,5.86" transform="translate(0 0)"/><path class="cls-27" d="M99.7,149a7.17,7.17,0,0,1,.78,2.92,5.08,5.08,0,0,1-.15,1.55A5,5,0,0,1,99.7,155l-.51-.37a4.49,4.49,0,0,0,.69-1.23,4.72,4.72,0,0,0,.29-1.41A7.17,7.17,0,0,0,99.7,149" transform="translate(0 0)"/><path class="cls-28" d="M116.46,145.2s2.36-4.85-.25-5.87c-1.92-.76-2.93,3.36.25,5.87" transform="translate(0 0)"/><path class="cls-27" d="M115.93,141.09a7.21,7.21,0,0,1,.78,2.93,5.37,5.37,0,0,1-.15,1.54,5,5,0,0,1-.63,1.46l-.51-.36a4.8,4.8,0,0,0,.69-1.23,5.2,5.2,0,0,0,.29-1.42,7.2,7.2,0,0,0-.47-2.92" transform="translate(0 0)"/><path class="cls-28" d="M125.87,137.68s2.36-4.84-.24-5.87c-1.92-.75-2.93,3.36.24,5.87" transform="translate(0 0)"/><path class="cls-27" d="M125.35,133.58a7.28,7.28,0,0,1,.78,2.92,5.44,5.44,0,0,1-.15,1.55,5.25,5.25,0,0,1-.63,1.46l-.52-.37a4.52,4.52,0,0,0,.69-1.23,4.85,4.85,0,0,0,.29-1.41,7.13,7.13,0,0,0-.46-2.92" transform="translate(0 0)"/><path class="cls-28" d="M130.3,128.92s.9-5.31-1.89-5.56c-2.06-.19-1.87,4,1.89,5.56" transform="translate(0 0)"/><path class="cls-27" d="M128.64,125.13a7.35,7.35,0,0,1,1.57,2.59,5.53,5.53,0,0,1,.29,1.53,5.25,5.25,0,0,1-.2,1.57l-.59-.21a4.48,4.48,0,0,0,.31-1.37,4.71,4.71,0,0,0-.12-1.44,7.2,7.2,0,0,0-1.26-2.67" transform="translate(0 0)"/><path class="cls-28" d="M105.8,157.39s2.89-4.54,5.13-2.86c1.65,1.24-1.33,4.26-5.13,2.86" transform="translate(0 0)"/><path class="cls-27" d="M109.57,155.69a7.28,7.28,0,0,0-2.72,1.13,5,5,0,0,0-1.06,1,4.37,4.37,0,0,0-.68,1.23l-.59-.24a5.16,5.16,0,0,1,2.16-2.24,7.13,7.13,0,0,1,2.89-.87" transform="translate(0 0)"/><path class="cls-30" d="M97.22,158.26s-1.78,5.08.92,5.8c2,.53,2.53-3.68-.92-5.8" transform="translate(0 0)"/><path class="cls-27" d="M98.21,162.27a7.39,7.39,0,0,1-1.11-2.81,5.43,5.43,0,0,1,0-1.56,4.86,4.86,0,0,1,.46-1.52l.55.31a4.55,4.55,0,0,0-.55,1.3,4.93,4.93,0,0,0-.12,1.44,7.2,7.2,0,0,0,.79,2.84" transform="translate(0 0)"/><path class="cls-30" d="M94.18,166.29s0,5.38,2.77,5.17c2.06-.15,1.18-4.3-2.77-5.17" transform="translate(0 0)"/><path class="cls-27" d="M96.44,169.75a7.14,7.14,0,0,1-2-2.29,5,5,0,0,1-.54-1.46,5.28,5.28,0,0,1-.07-1.59l.62.11a4.43,4.43,0,0,0-.08,1.41,5,5,0,0,0,.35,1.4,7.11,7.11,0,0,0,1.69,2.42" transform="translate(0 0)"/><path class="cls-28" d="M95.71,179s3.42,4.17,5.44,2.23c1.49-1.42-1.83-4.06-5.44-2.23" transform="translate(0 0)"/><path class="cls-27" d="M99.66,180.23a7.16,7.16,0,0,1-3-.51,5.19,5.19,0,0,1-1.34-.79,5,5,0,0,1-1.07-1.18l.55-.31a4.63,4.63,0,0,0,.83,1.14,4.88,4.88,0,0,0,1.16.85,7,7,0,0,0,2.85.8" transform="translate(0 0)"/><path class="cls-28" d="M103.64,186.22s5.38.35,5.34-2.45c0-2.06-4.22-1.44-5.34,2.45" transform="translate(0 0)"/><path class="cls-27" d="M107.25,184.18a7.31,7.31,0,0,1-2.42,1.83,5.16,5.16,0,0,1-3.08.41l.15-.62a4.38,4.38,0,0,0,1.4.18,5,5,0,0,0,1.42-.27,7.34,7.34,0,0,0,2.53-1.53" transform="translate(0 0)"/><path class="cls-30" d="M113.27,189.38s5.18-1.47,4.21-4.09c-.71-1.94-4.46.05-4.21,4.09" transform="translate(0 0)"/><path class="cls-27" d="M116,186.25a7.32,7.32,0,0,1-1.66,2.53,5.23,5.23,0,0,1-1.26.92,5.16,5.16,0,0,1-1.51.5l-.06-.63a4.38,4.38,0,0,0,1.37-.3,4.93,4.93,0,0,0,1.25-.73,7,7,0,0,0,1.87-2.29" transform="translate(0 0)"/><path class="cls-28" d="M124.44,186.08s4.08-3.52,2.09-5.49c-1.47-1.46-4,1.93-2.09,5.49" transform="translate(0 0)"/><path class="cls-27" d="M125.57,182.1a7.13,7.13,0,0,1-.43,3,5.47,5.47,0,0,1-.75,1.36,5.05,5.05,0,0,1-1.16,1.1l-.32-.54a4.65,4.65,0,0,0,1.12-.86,4.75,4.75,0,0,0,.82-1.19,7,7,0,0,0,.72-2.86" transform="translate(0 0)"/><path class="cls-28" d="M120.52,188.84s5.22-1.3,5.69,1.46c.34,2-3.89,2.17-5.69-1.46" transform="translate(0 0)"/><path class="cls-27" d="M124.43,190.2a7.12,7.12,0,0,0-2.76-1,5,5,0,0,0-1.45,0,4.45,4.45,0,0,0-1.34.42l-.26-.58a5,5,0,0,1,1.56-.31,5.35,5.35,0,0,1,1.55.17,7.48,7.48,0,0,1,2.7,1.36" transform="translate(0 0)"/><path class="cls-28" d="M108.61,189.72s4.12,3.46,2.16,5.46c-1.45,1.47-4-1.88-2.16-5.46" transform="translate(0 0)"/><path class="cls-27" d="M109.8,193.68a7.2,7.2,0,0,0-.77-2.86,4.47,4.47,0,0,0-.84-1.17,4.21,4.21,0,0,0-1.13-.84l.32-.55a4.82,4.82,0,0,1,1.17,1.08,5.35,5.35,0,0,1,.77,1.35,7.31,7.31,0,0,1,.48,3" transform="translate(0 0)"/><path class="cls-30" d="M98.56,184.65s2.36,4.84-.24,5.87c-1.92.76-2.93-3.36.24-5.87" transform="translate(0 0)"/><path class="cls-27" d="M98,188.76a7.19,7.19,0,0,0,.46-2.92,4.85,4.85,0,0,0-.29-1.42,4.32,4.32,0,0,0-.69-1.22l.51-.37a4.72,4.72,0,0,1,.63,1.46,5.08,5.08,0,0,1,.16,1.55,7.37,7.37,0,0,1-.78,2.92" transform="translate(0 0)"/><path class="cls-29" d="M94.8,160.93s-3.26,3.06-4.71,1.25c-1.07-1.34,2-3.15,4.71-1.25" transform="translate(0 0)"/><path class="cls-27" d="M91.42,161.52a5.86,5.86,0,0,0,2.43-.34,4.14,4.14,0,0,0,1.05-.58,3.8,3.8,0,0,0,.8-.85l.42.32a4.3,4.3,0,0,1-1,.86,4.93,4.93,0,0,1-1.19.5,6.08,6.08,0,0,1-2.51.09" transform="translate(0 0)"/><path class="cls-28" d="M92.91,171.61s-1.43,4.23-3.57,3.32c-1.57-.68.24-3.69,3.57-3.32" transform="translate(0 0)"/><path class="cls-27" d="M90.21,173.73a6.11,6.11,0,0,0,2-1.45,4.15,4.15,0,0,0,.65-1,3.66,3.66,0,0,0,.31-1.12l.52.08a4.5,4.5,0,0,1-.48,1.23,4.66,4.66,0,0,1-.82,1,6.07,6.07,0,0,1-2.16,1.27" transform="translate(0 0)"/><path class="cls-28" d="M112.17,149.16s4.59-2.82,5.87-.33c.94,1.84-3.06,3.25-5.87.33" transform="translate(0 0)"/><path class="cls-27" d="M116.31,149.28a7.19,7.19,0,0,0-3-.17,4.61,4.61,0,0,0-1.38.42,4.73,4.73,0,0,0-1.16.81l-.41-.48a5,5,0,0,1,1.39-.76,5.08,5.08,0,0,1,1.53-.31,7.36,7.36,0,0,1,3,.49" transform="translate(0 0)"/><path class="cls-28" d="M122.72,142.29s4.59-2.82,5.86-.33c.94,1.84-3.06,3.25-5.86.33" transform="translate(0 0)"/><path class="cls-27" d="M126.85,142.41a7.18,7.18,0,0,0-2.95-.18,5,5,0,0,0-1.38.43,4.27,4.27,0,0,0-1.15.81L121,143a5.06,5.06,0,0,1,2.92-1.07,7.3,7.3,0,0,1,3,.49" transform="translate(0 0)"/><path class="cls-28" d="M135.33,152.84s6.92,2,7.7-1.62c.58-2.7-5.09-3.13-7.7,1.62" transform="translate(0 0)"/><path class="cls-27" d="M140.64,151.24a9.91,9.91,0,0,1-3.69,1.68,7.29,7.29,0,0,1-2.09.13,6.56,6.56,0,0,1-2.06-.51l.37-.75a6.11,6.11,0,0,0,1.78.64,6.9,6.9,0,0,0,1.93.07,9.52,9.52,0,0,0,3.76-1.26" transform="translate(0 0)"/><path class="cls-28" d="M143,164s3.69,6.2,6.76,4c2.26-1.6-1.62-5.76-6.76-4" transform="translate(0 0)"/><path class="cls-27" d="M148,166.44a9.91,9.91,0,0,1-3.85-1.28,7,7,0,0,1-1.62-1.31,6.73,6.73,0,0,1-1.18-1.78l.79-.3a6.11,6.11,0,0,0,2.25,3,9.48,9.48,0,0,0,3.61,1.63" transform="translate(0 0)"/><path class="cls-28" d="M145.85,177.92s3.32,5.57,6.08,3.63c2-1.44-1.45-5.18-6.08-3.63" transform="translate(0 0)"/><path class="cls-27" d="M150.33,180.1a8.84,8.84,0,0,1-3.46-1.14,6.31,6.31,0,0,1-1.45-1.18,6.19,6.19,0,0,1-1.06-1.6l.71-.27a5.5,5.5,0,0,0,.78,1.5,5.79,5.79,0,0,0,1.24,1.23,8.52,8.52,0,0,0,3.24,1.46" transform="translate(0 0)"/><path class="cls-30" d="M151,189.77s5.86,2.77,7.06-.38c.89-2.32-4.09-3.48-7.06.38" transform="translate(0 0)"/><path class="cls-27" d="M155.92,189.08a8.65,8.65,0,0,1-3.51,1,6.13,6.13,0,0,1-3.63-.9l.43-.62a5.43,5.43,0,0,0,1.5.81,5.7,5.7,0,0,0,1.7.33,8.5,8.5,0,0,0,3.51-.6" transform="translate(0 0)"/><path class="cls-28" d="M159.52,196.84s4.49,1,4.81-1.39c.24-1.74-3.38-1.75-4.81,1.39" transform="translate(0 0)"/><path class="cls-27" d="M162.81,195.58a6.29,6.29,0,0,1-2.26,1.23,4.48,4.48,0,0,1-1.32.18,4.31,4.31,0,0,1-1.33-.22l.2-.5a3.84,3.84,0,0,0,1.16.32,4.24,4.24,0,0,0,1.23,0,6.07,6.07,0,0,0,2.32-1" transform="translate(0 0)"/><path class="cls-28" d="M139.15,158.75s1.15,6.1-2.06,6.45c-2.36.26-2.24-4.63,2.06-6.45" transform="translate(0 0)"/><path class="cls-27" d="M137.32,163.16a8.23,8.23,0,0,0,1.4-3.11,6.27,6.27,0,0,0,.11-1.67,5.26,5.26,0,0,0-.4-1.57l.68-.26a5.69,5.69,0,0,1,.26,1.82,6.2,6.2,0,0,1-.3,1.77,8.61,8.61,0,0,1-1.75,3" transform="translate(0 0)"/><path class="cls-28" d="M143,169.68s-1,6.12-4.16,5.34c-2.31-.57-.5-5.12,4.16-5.34" transform="translate(0 0)"/><path class="cls-27" d="M139.8,173.18a8.26,8.26,0,0,0,2.39-2.43,6.06,6.06,0,0,0,.68-1.52,5.23,5.23,0,0,0,.17-1.62h.73a5.74,5.74,0,0,1-.39,1.79,6.18,6.18,0,0,1-.89,1.56,8.44,8.44,0,0,1-2.69,2.22" transform="translate(0 0)"/><path class="cls-28" d="M146,183.26s.55,6.19-2.68,6.23c-2.38,0-1.77-4.83,2.68-6.23" transform="translate(0 0)"/><path class="cls-27" d="M143.72,187.47a8.36,8.36,0,0,0,1.71-2.95,5.87,5.87,0,0,0,.27-1.65,5.46,5.46,0,0,0-.24-1.61l.7-.18a5.63,5.63,0,0,1,.08,1.83,6.33,6.33,0,0,1-.47,1.73,8.41,8.41,0,0,1-2.05,2.83" transform="translate(0 0)"/><path class="cls-28" d="M153.27,193.87s4.25,4.53,1.73,6.55c-1.86,1.49-4.38-2.71-1.73-6.55" transform="translate(0 0)"/><path class="cls-27" d="M154.09,198.57a8.31,8.31,0,0,0-.48-3.37,5.73,5.73,0,0,0-.8-1.46,5.22,5.22,0,0,0-1.18-1.12l.44-.59a5.9,5.9,0,0,1,1.88,3.05,8.41,8.41,0,0,1,.14,3.49" transform="translate(0 0)"/><path class="cls-28" d="M48.87,173.68s-8.47,1-8.66-3.39c-.15-3.27,6.54-2.66,8.66,3.39" transform="translate(0 0)"/><path class="cls-27" d="M43,170.78A11.33,11.33,0,0,0,47.11,173a8.06,8.06,0,0,0,2.28.33,7.07,7.07,0,0,0,2.24-.38l.21.72a7.62,7.62,0,0,1-2.47.22A8.31,8.31,0,0,1,47,173.4a11.82,11.82,0,0,1-4-2.62" transform="translate(0 0)"/><path class="cls-28" d="M55.34,171.7s-4.7,7.13-.82,9.27c2.87,1.59,5.3-4.67.82-9.27" transform="translate(0 0)"/><path class="cls-27" d="M55.32,178.26a11.68,11.68,0,0,1-.56-4.74,8.31,8.31,0,0,1,.59-2.38A7.93,7.93,0,0,1,56.64,169l.55.51a7.15,7.15,0,0,0-1.33,1.84,7.84,7.84,0,0,0-.73,2.19,11.44,11.44,0,0,0,.19,4.69" transform="translate(0 0)"/><path class="cls-28" d="M69.39,158s-4.71,7.12-.83,9.27c2.87,1.58,5.3-4.68.83-9.27" transform="translate(0 0)"/><path class="cls-27" d="M69.37,164.55a11.51,11.51,0,0,1-.57-4.74,8.5,8.5,0,0,1,.59-2.37,7.82,7.82,0,0,1,1.29-2.12l.55.51a7.15,7.15,0,0,0-1.33,1.84,7.93,7.93,0,0,0-.72,2.19,11.26,11.26,0,0,0,.19,4.69" transform="translate(0 0)"/><path class="cls-28" d="M87.08,156.83s-8.54-.13-8.26,4.3c.21,3.26,6.8,1.94,8.26-4.3" transform="translate(0 0)"/><path class="cls-27" d="M81.54,160.34a11.47,11.47,0,0,1,3.7-3,8,8,0,0,1,2.31-.78,7.64,7.64,0,0,1,2.48-.05l-.14.73a7.45,7.45,0,0,0-2.26-.13,8,8,0,0,0-2.24.57,11.41,11.41,0,0,0-3.85,2.69" transform="translate(0 0)"/><path class="cls-28" d="M95.4,153.31s-6.43-5.61-9.08-2.05c-1.95,2.63,3.93,5.87,9.08,2.05" transform="translate(0 0)"/><path class="cls-27" d="M88.91,152.42a11.62,11.62,0,0,1,4.77.07,8.22,8.22,0,0,1,2.27.9A7.83,7.83,0,0,1,97.88,155l-.58.47a7.84,7.84,0,0,0-1.64-1.56,8.18,8.18,0,0,0-2.08-1,11.32,11.32,0,0,0-4.67-.43" transform="translate(0 0)"/><path class="cls-28" d="M78.62,145.5s-7.13,1.2-6.22,4.85c.67,2.69,6,.58,6.22-4.85" transform="translate(0 0)"/><path class="cls-27" d="M74.55,149.28a9.68,9.68,0,0,1,2.61-3.09,6.83,6.83,0,0,1,1.81-1,6.57,6.57,0,0,1,2.06-.42v.63a6.19,6.19,0,0,0-1.91.24,6.48,6.48,0,0,0-1.77.82,9.56,9.56,0,0,0-2.8,2.83" transform="translate(0 0)"/><path class="cls-28" d="M65,149.63s-3.64,4.27-1.28,6c1.74,1.27,3.83-2.62,1.28-6" transform="translate(0 0)"/><path class="cls-27" d="M64.5,153.9a7.55,7.55,0,0,1,0-3.14,5.59,5.59,0,0,1,.57-1.5,5.18,5.18,0,0,1,1-1.28l.31.38a4.75,4.75,0,0,0-1,1.09,5,5,0,0,0-.65,1.38,7.39,7.39,0,0,0-.26,3.07" transform="translate(0 0)"/><path class="cls-30" d="M88.5,146.28s-6.53-4.75-3.58-8.82c1.91-2.65,6.63,3.18,3.58,8.82" transform="translate(0 0)"/><path class="cls-27" d="M86.69,140a11.33,11.33,0,0,0,1.1,4.57,7.83,7.83,0,0,0,1.29,1.91,7.29,7.29,0,0,0,1.78,1.4l-.38.65a8.18,8.18,0,0,1-1.83-1.69,8.43,8.43,0,0,1-1.21-2.12,11.58,11.58,0,0,1-.75-4.72" transform="translate(0 0)"/><path class="cls-28" d="M70.09,145.6s-8.54,0-8.21-4.4c.25-3.26,6.82-1.86,8.21,4.4" transform="translate(0 0)"/><path class="cls-27" d="M64.59,142a11.55,11.55,0,0,0,3.82,2.73,7.93,7.93,0,0,0,2.23.6,7.44,7.44,0,0,0,2.26-.11L73,146a7.93,7.93,0,0,1-2.48-.08,8.39,8.39,0,0,1-2.3-.81A11.68,11.68,0,0,1,64.59,142" transform="translate(0 0)"/><path class="cls-30" d="M28.76,174.51s-8.17-2.47-6.56-6.6c1.18-3,7.06.21,6.56,6.6" transform="translate(0 0)"/><path class="cls-27" d="M24.55,169.48a11.38,11.38,0,0,0,2.85,3.73,8,8,0,0,0,2,1.22,7.35,7.35,0,0,0,2.2.56l-.09.74a7.67,7.67,0,0,1-2.35-.79,8.36,8.36,0,0,1-2-1.45,11.55,11.55,0,0,1-2.6-4" transform="translate(0 0)"/><path class="cls-28" d="M11.43,176.91s-6-1.28-5.06-4.32c.67-2.25,5.05-.27,5.06,4.32" transform="translate(0 0)"/><path class="cls-27" d="M8.14,173.57a8,8,0,0,0,2.25,2.49,5.86,5.86,0,0,0,1.47.76,5.41,5.41,0,0,0,1.59.27l0,.53a5.65,5.65,0,0,1-1.72-.43,5.75,5.75,0,0,1-1.48-.92,8.06,8.06,0,0,1-2.09-2.7" transform="translate(0 0)"/><path class="cls-28" d="M6.06,188.92S3.38,194.4.64,192.79c-2-1.18,1-5,5.42-3.87" transform="translate(0 0)"/><path class="cls-27" d="M2,191.31a8.14,8.14,0,0,0,3-1.58,5.63,5.63,0,0,0,1.09-1.25A5.42,5.42,0,0,0,6.72,187l.51.15a5.71,5.71,0,0,1-.83,1.56,6.07,6.07,0,0,1-1.25,1.23A8.12,8.12,0,0,1,2,191.31" transform="translate(0 0)"/><path class="cls-28" d="M8.77,183.29s-2.68,5.49.27,6.65c2.17.86,3.32-3.8-.27-6.65" transform="translate(0 0)"/><path class="cls-27" d="M9.36,187.94a8.18,8.18,0,0,1-.84-3.31,5.65,5.65,0,0,1,.2-1.73,5.47,5.47,0,0,1,.72-1.62l.43.31A5.43,5.43,0,0,0,9.1,183a6,6,0,0,0-.31,1.63,8,8,0,0,0,.57,3.3" transform="translate(0 0)"/><path class="cls-28" d="M19.55,175.38s-5.57,2.49-4.06,5.28c1.12,2.06,5-.79,4.06-5.28" transform="translate(0 0)"/><path class="cls-27" d="M17,179.33a8.29,8.29,0,0,1,1.48-3.08,5.8,5.8,0,0,1,1.27-1.2,5.47,5.47,0,0,1,1.59-.78l.13.52a5.1,5.1,0,0,0-1.5.59,5.6,5.6,0,0,0-1.28,1.05,8.11,8.11,0,0,0-1.69,2.9" transform="translate(0 0)"/><path class="cls-28" d="M37.83,177s-6,.81-5.39,3.91c.49,2.29,5,.66,5.39-3.91" transform="translate(0 0)"/><path class="cls-27" d="M34.28,180a8.29,8.29,0,0,1,2.3-2.53,6,6,0,0,1,1.55-.8,5.79,5.79,0,0,1,1.75-.3l0,.54a5.15,5.15,0,0,0-1.61.14,6.2,6.2,0,0,0-1.53.64A8.26,8.26,0,0,0,34.28,180" transform="translate(0 0)"/><path class="cls-27" d="M104.83,159.84c0-1.85-.12-4.31-1.43-5.78a2.51,2.51,0,0,0-3.27-.3,10.85,10.85,0,0,0-3.5,3.9,26,26,0,0,0-2.77,6.67c-1.39,5.16-1.41,11,1.27,15.79a16.8,16.8,0,0,0,6.31,6.13c.57.34,1.14.77,1.74,1.11a23.1,23.1,0,0,0,4.6,2A19.37,19.37,0,0,0,121,189a32.42,32.42,0,0,0,5-2.81,19.94,19.94,0,0,1,4.25-2.32,5.8,5.8,0,0,1,2-.33c.35,0,.32-.49,0-.53a6.82,6.82,0,0,0-3.87.88c-1.46.73-2.83,1.64-4.23,2.48a22.73,22.73,0,0,1-5.21,2.45,16.94,16.94,0,0,1-6.72.5,21.7,21.7,0,0,1-9.48-3.33c-.22-.15-.44-.3-.65-.46.18.14-.28-.16-.35-.2-.36-.21-.72-.42-1.06-.65a15.28,15.28,0,0,1-3.19-2.81c-3.43-4-4.11-9.6-3.31-14.67a27.27,27.27,0,0,1,2-6.9,16.49,16.49,0,0,1,3.13-4.88c.74-.76,1.87-1.63,2.86-1.25,1.24.47,1.63,2.54,1.81,3.75a17.75,17.75,0,0,1,.18,1.93c0,.39.62.39.61,0" transform="translate(0 0)"/><path class="cls-5" d="M513.13,388.67H513a1.47,1.47,0,0,1-1.28-1.63l14.65-121.75A1.47,1.47,0,0,1,528,264c.8.1,10.34.83,10.24,1.63L514.58,387.38a1.46,1.46,0,0,1-1.45,1.29" transform="translate(0 0)"/><path class="cls-5" d="M587.27,388.67h.18a1.47,1.47,0,0,0,1.28-1.63L574.08,265.28a1.48,1.48,0,0,0-1.63-1.28c-.8.1-10.34.83-10.25,1.63l23.62,121.75a1.46,1.46,0,0,0,1.45,1.29" transform="translate(0 0)"/><rect class="cls-31" x="525.62" y="263.99" width="49.15" height="2.92"/><rect class="cls-5" x="525.62" y="289.28" width="49.15" height="2.92"/><path class="cls-7" d="M574.87,264.16H525.53a2.29,2.29,0,1,1,0-4.58h49.34a2.29,2.29,0,0,1,0,4.58" transform="translate(0 0)"/><path class="cls-32" d="M544.78,201.85s-56.42-76.22-38.72-92.5,43.58,41.06,38.72,92.5" transform="translate(0 0)"/><path class="cls-27" d="M511.4,118.35a206.21,206.21,0,0,1,14.67,26.09,222.36,222.36,0,0,1,10.31,26.21,248.7,248.7,0,0,1,6.63,25c1.59,7.52,2.85,15.12,3.79,22.75.79,6.4,1.35,12.81,1.81,19.23,0,.71.15,1.41.18,2.12,0,.39.63.39.61,0-.14-3-.2-5.93-.4-8.89-.23-3.33-.52-6.65-.89-10q-1.26-11.33-3.44-22.52a245,245,0,0,0-6.22-24.91,220.2,220.2,0,0,0-9.89-26.18,186.79,186.79,0,0,0-14.38-26.12c-.71-1.08-1.44-2.14-2.17-3.21-.26-.36-.86,0-.61.36" transform="translate(0 0)"/><path class="cls-27" d="M541.57,164.71c-.24,3.44-.26,6.9-.4,10.34-.06,1.58-.12,3.16-.19,4.73a20.62,20.62,0,0,0-.07,4.3c.05.27.43.22.51,0a10.9,10.9,0,0,0,.3-2.05c.07-.74.11-1.5.16-2.25.1-1.57.2-3.15.25-4.73.13-3.44.25-6.9,0-10.34a.3.3,0,0,0-.6,0" transform="translate(0 0)"/><path class="cls-27" d="M532.78,138.6c-.23,3.43-.26,6.89-.4,10.33-.06,1.58-.11,3.16-.19,4.73a20.63,20.63,0,0,0-.06,4.3c0,.27.43.22.5,0a10,10,0,0,0,.3-2.05c.08-.74.11-1.5.16-2.25.1-1.57.2-3.15.26-4.73.13-3.44.25-6.9,0-10.33a.31.31,0,0,0-.61,0" transform="translate(0 0)"/><path class="cls-27" d="M519.9,115.06c.19,2.93.4,5.86.45,8.8,0,1.49,0,3,0,4.48a23,23,0,0,0,0,4.39c0,.27.43.22.51,0a16.6,16.6,0,0,0,.4-4.39c.06-1.53.08-3.06,0-4.6a47.68,47.68,0,0,0-.82-8.76c-.07-.33-.62-.26-.59.08" transform="translate(0 0)"/><path class="cls-27" d="M509.91,128.77c2.41,1.64,4.82,3.26,7.14,5q1.8,1.36,3.57,2.79c.57.47,1.13,1,1.71,1.42a11.12,11.12,0,0,0,1.7,1.28c.22.11.52-.13.36-.36a16.7,16.7,0,0,0-3.13-3q-1.74-1.47-3.55-2.84a46.5,46.5,0,0,0-7.49-4.84.3.3,0,0,0-.31.52" transform="translate(0 0)"/><path class="cls-27" d="M511.66,133.34c2.4,1.63,4.81,3.26,7.13,5,1.21.91,2.4,1.83,3.57,2.78.58.47,1.14,1,1.71,1.42a11.72,11.72,0,0,0,1.71,1.28c.22.12.51-.13.36-.36a16.39,16.39,0,0,0-3.14-3q-1.72-1.47-3.54-2.85a48.05,48.05,0,0,0-7.49-4.83.3.3,0,0,0-.31.52" transform="translate(0 0)"/><path class="cls-27" d="M521.34,156.35c2.41,1.63,4.81,3.25,7.14,5,1.2.91,2.39,1.83,3.57,2.78.57.47,1.13,1,1.71,1.42a11.12,11.12,0,0,0,1.7,1.28c.22.11.52-.13.36-.36a16.45,16.45,0,0,0-3.14-3c-1.15-1-2.33-1.93-3.54-2.84a47.19,47.19,0,0,0-7.49-4.84.31.31,0,0,0-.31.53" transform="translate(0 0)"/><path class="cls-32" d="M559.26,186s54.4-77.68,36.27-93.48S553.05,134.74,559.26,186" transform="translate(0 0)"/><path class="cls-27" d="M589.82,101.34a185.67,185.67,0,0,0-14.36,26.5,214.66,214.66,0,0,0-9.7,26.49,243.9,243.9,0,0,0-6,25.3q-2.06,11.4-3.13,23c-.6,6.42-1,12.88-1,19.34,0,.71,0,1.42,0,2.13a.31.31,0,0,0,.61,0c.06-2.94.28-5.9.46-8.83q.3-5,.72-9.9,1-11.28,2.89-22.46a252.71,252.71,0,0,1,5.58-25A227.45,227.45,0,0,1,575,131.51a208.39,208.39,0,0,1,13.45-26.59c.64-1.08,1.3-2.16,2-3.23.24-.38-.36-.73-.61-.35" transform="translate(0 0)"/><path class="cls-27" d="M560.89,148.83c-.12,3.44.09,6.9.31,10.33.1,1.58.24,3.15.38,4.73.07.71.12,1.43.21,2.14a10.19,10.19,0,0,0,.36,2.14c.08.22.47.28.51,0a20.46,20.46,0,0,0-.18-4.28c-.12-1.58-.21-3.15-.32-4.73-.23-3.44-.34-6.89-.67-10.33a.3.3,0,0,0-.6,0" transform="translate(0 0)"/><path class="cls-27" d="M569,122.49c-.12,3.44.09,6.9.31,10.33.1,1.58.24,3.15.38,4.73.06.71.12,1.43.2,2.14a10.2,10.2,0,0,0,.37,2.14c.08.22.46.28.5,0a19.81,19.81,0,0,0-.18-4.28c-.11-1.58-.2-3.15-.31-4.73-.23-3.44-.35-6.89-.67-10.33a.3.3,0,0,0-.6,0" transform="translate(0 0)"/><path class="cls-27" d="M581.26,98.55a46.85,46.85,0,0,0-.59,8.78c0,1.53.07,3.06.16,4.59a16.94,16.94,0,0,0,.52,4.38c.08.21.47.28.51,0a22.59,22.59,0,0,0-.12-4.27c-.06-1.53-.09-3.06-.11-4.59,0-2.94.1-5.87.22-8.81,0-.33-.53-.42-.59-.08" transform="translate(0 0)"/><path class="cls-27" d="M591.88,111.55a47.21,47.21,0,0,0-7.28,5q-1.77,1.41-3.46,2.93a16.39,16.39,0,0,0-3.15,3.13.27.27,0,0,0,.36.36,22.12,22.12,0,0,0,3.26-2.71c1.14-1,2.31-1.94,3.49-2.88,2.3-1.85,4.7-3.55,7.09-5.27a.3.3,0,0,0-.31-.52" transform="translate(0 0)"/><path class="cls-27" d="M590.25,116.16a47.21,47.21,0,0,0-7.28,5q-1.77,1.41-3.46,2.93a16.68,16.68,0,0,0-3.15,3.13.27.27,0,0,0,.36.36,22.76,22.76,0,0,0,3.26-2.71q1.72-1.47,3.5-2.89c2.3-1.84,4.69-3.54,7.08-5.26a.3.3,0,0,0-.31-.52" transform="translate(0 0)"/><path class="cls-27" d="M581.18,139.41a47.27,47.27,0,0,0-7.28,5c-1.19.94-2.34,1.92-3.47,2.92a16.67,16.67,0,0,0-3.14,3.14c-.15.22.14.48.36.35a23.17,23.17,0,0,0,3.25-2.7c1.15-1,2.32-1.94,3.5-2.89,2.3-1.84,4.7-3.55,7.08-5.27a.3.3,0,0,0-.3-.52" transform="translate(0 0)"/><path class="cls-33" d="M553.77,165.58S499,88.15,517.08,72.26s42.67,42,36.69,93.32" transform="translate(0 0)"/><path class="cls-27" d="M522.22,81.38a208.47,208.47,0,0,1,14.13,26.46,221.8,221.8,0,0,1,9.7,26.39,248.23,248.23,0,0,1,6.1,25.22q2.13,11.33,3.28,22.79c.64,6.42,1.07,12.86,1.39,19.3,0,.68.11,1.37.13,2.06a.31.31,0,0,0,.61,0c-.08-3-.07-6-.21-8.95q-.23-5-.67-9.9c-.67-7.55-1.64-15.08-2.93-22.54a247.5,247.5,0,0,0-5.69-25.1,217.81,217.81,0,0,0-9.3-26.34A187.54,187.54,0,0,0,525,84.29c-.7-1.1-1.41-2.19-2.12-3.27-.25-.37-.85,0-.61.36" transform="translate(0 0)"/><path class="cls-27" d="M551.37,128.39c-.31,3.43-.41,6.89-.63,10.33-.1,1.57-.18,3.15-.29,4.72a20.57,20.57,0,0,0-.16,4.29c0,.28.43.22.5,0a10,10,0,0,0,.35-2c.09-.74.14-1.5.21-2.25.13-1.57.26-3.15.36-4.72.2-3.44.4-6.89.26-10.33a.3.3,0,0,0-.6,0" transform="translate(0 0)"/><path class="cls-27" d="M543.15,102.08c-.31,3.44-.41,6.89-.62,10.33-.1,1.58-.19,3.15-.29,4.73a20.55,20.55,0,0,0-.17,4.29c0,.28.43.22.51,0a10.11,10.11,0,0,0,.34-2c.1-.75.15-1.5.21-2.25.14-1.58.27-3.15.36-4.73a101.72,101.72,0,0,0,.26-10.33.3.3,0,0,0-.6,0" transform="translate(0 0)"/><path class="cls-27" d="M530.78,78.28c.13,2.93.28,5.86.26,8.8,0,1.49,0,3-.08,4.48a23.78,23.78,0,0,0-.11,4.38c0,.28.43.22.51,0a9,9,0,0,0,.34-2.08c.08-.77.12-1.53.16-2.3C532,90,532,88.5,532,87a47.69,47.69,0,0,0-.63-8.77.31.31,0,0,0-.6.08" transform="translate(0 0)"/><path class="cls-27" d="M520.51,91.76c2.4,1.71,4.8,3.4,7.1,5.24q1.74,1.36,3.43,2.79l1.68,1.46a10.67,10.67,0,0,0,1.68,1.31c.21.12.5-.13.35-.36a16.37,16.37,0,0,0-3.07-3q-1.74-1.55-3.56-3a47.29,47.29,0,0,0-7.31-4.93.3.3,0,0,0-.3.52" transform="translate(0 0)"/><path class="cls-27" d="M522.16,96.36c2.39,1.71,4.8,3.41,7.1,5.24q1.74,1.37,3.43,2.8c.56.48,1.11,1,1.68,1.45a11.07,11.07,0,0,0,1.67,1.31.26.26,0,0,0,.36-.36,16.37,16.37,0,0,0-3.07-3c-1.17-1-2.35-2-3.57-3a46.79,46.79,0,0,0-7.3-4.94.3.3,0,0,0-.3.52" transform="translate(0 0)"/><path class="cls-27" d="M531.34,119.58c2.39,1.71,4.79,3.4,7.1,5.23q1.74,1.38,3.43,2.8l1.67,1.46a11.84,11.84,0,0,0,1.68,1.31c.22.12.51-.14.36-.36a16.42,16.42,0,0,0-3.07-3.05c-1.17-1-2.35-2-3.57-3a46.73,46.73,0,0,0-7.3-4.93.3.3,0,0,0-.3.52" transform="translate(0 0)"/><path class="cls-8" d="M548.68,188.17s33.7-46.31,22.92-56-26.11,25-22.92,56" transform="translate(0 0)"/><path class="cls-27" d="M567.94,137.3A117.59,117.59,0,0,0,552.75,169a152.91,152.91,0,0,0-6,29.12,92.12,92.12,0,0,0-.78,13,.31.31,0,0,0,.61,0c.41-3.74.6-7.5,1-11.25q.72-6.83,2-13.57A145.34,145.34,0,0,1,559,155.42a129.13,129.13,0,0,1,9.53-17.77c.24-.38-.36-.72-.61-.35" transform="translate(0 0)"/><path class="cls-27" d="M550.08,165.73a62.42,62.42,0,0,0,.07,6.27c0,.95.11,1.89.18,2.83a13.27,13.27,0,0,0,.3,2.59c0,.18.29.12.31,0a15.57,15.57,0,0,0-.08-2.64c-.05-.94-.09-1.89-.13-2.83-.1-2.06-.13-4.12-.29-6.17a.18.18,0,1,0-.36,0" transform="translate(0 0)"/><path class="cls-27" d="M555.25,149.91a62.66,62.66,0,0,0,.08,6.28c0,.94.11,1.88.18,2.82a13.17,13.17,0,0,0,.29,2.59.16.16,0,0,0,.31,0,15.51,15.51,0,0,0-.07-2.64c0-.95-.09-1.89-.14-2.83-.09-2.06-.13-4.12-.28-6.18a.19.19,0,0,0-.37,0" transform="translate(0 0)"/><path class="cls-27" d="M562.92,135.59a28.52,28.52,0,0,0-.45,5.3c0,.92,0,1.85,0,2.78a11.66,11.66,0,0,0,.27,2.64c.05.18.29.12.31-.05a17.24,17.24,0,0,0,0-2.59c0-.93,0-1.86,0-2.78,0-1.76.13-3.5.23-5.25,0-.2-.32-.25-.36,0" transform="translate(0 0)"/><path class="cls-27" d="M569.19,143.55a28.79,28.79,0,0,0-4.51,3c-.71.54-1.39,1.1-2.06,1.68a10.69,10.69,0,0,0-1.94,1.86c-.09.13.09.29.22.21a13.74,13.74,0,0,0,2-1.59c.72-.6,1.46-1.18,2.2-1.75,1.4-1.07,2.84-2.06,4.29-3.06a.19.19,0,0,0-.19-.32" transform="translate(0 0)"/><path class="cls-27" d="M568.16,146.32a27.44,27.44,0,0,0-4.51,3c-.71.54-1.39,1.1-2.07,1.67a11.33,11.33,0,0,0-1.93,1.86c-.09.14.09.29.22.22a14.37,14.37,0,0,0,2-1.59c.73-.6,1.47-1.18,2.21-1.76,1.39-1.07,2.84-2.06,4.28-3.06a.18.18,0,0,0-.18-.31" transform="translate(0 0)"/><path class="cls-27" d="M562.43,160.26a28.64,28.64,0,0,0-4.52,3c-.7.54-1.38,1.1-2.06,1.68a10.26,10.26,0,0,0-1.93,1.85c-.09.14.09.29.22.22a15,15,0,0,0,2-1.59c.72-.6,1.46-1.18,2.21-1.75,1.39-1.08,2.84-2.07,4.28-3.07a.18.18,0,0,0-.18-.31" transform="translate(0 0)"/><polygon class="cls-34" points="571.31 221.84 571.07 223.44 570.56 226.85 565.69 259.58 536.6 259.58 531.73 226.85 531.22 223.44 530.98 221.84 571.31 221.84"/><polygon class="cls-35" points="571.07 223.44 570.56 226.85 531.73 226.85 531.22 223.44 571.07 223.44"/><path class="cls-34" d="M571.88,224.91H530.41a2.41,2.41,0,0,1,0-4.81h41.47a2.41,2.41,0,0,1,0,4.81" transform="translate(0 0)"/><path class="cls-36" d="M81.48,242.76H67.9c-.52,0-1,.54-1.18,1.36l-3.2,13.11c-.18.74.13,1.55.59,1.55H85.27c.46,0,.77-.81.59-1.55l-3.2-13.11c-.2-.82-.67-1.36-1.18-1.36" transform="translate(0 0)"/><path class="cls-27" d="M344,90.23a16.36,16.36,0,0,1,3-5,4.49,4.49,0,0,1,3.26-1.59c1.63.06,2.94,1.33,3.86,2.56a21,21,0,0,1,3,6.24,53,53,0,0,1,2.09,9.65c.29,2.2.48,4.42.59,6.64.13,2.58.09,5.17.19,7.76a.16.16,0,0,0,.32,0,68.87,68.87,0,0,0-.46-13.84,54.23,54.23,0,0,0-2.09-10.16,21.94,21.94,0,0,0-3.21-6.66,6.24,6.24,0,0,0-4-2.7c-3.69-.42-5.84,4.17-6.91,7-.08.19.25.33.33.14" transform="translate(0 0)"/><path class="cls-27" d="M364.77,89.73c-1-2.65-2.81-6.56-6.06-6.94-1.81-.22-3.37.94-4.48,2.24A19.47,19.47,0,0,0,351,91.15a49.83,49.83,0,0,0-2.27,9.95c-.31,2.27-.51,4.56-.62,6.85a60.5,60.5,0,0,0,0,8.19.16.16,0,0,0,.32,0c.17-4.3.13-8.59.6-12.88a58.64,58.64,0,0,1,1.91-10,24.75,24.75,0,0,1,2.89-6.7,7,7,0,0,1,3.5-3.12c3.64-1.1,6,3.84,7.11,6.44.08.19.41.05.34-.15" transform="translate(0 0)"/><path class="cls-27" d="M381.13,91.67c-1-2.68-2.88-6.7-6.22-7a5.13,5.13,0,0,0-4,1.87,17.7,17.7,0,0,0-3.39,6,46.32,46.32,0,0,0-2.39,10c-.34,2.35-.55,4.72-.68,7.09a62.12,62.12,0,0,0,0,8.41c0,.2.32.21.32,0,.18-4.44.13-8.85.65-13.27a56,56,0,0,1,2-10.17A22.82,22.82,0,0,1,370.51,88a6.07,6.07,0,0,1,3.61-2.73c3.45-.6,5.61,4,6.67,6.53.08.19.41.06.34-.14" transform="translate(0 0)"/><path class="cls-27" d="M375.79,103c-1.24-3.23-4.28-8.82-8.58-6.39-1.95,1.1-3.21,3.24-4.14,5.21a39.88,39.88,0,0,0-3,10.33,74.6,74.6,0,0,0-.89,7.87,64,64,0,0,0-.07,9.39.16.16,0,0,0,.32,0c.11-2.65.06-5.3.2-7.95.13-2.37.34-4.73.67-7.07a48.41,48.41,0,0,1,2.59-10.68c1.09-2.82,3.94-8.74,7.94-6.78,2.31,1.13,3.65,3.93,4.59,6.17.09.22.44.13.36-.1" transform="translate(0 0)"/><path class="cls-27" d="M354.15,106.09a20.18,20.18,0,0,1,2.35-4.66,3.47,3.47,0,0,1,2.11-1.63,2,2,0,0,1,1.76,1.16,11.3,11.3,0,0,1,1.31,3.87,31.47,31.47,0,0,1,.42,3.36c.09,1.36,0,2.74.2,4.09,0,.17.28.24.31,0a20,20,0,0,0,0-3.87,31.94,31.94,0,0,0-.33-3.25A12.58,12.58,0,0,0,361,100.8a2.81,2.81,0,0,0-2.12-1.59,3.21,3.21,0,0,0-2.42,1.41A16.07,16.07,0,0,0,353.8,106c-.08.23.27.32.35.1" transform="translate(0 0)"/><path class="cls-32" d="M370.15,82.84s-5.87-2.28-7,4.15c0,0-5.54-1.81-6.55,2.41s1.85,7.24,5.25,9.65,3.6,7.24,9.83,9.25c0,0,11.16-17.46-1.54-25.46" transform="translate(0 0)"/><path class="cls-32" d="M338.93,82.29s5.75-2.23,6.85,4.08c0,0,5.43-1.78,6.42,2.36s-1.81,7.09-5.15,9.46-3.52,7.09-9.63,9.06c0,0-2.07-4.92-1.08-8.57s-4.47-13.17,2.59-16.39" transform="translate(0 0)"/><path class="cls-37" d="M390.57,112.87,362.21,20.24a.32.32,0,0,0-.61,0l-28.35,92.63" transform="translate(0 0)"/><line class="cls-37" x1="361.91" y1="112.87" x2="361.91"/><path class="cls-22" d="M366,134.88l-8.71-.1c-12-.13-23.08-10-22.94-22v-1l55.3.59v1C389.52,125.4,378,135,366,134.88" transform="translate(0 0)"/><path class="cls-38" d="M333.48,112.1s2.26,22.74,28.44,22.74" transform="translate(0 0)"/><path class="cls-38" d="M361.91,110.13v24.71c26.19,0,28.44-22.74,28.44-22.74" transform="translate(0 0)"/><path class="cls-39" d="M333.48,114.05h0a1.77,1.77,0,1,1,1.77-1.77,1.76,1.76,0,0,1-1.77,1.77" transform="translate(0 0)"/><path class="cls-39" d="M361.92,114.05h0a1.77,1.77,0,1,1,1.77-1.77,1.76,1.76,0,0,1-1.77,1.77" transform="translate(0 0)"/><path class="cls-39" d="M390.36,114.05h0a1.77,1.77,0,1,1,1.77-1.77,1.77,1.77,0,0,1-1.77,1.77" transform="translate(0 0)"/><path class="cls-39" d="M361.92,136.6h0a1.77,1.77,0,1,1,1.77-1.76,1.76,1.76,0,0,1-1.77,1.76" transform="translate(0 0)"/><path class="cls-27" d="M336.61,100.42a16.38,16.38,0,0,1,3.05-5,4.33,4.33,0,0,1,3.3-1.52,5,5,0,0,1,3.23,1.87,17,17,0,0,1,2.89,5,37.27,37.27,0,0,1,1.32,4c.43,1.58.71,3.2,1.15,4.78a.16.16,0,0,0,.31,0,31,31,0,0,0-2.11-8.57,17.94,17.94,0,0,0-3-5.43,5.84,5.84,0,0,0-3.48-2.19,4.44,4.44,0,0,0-3.45,1.19,13.76,13.76,0,0,0-3.55,5.77c-.07.2.25.34.34.15" transform="translate(0 0)"/><path class="cls-8" d="M330,95s6.06-2.84,7.21,3.72c0,0,4.94-1.61,6.68,2.46,3.83,9-9,17.23-15.39,19.28,0,0-2.15-5.13-1.13-8.92S322.69,98.33,330,95" transform="translate(0 0)"/><path class="cls-33" d="M349.21,100.81s4.54-1.89,5.53,3.12c0,0,4.09-1.45,5.15,1.76,2.37,7.18-6.61,13.34-11.44,15,0,0-7.64-16.2.76-19.9" transform="translate(0 0)"/><path class="cls-8" d="M386.27,85.83s-5.3-2-6.31,3.76c0,0-5-1.64-5.91,2.18s1.66,6.53,4.74,8.71,3.25,6.54,8.87,8.35c0,0,1.91-4.54,1-7.89s4.12-12.14-2.39-15.11" transform="translate(0 0)"/><path class="cls-27" d="M375.79,103c-.9-2.49-2.36-5.61-5-6.69-2.09-.86-4.08.3-5.44,1.88a12.53,12.53,0,0,0-2.57,4.6.16.16,0,0,0,.29.13,24.39,24.39,0,0,1,3-4.66,4.82,4.82,0,0,1,3.16-1.67,4.45,4.45,0,0,1,3.2,1.57,16.88,16.88,0,0,1,3,5c.09.19.41,0,.34-.15" transform="translate(0 0)"/><path class="cls-40" d="M380,97.46s-4.59-1.78-5.46,3.25c0,0-4.33-1.42-5.11,1.88s1.44,5.65,4.1,7.54,2.8,5.65,7.67,7.22c0,0,7.27-16.38-1.2-19.89" transform="translate(0 0)"/><path class="cls-27" d="M344,90.23a17.38,17.38,0,0,1,3.44-5.36,4.75,4.75,0,0,1,1.77-1.08,4.13,4.13,0,0,1,.92-.16c.31,0,.62,0,.93,0a.16.16,0,0,0,.08-.3,3.3,3.3,0,0,0-3.07.34,8.52,8.52,0,0,0-3,3.23,16,16,0,0,0-1.41,3.16c-.07.19.24.33.33.14" transform="translate(0 0)"/><path class="cls-27" d="M333.59,108.33c.72-2,1.38-4,2.14-5.91.35-.92.71-1.84,1.12-2.74.32-.71.71-1.4,1-2.12,0-.09-.07-.21-.15-.12a8.47,8.47,0,0,0-1.09,2c-.41.88-.79,1.79-1.15,2.7a64.2,64.2,0,0,0-2.1,6.18.11.11,0,0,0,.21.06" transform="translate(0 0)"/><path class="cls-27" d="M351.15,113.52c.75-2,1.5-4.06,2.32-6.06.38-.93.76-1.87,1.16-2.79.27-.64.6-1.28.81-1.94,0-.11-.11-.16-.17-.07a11.62,11.62,0,0,0-1,2c-.39.88-.77,1.77-1.14,2.66a56.72,56.72,0,0,0-2.22,6.17.11.11,0,0,0,.21.06" transform="translate(0 0)"/><path class="cls-27" d="M380.11,113.49a22.9,22.9,0,0,0-3-9,46.31,46.31,0,0,0-3.83-6,.09.09,0,1,0-.16.1,21.32,21.32,0,0,0,1.46,2.35c.73,1.13,1.44,2.28,2.09,3.47a26.29,26.29,0,0,1,3.21,9.12c0,.13.23.1.22,0" transform="translate(0 0)"/><path class="cls-27" d="M386.06,103.35a23.52,23.52,0,0,0-3-9.13,45.09,45.09,0,0,0-3.82-6.09.1.1,0,0,0-.17.1,25.28,25.28,0,0,0,1.46,2.38c.72,1.13,1.42,2.28,2,3.46a27.18,27.18,0,0,1,3.25,9.28c0,.13.23.14.22,0" transform="translate(0 0)"/><path class="cls-27" d="M368.43,95.23a31.56,31.56,0,0,0-3.11-5.71c-.48-.73-.95-1.45-1.46-2.15a4.24,4.24,0,0,0-.87-1c-.12-.08-.25.08-.19.2a8.72,8.72,0,0,0,.7,1.12c.48.71.94,1.43,1.4,2.16q1.69,2.72,3.22,5.53c.09.16.38,0,.31-.13" transform="translate(0 0)"/><path class="cls-8" d="M77.74,243.72c.64.34,1.29.66,2,.95a6.16,6.16,0,0,0,2.37.61c.82,0,2.53.32,3-.36s-.46-2.36-1.14-2.83a2.83,2.83,0,0,0-1.08-.37,18.38,18.38,0,0,1-2.91-.87" transform="translate(0 0)"/><path class="cls-8" d="M69.36,241.58c-1.18-.74-4.51-3.87-5.09-5.13a5.68,5.68,0,0,1-.12-3.82c.26-1,1.87-3.31,2.43-3.43s1.56.86,2.06,1.83a4.38,4.38,0,0,1,.17,2.64,10.86,10.86,0,0,0-.12,3,4,4,0,0,0,1.36,2.62" transform="translate(0 0)"/><path class="cls-8" d="M70.11,235.54a11.75,11.75,0,0,1,0-5.11,4.31,4.31,0,0,1,3.85-3.14.58.58,0,0,1,.29,0,.66.66,0,0,1,.24.23,7.62,7.62,0,0,1,1.47,3.55,13.79,13.79,0,0,1,0,2.57l-.18,2.87" transform="translate(0 0)"/><path class="cls-8" d="M75.55,237.28a5.94,5.94,0,0,1,.36-3.52c.46-1.44.91-2.88,1.37-4.32a5,5,0,0,1,.63-1.46,1.36,1.36,0,0,1,1.22-.66,1.49,1.49,0,0,1,.81.6c1.8,2.25,1.9,6.11.23,8.84" transform="translate(0 0)"/><path class="cls-8" d="M79.43,236.76l2.7-5.19a4.46,4.46,0,0,1,.79-1.2,1.54,1.54,0,0,1,1.31-.48,1.52,1.52,0,0,1,1.08,1,4.62,4.62,0,0,1,.18,1.53c0,1.83-.15,3.81-1.35,5.2a7.46,7.46,0,0,1-2,1.51,10.55,10.55,0,0,1-4.14,1.5" transform="translate(0 0)"/><path class="cls-41" d="M78.14,239.84a3,3,0,0,0,2.43-.54,28.9,28.9,0,0,1,2.58-1.81c1.73-.72,4.45-.73,4.87,0a3.67,3.67,0,0,1-.44,3.11c-.69,1.14-2.83,1.5-4.21,1.51a12.81,12.81,0,0,1-5.1-1" transform="translate(0 0)"/><path class="cls-41" d="M73,243.78a2.92,2.92,0,0,1-2.58,1.06c-2.28-.37-3.84-.58-5.72-1.92s-3.77-3.51-3.31-5.76c.2-1,.9-2.13,1.68-2.32s2.07,1.52,2.74,2.56a44.07,44.07,0,0,0,3.26,4.11,8.4,8.4,0,0,0,2,1.39,1.27,1.27,0,0,0,1.26-.22" transform="translate(0 0)"/><path class="cls-42" d="M72.79,242.5c-.51-1.49-2-5.44-1.82-7a5.53,5.53,0,0,1,2.12-4.07.82.82,0,0,1,1.11.3,8.5,8.5,0,0,1,1.24,3.94c.21,1.53-.27,5.18-1.14,6.45" transform="translate(0 0)"/><path class="cls-41" d="M73.37,242.08c-2.16-.48-4.29-1.4-5.46-3.28s-2.07-4.47-.65-6.17a2.19,2.19,0,0,1,1.13-.79,2.28,2.28,0,0,1,1.85.59,5,5,0,0,1,1.84,3.15c.12.78.06,1.57.14,2.34a13.51,13.51,0,0,0,.84,3.11c.13.36.42.8.78.66" transform="translate(0 0)"/><path class="cls-41" d="M73.54,242.13a70.77,70.77,0,0,0,2.52-7.35,4.87,4.87,0,0,1,2-3.37,1.2,1.2,0,0,1,1-.14,3.21,3.21,0,0,1,1.5,2.25,4.94,4.94,0,0,1,0,2.26c-.36,1.72-2.84,7.12-6.32,6.55" transform="translate(0 0)"/><path class="cls-8" d="M70.25,242.93a15,15,0,0,1-3.27,1c-3.1.19-1.24,2.11-1.16,2.17.87.7,2.86,1,4.75.67,1.48-.23,3.27-2.2,3-3.65" transform="translate(0 0)"/><path class="cls-8" d="M73.42,243.06a7,7,0,0,0,0,3A2.45,2.45,0,0,0,75,247.52a8.74,8.74,0,0,0,2.61.8c.72,0,1-.73,1.52-1.22a2.62,2.62,0,0,0,.45-2.42,2.92,2.92,0,0,0-.9-1,19.24,19.24,0,0,0-2.78-1.86" transform="translate(0 0)"/><path class="cls-42" d="M74.86,242.57a5.68,5.68,0,0,0,6-2.5,4.41,4.41,0,0,0,.49-3.81,2.28,2.28,0,0,0-2.39-1.61,2.26,2.26,0,0,0-1.55,1.64,9.79,9.79,0,0,0-.22,2.36,4.21,4.21,0,0,1-.93,2.1,3.53,3.53,0,0,1-2.78,1.17" transform="translate(0 0)"/><path class="cls-42" d="M73.14,241.29a1.92,1.92,0,0,1,.76.43,1,1,0,0,1,.28.83,1.19,1.19,0,0,1-.3.52A4.42,4.42,0,0,1,69,244.15a3.48,3.48,0,0,1-2-2,1.73,1.73,0,0,1-.08-.87c.15-.66.62-1.71,2-1.17a5.3,5.3,0,0,1,.8.38c.89.52,2.6,1.35,3.48.84" transform="translate(0 0)"/><path class="cls-41" d="M74.47,241.22a2,2,0,0,0-.86.27.91.91,0,0,0-.45.76,1.27,1.27,0,0,0,.23.57,4.94,4.94,0,0,0,4.93,2.07,3.53,3.53,0,0,0,2.5-1.6c.15-.25,1.27-2.83-.18-2.94a24.78,24.78,0,0,0-2.38.76c-1,.33-3,.8-3.79.11" transform="translate(0 0)"/></g></g><path class="cls-43" d="M342.18,389.55c5.71-49.29-6.34-91.84-6.34-91.84h4c12.8,41.12,9.93,83.72,9.22,91.84Z" transform="translate(0 0)"/><path class="cls-43" d="M347.26,358.67v-7.41s25.64-12.64,37.06-30.59l3.73,1.05s-11.42,17.95-40.79,36.95" transform="translate(0 0)"/><path class="cls-43" d="M348,369.61v-7.44s-31-17.36-44.87-34.27l-2.16,3s14.3,19.61,47,38.72" transform="translate(0 0)"/><path class="cls-43" d="M367,323.7a39.8,39.8,0,0,1,.7,16.55l-4.55,4.08s3.5-12.47.93-19.7Z" transform="translate(0 0)"/><path class="cls-43" d="M301.86,343.32c4.24.91,9.9-.32,14-1.56a.08.08,0,0,0,0,0,9,9,0,0,0,1.75,3.14,39.82,39.82,0,0,1-16.35,1.39Z" transform="translate(0 0)"/><path class="cls-43" d="M310.16,360.3a39.79,39.79,0,0,1,14.08-8.74l5.78,2s-12.58,3.08-17.61,8.86Z" transform="translate(0 0)"/><path class="cls-43" d="M364.9,343.52a40.15,40.15,0,0,1,8.27,13.29l-2.92.9c-1.26-4.55-5.54-9.4-8.65-12.47a7.4,7.4,0,0,0,3.3-1.72" transform="translate(0 0)"/><path class="cls-43" d="M386.85,346.53s-12.77-.32-20.65-3.92l2.56-3.58s10.24,5.23,17.87,4.45Z" transform="translate(0 0)"/><path class="cls-43" d="M323.28,331.74s5.4,11.57,5.7,20.23l-4.35-.7s.12-11.5-4-18Z" transform="translate(0 0)"/><path class="cls-44" d="M344.69,290a7,7,0,0,0-1.15,2.3,12.07,12.07,0,0,0,.07,2.29L332,297.22c-.32-1.1-.64-1.89-.94-2-1.12-.52-14.33-5.24-13.84-17s7.51-15.48,10.88-16.71,16.36-1.43,21.13,9.87c3.9,9.23-3.4,16.32-4.55,18.62" transform="translate(0 0)"/><path class="cls-45" d="M340.5,296s-2-8.95-1.66-10.37,2.37-6.58,2.67-7.64-1-1.92-1.49-.34c-.41,1.35-2.42,6.09-2.7,7.91s1.29,11.33,1.29,11.33Z" transform="translate(0 0)"/><path class="cls-45" d="M335.54,297.14s-2-8.95-3-10.08-5-4.92-5.7-5.74.08-2.16,1.2-.95c.95,1,4.81,4.46,5.84,6s3.71,10.79,3.71,10.79Z" transform="translate(0 0)"/><path class="cls-45" d="M327.45,280.09a6.89,6.89,0,0,0,3.86-.63,2.27,2.27,0,0,1-.85-1.63,1.5,1.5,0,0,1,.81-1.47,1.63,1.63,0,0,1,1.77.41,1.5,1.5,0,0,1,.49,1.91,2.28,2.28,0,0,1-.53.7,3.09,3.09,0,0,0,2.44-1,2.36,2.36,0,0,1-.74-.45,2.05,2.05,0,0,1-.22-2.8,1.65,1.65,0,0,1,2.38-.13c.75.58.8,1.66.13,2.83a14.33,14.33,0,0,0,3.53-.28l.19.86a14.25,14.25,0,0,1-4.3.22A3.74,3.74,0,0,1,332.2,280l-.05,0a7.82,7.82,0,0,1-4.83.91Zm4.2-2.95a.71.71,0,0,0-.35.68,1.57,1.57,0,0,0,.79,1.19,2,2,0,0,0,.67-.72c.1-.21.16-.5-.28-.88a1.41,1.41,0,0,0-.36-.24.56.56,0,0,0-.47,0m4.56.32c.34-.58.57-1.38.12-1.72s-.88-.35-1.18,0a1.18,1.18,0,0,0,.14,1.61,1.65,1.65,0,0,0,.75.37,2.33,2.33,0,0,0,.17-.26" transform="translate(0 0)"/><path class="cls-46" d="M337.57,294.61A18.38,18.38,0,0,0,343.8,292l-.06.22c-.23,1,.9,8.54.38,11.66a2.31,2.31,0,0,1-.44,1.19,6.83,6.83,0,0,1-3.37,1.63,6.68,6.68,0,0,1-3.73,0,2.2,2.2,0,0,1-.91-.87c-1.82-2.61-4-9.9-4.68-10.7,0-.06-.1-.11-.15-.17a18.51,18.51,0,0,0,6.73-.35" transform="translate(0 0)"/><path class="cls-47" d="M338.33,298a21.49,21.49,0,0,1-6,.47c-.32-.86-.61-1.63-.85-2.21a17.7,17.7,0,0,0,12.22-2.76c0,.63.1,1.45.18,2.36a21.29,21.29,0,0,1-5.59,2.14" transform="translate(0 0)"/><path class="cls-47" d="M339.19,301.75a22.33,22.33,0,0,1-5.33.5c-.29-.71-.59-1.45-.86-2.17a17.73,17.73,0,0,0,11.06-2.5c.06.77.11,1.56.15,2.33a22.66,22.66,0,0,1-5,1.84" transform="translate(0 0)"/><path class="cls-47" d="M344.26,301.76a13.26,13.26,0,0,1-.14,2.15,2.16,2.16,0,0,1-.05.27,21,21,0,0,1-8.24,1.86c-.05-.07-.11-.13-.16-.21a13.19,13.19,0,0,1-1.05-1.89,17.63,17.63,0,0,0,9.64-2.18" transform="translate(0 0)"/><path class="cls-44" d="M378.63,315.93a11.29,11.29,0,1,0,11.29-11.28,11.29,11.29,0,0,0-11.29,11.28" transform="translate(0 0)"/><path class="cls-48" d="M380.71,315.93a9.21,9.21,0,1,0,9.21-9.21,9.21,9.21,0,0,0-9.21,9.21" transform="translate(0 0)"/><path class="cls-44" d="M391.77,308.93l1.82.73-1,2.18c1.79.9,3,2.25,2.22,4.18-1.34,3.36-6.38,0-6.89,1.27-.24.59.63,1,1.09,1.16s1.45.4,1.79-.42l0-.06,3,1.19c-.74,1.87-2.82,2-4.75,1.5l-.78,2.28-1.82-.73,1-2.16c-1.94-.95-3.26-2.38-2.43-4.46,1.39-3.47,6.38,0,6.87-1.22.22-.54-.67-.9-.94-1-.44-.17-1.19-.31-1.47.36l-3-1.19c.72-1.79,2.66-1.91,4.5-1.34Z" transform="translate(0 0)"/><path class="cls-44" d="M353.55,325.62a11.29,11.29,0,1,0,5.19-15.09,11.29,11.29,0,0,0-5.19,15.09" transform="translate(0 0)"/><path class="cls-48" d="M355.42,324.71a9.21,9.21,0,1,0,4.23-12.32,9.22,9.22,0,0,0-4.23,12.32" transform="translate(0 0)"/><path class="cls-44" d="M362.29,313.56l2-.14.05,2.4c2,0,3.68.71,3.83,2.79.27,3.6-5.74,2.79-5.63,4.16,0,.64,1,.6,1.48.57s1.48-.29,1.43-1.17v-.07l3.2-.24c.15,2-1.63,3.08-3.61,3.44l.3,2.38-2,.15,0-2.39c-2.16,0-4-.7-4.14-2.93-.27-3.73,5.74-2.8,5.64-4.11,0-.59-1-.52-1.29-.5-.46,0-1.2.25-1.16,1l-3.21.24c-.14-1.92,1.55-2.88,3.46-3.18Z" transform="translate(0 0)"/><path class="cls-44" d="M309.86,326.08a11.28,11.28,0,1,0,8.65-13.41,11.27,11.27,0,0,0-8.65,13.41" transform="translate(0 0)"/><path class="cls-48" d="M311.88,325.64A9.21,9.21,0,1,0,319,314.7a9.22,9.22,0,0,0-7.07,10.94" transform="translate(0 0)"/><path class="cls-44" d="M321.22,316.46l1.94.33-.52,2.35c1.94.5,3.4,1.56,3.05,3.62-.61,3.56-6.24,1.33-6.47,2.69-.11.63.83.83,1.31.91s1.5.08,1.67-.79v-.07l3.17.54c-.34,2-2.33,2.6-4.34,2.47l-.28,2.38-1.93-.33.53-2.32c-2.1-.51-3.69-1.63-3.31-3.84.62-3.68,6.24-1.34,6.46-2.64.1-.58-.85-.74-1.14-.79-.46-.08-1.22-.05-1.36.66l-3.17-.53c.32-1.91,2.19-2.43,4.12-2.27Z" transform="translate(0 0)"/><path class="cls-44" d="M293.86,334.93a11.29,11.29,0,1,0-10.42-12.08,11.28,11.28,0,0,0,10.42,12.08" transform="translate(0 0)"/><path class="cls-48" d="M294,332.86a9.21,9.21,0,1,0-8.5-9.86,9.21,9.21,0,0,0,8.5,9.86" transform="translate(0 0)"/><path class="cls-44" d="M287.84,321.31l.87-1.76,2.1,1.16c1-1.72,2.46-2.82,4.33-1.9,3.25,1.58-.48,6.36.76,7,.58.28,1-.56,1.24-1s.5-1.42-.29-1.82l-.06,0L298.2,320c1.81.89,1.84,3,1.15,4.85l2.21.95-.86,1.76-2.08-1.17c-1.09,1.87-2.61,3.08-4.62,2.1-3.36-1.64.47-6.37-.71-6.95-.53-.25-1,.6-1.08.87-.21.42-.4,1.16.25,1.5l-1.41,2.89c-1.73-.85-1.71-2.79-1-4.6Z" transform="translate(0 0)"/><path class="cls-44" d="M362.38,364.78a11.29,11.29,0,1,0,9.19-13,11.29,11.29,0,0,0-9.19,13" transform="translate(0 0)"/><path class="cls-48" d="M364.43,364.42a9.21,9.21,0,1,0,7.49-10.65,9.2,9.2,0,0,0-7.49,10.65" transform="translate(0 0)"/><path class="cls-44" d="M374.13,355.63l1.92.41-.62,2.32c1.92.58,3.34,1.7,2.9,3.74-.74,3.54-6.28,1.08-6.57,2.43-.13.63.8.86,1.27,1s1.5.14,1.7-.72l0-.07,3.14.66c-.42,2-2.43,2.51-4.43,2.3l-.38,2.37-1.92-.41.63-2.3c-2.07-.6-3.62-1.78-3.15-4,.77-3.65,6.28-1.08,6.56-2.38.12-.57-.81-.77-1.1-.83-.46-.1-1.23-.1-1.39.61l-3.15-.67c.4-1.89,2.29-2.34,4.21-2.09Z" transform="translate(0 0)"/><path class="cls-44" d="M300.56,368.85a11.28,11.28,0,1,0,9.18-13.05,11.28,11.28,0,0,0-9.18,13.05" transform="translate(0 0)"/><path class="cls-48" d="M302.6,368.49a9.21,9.21,0,1,0,7.5-10.65,9.21,9.21,0,0,0-7.5,10.65" transform="translate(0 0)"/><path class="cls-44" d="M312.3,359.7l1.92.41-.61,2.32c1.92.58,3.33,1.7,2.9,3.74-.75,3.54-6.29,1.08-6.57,2.43-.14.63.79.86,1.27,1s1.5.14,1.7-.73v-.06l3.15.66c-.42,2-2.44,2.51-4.43,2.3l-.38,2.37-1.92-.41.63-2.3c-2.08-.6-3.62-1.78-3.16-4,.78-3.66,6.29-1.08,6.56-2.38.12-.57-.81-.77-1.1-.83-.46-.1-1.22-.1-1.39.61l-3.15-.67c.4-1.89,2.29-2.34,4.21-2.09Z" transform="translate(0 0)"/><path class="cls-43" d="M375,343.52s5.61-5.66,10.92-5.83,13.52,6.64,13.52,6.64-7.22,9.15-13.52,8C378.63,351,375,343.52,375,343.52" transform="translate(0 0)"/><path class="cls-43" d="M280.39,343.52s5.61-5.66,10.91-5.83,13.52,6.64,13.52,6.64-7.21,9.15-13.52,8c-7.26-1.34-10.91-8.79-10.91-8.79" transform="translate(0 0)"/><path class="cls-49" d="M209.56,243.26c.57.49,1.75-.83,2.26-1.08,1-.51,1.78.23,2.75.54.37.12,1.22.52,1.42.12s-.18-.71,0-.92,1,.23,1.27.32c.69.23,1.68.33,1.33-.72-.43-1.26-2.1-2.19-3.22-2.66s-2.81-.83-3.86-.25a4.42,4.42,0,0,0-2.2,4.06.86.86,0,0,0,.23.59" transform="translate(0 0)"/><path class="cls-50" d="M204.71,240.29c-.21-.78.46-2.23.79-3a14.85,14.85,0,0,1,2.27-3.33c.34,0,1.74,1.58,2.31,1.92a7.6,7.6,0,0,0,2.89.55,17,17,0,0,1,2.38.14c1.38.43,2.69.81,4.08,1.21,1.75.52,2.78,1.56,4.07,2.12.9.4,3.31,2.73,2.23,3.92-.91,1-3-1.56-3.61-2.06a19,19,0,0,0-3.78-1.86,15.22,15.22,0,0,1,2.22.7,2.86,2.86,0,0,1,1.1,1.38c.41.85,0,1.06-.75,1.09a3.16,3.16,0,0,1-2.18-1,8.49,8.49,0,0,0-3.66-1.76,3.37,3.37,0,0,0-1.94-.09,5.34,5.34,0,0,0-1.84.77c-1.08.94,1.05,2,1.34,2.91a2,2,0,0,1-.16,1.76c-.4.5-1.2,0-1.58-.3a10.08,10.08,0,0,1-1.08-1.36c-.44-.54-.88-1.09-1.33-1.63A3.94,3.94,0,0,0,206.8,241a9,9,0,0,1-2.17-.69s.12,0,.08,0" transform="translate(0 0)"/><path class="cls-51" d="M234.16,253.4s-16.63-18.91-26.3-9.49.7,22.32,8.06,30l4-3.53s-16.95-13.09-9-22c7.17-8.06,19.62,8.87,19.62,8.87Z" transform="translate(0 0)"/><path class="cls-17" d="M230.6,249.86a40.41,40.41,0,0,1,3.56,3.54l-3.68,3.86a48.29,48.29,0,0,0-3.34-3.9Z" transform="translate(0 0)"/><path class="cls-17" d="M214.86,265.6a47,47,0,0,0,5,4.76l-4,3.53c-1.41-1.46-2.9-3.13-4.35-4.92Z" transform="translate(0 0)"/><polygon class="cls-51" points="252.04 285.43 311.56 294.43 310.49 304.64 235.92 297.25 252.04 285.43"/><path class="cls-51" d="M308.78,294l2.78.42-1.07,10.21-3.55-.35c.33-2.68,1.77-9.47,1.84-10.28" transform="translate(0 0)"/><path class="cls-17" d="M245.27,293.4c.17-.21.35-.41.52-.61,13.33,1.83,65.09,8.14,65.09,8.14l-.39,3.71-69.82-6.92a28.35,28.35,0,0,0,4.6-4.32" transform="translate(0 0)"/><path class="cls-51" d="M248.31,253s9.87-12.82,18.51-4.06c9.14,9.25-2.69,19.21-2.69,19.21L261,265s8.46-8.09,2.49-13.23c-5.34-4.6-12.09,4.61-12.09,4.61Z" transform="translate(0 0)"/><path class="cls-17" d="M251.44,256.38l-1.33-1.32c1.95-2.26,8.71-10.14,15.08-4.15,5.81,5.46-.95,13.41-3.1,15.49l-1-1.4s8.46-8.09,2.49-13.23c-5.34-4.6-12.09,4.61-12.09,4.61" transform="translate(0 0)"/><polygon class="cls-51" points="199.15 286.39 230.07 316.61 272.8 275.2 240.69 243.76 199.15 286.39"/><polygon class="cls-17" points="271.36 273.79 228.63 315.2 222.2 308.92 265.16 267.72 271.36 273.79"/><polygon class="cls-17" points="234.65 249.96 236.93 247.61 268.73 279.14 266.38 281.42 234.65 249.96"/><path class="cls-51" d="M310,294.19l6.43-1.59a1.18,1.18,0,0,1,1.44,1.34L315.7,306.7a1.17,1.17,0,0,1-1.73.83l-5.46-3.09Z" transform="translate(0 0)"/><path class="cls-17" d="M316.63,301.19l-.93,5.51a1.17,1.17,0,0,1-1.73.83l-5.46-3.09.62-4.32Z" transform="translate(0 0)"/><path class="cls-50" d="M147.16,128.13c.16.29.3.59.47.88a47,47,0,0,0,5.33,7.63c1.27,1.38,3.46,2.63,4.5,4a16.68,16.68,0,0,0,1.34,1.56c-1.81,4.06-6.49,14.76-7.28,19.19,0,0-13.35-4.35-16.93-11.07,0,0,9.41-13.73,12.57-22.2" transform="translate(0 0)"/><path class="cls-49" d="M148.78,152.67a20.33,20.33,0,0,0-3.63-11.79,32.41,32.41,0,0,0-2.66-3.23,70.71,70.71,0,0,0,4.67-9.52c.16.29.3.59.47.88a47,47,0,0,0,5.33,7.63c1.27,1.38,3.46,2.63,4.5,4a16.68,16.68,0,0,0,1.34,1.56c-1.81,4.06-6.49,14.76-7.28,19.19a55.53,55.53,0,0,1-5.22-2.09,10.5,10.5,0,0,0,2.48-6.64" transform="translate(0 0)"/><path class="cls-47" d="M145.63,368.5s-.72,13.95,1.31,16,29.65,5.09,32.24,2.74,1.52-6.74-4.3-8.86c-6.23-2.27-9.49-.78-13.35-2.76s-2.31-8.18-2.31-8.18Z" transform="translate(0 0)"/><path class="cls-47" d="M78,367.46s-4,13.18-2.16,15.44,29.54,8.31,32.34,6.22,2.16-6.56-3.42-9.23c-6-2.86-9.37-1.69-13-4s-1.51-8.38-1.51-8.38Z" transform="translate(0 0)"/><path class="cls-43" d="M80.76,292.42a417.47,417.47,0,0,1,4.39-77.73c4.63.09,9.27.42,13.92,2.43,8.55,3.71,17.14,7.25,25.72,10.81-6.65,14.43-20.94,61.41-22.59,71.22-2,12.2-11.09,73.41-11.09,73.41l-15.76-.66c.07-10,5.53-76.13,5.41-79.48" transform="translate(0 0)"/><path class="cls-52" d="M111.05,222.43a142.17,142.17,0,0,0,13.82,5.33c-6.53,14.16-20.66,60.77-22.6,71.07-2.28-6.48-11.2-29.51-15.52-46.67a92,92,0,0,1-1.93-35.1.68.68,0,0,0,0-.14c8.64.44,17,1.22,26.21,5.51" transform="translate(0 0)"/><path class="cls-43" d="M99.52,220.52c6,1.92,17,4.62,25.27,7.41,6,14.39,22.18,55.86,25.2,71.06,4.17,21,11.14,72.18,11.14,72.18l-17.77,2.34s-17.85-72.57-20.4-77.2c-8.41-15.3-17.61-27.37-22.89-36.88-12.76-23-13.56-34.25-15.28-42.35,4.69,1.24,9.68,1.84,14.73,3.44" transform="translate(0 0)"/><path class="cls-45" d="M130.94,156.66c6.84-3.28,15.06-.63,19.33,5.64,7,10.27,20.07,29.33,24.49,34.85,6.14,7.68,34.88,37.3,34.88,37.3l-7.46,8.33s-37.73-29.11-42.56-35.28-34.45-35.58-33.79-44.36c.23-3.07,2.34-5.15,5.11-6.48" transform="translate(0 0)"/><g class="cls-53"><g class="cls-54"><path class="cls-55" d="M130.94,156.66c6.84-3.28,15.06-.63,19.33,5.64,7,10.27,20.07,29.33,24.49,34.85,6.14,7.68,34.88,37.3,34.88,37.3l-7.46,8.33s-37.73-29.11-42.56-35.28-34.45-35.58-33.79-44.36c.23-3.07,2.34-5.15,5.11-6.48" transform="translate(0 0)"/></g></g><path class="cls-45" d="M131,238.47a123.52,123.52,0,0,1-28.16-5.95c-10.2-3.62-18.91-9.59-20.25-14,0,0,17.23-42,28.78-56.17s24.72-14.17,24.72-14.17,8.34,8.1,16.35,10c0,0-8,31.27-11.74,43.62s-9.7,36.73-9.7,36.73" transform="translate(0 0)"/><g class="cls-53"><g class="cls-56"><path class="cls-55" d="M128.71,190.69c0-5.65-.94-14.57,1.6-21.05.66.56,1.35,1.11,2,1.72,3.69,3.62,7.32,7.49,12.07,9.71a10.27,10.27,0,0,0,1.9.61c-2,7.58-4.13,15.25-5.58,20.06-3.73,12.36-9.7,36.73-9.7,36.73s-4-.3-9.85-1.3c6.65-13.46,7.52-30.85,7.6-46.48" transform="translate(0 0)"/></g></g><path class="cls-50" d="M148.67,109s11.52-7.68,18.1-3.19,10.31,8.23,9.65,11.41-3.45,11.38-3.29,15.11,1.83,9.5,1,10.67-5-.73-5.49-.36-7.89,8-9.87,8-12.07-12.87-11.78-18S144,115.59,148.67,109" transform="translate(0 0)"/><path class="cls-47" d="M162.16,118.15c.88,2.41,4.28,6.65,13.5,7.64s15.9-17.44,0-25.23-18.43-2-21.95-2.42-6.64-.12-9.71,2.22c-5.31,4-9.21,10.3-5.8,20.82s8.89,12.39,8.89,12.39c1.4-1.73,3.12-5,2-7a12.22,12.22,0,0,1-1.76-2.8c-1-2.68,2.47-5.92,5.76-3.29,1.55,1.24.62,4.7,1,6.37s1.21,1.91,1.92,2c1.37.21,4.14-2.73,3.8-7.7-.22-3.22,1.46-5.49,2.34-3.07" transform="translate(0 0)"/><path class="cls-50" d="M203.25,241.28a9.63,9.63,0,0,1,1.7.55,7.28,7.28,0,0,0,3.78,1c2,.06,5,0,6.65,1,1,.6,6.45,4.54,3.92,6.42-.34.25-1.3.47-1.48.3l-2-1.86a15.87,15.87,0,0,1,1.34,1.36,4.21,4.21,0,0,1,.59,1c.12.66-.85,1.56-1.46,1.53s-.79-.73-1.13-1.16l0,0c.28.5,1.1,1.12,0,2.17s-1.29.08-1.84-.32a4.53,4.53,0,0,1-.55-.53,15.28,15.28,0,0,1,1,1.21c.36.74-1.61,1.92-2.68,1.3-.65-.37-1.88-2.05-2.32-2.1a8.52,8.52,0,0,1-1.47-.43,9.07,9.07,0,0,1-3.78-2.52c-.46-.49-1.41-1.41-1.85-1.95A13.74,13.74,0,0,1,200,246a8.91,8.91,0,0,0,3.28-4.67" transform="translate(0 0)"/><path class="cls-45" d="M200.34,249.86l7.57-9.65s-26-25.81-35.66-38.47-18.7-37-27-39.57-17.43,1-14.05,13.46,26.19,31.3,30.58,37.15,33.93,33.64,38.54,37.08" transform="translate(0 0)"/></g></g></g></svg>