<svg xmlns="http://www.w3.org/2000/svg" viewBox="0 0 204.2 130.17"><defs><style>.cls-1{fill:#dadada;}.cls-2{fill:#ededed;}.cls-3{fill:#b2b2b2;}.cls-4{fill:#f6f6f6;}.cls-5{fill:#1d1d1b;opacity:0.1;}.cls-6{fill:#fcd4ca;}.cls-7{fill:#bbeadb;}.cls-8{fill:#110239;}.cls-9{fill:#0186cb;}.cls-10{fill:#0056a3;opacity:0.65;}.cls-11{fill:#e8a393;}.cls-12{fill:#ffd066;}.cls-13{fill:#feac1a;}.cls-14{fill:#83ccc3;}</style></defs><g id="Capa_2" data-name="Capa 2"><g id="Layer_4" data-name="Layer 4"><rect class="cls-1" x="95.82" y="1.68" width="108.38" height="122.74"/><rect class="cls-2" x="111.35" y="17.21" width="77.33" height="91.68"/><path class="cls-2" d="M184.79,21.1V105H115.23V21.1Zm3.88-3.89H111.35v91.68h77.32V17.21Z"/><rect class="cls-2" x="111.35" y="17.21" width="77.33" height="91.68"/><path class="cls-3" d="M184.79,21.1V105H115.23V21.1Zm3.88-3.89H111.35v91.68h77.32V17.21Z"/><rect class="cls-2" x="109.08" y="85.34" width="4.53" height="13.83"/><rect class="cls-2" x="109.08" y="26.94" width="4.53" height="13.83"/><circle class="cls-3" cx="150.01" cy="55" r="19.53"/><circle class="cls-4" cx="150.01" cy="55" r="18.08"/><polygon class="cls-3" points="149.65 38.23 150.43 38.24 150.98 46.19 151.73 46.31 154.63 38.88 155.37 39.11 153.55 46.87 154.24 47.2 159.19 40.96 159.84 41.4 155.81 48.28 156.37 48.8 162.95 44.29 163.43 44.9 157.55 50.29 157.93 50.95 165.55 48.58 165.83 49.31 158.63 52.73 158.79 53.47 166.77 53.45 166.82 54.23 158.93 55.37 158.88 56.13 166.5 58.46 166.33 59.22 158.45 57.99 158.17 58.69 164.77 63.17 164.38 63.84 157.21 60.34 156.74 60.94 161.72 67.16 161.15 67.69 155.34 62.23 154.71 62.66 157.64 70.08 156.94 70.41 152.99 63.48 152.26 63.71 152.88 71.66 152.11 71.77 150.38 63.99 149.62 63.99 147.86 71.76 147.09 71.65 147.73 63.7 147 63.47 143.03 70.39 142.33 70.05 145.29 62.64 144.66 62.21 138.83 67.65 138.26 67.12 143.26 60.91 142.79 60.32 135.61 63.79 135.23 63.12 141.84 58.66 141.56 57.96 133.68 59.16 133.51 58.41 141.14 56.1 141.09 55.34 133.2 54.17 133.26 53.39 141.23 53.44 141.4 52.7 134.21 49.25 134.5 48.53 142.1 50.92 142.48 50.27 136.63 44.85 137.11 44.25 143.68 48.77 144.23 48.26 140.23 41.36 140.88 40.93 145.81 47.19 146.5 46.86 144.71 39.09 145.45 38.86 148.32 46.3 149.07 46.19 149.65 38.23"/><circle class="cls-3" cx="150.01" cy="55" r="10.32"/><circle class="cls-4" cx="150.01" cy="55" r="8.21"/><polygon class="cls-3" points="147.09 36.13 150.01 31.08 152.93 36.13 147.09 36.13"/><rect class="cls-3" x="135.72" y="83.51" width="5.3" height="8.74"/><rect class="cls-3" x="143.48" y="83.51" width="5.3" height="8.74"/><rect class="cls-3" x="151.24" y="83.51" width="5.3" height="8.74"/><rect class="cls-3" x="159" y="83.51" width="5.3" height="8.74"/><rect class="cls-3" x="191.5" y="124.42" width="7.28" height="4.06"/><rect class="cls-3" x="101.24" y="124.42" width="7.28" height="4.06"/><polygon class="cls-5" points="150.01 1.68 95.82 1.68 95.82 124.42 101.24 124.42 101.24 128.48 108.52 128.48 108.52 124.42 150.01 124.42 150.01 1.68"/><path class="cls-6" d="M74.65,55l.16.06a4.75,4.75,0,0,0,1.31.15c.85,0,1.66-.32,2.51-.44.29,0,.6-.05.9-.07a21.38,21.38,0,0,1,2.92.38c1,.23,1.14.25,2.15.53.47.12,1.14.56,1.61.72.7.26.9,1.23.39,1.24a.82.82,0,0,1-.71-.2,17.79,17.79,0,0,0-1.64-.73,5.63,5.63,0,0,1,1.64.73c.33.27.74.37.93.8.07.13.22.19.26.38a.56.56,0,0,1-.1.53.62.62,0,0,1-.68.09,6.4,6.4,0,0,1-1.55-.88,12.23,12.23,0,0,0-1.27-1,9.8,9.8,0,0,1,2,1.61c.24.21.72.6,1,.78a.74.74,0,0,1,0,1.21c-.44.27-1.2-.23-1.5-.5s-1-.76-1.36-1.14a6,6,0,0,0-.53-.49,10.13,10.13,0,0,0-1-.83,23.82,23.82,0,0,1,2.14,2c.28.34.68.84.4,1.25-.5.76-1.25.07-1.58-.23s-.94-.72-1.38-1.15a10.8,10.8,0,0,0-2.24-1.67c-.4-.24-.89-.13-1.32-.29.21.23.57.25.79.46a7.22,7.22,0,0,0,.86.69,1.83,1.83,0,0,1,.81,1c.11.42.16.87-.36,1-.74.15-1.33-.4-1.86-.83a4.07,4.07,0,0,0-2-1.13c-.3,0-.64,0-1,0A13.7,13.7,0,0,1,73,59a1.89,1.89,0,0,1-1.38-.92,6.32,6.32,0,0,1-.65-1.3c-.05-.16-.53-1.49-.67-1.44A24.6,24.6,0,0,0,73,53.89c.43-.19.59.2.81.46A2.67,2.67,0,0,0,74.65,55Z"/><path class="cls-7" d="M74.7,53.56l-3.27,5.73s-15-6.46-18.25-9.41-6.37-10.37-7.38-17.8C45.21,27.75,50,27.41,50,27.41c2.78,4.43,8.2,16.13,8.8,17S74.7,53.56,74.7,53.56Z"/><path class="cls-8" d="M31.47,116.57a17.46,17.46,0,0,0-.88,4.53c0,2,.13,4.06.74,4.56,1.21,1,16.5,1.11,17.74-.3s.41-3.7-2.82-4.49c-3.48-.84-5.13.15-7.32-.68s-.48-3.92-.48-3.92Z"/><path class="cls-8" d="M16.59,124.89a14.56,14.56,0,0,0-3.82-.59c-.94,0-2.44,0-3.13-.74A2.3,2.3,0,0,1,9.49,121c0-.11.79-1.46.93-1.4l-6-2.61S-.39,122.66,0,124.17a16.59,16.59,0,0,0,2.53,2.62,12.35,12.35,0,0,0,7.7,3.26c4.1.23,8.21.16,8.87-.51C20.46,128.21,19.77,125.88,16.59,124.89Z"/><path class="cls-9" d="M19.77,53s-7.69,4.69-6.48,13.92,3.81,21.05,3.18,23.46S2.25,117.6,2.25,117.6l7.64,4.25S26,95.69,26.81,92.88s1.13-19.52,1.13-19.52,9.47,15.94,10,18.15-7.57,26.09-7.57,26.09l8.13,1.48s11-24.53,10.38-28.64c-.39-2.58-10-27.37-10-27.37Z"/><path class="cls-10" d="M37.79,91.11c.21-.42-2.2-11-3.29-12.59-.74-1.1-3.51-6.19-4.37-7.77-1-1.94,1-7.45,1.29-9.68a4.64,4.64,0,0,1-.69-.38C30,65,27.94,73.35,27.94,73.35c1.65,3,8.8,14.86,9.85,17.78h0s0,0,0,0Z"/><path class="cls-6" d="M45.36,17.06s-2.9,6.33-5.19,7.57a7.49,7.49,0,0,0,8.74,3.1s-.23-2.46,1.82-7.86C50.73,19.87,46.74,18.76,45.36,17.06Z"/><path class="cls-11" d="M49.38,23.51l.16,0a37.68,37.68,0,0,1,1.19-3.66s-4-1.11-5.37-2.81c0,0-2.9,6.33-5.19,7.57a7.65,7.65,0,0,0,3.53,2.95A5.79,5.79,0,0,1,49.38,23.51Z"/><path class="cls-6" d="M54.25,5s4.1,1.76,4,3.64.1,1.57-.21,2.8a8.35,8.35,0,0,0-.35,3.7c.22,1.54.16,2.28-1.44,1.89,0,0-.52-.27-.47.37s.24,4.42-3,4.56-8.14-4.76-7.88-6.82S45.76,8.35,48,6.1A5.6,5.6,0,0,1,54.25,5Z"/><path class="cls-8" d="M49.54,3.54s4.58,8.68,11.38,4.75a7.52,7.52,0,0,0-3.28-5.86C54.35.26,50,1.9,49.54,3.54Z"/><path class="cls-8" d="M55.91,17C51.62,15.76,51,14,51.05,10.47s1.12-3.79,1.12-3.79c2.61-.88,2.69-2.16,2.69-2.16,1.94-5.19-9.76-5.85-10-2.29s.28,2.29-2.5,5-1.49,5.28-.26,6.69-1.14,1.19-1.28,3.7c-.09,1.78,1,2.54,2.58,3.09.28.1,1.27-2.31,1.71-3.2a14.41,14.41,0,0,0,3.22,4.27c2.85,2.18,6.16,1.85,7,0A10.21,10.21,0,0,0,55.91,17Z"/><circle class="cls-12" cx="87.32" cy="92.45" r="35.59" transform="matrix(0.08, -1, 1, 0.08, -11.98, 171.89)"/><circle class="cls-13" cx="87.32" cy="92.45" r="29.05"/><path class="cls-12" d="M83.86,77.5c5.83-1.81,12-1.42,14.21,4.23l-9.41,3.76c-.91-2.11-3.28-1.69-4.66-1.14-.86.34-3.66,1.46-3,3.19,1.55,3.87,17.29-7.09,21.67,3.84,2.63,6.57-1.53,11.07-7.66,14.05l3.2,6.81-5.75,2.3L90,107.37c-6.09,1.74-12.63,1.17-15-4.74l9.42-3.76.08.2c1.09,2.58,4.19,1.92,5.67,1.33s4.18-1.79,3.42-3.67c-1.6-4-17.49,6.59-21.72-4-2.45-6.11,1.35-10.35,7-13.2l-3.17-6.88,5.75-2.3Z"/><path class="cls-6" d="M68.21,59.58a3.49,3.49,0,0,0,.66.26,6.75,6.75,0,0,0,1.27.32c.37,0,.78,0,1.16,0A7.3,7.3,0,0,0,73.05,60a22.86,22.86,0,0,1,3.57-.65h.27a12,12,0,0,1,4.44.74c.67.25,1.78.56,1.69,1.49,0,.41-.36.47-.72.46a6.74,6.74,0,0,1-2-.47c-.72-.28-2.08-1-2.08-1a10.66,10.66,0,0,1,1.83.83c.35.24.61.37.88.56s1,.5,1,1,.08.75-.38.93-1.56-.27-2-.55-2.44-1.57-3.06-1.84a21.19,21.19,0,0,1,2.58,1.66A3.24,3.24,0,0,1,80,64a.68.68,0,0,1-.37,1.06,3,3,0,0,1-1.33-.18,8.58,8.58,0,0,1-2.13-1.09,8.68,8.68,0,0,0-1.88-1.2,6.63,6.63,0,0,1,1.45.89,12.13,12.13,0,0,1,1.6,1.3c.19.31.08,1.15-.62,1.13a3.19,3.19,0,0,1-1.13-.29c-.41-.2-.83-.4-1.23-.61-.7-.38-1.08-1-1.92-1a4.38,4.38,0,0,0-1.82.39,6.6,6.6,0,0,1-1.18.47l-.63.1a4.53,4.53,0,0,1-3.7-1.17c-.3-.28-.5-.62-.78-.92s-.9-.68-.91-1,.59-.78.75-.93c.32-.33.56-.7.85-1.06a6.48,6.48,0,0,1,1.08-1.2c.19-.15.18-.15.43-.05s.35.13.52.21C67.45,59.06,67.8,59.36,68.21,59.58Z"/><path class="cls-7" d="M49,26s-5.63,3.48-7.27-2.84c0,0-4.76.25-10.89,8.63S22,44.33,15.67,54.65c.93,1,11.52,12.16,24,9.29,0,0,1.23-2.74,1.78-4,2.36-5.52,8.69-20.6,9.41-25.07C51.9,28.62,49,26,49,26Z"/><path class="cls-14" d="M45.3,42.65c.58-2.88-1.12-18.25-6.4-14.47-3,2.14-3.59,7.3-2.69,12.07A111,111,0,0,0,41.66,59.6C42.88,56.82,45,52,46.81,47.27A4.71,4.71,0,0,1,45.3,42.65Z"/><path class="cls-7" d="M69.07,59.08,65.8,65.21s-18.91-7.56-22-10.46S33,28.94,40.44,26.53s9.29,21.5,10.91,23S69.07,59.08,69.07,59.08Z"/></g></g></svg>