<svg xmlns="http://www.w3.org/2000/svg" viewBox="0 0 233.74 203.53"><defs><style>.cls-1{isolation:isolate;}.cls-2{fill:#110239;}.cls-3{fill:#fcd4ca;}.cls-4{fill:#e8a393;}.cls-5{fill:#f45762;}.cls-6{fill:#c9071e;opacity:0.35;mix-blend-mode:multiply;}.cls-7{fill:#0186cb;}.cls-8{fill:#0056a3;opacity:0.65;}.cls-9{fill:#ffd066;}.cls-10{fill:#feac1a;}</style></defs><g class="cls-1"><g id="Capa_2" data-name="Capa 2"><g id="Layer_4" data-name="Layer 4"><path class="cls-2" d="M115.63,1.37s-6.94-3.36-12.2.44-5,10.81-4.9,15.19-1.31,6.72-4.38,9.79-3.36,5.55-1.75,12,2.87,10-.21,12.91c-3.39,3.15-6.66,11.2.79,17.19s17.61,4.76,24.4,4.39c3.8-.21,9.1-.45,12.09-3.12s5.35-5.6,3.88-9.93c-.58-1.72-1.42-3.35-2-5.09a12.44,12.44,0,0,1-.33-4.74c.1-2.08.88-4,1-6.05a35.49,35.49,0,0,0-.4-6.3,21.36,21.36,0,0,0-1.73-6.19c-1.75-4.1-6.46-6.2-7.47-10.83a29,29,0,0,1-.78-8.18C122,6.63,119.07,2.55,115.63,1.37Z"/><path class="cls-3" d="M105.44,142.81a21.4,21.4,0,0,0,.51,5.72c.66,1.82,5.35,4.62,5.35,4.62s-4.24.82-5.87-.44-5.5-7.86-5.25-8.71,1.43-3.51,1.43-3.51Z"/><path class="cls-3" d="M130.74,142.45a20.91,20.91,0,0,0,.51,5.71c.66,1.83,5.35,4.62,5.35,4.62s-4.25.82-5.88-.44-5.49-7.85-5.24-8.71,1.42-3.51,1.42-3.51Z"/><path class="cls-2" d="M101.15,142.81s-3.56,1.19-2.67,4.31a27.06,27.06,0,0,1,.74,7.12h1s.22-4.45.89-4.3,2.15,4.3,3.64,4.3h8.38s.89-.89,0-1.41-6.57-.3-7.22-1.56S101.15,142.81,101.15,142.81Z"/><path class="cls-2" d="M126.65,142.35s-3.56,1.18-2.67,4.3a27.08,27.08,0,0,1,.74,7.12h1s.22-4.45.89-4.3,2.15,4.3,3.63,4.3h8.39s.89-.89,0-1.41-6.57-.29-7.22-1.55S126.65,142.35,126.65,142.35Z"/><path class="cls-3" d="M107.44,15.22s3.32,12.91,1.42,13.93c0,0,6.77,14,9.76,13.37S120,29.89,120,29.89a5.16,5.16,0,0,1-2.31-1.33c-.57-.51-1.82-1.37-2-2.22a46.35,46.35,0,0,1-.71-6.25Z"/><path class="cls-4" d="M113.11,36.63a7.79,7.79,0,0,1-1.68-5.29,6.64,6.64,0,0,1,4.2-5.6,50.45,50.45,0,0,1-.6-5.65l-7.59-4.87s3.32,12.91,1.42,13.93c0,0,6.77,14,9.76,13.37.78-.17,1.24-1.11,1.51-2.4C117.27,40.64,114.78,38.86,113.11,36.63Z"/><path class="cls-3" d="M75,22.81a8.32,8.32,0,0,1-.8-1.71c-.18-.51-.3-1-.48-1.54a4.16,4.16,0,0,1-.35-1.51,5,5,0,0,1,.19-.93c.1-.39.25-.77.33-1.17s0-.69.1-1A6.2,6.2,0,0,1,74.6,13a6.76,6.76,0,0,1,.89-1.23,5.48,5.48,0,0,1,.52-.56,1.37,1.37,0,0,0,.48-.59.56.56,0,0,0-.41-.77,2.12,2.12,0,0,0-2,.64c-.52.72-.77,1.6-1.35,2.29-1.78,2.12-3.45-.37-5.52-1.27a12.49,12.49,0,0,1-2-1.29c-.37-.28-2-1.79-2.71-1.4-.56.29.53,1.56,1,1.87.21.13,2,1.57,2.22,1.64a11.09,11.09,0,0,1-3-1.85c-.79-.61-1.55-1.22-2-.87-1.32,1.09,3.86,3.56,4.26,3.79-.43,0-4.48-2.84-4.87-1.78-.21.58.63,1.15,1.32,1.53.87.47,2.31.8,2.64,1.05-.61.21-3.3-1.61-3.3-.5,0,.73,1.67,1.28,2.3,1.47s2.54,1.49,3.14,1.77c2,1,2.83.85,3.62,2.05.51.76,1.41,4.8,2.13,6.34Z"/><path class="cls-3" d="M144.76,29.1a7.8,7.8,0,0,0,.81-1.7c.17-.51.3-1,.48-1.55a4,4,0,0,0,.34-1.51,4.83,4.83,0,0,0-.18-.92c-.11-.39-.25-.77-.33-1.17s0-.7-.11-1.05a6.36,6.36,0,0,0-.61-1.94,7.05,7.05,0,0,0-.89-1.22,3.52,3.52,0,0,0-.53-.56,1.47,1.47,0,0,1-.48-.6.56.56,0,0,1,.41-.76,2.12,2.12,0,0,1,2,.64c.52.72.77,1.6,1.35,2.29,1.78,2.12,3.44-.38,5.52-1.27a13.12,13.12,0,0,0,2-1.29c.37-.28,2-1.8,2.72-1.4.55.29-.53,1.56-1.06,1.87-.2.12-2,1.57-2.21,1.64a11.41,11.41,0,0,0,3-1.85c.78-.62,1.55-1.22,2-.87,1.32,1.08-3.85,3.56-4.26,3.78.43,0,4.49-2.83,4.87-1.78.21.58-.63,1.16-1.32,1.53-.86.47-2.31.81-2.63,1.06.61.21,3.29-1.62,3.29-.5,0,.73-1.66,1.27-2.29,1.46s-2.55,1.49-3.15,1.78c-2,.95-2.83.84-3.62,2-.5.77-1.4,4.81-2.13,6.34Z"/><path class="cls-5" d="M145,26c-1.78,5.2-5.61,16.64-6.87,16A42.81,42.81,0,0,1,127,32.27c-2.35-2.87-4.53-3-4.53-3l3.44,11.86s11.76,10.23,14.39,8.77c2.07-1.15,7.16-15.65,9-21.66Z"/><path class="cls-6" d="M132.61,43.89c-2.11-2.74-3.41-5-5.56-7.75a39.14,39.14,0,0,1-2.9-4.31c-.48-.55-1-1.1-1.41-1.68l3.19,11s11.48,10,14.28,8.79C137.8,48.37,134.33,46.12,132.61,43.89Z"/><path class="cls-5" d="M122.49,29.27l-4.76-.71s2.43,10.31.6,10.23-8.93-10.91-8.93-10.91a59.73,59.73,0,0,0-7.11,3.54s1,8.32.41,9.42c0,0,1.89,5.33,3.14,7.82S107.25,65,107.25,65a22,22,0,0,0,9.91,2.55c5.48,0,7.13-2.29,7.13-2.29s0-15.82.69-17.18,3.88-6.5,1.1-11.46C124.61,34,122.49,29.27,122.49,29.27Z"/><path class="cls-6" d="M109,52.84c-1.94-3.55-1.63-7.7-2.62-11.82-.67-2.83-2.47-5.71-4-8.07.25,2.46.66,7.09.24,7.89,0,0,1.89,5.33,3.14,7.82S107.25,65,107.25,65A22.29,22.29,0,0,0,115,67.37,15.81,15.81,0,0,1,109,52.84Z"/><path class="cls-6" d="M107.72,43.58s4,2.13,5.78,2.11c4.79-.06,5.67-3.15,5.67-3.15s2.5,3,4.73,2.79a2.63,2.63,0,0,0,2.55-1.72s-.17,4.6-4,5a4.55,4.55,0,0,1-3-.5,3.4,3.4,0,0,0-3.29,0,6.65,6.65,0,0,1-2.36.6A5.44,5.44,0,0,1,107.72,43.58Z"/><path class="cls-5" d="M104.38,30.83s-18.63,5.33-20.32,4.89-9.93-17.53-9.93-17.53l-4.68,1.9s6.94,21.38,10.16,22.45,23.09-1.7,23.09-1.7S106.2,36.16,104.38,30.83Z"/><path class="cls-3" d="M110.8,5.24s4.67-1.86,6.86,1.1,1.29,5.35,1.76,6.82.25,8.82-1.65,9.8c-1.64.84-5.93.18-8.34-2.18-2.06-2-2.61-1.18-4.07-3.37C101.69,11.89,106.93,4.74,110.8,5.24Z"/><path class="cls-2" d="M113.1,3.57s.69,7.18,6.76,6.68C119.86,10.25,119.63.48,113.1,3.57Z"/><path class="cls-2" d="M108.15,21.46a9.71,9.71,0,0,0,.37-1.48c-.59-.67-1.28-1.64-1.66-1.69-1-.16-2.71-2.25-1.6-3.39s2.27-.11,2.7.8a1,1,0,0,0,.47.39c.19-.49.85-4.69,2.9-5.3,7-2.08,2.3-7.62,2.3-7.62C102.07,1,101.37,16.78,104.25,19.91,105.82,21.61,107.21,21.71,108.15,21.46Z"/><path class="cls-4" d="M105.81,14.9A1.55,1.55,0,0,1,107.23,16c.32,1-.49,2.09-.93,1.37s0-1,0-1.42A1.24,1.24,0,0,0,105.81,14.9Z"/><path class="cls-7" d="M124.29,64.87s-10,3.51-17.21,0c0,0-4.38,3.68-5.08,11.19a41.12,41.12,0,0,0,.3,8.43c.5,4.18,1.72,15.13,1,21.88-1.12,9.89-4.19,36.56-4.19,36.56L106,144s6.32-32.61,7.07-36.89,3.15-21.63,3.15-21.63,4.29,13.42,5.39,19.92c.17,1,3.22,37.77,3.22,37.77l6.67,0s-.37-40.83-.37-38.69C131.08,105.31,129.27,76.89,124.29,64.87Z"/><path class="cls-8" d="M120.82,90.86A30.69,30.69,0,0,0,115.33,80c.32,1.86.6,3.72.82,5.6l0-.09s3.67,11.49,5.09,18.35C121.1,96.43,121.93,94.21,120.82,90.86Z"/><rect class="cls-9" x="159.59" y="191.3" width="70.98" height="12.23"/><rect class="cls-10" x="163.56" y="191.3" width="3.57" height="12.23"/><rect class="cls-10" x="171.06" y="191.3" width="3.57" height="12.23"/><rect class="cls-10" x="178.56" y="191.3" width="3.57" height="12.23"/><rect class="cls-10" x="186.07" y="191.3" width="3.57" height="12.23"/><rect class="cls-10" x="193.57" y="191.3" width="3.57" height="12.23"/><rect class="cls-10" x="201.07" y="191.3" width="3.57" height="12.23"/><rect class="cls-10" x="208.58" y="191.3" width="3.57" height="12.23"/><rect class="cls-10" x="216.08" y="191.3" width="3.57" height="12.23"/><rect class="cls-10" x="223.58" y="191.3" width="3.57" height="12.23"/><rect class="cls-9" x="150.58" y="179.07" width="70.98" height="12.23"/><rect class="cls-10" x="154.55" y="179.07" width="3.57" height="12.23"/><rect class="cls-10" x="162.05" y="179.07" width="3.57" height="12.23"/><rect class="cls-10" x="169.55" y="179.07" width="3.57" height="12.23"/><rect class="cls-10" x="177.05" y="179.07" width="3.57" height="12.23"/><rect class="cls-10" x="184.56" y="179.07" width="3.57" height="12.23"/><rect class="cls-10" x="192.06" y="179.07" width="3.57" height="12.23"/><rect class="cls-10" x="199.56" y="179.07" width="3.57" height="12.23"/><rect class="cls-10" x="207.07" y="179.07" width="3.57" height="12.23"/><rect class="cls-10" x="214.57" y="179.07" width="3.57" height="12.23"/><rect class="cls-9" x="162.76" y="166.85" width="70.98" height="12.23"/><rect class="cls-10" x="166.73" y="166.85" width="3.57" height="12.23"/><rect class="cls-10" x="174.24" y="166.85" width="3.57" height="12.23"/><rect class="cls-10" x="181.74" y="166.85" width="3.57" height="12.23"/><rect class="cls-10" x="189.24" y="166.85" width="3.57" height="12.23"/><rect class="cls-10" x="196.75" y="166.85" width="3.57" height="12.23"/><rect class="cls-10" x="204.25" y="166.85" width="3.57" height="12.23"/><rect class="cls-10" x="211.75" y="166.85" width="3.57" height="12.23"/><rect class="cls-10" x="219.25" y="166.85" width="3.57" height="12.23"/><rect class="cls-10" x="226.76" y="166.85" width="3.57" height="12.23"/><rect class="cls-9" x="156.57" y="154.62" width="70.98" height="12.23"/><rect class="cls-10" x="160.54" y="154.62" width="3.57" height="12.23"/><rect class="cls-10" x="168.04" y="154.62" width="3.57" height="12.23"/><rect class="cls-10" x="175.55" y="154.62" width="3.57" height="12.23"/><rect class="cls-10" x="183.05" y="154.62" width="3.57" height="12.23"/><rect class="cls-10" x="190.55" y="154.62" width="3.57" height="12.23"/><rect class="cls-10" x="198.06" y="154.62" width="3.57" height="12.23"/><rect class="cls-10" x="205.56" y="154.62" width="3.57" height="12.23"/><rect class="cls-10" x="213.06" y="154.62" width="3.57" height="12.23"/><rect class="cls-10" x="220.56" y="154.62" width="3.57" height="12.23"/><rect class="cls-9" x="147.56" y="142.39" width="70.98" height="12.23"/><rect class="cls-10" x="151.53" y="142.39" width="3.57" height="12.23"/><rect class="cls-10" x="159.03" y="142.39" width="3.57" height="12.23"/><rect class="cls-10" x="166.53" y="142.39" width="3.57" height="12.23"/><rect class="cls-10" x="174.04" y="142.39" width="3.57" height="12.23"/><rect class="cls-10" x="181.54" y="142.39" width="3.57" height="12.23"/><rect class="cls-10" x="189.04" y="142.39" width="3.57" height="12.23"/><rect class="cls-10" x="196.55" y="142.39" width="3.57" height="12.23"/><rect class="cls-10" x="204.05" y="142.39" width="3.57" height="12.23"/><rect class="cls-10" x="211.55" y="142.39" width="3.57" height="12.23"/><rect class="cls-9" x="157.13" y="130.16" width="70.98" height="12.23"/><rect class="cls-10" x="161.1" y="130.16" width="3.57" height="12.23"/><rect class="cls-10" x="168.6" y="130.16" width="3.57" height="12.23"/><rect class="cls-10" x="176.1" y="130.16" width="3.57" height="12.23"/><rect class="cls-10" x="183.61" y="130.16" width="3.57" height="12.23"/><rect class="cls-10" x="191.11" y="130.16" width="3.57" height="12.23"/><rect class="cls-10" x="198.61" y="130.16" width="3.57" height="12.23"/><rect class="cls-10" x="206.11" y="130.16" width="3.57" height="12.23"/><rect class="cls-10" x="213.62" y="130.16" width="3.57" height="12.23"/><rect class="cls-10" x="221.12" y="130.16" width="3.57" height="12.23"/><rect class="cls-9" x="77.83" y="191.3" width="67.25" height="12.23"/><rect class="cls-10" x="137.94" y="191.3" width="3.39" height="12.23"/><rect class="cls-10" x="130.83" y="191.3" width="3.39" height="12.23"/><rect class="cls-10" x="123.72" y="191.3" width="3.39" height="12.23"/><rect class="cls-10" x="116.61" y="191.3" width="3.39" height="12.23"/><rect class="cls-10" x="109.5" y="191.3" width="3.39" height="12.23"/><rect class="cls-10" x="102.39" y="191.3" width="3.39" height="12.23"/><rect class="cls-10" x="95.28" y="191.3" width="3.39" height="12.23"/><rect class="cls-10" x="88.17" y="191.3" width="3.39" height="12.23"/><rect class="cls-10" x="81.07" y="191.3" width="3.39" height="12.23"/><rect class="cls-9" x="86.37" y="179.07" width="67.25" height="12.23"/><rect class="cls-10" x="146.48" y="179.07" width="3.39" height="12.23"/><rect class="cls-10" x="139.37" y="179.07" width="3.39" height="12.23"/><rect class="cls-10" x="132.26" y="179.07" width="3.39" height="12.23"/><rect class="cls-10" x="125.15" y="179.07" width="3.39" height="12.23"/><rect class="cls-10" x="118.04" y="179.07" width="3.39" height="12.23"/><rect class="cls-10" x="110.93" y="179.07" width="3.39" height="12.23"/><rect class="cls-10" x="103.82" y="179.07" width="3.39" height="12.23"/><rect class="cls-10" x="96.71" y="179.07" width="3.39" height="12.23"/><rect class="cls-10" x="89.6" y="179.07" width="3.39" height="12.23"/><rect class="cls-9" x="74.82" y="166.85" width="67.25" height="12.23"/><rect class="cls-10" x="134.93" y="166.85" width="3.39" height="12.23"/><rect class="cls-10" x="127.82" y="166.85" width="3.39" height="12.23"/><rect class="cls-10" x="120.71" y="166.85" width="3.39" height="12.23"/><rect class="cls-10" x="113.6" y="166.85" width="3.39" height="12.23"/><rect class="cls-10" x="106.49" y="166.85" width="3.39" height="12.23"/><rect class="cls-10" x="99.38" y="166.85" width="3.39" height="12.23"/><rect class="cls-10" x="92.27" y="166.85" width="3.39" height="12.23"/><rect class="cls-10" x="85.17" y="166.85" width="3.39" height="12.23"/><rect class="cls-10" x="78.06" y="166.85" width="3.39" height="12.23"/><rect class="cls-9" x="80.69" y="154.62" width="67.25" height="12.23"/><rect class="cls-10" x="140.8" y="154.62" width="3.39" height="12.23"/><rect class="cls-10" x="133.69" y="154.62" width="3.39" height="12.23"/><rect class="cls-10" x="126.58" y="154.62" width="3.39" height="12.23"/><rect class="cls-10" x="119.47" y="154.62" width="3.39" height="12.23"/><rect class="cls-10" x="112.36" y="154.62" width="3.39" height="12.23"/><rect class="cls-10" x="105.25" y="154.62" width="3.39" height="12.23"/><rect class="cls-10" x="98.14" y="154.62" width="3.39" height="12.23"/><rect class="cls-10" x="91.03" y="154.62" width="3.39" height="12.23"/><rect class="cls-10" x="83.92" y="154.62" width="3.39" height="12.23"/><rect class="cls-9" y="191.3" width="67.25" height="12.23"/><rect class="cls-10" x="60.11" y="191.3" width="3.39" height="12.23"/><rect class="cls-10" x="53" y="191.3" width="3.39" height="12.23"/><rect class="cls-10" x="45.89" y="191.3" width="3.39" height="12.23"/><rect class="cls-10" x="38.78" y="191.3" width="3.39" height="12.23"/><rect class="cls-10" x="31.67" y="191.3" width="3.39" height="12.23"/><rect class="cls-10" x="24.56" y="191.3" width="3.39" height="12.23"/><rect class="cls-10" x="17.45" y="191.3" width="3.39" height="12.23"/><rect class="cls-10" x="10.34" y="191.3" width="3.39" height="12.23"/><rect class="cls-10" x="3.23" y="191.3" width="3.39" height="12.23"/><rect class="cls-9" x="8.54" y="179.07" width="67.25" height="12.23"/><rect class="cls-10" x="68.64" y="179.07" width="3.39" height="12.23"/><rect class="cls-10" x="61.54" y="179.07" width="3.39" height="12.23"/><rect class="cls-10" x="54.43" y="179.07" width="3.39" height="12.23"/><rect class="cls-10" x="47.32" y="179.07" width="3.39" height="12.23"/><rect class="cls-10" x="40.21" y="179.07" width="3.39" height="12.23"/><rect class="cls-10" x="33.1" y="179.07" width="3.39" height="12.23"/><rect class="cls-10" x="25.99" y="179.07" width="3.39" height="12.23"/><rect class="cls-10" x="18.88" y="179.07" width="3.39" height="12.23"/><rect class="cls-10" x="11.77" y="179.07" width="3.39" height="12.23"/></g></g></g></svg>