<svg xmlns="http://www.w3.org/2000/svg" viewBox="0 0 193.73 186.05"><defs><style>.cls-1{isolation:isolate;}.cls-2{fill:#dadada;}.cls-3{fill:#ededed;}.cls-4{fill:#b2b2b2;}.cls-5{fill:#f6f6f6;}.cls-6{fill:#1d1d1b;}.cls-28,.cls-6{opacity:0.1;}.cls-7{fill:#edb485;}.cls-8{fill:#fff;}.cls-9{fill:#bbeadb;}.cls-10{fill:#1a252e;}.cls-11{fill:#fff7dc;}.cls-12{fill:#2e3133;}.cls-13{fill:#424549;}.cls-14{fill:#d69b6b;}.cls-15{fill:#edd6b6;}.cls-16{fill:#2a2626;}.cls-17,.cls-21,.cls-23,.cls-32{opacity:0.3;}.cls-17,.cls-23{mix-blend-mode:multiply;}.cls-18,.cls-21{fill:#222e38;}.cls-19{fill:#2b3e4f;opacity:0.4;}.cls-20{fill:#e1e7e8;}.cls-22,.cls-23{fill:#f3ad7a;}.cls-24{fill:#ffcd9c;}.cls-25{fill:#fec08a;}.cls-26{fill:#713815;}.cls-27{fill:#52290f;}.cls-28{fill:#f48fb7;}.cls-29{fill:#f5a505;}.cls-30{fill:#ffca00;}.cls-31{fill:#feac1a;}.cls-32{mix-blend-mode:screen;}</style></defs><g class="cls-1"><g id="Capa_2" data-name="Capa 2"><g id="Layer_4" data-name="Layer 4"><rect class="cls-2" y="24.62" width="127.3" height="144.16"/><rect class="cls-3" x="18.24" y="42.86" width="90.82" height="107.68"/><path class="cls-3" d="M104.5,47.42V146H22.8V47.42Zm4.56-4.56H18.24V150.54h90.82V42.86Z"/><rect class="cls-3" x="18.24" y="42.86" width="90.82" height="107.68"/><path class="cls-4" d="M104.5,47.42V146H22.8V47.42Zm4.56-4.56H18.24V150.54h90.82V42.86Z"/><rect class="cls-3" x="15.58" y="122.87" width="5.32" height="16.24"/><rect class="cls-3" x="15.58" y="54.28" width="5.32" height="16.24"/><circle class="cls-4" cx="63.65" cy="87.24" r="22.94"/><circle class="cls-5" cx="63.65" cy="87.24" r="21.23"/><polygon class="cls-4" points="63.23 67.55 64.14 67.55 64.79 76.9 65.67 77.03 69.07 68.31 69.94 68.58 67.81 77.69 68.61 78.08 74.44 70.75 75.19 71.26 70.46 79.35 71.12 79.96 78.84 74.66 79.41 75.38 72.51 81.71 72.95 82.48 81.9 79.7 82.23 80.56 73.77 84.57 73.97 85.44 83.33 85.42 83.4 86.33 74.13 87.68 74.06 88.57 83.02 91.31 82.81 92.2 73.56 90.75 73.23 91.58 80.98 96.84 80.53 97.63 72.11 93.52 71.55 94.22 77.41 101.53 76.74 102.14 69.91 95.74 69.17 96.24 72.61 104.95 71.79 105.34 67.15 97.21 66.3 97.47 67.02 106.81 66.11 106.94 64.08 97.8 63.19 97.8 61.12 106.93 60.22 106.79 60.97 97.46 60.12 97.19 55.45 105.31 54.63 104.92 58.1 96.22 57.37 95.72 50.51 102.1 49.85 101.48 55.73 94.19 55.17 93.49 46.74 97.57 46.29 96.78 54.05 91.55 53.73 90.72 44.47 92.13 44.27 91.24 53.23 88.53 53.17 87.64 43.91 86.26 43.98 85.36 53.34 85.41 53.54 84.54 45.09 80.49 45.43 79.64 54.36 82.45 54.81 81.68 47.93 75.33 48.5 74.61 56.21 79.93 56.87 79.33 52.16 71.22 52.92 70.71 58.72 78.07 59.52 77.68 57.42 68.55 58.29 68.29 61.66 77.02 62.55 76.89 63.23 67.55"/><circle class="cls-4" cx="63.65" cy="87.24" r="12.12"/><circle class="cls-5" cx="63.65" cy="87.24" r="9.65"/><polygon class="cls-4" points="60.22 65.08 63.65 59.14 67.08 65.08 60.22 65.08"/><rect class="cls-4" x="46.86" y="120.73" width="6.22" height="10.26"/><rect class="cls-4" x="55.98" y="120.73" width="6.22" height="10.26"/><rect class="cls-4" x="65.1" y="120.73" width="6.22" height="10.26"/><rect class="cls-4" x="74.21" y="120.73" width="6.22" height="10.26"/><rect class="cls-4" x="112.39" y="168.78" width="8.55" height="4.77"/><rect class="cls-4" x="6.37" y="168.78" width="8.55" height="4.77"/><polygon class="cls-6" points="63.65 24.62 0 24.62 0 168.78 6.37 168.78 6.37 173.55 14.92 173.55 14.92 168.78 63.65 168.78 63.65 24.62"/><rect class="cls-7" x="169.14" y="93.99" width="3.25" height="5.63" transform="translate(-23.88 122.22) rotate(-36.99)"/><path class="cls-7" d="M172.85,101.62a.82.82,0,0,0-1.1-.37h0a.82.82,0,0,0-.37,1.11l2.2,4.43a.83.83,0,0,0,1.11.37h0a.83.83,0,0,0,.37-1.11Z"/><path class="cls-7" d="M176.09,99.45a.83.83,0,0,0-1.15-.18h0a.83.83,0,0,0-.19,1.15l2.91,4a.83.83,0,0,0,1.15.18h0a.83.83,0,0,0,.19-1.15Z"/><path class="cls-7" d="M178.62,98.49a.91.91,0,0,1-.94.86l-4-.2a2.85,2.85,0,0,1-.42-1.29c0-.26.63-.69.63-.69l3.87.38A.9.9,0,0,1,178.62,98.49Z"/><path class="cls-7" d="M174.89,101.15a.83.83,0,0,0-1.14-.26h0a.83.83,0,0,0-.27,1.13l2.62,4.21a.82.82,0,0,0,1.13.27h0a.83.83,0,0,0,.27-1.14Z"/><path class="cls-7" d="M172.29,97.61h2.33a1.63,1.63,0,0,1,1.63,1.63v2.33a1.63,1.63,0,0,1-1.63,1.63h-2.33a1.63,1.63,0,0,1-1.63-1.63V99.25a1.64,1.64,0,0,1,1.64-1.64Z" transform="translate(-26.87 106.52) rotate(-31.81)"/><path class="cls-8" d="M167.22,97.27c.8,1.27,1.48,2.27,1.48,2.27l4.77-4s-.89-1.33-1.87-2.57Z"/><path class="cls-9" d="M173.19,94.46a116,116,0,0,1-22.13-55.57,3.67,3.67,0,0,0-3.78-3.36,3.52,3.52,0,0,0-3.19,4,122.83,122.83,0,0,0,23.77,59.56C169.6,97.5,171.36,96.28,173.19,94.46Z"/><g id="Legs"><path class="cls-10" d="M148.09,95.72V91.89a13,13,0,0,0-13-13h-.23a13,13,0,0,0-13,13l-.07,7.45Z"/></g><rect class="cls-7" x="173.18" y="162.66" width="5.5" height="4.62" transform="translate(-45.14 68.55) rotate(-19.59)"/><rect class="cls-11" x="174.04" y="165.41" width="6.46" height="6.7" transform="translate(-46.34 69.24) rotate(-19.6)"/><path class="cls-12" d="M175,175.28a1.2,1.2,0,0,0,1.52.76l6.71-2.21,10.53-3.48-.5-1.5-18.38,6.07Z"/><path class="cls-13" d="M187.93,166.84l-2.22.73c-.25.08-.48.14-.69.19l-.24,0a2,2,0,0,1-1.08-.08.72.72,0,0,1-.21-.12,1.26,1.26,0,0,1-.47-.68l-.06-.18a2.38,2.38,0,0,0-4.58,1.27h0l0,.15a2.26,2.26,0,1,1-4.29,1.41l0-.13a1.2,1.2,0,0,0-.56,1.43l.76,2.32h0l.58,1.76,18.39-6.06C192.48,166.58,190.24,166.07,187.93,166.84Z"/><rect class="cls-14" x="122.06" y="168.82" width="4.05" height="4.82" transform="translate(-78.15 233.03) rotate(-71.06)"/><rect class="cls-15" x="120" y="171.73" width="5.87" height="5.66" transform="translate(-82 234.44) rotate(-71.13)"/><path class="cls-12" d="M117.45,178.56a1,1,0,0,0,.57,1.37l5.72,2.38,9,3.74.54-1.29-15.67-6.51Z"/><path class="cls-12" d="M130.89,180.39,129,179.6a5.15,5.15,0,0,1-.57-.27l-.19-.11a1.7,1.7,0,0,1-.67-.67,1,1,0,0,1-.07-.2,1.13,1.13,0,0,1,.08-.72l0-.08h0l0-.07a2.08,2.08,0,0,0-3.76-1.79h0l-.06.13a2,2,0,1,1-3.65-1.52l0-.12a1.08,1.08,0,0,0-1.2.63l-.82,2-.62,1.51,15.66,6.51C134.05,182.83,132.86,181.21,130.89,180.39Z"/><path class="cls-16" d="M148.09,95.72c-3.07,25.87-10.34,53.63-19.55,78-2.92-1-7.16-3.15-10.08-4.17,6.91-23.4,14.6-49.12,17-73.83Z"/><g class="cls-17"><path class="cls-18" d="M136.9,117.79c.9-2.69,4.49.68,6.73,4.55,1.9-9,3.42-17.9,4.46-26.62H135.45c-2.39,24.71-10.08,50.43-17,73.83,2.92,1,7.16,3.15,10.08,4.17l.33-.9C116.62,159.35,132.82,135.11,136.9,117.79Z"/></g><path class="cls-16" d="M143.44,101a68.2,68.2,0,0,0-7.15-5.31H121.75v5.69a4.65,4.65,0,0,0,2.57,4.16l.3.14c23.86,11,37.37,35.42,45.68,60.36,2.95-.94,7.79-2.63,10.74-3.57C174.12,139.77,161.47,116.21,143.44,101Z"/><path class="cls-19" d="M174,159.66c-17.94-21.53-25.12-45.45-50.24-59.81V95.68h-2v5.69a4.65,4.65,0,0,0,2.57,4.16l.3.14c23.86,11,37.37,35.42,45.68,60.36,2.95-.94,7.79-2.63,10.74-3.57q-.71-2.31-1.5-4.64C177.42,158.83,175.46,160.4,174,159.66Z"/><g id="Body"><path class="cls-20" d="M149.64,37.82V92.54a2,2,0,0,1-.12.74,1.92,1.92,0,0,1-.29.57v0a2,2,0,0,1-1.26.8,1,1,0,0,1-.39,0H122.16a1.27,1.27,0,0,1-.34,0,2.35,2.35,0,0,1-.6-.2,2.23,2.23,0,0,1-1.12-1.95V37.82a2,2,0,0,1,.05-.44,2.18,2.18,0,0,1,.73-1.28,2,2,0,0,1,1.28-.48l1-.18L131.35,34l.62-.11,3.56-.62.05,0,5.14,1,.78.16,2.38.46,2.74.53,1,.18a3.75,3.75,0,0,1,1.08.53,2,2,0,0,1,.86,1.32A2.08,2.08,0,0,1,149.64,37.82Z"/></g><path class="cls-9" d="M149.64,37.82V92.54a2,2,0,0,1-.12.74,1.92,1.92,0,0,1-.29.57v0a2,2,0,0,1-1.26.8,1,1,0,0,1-.39,0H122.16a1.27,1.27,0,0,1-.34,0,2.35,2.35,0,0,1-.6-.2,2.23,2.23,0,0,1-1.12-1.95V37.82a2,2,0,0,1,.05-.44,2.18,2.18,0,0,1,.73-1.28,2,2,0,0,1,1.28-.48l1-.18L131.35,34l4.93,29.59,5.22-29.2,2.38.46,2.74.53,1,.18a3.75,3.75,0,0,1,1.08.53,2,2,0,0,1,.86,1.32A2.08,2.08,0,0,1,149.64,37.82Z"/><path class="cls-21" d="M149.61,37.38a2,2,0,0,0-.86-1.32,3.41,3.41,0,0,0-1-.5,1.8,1.8,0,0,1,0,.31c0,12.2,2.32,27.3-5.23,37.17,1.16,0,2.32,1.17,2.9,1.75,2.91,5.22,1.75,12.19-2.32,14.52-7,3.33-14.76,4.56-22.52,4.67a2.09,2.09,0,0,0,.6.51,2.35,2.35,0,0,0,.6.2,1.27,1.27,0,0,0,.34,0h25.42a1,1,0,0,0,.39,0,2,2,0,0,0,1.26-.8v0a1.92,1.92,0,0,0,.29-.57,2,2,0,0,0,.12-.74V37.82A2.08,2.08,0,0,0,149.61,37.38Z"/><path class="cls-18" d="M137.62,69.56A1.66,1.66,0,1,0,136,71.22,1.66,1.66,0,0,0,137.62,69.56Z"/><path class="cls-18" d="M137.62,86.33A1.66,1.66,0,1,0,136,88,1.66,1.66,0,0,0,137.62,86.33Z"/><path class="cls-18" d="M137.62,78A1.66,1.66,0,1,0,136,79.61,1.66,1.66,0,0,0,137.62,78Z"/><path class="cls-22" d="M140.11,37.74a4.29,4.29,0,0,0,.57-2.13V21.4a4.33,4.33,0,0,0-8.65,0V35.61a4.29,4.29,0,0,0,.57,2.13Z"/><path class="cls-23" d="M133.81,37.74c-.27-1.45,0-1.87,2.09-3.14,1.18-.71,3.17,1.29,4.78,1V21.4a4.33,4.33,0,0,0-8.65,0V35.61a4.29,4.29,0,0,0,.57,2.13Z"/><path class="cls-24" d="M147.25,21.47a9,9,0,0,1-9,9h0a9,9,0,0,1-9-9V12a9,9,0,0,1,9-9h0a9,9,0,0,1,9,9Z"/><path class="cls-25" d="M134.68,26.13c-3.84-5.3-3.25-12.37-2.07-18.56,4.7-.49,9.41.67,14.11,1.41a9,9,0,0,0-17.48,3v9.45a9,9,0,0,0,9,9,8.9,8.9,0,0,0,3.39-.66A9.54,9.54,0,0,1,134.68,26.13Z"/><path class="cls-24" d="M147.25,21.47V12a9,9,0,0,0-.53-3c-4.7-.74-9.41-1.9-14.11-1.41-1.18,6.19-1.77,13.26,2.07,18.56a9.54,9.54,0,0,0,7,3.68A9,9,0,0,0,147.25,21.47Z"/><path class="cls-26" d="M123.93,6.25c1.3-2.95,5.77-2.79,5.77-2.79s0-3.45,6.65-3.41c5.18-.35,8,1.07,9.4,3.54a5.12,5.12,0,0,0,4.53,1,.75.75,0,0,1,.93.71A3.08,3.08,0,0,1,148,8.4c-7.31.19-13.67-3.2-16-2-2.83,1.46.12,13.73.12,13.73a1,1,0,0,1-2,.33l-.5-3a2.76,2.76,0,0,0-.4-.63l0,4.77a9.34,9.34,0,0,0,.77,3.72c-4.27-.78-7.56-5.52-7.56-11.25A22.42,22.42,0,0,1,123.93,6.25Z"/><path class="cls-26" d="M150.28,4.6a5.12,5.12,0,0,1-4.53-1c-1.44-2.47-4.22-3.89-9.4-3.54-6.68,0-6.65,3.41-6.65,3.41a9.45,9.45,0,0,0-2.44.3C124.88,5.9,123,8.32,123.48,12c.24,3.88,2.09,9,5.86,10.47a8.49,8.49,0,0,1-.05-.88l0-4.77a2.76,2.76,0,0,1,.4.63l.5,3a1,1,0,0,0,2-.33s-3-12.27-.12-13.73c2.29-1.17,8.65,2.22,16,2a3.08,3.08,0,0,0,3.22-3.09A.75.75,0,0,0,150.28,4.6Z"/><path class="cls-27" d="M123.48,12c-.46-3.67,1.4-6.09,3.78-8.23a4.75,4.75,0,0,0-3.33,2.49,22.42,22.42,0,0,0-1.43,7.8c0,5.73,3.29,10.47,7.56,11.25a9.27,9.27,0,0,1-.72-2.84C125.57,21,123.72,15.87,123.48,12Z"/><path class="cls-25" d="M129.44,20.35c-1,.4-2.24-.49-2.85-2s-.34-3,.61-3.43,2.24.5,2.86,2S130.39,20,129.44,20.35Z"/><path class="cls-22" d="M128.91,18.92c-.38.2-.94-.13-1.25-.72s-.25-1.24.13-1.44,1,.13,1.25.72S129.29,18.72,128.91,18.92Z"/><path class="cls-28" d="M143.11,22.76c.16.58,1.06.83,2,.56s1.59-.94,1.43-1.52-1.06-.83-2-.57S143,22.18,143.11,22.76Z"/><path class="cls-26" d="M139.92,29.65a.79.79,0,0,0,.06-.28A.59.59,0,0,0,139.92,29.65Z"/><path class="cls-9" d="M110.27,76.81a3.15,3.15,0,0,1-1.94-.67,11.82,11.82,0,0,1-4.62-9.38c-.3-10.76,11.11-25.39,17-30.47a3.2,3.2,0,0,1,4.18,4.84c-5.14,4.43-15,17.43-14.79,25.45a5.42,5.42,0,0,0,2.12,4.5,3.2,3.2,0,0,1-2,5.73Z"/><path class="cls-29" d="M109.18,59.18a12.39,12.39,0,0,0,12.73,12l-.69-24.77A12.39,12.39,0,0,0,109.18,59.18Z"/><path class="cls-29" d="M134,58.49a12.4,12.4,0,0,1-9.7,12.44,12.08,12.08,0,0,1-2.34.29l-.69-24.77h.83A12.39,12.39,0,0,1,134,58.49Z"/><path class="cls-30" d="M118.82,46.52a12.39,12.39,0,1,0,12.72,12A12.39,12.39,0,0,0,118.82,46.52Z"/><path class="cls-31" d="M108.86,59.19a10.3,10.3,0,0,0,10.59,10l-.58-20.59A10.29,10.29,0,0,0,108.86,59.19Z"/><path class="cls-31" d="M118.87,48.61l.58,20.59a10.3,10.3,0,1,0-.58-20.59Z"/><g class="cls-32"><path class="cls-30" d="M115.84,47l-8.78,9.28a12.17,12.17,0,0,0-.28,3l12-12.7A12.44,12.44,0,0,0,115.84,47Z"/></g><rect class="cls-7" x="129.71" y="56.82" width="4.8" height="2.77" transform="matrix(0.53, -0.85, 0.85, 0.53, 13.2, 140.07)"/><path class="cls-7" d="M135.29,55.05a.7.7,0,0,0,.05,1h0a.7.7,0,0,0,1,0l2.84-3.12a.71.71,0,0,0,0-1h0a.71.71,0,0,0-1,0Z"/><path class="cls-7" d="M132.57,53.16a.7.7,0,0,0,.21,1h0a.7.7,0,0,0,1-.22L136,50.37a.71.71,0,0,0-.22-1h0a.71.71,0,0,0-1,.22Z"/><path class="cls-7" d="M131,51.45a.76.76,0,0,1,1,.48l1.09,3.23a2.63,2.63,0,0,1-.9.74c-.21.08-.75-.29-.75-.29l-.89-3.19A.76.76,0,0,1,131,51.45Z"/><path class="cls-7" d="M134.29,53.58a.71.71,0,0,0,.14,1h0a.7.7,0,0,0,1-.14L138,51.05a.71.71,0,0,0-.14-1h0a.71.71,0,0,0-1,.14Z"/><path class="cls-7" d="M133.15,52.56h2a1.4,1.4,0,0,1,1.4,1.4v2a1.39,1.39,0,0,1-1.39,1.39h-2a1.39,1.39,0,0,1-1.39-1.39V54a1.39,1.39,0,0,1,1.39-1.39Z" transform="translate(9.72 129.34) rotate(-53.15)"/><path class="cls-8" d="M133.58,60.87c.77-1,1.34-1.88,1.34-1.88l-4.62-2.55s-.78,1.12-1.46,2.28Z"/><path class="cls-9" d="M114,78.11a9.1,9.1,0,0,1-5.63-2,3.19,3.19,0,1,1,3.89-5.06,2.65,2.65,0,0,0,2.2.6c4.86-.72,12-10.73,15-15l5.21,3.7C129,68.36,122.33,77,115.36,78A9.54,9.54,0,0,1,114,78.11Z"/></g></g></g></svg>