<svg xmlns="http://www.w3.org/2000/svg" xmlns:xlink="http://www.w3.org/1999/xlink" viewBox="0 0 392.92 375.14"><defs><style>.cls-1,.cls-125{fill:none;}.cls-2{isolation:isolate;}.cls-3{opacity:0.2;}.cls-4{clip-path:url(#clip-path);}.cls-5{mix-blend-mode:color;}.cls-6{clip-path:url(#clip-path-2);}.cls-7{fill:#ddd;}.cls-8{mix-blend-mode:multiply;}.cls-9{clip-path:url(#clip-path-3);}.cls-10{fill:#dfd1c1;}.cls-11{fill:#ae2a19;}.cls-12{clip-path:url(#clip-path-5);}.cls-13{clip-path:url(#clip-path-6);}.cls-14{fill:#e8563c;}.cls-15{clip-path:url(#clip-path-7);}.cls-16{clip-path:url(#clip-path-8);}.cls-17{clip-path:url(#clip-path-9);}.cls-18{clip-path:url(#clip-path-10);}.cls-19{clip-path:url(#clip-path-11);}.cls-20{fill:#fff7e8;}.cls-21{clip-path:url(#clip-path-12);}.cls-22{clip-path:url(#clip-path-13);}.cls-23{clip-path:url(#clip-path-14);}.cls-24{clip-path:url(#clip-path-15);}.cls-25{clip-path:url(#clip-path-16);}.cls-26{clip-path:url(#clip-path-17);}.cls-27{clip-path:url(#clip-path-18);}.cls-28{clip-path:url(#clip-path-19);}.cls-29{clip-path:url(#clip-path-21);}.cls-30{clip-path:url(#clip-path-22);}.cls-31{clip-path:url(#clip-path-23);}.cls-32{clip-path:url(#clip-path-24);}.cls-33{clip-path:url(#clip-path-25);}.cls-34{clip-path:url(#clip-path-26);}.cls-35{clip-path:url(#clip-path-27);}.cls-36{clip-path:url(#clip-path-28);}.cls-37{clip-path:url(#clip-path-29);}.cls-38{clip-path:url(#clip-path-30);}.cls-39{clip-path:url(#clip-path-31);}.cls-40{clip-path:url(#clip-path-32);}.cls-41{clip-path:url(#clip-path-33);}.cls-42{clip-path:url(#clip-path-34);}.cls-43{clip-path:url(#clip-path-35);}.cls-44{clip-path:url(#clip-path-36);}.cls-45{clip-path:url(#clip-path-37);}.cls-46{clip-path:url(#clip-path-38);}.cls-47{fill:#00628e;}.cls-48{clip-path:url(#clip-path-39);}.cls-49{fill:#f17f00;}.cls-50{clip-path:url(#clip-path-40);}.cls-51{clip-path:url(#clip-path-41);}.cls-52{clip-path:url(#clip-path-42);}.cls-53{clip-path:url(#clip-path-43);}.cls-54{clip-path:url(#clip-path-44);}.cls-55{clip-path:url(#clip-path-45);}.cls-56{fill:#ff9a03;}.cls-57{clip-path:url(#clip-path-46);}.cls-58{clip-path:url(#clip-path-47);}.cls-59{clip-path:url(#clip-path-48);}.cls-60{clip-path:url(#clip-path-49);}.cls-61{clip-path:url(#clip-path-50);}.cls-62{clip-path:url(#clip-path-51);}.cls-63{clip-path:url(#clip-path-52);}.cls-64{clip-path:url(#clip-path-53);}.cls-65{clip-path:url(#clip-path-54);}.cls-66{clip-path:url(#clip-path-55);}.cls-67{clip-path:url(#clip-path-56);}.cls-68{clip-path:url(#clip-path-57);}.cls-69{clip-path:url(#clip-path-58);}.cls-70{clip-path:url(#clip-path-59);}.cls-71{clip-path:url(#clip-path-60);}.cls-72{clip-path:url(#clip-path-61);}.cls-73{clip-path:url(#clip-path-62);}.cls-74{clip-path:url(#clip-path-63);}.cls-75{clip-path:url(#clip-path-64);}.cls-76{clip-path:url(#clip-path-65);}.cls-77{clip-path:url(#clip-path-66);}.cls-78{clip-path:url(#clip-path-67);}.cls-79{clip-path:url(#clip-path-68);}.cls-80{clip-path:url(#clip-path-69);}.cls-81{clip-path:url(#clip-path-70);}.cls-82{clip-path:url(#clip-path-71);}.cls-83{clip-path:url(#clip-path-72);}.cls-84{clip-path:url(#clip-path-73);}.cls-85{clip-path:url(#clip-path-74);}.cls-86{clip-path:url(#clip-path-75);}.cls-87{clip-path:url(#clip-path-76);}.cls-88{clip-path:url(#clip-path-77);}.cls-89{clip-path:url(#clip-path-78);}.cls-90{clip-path:url(#clip-path-79);}.cls-91{fill:#cce3ed;}.cls-92{clip-path:url(#clip-path-80);}.cls-93{clip-path:url(#clip-path-81);}.cls-94{clip-path:url(#clip-path-82);}.cls-95{clip-path:url(#clip-path-83);}.cls-96{clip-path:url(#clip-path-84);}.cls-97{clip-path:url(#clip-path-85);}.cls-98{clip-path:url(#clip-path-86);}.cls-99{fill:#f9bc26;}.cls-100{clip-path:url(#clip-path-87);}.cls-101{clip-path:url(#clip-path-88);}.cls-102{clip-path:url(#clip-path-89);}.cls-103{clip-path:url(#clip-path-90);}.cls-104{clip-path:url(#clip-path-91);}.cls-105{clip-path:url(#clip-path-92);}.cls-106{clip-path:url(#clip-path-93);}.cls-107{clip-path:url(#clip-path-94);}.cls-108{clip-path:url(#clip-path-95);}.cls-109{clip-path:url(#clip-path-96);}.cls-110{clip-path:url(#clip-path-97);}.cls-111{clip-path:url(#clip-path-98);}.cls-112{clip-path:url(#clip-path-99);}.cls-113{opacity:0.7;}.cls-114{clip-path:url(#clip-path-100);}.cls-115{fill:#e0e0e0;}.cls-116{fill:#ebebeb;}.cls-117{fill:#ffd066;}.cls-118{fill:#0186cb;}.cls-119{fill:#1e1ea4;}.cls-120{fill:#110239;}.cls-121{fill:#75ad5f;}.cls-121,.cls-122,.cls-123{fill-rule:evenodd;}.cls-122{fill:#90c67b;}.cls-123{fill:#ffd573;}.cls-124{fill:#fff;}.cls-125{stroke:#ffd573;stroke-linecap:round;stroke-linejoin:round;stroke-width:8.64px;}</style><clipPath id="clip-path" transform="translate(0 0)"><rect class="cls-1" x="284.05" width="108.86" height="193.42"/></clipPath><clipPath id="clip-path-2" transform="translate(0 0)"><rect class="cls-1" x="356.27" y="74.46" width="17.07" height="12.95"/></clipPath><clipPath id="clip-path-3" transform="translate(0 0)"><rect class="cls-1" x="316.03" y="12.12" width="45.93" height="39.76"/></clipPath><clipPath id="clip-path-5" transform="translate(0 0)"><rect class="cls-1" x="351.36" y="6.29" width="5" height="5.82"/></clipPath><clipPath id="clip-path-6" transform="translate(0 0)"><rect class="cls-1" x="318.65" y="10.64" width="40.96" height="38"/></clipPath><clipPath id="clip-path-7" transform="translate(0 0)"><rect class="cls-1" x="310.4" width="40.96" height="39.8"/></clipPath><clipPath id="clip-path-8" transform="translate(0 0)"><rect class="cls-1" x="315.05" y="37.97" width="3.61" height="4.38"/></clipPath><clipPath id="clip-path-9" transform="translate(0 0)"><rect class="cls-1" x="311.51" y="0.97" width="43.44" height="37"/></clipPath><clipPath id="clip-path-10" transform="translate(0 0)"><rect class="cls-1" x="312.75" y="3.23" width="45.75" height="44.44"/></clipPath><clipPath id="clip-path-11" transform="translate(0 0)"><rect class="cls-1" x="314.6" y="4.16" width="32.19" height="36.52"/></clipPath><clipPath id="clip-path-12" transform="translate(0 0)"><rect class="cls-1" x="316.08" y="5.17" width="38.22" height="38.34"/></clipPath><clipPath id="clip-path-13" transform="translate(0 0)"><rect class="cls-1" x="334.45" y="6.21" width="2.72" height="17.13"/></clipPath><clipPath id="clip-path-14" transform="translate(0 0)"><rect class="cls-1" x="325.73" y="24.65" width="8.79" height="5.88"/></clipPath><clipPath id="clip-path-15" transform="translate(0 0)"><rect class="cls-1" x="334.52" y="23.34" width="1.58" height="1.85"/></clipPath><clipPath id="clip-path-16" transform="translate(0 0)"><rect class="cls-1" x="334.31" y="23.33" width="0.88" height="1.32"/></clipPath><clipPath id="clip-path-17" transform="translate(0 0)"><rect class="cls-1" x="335.14" y="23.32" width="0.19" height="1.02"/></clipPath><clipPath id="clip-path-18" transform="translate(0 0)"><rect class="cls-1" x="334.39" y="24.34" width="0.8" height="0.55"/></clipPath><clipPath id="clip-path-19" transform="translate(0 0)"><rect class="cls-1" x="286.53" y="90.43" width="106.39" height="102.99"/></clipPath><clipPath id="clip-path-21" transform="translate(0 0)"><rect class="cls-1" x="300.33" y="60.18" width="35.91" height="27.23"/></clipPath><clipPath id="clip-path-22" transform="translate(0 0)"><rect class="cls-1" x="338.43" y="60.18" width="35.9" height="27.23"/></clipPath><clipPath id="clip-path-23" transform="translate(0 0)"><rect class="cls-1" x="338.42" y="60.34" width="17.86" height="14.13"/></clipPath><clipPath id="clip-path-24" transform="translate(0 0)"><rect class="cls-1" x="336.23" y="59.33" width="2.21" height="0.85"/></clipPath><clipPath id="clip-path-25" transform="translate(0 0)"><rect class="cls-1" x="336.24" y="60.65" width="0.35" height="0.38"/></clipPath><clipPath id="clip-path-26" transform="translate(0 0)"><rect class="cls-1" x="336.29" y="60.09" width="2.13" height="1.61"/></clipPath><clipPath id="clip-path-27" transform="translate(0 0)"><rect class="cls-1" x="336.19" y="59.47" width="1.06" height="1.45"/></clipPath><clipPath id="clip-path-28" transform="translate(0 0)"><rect class="cls-1" x="337.44" y="59.45" width="0.05" height="0.03"/></clipPath><clipPath id="clip-path-29" transform="translate(0 0)"><rect class="cls-1" x="337.22" y="59.43" width="0.05" height="0.02"/></clipPath><clipPath id="clip-path-30" transform="translate(0 0)"><rect class="cls-1" x="337.33" y="59.42" width="0.06"/></clipPath><clipPath id="clip-path-31" transform="translate(0 0)"><rect class="cls-1" x="336.6" y="60.03" width="0.73" height="0.62"/></clipPath><clipPath id="clip-path-32" transform="translate(0 0)"><rect class="cls-1" x="337.39" y="59.43" width="0.05" height="0.02"/></clipPath><clipPath id="clip-path-33" transform="translate(0 0)"><rect class="cls-1" x="337.17" y="59.45" width="0.05" height="0.03"/></clipPath><clipPath id="clip-path-34" transform="translate(0 0)"><rect class="cls-1" x="337.46" y="59.47" width="1.01" height="0.86"/></clipPath><clipPath id="clip-path-35" transform="translate(0 0)"><rect class="cls-1" x="337.27" y="59.42" width="0.06"/></clipPath><clipPath id="clip-path-36" transform="translate(0 0)"><rect class="cls-1" x="337.33" y="59.97" width="1.15" height="0.95"/></clipPath><clipPath id="clip-path-37" transform="translate(0 0)"><rect class="cls-1" x="337.03" y="59.42" width="0.6" height="0.6"/></clipPath><clipPath id="clip-path-38" transform="translate(0 0)"><rect class="cls-1" x="337.25" y="59.99" width="0.21" height="0.1"/></clipPath><clipPath id="clip-path-39" transform="translate(0 0)"><rect class="cls-1" x="291.83" y="95.03" width="90.96" height="87.63"/></clipPath><clipPath id="clip-path-40" transform="translate(0 0)"><rect class="cls-1" x="388.37" y="87.41" width="2.07" height="3.02"/></clipPath><clipPath id="clip-path-41" transform="translate(0 0)"><rect class="cls-1" x="284.05" y="188.32" width="2.53" height="2.08"/></clipPath><clipPath id="clip-path-42" transform="translate(0 0)"><rect class="cls-1" x="286.55" y="90.43" width="103.89" height="99.96"/></clipPath><clipPath id="clip-path-43" transform="translate(0 0)"><rect class="cls-1" x="289.73" y="92.99" width="93.06" height="89.7"/></clipPath><clipPath id="clip-path-44" transform="translate(0 0)"><rect class="cls-1" x="293.18" y="92.99" width="0.79" height="0.3"/></clipPath><clipPath id="clip-path-45" transform="translate(0 0)"><rect class="cls-1" x="380.7" y="92.99" width="0.79" height="0.3"/></clipPath><clipPath id="clip-path-46" transform="translate(0 0)"><rect class="cls-1" x="284.05" y="87.41" width="16.28" height="100.95"/></clipPath><clipPath id="clip-path-47" transform="translate(0 0)"><rect class="cls-1" x="298.63" y="87.41" width="7.61" height="2.04"/></clipPath><clipPath id="clip-path-48" transform="translate(0 0)"><rect class="cls-1" x="372.92" y="87.41" width="3.1" height="2.04"/></clipPath><clipPath id="clip-path-49" transform="translate(0 0)"><rect class="cls-1" x="304.91" y="87.41" width="69.64" height="2.04"/></clipPath><clipPath id="clip-path-50" transform="translate(0 0)"><rect class="cls-1" x="374.33" y="87.41" width="14.04" height="2.04"/></clipPath><clipPath id="clip-path-51" transform="translate(0 0)"><rect class="cls-1" x="303.93" y="87.41" width="3.3" height="2.04"/></clipPath><clipPath id="clip-path-52" transform="translate(0 0)"><rect class="cls-1" x="291.8" y="182.76" width="93.06" height="1.97"/></clipPath><clipPath id="clip-path-53" transform="translate(0 0)"><rect class="cls-1" x="371.94" y="87.41" width="3.61" height="2.04"/></clipPath><clipPath id="clip-path-54" transform="translate(0 0)"><rect class="cls-1" x="297.64" y="87.41" width="3.67" height="2.04"/></clipPath><clipPath id="clip-path-55" transform="translate(0 0)"><rect class="cls-1" x="373.34" y="87.41" width="3.67" height="2.04"/></clipPath><clipPath id="clip-path-56" transform="translate(0 0)"><rect class="cls-1" x="291.8" y="95.03" width="93.06" height="89.63"/></clipPath><clipPath id="clip-path-57" transform="translate(0 0)"><rect class="cls-1" x="377.02" y="89.45" width="8.79" height="0.31"/></clipPath><clipPath id="clip-path-58" transform="translate(0 0)"><rect class="cls-1" x="303.8" y="89.45" width="71.28" height="0.98"/></clipPath><clipPath id="clip-path-59" transform="translate(0 0)"><rect class="cls-1" x="375.54" y="89.45" width="0.94" height="0.37"/></clipPath><clipPath id="clip-path-60" transform="translate(0 0)"><rect class="cls-1" x="284.05" y="89.45" width="13.59" height="98.91"/></clipPath><clipPath id="clip-path-61" transform="translate(0 0)"><rect class="cls-1" x="297.34" y="89.45" width="6.59" height="0.98"/></clipPath><clipPath id="clip-path-62" transform="translate(0 0)"><rect class="cls-1" x="385.81" y="87.41" width="2.56" height="3.02"/></clipPath><clipPath id="clip-path-63" transform="translate(0 0)"><rect class="cls-1" x="286.58" y="90.43" width="101.79" height="97.89"/></clipPath><clipPath id="clip-path-64" transform="translate(0 0)"><rect class="cls-1" x="385.83" y="90.43" width="2.53" height="92.26"/></clipPath><clipPath id="clip-path-65" transform="translate(0 0)"><rect class="cls-1" x="374.56" y="89.45" width="1.46" height="0.4"/></clipPath><clipPath id="clip-path-66" transform="translate(0 0)"><rect class="cls-1" x="294.11" y="89.45" width="65.43" height="3.43"/></clipPath><clipPath id="clip-path-67" transform="translate(0 0)"><rect class="cls-1" x="296.35" y="89.45" width="2.29" height="0.98"/></clipPath><clipPath id="clip-path-68" transform="translate(0 0)"><rect class="cls-1" x="293.18" y="90.43" width="4.15" height="2.49"/></clipPath><clipPath id="clip-path-69" transform="translate(0 0)"><rect class="cls-1" x="376.03" y="89.45" width="1.4" height="0.35"/></clipPath><clipPath id="clip-path-70" transform="translate(0 0)"><rect class="cls-1" x="359.54" y="89.85" width="16.28" height="0.58"/></clipPath><clipPath id="clip-path-71" transform="translate(0 0)"><rect class="cls-1" x="377.43" y="89.45" width="8.4" height="0.98"/></clipPath><clipPath id="clip-path-72" transform="translate(0 0)"><rect class="cls-1" x="376.01" y="89.8" width="1.31" height="0.63"/></clipPath><clipPath id="clip-path-73" transform="translate(0 0)"><rect class="cls-1" x="293.96" y="89.81" width="86.73" height="3.18"/></clipPath><clipPath id="clip-path-74" transform="translate(0 0)"><rect class="cls-1" x="291.25" y="92.92" width="1.94" height="0.07"/></clipPath><clipPath id="clip-path-75" transform="translate(0 0)"><rect class="cls-1" x="378.32" y="90.43" width="10.05" height="92.33"/></clipPath><clipPath id="clip-path-76" transform="translate(0 0)"><rect class="cls-1" x="288.51" y="92.99" width="3.33" height="91.73"/></clipPath><clipPath id="clip-path-77" transform="translate(0 0)"><rect class="cls-1" x="293.18" y="92.88" width="0.93" height="0.11"/></clipPath><clipPath id="clip-path-78" transform="translate(0 0)"><rect class="cls-1" x="376.49" y="89.76" width="1.83" height="0.67"/></clipPath><clipPath id="clip-path-79" transform="translate(0 0)"><rect class="cls-1" x="377.33" y="90.43" width="4.16" height="2.56"/></clipPath><clipPath id="clip-path-80" transform="translate(0 0)"><rect class="cls-1" x="308.51" y="104.24" width="47.47" height="39.89"/></clipPath><clipPath id="clip-path-81" transform="translate(0 0)"><rect class="cls-1" x="304.68" y="123.59" width="4.12" height="1.99"/></clipPath><clipPath id="clip-path-82" transform="translate(0 0)"><rect class="cls-1" x="328.82" y="168.61" width="17.9" height="1.99"/></clipPath><clipPath id="clip-path-83" transform="translate(0 0)"><rect class="cls-1" x="348.69" y="137.33" width="27.53" height="38.18"/></clipPath><clipPath id="clip-path-84" transform="translate(0 0)"><rect class="cls-1" x="305.7" y="154.93" width="17.33" height="16.48"/></clipPath><clipPath id="clip-path-85" transform="translate(0 0)"><rect class="cls-1" x="302.71" y="102.25" width="51.3" height="21.34"/></clipPath><clipPath id="clip-path-86" transform="translate(0 0)"><rect class="cls-1" x="304.68" y="104.24" width="49.33" height="19.35"/></clipPath><clipPath id="clip-path-87" transform="translate(0 0)"><rect class="cls-1" x="306.54" y="125.58" width="4.23" height="16.56"/></clipPath><clipPath id="clip-path-88" transform="translate(0 0)"><rect class="cls-1" x="308.56" y="123.59" width="20.41" height="18.55"/></clipPath><clipPath id="clip-path-89" transform="translate(0 0)"><rect class="cls-1" x="308.8" y="107.07" width="20.71" height="16.52"/></clipPath><clipPath id="clip-path-90" transform="translate(0 0)"><rect class="cls-1" x="346.72" y="135.34" width="27.53" height="24.72"/></clipPath><clipPath id="clip-path-91" transform="translate(0 0)"><rect class="cls-1" x="346.72" y="170.6" width="1.97" height="2.92"/></clipPath><clipPath id="clip-path-92" transform="translate(0 0)"><rect class="cls-1" x="346.72" y="137.33" width="27.53" height="36.19"/></clipPath><clipPath id="clip-path-93" transform="translate(0 0)"><rect class="cls-1" x="326.85" y="160.05" width="19.87" height="8.56"/></clipPath><clipPath id="clip-path-94" transform="translate(0 0)"><rect class="cls-1" x="328.82" y="162.04" width="17.9" height="6.57"/></clipPath><clipPath id="clip-path-95" transform="translate(0 0)"><rect class="cls-1" x="346.72" y="160.05" width="1.97" height="1.99"/></clipPath><clipPath id="clip-path-96" transform="translate(0 0)"><rect class="cls-1" x="346.72" y="160.05" width="12.1" height="8.56"/></clipPath><clipPath id="clip-path-97" transform="translate(0 0)"><rect class="cls-1" x="350.34" y="139.85" width="11.62" height="5.08"/></clipPath><clipPath id="clip-path-98" transform="translate(0 0)"><rect class="cls-1" x="303.73" y="152.94" width="17.33" height="16.49"/></clipPath><clipPath id="clip-path-99" transform="translate(0 0)"><rect class="cls-1" x="305.7" y="154.93" width="15.36" height="14.49"/></clipPath><clipPath id="clip-path-100" transform="translate(0 0)"><rect class="cls-1" y="100.57" width="212.74" height="160.88"/></clipPath></defs><g class="cls-2"><g id="Capa_2" data-name="Capa 2"><g id="Capa_1-2" data-name="Capa 1"><g class="cls-3"><g class="cls-4"><g class="cls-5"><g class="cls-6"><polygon class="cls-7" points="373.34 87.41 356.27 74.46 372.92 87.41 373.34 87.41"/></g></g><g class="cls-8"><g class="cls-9"><path class="cls-10" d="M359.59,25a25,25,0,0,1-25,23.68,23.23,23.23,0,0,1-15.89-6.29A22.54,22.54,0,0,1,316,39.8a22.74,22.74,0,0,0,5,5.78,23.21,23.21,0,0,0,15.89,6.3A25,25,0,0,0,361.94,28.2a22.86,22.86,0,0,0-5.58-16.08A23,23,0,0,1,359.59,25" transform="translate(0 0)"/></g></g><g class="cls-5"><g class="cls-9"><path class="cls-7" d="M359.59,25a25,25,0,0,1-25,23.68,23.23,23.23,0,0,1-15.89-6.29A22.54,22.54,0,0,1,316,39.8a22.74,22.74,0,0,0,5,5.78,23.21,23.21,0,0,0,15.89,6.3A25,25,0,0,0,361.94,28.2a22.86,22.86,0,0,0-5.58-16.08A23,23,0,0,1,359.59,25" transform="translate(0 0)"/></g></g><path class="cls-11" d="M355,10.64c.49.47,1,1,1.41,1.48a22.91,22.91,0,0,0-5-5.83A23.41,23.41,0,0,1,355,10.64" transform="translate(0 0)"/><g class="cls-5"><g class="cls-12"><path class="cls-7" d="M355,10.64c.49.47,1,1,1.41,1.48a22.91,22.91,0,0,0-5-5.83A23.41,23.41,0,0,1,355,10.64" transform="translate(0 0)"/></g></g><path class="cls-11" d="M355,10.64A23,23,0,0,1,358.48,24a25,25,0,0,1-25.05,23.68,23.3,23.3,0,0,1-14.78-5.32,23.23,23.23,0,0,0,15.89,6.29,25,25,0,0,0,25-23.68,22.93,22.93,0,0,0-3.23-12.84c-.45-.52-.92-1-1.41-1.48" transform="translate(0 0)"/><g class="cls-5"><g class="cls-13"><path class="cls-7" d="M355,10.64A23,23,0,0,1,358.48,24a25,25,0,0,1-25.05,23.68,23.3,23.3,0,0,1-14.78-5.32,23.23,23.23,0,0,0,15.89,6.29,25,25,0,0,0,25-23.68,22.93,22.93,0,0,0-3.23-12.84c-.45-.52-.92-1-1.41-1.48" transform="translate(0 0)"/></g></g><path class="cls-14" d="M315,38a23,23,0,0,1-3.51-13.32A25,25,0,0,1,336.58,1a23.3,23.3,0,0,1,14.78,5.32A23.23,23.23,0,0,0,335.47,0a25,25,0,0,0-25.05,23.68A22.85,22.85,0,0,0,316,39.79c-.36-.59-.68-1.2-1-1.82" transform="translate(0 0)"/><g class="cls-5"><g class="cls-15"><path class="cls-7" d="M315,38a23,23,0,0,1-3.51-13.32A25,25,0,0,1,336.58,1a23.3,23.3,0,0,1,14.78,5.32A23.23,23.23,0,0,0,335.47,0a25,25,0,0,0-25.05,23.68A22.85,22.85,0,0,0,316,39.79c-.36-.59-.68-1.2-1-1.82" transform="translate(0 0)"/></g></g><path class="cls-14" d="M318.65,42.35a22.29,22.29,0,0,1-3.6-4.38c.3.62.62,1.23,1,1.82a22.63,22.63,0,0,0,2.62,2.56" transform="translate(0 0)"/><g class="cls-5"><g class="cls-16"><path class="cls-7" d="M318.65,42.35a22.29,22.29,0,0,1-3.6-4.38c.3.62.62,1.23,1,1.82a22.63,22.63,0,0,0,2.62,2.56" transform="translate(0 0)"/></g></g><path class="cls-14" d="M311.53,24.65A23,23,0,0,0,315,38a23.05,23.05,0,0,1-2.26-11.06,25,25,0,0,1,25-23.68,23.23,23.23,0,0,1,15.89,6.3c.43.35.84.73,1.24,1.11a23,23,0,0,0-3.59-4.34A23.24,23.24,0,0,0,336.58,1a25,25,0,0,0-25.05,23.68" transform="translate(0 0)"/><g class="cls-5"><g class="cls-17"><path class="cls-7" d="M311.53,24.65A23,23,0,0,0,315,38a23.05,23.05,0,0,1-2.26-11.06,25,25,0,0,1,25-23.68,23.23,23.23,0,0,1,15.89,6.3c.43.35.84.73,1.24,1.11a23,23,0,0,0-3.59-4.34A23.24,23.24,0,0,0,336.58,1a25,25,0,0,0-25.05,23.68" transform="translate(0 0)"/></g></g><path class="cls-14" d="M318.65,42.35a23.28,23.28,0,0,0,14.78,5.32A25,25,0,0,0,358.48,24,23,23,0,0,0,355,10.64c-.4-.38-.81-.76-1.24-1.11a23.23,23.23,0,0,0-15.89-6.3,25,25,0,0,0-25,23.68A23.05,23.05,0,0,0,315,38a22.7,22.7,0,0,0,3.61,4.38m-4-18.64A20.65,20.65,0,0,1,335.29,4.16,19.24,19.24,0,0,1,346.79,8a18.78,18.78,0,0,1,7.49,16,20.64,20.64,0,0,1-20.67,19.55,19.32,19.32,0,0,1-10-2.83,18.81,18.81,0,0,1-9-17" transform="translate(0 0)"/><g class="cls-5"><g class="cls-18"><path class="cls-7" d="M318.65,42.35a23.28,23.28,0,0,0,14.78,5.32A25,25,0,0,0,358.48,24,23,23,0,0,0,355,10.64c-.4-.38-.81-.76-1.24-1.11a23.23,23.23,0,0,0-15.89-6.3,25,25,0,0,0-25,23.68A23.05,23.05,0,0,0,315,38a22.7,22.7,0,0,0,3.61,4.38m-4-18.64A20.65,20.65,0,0,1,335.29,4.16,19.24,19.24,0,0,1,346.79,8a18.78,18.78,0,0,1,7.49,16,20.64,20.64,0,0,1-20.67,19.55,19.32,19.32,0,0,1-10-2.83,18.81,18.81,0,0,1-9-17" transform="translate(0 0)"/></g></g><path class="cls-11" d="M323.59,40.68a18.84,18.84,0,0,1-7.49-16A20.66,20.66,0,0,1,336.78,5.17a19.38,19.38,0,0,1,10,2.83,19.24,19.24,0,0,0-11.5-3.84,20.65,20.65,0,0,0-20.67,19.55,18.81,18.81,0,0,0,9,17" transform="translate(0 0)"/><g class="cls-5"><g class="cls-19"><path class="cls-7" d="M323.59,40.68a18.84,18.84,0,0,1-7.49-16A20.66,20.66,0,0,1,336.78,5.17a19.38,19.38,0,0,1,10,2.83,19.24,19.24,0,0,0-11.5-3.84,20.65,20.65,0,0,0-20.67,19.55,18.81,18.81,0,0,0,9,17" transform="translate(0 0)"/></g></g><path class="cls-20" d="M316.1,24.72a18.84,18.84,0,0,0,7.49,16,19.32,19.32,0,0,0,10,2.83A20.64,20.64,0,0,0,354.28,24a18.78,18.78,0,0,0-7.49-16,19.38,19.38,0,0,0-10-2.83A20.66,20.66,0,0,0,316.1,24.72m19.11.47a.86.86,0,0,1-.69-.3L329,29.38l-3.31,1.16,1.3-3,7.36-2.86a.92.92,0,0,1,.75-1.32l-.69-13.76L336,6.21l1.22,3.46-1.84,13.67a.93.93,0,0,1-.12,1.85" transform="translate(0 0)"/><g class="cls-5"><g class="cls-21"><path class="cls-7" d="M316.1,24.72a18.84,18.84,0,0,0,7.49,16,19.32,19.32,0,0,0,10,2.83A20.64,20.64,0,0,0,354.28,24a18.78,18.78,0,0,0-7.49-16,19.38,19.38,0,0,0-10-2.83A20.66,20.66,0,0,0,316.1,24.72m19.11.47a.86.86,0,0,1-.69-.3L329,29.38l-3.31,1.16,1.3-3,7.36-2.86a.92.92,0,0,1,.75-1.32l-.69-13.76L336,6.21l1.22,3.46-1.84,13.67a.93.93,0,0,1-.12,1.85" transform="translate(0 0)"/></g></g><path class="cls-14" d="M336,6.21l-1.5,3.36.69,13.76h.07l.12,0,1.84-13.67Z" transform="translate(0 0)"/><g class="cls-5"><g class="cls-22"><path class="cls-7" d="M336,6.21l-1.5,3.36.69,13.76h.07l.12,0,1.84-13.67Z" transform="translate(0 0)"/></g></g><path class="cls-14" d="M327,27.51l-1.3,3L329,29.38l5.48-4.49a1.36,1.36,0,0,1-.13-.24Z" transform="translate(0 0)"/><g class="cls-5"><g class="cls-23"><path class="cls-7" d="M327,27.51l-1.3,3L329,29.38l5.48-4.49a1.36,1.36,0,0,1-.13-.24Z" transform="translate(0 0)"/></g></g><path class="cls-11" d="M334.52,24.89a.88.88,0,0,0,.69.3.93.93,0,0,0,.12-1.85l-.14,1Z" transform="translate(0 0)"/><g class="cls-5"><g class="cls-24"><path class="cls-7" d="M334.52,24.89a.88.88,0,0,0,.69.3.93.93,0,0,0,.12-1.85l-.14,1Z" transform="translate(0 0)"/></g></g><path class="cls-11" d="M335.14,23.33a.92.92,0,0,0-.75,1.32l.8-.31Z" transform="translate(0 0)"/><g class="cls-5"><g class="cls-25"><path class="cls-7" d="M335.14,23.33a.92.92,0,0,0-.75,1.32l.8-.31Z" transform="translate(0 0)"/></g></g><path class="cls-11" d="M335.14,23.33l.05,1,.14-1a.53.53,0,0,0-.12,0l-.07,0" transform="translate(0 0)"/><g class="cls-5"><g class="cls-26"><path class="cls-7" d="M335.14,23.33l.05,1,.14-1a.53.53,0,0,0-.12,0l-.07,0" transform="translate(0 0)"/></g></g><path class="cls-11" d="M334.39,24.65a1.36,1.36,0,0,0,.13.24l.67-.55Z" transform="translate(0 0)"/><g class="cls-5"><g class="cls-27"><path class="cls-7" d="M334.39,24.65a1.36,1.36,0,0,0,.13.24l.67-.55Z" transform="translate(0 0)"/></g></g><g class="cls-8"><g class="cls-28"><polygon class="cls-10" points="390.44 90.43 390.44 188.72 286.55 190.39 286.53 191.38 288.6 193.41 392.92 191.74 392.92 92.47 390.85 90.43 390.44 90.43"/></g></g><g class="cls-5"><g class="cls-28"><polygon class="cls-7" points="390.44 90.43 390.44 188.72 286.55 190.39 286.53 191.38 288.6 193.41 392.92 191.74 392.92 92.47 390.85 90.43 390.44 90.43"/></g></g><path class="cls-11" d="M336.24,60.92a1.43,1.43,0,0,1,0-.74l-35.9,27.23h1Z" transform="translate(0 0)"/><g class="cls-5"><g class="cls-29"><path class="cls-7" d="M336.24,60.92a1.43,1.43,0,0,1,0-.74l-35.9,27.23h1Z" transform="translate(0 0)"/></g></g><path class="cls-11" d="M338.73,60.82l17.54,13.64,17.07,13h1l-35.9-27.23a.41.41,0,0,1,0,.16,1,1,0,0,1,.27.48" transform="translate(0 0)"/><g class="cls-5"><g class="cls-30"><path class="cls-7" d="M338.73,60.82l17.54,13.64,17.07,13h1l-35.9-27.23a.41.41,0,0,1,0,.16,1,1,0,0,1,.27.48" transform="translate(0 0)"/></g></g><path class="cls-11" d="M338.42,60.92l17.85,13.54L338.73,60.82a1.13,1.13,0,0,0-.26-.48,1.43,1.43,0,0,1-.05.58" transform="translate(0 0)"/><g class="cls-5"><g class="cls-31"><path class="cls-7" d="M338.42,60.92l17.85,13.54L338.73,60.82a1.13,1.13,0,0,0-.26-.48,1.43,1.43,0,0,1-.05.58" transform="translate(0 0)"/></g></g><path class="cls-11" d="M337.17,59.47l.05,0,0,0h.12l.05,0,.05,0h0l.92.7a1.14,1.14,0,0,0-2.2,0l.92-.7h0" transform="translate(0 0)"/><g class="cls-5"><g class="cls-32"><path class="cls-7" d="M337.17,59.47l.05,0,0,0h.12l.05,0,.05,0h0l.92.7a1.14,1.14,0,0,0-2.2,0l.92-.7h0" transform="translate(0 0)"/></g></g><path class="cls-11" d="M336.53,60.82a.61.61,0,0,1,.07-.17l-.36.27.05.11Z" transform="translate(0 0)"/><g class="cls-5"><g class="cls-33"><path class="cls-7" d="M336.53,60.82a.61.61,0,0,1,.07-.17l-.36.27.05.11Z" transform="translate(0 0)"/></g></g><path class="cls-11" d="M336.29,61a1.07,1.07,0,0,0,1,.68,1.1,1.1,0,0,0,1.09-.79l-1.09-.83-.73.56a.61.61,0,0,0-.07.17Z" transform="translate(0 0)"/><g class="cls-5"><g class="cls-34"><path class="cls-7" d="M336.29,61a1.07,1.07,0,0,0,1,.68,1.1,1.1,0,0,0,1.09-.79l-1.09-.83-.73.56a.61.61,0,0,0-.07.17Z" transform="translate(0 0)"/></g></g><path class="cls-11" d="M336.24,60.92l.36-.27a1,1,0,0,1,.65-.62l-.1-.07a.3.3,0,0,1-.06-.42.27.27,0,0,1,.08-.07h0l-.92.7a1.43,1.43,0,0,0,0,.74" transform="translate(0 0)"/><g class="cls-5"><g class="cls-35"><path class="cls-7" d="M336.24,60.92l.36-.27a1,1,0,0,1,.65-.62l-.1-.07a.3.3,0,0,1-.06-.42.27.27,0,0,1,.08-.07h0l-.92.7a1.43,1.43,0,0,0,0,.74" transform="translate(0 0)"/></g></g><path class="cls-11" d="M337.44,59.45l.05,0-.05,0" transform="translate(0 0)"/><g class="cls-5"><g class="cls-36"><path class="cls-7" d="M337.44,59.45l.05,0-.05,0" transform="translate(0 0)"/></g></g><path class="cls-11" d="M337.22,59.45l0,0,0,0" transform="translate(0 0)"/><g class="cls-5"><g class="cls-37"><path class="cls-7" d="M337.22,59.45l0,0,0,0" transform="translate(0 0)"/></g></g><path class="cls-11" d="M337.33,59.42h0" transform="translate(0 0)"/><g class="cls-5"><g class="cls-38"><path class="cls-7" d="M337.33,59.42h0" transform="translate(0 0)"/></g></g><path class="cls-11" d="M337.25,60a1,1,0,0,0-.65.62l.73-.56Z" transform="translate(0 0)"/><g class="cls-5"><g class="cls-39"><path class="cls-7" d="M337.25,60a1,1,0,0,0-.65.62l.73-.56Z" transform="translate(0 0)"/></g></g><path class="cls-11" d="M337.39,59.43l.05,0-.05,0" transform="translate(0 0)"/><g class="cls-5"><g class="cls-40"><path class="cls-7" d="M337.39,59.43l.05,0-.05,0" transform="translate(0 0)"/></g></g><path class="cls-11" d="M337.17,59.47l.05,0-.05,0" transform="translate(0 0)"/><g class="cls-5"><g class="cls-41"><path class="cls-7" d="M337.17,59.47l.05,0-.05,0" transform="translate(0 0)"/></g></g><path class="cls-11" d="M337.49,59.47a.27.27,0,0,1,.08.07.3.3,0,0,1-.06.42l-.05,0,.17,0a1.05,1.05,0,0,1,.83.37.41.41,0,0,0,0-.16l-.92-.7h0" transform="translate(0 0)"/><g class="cls-5"><g class="cls-42"><path class="cls-7" d="M337.49,59.47a.27.27,0,0,1,.08.07.3.3,0,0,1-.06.42l-.05,0,.17,0a1.05,1.05,0,0,1,.83.37.41.41,0,0,0,0-.16l-.92-.7h0" transform="translate(0 0)"/></g></g><path class="cls-11" d="M337.27,59.43h0" transform="translate(0 0)"/><g class="cls-5"><g class="cls-43"><path class="cls-7" d="M337.27,59.43h0" transform="translate(0 0)"/></g></g><path class="cls-11" d="M338.42,60.92a1.43,1.43,0,0,0,.05-.58,1.07,1.07,0,0,0-.84-.37,1,1,0,0,0-.17,0l-.13.09Z" transform="translate(0 0)"/><g class="cls-5"><g class="cls-44"><path class="cls-7" d="M338.42,60.92a1.43,1.43,0,0,0,.05-.58,1.07,1.07,0,0,0-.84-.37,1,1,0,0,0-.17,0l-.13.09Z" transform="translate(0 0)"/></g></g><path class="cls-11" d="M337.51,60a.3.3,0,0,0,.06-.42.27.27,0,0,0-.08-.07l-.05,0-.05,0h-.12l0,0-.05,0a.27.27,0,0,0-.08.07.3.3,0,0,0,.06.42l.1.07a1.33,1.33,0,0,1,.21,0Z" transform="translate(0 0)"/><g class="cls-5"><g class="cls-45"><path class="cls-7" d="M337.51,60a.3.3,0,0,0,.06-.42.27.27,0,0,0-.08-.07l-.05,0-.05,0h-.12l0,0-.05,0a.27.27,0,0,0-.08.07.3.3,0,0,0,.06.42l.1.07a1.33,1.33,0,0,1,.21,0Z" transform="translate(0 0)"/></g></g><path class="cls-11" d="M337.46,60a1.33,1.33,0,0,0-.21,0l.08.06Z" transform="translate(0 0)"/><g class="cls-5"><g class="cls-46"><path class="cls-7" d="M337.46,60a1.33,1.33,0,0,0-.21,0l.08.06Z" transform="translate(0 0)"/></g></g><path class="cls-47" d="M291.83,182.65l91-1.46V95H293.32ZM323,171.42H305.7v-2h-2V152.94h17.33v2h2Zm53.19-34.09v38.18H348.68v-2h-2V170.6h-17.9v-2h-2v-8.56h19.87V135.34h27.53v2Zm-73.51-35.08H354v2h2l-.06,21.34h-25l-.61,18.55H308.51l.24-2h-2.21l2-16.56h-3.88v-2h-2Z" transform="translate(0 0)"/><g class="cls-5"><g class="cls-48"><path class="cls-7" d="M291.83,182.65l91-1.46V95H293.32ZM323,171.42H305.7v-2h-2V152.94h17.33v2h2Zm53.19-34.09v38.18H348.68v-2h-2V170.6h-17.9v-2h-2v-8.56h19.87V135.34h27.53v2Zm-73.51-35.08H354v2h2l-.06,21.34h-25l-.61,18.55H308.51l.24-2h-2.21l2-16.56h-3.88v-2h-2Z" transform="translate(0 0)"/></g></g><polygon class="cls-49" points="390.44 90.43 390.44 89.45 388.37 87.41 388.37 90.43 390.44 90.43"/><g class="cls-5"><g class="cls-50"><polygon class="cls-7" points="390.44 90.43 390.44 89.45 388.37 87.41 388.37 90.43 390.44 90.43"/></g></g><polygon class="cls-49" points="284.05 188.36 286.12 190.39 286.55 190.39 286.58 188.32 284.05 188.36"/><g class="cls-5"><g class="cls-51"><polygon class="cls-7" points="284.05 188.36 286.12 190.39 286.55 190.39 286.58 188.32 284.05 188.36"/></g></g><polygon class="cls-49" points="390.44 90.43 388.37 90.43 388.37 182.69 388.37 186.68 286.58 188.32 286.55 190.39 390.44 188.72 390.44 90.43"/><g class="cls-5"><g class="cls-52"><polygon class="cls-7" points="390.44 90.43 388.37 90.43 388.37 182.69 388.37 186.68 286.58 188.32 286.55 190.39 390.44 188.72 390.44 90.43"/></g></g><path class="cls-49" d="M381.19,93.29a.32.32,0,0,1-.18-.06L380.7,93H294l-.31.24a.3.3,0,0,1-.42-.06.29.29,0,0,1-.05-.18h-1.93l-1.52,89.7,2.1,0L293.32,95h89.47V93h-1.3a.3.3,0,0,1-.3.3" transform="translate(0 0)"/><g class="cls-5"><g class="cls-53"><path class="cls-7" d="M381.19,93.29a.32.32,0,0,1-.18-.06L380.7,93H294l-.31.24a.3.3,0,0,1-.42-.06.29.29,0,0,1-.05-.18h-1.93l-1.52,89.7,2.1,0L293.32,95h89.47V93h-1.3a.3.3,0,0,1-.3.3" transform="translate(0 0)"/></g></g><path class="cls-49" d="M293.23,93.17a.3.3,0,0,0,.42.06L294,93h-.79a.3.3,0,0,0,.06.18" transform="translate(0 0)"/><g class="cls-5"><g class="cls-54"><path class="cls-7" d="M293.23,93.17a.3.3,0,0,0,.42.06L294,93h-.79a.3.3,0,0,0,.06.18" transform="translate(0 0)"/></g></g><path class="cls-49" d="M381,93.23a.32.32,0,0,0,.18.06.3.3,0,0,0,.3-.3h-.79Z" transform="translate(0 0)"/><g class="cls-5"><g class="cls-55"><path class="cls-7" d="M381,93.23a.32.32,0,0,0,.18.06.3.3,0,0,0,.3-.3h-.79Z" transform="translate(0 0)"/></g></g><polygon class="cls-56" points="287.83 89.45 297.64 89.45 300.33 87.41 285.76 87.41 284.05 188.36 286.23 184.16 287.83 89.45"/><g class="cls-5"><g class="cls-57"><polygon class="cls-7" points="287.83 89.45 297.64 89.45 300.33 87.41 285.76 87.41 284.05 188.36 286.23 184.16 287.83 89.45"/></g></g><polygon class="cls-56" points="306.25 87.41 301.32 87.41 298.63 89.45 303.93 89.45 306.25 87.41"/><g class="cls-5"><g class="cls-58"><polygon class="cls-7" points="306.25 87.41 301.32 87.41 298.63 89.45 303.93 89.45 306.25 87.41"/></g></g><polygon class="cls-56" points="375.54 89.45 376.03 89.45 373.34 87.41 372.92 87.41 375.54 89.45"/><g class="cls-5"><g class="cls-59"><polygon class="cls-7" points="375.54 89.45 376.03 89.45 373.34 87.41 372.92 87.41 375.54 89.45"/></g></g><polygon class="cls-56" points="374.56 89.45 371.94 87.41 307.22 87.41 304.91 89.45 374.56 89.45"/><g class="cls-5"><g class="cls-60"><polygon class="cls-7" points="374.56 89.45 371.94 87.41 307.22 87.41 304.91 89.45 374.56 89.45"/></g></g><polygon class="cls-56" points="385.81 89.45 388.37 87.41 374.33 87.41 377.02 89.45 385.81 89.45"/><g class="cls-5"><g class="cls-61"><polygon class="cls-7" points="385.81 89.45 388.37 87.41 374.33 87.41 377.02 89.45 385.81 89.45"/></g></g><polygon class="cls-56" points="307.22 87.41 306.25 87.41 303.93 89.45 304.91 89.45 307.22 87.41"/><g class="cls-5"><g class="cls-62"><polygon class="cls-7" points="307.22 87.41 306.25 87.41 303.93 89.45 304.91 89.45 307.22 87.41"/></g></g><polygon class="cls-56" points="291.8 184.72 384.86 183.23 384.86 182.76 291.8 184.66 291.8 184.72"/><g class="cls-5"><g class="cls-63"><polygon class="cls-7" points="291.8 184.72 384.86 183.23 384.86 182.76 291.8 184.66 291.8 184.72"/></g></g><polygon class="cls-56" points="375.54 89.45 372.92 87.41 371.94 87.41 374.56 89.45 375.54 89.45"/><g class="cls-5"><g class="cls-64"><polygon class="cls-7" points="375.54 89.45 372.92 87.41 371.94 87.41 374.56 89.45 375.54 89.45"/></g></g><polygon class="cls-56" points="298.63 89.45 301.32 87.41 300.33 87.41 297.64 89.45 298.63 89.45"/><g class="cls-5"><g class="cls-65"><polygon class="cls-7" points="298.63 89.45 301.32 87.41 300.33 87.41 297.64 89.45 298.63 89.45"/></g></g><polygon class="cls-56" points="376.03 89.45 377.02 89.45 374.33 87.41 373.34 87.41 376.03 89.45"/><g class="cls-5"><g class="cls-66"><polygon class="cls-7" points="376.03 89.45 377.02 89.45 374.33 87.41 373.34 87.41 376.03 89.45"/></g></g><polygon class="cls-56" points="291.83 182.65 291.8 184.66 384.86 182.76 384.86 95.03 382.79 95.03 382.79 181.19 291.83 182.65"/><g class="cls-5"><g class="cls-67"><polygon class="cls-7" points="291.83 182.65 291.8 184.66 384.86 182.76 384.86 95.03 382.79 95.03 382.79 181.19 291.83 182.65"/></g></g><polygon class="cls-56" points="385.81 89.45 377.02 89.45 377.43 89.76 385.81 89.45"/><g class="cls-5"><g class="cls-68"><polygon class="cls-7" points="385.81 89.45 377.02 89.45 377.43 89.76 385.81 89.45"/></g></g><polygon class="cls-56" points="304.91 89.45 303.8 90.43 359.54 90.43 375.07 89.85 374.56 89.45 304.91 89.45"/><g class="cls-5"><g class="cls-69"><polygon class="cls-7" points="304.91 89.45 303.8 90.43 359.54 90.43 375.07 89.85 374.56 89.45 304.91 89.45"/></g></g><polygon class="cls-56" points="376.01 89.81 376.49 89.8 376.03 89.45 375.54 89.45 376.01 89.81"/><g class="cls-5"><g class="cls-70"><polygon class="cls-7" points="376.01 89.81 376.49 89.8 376.03 89.45 375.54 89.45 376.01 89.81"/></g></g><polygon class="cls-56" points="288.24 90.43 296.35 90.43 297.64 89.45 287.83 89.45 286.23 184.16 284.05 188.36 286.58 188.32 288.24 90.43"/><g class="cls-5"><g class="cls-71"><polygon class="cls-7" points="288.24 90.43 296.35 90.43 297.64 89.45 287.83 89.45 286.23 184.16 284.05 188.36 286.58 188.32 288.24 90.43"/></g></g><polygon class="cls-56" points="302.81 90.43 303.93 89.45 298.63 89.45 297.34 90.43 302.81 90.43"/><g class="cls-5"><g class="cls-72"><polygon class="cls-7" points="302.81 90.43 303.93 89.45 298.63 89.45 297.34 90.43 302.81 90.43"/></g></g><polygon class="cls-56" points="385.83 90.43 388.37 90.43 388.37 87.41 385.81 89.45 385.83 90.43"/><g class="cls-5"><g class="cls-73"><polygon class="cls-7" points="385.83 90.43 388.37 90.43 388.37 87.41 385.81 89.45 385.83 90.43"/></g></g><path class="cls-56" d="M384.86,183.23l-93.06,1.49v-.06l-3.3.06L291.25,93l1.93-.07a.28.28,0,0,1,.11-.17l3.06-2.32h-8.11l-1.66,97.89,101.79-1.64v-4l-3.51.07Z" transform="translate(0 0)"/><g class="cls-5"><g class="cls-74"><path class="cls-7" d="M384.86,183.23l-93.06,1.49v-.06l-3.3.06L291.25,93l1.93-.07a.28.28,0,0,1,.11-.17l3.06-2.32h-8.11l-1.66,97.89,101.79-1.64v-4l-3.51.07Z" transform="translate(0 0)"/></g></g><polygon class="cls-56" points="388.37 182.69 388.37 90.43 385.83 90.43 388.37 182.69"/><g class="cls-5"><g class="cls-75"><polygon class="cls-7" points="388.37 182.69 388.37 90.43 385.83 90.43 388.37 182.69"/></g></g><polygon class="cls-56" points="375.07 89.85 376.01 89.81 375.54 89.45 374.56 89.45 375.07 89.85"/><g class="cls-5"><g class="cls-76"><polygon class="cls-7" points="375.07 89.85 376.01 89.81 375.54 89.45 374.56 89.45 375.07 89.85"/></g></g><polygon class="cls-56" points="303.8 90.43 304.91 89.45 303.93 89.45 302.81 90.43 297.34 90.43 294.11 92.88 359.54 90.43 303.8 90.43"/><g class="cls-5"><g class="cls-77"><polygon class="cls-7" points="303.8 90.43 304.91 89.45 303.93 89.45 302.81 90.43 297.34 90.43 294.11 92.88 359.54 90.43 303.8 90.43"/></g></g><polygon class="cls-56" points="298.63 89.45 297.64 89.45 296.35 90.43 297.34 90.43 298.63 89.45"/><g class="cls-5"><g class="cls-78"><polygon class="cls-7" points="298.63 89.45 297.64 89.45 296.35 90.43 297.34 90.43 298.63 89.45"/></g></g><path class="cls-56" d="M293.18,92.92l.92,0,3.24-2.45h-1l-3.06,2.32a.28.28,0,0,0-.11.17" transform="translate(0 0)"/><g class="cls-5"><g class="cls-79"><path class="cls-7" d="M293.18,92.92l.92,0,3.24-2.45h-1l-3.06,2.32a.28.28,0,0,0-.11.17" transform="translate(0 0)"/></g></g><polygon class="cls-56" points="377.43 89.76 377.02 89.45 376.03 89.45 376.49 89.8 377.43 89.76"/><g class="cls-5"><g class="cls-80"><polygon class="cls-7" points="377.43 89.76 377.02 89.45 376.03 89.45 376.49 89.8 377.43 89.76"/></g></g><polygon class="cls-56" points="375.82 90.43 375.07 89.85 359.54 90.43 375.82 90.43"/><g class="cls-5"><g class="cls-81"><polygon class="cls-7" points="375.82 90.43 375.07 89.85 359.54 90.43 375.82 90.43"/></g></g><polygon class="cls-56" points="378.31 90.43 385.83 90.43 385.81 89.45 377.43 89.76 378.31 90.43"/><g class="cls-5"><g class="cls-82"><polygon class="cls-7" points="378.31 90.43 385.83 90.43 385.81 89.45 377.43 89.76 378.31 90.43"/></g></g><polygon class="cls-56" points="377.32 90.43 376.49 89.8 376.01 89.81 376.81 90.43 377.32 90.43"/><g class="cls-5"><g class="cls-83"><polygon class="cls-7" points="377.32 90.43 376.49 89.8 376.01 89.81 376.81 90.43 377.32 90.43"/></g></g><polygon class="cls-56" points="380.7 92.99 377.33 90.43 376.81 90.43 376.01 89.81 375.07 89.85 375.82 90.43 359.54 90.43 294.1 92.88 293.96 92.99 380.7 92.99"/><g class="cls-5"><g class="cls-84"><polygon class="cls-7" points="380.7 92.99 377.33 90.43 376.81 90.43 376.01 89.81 375.07 89.85 375.82 90.43 359.54 90.43 294.1 92.88 293.96 92.99 380.7 92.99"/></g></g><path class="cls-56" d="M293.18,92.92l-1.93.07h1.92s0,0,0-.07" transform="translate(0 0)"/><g class="cls-5"><g class="cls-85"><path class="cls-7" d="M293.18,92.92l-1.93.07h1.92s0,0,0-.07" transform="translate(0 0)"/></g></g><path class="cls-56" d="M378.31,90.43l3.06,2.32a.3.3,0,0,1,.12.24h1.3v2h2.07v87.73l3.51-.07-2.54-92.26Z" transform="translate(0 0)"/><g class="cls-5"><g class="cls-86"><path class="cls-7" d="M378.31,90.43l3.06,2.32a.3.3,0,0,1,.12.24h1.3v2h2.07v87.73l3.51-.07-2.54-92.26Z" transform="translate(0 0)"/></g></g><polygon class="cls-56" points="289.73 182.69 291.25 92.99 288.5 184.72 291.8 184.66 291.83 182.65 289.73 182.69"/><g class="cls-5"><g class="cls-87"><polygon class="cls-7" points="289.73 182.69 291.25 92.99 288.5 184.72 291.8 184.66 291.83 182.65 289.73 182.69"/></g></g><path class="cls-56" d="M293.18,93H294l.15-.11-.93,0V93" transform="translate(0 0)"/><g class="cls-5"><g class="cls-88"><path class="cls-7" d="M293.18,93H294l.15-.11-.93,0V93" transform="translate(0 0)"/></g></g><polygon class="cls-56" points="376.49 89.8 377.32 90.43 378.31 90.43 377.43 89.76 376.49 89.8"/><g class="cls-5"><g class="cls-89"><polygon class="cls-7" points="376.49 89.8 377.32 90.43 378.31 90.43 377.43 89.76 376.49 89.8"/></g></g><path class="cls-56" d="M380.7,93h.79a.3.3,0,0,0-.12-.24l-3.06-2.32h-1Z" transform="translate(0 0)"/><g class="cls-5"><g class="cls-90"><path class="cls-7" d="M380.7,93h.79a.3.3,0,0,0-.12-.24l-3.06-2.32h-1Z" transform="translate(0 0)"/></g></g><polygon class="cls-91" points="328.97 123.59 328.36 142.14 308.75 142.14 308.51 144.13 330.33 144.13 330.94 125.58 355.92 125.58 355.98 104.24 354 104.24 353.95 123.59 328.97 123.59"/><g class="cls-5"><g class="cls-92"><polygon class="cls-7" points="328.97 123.59 328.36 142.14 308.75 142.14 308.51 144.13 330.33 144.13 330.94 125.58 355.92 125.58 355.98 104.24 354 104.24 353.95 123.59 328.97 123.59"/></g></g><polygon class="cls-91" points="304.68 123.59 304.68 125.58 308.56 125.58 308.8 123.59 304.68 123.59"/><g class="cls-5"><g class="cls-93"><polygon class="cls-7" points="304.68 123.59 304.68 125.58 308.56 125.58 308.8 123.59 304.68 123.59"/></g></g><rect class="cls-91" x="328.82" y="168.61" width="17.9" height="1.99"/><g class="cls-5"><g class="cls-94"><rect class="cls-7" x="328.82" y="168.61" width="17.9" height="1.99"/></g></g><polygon class="cls-91" points="348.68 173.52 348.68 175.51 376.21 175.51 376.21 137.33 374.25 137.33 374.25 173.52 348.68 173.52"/><g class="cls-5"><g class="cls-95"><polygon class="cls-7" points="348.68 173.52 348.68 175.51 376.21 175.51 376.21 137.33 374.25 137.33 374.25 173.52 348.68 173.52"/></g></g><polygon class="cls-91" points="321.06 169.42 305.7 169.42 305.7 171.41 323.03 171.41 323.03 154.93 321.06 154.93 321.06 169.42"/><g class="cls-5"><g class="cls-96"><polygon class="cls-7" points="321.06 169.42 305.7 169.42 305.7 171.41 323.03 171.41 323.03 154.93 321.06 154.93 321.06 169.42"/></g></g><polygon class="cls-20" points="304.68 104.24 354 104.24 354.01 102.25 302.71 102.25 302.71 123.59 304.68 123.59 304.68 104.24"/><g class="cls-5"><g class="cls-97"><polygon class="cls-7" points="304.68 104.24 354 104.24 354.01 102.25 302.71 102.25 302.71 123.59 304.68 123.59 304.68 104.24"/></g></g><polygon class="cls-20" points="304.68 123.59 308.8 123.59 310.81 107.07 329.51 107.07 328.97 123.59 353.95 123.59 354 104.24 304.68 104.24 304.68 123.59"/><g class="cls-5"><g class="cls-98"><polygon class="cls-7" points="304.68 123.59 308.8 123.59 310.81 107.07 329.51 107.07 328.97 123.59 353.95 123.59 354 104.24 304.68 104.24 304.68 123.59"/></g></g><polygon class="cls-99" points="308.56 125.58 306.54 142.14 308.75 142.14 310.77 125.58 308.56 125.58"/><g class="cls-5"><g class="cls-100"><polygon class="cls-7" points="308.56 125.58 306.54 142.14 308.75 142.14 310.77 125.58 308.56 125.58"/></g></g><polygon class="cls-99" points="328.97 123.59 308.8 123.59 308.56 125.58 310.77 125.58 308.75 142.14 328.36 142.14 328.97 123.59"/><g class="cls-5"><g class="cls-101"><polygon class="cls-7" points="328.97 123.59 308.8 123.59 308.56 125.58 310.77 125.58 308.75 142.14 328.36 142.14 328.97 123.59"/></g></g><polygon class="cls-99" points="329.51 107.07 310.81 107.07 308.8 123.59 328.97 123.59 329.51 107.07"/><g class="cls-5"><g class="cls-102"><polygon class="cls-7" points="329.51 107.07 310.81 107.07 308.8 123.59 328.97 123.59 329.51 107.07"/></g></g><polygon class="cls-20" points="346.72 135.34 346.72 160.05 348.68 160.05 348.68 137.33 374.25 137.33 374.25 135.34 346.72 135.34"/><g class="cls-5"><g class="cls-103"><polygon class="cls-7" points="346.72 135.34 346.72 160.05 348.68 160.05 348.68 137.33 374.25 137.33 374.25 135.34 346.72 135.34"/></g></g><rect class="cls-20" x="346.72" y="170.6" width="1.97" height="2.92"/><g class="cls-5"><g class="cls-104"><rect class="cls-7" x="346.72" y="170.6" width="1.97" height="2.92"/></g></g><path class="cls-20" d="M348.68,160.05h10.14v8.56h-12.1v2h2v2.92h25.57V137.33H348.68Zm1.66-20.2H362v5.08H350.34Z" transform="translate(0 0)"/><g class="cls-5"><g class="cls-105"><path class="cls-7" d="M348.68,160.05h10.14v8.56h-12.1v2h2v2.92h25.57V137.33H348.68Zm1.66-20.2H362v5.08H350.34Z" transform="translate(0 0)"/></g></g><polygon class="cls-14" points="346.72 162.04 346.72 160.05 326.85 160.05 326.85 168.61 328.82 168.61 328.82 162.04 346.72 162.04"/><g class="cls-5"><g class="cls-106"><polygon class="cls-7" points="346.72 162.04 346.72 160.05 326.85 160.05 326.85 168.61 328.82 168.61 328.82 162.04 346.72 162.04"/></g></g><rect class="cls-14" x="328.82" y="162.04" width="17.9" height="6.57"/><g class="cls-5"><g class="cls-107"><rect class="cls-7" x="328.82" y="162.04" width="17.9" height="6.57"/></g></g><rect class="cls-14" x="346.72" y="160.05" width="1.97" height="1.99"/><g class="cls-5"><g class="cls-108"><rect class="cls-7" x="346.72" y="160.05" width="1.97" height="1.99"/></g></g><polygon class="cls-14" points="346.72 162.04 346.72 168.61 358.82 168.61 358.82 160.05 348.68 160.05 348.68 162.04 346.72 162.04"/><g class="cls-5"><g class="cls-109"><polygon class="cls-7" points="346.72 162.04 346.72 168.61 358.82 168.61 358.82 160.05 348.68 160.05 348.68 162.04 346.72 162.04"/></g></g><rect class="cls-14" x="350.34" y="139.85" width="11.62" height="5.08"/><g class="cls-5"><g class="cls-110"><rect class="cls-7" x="350.34" y="139.85" width="11.62" height="5.08"/></g></g><polygon class="cls-56" points="321.06 154.93 321.06 152.94 303.73 152.94 303.73 169.42 305.7 169.42 305.7 154.93 321.06 154.93"/><g class="cls-5"><g class="cls-111"><polygon class="cls-7" points="321.06 154.93 321.06 152.94 303.73 152.94 303.73 169.42 305.7 169.42 305.7 154.93 321.06 154.93"/></g></g><rect class="cls-56" x="305.7" y="154.93" width="15.36" height="14.49"/><g class="cls-5"><g class="cls-112"><rect class="cls-7" x="305.7" y="154.93" width="15.36" height="14.49"/></g></g></g></g><g class="cls-113"><g class="cls-114"><path class="cls-115" d="M207.05,261.14s0-1,0-2.94,0-4.79,0-8.52c0-7.46-.05-18.39-.08-32.34,0-27.86-.09-67.73-.15-115.83l.29.29-200.61.06h0l.34-.35c0,57.63,0,112.09,0,159.63l-.31-.31,144.92.15,41.06.09,10.88,0,2.8,0,1,0-.92,0-2.77,0-10.82,0-41,.08-145.12.16H6.11v-.31c0-47.54,0-102,0-159.63v-.35h.36l200.61.06h.29v.29c-.06,48.18-.11,88.11-.15,116,0,13.91-.06,24.82-.08,32.27,0,3.7,0,6.53,0,8.46s0,2.88,0,2.88" transform="translate(0 0)"/><rect class="cls-115" x="32.36" y="131.1" width="7.25" height="81.02"/><rect class="cls-116" x="46.36" y="158.61" width="7.25" height="53.5"/><rect class="cls-115" x="60.37" y="141.17" width="7.25" height="71.36"/><rect class="cls-116" x="74.38" y="134.22" width="7.25" height="77.89"/><rect class="cls-115" x="88.38" y="160.26" width="7.25" height="51.85"/><rect class="cls-116" x="102.39" y="170.43" width="7.25" height="41.69"/><rect class="cls-115" x="116.39" y="139.41" width="7.26" height="72.7"/><rect class="cls-116" x="130.4" y="152.52" width="7.26" height="59.6"/><rect class="cls-115" x="144.4" y="142.05" width="7.26" height="70.07"/><rect class="cls-116" x="158.41" y="164.38" width="7.25" height="47.74"/><rect class="cls-115" x="172.41" y="155.29" width="7.25" height="56.82"/><path class="cls-115" d="M182.63,217.76c0,.16-34.41.3-76.85.3s-76.86-.14-76.86-.3,34.41-.3,76.86-.3,76.85.13,76.85.3" transform="translate(0 0)"/><path class="cls-115" d="M42.71,224.13c0,.17-2.41.3-5.39.3s-5.38-.13-5.38-.3a25.23,25.23,0,0,1,5.38-.29,25.29,25.29,0,0,1,5.39.29" transform="translate(0 0)"/><path class="cls-115" d="M60.57,224.46a35.49,35.49,0,0,1-6.44.3,35.33,35.33,0,0,1-6.43-.3,35.33,35.33,0,0,1,6.43-.3,35.49,35.49,0,0,1,6.44.3" transform="translate(0 0)"/><path class="cls-115" d="M75.8,224.46a35.4,35.4,0,0,1-6.44.3,35.33,35.33,0,0,1-6.43-.3,35.33,35.33,0,0,1,6.43-.3,35.4,35.4,0,0,1,6.44.3" transform="translate(0 0)"/><path class="cls-115" d="M91,224.46a35.4,35.4,0,0,1-6.44.3,35.33,35.33,0,0,1-6.43-.3,35.33,35.33,0,0,1,6.43-.3,35.4,35.4,0,0,1,6.44.3" transform="translate(0 0)"/><path class="cls-115" d="M106.26,224.46a35.33,35.33,0,0,1-6.43.3,35.4,35.4,0,0,1-6.44-.3,35.4,35.4,0,0,1,6.44-.3,35.33,35.33,0,0,1,6.43.3" transform="translate(0 0)"/><path class="cls-115" d="M121.49,224.46a35.33,35.33,0,0,1-6.43.3,35.4,35.4,0,0,1-6.44-.3,35.4,35.4,0,0,1,6.44-.3,35.33,35.33,0,0,1,6.43.3" transform="translate(0 0)"/><path class="cls-115" d="M136.72,224.46a35.33,35.33,0,0,1-6.43.3,35.33,35.33,0,0,1-6.43-.3,35.33,35.33,0,0,1,6.43-.3,35.33,35.33,0,0,1,6.43.3" transform="translate(0 0)"/><path class="cls-115" d="M152,224.46a35.49,35.49,0,0,1-6.44.3,35.33,35.33,0,0,1-6.43-.3,35.33,35.33,0,0,1,6.43-.3,35.49,35.49,0,0,1,6.44.3" transform="translate(0 0)"/><path class="cls-115" d="M167.19,224.46a35.4,35.4,0,0,1-6.44.3,35.33,35.33,0,0,1-6.43-.3,35.33,35.33,0,0,1,6.43-.3,35.4,35.4,0,0,1,6.44.3" transform="translate(0 0)"/><path class="cls-115" d="M182.42,224.46a35.4,35.4,0,0,1-6.44.3,35.33,35.33,0,0,1-6.43-.3,35.33,35.33,0,0,1,6.43-.3,35.4,35.4,0,0,1,6.44.3" transform="translate(0 0)"/><rect class="cls-116" y="100.57" width="212.74" height="6"/></g></g><path class="cls-117" d="M188.25,201.34s5.12,4.25,7.57,9.26c.62,1.25,1.27,5.2,2,10.51h55.37c.34-5.32,1-9.24,2.2-10.2,4.54-3.55,59.69-38.55,45.43-91.24s-50-62.62-66.59-64.72-75.76,10.28-85.82,66.53c-8.21,45.91,32.22,70.61,39.8,79.86" transform="translate(0 0)"/><path class="cls-118" d="M213.45,224.38s0-42.71-3.12-48.81-17.51-27.44-20-31.94,2.57-9.72,6.4-3.07c3.28,5.69,17.26,25.17,20.38,33.14s5.79,52.81,5.79,52.81Z" transform="translate(0 0)"/><path class="cls-118" d="M237.12,224.38s0-42.71,3.12-48.81,17.51-27.44,19.95-31.94-2.56-9.72-6.39-3.07c-3.28,5.69-17.26,25.17-20.38,33.14s-5.79,52.81-5.79,52.81Z" transform="translate(0 0)"/><path class="cls-118" d="M257.8,142.18c-5.78,2.7-15.63,3-22.9.82l-.2.15c-6,4.45-14.34,2.75-20.5-1.75-7.64,3-18.15,3.36-19.75,3.39l0-4.08a66.87,66.87,0,0,0,16.33-2.38c-4.24-4.6-5.15-9.57-2.31-13,3.56-4.29,8.08-4,10.93-1.84a9.53,9.53,0,0,1,1.87,12.94,11.11,11.11,0,0,1-2.87,2.8c3.84,2.26,8.38,3.25,12,1.83a11.33,11.33,0,0,1-3.13-2.61c-1.24-1.56-2.86-4.84.29-9.18,2.11-2.93,4.88-4.27,7.6-3.7a7.07,7.07,0,0,1,5.21,5.83,10.56,10.56,0,0,1-2.2,8.28c5.91,1.3,13.49,1.08,18.18-1.1Zm-25.63-12a6.59,6.59,0,0,0-1.42,1.49c-1.58,2.19-1,3.44-.35,4.29a9.45,9.45,0,0,0,3.76,2.55c1.88-1.94,2.75-4.15,2.37-6.17a3.29,3.29,0,0,0-2.25-2.75,2.62,2.62,0,0,0-2.11.59m-17.26,6.55a8.12,8.12,0,0,0,3-2.43,5.49,5.49,0,0,0-1-7.46c-1.71-1.28-3.66-.86-5.36,1.17s.19,5.43,2.32,7.7c.33.35.67.69,1,1" transform="translate(0 0)"/><path class="cls-119" d="M225.28,215c-15.47,0-28.7-4-30.94-5.29a10.36,10.36,0,0,1,.52.92c2.08,4.25,4.67,39.68,10.24,53.36,1,2.41,2.06,4.15,3.24,4.92,3.19,2.07,9.86,4.27,16.94,3.94,7.08.33,13.75-1.87,16.95-3.94,1.18-.77,2.26-2.51,3.24-4.92,5.56-13.68,8.15-49.11,10.24-53.36.15-.32.34-.62.51-.92C254,210.93,240.75,215,225.28,215" transform="translate(0 0)"/><path class="cls-120" d="M225.28,231a98.66,98.66,0,0,0,27.57-4c.58-4.21,1.11-8,1.59-10.89a82.29,82.29,0,0,1-58.32,0c.49,2.89,1,6.68,1.6,10.89a98.59,98.59,0,0,0,27.56,4" transform="translate(0 0)"/><path class="cls-120" d="M225.28,249.05a103.59,103.59,0,0,0,24.7-3.19c.62-3.54,1.19-7.19,1.71-10.75a82.21,82.21,0,0,1-52.82,0c.53,3.56,1.09,7.21,1.72,10.75a103.5,103.5,0,0,0,24.69,3.19" transform="translate(0 0)"/><path class="cls-120" d="M202.27,254.33A65.25,65.25,0,0,0,205.1,264c.17.41.34.78.52,1.15a111.24,111.24,0,0,0,19.66,2,111.35,111.35,0,0,0,19.67-2c.18-.37.35-.74.52-1.15a65.25,65.25,0,0,0,2.83-9.63,82.45,82.45,0,0,1-46,0" transform="translate(0 0)"/><polygon class="cls-120" points="165.42 231.46 145.9 231.46 112 265.63 133.97 265.63 165.42 231.46"/><polygon class="cls-120" points="285.92 231.46 305.44 231.46 339.34 265.63 317.38 265.63 285.92 231.46"/><rect class="cls-117" x="154.76" y="231.46" width="141.82" height="118.23"/><path class="cls-121" d="M274.54,249c-.33-3.53-3.35-13.84-11.46-28.56s-1.59-23.7,10.81-23.17,10.79-9.64,20.88-9.64,8.49,10.17,20.89,9.64,18.92,8.45,10.81,23.17S315.34,245.46,315,249c-2.94,31.29-37.51,31.29-40.46,0" transform="translate(0 0)"/><path class="cls-121" d="M294.44,243.79c36.54,0,66.17,29.4,66.17,65.68s3,65.68-66.17,65.68-66.17-29.41-66.17-65.68,29.63-65.68,66.17-65.68" transform="translate(0 0)"/><path class="cls-122" d="M294.44,243.79a66.21,66.21,0,0,1,46.87,19.32,65,65,0,0,1,6.41,28.23c0,36.28,3,65.68-66.16,65.68-25.24,0-40.86-3.92-50.53-10.65-3.18-10.52-2.76-23.22-2.76-36.9,0-36.28,29.63-65.68,66.17-65.68" transform="translate(0 0)"/><path class="cls-123" d="M267.42,233.24h54.05a3.76,3.76,0,0,1,0,7.52H267.42a3.76,3.76,0,0,1,0-7.52" transform="translate(0 0)"/><path class="cls-123" d="M267.42,240.76h54.05a3.76,3.76,0,0,1,0,7.51H267.42a3.76,3.76,0,1,1,0-7.51" transform="translate(0 0)"/><path class="cls-124" d="M301.58,274.63a17.45,17.45,0,0,1,7.54,4.12,18.81,18.81,0,0,1,5.35,10.71l-11.31,1.48a10.83,10.83,0,0,0-1.58-4.05Zm0,27.78c5.12,1.75,8.74,3.88,10.83,6.39q3.9,4.62,3.89,11.87a19.55,19.55,0,0,1-14.72,19.64V329.66a9,9,0,0,0,1.67-1.54,8.75,8.75,0,0,0,2.11-5.85,7.92,7.92,0,0,0-1.77-5.16,8,8,0,0,0-2-1.73Zm-10.26,28.18V311.86c-1-.28-2-.6-2.88-.94V297.39a11.46,11.46,0,0,0,2.88,1.73V283.65a8.43,8.43,0,0,0-2.88,1.61v-10.9a25.45,25.45,0,0,1,2.88-.47v-4.42h6.47v4.42a26.78,26.78,0,0,1,3.79.74v12.26a8.54,8.54,0,0,0-3.79-3.11v17.48c1.34.36,2.6.74,3.79,1.15v13a15.16,15.16,0,0,0-3.79-1.59v17.43a9.51,9.51,0,0,0,3.79-1.56v10.65a30.55,30.55,0,0,1-3.79.8v8.36h-6.47v-8.15a25.38,25.38,0,0,1-2.88-.51V328.54a10.89,10.89,0,0,0,2.88,2m-2.88-19.67a22.51,22.51,0,0,1-10-6.64A19.12,19.12,0,0,1,274.36,292,17.44,17.44,0,0,1,279,279.65a17.86,17.86,0,0,1,9.45-5.29v10.9a7.8,7.8,0,0,0-1.33,1.42,7.93,7.93,0,0,0-1.56,4.75,7.46,7.46,0,0,0,1.42,4.39,7.75,7.75,0,0,0,1.47,1.57Zm0,29.89a19.84,19.84,0,0,1-9.7-5.26c-3.22-3.2-5.26-7.75-6.16-13.63l11.67-1.25a15,15,0,0,0,2.69,6.17,13.89,13.89,0,0,0,1.5,1.7Z" transform="translate(0 0)"/><path class="cls-125" d="M315.29,245.31c10.06,11.9,15,26.44,10.72,49.23" transform="translate(0 0)"/><path class="cls-125" d="M315.29,245.31c13.9,7,24.13,18.49,29.07,41.15" transform="translate(0 0)"/><path class="cls-122" d="M265.74,225.44q-1.23-2.41-2.66-5c-8.12-14.72-1.59-23.7,10.81-23.17s10.79-9.64,20.88-9.64,8.49,10.17,20.89,9.64a19.52,19.52,0,0,1,6.49.74c-1.57,4.61-2.39,8-3.26,10.13-7.6,19-34.08,24.09-53.15,17.31" transform="translate(0 0)"/></g></g></g></svg>