<svg xmlns="http://www.w3.org/2000/svg" xmlns:xlink="http://www.w3.org/1999/xlink" viewBox="0 0 71.47 74.98"><defs><style>.cls-1{fill:none;}.cls-2{isolation:isolate;}.cls-3{fill:#218400;}.cls-4{fill:#110239;}.cls-5{fill:#f45762;}.cls-6{opacity:0.35;mix-blend-mode:multiply;}.cls-7{clip-path:url(#clip-path);}.cls-8{fill:#c9071e;}.cls-9{fill:#fcd4ca;}.cls-10{fill:#e8a393;}.cls-11{fill:#bbeadb;}.cls-12{fill:#83ccc3;}.cls-13{fill:#198068;}.cls-14{fill:#4dc5ac;}.cls-15{fill:#87decd;}.cls-16{fill:#f5a505;}.cls-17{fill:#ffca00;}.cls-18{opacity:0.3;}.cls-18,.cls-22{mix-blend-mode:screen;}.cls-19{clip-path:url(#clip-path-2);}.cls-20{clip-path:url(#clip-path-3);}.cls-21{clip-path:url(#clip-path-4);}.cls-22{opacity:0.4;}.cls-23{clip-path:url(#clip-path-5);}.cls-24{fill:#fff;}</style><clipPath id="clip-path"><rect class="cls-1" x="8.91" y="30.46" width="9.79" height="22.39"/></clipPath><clipPath id="clip-path-2"><rect class="cls-1" x="20.52" y="24.72" width="5.37" height="3.02"/></clipPath><clipPath id="clip-path-3"><rect class="cls-1" x="20.33" y="18.67" width="3.21" height="5.36"/></clipPath><clipPath id="clip-path-4"><rect class="cls-1" x="25.8" y="22.05" width="4.51" height="4.99"/></clipPath><clipPath id="clip-path-5"><rect class="cls-1" x="17.11" y="12.12" width="14.33" height="19.46"/></clipPath></defs><g class="cls-2"><g id="Capa_2" data-name="Capa 2"><g id="Capa_1-2" data-name="Capa 1"><path class="cls-3" d="M71.47,40.8,62.73,67a6.06,6.06,0,0,1-11.49-3.83l7.49-22.45L51.22,17.38a6.06,6.06,0,1,1,11.53-3.71Z"/><path class="cls-4" d="M1.36,67.77s-1.68,3.3-1.31,4,7.42,3.61,8.26,3.19.88-1.63-.47-2.61-2.39-.89-3.25-1.68,0-2.29,0-2.29Z"/><path class="cls-4" d="M25,69s-.09,3.6.52,4.09,8.24.44,8.85-.27.22-1.7-1.33-2c-1.39-.28-2.42,0-3.5-.43s-1.46-2.48-1.46-2.48Z"/><path class="cls-5" d="M18.84,30.35,8.9,31s8.35,18.74,9.38,20.88,6.24,17.63,6.24,17.63l4-1.49S24,51.84,23.41,50.44s-4.57-20.09-4.57-20.09"/><g class="cls-6"><g class="cls-7"><path class="cls-8" d="M15.47,37.69c.32-1.67.55-3.82.91-5.48.15-.66,1.06-.69,1.13-1.34a1.68,1.68,0,0,1-.39-.41L8.9,31s8.35,18.74,9.38,20.88c.1.22.24.56.42,1,0-.36,0-.72-.05-1.08-.21-2.89-3.55-12.2-3.18-14.08"/></g></g><path class="cls-5" d="M16,31.19H7.55a12.92,12.92,0,0,0-1,6.72,118,118,0,0,1,.58,12.88C7.09,51.72,1.47,64.46.81,68l3.91,1.39s7.71-15.76,8-16.13,3.36-22,3.36-22"/><path class="cls-9" d="M18.42,27.42s1.68,2.42,2.84,2.23,8.25-5.08,8.25-5.08L28.86,23s-6.48,4.43-7.13,4.24-1.5-2-1.5-2Z"/><path class="cls-10" d="M18.42,27.42s1.68,2.42,2.84,2.23,8.25-5.08,8.25-5.08L28.86,23s-6.48,4.43-7.13,4.24-1.5-2-1.5-2Z"/><path class="cls-11" d="M5.35,34.05s8.51,1.93,15-.43c0,0-1.46-6-2-9.39s-1.2-8.64-3.13-10a8.88,8.88,0,0,0-3.22-1.5,2.34,2.34,0,0,1-1.53,1.53C9.37,14.59,7,12.78,7,12.78s-5.41,2.49-6,3.5C-.29,18.34,4.75,24.06,5.5,27.09a17.92,17.92,0,0,1-.15,7"/><path class="cls-12" d="M9.64,26.31c-.39-1.39-.36-4.48-2-6-.94-.9-2.1-2.3-3.51-2.55-1.7-.29-1.81.06-3.33-.29.32,2.56,4.07,7.09,4.7,9.67a17.92,17.92,0,0,1-.15,7,36.81,36.81,0,0,0,7.47.74,36.47,36.47,0,0,1-3.18-8.48"/><path class="cls-9" d="M5.92,8.91s1.91,3.4,1,4.43c0,0,2.56,2.33,4.57,1.35s.84-1.86.84-1.86-1.4-.61-2.1-3.55-4.29-.37-4.29-.37"/><path class="cls-10" d="M7.94,14.1a4.76,4.76,0,0,1,1.3-1.39A4.66,4.66,0,0,1,11.4,12a7.08,7.08,0,0,1-1.19-2.71c-.7-2.94-4.29-.37-4.29-.37s1.91,3.4,1,4.42a8.27,8.27,0,0,0,1,.77"/><path class="cls-4" d="M4.85,2.17a2.19,2.19,0,0,1-4.37,0,2.19,2.19,0,0,1,4.37,0"/><path class="cls-9" d="M9.28,2A2.71,2.71,0,0,1,11,3.66c.32,1.24.16.72.44.89S13.22,5.8,13.1,6a4.89,4.89,0,0,1-1,.75s.33.56.75,1.33S10.49,9.79,9.53,9.44,6.2,7.58,6.11,5.29s.94-4,3.17-3.29"/><path class="cls-4" d="M3.5,2S5.27,1.16,6.1.79a4.52,4.52,0,0,1,3-.65,2.17,2.17,0,0,1,1.66,3s-.86-1.17-1.69-.93S8.42,3.68,8,4.34s.43,3,.93,3.53c0,0,3.23.25,3.64-.29,0,0,.29.44.71,1.23s1.12,1.94.12,2.47-4,0-4.29-.28S8,8.57,7,8.9s-.68.88-.68.88-.58.38-1.91-.73A3.53,3.53,0,0,1,3.29,5.34,17.24,17.24,0,0,0,3.5,2"/><path class="cls-9" d="M7.76,7.68a6.44,6.44,0,0,0-1-1.44c-.52-.48-1.35.09-1.14,1.12s2.52.86,2.19.32"/><path class="cls-10" d="M6.15,6.62A.81.81,0,0,1,7,7c.32.46.07,1.13-.26.84s-.16-.51-.2-.73a.66.66,0,0,0-.42-.45"/><path class="cls-9" d="M29.24,24.29c.15-.1.36,0,.63.24-.35-.43-.76-.88-.36-.94s.67.55,1,.74c-.16-.21-1.06-.84-.71-1.31.21-.28,1.18.81,1.38,1-.19-.17-1-1-.57-1.21s.94.58,1.22.81.49.31.54.59c.09.55-.71.92-1.12,1A2.14,2.14,0,0,1,29.58,25c-.28-.16-.49-.61-.34-.71"/><rect class="cls-13" x="18.63" y="10.86" width="8.56" height="2.73" transform="translate(-2.01 4.94) rotate(-11.78)"/><rect class="cls-14" x="17.4" y="12.72" width="15.06" height="18.39" rx="3.95" transform="translate(-3.95 5.56) rotate(-11.79)"/><path class="cls-15" d="M23.11,30.7a3,3,0,0,1-3.52-2.31L17.44,18.12a3,3,0,0,1,2.31-3.52l7-1.46a3,3,0,0,1,3.52,2.3l2.14,10.27a3,3,0,0,1-2.31,3.52Z"/><path class="cls-16" d="M21.52,25.79a2.68,2.68,0,0,0,.39,3.77L25.3,25.4a2.69,2.69,0,0,0-3.78.39"/><path class="cls-16" d="M25.69,29.17a2.65,2.65,0,0,1-.61.55,2.61,2.61,0,0,1-1,.41,2.67,2.67,0,0,1-1.7-.29,2.26,2.26,0,0,1-.43-.28L25.3,25.4l.13.12a2.68,2.68,0,0,1,.26,3.65"/><path class="cls-17" d="M24.89,25.07a2.68,2.68,0,1,0,.39,3.77,2.67,2.67,0,0,0-.39-3.77"/><path class="cls-16" d="M21.47,25.74a2.23,2.23,0,0,0,.33,3.14l2.81-3.46a2.24,2.24,0,0,0-3.14.32"/><path class="cls-16" d="M24.61,25.42,21.8,28.88a2.23,2.23,0,0,0,2.81-3.46"/><path class="cls-17" d="M22,28.62a1.89,1.89,0,1,1,2.66-.28,1.89,1.89,0,0,1-2.66.28m2.33-2.87a1.81,1.81,0,1,0,.27,2.54,1.81,1.81,0,0,0-.27-2.54"/><path class="cls-17" d="M22.94,26.17a.59.59,0,0,1,.92-.08l.18-.22.25.2-.19.23a2.16,2.16,0,0,1,.39.44l-.27.33c-.15-.14-.41-.38-.54-.48s-.23-.18-.35,0l0,.06c-.09.11-.08.19,0,.3l.21.17a.59.59,0,0,1,0,.9l-.09.11a.6.6,0,0,1-1,.11l-.17.21-.25-.2.18-.21a1.77,1.77,0,0,1-.39-.45l.27-.33c.1.09.33.32.57.52s.22.13.31,0l.06-.07c.08-.1.1-.17,0-.28l-.2-.16a.61.61,0,0,1-.07-.93Z"/><g class="cls-18"><g class="cls-19"><path class="cls-17" d="M24.34,24.72,21.59,25a2.43,2.43,0,0,0-.47.44l3.77-.38a2.69,2.69,0,0,0-.55-.35"/><path class="cls-17" d="M25.51,25.79l-4.85.5a2.76,2.76,0,0,0-.08,1.45l5.3-.55a2.6,2.6,0,0,0-.37-1.4"/></g></g><path class="cls-16" d="M21.53,23.09a2.67,2.67,0,0,0,3.75-.58L21,19.34a2.69,2.69,0,0,0,.58,3.75"/><path class="cls-16" d="M24.7,18.76a2.85,2.85,0,0,1,.58.57,2.81,2.81,0,0,1,.46,1,2.67,2.67,0,0,1-.2,1.71,2.21,2.21,0,0,1-.26.44L21,19.34a1.71,1.71,0,0,0,.11-.14,2.69,2.69,0,0,1,3.64-.44"/><path class="cls-17" d="M20.64,19.76a2.69,2.69,0,1,0,3.75-.58,2.68,2.68,0,0,0-3.75.58"/><path class="cls-16" d="M21.49,23.15a2.23,2.23,0,0,0,3.12-.49L21,20a2.23,2.23,0,0,0,.48,3.12"/><path class="cls-16" d="M21,20l3.6,2.63A2.23,2.23,0,0,0,21,20"/><path class="cls-17" d="M24.34,22.46a1.89,1.89,0,1,1-.41-2.64,1.9,1.9,0,0,1,.41,2.64m-3-2.18a1.81,1.81,0,1,0,2.53-.39,1.82,1.82,0,0,0-2.53.39"/><path class="cls-17" d="M21.85,21.66a.58.58,0,0,1-.13-.91l-.23-.17.19-.26.23.17a2.22,2.22,0,0,1,.43-.4l.34.25c-.14.15-.36.43-.46.56s-.16.24,0,.35l.07.05c.11.08.19.07.3-.07l.16-.22a.59.59,0,0,1,.89-.08l.11.08a.61.61,0,0,1,.17.95l.21.17-.18.25-.23-.16a1.66,1.66,0,0,1-.43.41L23,22.38c.08-.11.3-.36.48-.6s.12-.23,0-.31l-.08-.06c-.1-.07-.18-.09-.27.05l-.16.2a.6.6,0,0,1-.92.12Z"/><g class="cls-18"><g class="cls-20"><path class="cls-17" d="M20.33,20.33l.42,2.74a2.82,2.82,0,0,0,.47.44l-.58-3.74a2.82,2.82,0,0,0-.31.56"/><path class="cls-17" d="M21.33,19.11l.75,4.82a2.65,2.65,0,0,0,1.45,0l-.82-5.26a2.65,2.65,0,0,0-1.38.44"/></g></g><path class="cls-16" d="M26.34,25a2.68,2.68,0,0,0,3.05,2.25L28.59,22A2.69,2.69,0,0,0,26.34,25"/><path class="cls-16" d="M31.64,24.23a2.45,2.45,0,0,1,0,.81,2.64,2.64,0,0,1-.4,1.05,2.72,2.72,0,0,1-1.35,1.07,4.05,4.05,0,0,1-.5.12L28.59,22l.18,0a2.69,2.69,0,0,1,2.87,2.28"/><path class="cls-17" d="M28.07,22.05a2.69,2.69,0,1,0,3.06,2.25,2.69,2.69,0,0,0-3.06-2.25"/><path class="cls-16" d="M26.27,25a2.23,2.23,0,0,0,2.54,1.87l-.67-4.41A2.23,2.23,0,0,0,26.27,25"/><path class="cls-16" d="M28.14,22.5l.67,4.41a2.23,2.23,0,0,0-.67-4.41"/><path class="cls-17" d="M28.76,26.58a1.9,1.9,0,1,1,1.59-2.16,1.91,1.91,0,0,1-1.59,2.16m-.55-3.66a1.81,1.81,0,1,0,2.06,1.51,1.81,1.81,0,0,0-2.06-1.51"/><path class="cls-17" d="M27.58,24.24a.59.59,0,0,1,.56-.73l0-.29.31,0,0,.28a2.23,2.23,0,0,1,.59,0l.06.42-.72.07c-.19,0-.28.06-.26.24v.08c0,.14.09.19.27.17l.26,0a.59.59,0,0,1,.69.57l0,.14a.61.61,0,0,1-.56.79l0,.27-.31,0,0-.27a1.68,1.68,0,0,1-.6,0l-.06-.42c.13,0,.46,0,.77-.07.14,0,.24-.07.22-.22v-.09c0-.12-.06-.19-.23-.16l-.25,0a.59.59,0,0,1-.73-.57Z"/><g class="cls-18"><g class="cls-21"><path class="cls-17" d="M27.45,22.23,25.8,24.46a2.76,2.76,0,0,0,0,.64l2.25-3.05a3,3,0,0,0-.62.18"/><path class="cls-17" d="M29,22.08,26.13,26a2.73,2.73,0,0,0,1,1l3.16-4.29A2.67,2.67,0,0,0,29,22.08"/></g></g><path class="cls-16" d="M18.46,20.45l.94-.2a.15.15,0,0,1,.19.12l1.2,5.46a.16.16,0,0,1-.13.19l-.94.21a.16.16,0,0,1-.19-.13l-1.19-5.45a.16.16,0,0,1,.12-.2"/><rect class="cls-17" x="19.46" y="25.63" width="1.29" height="0.19" transform="translate(-5.01 4.87) rotate(-12.29)"/><polygon class="cls-17" points="19.36 25.32 20.61 25.04 20.66 25.23 19.4 25.5 19.36 25.32"/><polygon class="cls-17" points="19.26 24.87 20.52 24.59 20.56 24.78 19.3 25.05 19.26 24.87"/><polygon class="cls-17" points="19.16 24.41 20.42 24.14 20.46 24.32 19.2 24.6 19.16 24.41"/><rect class="cls-17" x="19.07" y="23.82" width="1.29" height="0.19" transform="translate(-4.65 4.76) rotate(-12.33)"/><polygon class="cls-17" points="18.96 23.51 20.22 23.23 20.26 23.42 19 23.7 18.96 23.51"/><polygon class="cls-17" points="20.12 22.78 20.16 22.96 18.9 23.24 18.86 23.05 20.12 22.78"/><rect class="cls-17" x="18.77" y="22.46" width="1.29" height="0.19" transform="translate(-4.47 4.8) rotate(-12.66)"/><rect class="cls-17" x="18.67" y="22.01" width="1.29" height="0.19" transform="translate(-4.28 4.64) rotate(-12.35)"/><polygon class="cls-17" points="19.82 21.42 19.86 21.61 18.61 21.88 18.56 21.69 19.82 21.42"/><polygon class="cls-17" points="19.72 20.97 19.76 21.15 18.5 21.43 18.46 21.24 19.72 20.97"/><polygon class="cls-17" points="19.63 20.51 19.67 20.7 18.41 20.98 18.37 20.79 19.63 20.51"/><path class="cls-16" d="M30.77,19.22l-.47.84a.15.15,0,0,1-.22.06l-4.87-2.73a.17.17,0,0,1-.06-.23l.47-.83a.15.15,0,0,1,.22-.06L30.71,19a.15.15,0,0,1,.06.22"/><polygon class="cls-17" points="26.13 16.43 25.5 17.55 25.34 17.46 25.97 16.34 26.13 16.43"/><rect class="cls-17" x="25.5" y="17.08" width="1.29" height="0.19" transform="translate(-1.65 31.53) rotate(-60.63)"/><polygon class="cls-17" points="26.94 16.89 26.31 18.01 26.15 17.91 26.78 16.79 26.94 16.89"/><polygon class="cls-17" points="27.34 17.11 26.71 18.23 26.55 18.14 27.18 17.02 27.34 17.11"/><rect class="cls-17" x="26.71" y="17.76" width="1.29" height="0.19" transform="translate(-1.6 32.97) rotate(-60.71)"/><polygon class="cls-17" points="28.15 17.57 27.52 18.69 27.36 18.59 27.99 17.47 28.15 17.57"/><polygon class="cls-17" points="27.93 18.91 27.76 18.82 28.39 17.7 28.56 17.79 27.93 18.91"/><polygon class="cls-17" points="28.33 19.14 28.17 19.05 28.8 17.93 28.96 18.02 28.33 19.14"/><rect class="cls-17" x="28.33" y="18.67" width="1.29" height="0.19" transform="translate(-1.58 34.81) rotate(-60.64)"/><rect class="cls-17" x="28.73" y="18.89" width="1.29" height="0.19" transform="translate(-1.54 35.34) rotate(-60.75)"/><polygon class="cls-17" points="29.55 19.82 29.38 19.73 30.01 18.61 30.18 18.7 29.55 19.82"/><polygon class="cls-17" points="29.95 20.05 29.78 19.96 30.42 18.83 30.58 18.93 29.95 20.05"/><path class="cls-16" d="M25.73,19.39l.44-.86a.16.16,0,0,1,.22-.07l5,2.53a.17.17,0,0,1,.08.22l-.44.86a.16.16,0,0,1-.22.07l-5-2.53a.17.17,0,0,1-.07-.22"/><polygon class="cls-17" points="30.48 21.99 31.06 20.84 31.23 20.93 30.65 22.07 30.48 21.99"/><polygon class="cls-17" points="30.07 21.78 30.65 20.63 30.82 20.71 30.23 21.86 30.07 21.78"/><rect class="cls-17" x="29.39" y="20.94" width="1.29" height="0.19" transform="translate(-2.34 38.25) rotate(-63.02)"/><polygon class="cls-17" points="29.24 21.36 29.82 20.21 29.99 20.3 29.41 21.44 29.24 21.36"/><polygon class="cls-17" points="28.83 21.15 29.41 20 29.58 20.09 29 21.23 28.83 21.15"/><polygon class="cls-17" points="28.41 20.93 29 19.79 29.17 19.88 28.58 21.02 28.41 20.93"/><rect class="cls-17" x="27.73" y="20.1" width="1.29" height="0.19" transform="translate(-2.5 36.31) rotate(-63.01)"/><rect class="cls-17" x="27.32" y="19.89" width="1.29" height="0.19" transform="translate(-2.54 35.83) rotate(-63.01)"/><rect class="cls-17" x="26.91" y="19.68" width="1.29" height="0.19" transform="translate(-2.64 35.21) rotate(-62.75)"/><polygon class="cls-17" points="27.34 18.95 27.51 19.03 26.93 20.18 26.76 20.09 27.34 18.95"/><polygon class="cls-17" points="26.93 18.73 27.1 18.82 26.52 19.97 26.35 19.88 26.93 18.73"/><polygon class="cls-17" points="26.52 18.52 26.69 18.61 26.1 19.76 25.93 19.67 26.52 18.52"/><path class="cls-16" d="M30.86,27.74l.21.94a.17.17,0,0,1-.13.2l-5.45,1.19a.17.17,0,0,1-.2-.13l-.2-.94a.16.16,0,0,1,.12-.19l5.46-1.19a.16.16,0,0,1,.19.12"/><polygon class="cls-17" points="25.54 28.74 25.82 30 25.63 30.04 25.36 28.78 25.54 28.74"/><rect class="cls-17" x="25.94" y="28.65" width="0.19" height="1.29" transform="translate(-5.64 6.21) rotate(-12.28)"/><polygon class="cls-17" points="26.45 28.54 26.72 29.8 26.54 29.84 26.26 28.58 26.45 28.54"/><polygon class="cls-17" points="26.9 28.44 27.18 29.7 26.99 29.74 26.71 28.48 26.9 28.44"/><polygon class="cls-17" points="27.35 28.34 27.63 29.6 27.44 29.64 27.17 28.39 27.35 28.34"/><polygon class="cls-17" points="27.8 28.24 28.08 29.5 27.89 29.54 27.62 28.29 27.8 28.24"/><polygon class="cls-17" points="28.54 29.4 28.35 29.44 28.07 28.18 28.26 28.14 28.54 29.4"/><polygon class="cls-17" points="28.99 29.3 28.8 29.34 28.53 28.09 28.71 28.05 28.99 29.3"/><rect class="cls-17" x="29.12" y="27.95" width="0.19" height="1.29" transform="translate(-5.45 6.92) rotate(-12.37)"/><rect class="cls-17" x="29.57" y="27.85" width="0.19" height="1.29" transform="translate(-5.42 7.02) rotate(-12.37)"/><polygon class="cls-17" points="30.35 29.01 30.16 29.05 29.89 27.79 30.07 27.75 30.35 29.01"/><rect class="cls-17" x="30.47" y="27.65" width="0.19" height="1.29" transform="translate(-5.35 7.21) rotate(-12.37)"/><path class="cls-14" d="M27.2,11.06l-8.69,1.81a.74.74,0,0,1-.87-.57l-.15-.72a.73.73,0,0,1,.57-.86L26.75,8.9a.75.75,0,0,1,.87.57l.15.72a.74.74,0,0,1-.57.87"/><g class="cls-22"><g class="cls-23"><polygon class="cls-24" points="22.53 13.02 17.11 21.3 17.62 23.73 24.97 12.51 22.53 13.02"/><path class="cls-24" d="M31.23,15.24a4,4,0,0,0-3.55-3.12L18.21,26.57l.42,2a4,4,0,0,0,2.77,3l10-15.33Z"/></g></g><path class="cls-9" d="M6.62,22.57s2.42,5,2.94,5,9.34-.65,10-1a7.74,7.74,0,0,0,1-.82A3.82,3.82,0,0,1,21,25.4a5.24,5.24,0,0,0,.57-.32c.14-.12.62-.84.89-.77s.2.22.16.39-.35.44-.5.6-.34.35-.3.49.5-.15.6-.21a1.69,1.69,0,0,0,.41-.35c.13-.15.25-.32.37-.49l.21-.32a5.43,5.43,0,0,0,.32-.51c.08-.14.2-.3.37-.2s0,.42-.07.56-.15.29-.22.45-.21.28-.15.4a2.53,2.53,0,0,0,.48-.55c.09-.12.54-.87.75-.72s-.07.71-.22.92a2,2,0,0,1-.34.38c-.05,0-.3.3-.25.3.31,0,.53-.5.73-.72s.5-.54.55-.14a.67.67,0,0,1-.16.42,2.24,2.24,0,0,1-.49.53,1.61,1.61,0,0,0-.32.35c.24,0,.69-.59.91-.44s0,.39-.09.47a7.4,7.4,0,0,1-2.06,1.39,21,21,0,0,1-2.35,1.09c-1.14.45-10.86,3.49-12,3.35s-4.24-6.09-5.12-7.82,3-1.36,3-1.36"/><path class="cls-11" d="M3.31,25.27a18,18,0,0,0,4.85-2.74s-4-8.91-6.79-6.68,1.94,9.42,1.94,9.42"/></g></g></g></svg>