<svg xmlns="http://www.w3.org/2000/svg" xmlns:xlink="http://www.w3.org/1999/xlink" viewBox="0 0 76.14 69.2"><defs><style>.cls-1{fill:none;}.cls-2{fill:#218400;}.cls-3{fill:#e8a393;}.cls-4{fill:#23a1ad;}.cls-5{fill:#ffd066;}.cls-6{fill:#feac1a;}.cls-7{fill:#110239;}.cls-8{fill:#0186cb;}.cls-9{opacity:0.65;}.cls-10{clip-path:url(#clip-path);}.cls-11{fill:#0056a3;}.cls-12{fill:#fcd4ca;}.cls-13{fill:#09c9ce;}.cls-14{fill:#ebebeb;}.cls-15{fill:#b2b2b2;}.cls-16{fill:#f45762;}</style><clipPath id="clip-path"><rect class="cls-1" x="16.44" y="28.86" width="16.29" height="14.58"/></clipPath></defs><g id="Capa_2" data-name="Capa 2"><g id="Capa_1-2" data-name="Capa 1"><path class="cls-2" d="M76.14,38.84,67.4,65.06a6.06,6.06,0,0,1-11.49-3.83l7.48-22.46-7.5-23.35a6.06,6.06,0,0,1,11.53-3.71Z"/><path class="cls-3" d="M32.89,23.15a2.11,2.11,0,0,0,.89-.72,1.26,1.26,0,0,1,.33-.42,3.07,3.07,0,0,0,.43-.45,1,1,0,0,1,.46-.4c.24-.08.17.24.09.45s-.71.63-.63.87.81-.31,1-.42c.34-.26.3-.58.46-.93s.2-.28.33-.05,0,.38-.05.55a2.16,2.16,0,0,1-.62.95,2.66,2.66,0,0,0,.67-.82c.09-.18.37-1,.66-.89.59.25-.56,1.86-.88,2a3,3,0,0,0,.72-.79c.13-.17.41-.58.55-.23.2.53-.78,1.14-1.17,1.49a3.83,3.83,0,0,0,.83-.59c.35-.28.44.07.12.42a4.31,4.31,0,0,1-.51.45,3.37,3.37,0,0,1-2.09.75c-.32,0-.86.42-1.08.26-.43-.31-.39-1.07-.47-1.51"/><path class="cls-4" d="M33.33,22.27s-6.74,1.88-7.43,1.83-2.26-6-2.89-8.9c-.06-.28-1-.29-2-1.15-.42-.35-1.66.32-2.08,0a2.84,2.84,0,0,0-.53,3.13c1.54,3.39,2.86,9.9,6.39,10a22.9,22.9,0,0,0,9.42-2.35Z"/><path class="cls-3" d="M34.78,23.08s-.27-.46-.32-.6.55-.65.63-.87.15-.53-.09-.45a1,1,0,0,0-.46.4,3.07,3.07,0,0,1-.43.45,1.26,1.26,0,0,0-.33.42,1.08,1.08,0,0,1-.28.32,3.56,3.56,0,0,0,1.28.33"/><rect class="cls-5" x="5.04" y="62.45" width="29.75" height="5.12"/><rect class="cls-6" x="6.7" y="62.45" width="1.5" height="5.12"/><rect class="cls-6" x="9.85" y="62.45" width="1.5" height="5.12"/><rect class="cls-6" x="12.99" y="62.45" width="1.5" height="5.12"/><rect class="cls-6" x="16.14" y="62.45" width="1.5" height="5.12"/><rect class="cls-6" x="19.28" y="62.45" width="1.5" height="5.12"/><rect class="cls-6" x="22.43" y="62.45" width="1.5" height="5.12"/><rect class="cls-6" x="25.57" y="62.45" width="1.5" height="5.12"/><rect class="cls-6" x="28.71" y="62.45" width="1.5" height="5.12"/><rect class="cls-6" x="31.86" y="62.45" width="1.5" height="5.12"/><rect class="cls-5" x="1.26" y="57.32" width="29.75" height="5.12"/><rect class="cls-6" x="2.93" y="57.32" width="1.5" height="5.12"/><rect class="cls-6" x="6.07" y="57.32" width="1.5" height="5.12"/><rect class="cls-6" x="9.22" y="57.32" width="1.5" height="5.12"/><rect class="cls-6" x="12.36" y="57.32" width="1.5" height="5.12"/><rect class="cls-6" x="15.51" y="57.32" width="1.5" height="5.12"/><rect class="cls-6" x="18.65" y="57.32" width="1.5" height="5.12"/><rect class="cls-6" x="21.79" y="57.32" width="1.5" height="5.12"/><rect class="cls-6" x="24.94" y="57.32" width="1.5" height="5.12"/><rect class="cls-6" x="28.08" y="57.32" width="1.5" height="5.12"/><rect class="cls-5" x="6.37" y="52.2" width="29.75" height="5.12"/><rect class="cls-6" x="8.04" y="52.2" width="1.5" height="5.12"/><rect class="cls-6" x="11.18" y="52.2" width="1.5" height="5.12"/><rect class="cls-6" x="14.32" y="52.2" width="1.5" height="5.12"/><rect class="cls-6" x="17.47" y="52.2" width="1.5" height="5.12"/><rect class="cls-6" x="20.61" y="52.2" width="1.5" height="5.12"/><rect class="cls-6" x="23.76" y="52.2" width="1.5" height="5.12"/><rect class="cls-6" x="26.9" y="52.2" width="1.5" height="5.12"/><rect class="cls-6" x="30.05" y="52.2" width="1.5" height="5.12"/><rect class="cls-6" x="33.19" y="52.2" width="1.5" height="5.12"/><rect class="cls-5" x="3.78" y="47.07" width="29.74" height="5.12"/><rect class="cls-6" x="5.44" y="47.07" width="1.5" height="5.12"/><rect class="cls-6" x="8.58" y="47.07" width="1.5" height="5.12"/><rect class="cls-6" x="11.73" y="47.07" width="1.5" height="5.12"/><rect class="cls-6" x="14.87" y="47.07" width="1.5" height="5.12"/><rect class="cls-6" x="18.02" y="47.07" width="1.5" height="5.12"/><rect class="cls-6" x="21.16" y="47.07" width="1.5" height="5.12"/><rect class="cls-6" x="24.31" y="47.07" width="1.5" height="5.12"/><rect class="cls-6" x="27.45" y="47.07" width="1.5" height="5.12"/><rect class="cls-6" x="30.6" y="47.07" width="1.5" height="5.12"/><rect class="cls-5" y="41.95" width="29.75" height="5.12"/><rect class="cls-6" x="1.66" y="41.95" width="1.5" height="5.12"/><rect class="cls-6" x="4.81" y="41.95" width="1.5" height="5.12"/><rect class="cls-6" x="7.95" y="41.95" width="1.5" height="5.12"/><rect class="cls-6" x="11.1" y="41.95" width="1.5" height="5.12"/><rect class="cls-6" x="14.24" y="41.95" width="1.5" height="5.12"/><rect class="cls-6" x="17.39" y="41.95" width="1.5" height="5.12"/><rect class="cls-6" x="20.53" y="41.95" width="1.5" height="5.12"/><rect class="cls-6" x="23.67" y="41.95" width="1.5" height="5.12"/><rect class="cls-6" x="26.82" y="41.95" width="1.5" height="5.12"/><rect class="cls-5" x="4.01" y="36.83" width="29.74" height="5.12"/><rect class="cls-6" x="5.67" y="36.83" width="1.5" height="5.12"/><rect class="cls-6" x="8.82" y="36.83" width="1.5" height="5.12"/><rect class="cls-6" x="11.96" y="36.83" width="1.5" height="5.12"/><rect class="cls-6" x="15.11" y="36.83" width="1.5" height="5.12"/><rect class="cls-6" x="18.25" y="36.83" width="1.5" height="5.12"/><rect class="cls-6" x="21.39" y="36.83" width="1.5" height="5.12"/><rect class="cls-6" x="24.54" y="36.83" width="1.5" height="5.12"/><rect class="cls-6" x="27.68" y="36.83" width="1.5" height="5.12"/><rect class="cls-6" x="30.83" y="36.83" width="1.5" height="5.12"/><path class="cls-7" d="M36.5,43.72s.63,2.91,1.21,3.18,6.69-1.23,7-1.92-.15-1.41-1.45-1.36-1.94.48-2.89.34-1.65-1.71-1.65-1.71Z"/><path class="cls-7" d="M26.14,50.32s-1.57,2.53-1.34,3.13,5.67,3.75,6.4,3.5.87-1.12-.1-2-1.73-1-2.32-1.77,0-2.37,0-2.37Z"/><path class="cls-8" d="M17,28.91s2.47,1.28,3.61,1.13,11,.62,12.12,1.57S29.18,51.5,29.18,51.5l-3.89-.65s1.39-13.85,1.16-14-6.11-.07-16.13-.07c-2.45,0-5.18-5.14-2.08-8.74Z"/><g class="cls-9"><g class="cls-10"><path class="cls-11" d="M31,33.15a11.3,11.3,0,0,1-1.1-2.66A68.8,68.8,0,0,0,20.61,30c-1.14.15-3.61-1.13-3.61-1.13l-.56-.05A4.7,4.7,0,0,0,19,31c1.24.28,2.54.35,3.77.67a7.37,7.37,0,0,1,5.15,3.78,56.88,56.88,0,0,1,3.14,8c.64-2.87,1.29-5.89,1.67-8.27a5.12,5.12,0,0,1-1.69-2"/></g></g><path class="cls-8" d="M18,26.8s11.69.69,12.81,1.79,8.64,14.05,8.64,14.05l-3.1,2.24s-6.17-9.09-9.14-12.64a4.39,4.39,0,0,0-2.64-1.51c-1.27-.21-3.12-.49-4.5-.57a5,5,0,0,1-3.37-1.28Z"/><path class="cls-12" d="M21,8.73a4.45,4.45,0,0,1-1-.77c-.29,1.12-1,3.18-2.26,4.15a8.87,8.87,0,0,0,4.33,1.07,14.53,14.53,0,0,1,.64-4A3.85,3.85,0,0,1,21,8.73"/><path class="cls-3" d="M19.46,11.86a3,3,0,0,1,3-1.61,5.24,5.24,0,0,1,.31-1.05A3.85,3.85,0,0,1,21,8.73a4.45,4.45,0,0,1-1-.77c-.29,1.12-1,3.18-2.26,4.15a10.08,10.08,0,0,0,1.38.6,3.67,3.67,0,0,1,.28-.85"/><path class="cls-12" d="M23,1.75s3,.19,3.65,1a4.11,4.11,0,0,1,.14,3.68c-.52.92.16,2.48.06,2.84s-1,.16-1.11.25-.8,1.85-2.09,1.7c-1.81-.21-3.51-2.39-3.88-3.68s.48-6.2,3.23-5.84"/><path class="cls-7" d="M27.94,3.78A3.35,3.35,0,0,1,27.55,3a3.25,3.25,0,0,0,0-.54c-.13-.55-.08-.89-1.16-1.75A4.08,4.08,0,0,0,22.83.18,3.27,3.27,0,0,0,21.7.79c-.09.08-.39.3-.39.42s.36.41.46.53a5.65,5.65,0,0,1,.42.72c.84,1.46,2.34,3.26,4.22,2.4a7.18,7.18,0,0,0,.72-.39,3.82,3.82,0,0,1-.31,1.92,1.73,1.73,0,0,0,.88-.65,2,2,0,0,0,.24-2"/><path class="cls-7" d="M22.3,1.52A2.38,2.38,0,0,0,21.05,1a1.65,1.65,0,0,0-1.73.89,6.49,6.49,0,0,0-.6,1.21,5,5,0,0,0-.42,2,4.93,4.93,0,0,0,.43,2.21c.31.61,1.05,1.46,1.59,1.45.21,0,1-1.19,1.05-1.55s-.09-.4-.28-.64c-.34-.41-.63-1.07-.12-1.47.73-.57,1.43.09,1.33,1.23,0,0,.11.69.33.67s2.15-2.6-.33-5.49"/><path class="cls-3" d="M21.23,5.33a.75.75,0,0,1,.71.51c.18.5-.2,1-.43.7s0-.5,0-.7a.65.65,0,0,0-.27-.51"/><path class="cls-13" d="M6.31,29.17S9.8,32.93,19,30.34a19.51,19.51,0,0,1,1.29-4.56,45.29,45.29,0,0,0,2.87-9.12,5.13,5.13,0,0,0-1-4.12s-1.74,1.29-3.85-.9A10.31,10.31,0,0,0,11.1,17,71.44,71.44,0,0,0,6.31,29.17"/><path class="cls-4" d="M19,15.54a3.59,3.59,0,0,1-.08-.35c-2.21,1.08-1.93,3.21-1.4,6.42.41,2.46,1.59,6.36,1.82,7.23a18.26,18.26,0,0,1,1-3.06c.45-1,1-2.55,1.55-4.11A16,16,0,0,1,20,17.87c-.28-.81-.84-1.5-1.07-2.33"/><path class="cls-14" d="M34,20.9l7.73-4.61a14.49,14.49,0,0,1,3.62,6.53l-8.78,4.11L34,20.9"/><path class="cls-15" d="M40,23.78a8.05,8.05,0,0,1-4.62-3.7L34,20.89l2.57,6,6.41-3a6.42,6.42,0,0,1-3-.15"/><polygon class="cls-16" points="35.36 21.35 38.67 21 38.77 20.98 38.82 21.06 39.28 21.77 39.15 21.7 41.5 21.7 41.62 21.7 41.65 21.82 41.85 22.75 41.67 22.63 43.38 22.36 43.42 22.66 41.72 22.93 41.58 22.95 41.55 22.81 41.35 21.89 41.5 22.01 39.15 22.01 39.07 22.01 39.02 21.94 38.56 21.23 38.71 21.3 35.46 21.98 35.36 21.35"/><path class="cls-16" d="M43.21,22.54l-.29-.34h0l.66.15.68,0-.63.24-.59.35h0Z"/><path class="cls-4" d="M42.25,18.3a.14.14,0,0,0-.19-.05l-.61.32L41.16,18A.14.14,0,0,0,41,18a.13.13,0,0,0-.07.18l.28.53-.67.34a.17.17,0,0,0-.1.21.14.14,0,0,0,.14.08l.07,0L41.3,19l.31.59a.15.15,0,0,0,.15.07l.06,0a.17.17,0,0,0,.07-.22l-.31-.57.61-.32a.13.13,0,0,0,.06-.18"/><path class="cls-12" d="M34,25.65a2.24,2.24,0,0,0,1.15-.14,1.27,1.27,0,0,1,.5-.19,2.77,2.77,0,0,0,.6-.15,1.11,1.11,0,0,1,.6-.1c.25.07,0,.3-.16.43s-.94.16-1,.41.85.17,1,.15c.42,0,.56-.33.88-.55s.32-.12.31.14-.2.33-.34.44a2.29,2.29,0,0,1-1,.48,2.66,2.66,0,0,0,1-.35c.17-.1.85-.66,1-.4.37.53-1.46,1.28-1.82,1.26a3.45,3.45,0,0,0,1-.29c.2-.08.65-.28.58.09-.11.55-1.26.56-1.77.65a3.51,3.51,0,0,0,1-.07c.45,0,.33.3-.12.43a3.66,3.66,0,0,1-.67.11,3.44,3.44,0,0,1-2.18-.47c-.28-.14-.94-.1-1-.36-.2-.49.23-1.11.4-1.52"/><path class="cls-13" d="M34.15,25.35l.22,2.59s-11.15.9-12.43.09a6,6,0,0,1-2.29-3.33c-.81-2.38-4-8.93-1.13-9.93a2,2,0,0,1,2.69.87c1.35,2.62,2.79,8.49,3.17,8.74.53.35,9.77,1,9.77,1"/></g></g></svg>