<svg xmlns="http://www.w3.org/2000/svg" xmlns:xlink="http://www.w3.org/1999/xlink" viewBox="0 0 114.59 61.69"><defs><style>.cls-1{fill:none;}.cls-2{isolation:isolate;}.cls-3{fill:#218400;}.cls-4{fill:#60c6ea;}.cls-5{fill:#0186cb;}.cls-6{fill:#e8a393;}.cls-7{fill:#fcd4ca;}.cls-8{fill:#f45762;}.cls-9{opacity:0.35;mix-blend-mode:multiply;}.cls-10{clip-path:url(#clip-path);}.cls-11{fill:#c9071e;}.cls-12{fill:#110239;}.cls-13{opacity:0.65;}.cls-14{clip-path:url(#clip-path-2);}.cls-15{fill:#0056a3;}.cls-16{clip-path:url(#clip-path-3);}</style><clipPath id="clip-path"><rect class="cls-1" x="16.02" y="7.33" width="12.64" height="8.06"/></clipPath><clipPath id="clip-path-2"><rect class="cls-1" x="10.23" y="14.91" width="5.1" height="9.31"/></clipPath><clipPath id="clip-path-3"><rect class="cls-1" x="14.42" y="8.74" width="4.59" height="8.45"/></clipPath></defs><g class="cls-2"><g id="Capa_2" data-name="Capa 2"><g id="Capa_1-2" data-name="Capa 1"><path class="cls-3" d="M114.59,31.33l-8.74,26.22a6.06,6.06,0,1,1-11.49-3.83l7.49-22.46L94.34,7.91A6.06,6.06,0,1,1,105.87,4.2Z"/><path class="cls-4" d="M67.71,17.88a15.25,15.25,0,0,0-24.51-7A16.28,16.28,0,0,0,16,18.32a18.38,18.38,0,1,0,14.93,33,18.36,18.36,0,0,0,22.34-1.41A18.37,18.37,0,1,0,67.71,17.88"/><path class="cls-5" d="M83.72,36.1c0-.58,0-1.16-.08-1.73C77.08,59.2,53.26,49.94,53.26,49.94A18.37,18.37,0,0,0,83.72,36.1"/><path class="cls-5" d="M5.44,46.54a18.38,18.38,0,0,0,30.8-.8s-17.46,16.32-30.8.8"/><path class="cls-5" d="M37.09,53.92S49.23,54.15,56,47c0,0-6.8,9.84-18.93,6.89"/><path class="cls-6" d="M29,15.15c.09,0,.14-.2.17-.26s.79-.41.69-.5a.7.7,0,0,0-.51-.08.58.58,0,0,0-.43.22.55.55,0,0,0,0,.58.07.07,0,0,0,.06,0"/><path class="cls-7" d="M30.22,14.19c.09,0,.48.16.52,0s-.37-.29-.49-.27a2.9,2.9,0,0,0-.57,0l-.51.13a1.38,1.38,0,0,0-.27.14,1,1,0,0,1-.34.12l-.14,0a.13.13,0,0,1,0,.06,5.83,5.83,0,0,1-.32.71,2.23,2.23,0,0,0,.44,0,.5.5,0,0,1,.27,0l.24.09a.76.76,0,0,0,.21.08c.06,0,.17,0,.19-.07a.28.28,0,0,0-.1-.2C29.25,15,29,15,29,14.8a.75.75,0,0,1,.15-.2.45.45,0,0,1,.21-.12,1.1,1.1,0,0,1,.51,0,.37.37,0,0,0,.29,0c.08-.05.11-.1,0-.16a.39.39,0,0,0-.11-.06h.14"/><path class="cls-8" d="M16.4,7.81a2,2,0,0,1,2.51,0c1.22,1,3.48,2.74,4.21,3.23,1,.68,5.54,3.12,5.54,3.12l-.57,1.27s-5.58-2.05-6.38-2.6-5.42-2.94-5.67-4a1,1,0,0,1,.36-1"/><g class="cls-9"><g class="cls-10"><path class="cls-11" d="M16.4,7.81a2,2,0,0,1,2.51,0c1.22,1,3.48,2.74,4.21,3.23,1,.68,5.54,3.12,5.54,3.12l-.57,1.27s-5.58-2.05-6.38-2.6-5.42-2.94-5.67-4a1,1,0,0,1,.36-1"/></g></g><polygon class="cls-12" points="10.65 21.81 10.96 20.89 24.73 20.89 24.43 21.81 10.65 21.81"/><polygon class="cls-12" points="9.01 26.72 9.32 25.79 23.17 25.79 22.87 26.72 9.01 26.72"/><polygon class="cls-12" points="12.72 16.9 13.03 15.98 26.8 15.98 26.51 16.9 12.72 16.9"/><polygon class="cls-12" points="7.36 31.68 7.67 30.74 21.59 30.74 21.29 31.68 7.36 31.68"/><polygon class="cls-12" points="5.68 36.7 6 35.75 20 35.75 19.69 36.7 5.68 36.7"/><polygon class="cls-12" points="3.99 41.77 4.31 40.81 18.39 40.81 18.08 41.77 3.99 41.77"/><polygon class="cls-12" points="2.28 46.9 2.61 45.92 16.76 45.92 16.45 46.9 2.28 46.9"/><path class="cls-12" d="M.7,54.27H.64A.64.64,0,0,1,0,53.44L13,14.69a.64.64,0,0,1,.6-.44h.89L1.31,53.84a.64.64,0,0,1-.61.43"/><path class="cls-12" d="M14.71,54.27h-.07a.63.63,0,0,1-.6-.83L26.4,14.7a.64.64,0,0,1,.61-.45h0a.64.64,0,0,1,.61.83L15.32,53.83a.64.64,0,0,1-.61.44"/><path class="cls-7" d="M20.33,4a.56.56,0,0,1,0,.12,5.94,5.94,0,0,0,.48,1.06,5.92,5.92,0,0,1,.46.59,1.59,1.59,0,0,0,.13.22,15.72,15.72,0,0,0-1.32,2.19s-1.54-.84-1.83-1.74a17,17,0,0,0,2-2.44"/><path class="cls-6" d="M20,7.07a2.56,2.56,0,0,0-.18-1.52c-.08-.16-.16-.31-.25-.46A8.88,8.88,0,0,0,20.33,4a.56.56,0,0,1,0,.12,5.94,5.94,0,0,0,.48,1.06,5.92,5.92,0,0,1,.46.59,1.59,1.59,0,0,0,.13.22,15.72,15.72,0,0,0-1.32,2.19s-.27-.15-.6-.38A1.31,1.31,0,0,0,20,7.07"/><path class="cls-12" d="M15.71,34.1s0,1.74.32,2,3.73.34,4,0,.12-.86-.62-1.06-1.19,0-1.69-.21-.36-1-.36-1Z"/><path class="cls-12" d="M7.13,34.05s-.27,1.69,0,1.94,3.78.52,4.09.22.16-.85-.57-1.08S9.48,35,9,34.85s-.13-1-.13-1Z"/><path class="cls-5" d="M9.69,24.3a51.58,51.58,0,0,1,.72-9.67,4.43,4.43,0,0,1,1.73.33c1,.48,2.12.94,3.18,1.41a67.9,67.9,0,0,0-3,8.81c-.28,1.52-3.45,9.24-3.45,9.24L7,34.18c0-1.24,2.72-9.46,2.71-9.88"/><g class="cls-13"><g class="cls-14"><path class="cls-15" d="M13.62,15.65a17,17,0,0,0,1.71.69,72.71,72.71,0,0,0-2.74,7.87,30.05,30.05,0,0,1-2.07-4.91,11.53,11.53,0,0,1-.16-4.38h0a8.26,8.26,0,0,1,3.25.74"/></g></g><path class="cls-5" d="M12.19,15.39c.74.25,2.1.61,3.13,1,.71,1.8,2.82,6.06,2.93,8,.12,2.12-.61,10.18-.61,10.18h-2.2s-.2-9.08-.51-9.66c-1-1.93-2.13-3.45-2.76-4.65A14.82,14.82,0,0,1,10.55,16c-.08-.42-.44-1.81.26-2.24.58.16.75,1.42,1.38,1.63"/><path class="cls-8" d="M15.86,17.18a8.86,8.86,0,0,1-3.56-1A6.83,6.83,0,0,1,10,14.5s3.47-5.61,5.2-7.09a4.33,4.33,0,0,1,3.35-1.18A5.44,5.44,0,0,0,20.3,7.82s-1.69,3.65-2.42,5.08-2,4.28-2,4.28"/><g class="cls-9"><g class="cls-16"><path class="cls-11" d="M18.14,12.38l.25-.51,0-.06c.08-.17.17-.35.25-.53l0-.09c.09-.2.19-.41.29-.61h0a1.19,1.19,0,0,1-.22-.12A5.7,5.7,0,0,1,17.53,9a2.43,2.43,0,0,0-.2-.25,7.73,7.73,0,0,0-.67,2.54A14.7,14.7,0,0,1,14.42,17a9.62,9.62,0,0,0,1.44.21s1.28-2.85,2-4.28c.06-.12.14-.27.21-.43l.05-.09"/></g></g><path class="cls-7" d="M21,1.72s1.58-.68,2.29,0,1.07,1.24.92,1.62a10.44,10.44,0,0,0-.74,1.77c-.07.46,0,1.21-.12,1.33s-.59-.2-.66-.16-1.15.79-1.39.76a4.16,4.16,0,0,1-1-2.47c.15-.62,0-2.17.74-2.87"/><path class="cls-12" d="M22.38,3.17c.06.07.11.19.16.25l.29.34a1.87,1.87,0,0,0,.67.58c.42.18.59-.23.94-.33.16,0,.32.09.5,0a1,1,0,0,0,.46-.33c.3-.35,0-.67-.21-1s-.11-.53-.06-.89c.14-.89-1.06-.54-1.42-.94-.19-.21-.29-.53-.58-.59a2,2,0,0,0-.77.08c-.26.06-.32-.11-.55-.2a1.35,1.35,0,0,0-.6,0,1.47,1.47,0,0,0-1.07.66c-.17.31-.09.63-.32.92a2.31,2.31,0,0,0-.5.78c-.1.43.22.77.27,1.17a1.34,1.34,0,0,0,.61,1c.21-.18.5-.55.41-.81a1.59,1.59,0,0,1-.16-.38.43.43,0,0,1,.78-.27c.21.23-.25,1,.1,1.09s.32-.44.36-.6.34-.61.59-.61a.16.16,0,0,1,.1,0"/><path class="cls-7" d="M24.17,19.07a1.4,1.4,0,0,1,.25,0A1,1,0,0,0,25,19a2.14,2.14,0,0,1,.94-.23c.16,0,1.12.25.88.64,0,.06-.15.14-.18.13l-.37-.14a2.15,2.15,0,0,1,.25.11.43.43,0,0,1,.13.09c.06.08,0,.26-.11.29s-.14-.06-.21-.1h0c.07,0,.21.09.12.29s-.16.08-.26.06l-.1,0a2,2,0,0,1,.2.11c.08.07-.11.34-.29.32s-.37-.17-.43-.16a1.46,1.46,0,0,1-.22,0,1.32,1.32,0,0,1-.64-.13l-.36-.16a3.82,3.82,0,0,1-.53-.36c.15-.28.39-.35.36-.67"/><path class="cls-8" d="M24.2,20.22l.92-1.38a58.76,58.76,0,0,1-3.37-5.22c-.9-1.77-1.46-5-2.42-5.46s-2.15-.27-2,1.33,2.5,4.43,2.91,5.24a63.65,63.65,0,0,0,4,5.49"/></g></g></g></svg>