<svg xmlns="http://www.w3.org/2000/svg" xmlns:xlink="http://www.w3.org/1999/xlink" viewBox="0 0 103.88 70.88"><defs><style>.cls-1{fill:none;}.cls-2{fill:#218400;}.cls-3{fill:#f5b026;}.cls-4{fill:#ffcd2e;}.cls-5{opacity:0.1;}.cls-6{clip-path:url(#clip-path);}.cls-7{fill:#1d1d1b;}.cls-8{clip-path:url(#clip-path-2);}.cls-9{fill:#ebae73;}.cls-10{fill:#f4d3b0;}.cls-11{fill:#ffcf9f;}.cls-12{fill:#ededed;}.cls-13{fill:#28324e;}.cls-14{clip-path:url(#clip-path-3);}.cls-15{clip-path:url(#clip-path-4);}</style><clipPath id="clip-path" transform="translate(0)"><rect class="cls-1" x="17.91" y="50.94" width="7.5" height="18.22"/></clipPath><clipPath id="clip-path-2" transform="translate(0)"><rect class="cls-1" x="35.21" y="42.11" width="7.55" height="27.05"/></clipPath><clipPath id="clip-path-3" transform="translate(0)"><rect class="cls-1" y="4.91" width="52.92" height="34.31"/></clipPath><clipPath id="clip-path-4" transform="translate(0)"><rect class="cls-1" x="52.49" y="29.34" width="8.8" height="39.82"/></clipPath></defs><g id="Capa_2" data-name="Capa 2"><g id="Capa_1-2" data-name="Capa 1"><path class="cls-2" d="M103.88,40.52,95.14,66.74a6.06,6.06,0,1,1-11.49-3.83l7.49-22.45L83.63,17.1a6.05,6.05,0,0,1,11.53-3.7Z" transform="translate(0)"/><path class="cls-3" d="M32.5,67.56l0-1.89a.39.39,0,0,1,0,.14v0a.94.94,0,0,1-.1.14h0a1.14,1.14,0,0,1-.16.14l0,0-.17.1-.06,0a1.69,1.69,0,0,1-.27.13l-.05,0-.27.1-.12,0-.25.08-.13,0-.32.07-.1,0-.46.09-.11,0-.38.07-.18,0-.36.06-.18,0-.47,0h-.09l-.59.06H27.4l-.44,0h-.22l-.45,0h-.86c-3.9,0-7.07-.61-7.08-1.45l0,1.9c0,.84,3.18,1.49,7.08,1.45h.86l.45,0H27l.44,0h.18l.59-.06h.09l.47,0,.18,0,.36-.06.18,0,.38-.07.11,0,.46-.09.1,0,.32-.08.13,0,.25-.08.12,0,.27-.1.05,0,.27-.12.06,0,.11-.07.06,0,0,0a.7.7,0,0,0,.16-.13h0l.1-.14h0a.28.28,0,0,0,0-.15" transform="translate(0)"/><path class="cls-4" d="M32.45,65.78a0,0,0,0,1,0,0s0-.06,0-.08h0c0-.85-3.18-1.5-7.08-1.46a20.73,20.73,0,0,0-5.94.77c-.7.24-1.11.53-1.11.83a.29.29,0,0,0,0,.09s0,0,0,0a.35.35,0,0,0,.05.08l0,.07a.6.6,0,0,1,.08.08l.08.06a.62.62,0,0,0,.12.08l.09,0,.16.08.11,0,.19.08.14,0,.22.07.16,0,.25.06.18,0,.28.06.19,0L21,67l.2,0,.33,0,.22,0,.36,0,.22,0,.39,0,.21,0,.43,0h.19l.47,0h.11c.41,0,.84,0,1.27,0s.89,0,1.32,0h.06l.52,0h.14l.47,0h.17l.43-.05.17,0,.4,0,.18,0,.37-.06.16,0,.35-.06.15,0,.32-.08.13,0,.29-.08.11,0,.26-.09.1,0,.22-.09.09,0,.18-.1.06,0a.85.85,0,0,0,.14-.1l.06,0,.09-.1,0-.05.05-.1" transform="translate(0)"/><path class="cls-3" d="M32.27,65.35l0-1.9a.4.4,0,0,1,0,.15h0l-.1.15h0a.64.64,0,0,1-.15.13l-.05,0-.16.1-.07,0-.26.13-.05,0-.27.09-.12,0-.26.08-.13,0-.32.08-.1,0-.45.09-.11,0-.39.07-.17,0-.37.06-.18,0-.47,0h-.09l-.59.06h-.17l-.45,0h-.21l-.45,0h-.86c-3.9,0-7.07-.61-7.08-1.45l0,1.9c0,.84,3.18,1.49,7.08,1.45l.66,0h.2l.45,0h.21l.45,0,.17,0,.59,0h.09l.47-.05.18,0,.37,0,.17,0,.39-.07.11,0,.45-.09.1,0,.32-.08.13,0,.26-.08.11,0,.28-.1.05,0L31.7,66l.07,0,.11-.06.05,0,.05,0a.64.64,0,0,0,.15-.13h0a.41.41,0,0,0,.1-.14h0a.4.4,0,0,0,0-.15" transform="translate(0)"/><path class="cls-4" d="M32.23,63.57v0a.28.28,0,0,0,0-.09h0c0-.84-3.17-1.49-7.07-1.45a20.79,20.79,0,0,0-5.94.76c-.7.25-1.11.53-1.11.84a.15.15,0,0,0,0,.09s0,0,0,0l0,.08.05.06.08.09.07.06.12.08.1,0,.15.08.12,0,.19.08.14,0,.22.07.16.05.25.06.17,0,.28.06.2,0,.3.05.21,0,.33,0,.22,0,.36,0,.21,0,.4,0,.21,0,.42,0h.19l.48,0h1.38c.45,0,.89,0,1.31,0h.06l.53,0h.14l.47,0h.16l.44,0,.17,0,.4,0,.17,0,.38-.06.16,0,.34-.07a.8.8,0,0,0,.15,0l.32-.07.13,0,.29-.09.12,0,.26-.09.1,0,.22-.1.08,0,.18-.1.07,0,.14-.1,0,0,.1-.1,0,0a.93.93,0,0,0,0-.1" transform="translate(0)"/><path class="cls-3" d="M32.5,63.14l0-1.9a.4.4,0,0,1,0,.15h0a.65.65,0,0,1-.1.15h0a.7.7,0,0,1-.16.13l0,0-.17.09-.06,0-.27.12-.05,0a1.69,1.69,0,0,1-.27.1l-.12,0-.25.08-.13,0-.32.08-.1,0-.46.09-.11,0-.38.07-.17,0-.37.05-.18,0-.47,0h-.09l-.59.05-.18,0-.44,0h-.22l-.45,0h-.86c-3.9,0-7.07-.61-7.08-1.45l0,1.9c0,.84,3.18,1.49,7.08,1.45l.66,0h.2l.45,0,.22,0,.44,0,.18,0,.59,0h.09l.47,0,.18,0,.36,0,.18,0,.38-.06.11,0,.46-.1.1,0,.32-.08.13,0,.25-.08.12,0,.27-.1.05,0,.27-.12.06,0,.11-.06.06,0,0,0,.16-.13h0l.1-.14h0a.28.28,0,0,0,0-.15" transform="translate(0)"/><path class="cls-4" d="M32.45,61.36a0,0,0,0,0,0,0,.19.19,0,0,0,0-.08h0c0-.84-3.18-1.49-7.08-1.45a20.79,20.79,0,0,0-5.94.76c-.7.25-1.11.53-1.11.84a.29.29,0,0,0,0,.09s0,0,0,0l.05.08,0,.06.09.09.07.06.12.08.09,0L19,62l.11.05.19.07.14,0,.22.07.16,0,.25.06.18,0,.28.06.19,0,.31,0,.2,0,.33.05.22,0,.36,0,.22,0,.39,0,.21,0,.43,0h.19l.48,0h1.37l1.32,0h.06c.18,0,.35,0,.52,0h.14l.47,0h.17l.43-.05.17,0,.4-.05.18,0,.37-.06.16,0,.35-.07.15,0,.32-.07.13,0,.29-.09.11,0,.26-.09.1,0,.22-.1.09,0,.18-.09.07,0,.13-.1.06,0,.09-.1,0,0a.31.31,0,0,0,.05-.1" transform="translate(0)"/><path class="cls-3" d="M32.5,60.93l0-1.9a.4.4,0,0,1,0,.15h0a.65.65,0,0,1-.1.15h0l-.16.13,0,0L32,59.6l-.06,0-.27.12-.05,0a1.69,1.69,0,0,1-.27.1l-.12,0L31,60l-.13,0-.32.08-.1,0-.46.1-.11,0-.38.06-.18,0-.36,0-.18,0-.47,0h-.09l-.59.05-.18,0-.44,0h-.22l-.45,0h-.2l-.66,0c-3.9,0-7.07-.61-7.08-1.45l0,1.89c0,.85,3.18,1.5,7.08,1.46l.66,0h.65l.22,0,.44,0h.18l.59,0h.09l.47,0,.18,0,.36,0,.18,0,.38-.06.11,0,.46-.1.1,0,.32-.08.13,0,.25-.07.12,0,.27-.1.05,0,.27-.12.06,0,.11-.06.06,0,0,0,.16-.13h0l.1-.14h0a.28.28,0,0,0,0-.15" transform="translate(0)"/><path class="cls-4" d="M32.45,59.15s0,0,0,0,0,0,0-.08h0c0-.84-3.18-1.49-7.08-1.45a20.79,20.79,0,0,0-5.94.76c-.7.25-1.11.53-1.11.83a.36.36,0,0,0,0,.1v0l.05.08a.21.21,0,0,0,0,.06l.08.09.08,0,.12.09.09,0,.16.08.11.05.19.07.14,0,.22.07.16,0,.25.07.18,0,.28.06.19,0,.31.05.2,0,.33.05.22,0,.36.05.22,0,.39,0H23a3,3,0,0,0,.43,0h.19l.47,0h.11c.41,0,.84,0,1.27,0l1.32,0h.06c.18,0,.35,0,.52,0h.14l.47,0h.17l.43-.05.17,0,.4-.06.18,0,.37-.06.16,0,.35-.07.15,0,.32-.07.13,0,.29-.08.11,0,.26-.09.1,0,.22-.09.09,0,.18-.09.06,0,.14-.1.06,0,.09-.1,0,0,.05-.1" transform="translate(0)"/><path class="cls-3" d="M32.5,58.72l0-1.9a.4.4,0,0,1,0,.15h0a.65.65,0,0,1-.1.15h0l-.16.13,0,0a1,1,0,0,1-.17.1l-.06,0-.27.12-.05,0a1.69,1.69,0,0,1-.27.1l-.12,0-.25.07-.13,0-.32.08-.1,0-.46.1-.11,0-.38.06-.18,0-.36,0-.18,0-.47,0h-.09l-.59,0H27.4a3.15,3.15,0,0,1-.44,0l-.22,0-.45,0h-.2l-.66,0c-3.9,0-7.07-.61-7.08-1.46l0,1.9c0,.84,3.18,1.49,7.08,1.45h.86l.45,0H27l.44,0h.18l.59,0h.09l.47-.06.18,0,.36,0,.18,0,.38-.06.11,0,.46-.1.1,0,.32-.08.13,0,.25-.07.12,0,.27-.1.05,0,.27-.12.06,0,.11-.06.06,0,0,0,.16-.13h0l.1-.14h0a.28.28,0,0,0,0-.15" transform="translate(0)"/><path class="cls-4" d="M32.45,56.93a0,0,0,0,0,0,0s0,0,0-.08h0c0-.84-3.18-1.49-7.08-1.45a20.43,20.43,0,0,0-5.94.76c-.7.25-1.11.53-1.11.83a.36.36,0,0,0,0,.1v0a.41.41,0,0,0,.05.09l0,.06.08.08.08.06a.36.36,0,0,0,.12.08l.09.06.16.08.11,0,.19.07.14,0,.22.07.16,0,.25.07.18,0,.28.06.19,0,.31.06.2,0,.33.05.22,0,.36,0,.22,0,.39,0H23l.43,0h.19l.47,0h.11l1.27,0,1.32,0h.06l.52,0h.14l.47,0h.17l.43-.05.17,0,.4-.06.18,0,.37-.06.16,0,.35-.07.15,0,.32-.07.13,0,.29-.08.11,0,.26-.09.1,0,.22-.09.09,0,.18-.09.06,0,.14-.1.06,0,.09-.1,0,0a.31.31,0,0,0,.05-.1" transform="translate(0)"/><path class="cls-3" d="M32.05,56.51l0-1.9a.4.4,0,0,1,0,.15h0a.33.33,0,0,1-.1.14h0l-.15.13,0,0-.16.1-.07,0-.27.12-.05,0-.27.1-.11,0-.26.07-.13,0-.32.08-.1,0-.46.1-.11,0-.38.06-.17,0-.37,0-.18,0-.47.06h-.09l-.59,0H27l-.45,0h-.22l-.44,0H25c-3.89,0-7.06-.6-7.07-1.45v1.9c0,.84,3.19,1.49,7.09,1.45h.85l.45,0h.22L27,58h.17l.59,0h.09l.47-.06.18,0,.37,0,.17,0,.38-.06.11,0,.46-.09.1,0,.32-.08.13,0,.25-.07.12,0,.27-.1.05,0,.27-.12.06,0,.12-.06.05,0,.05,0,.15-.13h0a.57.57,0,0,0,.1-.13h0v0a.32.32,0,0,0,0-.14" transform="translate(0)"/><path class="cls-4" d="M32,54.72l0,0s0-.05,0-.08h0c0-.85-3.18-1.5-7.08-1.46a20.73,20.73,0,0,0-5.94.77c-.7.24-1.11.53-1.11.83,0,0,0,.07,0,.09l0,0A.36.36,0,0,0,18,55L18,55l.09.08.07.06a.36.36,0,0,0,.12.08l.09.06.16.08.12,0,.18.07.14,0,.22.07.16,0,.25.07.18,0,.28.06.19,0,.31.06.21,0,.33,0,.21,0,.36,0,.22,0,.39,0h.21l.43,0h.19l.48,0h.1c.41,0,.84,0,1.27,0s.89,0,1.32,0h.06l.52,0H27l.47,0,.17,0,.43,0,.17,0,.41-.06.17,0,.37-.06.16,0,.35-.07.15,0,.32-.08.13,0,.29-.08.12,0,.25-.09.1,0,.22-.09.09,0,.18-.09.07,0,.14-.09s0,0,0-.05a.43.43,0,0,0,.09-.1l0,0a.3.3,0,0,0,0-.1" transform="translate(0)"/><path class="cls-3" d="M32.5,54.3l0-1.9a.4.4,0,0,1,0,.15h0a.45.45,0,0,1-.1.14h0l-.16.13,0,0L32,53l-.06,0-.27.12-.05,0-.27.1-.12,0-.25.07-.13,0-.32.08-.1,0-.46.1-.11,0-.38.06-.18,0-.36,0-.18,0-.47.06h-.09l-.59,0H27.4l-.44,0h-.22l-.45,0h-.86c-3.9,0-7.07-.61-7.08-1.45l0,1.9c0,.84,3.18,1.49,7.08,1.45h.86l.45,0H27l.44,0h.18l.59,0h.09l.47-.06.18,0,.36,0,.18,0,.38-.07.11,0,.46-.09.1,0,.32-.08.13,0,.25-.08.12,0,.27-.1.05,0a1.69,1.69,0,0,0,.27-.13l.06,0,.11-.06.06,0,0,0,.16-.13h0a.71.71,0,0,0,.1-.14h0v0a.23.23,0,0,0,0-.14" transform="translate(0)"/><path class="cls-4" d="M32.45,52.51v0s0-.05,0-.08h0c0-.85-3.18-1.5-7.08-1.46a20.73,20.73,0,0,0-5.94.77c-.7.24-1.11.53-1.11.83a.29.29,0,0,0,0,.09v0a.22.22,0,0,0,.05.08.16.16,0,0,0,0,.07l.08.08.08.06.12.08.09.06.16.07.11.06.19.07.14.05.22.07.16,0,.25.07.18,0,.28.06.19,0,.31.05.2,0,.33,0,.22,0,.36,0,.22,0,.39,0H23l.43,0h.19l.47,0h.11c.41,0,.84,0,1.27,0s.89,0,1.32,0h.06l.52,0h.14l.47,0,.17,0,.43,0,.17,0,.4-.05.18,0,.37-.06.16,0,.35-.07.15,0,.32-.08.13,0,.29-.08.11,0,.26-.08.1,0,.22-.09.09,0,.18-.1.06,0a.5.5,0,0,0,.14-.1l.06,0,.09-.1,0,0a.47.47,0,0,0,.05-.1" transform="translate(0)"/><g class="cls-5"><g class="cls-6"><path class="cls-7" d="M25.4,50.94a20.73,20.73,0,0,0-5.94.77c-.7.24-1.11.53-1.11.83h0l0,1.66c-.29.17-.47.35-.46.54h0l0,1.89c0,.18.15.36.43.52v1.69a.42.42,0,0,0,0,.15.35.35,0,0,0-.06.16h0l0,1.89a.42.42,0,0,0,0,.15.35.35,0,0,0-.06.17h0V63.2a.56.56,0,0,0-.24.4h0l0,1.9a.49.49,0,0,0,.21.35v1.86c0,.84,3.16,1.48,7,1.45Z" transform="translate(0)"/></g></g><path class="cls-3" d="M49.81,67.56l0-1.89a.43.43,0,0,1,0,.14v0a.94.94,0,0,1-.1.14h0l-.16.14-.05,0-.16.1-.06,0a1.69,1.69,0,0,1-.27.13l-.05,0-.27.1-.12,0-.25.08-.14,0-.31.07-.1,0-.46.09-.11,0-.38.07-.18,0-.36.06-.18,0-.47,0h-.1l-.58.06h-.18l-.45,0h-.21l-.45,0h-.86c-3.9,0-7.07-.61-7.08-1.45l0,1.9c0,.84,3.18,1.49,7.08,1.45h.86l.45,0h.21l.45,0h.17l.59-.06h.1l.47,0,.17,0,.37-.06.18,0,.38-.07.11,0,.46-.09.1,0,.31-.08.14,0,.25-.08.12,0,.27-.1,0,0,.27-.12.06,0,.11-.07.05,0,0,0a.64.64,0,0,0,.15-.13h0a.55.55,0,0,0,.09-.14h0a.42.42,0,0,0,0-.15" transform="translate(0)"/><path class="cls-4" d="M49.76,65.78a0,0,0,0,1,0,0,.25.25,0,0,0,0-.08h0c0-.85-3.18-1.5-7.08-1.46a20.73,20.73,0,0,0-5.94.77c-.7.24-1.11.53-1.11.83a.29.29,0,0,0,0,.09s0,0,0,0,0,0,0,.08l.05.07.08.08.07.06.12.08.1,0,.15.08.12,0,.19.08.14,0,.22.07.16,0,.25.06.17,0,.29.06.19,0,.3,0,.21,0,.33,0,.22,0,.36,0,.22,0,.39,0,.21,0,.43,0h.19l.47,0h.11c.41,0,.84,0,1.27,0s.89,0,1.32,0h.06l.52,0h.14l.47,0h.16l.44-.05.17,0,.4,0,.17,0,.38-.06.16,0,.35-.06.14,0,.32-.08.13,0,.3-.08.11,0,.26-.09.1,0,.22-.09.08,0,.18-.1.07,0,.14-.1,0,0,.1-.1,0-.05a.93.93,0,0,0,0-.1" transform="translate(0)"/><path class="cls-3" d="M49.58,65.35l0-1.9a.4.4,0,0,1,0,.15h0a.44.44,0,0,1-.1.15h0a.64.64,0,0,1-.15.13l-.05,0-.16.1-.07,0-.27.13,0,0-.27.09-.11,0-.26.08-.13,0-.32.08-.1,0-.45.09-.12,0-.38.07-.17,0-.37.06-.18,0-.47,0h-.09l-.59.06h-.17L44,65h-.21l-.45,0h-.86c-3.9,0-7.07-.61-7.08-1.45l0,1.9c0,.84,3.18,1.49,7.08,1.45l.65,0h.21l.45,0h.21l.45,0,.17,0,.59,0h.09l.47-.05.18,0,.37,0,.17,0,.38-.07.12,0,.45-.09.1,0,.32-.08.13,0,.26-.08.11,0a1.69,1.69,0,0,0,.27-.1l.05,0L49,66l.07,0,.11-.06.05,0,0,0a.64.64,0,0,0,.15-.13h0a.61.61,0,0,0,.1-.14h0a.4.4,0,0,0,0-.15" transform="translate(0)"/><path class="cls-4" d="M49.54,63.57v0a.28.28,0,0,0,0-.09h0c0-.84-3.17-1.49-7.07-1.45a20.87,20.87,0,0,0-6,.76c-.7.25-1.11.53-1.1.84a.28.28,0,0,0,0,.09l0,0a.3.3,0,0,0,0,.08l.05.06.08.09.07.06.12.08.09,0a.8.8,0,0,0,.16.08l.12,0,.19.08.13,0,.23.07.15.05.26.06.17,0,.28.06.19,0,.31.05.21,0,.33,0,.22,0,.35,0,.22,0,.39,0L40,65l.43,0h.19l.48,0h1.38c.45,0,.89,0,1.31,0h.06l.53,0h.13l.48,0h.16l.43,0,.18,0,.4,0,.17,0,.37-.06.16,0,.35-.07a.8.8,0,0,0,.15,0l.32-.07.13,0,.29-.09.12,0,.25-.09.1,0a1.12,1.12,0,0,0,.22-.1l.09,0,.18-.1.07,0,.14-.1,0,0,.09-.1,0,0a.93.93,0,0,0,0-.1" transform="translate(0)"/><path class="cls-3" d="M49.81,63.14l0-1.9a.42.42,0,0,1,0,.15h0a.65.65,0,0,1-.1.15h0l-.16.13-.05,0-.16.09-.06,0L49,62l-.05,0-.27.1-.12,0-.25.08-.14,0-.31.08-.1,0-.46.09-.11,0-.38.07-.18,0-.36.05-.18,0-.47,0h-.1l-.58.05-.18,0-.45,0h-.21l-.45,0h-.86c-3.9,0-7.07-.61-7.08-1.45l0,1.9c0,.84,3.18,1.49,7.08,1.45l.66,0h.2l.45,0,.21,0,.45,0,.17,0,.59,0h.1l.47,0,.18,0,.36,0,.18,0,.38-.06.11,0,.46-.1.1,0,.31-.08.14,0,.25-.08.12,0,.27-.1,0,0,.27-.12.06,0,.11-.06.05,0,0,0,.16-.13h0l.1-.14h0a.42.42,0,0,0,0-.15" transform="translate(0)"/><path class="cls-4" d="M49.76,61.36s0,0,0,0a.19.19,0,0,0,0-.08h0c0-.84-3.18-1.49-7.08-1.45a20.79,20.79,0,0,0-5.94.76c-.7.25-1.11.53-1.11.84a.29.29,0,0,0,0,.09s0,0,0,0l.05.08a.21.21,0,0,0,0,.06l.08.09.07.06.12.08.1,0,.15.08.12.05.19.07.14,0,.22.07.16,0,.25.06.17,0,.29.06.19,0,.3,0,.21,0,.33.05.22,0,.36,0,.22,0,.39,0,.21,0,.43,0h.19l.47,0h1.38l1.32,0h.06l.52,0h.14l.47,0h.17l.43-.05.17,0,.4-.05.17,0,.38-.06.16,0,.35-.07.14,0,.33-.07.13,0,.29-.09.11,0,.26-.09.1,0,.22-.1.08,0,.19-.09.06,0,.14-.1,0,0,.1-.1,0,0a.93.93,0,0,0,0-.1" transform="translate(0)"/><path class="cls-3" d="M49.81,60.93l0-1.9a.42.42,0,0,1,0,.15h0a.65.65,0,0,1-.1.15h0l-.16.13-.05,0-.16.09-.06,0-.27.12-.05,0-.27.1-.12,0-.25.08-.14,0-.31.08-.1,0-.46.1-.11,0-.38.06-.18,0-.36,0-.18,0-.47,0h-.1l-.58.05-.18,0-.45,0h-.21l-.45,0h-.2l-.66,0c-3.9,0-7.07-.61-7.08-1.45l0,1.89c0,.85,3.18,1.5,7.08,1.46l.66,0h.65l.21,0,.45,0h.17l.59,0h.1l.47,0,.17,0,.37,0,.18,0,.38-.06.11,0,.46-.1.1,0,.31-.08.14,0,.25-.07.12,0,.27-.1,0,0,.27-.12.06,0,.11-.06a.1.1,0,0,0,.05,0l0,0a1,1,0,0,0,.15-.13h0a.8.8,0,0,0,.09-.14h0a.42.42,0,0,0,0-.15" transform="translate(0)"/><path class="cls-4" d="M49.76,59.15s0,0,0,0a.19.19,0,0,0,0-.08h0c0-.84-3.18-1.49-7.08-1.45a20.79,20.79,0,0,0-5.94.76c-.7.25-1.11.53-1.11.83a.36.36,0,0,0,0,.1v0a.59.59,0,0,1,0,.08l.05.06.08.09.07,0,.12.09.1,0,.15.08.12.05.19.07.14,0L37,60l.16,0,.25.07.17,0,.29.06.19,0,.3.05.21,0,.33.05.22,0,.36.05.22,0,.39,0h.21a3,3,0,0,0,.43,0h.19l.47,0h.11c.41,0,.84,0,1.27,0l1.32,0h.06l.52,0h.14l.47,0h.16l.44-.05.17,0,.4-.06.17,0,.38-.06.16,0,.35-.07.14,0,.32-.07.13,0,.3-.08.11,0,.26-.09.1,0,.22-.09.08,0,.18-.09.07,0,.14-.1,0,0,.1-.1,0,0a.93.93,0,0,0,0-.1" transform="translate(0)"/><path class="cls-3" d="M49.81,58.72l0-1.9a.42.42,0,0,1,0,.15h0a.65.65,0,0,1-.1.15h0l-.16.13-.05,0a.62.62,0,0,1-.16.1l-.06,0-.27.12-.05,0-.27.1-.12,0-.25.07-.14,0-.31.08-.1,0-.46.1-.11,0-.38.06-.18,0-.36,0-.18,0-.47,0h-.1l-.58,0h-.18a3.29,3.29,0,0,1-.45,0l-.21,0-.45,0h-.2l-.66,0c-3.9,0-7.07-.61-7.08-1.46l0,1.9c0,.84,3.18,1.49,7.08,1.45h.86l.45,0h.21l.45,0h.17l.59,0h.1l.47-.06.17,0,.37,0,.18,0,.38-.06.11,0,.46-.1.1,0,.31-.08.14,0,.25-.07.12,0,.27-.1,0,0,.27-.12.06,0,.11-.06.05,0,0,0a1,1,0,0,0,.15-.13h0a.8.8,0,0,0,.09-.14h0a.42.42,0,0,0,0-.15" transform="translate(0)"/><path class="cls-4" d="M49.76,56.93a0,0,0,0,0,0,0,.19.19,0,0,0,0-.08h0c0-.84-3.18-1.49-7.08-1.45a20.43,20.43,0,0,0-5.94.76c-.7.25-1.11.53-1.11.83a.36.36,0,0,0,0,.1v0l0,.09.05.06a.3.3,0,0,0,.08.08l.07.06.12.08.1.06.15.08.12,0,.19.07.14,0,.22.07.16,0,.25.07.17,0,.29.06.19,0,.3.06.21,0,.33.05.22,0,.36,0,.22,0,.39,0h.21l.43,0h.19l.47,0h.11l1.27,0,1.32,0h.06l.52,0h.14l.47,0h.16l.44-.05.17,0,.4-.06.17,0,.38-.06.16,0,.35-.07.14,0,.32-.07.13,0,.3-.08.11,0,.26-.09.1,0,.22-.09.08,0,.18-.09.07,0,.14-.1s0,0,0,0l.1-.1,0,0a.31.31,0,0,0,0-.1" transform="translate(0)"/><path class="cls-3" d="M49.36,56.51l0-1.9a.4.4,0,0,1,0,.15h0a.45.45,0,0,1-.1.14h0l-.16.13,0,0a1,1,0,0,1-.17.1l-.06,0-.27.12,0,0-.27.1-.12,0-.25.07-.13,0-.32.08-.1,0-.46.1-.11,0-.38.06-.17,0-.37,0-.18,0-.47.06H45l-.59,0h-.18l-.44,0H43.6l-.45,0h-.86c-3.9,0-7.07-.6-7.08-1.45l0,1.9c0,.84,3.18,1.49,7.08,1.45h.86l.45,0h.22l.44,0h.18l.59,0h.09l.47-.06.18,0,.36,0,.18,0,.38-.06.11,0,.46-.09.1,0,.32-.08.13,0,.25-.07.12,0,.27-.1.05,0,.27-.12.06,0L49,57,49,57l0,0,.16-.13h0a1.13,1.13,0,0,0,.1-.13h0v0a.23.23,0,0,0,0-.14" transform="translate(0)"/><path class="cls-4" d="M49.31,54.72v0a.22.22,0,0,0,0-.08h0c0-.85-3.18-1.5-7.08-1.46a20.73,20.73,0,0,0-5.94.77c-.7.24-1.11.53-1.11.83a.24.24,0,0,0,0,.09v0a.41.41,0,0,0,0,.09l0,.06.08.08.08.06.11.08.1.06.16.08.11,0,.19.07.14,0,.22.07.16,0,.25.07.18,0,.28.06.19,0,.31.06.2,0,.33,0,.22,0,.36,0,.22,0,.39,0h.21l.43,0h.19l.47,0H41c.41,0,.84,0,1.27,0s.89,0,1.32,0h.06l.52,0h.14l.47,0,.17,0,.43,0,.17,0,.4-.06.18,0,.37-.06.16,0,.35-.07.14,0,.33-.08.13,0,.29-.08.11,0,.26-.09.1,0,.22-.09.09,0,.18-.09.06,0,.14-.09.06-.05.09-.1,0,0a.31.31,0,0,0,.05-.1" transform="translate(0)"/><path class="cls-3" d="M49.81,54.3l0-1.9a.42.42,0,0,1,0,.15h0a.45.45,0,0,1-.1.14h0l-.16.13-.05,0-.16.1-.06,0-.27.12-.05,0-.27.1-.12,0-.25.07-.14,0-.31.08-.1,0-.46.1-.11,0-.38.06-.18,0-.36,0-.18,0-.47.06h-.1l-.58,0h-.18l-.45,0h-.21l-.45,0h-.86c-3.9,0-7.07-.61-7.08-1.45l0,1.9c0,.84,3.18,1.49,7.08,1.45h.86l.45,0h.21l.45,0h.17l.59,0h.1l.47-.06.17,0,.37,0,.18,0,.38-.07.11,0,.46-.09.1,0,.31-.08.14,0,.25-.08.12,0,.27-.1,0,0,.27-.13.06,0,.11-.06.05,0,0,0,.15-.13h0a.42.42,0,0,0,.09-.14h0v0a.33.33,0,0,0,0-.14" transform="translate(0)"/><path class="cls-4" d="M49.76,52.51v0a.22.22,0,0,0,0-.08h0c0-.85-3.18-1.5-7.08-1.46a20.73,20.73,0,0,0-5.94.77c-.7.24-1.11.53-1.11.83a.29.29,0,0,0,0,.09v0l0,.08.05.07a.6.6,0,0,0,.08.08l.07.06.12.08.1.06.15.07.12.06.19.07.14.05.22.07.16,0,.25.07.17,0,.29.06.19,0,.3.05.21,0,.33,0,.22,0,.36,0,.22,0,.39,0h.21l.43,0h.19l.47,0h.11c.41,0,.84,0,1.27,0s.89,0,1.32,0h.06l.52,0h.14l.47,0,.16,0,.44,0,.17,0,.4-.05.17,0,.38-.06.16,0,.35-.07.14,0,.32-.08.13,0,.3-.08.11,0,.26-.08.1,0,.22-.09.08,0a.77.77,0,0,0,.18-.1l.07,0a.71.71,0,0,0,.14-.1l0,0,.1-.1,0,0a.47.47,0,0,0,0-.1" transform="translate(0)"/><path class="cls-3" d="M50.13,52.08l0-1.89a.33.33,0,0,1,0,.14v0a.61.61,0,0,1-.1.14h0l-.16.14-.05,0-.16.1-.06,0-.27.12-.05,0L49,51l-.12,0-.25.08-.14,0-.31.08-.1,0-.46.09-.11,0-.38.07-.18,0-.36,0-.18,0-.47.06h-.1l-.58,0H45l-.45,0h-.21l-.45,0h-.86c-3.9,0-7.07-.61-7.08-1.45l0,1.9c0,.84,3.18,1.49,7.08,1.45h.86l.45,0h.21l.45,0h.18l.58-.06h.1l.47-.05.18,0,.36-.05.18,0,.38-.07.11,0,.46-.09.1,0,.31-.07.14,0,.25-.08.12,0,.27-.1,0,0,.27-.13.06,0,.11-.06.05,0a.1.1,0,0,0,0,0l.16-.13h0a.71.71,0,0,0,.1-.14h0a.42.42,0,0,0,0-.15" transform="translate(0)"/><path class="cls-4" d="M50.08,50.3v0a.25.25,0,0,0,0-.08h0c0-.85-3.18-1.5-7.08-1.46a20.73,20.73,0,0,0-5.94.77c-.7.24-1.11.53-1.11.83a.29.29,0,0,0,0,.09s0,0,0,0a.22.22,0,0,0,.05.08.16.16,0,0,0,0,.07.6.6,0,0,0,.08.08l.07.06.12.08.1.06.15.07.12,0,.19.08.14.05.22.07.16,0,.25.07.17,0c.1,0,.19,0,.29.06l.19,0,.3.05.21,0,.33,0,.22,0,.36,0,.22,0,.39,0h.21l.43,0h.19l.47,0h.11c.41,0,.84,0,1.27,0s.89,0,1.32,0h.06l.52,0h.14l.47,0,.17,0,.43,0,.17,0,.4,0,.17,0,.38-.07.16,0,.35-.07.14,0,.33-.08.13,0,.29-.08.11,0,.26-.08.1,0,.22-.09.08,0,.19-.1.06,0a.71.71,0,0,0,.14-.1l0,0a.94.94,0,0,0,.1-.1l0-.05a.47.47,0,0,0,0-.1" transform="translate(0)"/><path class="cls-3" d="M49.81,49.87l0-1.89a.43.43,0,0,1,0,.14v0a.61.61,0,0,1-.1.14h0l-.16.14-.05,0-.16.1-.06,0a1.69,1.69,0,0,1-.27.13l-.05,0-.27.1-.12,0-.25.08-.14,0-.31.08-.1,0-.46.09-.11,0-.38.07-.18,0-.36.05-.18,0-.47,0-.1,0-.58,0h-.18l-.45,0h-.21l-.45,0h-.86c-3.9,0-7.07-.61-7.08-1.45l0,1.9c0,.84,3.18,1.49,7.08,1.45h.86l.45,0h.21l.45,0h.17l.59-.06h.1l.47-.05.17,0,.37-.06.18,0,.38-.07.11,0,.46-.09.1,0,.31-.08.14,0,.25-.08.12,0,.27-.1h0l.27-.13.06,0,.11-.07.05,0,0,0a.64.64,0,0,0,.15-.13h0a.55.55,0,0,0,.09-.14h0a.42.42,0,0,0,0-.15" transform="translate(0)"/><path class="cls-4" d="M49.76,48.09a0,0,0,0,1,0,0,.25.25,0,0,0,0-.08h0c0-.85-3.18-1.5-7.08-1.46a20.73,20.73,0,0,0-5.94.77c-.7.24-1.11.53-1.11.83a.29.29,0,0,0,0,.09s0,0,0,0,0,0,0,.08l.05.07.08.08.07.06.12.08.1,0,.15.08.12,0,.19.08.14.05L37,49l.16,0,.25.06.17,0,.29.06.19,0,.3.05.21,0,.33,0,.22,0,.36,0,.22,0,.39,0h.21l.43,0h.19l.47,0h.11c.41,0,.84,0,1.27,0s.89,0,1.32,0h.06l.52,0h.14l.47-.05h.16l.44,0,.17,0,.4,0,.17,0,.38-.06.16,0,.35-.06.14,0,.32-.08.13,0,.3-.08.11,0,.26-.08.1,0,.22-.09.08,0,.18-.1.07,0a.71.71,0,0,0,.14-.1l0,0,.1-.1,0-.05,0-.1" transform="translate(0)"/><path class="cls-3" d="M50,47.56,50,45.66a.4.4,0,0,1,0,.15h0l-.1.15h0a1,1,0,0,1-.15.13l0,0-.16.1-.07,0a1.69,1.69,0,0,1-.27.13l0,0-.26.11-.12,0-.25.09-.14,0-.31.09-.1,0-.46.1-.11,0L47,47l-.17,0-.37.06-.18,0-.47.06h-.09l-.59.07h-.17l-.45,0h-.21l-.45,0h-.2l-.66,0c-3.9.1-7.08-.5-7.1-1.34l0,1.9c0,.84,3.2,1.44,7.1,1.34l.66,0h.2l.45,0,.21,0,.45,0,.17,0,.59-.06h.09L46.3,49l.18,0,.37-.06.17,0,.38-.08.11,0,.46-.1.1,0,.31-.09.13,0,.26-.08.11,0a1.69,1.69,0,0,0,.27-.1l.05,0a1.69,1.69,0,0,0,.27-.13l.06,0,.11-.07a.1.1,0,0,0,0,0l.05,0a1,1,0,0,0,.15-.13h0a.42.42,0,0,0,.09-.14h0v0a.35.35,0,0,0,0-.14" transform="translate(0)"/><path class="cls-4" d="M50,45.77s0,0,0,0a.22.22,0,0,0,0-.08h0c0-.85-3.2-1.45-7.1-1.35a20.82,20.82,0,0,0-5.93.86c-.69.25-1.1.55-1.09.85a.15.15,0,0,0,0,.09v0a.35.35,0,0,0,0,.08l0,.07.09.08a.18.18,0,0,0,.07.05.5.5,0,0,0,.12.08l.09.06.16.07.12,0,.19.07.14,0,.22.07.16,0,.25.06.18,0,.28.06.19,0,.31,0,.21,0,.33,0,.22,0,.36,0,.21,0,.4,0h.21l.43,0h.77c.41,0,.84,0,1.27,0s.89,0,1.32-.06h0l.53,0H45l.47,0,.16,0,.44,0,.17,0,.4-.06.17,0,.37-.07.16,0,.35-.08.14,0,.33-.08.12,0,.29-.09.12,0,.25-.09.1,0,.22-.1.09,0,.18-.1.06,0a.85.85,0,0,0,.14-.1l.05,0,.1-.1,0-.05a.47.47,0,0,0,.05-.1" transform="translate(0)"/><path class="cls-3" d="M50.23,45.34l0-1.9a.4.4,0,0,1,0,.15h0a1.3,1.3,0,0,1-.1.15h0a1,1,0,0,1-.15.14l0,0a.62.62,0,0,1-.16.1l-.06,0-.27.13-.05,0-.27.1-.11,0-.25.08-.14,0-.31.08-.1,0-.46.1-.11,0-.38.07-.17,0-.37.06-.18,0L46,45h-.09L45.3,45l-.17,0-.45,0-.21,0-.45,0h-.2l-.66,0c-3.9.1-7.08-.5-7.1-1.34l0,1.89c0,.84,3.2,1.45,7.1,1.35l.66,0h.2l.45,0,.21,0,.45,0h.17l.59-.06H46l.47-.07.18,0,.37-.06.17,0,.38-.07.11,0,.46-.1.1,0,.31-.08.13,0,.26-.08.11,0,.27-.1,0,0,.27-.13.06,0,.11-.06,0,0a.1.1,0,0,0,0,0,.64.64,0,0,0,.15-.13h0a.41.41,0,0,0,.1-.14h0a.4.4,0,0,0,0-.15" transform="translate(0)"/><path class="cls-4" d="M50.16,43.56s0,0,0,0a.28.28,0,0,0,0-.09h0c0-.84-3.2-1.44-7.1-1.34a20.46,20.46,0,0,0-5.93.86c-.69.25-1.1.54-1.09.84a.18.18,0,0,0,0,.1v0a.41.41,0,0,0,0,.09.21.21,0,0,0,0,.06l.09.08.07.06.12.08.09.05.16.08.12,0,.19.07.14,0,.22.07.16,0,.25.06.18,0,.28.06.19,0,.31,0L39,45l.33,0,.22,0,.36,0h.21l.4,0h.21l.43,0h2q.68,0,1.32-.06h.05l.53,0h.14l.47-.05h.16l.44-.06.17,0,.4-.06.17,0,.37-.07.16,0,.35-.07.14,0,.33-.08.13,0,.28-.08.12,0,.25-.09.1,0,.22-.09.09,0,.18-.09.06,0a.5.5,0,0,0,.14-.1l0,0,.1-.1,0-.05a.93.93,0,0,0,0-.1" transform="translate(0)"/><g class="cls-5"><g class="cls-8"><path class="cls-7" d="M37.15,43c-.69.25-1.1.54-1.09.84h0l0,1.8a.56.56,0,0,0-.25.41h0l0,1.7a.53.53,0,0,0-.24.39h0l0,1.89c0,.15.11.29.3.43l0,1.62c-.22.15-.34.31-.34.47h0l0,1.66c-.29.17-.47.35-.47.54h0l0,1.89c0,.18.16.36.43.51l0,1.7a.42.42,0,0,0,0,.15.35.35,0,0,0-.06.16h0l0,1.89a.42.42,0,0,0,0,.15.35.35,0,0,0-.06.17h0l0,1.81a.56.56,0,0,0-.24.4h0l0,1.9a.48.48,0,0,0,.2.35l0,1.86c0,.84,3.18,1.49,7.08,1.45v-27a19.88,19.88,0,0,0-5.61.85" transform="translate(0)"/></g></g><path class="cls-3" d="M54.24,67.56l0-1.89a.39.39,0,0,0,0,.14v0a.94.94,0,0,0,.1.14h0s.1.09.15.14l.05,0,.17.1.06,0a1.69,1.69,0,0,0,.27.13l0,0,.27.1.11,0,.26.08.13,0,.32.07.1,0,.46.09.11,0,.38.07.17,0,.37.06.18,0,.47,0h.09l.59.06h.17l.45,0H60l.45,0h.86c3.9,0,7.07-.61,7.07-1.45v1.9c0,.84-3.18,1.49-7.08,1.45h-.86l-.45,0h-.22l-.44,0h-.18L58.55,69h-.09L58,69l-.18,0-.37-.06-.17,0-.38-.07-.11,0-.46-.09-.1,0-.32-.08-.13,0-.25-.08-.12,0a1.69,1.69,0,0,1-.27-.1l-.05,0-.27-.12-.06,0-.12-.07-.05,0,0,0a.7.7,0,0,1-.16-.13h0a.61.61,0,0,1-.1-.14h0a.4.4,0,0,1,0-.15" transform="translate(0)"/><path class="cls-4" d="M54.29,65.78v0a.31.31,0,0,1,0-.08h0c0-.85,3.18-1.5,7.08-1.46a20.73,20.73,0,0,1,5.94.77c.7.24,1.11.53,1.11.83a.29.29,0,0,1,0,.09s0,0,0,0a.35.35,0,0,1,0,.08.43.43,0,0,0,0,.07l-.09.08-.07.06a.62.62,0,0,1-.12.08l-.09,0-.16.08-.11,0-.19.08-.14,0-.22.07-.16,0-.25.06-.18,0-.28.06-.19,0-.31,0-.2,0-.33,0-.22,0-.36,0-.22,0-.39,0-.21,0-.43,0h-.19l-.47,0h-.11c-.41,0-.84,0-1.27,0s-.89,0-1.32,0h-.06l-.52,0h-.14l-.47,0h-.17l-.43-.05-.17,0-.4,0-.18,0-.37-.06-.16,0-.35-.06-.15,0-.32-.08-.13,0-.29-.08-.11,0-.26-.09-.1,0L55,66.35l-.09,0-.18-.1-.07,0-.13-.1-.06,0-.09-.1,0-.05a.31.31,0,0,1-.05-.1" transform="translate(0)"/><path class="cls-3" d="M54.47,65.35l0-1.9a.27.27,0,0,0,0,.15h0a1.3,1.3,0,0,0,.1.15h0a.64.64,0,0,0,.15.13.1.1,0,0,0,0,0L55,64l.06,0,.27.13,0,0,.27.09.12,0,.25.08.14,0,.31.08.11,0,.45.09.11,0,.38.07.18,0,.37.06.17,0,.47,0h.1l.59.06h.17L60,65h.21l.45,0h.86c3.9,0,7.07-.61,7.08-1.45l0,1.9c0,.84-3.18,1.49-7.08,1.45l-.66,0h-.2l-.45,0H60l-.45,0-.17,0-.59,0h-.09l-.48-.05-.17,0-.37,0-.18,0-.38-.07-.11,0-.45-.09-.11,0-.31-.08-.13,0-.26-.08-.11,0-.28-.1-.05,0L55,66l-.06,0-.11-.06,0,0-.05,0a.64.64,0,0,1-.15-.13h0a.55.55,0,0,1-.09-.14h0a.4.4,0,0,1,0-.15" transform="translate(0)"/><path class="cls-4" d="M54.51,63.57v0a.28.28,0,0,1,0-.09h0c0-.84,3.17-1.49,7.07-1.45a20.79,20.79,0,0,1,5.94.76c.7.25,1.11.53,1.11.84a.15.15,0,0,1,0,.09s0,0,0,0,0,.05,0,.08l-.05.06-.08.09-.07.06-.12.08-.1,0-.15.08-.12,0-.19.08-.14,0-.22.07-.16.05-.25.06-.17,0-.28.06-.2,0-.3.05-.21,0-.33,0-.22,0-.36,0-.22,0-.39,0L64,65l-.43,0h-.18l-.48,0H61.53c-.45,0-.89,0-1.32,0h-.05l-.53,0h-.14l-.47,0h-.16l-.44,0-.17,0-.4,0-.17,0-.38-.06-.16,0-.35-.07-.14,0-.32-.07-.13,0-.29-.09-.12,0-.26-.09-.1,0-.22-.1-.08,0L55,64l-.07,0-.14-.1-.05,0-.1-.1,0,0-.05-.1" transform="translate(0)"/><path class="cls-3" d="M54.24,63.14l0-1.9a.4.4,0,0,0,0,.15h0a.65.65,0,0,0,.1.15h0a.93.93,0,0,0,.15.13l.05,0,.16.09.07,0,.27.12,0,0a1.69,1.69,0,0,0,.27.1l.11,0,.26.08.13,0,.32.08.1,0,.46.09.11,0,.38.07.17,0,.37.05.18,0,.47,0h.09l.59.05.17,0,.45,0H60l.45,0h.86c3.89,0,7.07-.61,7.07-1.45v1.9c0,.84-3.18,1.49-7.08,1.45l-.66,0h-.2l-.45,0-.22,0-.44,0-.18,0-.59,0h-.09l-.47,0-.18,0-.37,0-.17,0-.38-.06-.11,0-.46-.1-.1,0-.32-.08-.13,0L55.52,64l-.12,0a1.69,1.69,0,0,1-.27-.1l-.05,0-.27-.12-.06,0-.12-.06-.05,0,0,0-.16-.13h0a.61.61,0,0,1-.1-.14h0a.4.4,0,0,1,0-.15" transform="translate(0)"/><path class="cls-4" d="M54.29,61.36l0,0s0,0,0-.08h0c0-.84,3.18-1.49,7.08-1.45a20.79,20.79,0,0,1,5.94.76c.7.25,1.11.53,1.11.84,0,0,0,.06,0,.09s0,0,0,0a.59.59,0,0,1,0,.08l0,.06-.09.09-.07.06-.12.08-.09,0-.16.08-.12.05-.18.07-.14,0-.22.07-.16,0-.25.06-.18,0-.28.06-.19,0-.31,0-.21,0-.33.05-.21,0-.36,0-.22,0-.39,0-.21,0-.43,0h-.19l-.48,0H61.31L60,62.8h-.06c-.18,0-.35,0-.52,0h-.14l-.47,0h-.17l-.43-.05-.17,0-.41-.05-.17,0-.37-.06-.16,0-.35-.07-.15,0-.32-.07-.13,0-.29-.09-.12,0-.25-.09-.1,0-.22-.1-.09,0-.18-.09-.07,0-.14-.1,0,0a.43.43,0,0,1-.09-.1s0,0,0,0l0-.1" transform="translate(0)"/><path class="cls-3" d="M53.92,60.93l0-1.9a.4.4,0,0,0,0,.15h0a.44.44,0,0,0,.1.15h0l.15.13a.1.1,0,0,1,.05,0l.16.09.07,0,.27.12,0,0a1.69,1.69,0,0,0,.27.1l.11,0,.26.08.13,0,.32.08.1,0,.45.1.12,0,.38.06.17,0,.37,0,.18,0,.47,0h.09l.59.05.17,0,.45,0h.22l.45,0h.2l.65,0c3.9,0,7.08-.61,7.08-1.45l0,1.89c0,.85-3.18,1.5-7.07,1.46l-.66,0h-.65l-.22,0-.45,0h-.17l-.59,0h-.09l-.47,0-.18,0-.37,0-.17,0-.38-.06-.11,0L56,62l-.1,0-.32-.08-.13,0-.26-.07-.11,0-.27-.1-.05,0-.27-.12-.06,0-.12-.06-.05,0,0,0-.15-.13h0a.94.94,0,0,1-.1-.14h0a.4.4,0,0,1,0-.15" transform="translate(0)"/><path class="cls-4" d="M54,59.15l0,0s0,0,0-.08h0c0-.84,3.18-1.49,7.08-1.45a20.79,20.79,0,0,1,5.94.76c.7.25,1.11.53,1.11.83,0,0,0,.07,0,.1l0,0a.59.59,0,0,1,0,.08l0,.06-.09.09-.07,0-.12.09-.09,0-.16.08-.12.05-.18.07L67,60l-.22.07-.16,0-.25.07-.18,0-.28.06-.19,0-.31.05-.21,0-.33.05-.21,0-.36.05-.22,0-.39,0h-.21a3.11,3.11,0,0,1-.43,0h-.19l-.48,0h-.1c-.41,0-.84,0-1.28,0l-1.31,0h-.06c-.18,0-.35,0-.52,0H59l-.47,0h-.17l-.43-.05-.17,0-.41-.06-.17,0-.37-.06-.16,0-.35-.07-.15,0-.32-.07-.13,0L55.36,60l-.12,0L55,59.84l-.1,0-.22-.09-.09,0-.18-.09-.07,0-.14-.1,0,0a.43.43,0,0,1-.09-.1s0,0,0,0l0-.1" transform="translate(0)"/><path class="cls-3" d="M54.24,58.72l0-1.9a.4.4,0,0,0,0,.15h0a.65.65,0,0,0,.1.15h0l.15.13.05,0a1,1,0,0,0,.17.1l.06,0,.27.12,0,0a1.69,1.69,0,0,0,.27.1l.11,0,.26.07.13,0,.32.08.1,0,.46.1.11,0,.38.06.17,0,.37,0,.18,0,.47,0h.09l.59,0h.17a3.4,3.4,0,0,0,.45,0l.22,0,.45,0h.2l.66,0c3.9,0,7.07-.61,7.07-1.46v1.9c0,.84-3.18,1.49-7.08,1.45h-.86l-.45,0h-.22l-.44,0h-.18l-.59,0h-.09L58,60.1l-.18,0-.37,0-.17,0-.38-.06-.11,0-.46-.1-.1,0-.32-.08-.13,0-.25-.07-.12,0-.27-.1-.05,0-.27-.12-.06,0-.12-.06-.05,0,0,0L54.38,59h0a.94.94,0,0,1-.1-.14h0a.4.4,0,0,1,0-.15" transform="translate(0)"/><path class="cls-4" d="M54.29,56.93s0,0,0,0a.19.19,0,0,1,0-.08h0c0-.84,3.18-1.49,7.08-1.45a20.43,20.43,0,0,1,5.94.76c.7.25,1.11.53,1.11.83a.36.36,0,0,1,0,.1v0a.41.41,0,0,1,0,.09l0,.06a.34.34,0,0,1-.09.08l-.07.06a.36.36,0,0,1-.12.08l-.09.06-.16.08-.11,0-.19.07-.14,0-.22.07-.16,0-.25.07-.18,0-.28.06-.19,0-.31.06-.2,0-.33.05-.22,0-.36,0-.22,0-.39,0h-.21l-.43,0h-.19l-.47,0h-.11l-1.27,0-1.32,0h-.06l-.52,0h-.14l-.47,0h-.17l-.43-.05-.17,0-.4-.06-.18,0-.37-.06-.16,0L56.57,58l-.15,0-.32-.07-.13,0-.29-.08-.11,0-.26-.09-.1,0L55,57.5l-.09,0-.18-.09-.07,0-.13-.1-.06,0-.09-.1,0,0a.19.19,0,0,1-.05-.1" transform="translate(0)"/><path class="cls-3" d="M53.83,56.51l0-1.9a.4.4,0,0,0,0,.15h0a.33.33,0,0,0,.1.14h0a1,1,0,0,0,.15.13l0,0,.16.1.07,0,.27.12.05,0,.27.1.11,0,.26.07.13,0,.32.08.1,0,.45.1.12,0,.38.06.17,0,.37,0,.18,0,.47.06h.09l.59,0h.17l.45,0h.21l.45,0h.86c3.9,0,7.07-.6,7.08-1.45l0,1.9c0,.84-3.18,1.49-7.08,1.45H60l-.45,0h-.22l-.45,0h-.17l-.59,0h-.09l-.47-.06-.18,0-.37,0-.17,0-.38-.06-.11,0-.46-.09-.1,0-.32-.08-.13,0-.26-.07-.11,0-.27-.1,0,0-.27-.12-.07,0L54.22,57l0,0-.05,0L54,56.82h0a.57.57,0,0,1-.1-.13h0v0a.32.32,0,0,1,0-.14" transform="translate(0)"/><path class="cls-4" d="M53.88,54.72s0,0,0,0,0-.05,0-.08h0c0-.85,3.18-1.5,7.08-1.46a20.73,20.73,0,0,1,5.94.77c.7.24,1.11.53,1.11.83,0,0,0,.07,0,.09l0,0a.36.36,0,0,1,0,.09l0,.06-.09.08-.07.06a.36.36,0,0,1-.12.08l-.09.06-.16.08-.12,0L67,55.5l-.14,0-.22.07-.16,0-.25.07-.18,0-.28.06-.19,0-.31.06-.21,0-.33,0-.21,0-.36,0-.22,0-.39,0h-.21l-.43,0h-.19l-.48,0h-.1c-.41,0-.84,0-1.27,0s-.89,0-1.32,0h-.06l-.52,0h-.14l-.47,0-.17,0-.43,0-.17,0-.41-.06-.17,0-.37-.06-.16,0-.35-.07-.15,0-.32-.08-.13,0-.29-.08-.12,0-.25-.09-.1,0-.22-.09-.09,0-.18-.09-.07,0L54.1,55s0,0-.05-.05a.43.43,0,0,1-.09-.1l0,0a.3.3,0,0,1,0-.1" transform="translate(0)"/><path class="cls-3" d="M53.83,54.3l0-1.9a.4.4,0,0,0,0,.15h0a.33.33,0,0,0,.1.14h0l.15.13,0,0,.16.1.07,0,.27.12.05,0,.27.1.11,0,.26.07.13,0,.32.08.1,0,.45.1.12,0,.38.06.17,0,.37,0,.18,0,.47.06h.09l.59,0h.17l.45,0h.21L60,54h.86c3.9,0,7.07-.61,7.08-1.45l0,1.9c0,.84-3.18,1.49-7.08,1.45H60l-.44,0h-.22l-.45,0h-.17l-.59,0h-.09l-.47-.06-.18,0-.37,0-.17,0-.38-.07-.12,0-.45-.09-.1,0-.32-.08-.13,0-.26-.08-.11,0-.27-.1,0,0a1.69,1.69,0,0,1-.27-.13l-.07,0-.11-.06,0,0-.05,0L54,54.61h0a.45.45,0,0,1-.1-.14h0v0a.32.32,0,0,1,0-.14" transform="translate(0)"/><path class="cls-4" d="M53.87,52.51v0a.22.22,0,0,1,0-.08h0c0-.85,3.18-1.5,7.07-1.46a20.75,20.75,0,0,1,6,.77c.7.24,1.11.53,1.1.83a.28.28,0,0,1,0,.09l0,0a.2.2,0,0,1,0,.08.18.18,0,0,1-.05.07.6.6,0,0,1-.08.08L67.7,53l-.12.08-.09.06-.16.07-.12.06-.19.07-.13.05-.23.07-.15,0-.26.07-.17,0-.28.06-.19,0-.31.05-.21,0-.33,0-.22,0-.35,0-.22,0-.39,0h-.21l-.43,0h-.19l-.48,0h-.1c-.42,0-.84,0-1.28,0s-.89,0-1.31,0h-.06l-.52,0h-.14l-.47,0-.17,0-.43,0-.18,0-.4-.05-.17,0-.37-.06-.16,0-.35-.07-.15,0-.32-.08-.13,0-.29-.08-.12,0-.25-.08-.1,0-.22-.09-.09,0-.18-.1-.07,0-.14-.1-.05,0-.09-.1,0,0s0-.07-.05-.1" transform="translate(0)"/><path class="cls-3" d="M53.92,52.08l0-1.89a.32.32,0,0,0,0,.14v0a.61.61,0,0,0,.1.14h0l.15.13.05,0,.16.1.07,0,.27.12,0,0,.27.1.11,0,.26.08.13,0,.32.08.1,0,.46.09.11,0,.38.07.17,0,.37,0,.18,0,.47.06h.09l.59,0H59l.45,0h.22l.45,0H61c3.89,0,7.07-.61,7.07-1.45v1.9c0,.84-3.18,1.49-7.08,1.45h-.86l-.45,0h-.22l-.44,0h-.18l-.59-.06h-.09l-.47-.05-.18,0-.37-.05-.17,0-.38-.07-.11,0L56,53.19l-.1,0-.32-.07-.13,0L55.2,53l-.12,0-.27-.1-.05,0a1.69,1.69,0,0,1-.27-.13l-.06,0-.12-.06a.1.1,0,0,0-.05,0l0,0a.93.93,0,0,1-.15-.13h0a.45.45,0,0,1-.1-.14h0a.4.4,0,0,1,0-.15" transform="translate(0)"/><path class="cls-4" d="M54,50.3l0,0s0-.06,0-.08h0c0-.85,3.18-1.5,7.08-1.46A20.73,20.73,0,0,1,67,49.5c.7.24,1.11.53,1.11.83a.29.29,0,0,1,0,.09s0,0,0,0a.56.56,0,0,1-.05.08.43.43,0,0,1,0,.07l-.09.08-.07.06-.12.08-.09.06-.16.07a.43.43,0,0,1-.12,0l-.18.08-.14.05-.22.07-.16,0-.25.07-.18,0a2.3,2.3,0,0,1-.28.06l-.19,0-.31.05-.21,0-.33,0-.21,0-.36,0-.22,0-.39,0h-.21l-.43,0h-.19l-.48,0h-.1c-.41,0-.84,0-1.27,0s-.89,0-1.32,0h-.06l-.52,0H59l-.47,0-.17,0-.43,0-.17,0-.41,0-.17,0-.37-.07-.16,0-.35-.07-.15,0-.32-.08-.13,0-.29-.08-.12,0L55,51l-.1,0-.22-.09-.09,0-.18-.1-.07,0-.14-.1,0,0-.09-.1,0-.05a.42.42,0,0,1,0-.1" transform="translate(0)"/><path class="cls-3" d="M54.06,49.87l0-1.89a.25.25,0,0,0,0,.14v0l.1.14h0a1,1,0,0,0,.15.14l.05,0,.16.1.06,0,.27.13.05,0,.27.1.12,0,.25.08.14,0,.31.08.1,0,.46.09.11,0,.38.07.18,0,.37.05.17,0,.47,0,.1,0,.59,0h.17l.45,0h.21l.45,0h.86c3.9,0,7.07-.61,7.08-1.45l0,1.9c0,.84-3.18,1.49-7.08,1.45h-.86l-.45,0h-.21l-.45,0H59l-.59-.06h-.09l-.48-.05-.17,0-.37-.06-.18,0-.38-.07-.11,0L56.14,51,56,51l-.31-.08-.13,0-.26-.08-.12,0-.27-.1h0l-.27-.13-.06,0-.11-.07-.05,0,0,0a.64.64,0,0,1-.15-.13h0A.55.55,0,0,1,54.1,50h0a.4.4,0,0,1,0-.15" transform="translate(0)"/><path class="cls-4" d="M54.1,48.09a0,0,0,0,0,0,0,.25.25,0,0,1,0-.08h0c0-.85,3.17-1.5,7.07-1.46a20.73,20.73,0,0,1,5.94.77c.7.24,1.11.53,1.11.83a.15.15,0,0,1,0,.09s0,0,0,0l0,.08,0,.07-.08.08-.07.06-.12.08a.31.31,0,0,1-.1,0l-.15.08-.12,0-.19.08-.14.05-.22.07-.16,0-.25.06-.17,0-.28.06-.2,0-.3.05-.21,0-.33,0-.22,0-.36,0-.22,0-.39,0h-.21l-.43,0H63l-.48,0h-.11c-.41,0-.83,0-1.27,0s-.89,0-1.32,0h0l-.53,0h-.14l-.47-.05h-.16l-.44,0-.17,0-.4,0-.17,0-.38-.06-.16,0-.35-.06-.14,0L55.92,49l-.13,0-.29-.08-.12,0-.26-.08-.1,0-.22-.09-.08,0-.18-.1-.07,0a.71.71,0,0,1-.14-.1l0,0-.1-.1,0-.05,0-.1" transform="translate(0)"/><path class="cls-3" d="M54,47.56l0-1.9a.4.4,0,0,0,0,.15h0a.65.65,0,0,0,.1.15h0l.15.13,0,0,.16.1.07,0,.26.13,0,0,.27.11.12,0,.25.09.13,0,.32.09.1,0,.45.1.12,0,.38.07.17,0,.37.06.17,0,.47.06h.1l.58.07h.18l.44,0h.22l.45,0h.2l.66,0c3.89.1,7.08-.5,7.1-1.34l0,1.9c0,.84-3.2,1.44-7.1,1.34l-.66,0h-.2l-.45,0-.21,0-.45,0-.17,0-.59-.06h-.09L57.75,49l-.18,0-.37-.06-.17,0-.38-.08-.12,0-.45-.1-.1,0-.32-.09-.13,0-.25-.08-.12,0-.27-.1,0,0a1.69,1.69,0,0,1-.27-.13l-.07,0a.41.41,0,0,0-.11-.07l0,0,0,0-.16-.13h0a.42.42,0,0,1-.09-.14h0v0a.35.35,0,0,1,0-.14" transform="translate(0)"/><path class="cls-4" d="M54.09,45.77s0,0,0,0a.22.22,0,0,1,0-.08h0c0-.85,3.2-1.45,7.09-1.35a20.76,20.76,0,0,1,5.93.86c.7.25,1.11.55,1.1.85a.29.29,0,0,1,0,.09v0l0,.08,0,.07-.08.08-.07.05-.12.08-.1.06-.15.07-.12,0-.19.07-.14,0-.23.07-.15,0-.26.06-.17,0-.28.06-.2,0-.3,0-.21,0-.33,0-.22,0-.36,0-.22,0-.39,0h-.21l-.43,0h-.77c-.41,0-.84,0-1.27,0s-.89,0-1.32-.06h-.06l-.52,0h-.14l-.47,0-.16,0-.44,0-.17,0-.4-.06-.17,0L56.87,47l-.16,0-.35-.08-.15,0-.32-.08-.13,0-.29-.09-.11,0-.26-.09-.1,0-.22-.1-.08,0-.18-.1-.07,0-.13-.1-.06,0-.09-.1,0-.05a.47.47,0,0,1,0-.1" transform="translate(0)"/><path class="cls-3" d="M54.5,45.34l0-1.9a.28.28,0,0,0,0,.15h0a.44.44,0,0,0,.1.15h0a1,1,0,0,0,.15.14l.05,0L55,44l.06,0,.27.13.05,0,.27.1.11,0,.26.08.13,0,.32.08.1,0,.45.1.11,0,.38.07.18,0,.36.06.18,0,.47.06h.09l.59.06.17,0,.45,0,.22,0,.44,0h.21l.65,0c3.9.1,7.08-.5,7.1-1.34l0,1.89c0,.84-3.21,1.45-7.11,1.35l-.65,0h-.2l-.45,0L60,47l-.44,0h-.18l-.58-.06h-.1l-.47-.07-.18,0-.36-.06-.18,0-.38-.07-.11,0-.45-.1-.1,0-.32-.08-.13,0-.25-.08-.12,0-.27-.1,0,0L55.06,46l-.07,0-.11-.06-.05,0,0,0a.64.64,0,0,1-.15-.13h0l-.1-.14h0a.27.27,0,0,1,0-.15" transform="translate(0)"/><path class="cls-4" d="M54.57,43.56a0,0,0,0,0,0,0,.28.28,0,0,1,0-.09h0c0-.84,3.2-1.44,7.1-1.34a20.41,20.41,0,0,1,5.93.86c.7.25,1.1.54,1.1.84,0,0,0,.07,0,.1s0,0,0,0a.36.36,0,0,1,0,.09l0,.06-.08.08-.07.06-.12.08-.1.05-.16.08-.12,0-.19.07-.13,0-.23.07-.15,0-.26.06-.17,0-.29.06-.19,0-.31,0-.2,0-.33,0-.22,0-.36,0h-.22l-.39,0H64l-.43,0h-2c-.45,0-.89,0-1.31-.06h-.06l-.52,0h-.14L59.06,45h-.17l-.43-.06-.17,0-.4-.06-.17,0-.38-.07-.16,0-.34-.07-.15,0-.32-.08-.13,0L56,44.4l-.12,0-.25-.09-.1,0-.22-.09-.08,0L55,44l-.07,0a.71.71,0,0,1-.14-.1l0,0-.09-.1a.1.1,0,0,0,0-.05l0-.1" transform="translate(0)"/><path class="cls-3" d="M53.92,43.24l0-1.9a.4.4,0,0,0,0,.15h0a.44.44,0,0,0,.1.15h0a.93.93,0,0,0,.15.13l.05,0,.16.1.07,0,.27.13h0a1.69,1.69,0,0,0,.27.1l.11,0,.26.08.13,0,.32.08.1,0,.45.09.12,0,.38.07.17,0,.37.06.18,0,.47.05h.09l.59.06H59l.45,0h.22l.45,0H61c3.9,0,7.08-.61,7.08-1.45l0,1.9c0,.84-3.18,1.49-7.07,1.45l-.66,0h-.2l-.45,0h-.22l-.45,0-.17,0-.59-.05h-.09l-.47,0-.18,0-.37-.05-.17,0-.38-.06-.11,0L56,44.35l-.1,0-.32-.08-.13,0-.26-.08-.11,0a1.69,1.69,0,0,1-.27-.1l-.05,0-.27-.12-.06,0-.12-.06-.05,0,0,0a.93.93,0,0,1-.15-.13h0a.61.61,0,0,1-.1-.14h0a.4.4,0,0,1,0-.15" transform="translate(0)"/><path class="cls-4" d="M54,41.46l0,0s0,0,0-.08h0c0-.84,3.18-1.49,7.08-1.45a20.79,20.79,0,0,1,5.94.76c.7.25,1.11.53,1.11.84,0,0,0,.06,0,.09s0,0,0,0a.59.59,0,0,1,0,.08l0,.06-.09.09a.18.18,0,0,1-.07,0l-.12.09-.09.05-.16.08-.12,0-.18.07-.14.05-.22.07-.16,0-.25.07-.18,0-.28.06-.19,0-.31,0-.21,0-.33,0-.21,0-.36,0-.22,0-.39,0-.21,0-.43,0h-.19l-.48,0H61l-1.31,0h-.06c-.18,0-.35,0-.52,0H59l-.47,0h-.17l-.43,0-.17,0-.41,0-.17,0-.37-.06-.16,0-.35-.07-.15,0-.32-.07-.13,0-.29-.08-.12,0L55,42.15l-.1,0L54.67,42l-.09,0-.18-.09-.07,0-.14-.1s0,0,0,0a.43.43,0,0,1-.09-.1s0,0,0,0l0-.1" transform="translate(0)"/><path class="cls-3" d="M54.53,41l0-1.9a.4.4,0,0,0,0,.15h0a.65.65,0,0,0,.1.15h0a.7.7,0,0,0,.16.13l0,0,.17.09.06,0,.27.12,0,0a1.69,1.69,0,0,0,.27.1l.12,0,.25.08.13,0,.32.08.1,0,.46.09.11,0,.38.07.18,0,.36.05.18,0,.47,0h.09l.59.05.18,0,.44,0h.22l.45,0h.2l.66,0c3.9,0,7.07-.61,7.08-1.45l0,1.89c0,.85-3.18,1.5-7.08,1.46l-.66,0h-.65l-.22,0-.44,0-.18,0-.58-.05h-.1l-.47,0-.18,0-.36,0-.18,0-.38-.06-.11,0-.46-.1-.1,0L56.19,42l-.13,0-.25-.07-.12,0-.27-.1-.05,0-.27-.12-.06,0-.11-.06-.06,0,0,0-.16-.13h0l-.1-.14h0a.28.28,0,0,1,0-.15" transform="translate(0)"/><path class="cls-4" d="M54.58,39.24v0s0,0,0-.08h0c0-.84,3.18-1.49,7.08-1.45a20.79,20.79,0,0,1,5.94.76c.7.25,1.11.53,1.11.83a.36.36,0,0,1,0,.1,0,0,0,0,1,0,0,.41.41,0,0,1-.05.09.21.21,0,0,1,0,.06.6.6,0,0,1-.08.08l-.08.06-.11.09a.31.31,0,0,0-.1,0L68,39.9l-.11.05-.19.07-.14,0-.22.07-.16,0-.25.07-.18,0-.28.06-.19,0-.31.06-.2,0-.33.05-.22,0-.36,0-.22,0-.39,0h-.21l-.43,0h-.19l-.47,0h-.11c-.41,0-.84,0-1.27,0l-1.32,0h-.06l-.52,0h-.14l-.47,0h-.17l-.43-.05-.17,0-.4-.06-.18,0-.37-.06-.16,0-.35-.07-.14,0-.33-.07-.13,0L56,40.06l-.11,0-.26-.09-.1,0-.22-.09-.09,0L55,39.68l-.06,0-.14-.1-.06,0-.09-.1,0,0a.31.31,0,0,1-.05-.1" transform="translate(0)"/><path class="cls-3" d="M54.24,38.82l0-1.9a.4.4,0,0,0,0,.15h0a.65.65,0,0,0,.1.15h0l.15.13.05,0a1,1,0,0,0,.17.1l.06,0,.27.12,0,0a1.69,1.69,0,0,0,.27.1l.11,0,.26.07.13,0,.32.08.1,0,.46.1.11,0,.38.06.17,0,.37.05.18,0,.47,0h.09l.59.05h.17a3.4,3.4,0,0,0,.45,0l.22,0,.45,0h.2l.66,0c3.9,0,7.07-.61,7.07-1.46V39c0,.84-3.18,1.5-7.08,1.46l-.66,0h-.2l-.45,0h-.22l-.44,0h-.18l-.59,0h-.09L58,40.2l-.18,0-.37,0-.17,0L56.89,40l-.11,0-.46-.1-.1,0-.32-.08-.13,0-.25-.07-.12,0-.27-.1-.05,0-.27-.12-.06,0-.12-.06-.05,0,0,0-.16-.13h0a.94.94,0,0,1-.1-.14h0a.4.4,0,0,1,0-.15" transform="translate(0)"/><path class="cls-4" d="M54.29,37s0,0,0,0a.19.19,0,0,1,0-.08h0c0-.84,3.18-1.49,7.08-1.45a20.79,20.79,0,0,1,5.94.76c.7.25,1.11.53,1.11.83a.36.36,0,0,1,0,.1,0,0,0,0,1,0,0,.41.41,0,0,1,0,.09l0,.06a.34.34,0,0,1-.09.08l-.07.06a.36.36,0,0,1-.12.08l-.09.06-.16.08-.11.05-.19.07-.14,0-.22.07-.16,0-.25.07-.18,0-.28.06-.19,0-.31.06-.2,0-.33.05-.22,0-.36,0-.22,0-.39,0h-.21l-.43,0h-.19l-.47,0h-.11c-.41,0-.84,0-1.27,0l-1.32,0h-.06l-.52,0h-.14l-.47,0h-.17l-.43-.05-.17,0-.4-.06-.18,0-.37-.06-.16,0-.35-.07-.15,0L56.1,38l-.13,0-.29-.08-.11,0-.26-.09-.1,0L55,37.6l-.09,0-.18-.09-.07,0-.13-.1-.06,0-.09-.1,0,0a.19.19,0,0,1-.05-.1" transform="translate(0)"/><path class="cls-3" d="M53.23,36.18l-.72-1.76a.38.38,0,0,0,.09.13h0a.54.54,0,0,0,.15.09h0l.19.07H53l.19,0h.07a1.45,1.45,0,0,0,.3,0H54l.27,0,.13,0,.32-.05.11,0,.45-.09.12,0,.37-.09.17,0,.36-.1.17,0,.46-.14.09,0,.56-.18.17-.06.42-.15.2-.07.42-.15L59,33.4l.61-.24c3.61-1.48,6.28-3.3,6-4.08l.72,1.75c.32.78-2.35,2.61-6,4.09l-.61.24-.19.07-.42.16-.2.07-.42.15-.17,0-.56.18-.09,0-.46.13-.17,0-.36.1-.17,0-.38.09-.11,0-.45.09-.11,0-.32.05-.14,0-.26,0-.12,0h-.9l-.06,0a.6.6,0,0,1-.19-.06h0l-.15-.09h0a.27.27,0,0,1-.09-.12" transform="translate(0)"/><path class="cls-4" d="M52.58,34.52l0,0a.16.16,0,0,1,0-.07h0c-.32-.78,2.35-2.61,6-4.08a20.48,20.48,0,0,1,5.77-1.6c.74,0,1.23.05,1.35.33a.3.3,0,0,1,0,.1v0a.27.27,0,0,1,0,.09s0,.05,0,.08,0,.07,0,.11a.56.56,0,0,0-.05.08.83.83,0,0,1-.08.12l-.06.09-.12.13-.08.09-.15.14a.52.52,0,0,1-.11.1l-.18.15-.12.1-.21.16-.15.1-.23.17-.16.11-.27.16-.18.11-.28.18-.19.11-.32.17-.19.11-.35.18-.19.09-.38.2-.17.08-.43.2-.1,0q-.55.27-1.17.51c-.41.17-.82.33-1.22.47l-.06,0-.5.18-.13,0-.45.15-.15,0-.42.12-.17.05-.39.11-.17,0-.37.09-.16,0-.34.07-.15,0-.33.05-.13,0-.3,0-.12,0h-.71l-.2,0h-.08l-.17,0-.06,0-.13-.06-.05,0a.27.27,0,0,1-.08-.07" transform="translate(0)"/><path class="cls-9" d="M62.39,11.66l.07.05a2.26,2.26,0,0,1,.26.16l.2.15a1.7,1.7,0,0,1,.19.19,2,2,0,0,1,.19.22.46.46,0,0,1,.07.07l6.27,8.74a2.2,2.2,0,0,1,.28.49,2.75,2.75,0,0,0,0-3.76l-7.47-7.74-.08-.06L62.11,10l-.21-.16-.22-.12-.28-.12-.08,0L51.12,6.08l-.09,0Z" transform="translate(0)"/><path class="cls-9" d="M69.64,21.24,63.37,12.5a.46.46,0,0,0-.07-.07,2,2,0,0,0-.19-.22,1.7,1.7,0,0,0-.19-.19l-.2-.15a2.26,2.26,0,0,0-.26-.16l-.07-.05L51,6.06h0l-.46-.14,9.85,7.15h0l2.27,1.52s.05,0,.08.06a1.92,1.92,0,0,1,.23.19c.06.06.13.11.18.17l.17.21a1.46,1.46,0,0,1,.17.24.22.22,0,0,1,.05.08l5.24,9.4a.94.94,0,0,1,.1.23l.1-.05,0,0a2.74,2.74,0,0,0,.9-3.34,2.2,2.2,0,0,0-.28-.49" transform="translate(0)"/><path class="cls-10" d="M49.22,5.82l.65,0a2.27,2.27,0,0,0-.65,0" transform="translate(0)"/><path class="cls-11" d="M63.53,15.53a.22.22,0,0,0-.05-.08,1.46,1.46,0,0,0-.17-.24,1.73,1.73,0,0,0-.17-.21,1.45,1.45,0,0,0-.18-.17,1.37,1.37,0,0,0-.23-.19l-.07-.06-2.28-1.52h0L50.55,5.91l-.2-.14-.48,0-.65,0-22.61,1,0,0L23.52,18.57s0,0,0,0l6,2.16s0,0,0,0l7.3,9.59v0h0l.12.16a3.42,3.42,0,0,0,.4.36.46.46,0,0,0,.07.07l0,0,.07.05,10,7.5a3.35,3.35,0,0,0,4-5.36L43.2,26.89h0l-1.31-5v0L44,16.51a0,0,0,0,1,0,0l8.23-1.42h0l6.82,3.83h0l4.84,8.69a2.78,2.78,0,0,0,3.78,1.07h0a2.74,2.74,0,0,0,1.17-3.5,1.63,1.63,0,0,0-.11-.23Z" transform="translate(0)"/><path class="cls-12" d="M16.76,18.38l5.18-15.8s0,0,0,0l9.09,3s0,0,0,0L25.92,21.38s0,0,0,0l-9.1-3a.08.08,0,0,1,0-.05" transform="translate(0)"/><path class="cls-13" d="M1.16,10.29,0,13.81s0,0,0,0l3.89,1.31,14.77,5s0,0,0,0L24.58,2.31s0,0,0,0L20.08.77A14.94,14.94,0,0,0,1.16,10.29" transform="translate(0)"/><path class="cls-12" d="M10.72,14.07a1,1,0,1,1-1-1,1,1,0,0,1,1,1" transform="translate(0)"/><path class="cls-12" d="M13.84,15.27a1,1,0,1,1-1-1,1,1,0,0,1,1,1" transform="translate(0)"/><path class="cls-12" d="M17,16.3a1,1,0,1,1-1-1,1,1,0,0,1,1,1" transform="translate(0)"/><g class="cls-5"><g class="cls-14"><path class="cls-7" d="M51.59,33.19l-8.4-6.3-1.31-5,1.29-3.3-14.7-5-6.82-2.31L2.92,4.91,0,13.84l3.92,1.33,14.8,5,.33-1,6.86,2.24.57-1.74,3.06,1.11,7.3,9.6v0h0l.12.16a3.42,3.42,0,0,0,.4.36l.06.07,0,0,.07.05,10,7.52a3.32,3.32,0,0,0,4.65-.66l0,0a3.33,3.33,0,0,0-.66-4.65" transform="translate(0)"/></g></g><g class="cls-5"><g class="cls-15"><path class="cls-7" d="M58.66,35.55l.26-.09.2-.07.42-.16.19-.07.61-.24c.33-.13.64-.27.95-.41V29.34a28.5,28.5,0,0,0-2.82,1c-3.61,1.48-6.28,3.3-6,4.09h0l.72,1.75a.38.38,0,0,0,.09.13h0a.38.38,0,0,0,.15.09h0l.19.07h.85a.56.56,0,0,0-.26.4l0,1.9a.4.4,0,0,0,0,.15h0l.1.14h0l.16.13h0v1.47c-.38.18-.6.39-.6.6l0,1.9a.4.4,0,0,0,0,.15h0a.61.61,0,0,0,.1.14h0a.93.93,0,0,0,.15.13l0,0,.05,0,.12.07.06,0,0,0,0,1.29c-.27.15-.43.32-.43.5l0,1.9a.32.32,0,0,0,0,.14v0h0s0,.05.06.09a.43.43,0,0,0,0,.16v1.93a.46.46,0,0,0-.12.28h0l0,1.9a.24.24,0,0,0,0,.08.41.41,0,0,0-.09.23h0l0,1.9a.4.4,0,0,0,0,.15h0a.31.31,0,0,0,0,.13l0,1.9a.4.4,0,0,0,0,.15h0a.94.94,0,0,0,.1.14h0l.15.13.05,0,0,0,0,0,0,1.56a.57.57,0,0,0-.3.43l0,1.9a.4.4,0,0,0,0,.15h0a.61.61,0,0,0,.1.14h0l.15.13,0,0,0,1.74a.4.4,0,0,0,0,.15h0a.61.61,0,0,0,.1.14h0l.1.09v1.77a.49.49,0,0,0-.21.36h0l0,1.9a.39.39,0,0,0,0,.14h0l.1.14h0a.7.7,0,0,0,.16.13l0,0,.06,0a.41.41,0,0,0,.11.07l.06,0a1.69,1.69,0,0,0,.27.13l.05,0,.27.09.12,0,.25.08.13,0,.32.07.1,0,.46.09.11,0,.38.07.18,0,.36.06L58,69l.47,0h.09l.59.06h.18l.44,0H60l.45,0h.86V35.47c-.93,0-1.82,0-2.63.08" transform="translate(0)"/></g></g></g></g></svg>