<svg xmlns="http://www.w3.org/2000/svg" xmlns:xlink="http://www.w3.org/1999/xlink" viewBox="0 0 124.01 77.1"><defs><style>.cls-1{fill:none;}.cls-2{isolation:isolate;}.cls-3{fill:#218400;}.cls-4{fill:#bc3122;}.cls-5{fill:#fff9ed;}.cls-6{mix-blend-mode:multiply;}.cls-7{clip-path:url(#clip-path);}.cls-8{fill:#dcd4c4;}.cls-9{clip-path:url(#clip-path-2);}.cls-10{fill:#c93f24;}.cls-11{fill:#ea522d;}.cls-12{fill:#e0412b;}.cls-13{fill:#f5a505;}.cls-14{fill:#3b3346;}.cls-15{clip-path:url(#clip-path-3);}.cls-16{clip-path:url(#clip-path-4);}.cls-17{fill:#4d445a;}.cls-18{fill:#efe7d8;}.cls-19{clip-path:url(#clip-path-5);}.cls-20{clip-path:url(#clip-path-6);}.cls-21{clip-path:url(#clip-path-7);}.cls-22{clip-path:url(#clip-path-8);}.cls-23{clip-path:url(#clip-path-9);}.cls-24{clip-path:url(#clip-path-10);}.cls-25{clip-path:url(#clip-path-11);}.cls-26{clip-path:url(#clip-path-12);}.cls-27{fill:#ffca00;}.cls-28{opacity:0.3;}.cls-28,.cls-36{mix-blend-mode:screen;}.cls-29{clip-path:url(#clip-path-13);}.cls-30{fill:#198068;}.cls-31{fill:#4dc5ac;}.cls-32{fill:#87decd;}.cls-33{clip-path:url(#clip-path-14);}.cls-34{clip-path:url(#clip-path-15);}.cls-35{clip-path:url(#clip-path-16);}.cls-36{opacity:0.4;}.cls-37{clip-path:url(#clip-path-17);}.cls-38{fill:#fff;}.cls-39{clip-path:url(#clip-path-18);}.cls-40{clip-path:url(#clip-path-19);}.cls-41{fill:#1c1e29;}.cls-42{fill:#292b37;}.cls-43{fill:#141a24;}.cls-44{fill:#8acac2;}.cls-45{fill:#fbf9f7;}.cls-46{fill:#17c5cc;}.cls-47{fill:#1e476b;}.cls-48{fill:#ff4040;}.cls-49{fill:#f62f48;}.cls-50{clip-path:url(#clip-path-20);}.cls-51{fill:#b4e2df;}.cls-52{clip-path:url(#clip-path-21);}.cls-53{fill:#0ec0c0;}.cls-54{clip-path:url(#clip-path-22);}.cls-55{fill:#2dd;}.cls-56{opacity:0.59;mix-blend-mode:overlay;}.cls-57{clip-path:url(#clip-path-23);}.cls-58{fill:#bdbdbd;}.cls-59{clip-path:url(#clip-path-24);}.cls-60{fill:#dfdfdf;}.cls-61{fill:#1c4d6b;}.cls-62{fill:#383c48;}</style><clipPath id="clip-path"><rect class="cls-1" x="18.81" y="61.48" width="9.19" height="0.33"/></clipPath><clipPath id="clip-path-2"><rect class="cls-1" x="16.36" y="63.17" width="10.13" height="0.33"/></clipPath><clipPath id="clip-path-3"><rect class="cls-1" x="21.93" y="56.12" width="9.19" height="0.45"/></clipPath><clipPath id="clip-path-4"><rect class="cls-1" x="19.48" y="58.44" width="10.13" height="0.46"/></clipPath><clipPath id="clip-path-5"><rect class="cls-1" x="23.7" y="68.94" width="9.06" height="0.45"/></clipPath><clipPath id="clip-path-6"><rect class="cls-1" x="0.67" y="69.86" width="8" height="0.41"/></clipPath><clipPath id="clip-path-7"><rect class="cls-1" x="9.18" y="69.16" width="6.86" height="0.34"/></clipPath><clipPath id="clip-path-8"><rect class="cls-1" x="10.01" y="70.07" width="14.5" height="0.42"/></clipPath><clipPath id="clip-path-9"><rect class="cls-1" x="28.1" y="65.79" width="9.06" height="0.46"/></clipPath><clipPath id="clip-path-10"><rect class="cls-1" x="5.08" y="66.72" width="8" height="0.41"/></clipPath><clipPath id="clip-path-11"><rect class="cls-1" x="13.59" y="66.01" width="6.86" height="0.34"/></clipPath><clipPath id="clip-path-12"><rect class="cls-1" x="14.41" y="66.92" width="14.5" height="0.42"/></clipPath><clipPath id="clip-path-13"><rect class="cls-1" x="39.15" y="8.36" width="9.62" height="7.72"/></clipPath><clipPath id="clip-path-14"><rect class="cls-1" x="68.06" y="61.37" width="7.51" height="4.22"/></clipPath><clipPath id="clip-path-15"><rect class="cls-1" x="69.62" y="52.95" width="3.95" height="7.51"/></clipPath><clipPath id="clip-path-16"><rect class="cls-1" x="75.99" y="59.17" width="6.82" height="6.58"/></clipPath><clipPath id="clip-path-17"><rect class="cls-1" x="65.14" y="45.22" width="21.07" height="25.1"/></clipPath><clipPath id="clip-path-18"><rect class="cls-1" x="29.84" y="4.23" width="5.89" height="7.29"/></clipPath><clipPath id="clip-path-19"><rect class="cls-1" x="48.16" y="0.25" width="6.68" height="8.27"/></clipPath><clipPath id="clip-path-20"><rect class="cls-1" x="13.87" y="21.29" width="24.72" height="18.69"/></clipPath><clipPath id="clip-path-21"><rect class="cls-1" x="13.87" y="21.29" width="60.21" height="37.14"/></clipPath><clipPath id="clip-path-22"><rect class="cls-1" x="52.66" y="22.92" width="15.65" height="15.65"/></clipPath><clipPath id="clip-path-23"><rect class="cls-1" x="53.61" y="23.7" width="11.52" height="10.66"/></clipPath><clipPath id="clip-path-24"><rect class="cls-1" x="52.88" y="27.32" width="15.43" height="11.25"/></clipPath></defs><g class="cls-2"><g id="Capa_2" data-name="Capa 2"><g id="Capa_1-2" data-name="Capa 1"><path class="cls-3" d="M124,46.74,115.27,73a6.06,6.06,0,1,1-11.49-3.83l7.48-22.46-7.51-23.35a6.06,6.06,0,0,1,11.54-3.71Z"/><path class="cls-4" d="M28.78,64.2c.06.15.13.31.21.47H5.38a4.3,4.3,0,0,1,0-4.17H29a4,4,0,0,0-.21.47H6.47a2.66,2.66,0,0,0,0,3.23Z"/><path class="cls-5" d="M28.29,64.2H4.68a2.69,2.69,0,0,1,0-3.23H28.29a4.4,4.4,0,0,0-.29.51c-.05.11-.09.22-.13.33a2.7,2.7,0,0,0,.42,2.39"/><g class="cls-6"><g class="cls-7"><path class="cls-8" d="M28,61.48c-.05.11-.09.22-.13.33l-9.06-.16Z"/></g></g><g class="cls-6"><g class="cls-9"><polygon class="cls-8" points="26.49 63.5 16.36 63.5 16.36 63.17 26.49 63.5"/></g></g><path class="cls-10" d="M18.68,64.67H1A4.3,4.3,0,0,1,1,60.5H18.68a4.24,4.24,0,0,0,0,4.17"/><path class="cls-11" d="M18.37,64.67H.65a4.3,4.3,0,0,1,0-4.17H18.37a4.3,4.3,0,0,0,0,4.17"/><path class="cls-12" d="M18.37,64.67H.65a4.3,4.3,0,0,1,0-4.17H18.37a4.3,4.3,0,0,0,0,4.17"/><path class="cls-13" d="M4.22,64.67h-.9a4.77,4.77,0,0,1,0-4.17h.9a4.7,4.7,0,0,0,0,4.17"/><path class="cls-13" d="M6.34,64.67h-.9a4.77,4.77,0,0,1,0-4.17h.9a4.77,4.77,0,0,0,0,4.17"/><path class="cls-13" d="M16.73,64.67h-.89a4.77,4.77,0,0,1,0-4.17h.89a4.77,4.77,0,0,0,0,4.17"/><path class="cls-14" d="M20.06,61.48v1.8s.41-.23.79-.47a7.56,7.56,0,0,1,.74.47v-1.8H20.06Z"/><path class="cls-14" d="M31.89,59.85c.07.21.14.43.22.65H8.5a7.77,7.77,0,0,1,0-5.73H32.11c-.08.22-.15.44-.22.65H9.58a4.81,4.81,0,0,0,0,4.43Z"/><path class="cls-5" d="M31.41,59.85H7.8a4.75,4.75,0,0,1,0-4.43H31.41c-.11.24-.21.47-.29.7s-.09.3-.13.46a4.83,4.83,0,0,0,.42,3.27"/><g class="cls-6"><g class="cls-15"><path class="cls-8" d="M31.12,56.12c-.05.15-.09.3-.13.46l-9.06-.23Z"/></g></g><g class="cls-6"><g class="cls-16"><polygon class="cls-8" points="29.61 58.9 19.48 58.9 19.48 58.44 29.61 58.9"/></g></g><path class="cls-14" d="M21.79,60.5H4.07a7.87,7.87,0,0,1,0-5.73H21.79a7.87,7.87,0,0,0,0,5.73"/><path class="cls-11" d="M21.49,60.5H3.77a7.77,7.77,0,0,1,0-5.73H21.49a7.77,7.77,0,0,0,0,5.73"/><path class="cls-17" d="M21.49,60.5H3.77a7.77,7.77,0,0,1,0-5.73H21.49a7.77,7.77,0,0,0,0,5.73"/><path class="cls-13" d="M19.68,59.15H5.47a2.86,2.86,0,0,1,0-3H19.68a2.86,2.86,0,0,0,0,3"/><path class="cls-10" d="M21.58,56.4v2.47s.44-.31.86-.64a6.4,6.4,0,0,1,.81.64V56.4H21.58Z"/><polygon class="cls-18" points="24.51 70.96 0.81 70.96 0.72 70.27 0.67 69.86 0.41 67.82 9.19 67.82 24.51 70.96"/><polygon class="cls-5" points="32.88 67.82 32.76 68.94 32.69 69.39 32.45 70.89 9.19 70.96 9.19 67.82 32.88 67.82"/><g class="cls-6"><g class="cls-19"><polygon class="cls-8" points="32.76 68.94 32.69 69.39 23.7 69.16 32.76 68.94"/></g></g><g class="cls-6"><g class="cls-20"><polygon class="cls-8" points="8.67 70.07 0.72 70.27 0.67 69.86 8.67 70.07"/></g></g><g class="cls-6"><g class="cls-21"><polygon class="cls-8" points="16.04 69.33 9.19 69.5 9.19 69.16 16.04 69.33"/></g></g><g class="cls-6"><g class="cls-22"><polygon class="cls-8" points="24.51 70.49 15.31 70.49 10.01 70.26 15.11 70.07 24.51 70.49"/></g></g><polygon class="cls-18" points="28.91 67.82 5.21 67.82 5.13 67.13 5.08 66.72 4.82 64.68 13.59 64.68 28.91 67.82"/><polygon class="cls-5" points="37.28 64.68 37.16 65.79 37.09 66.25 36.85 67.75 13.59 67.82 13.59 64.68 37.28 64.68"/><g class="cls-6"><g class="cls-23"><polygon class="cls-8" points="37.16 65.79 37.09 66.25 28.1 66.02 37.16 65.79"/></g></g><g class="cls-6"><g class="cls-24"><polygon class="cls-8" points="13.07 66.92 5.13 67.13 5.08 66.72 13.07 66.92"/></g></g><g class="cls-6"><g class="cls-25"><polygon class="cls-8" points="20.45 66.18 13.59 66.36 13.59 66.01 20.45 66.18"/></g></g><g class="cls-6"><g class="cls-26"><polygon class="cls-8" points="28.91 67.35 19.71 67.35 14.41 67.12 19.51 66.92 28.91 67.35"/></g></g><path class="cls-13" d="M40.31,12.08a5,5,0,0,0,3.19,6.25l3.07-9.44a5,5,0,0,0-6.26,3.19"/><path class="cls-13" d="M49.76,15.14a4.76,4.76,0,0,1-.68,1.35,5,5,0,0,1-1.53,1.4,4.92,4.92,0,0,1-3.13.65,5.08,5.08,0,0,1-.92-.21l3.07-9.44.31.11a5,5,0,0,1,2.88,6.14"/><path class="cls-27" d="M45.65,8.59a5,5,0,1,0,3.19,6.26,5,5,0,0,0-3.19-6.26"/><path class="cls-13" d="M40.19,12a4.13,4.13,0,0,0,2.65,5.2l2.55-7.85A4.12,4.12,0,0,0,40.19,12"/><path class="cls-13" d="M45.39,9.39l-2.55,7.85a4.13,4.13,0,0,0,2.55-7.85"/><path class="cls-27" d="M43,10.68a.54.54,0,0,1-.09.15.19.19,0,0,0-.11-.08c-.14-.05-.3,0-.48.55s-.11.55,0,.6a.5.5,0,0,0,.2,0,.33.33,0,0,1,0,.17c0,.11-.17.15-.36.08s-.35-.26-.14-.94.57-.84.79-.77.21.15.18.22"/><path class="cls-27" d="M43.39,10.67c.3.1.44.26.31.65a.57.57,0,0,1-.32.4,1.27,1.27,0,0,1,0,.76s0,0-.16,0l-.16-.06a1.21,1.21,0,0,0,.06-.7H43l-.19.6s0,0-.29,0l.54-1.64a0,0,0,0,1,.06,0Zm-.27.79.05,0c.08,0,.15,0,.23-.27s.05-.26,0-.29l-.06,0Z"/><path class="cls-27" d="M43.9,12.66s0,.05-.28,0l.22-.7V10.87s0,0,.32.06l0,.34c0,.12-.06.37-.08.49a4.66,4.66,0,0,1,.22-.45l.15-.25s0,0,.3,0l-.61.88Z"/><path class="cls-27" d="M45.06,11.22c.31.1.44.25.31.65s-.41.46-.63.39h0l-.2.61c0,.05,0,.05-.28,0l.53-1.64s0,0,.06,0h0Zm-.21.8c.08,0,.14,0,.23-.28s0-.25,0-.27l-.07,0L44.8,12Z"/><path class="cls-27" d="M46.46,11.67l-.06.2s0,.05-.07,0l-.26-.09-.45,1.39s0,0-.28,0l.47-1.44-.3-.1.07-.2s0,0,.06,0Z"/><path class="cls-27" d="M46.9,11.79c.31.1.37.32.15,1s-.43.84-.74.74-.38-.31-.15-1,.43-.82.74-.71m-.49,1.45c.12,0,.2-.12.34-.55s.18-.59,0-.63-.2.12-.36.6-.15.54,0,.58"/><path class="cls-27" d="M41.44,12.55a.54.54,0,0,1-.09.15.19.19,0,0,0-.11-.08c-.14,0-.3,0-.47.55s-.12.56,0,.6a.5.5,0,0,0,.2,0A.33.33,0,0,1,41,14c0,.12-.17.14-.35.09s-.36-.27-.14-1,.56-.84.78-.77.21.15.18.22"/><path class="cls-27" d="M41.43,13.78c0,.16,0,.24.08.28a.28.28,0,0,0,.15,0l.45-1.39s0,0,.29,0l-.53,1.62a.81.81,0,0,1-.44,0c-.38-.12-.36-.36-.28-.63l.39-1.18c0-.05,0-.05.29,0Z"/><path class="cls-27" d="M42.8,12.86c.3.1.44.26.31.65a.57.57,0,0,1-.32.4,1.23,1.23,0,0,1,0,.75c0,.05,0,.06-.16,0l-.16-.06a1.25,1.25,0,0,0,.06-.71h-.07l-.19.6c0,.05,0,.05-.29,0l.54-1.64a0,0,0,0,1,.06,0Zm-.26.79h.05c.07,0,.14,0,.22-.26s0-.26,0-.29l-.06,0Z"/><path class="cls-27" d="M43.66,13.14c.3.1.43.25.31.65a.59.59,0,0,1-.32.4,1.18,1.18,0,0,1,0,.75c0,.05,0,.06-.15,0l-.16-.06a1.35,1.35,0,0,0,.06-.71h-.07l-.19.61c0,.05,0,0-.29,0l.54-1.64a0,0,0,0,1,.06,0Zm-.27.78,0,0c.08,0,.15,0,.23-.26s0-.27,0-.29l-.06,0Z"/><path class="cls-27" d="M44.38,15c-.07.22-.08.24-.12.22L43.69,15l.53-1.65a.06.06,0,0,1,.07,0l.58.19c-.07.22-.08.24-.13.22l-.31-.1-.13.42.29.09c-.07.21-.08.25-.12.23l-.25-.08-.18.56Z"/><path class="cls-27" d="M45.55,13.81c0-.05,0-.05.29,0l-.54,1.64a0,0,0,0,1-.06,0L45,15.45l0-.73a4,4,0,0,1,0-.59c0,.2-.1.42-.14.57l-.19.58c0,.05,0,.05-.29,0l.54-1.65a0,0,0,0,1,.06,0l.21.07,0,.72a5.33,5.33,0,0,1,0,.56,4.86,4.86,0,0,1,.14-.55Z"/><path class="cls-27" d="M46.61,14.23a.54.54,0,0,1-.09.15.23.23,0,0,0-.12-.09c-.13,0-.3,0-.47.56s-.12.55,0,.6a.47.47,0,0,0,.2,0,.52.52,0,0,1,0,.17c0,.11-.17.14-.35.08s-.36-.26-.14-.94.57-.84.78-.77.21.14.19.22"/><path class="cls-27" d="M46.7,15.94c0,.05,0,.05-.29,0l.23-.69V14.15s0,0,.32.06l0,.34a3.58,3.58,0,0,1-.08.49,4.78,4.78,0,0,1,.23-.45l.14-.24s0,0,.3,0l-.61.89Z"/><g class="cls-28"><g class="cls-29"><path class="cls-27" d="M44.47,8.36,39.9,10.68a5.69,5.69,0,0,0-.5,1.09l6.24-3.18a4.85,4.85,0,0,0-1.17-.23"/><path class="cls-27" d="M47.2,9.42l-8.05,4.1A5.06,5.06,0,0,0,40,16.08l8.79-4.48A5,5,0,0,0,47.2,9.42"/></g></g><rect class="cls-30" x="69.69" y="42.32" width="11.98" height="3.82"/><rect class="cls-31" x="65.14" y="45.22" width="21.07" height="25.74" rx="5.53"/><path class="cls-32" d="M70.67,46.58h10a4.17,4.17,0,0,1,4.17,4.17V65.43a4.17,4.17,0,0,1-4.17,4.17h-10a4.16,4.16,0,0,1-4.16-4.16V50.75A4.17,4.17,0,0,1,70.67,46.58Z"/><path class="cls-13" d="M69.9,62.42a3.76,3.76,0,0,0-.54,5.29L75.18,63a3.75,3.75,0,0,0-5.28-.55"/><path class="cls-13" d="M74.64,68.25a3.78,3.78,0,0,1-1,.58,4,4,0,0,1-1.55.26,3.72,3.72,0,0,1-2.25-.88,3.94,3.94,0,0,1-.5-.5L75.18,63a1.56,1.56,0,0,1,.16.2,3.76,3.76,0,0,1-.7,5.08"/><path class="cls-27" d="M74.72,62.4a3.75,3.75,0,1,0-.54,5.28,3.75,3.75,0,0,0,.54-5.28"/><path class="cls-13" d="M69.84,62.35a3.12,3.12,0,0,0-.45,4.39l4.84-3.94a3.11,3.11,0,0,0-4.39-.45"/><path class="cls-13" d="M74.23,62.8l-4.84,3.94a3.12,3.12,0,1,0,4.84-3.94"/><path class="cls-27" d="M69.76,66.44a2.65,2.65,0,1,1,3.72.39,2.65,2.65,0,0,1-3.72-.39m4-3.27a2.53,2.53,0,1,0-.37,3.57,2.55,2.55,0,0,0,.37-3.57"/><path class="cls-27" d="M71.73,63.35a.83.83,0,0,1,1.28.16l.32-.25.27.35-.31.25a3.1,3.1,0,0,1,.4.72l-.46.37c-.16-.24-.46-.64-.6-.82s-.27-.3-.47-.14l-.09.07c-.16.13-.17.25,0,.44l.23.29A.82.82,0,0,1,72.08,66l-.15.12A.84.84,0,0,1,70.59,66l-.3.23L70,65.93l.3-.24a3,3,0,0,1-.4-.73l.46-.37c.11.15.37.53.64.87.13.15.26.24.42.12l.1-.09c.13-.1.18-.2,0-.38l-.23-.28a.85.85,0,0,1,.17-1.29Z"/><g class="cls-28"><g class="cls-33"><path class="cls-27" d="M74.07,61.77l-3.86-.4a4.4,4.4,0,0,0-.76.48l5.27.55a4.28,4.28,0,0,0-.65-.63"/><path class="cls-27" d="M75.37,63.56l-6.8-.7a3.84,3.84,0,0,0-.51,2l7.41.77a3.83,3.83,0,0,0-.1-2"/></g></g><path class="cls-13" d="M70.69,58.73A3.75,3.75,0,0,0,76,59l-5-5.57a3.75,3.75,0,0,0-.27,5.3"/><path class="cls-13" d="M76.26,53.7a3.65,3.65,0,0,1,.63.95,3.79,3.79,0,0,1,.34,1.54,3.71,3.71,0,0,1-.76,2.29A4,4,0,0,1,76,59l-5-5.58.19-.16a3.75,3.75,0,0,1,5.11.43"/><path class="cls-27" d="M70.42,53.92a3.75,3.75,0,1,0,5.3.27,3.75,3.75,0,0,0-5.3-.27"/><path class="cls-13" d="M70.61,58.8A3.13,3.13,0,0,0,75,59l-4.19-4.63a3.13,3.13,0,0,0-.23,4.41"/><path class="cls-13" d="M70.84,54.39,75,59a3.12,3.12,0,0,0-4.19-4.63"/><path class="cls-27" d="M74.71,58.67a2.65,2.65,0,1,1,.19-3.74,2.64,2.64,0,0,1-.19,3.74m-3.47-3.84a2.53,2.53,0,1,0,3.57.18,2.53,2.53,0,0,0-3.57-.18"/><path class="cls-27" d="M71.52,56.86a.83.83,0,0,1,.09-1.29l-.26-.3.33-.29.27.3a2.91,2.91,0,0,1,.69-.44l.4.45c-.23.17-.61.48-.79.64s-.28.28-.11.47l.07.09c.14.15.25.15.44,0l.28-.24a.82.82,0,0,1,1.25.14l.13.14a.85.85,0,0,1,0,1.35l.25.29-.33.29-.26-.29a2.25,2.25,0,0,1-.7.44l-.39-.44c.14-.11.51-.39.83-.68.15-.13.23-.27.1-.42l-.09-.1c-.11-.13-.22-.17-.39,0l-.27.24a.84.84,0,0,1-1.29-.1Z"/><g class="cls-28"><g class="cls-34"><path class="cls-27" d="M69.82,54.61l-.2,3.87a3.67,3.67,0,0,0,.52.74l.27-5.3a3.48,3.48,0,0,0-.59.69"/><path class="cls-27" d="M71.54,53.22,71.2,60a3.71,3.71,0,0,0,2,.41L73.57,53a3.71,3.71,0,0,0-2,.21"/></g></g><path class="cls-13" d="M76.72,62.76a3.76,3.76,0,0,0,3.54,4l.41-7.5a3.74,3.74,0,0,0-4,3.54"/><path class="cls-13" d="M84.21,63.17A3.76,3.76,0,0,1,81,66.69a4.18,4.18,0,0,1-.71,0l.41-7.5.26,0a3.75,3.75,0,0,1,3.28,3.93"/><path class="cls-27" d="M80,59.18a3.76,3.76,0,1,0,3.54,4,3.75,3.75,0,0,0-3.54-4"/><path class="cls-13" d="M76.62,62.75A3.11,3.11,0,0,0,79.56,66l.35-6.23a3.11,3.11,0,0,0-3.29,2.94"/><path class="cls-13" d="M79.91,59.81,79.56,66a3.12,3.12,0,1,0,.35-6.23"/><path class="cls-27" d="M79.59,65.57a2.65,2.65,0,1,1,2.79-2.5,2.65,2.65,0,0,1-2.79,2.5m.29-5.17a2.53,2.53,0,1,0,2.39,2.67,2.53,2.53,0,0,0-2.39-2.67"/><path class="cls-27" d="M78.64,62a.82.82,0,0,1,1-.84l0-.4.44,0,0,.41a2.77,2.77,0,0,1,.8.19l0,.59-1-.11c-.27,0-.4,0-.41.25v.12c0,.2.06.29.31.3l.37,0a.82.82,0,0,1,.78,1v.2c0,.79-.53.94-1,.91l0,.38-.45,0,0-.39a2.68,2.68,0,0,1-.81-.19l0-.59c.19,0,.65.08,1.08.11.2,0,.35,0,.37-.23v-.13c0-.17,0-.27-.27-.29l-.36,0a.84.84,0,0,1-.84-1Z"/><g class="cls-28"><g class="cls-35"><path class="cls-27" d="M79,59.24l-2.88,2.58a3.69,3.69,0,0,0-.16.89l4-3.53a3.46,3.46,0,0,0-.91.06"/><path class="cls-27" d="M81.24,59.48,76.15,64a3.82,3.82,0,0,0,1.11,1.71l5.55-5a3.74,3.74,0,0,0-1.57-1.29"/></g></g><path class="cls-13" d="M67.23,54.23h1.34a.24.24,0,0,1,.24.23l.07,7.81a.24.24,0,0,1-.23.24H67.31a.23.23,0,0,1-.23-.23L67,54.46a.23.23,0,0,1,.23-.23"/><polygon class="cls-27" points="67.07 61.81 68.88 61.79 68.88 62.06 67.08 62.08 67.07 61.81"/><rect class="cls-27" x="67.07" y="61.15" width="1.8" height="0.27" transform="matrix(1, -0.01, 0.01, 1, -0.54, 0.61)"/><rect class="cls-27" x="67.06" y="60.5" width="1.8" height="0.27" transform="translate(-0.63 0.72) rotate(-0.6)"/><polygon class="cls-27" points="67.06 59.86 68.86 59.84 68.86 60.11 67.06 60.13 67.06 59.86"/><polygon class="cls-27" points="67.05 59.21 68.85 59.2 68.85 59.46 67.05 59.48 67.05 59.21"/><polygon class="cls-27" points="67.04 58.57 68.84 58.55 68.85 58.82 67.05 58.83 67.04 58.57"/><polygon class="cls-27" points="68.84 57.9 68.84 58.16 67.04 58.18 67.03 57.92 68.84 57.9"/><rect class="cls-27" x="67.03" y="57.26" width="1.8" height="0.27" transform="translate(-0.84 1.01) rotate(-0.85)"/><polygon class="cls-27" points="68.83 56.6 68.83 56.87 67.03 56.88 67.02 56.62 68.83 56.6"/><polygon class="cls-27" points="68.82 55.95 68.82 56.22 67.02 56.23 67.02 55.97 68.82 55.95"/><polygon class="cls-27" points="68.81 55.3 68.82 55.57 67.01 55.59 67.01 55.32 68.81 55.3"/><polygon class="cls-27" points="68.81 54.65 68.81 54.92 67 54.94 67 54.67 68.81 54.65"/><path class="cls-13" d="M84.45,56.07l-.88,1a.23.23,0,0,1-.33,0L77.35,52a.25.25,0,0,1,0-.33l.89-1a.22.22,0,0,1,.32,0l5.89,5.14a.23.23,0,0,1,0,.32"/><rect class="cls-27" x="77.3" y="51.38" width="1.8" height="0.27" transform="translate(-12.03 76.56) rotate(-48.89)"/><polygon class="cls-27" points="79.38 51.34 78.2 52.7 78 52.53 79.18 51.17 79.38 51.34"/><polygon class="cls-27" points="79.87 51.77 78.69 53.13 78.49 52.95 79.67 51.6 79.87 51.77"/><polygon class="cls-27" points="80.36 52.2 79.17 53.56 78.97 53.38 80.16 52.02 80.36 52.2"/><rect class="cls-27" x="79.25" y="53.08" width="1.8" height="0.27" transform="translate(-12.63 78.66) rotate(-48.91)"/><rect class="cls-27" x="79.74" y="53.51" width="1.8" height="0.27" transform="translate(-12.81 79.07) rotate(-48.85)"/><polygon class="cls-27" points="80.64 54.84 80.44 54.66 81.63 53.3 81.83 53.48 80.64 54.84"/><polygon class="cls-27" points="81.13 55.26 80.93 55.09 82.11 53.73 82.32 53.9 81.13 55.26"/><rect class="cls-27" x="81.21" y="54.79" width="1.8" height="0.27" transform="translate(-13.31 80.5) rotate(-48.78)"/><rect class="cls-27" x="81.7" y="55.22" width="1.8" height="0.27" transform="translate(-13.38 81.32) rotate(-48.96)"/><rect class="cls-27" x="82.19" y="55.64" width="1.8" height="0.27" transform="translate(-13.46 82.11) rotate(-49.13)"/><polygon class="cls-27" points="83.09 56.97 82.89 56.79 84.07 55.43 84.27 55.61 83.09 56.97"/><path class="cls-13" d="M77.5,54.86l.84-1a.23.23,0,0,1,.32,0l6.09,4.9a.23.23,0,0,1,0,.32L84,60a.23.23,0,0,1-.32,0l-6.1-4.89a.22.22,0,0,1,0-.32"/><rect class="cls-27" x="83.02" y="59.02" width="1.8" height="0.27" transform="translate(-14.76 87.53) rotate(-51.22)"/><rect class="cls-27" x="82.52" y="58.62" width="1.8" height="0.27" transform="matrix(0.63, -0.78, 0.78, 0.63, -14.65, 86.9)"/><polygon class="cls-27" points="82.25 58.96 83.38 57.56 83.58 57.72 82.45 59.13 82.25 58.96"/><polygon class="cls-27" points="81.74 58.56 82.87 57.15 83.08 57.32 81.95 58.72 81.74 58.56"/><rect class="cls-27" x="81" y="57.4" width="1.8" height="0.27" transform="translate(-14.23 85.38) rotate(-51.24)"/><polygon class="cls-27" points="80.73 57.74 81.86 56.34 82.07 56.51 80.94 57.91 80.73 57.74"/><polygon class="cls-27" points="81.35 55.93 81.56 56.1 80.43 57.5 80.22 57.34 81.35 55.93"/><rect class="cls-27" x="79.48" y="56.18" width="1.8" height="0.27" transform="translate(-13.81 83.89) rotate(-51.33)"/><rect class="cls-27" x="78.98" y="55.77" width="1.8" height="0.27" transform="translate(-13.82 82.86) rotate(-51.04)"/><polygon class="cls-27" points="79.83 54.71 80.04 54.88 78.91 56.28 78.7 56.12 79.83 54.71"/><rect class="cls-27" x="77.96" y="54.96" width="1.8" height="0.27" transform="translate(-13.54 81.85) rotate(-51.09)"/><polygon class="cls-27" points="78.82 53.9 79.03 54.07 77.9 55.47 77.69 55.3 78.82 53.9"/><path class="cls-13" d="M82.14,67.77v1.35a.23.23,0,0,1-.23.23l-7.81.07a.23.23,0,0,1-.23-.23V67.85a.22.22,0,0,1,.22-.23l7.82-.07a.22.22,0,0,1,.23.22"/><polygon class="cls-27" points="74.57 67.61 74.58 69.42 74.32 69.42 74.3 67.62 74.57 67.61"/><polygon class="cls-27" points="75.22 67.61 75.23 69.41 74.97 69.41 74.95 67.61 75.22 67.61"/><polygon class="cls-27" points="75.86 67.6 75.88 69.4 75.61 69.41 75.59 67.61 75.86 67.6"/><polygon class="cls-27" points="76.51 67.6 76.53 69.4 76.26 69.4 76.24 67.6 76.51 67.6"/><polygon class="cls-27" points="77.16 67.59 77.18 69.39 76.91 69.39 76.89 67.59 77.16 67.59"/><polygon class="cls-27" points="77.81 67.58 77.82 69.39 77.56 69.39 77.54 67.59 77.81 67.58"/><rect class="cls-27" x="78.2" y="67.58" width="0.27" height="1.8" transform="translate(-0.77 0.89) rotate(-0.65)"/><polygon class="cls-27" points="79.13 69.37 78.86 69.38 78.84 67.57 79.11 67.57 79.13 69.37"/><polygon class="cls-27" points="79.77 69.37 79.5 69.37 79.49 67.57 79.76 67.56 79.77 69.37"/><polygon class="cls-27" points="80.42 69.36 80.16 69.36 80.14 67.56 80.41 67.56 80.42 69.36"/><polygon class="cls-27" points="81.07 69.36 80.81 69.36 80.79 67.55 81.05 67.55 81.07 69.36"/><polygon class="cls-27" points="81.72 69.35 81.45 69.35 81.44 67.55 81.7 67.55 81.72 69.35"/><path class="cls-31" d="M81.89,43.86H69.46a1,1,0,0,1-1-1v-1a1,1,0,0,1,1-1H81.89a1,1,0,0,1,1,1v1a1,1,0,0,1-1,1"/><g class="cls-36"><g class="cls-37"><polygon class="cls-38" points="74.93 45.22 65.14 55.01 65.14 58.49 78.41 45.22 74.93 45.22"/><path class="cls-38" d="M86.21,50.75a5.52,5.52,0,0,0-4-5.3l-17.1,17.1v2.88a5.53,5.53,0,0,0,2.94,4.89L86.21,52.19Z"/></g></g><path class="cls-13" d="M30.7,8.91a3.78,3.78,0,0,0,4.73,2.46L33.16,4.18A3.78,3.78,0,0,0,30.7,8.91"/><path class="cls-13" d="M37.89,6.64a3.75,3.75,0,0,1,.18,1.13,3.84,3.84,0,0,1-.33,1.54,3.8,3.8,0,0,1-1.65,1.78,4.84,4.84,0,0,1-.66.28L33.16,4.18l.25-.07a3.78,3.78,0,0,1,4.48,2.53"/><path class="cls-27" d="M32.47,4.4a3.77,3.77,0,1,0,4.72,2.46A3.76,3.76,0,0,0,32.47,4.4"/><path class="cls-13" d="M30.61,8.94a3.13,3.13,0,0,0,3.93,2L32.66,5a3.15,3.15,0,0,0-2,3.94"/><path class="cls-13" d="M32.66,5l1.88,6a3.13,3.13,0,0,0-1.88-6"/><path class="cls-27" d="M31.75,6.86a.3.3,0,0,1,0,.13.14.14,0,0,0-.11,0c-.1,0-.17.15,0,.55s.18.39.28.36A.32.32,0,0,0,32,7.83a.3.3,0,0,1,.07.11c0,.09,0,.16-.18.21s-.34,0-.5-.53,0-.76.14-.82.19,0,.21.06"/><path class="cls-27" d="M32,6.68c.23-.07.38,0,.47.27a.42.42,0,0,1,0,.39.9.9,0,0,1,.33.47s0,.05-.1.08l-.12,0a.92.92,0,0,0-.27-.46h-.05l.14.46s0,0-.19.11l-.39-1.25s0,0,0,0Zm.18.61,0,0c.06,0,.08-.07,0-.26s-.08-.18-.14-.16H32Z"/><path class="cls-27" d="M33.18,7.68s0,0-.2.1l-.16-.52-.46-.66s0,0,.22-.1l.13.22c0,.08.13.26.17.34,0-.09-.05-.28-.06-.38l0-.21s0,0,.21-.11v.82Z"/><path class="cls-27" d="M33.26,6.28c.23-.07.38,0,.48.27s-.05.46-.22.52h0l.15.46s0,0-.19.1l-.4-1.25s0,0,0,0h0Zm.22.59c.06,0,.09-.07,0-.28s-.08-.16-.14-.15l0,0,.13.42Z"/><path class="cls-27" d="M34.33,6l0,.15s0,0,0,.05l-.2.06.34,1.06s0,0-.2.1L34,6.27l-.23.07,0-.15a0,0,0,0,1,0-.05Z"/><path class="cls-27" d="M34.65,5.82c.23-.07.37,0,.53.55s.1.71-.14.78-.37,0-.54-.56-.09-.69.15-.77M35,6.94c.09,0,.07-.17,0-.49S34.8,6,34.71,6s-.08.16,0,.52.14.41.24.38"/><path class="cls-27" d="M31.61,8.7a.2.2,0,0,1,0,.13h-.11c-.1,0-.17.15,0,.55s.17.4.27.36a.26.26,0,0,0,.14-.07l.06.11c0,.09,0,.16-.18.21s-.34,0-.5-.52,0-.77.14-.82.19,0,.21,0"/><path class="cls-27" d="M32.15,9.47c0,.12.07.17.17.14l.1-.06-.33-1.06s0,0,.19-.1l.39,1.23a.6.6,0,0,1-.29.17c-.29.09-.38-.06-.45-.26l-.28-.9s0,0,.2-.1Z"/><path class="cls-27" d="M32.59,8.29c.23-.07.38,0,.47.27A.42.42,0,0,1,33,9a.9.9,0,0,1,.33.47s0,.05-.1.08l-.12,0a.92.92,0,0,0-.27-.46h-.05l.14.45s0,0-.19.11L32.39,8.4s0,0,0-.05Zm.18.61,0,0c.06,0,.08-.07,0-.26s-.08-.18-.14-.16h0Z"/><path class="cls-27" d="M33.24,8.09c.23-.08.38,0,.48.26a.49.49,0,0,1,0,.39,1,1,0,0,1,.32.47s0,0-.09.08l-.12,0a1,1,0,0,0-.28-.46l0,0h0l.15.46s0,0-.2.1L33,8.19a0,0,0,0,1,0,0Zm.18.6h0c.06,0,.08-.07,0-.27s-.08-.18-.14-.16l-.05,0Z"/><path class="cls-27" d="M34.49,8.91c.06.17.06.18,0,.19l-.43.13L33.69,8s0,0,0,0l.44-.14c.05.16.06.18,0,.19l-.24.08.1.31.23-.07c0,.15,0,.19,0,.2l-.19.06.13.42Z"/><path class="cls-27" d="M34.7,7.67s0,0,.2-.11l.39,1.25s0,0,0,0l-.16.05-.35-.43a1.76,1.76,0,0,1-.24-.38l.16.42.13.44s0,0-.19.11l-.39-1.25s0,0,0-.05l.16,0,.35.42a2.12,2.12,0,0,1,.23.35,4,4,0,0,1-.15-.4Z"/><path class="cls-27" d="M35.54,7.46a.31.31,0,0,1,0,.13h-.11c-.1,0-.17.15,0,.55s.18.4.28.37a.32.32,0,0,0,.13-.08.41.41,0,0,1,.07.11c0,.09,0,.17-.18.21s-.34,0-.5-.52,0-.77.14-.82.19,0,.21,0"/><path class="cls-27" d="M36.35,8.48s0,0-.19.1L36,8.05l-.46-.65s0,0,.23-.11l.13.23c0,.08.13.26.16.34,0-.09,0-.28-.06-.38l0-.21s0,0,.21-.11V8Z"/><g class="cls-28"><g class="cls-39"><path class="cls-27" d="M31.63,4.78,29.84,8.23a4.07,4.07,0,0,0,.16.89L32.46,4.4a3.91,3.91,0,0,0-.83.38"/><path class="cls-27" d="M33.79,4.23l-3.16,6.08a3.71,3.71,0,0,0,1.64,1.21l3.45-6.64a3.66,3.66,0,0,0-1.93-.65"/></g></g><path class="cls-13" d="M49.15,5.56a4.26,4.26,0,0,0,5.36,2.79L51.94.2a4.27,4.27,0,0,0-2.79,5.36"/><path class="cls-13" d="M57.3,3a4.11,4.11,0,0,1,.2,1.28A4.28,4.28,0,0,1,55.26,8a3.58,3.58,0,0,1-.75.31L51.94.2l.28-.08A4.27,4.27,0,0,1,57.3,3"/><path class="cls-27" d="M51.15.45a4.27,4.27,0,1,0,5.36,2.79A4.27,4.27,0,0,0,51.15.45"/><path class="cls-13" d="M49,5.6A3.56,3.56,0,0,0,53.5,7.92L51.36,1.14A3.55,3.55,0,0,0,49,5.6"/><path class="cls-13" d="M51.36,1.14,53.5,7.92a3.55,3.55,0,1,0-2.14-6.78"/><path class="cls-27" d="M50.33,3.24a.26.26,0,0,1,0,.15.16.16,0,0,0-.12,0c-.11,0-.19.16,0,.62s.19.45.31.41a.42.42,0,0,0,.15-.08.41.41,0,0,1,.08.13c0,.09-.05.18-.21.23s-.38,0-.57-.59,0-.87.17-.93.21,0,.23.06"/><path class="cls-27" d="M50.6,3c.27-.08.44,0,.54.3a.46.46,0,0,1,0,.44,1,1,0,0,1,.37.54s0,0-.11.09l-.13,0a1.05,1.05,0,0,0-.32-.52h0l.16.52s0,0-.21.12l-.45-1.42a.05.05,0,0,1,0-.06Zm.21.69,0,0c.06,0,.09-.08,0-.3s-.1-.21-.16-.19l-.06,0Z"/><path class="cls-27" d="M52,4.17s0,0-.22.12l-.18-.6L51,3s0,0,.26-.12l.14.25a3.49,3.49,0,0,1,.19.39c0-.1,0-.32-.06-.43l0-.24s0,0,.24-.12V3.6Z"/><path class="cls-27" d="M52.05,2.59c.26-.09.43,0,.54.3s-.05.53-.25.59h0l.17.53s0,0-.22.11L51.82,2.7s0,0,0-.05h0Zm.25.67c.07,0,.09-.09,0-.32s-.09-.19-.16-.17l0,0,.15.48Z"/><path class="cls-27" d="M53.26,2.2l.05.18s0,0,0,.05l-.22.07.38,1.21s0,0-.22.11l-.39-1.24-.25.08-.06-.18s0,0,0,0Z"/><path class="cls-27" d="M53.62,2.07c.27-.09.42,0,.6.61s.12.81-.15.9-.42,0-.61-.65-.11-.78.16-.86M54,3.33c.1,0,.08-.19,0-.56s-.17-.5-.28-.46-.08.18.05.59.16.46.27.43"/><path class="cls-27" d="M50.18,5.33a.86.86,0,0,1,0,.15.17.17,0,0,0-.12,0c-.12,0-.2.17-.06.62s.2.45.31.42a.48.48,0,0,0,.16-.09.76.76,0,0,1,.07.13c0,.1,0,.18-.21.23s-.38,0-.57-.59,0-.87.17-.93.22,0,.24.06"/><path class="cls-27" d="M50.78,6.2c0,.14.09.19.2.16a.23.23,0,0,0,.11-.07l-.37-1.2s0,0,.22-.11l.44,1.4a.83.83,0,0,1-.33.19c-.33.1-.44-.07-.51-.3l-.32-1s0,0,.23-.12Z"/><path class="cls-27" d="M51.28,4.87c.27-.09.44,0,.54.3a.46.46,0,0,1,0,.44,1,1,0,0,1,.37.53s0,.06-.11.09l-.13,0a1.07,1.07,0,0,0-.32-.52h0l.16.52s0,0-.21.11L51.06,5s0,0,0-.06Zm.21.68h0c.06,0,.09-.08,0-.3s-.09-.21-.16-.19l-.06,0Z"/><path class="cls-27" d="M52,4.63c.27-.08.44,0,.55.31a.46.46,0,0,1,0,.43,1.09,1.09,0,0,1,.37.54s0,0-.1.09l-.14,0a1,1,0,0,0-.32-.53l0,0h0l.16.52s0,0-.21.12L51.8,4.75a0,0,0,0,1,0,0Zm.21.69.05,0c.06,0,.09-.08,0-.29s-.09-.21-.16-.19l-.06,0Z"/><path class="cls-27" d="M53.45,5.56c.06.2.06.21,0,.22L53,5.94l-.45-1.42a.05.05,0,0,1,0-.06l.5-.16c.06.19.06.21,0,.23l-.27.08.11.36.26-.08c.05.17.07.21,0,.22L53,5.18l.15.48Z"/><path class="cls-27" d="M53.69,4.16s0,0,.22-.12l.44,1.42a0,0,0,0,1,0,0l-.18.06-.39-.49a4,4,0,0,1-.28-.43c.07.17.14.35.18.48l.16.5s0,0-.22.11l-.44-1.41a0,0,0,0,1,0-.06l.19-.06.39.48A2.85,2.85,0,0,1,54,5.1a4.51,4.51,0,0,1-.17-.46Z"/><path class="cls-27" d="M54.64,3.92a.86.86,0,0,1,0,.15.24.24,0,0,0-.12,0c-.12,0-.2.17-.06.63s.2.45.31.41A.48.48,0,0,0,54.94,5a.42.42,0,0,1,.07.12c0,.1,0,.19-.21.24s-.38,0-.57-.6,0-.87.17-.93.22,0,.24.06"/><path class="cls-27" d="M55.56,5.08s0,0-.22.11l-.19-.59-.52-.75s0,0,.25-.12L55,4c0,.09.15.29.19.38A2.83,2.83,0,0,1,55.15,4l0-.25c0-.05,0-.05.23-.12l0,.93Z"/><g class="cls-28"><g class="cls-40"><path class="cls-27" d="M50.2.88l-2,3.91a5,5,0,0,0,.19,1L51.14.45a4.23,4.23,0,0,0-.94.43"/><path class="cls-27" d="M52.65.26,49.06,7.15a4.3,4.3,0,0,0,1.86,1.38L54.85,1a4.31,4.31,0,0,0-2.2-.73"/></g></g><rect class="cls-41" x="21.31" y="69.59" width="35.84" height="1.37"/><rect class="cls-42" x="30.8" y="69.59" width="35.84" height="1.37"/><path class="cls-43" d="M50.34,43.31H35.64L32.07,69.59h21ZM48.08,66a2.19,2.19,0,0,1-1.55.65H39.89a2.19,2.19,0,0,1-1.55-3.75,2.15,2.15,0,0,1,1.55-.64h6.64a2.2,2.2,0,0,1,2.19,2.19A2.23,2.23,0,0,1,48.08,66"/><path class="cls-41" d="M52.31,43.31H37.61L34.88,69.59h21ZM50.25,66a2.19,2.19,0,0,1-1.55.65H42.06a2.2,2.2,0,1,1,0-4.39H48.7A2.19,2.19,0,0,1,50.25,66"/><path class="cls-41" d="M10.86,61H72.14a2,2,0,0,0,2-2V20.76a2,2,0,0,0-2-2H10.86a2,2,0,0,0-2,2V59a2,2,0,0,0,2,2"/><path class="cls-42" d="M13.33,61H74.62a2,2,0,0,0,2-2V20.76a2,2,0,0,0-2-2H13.33a2,2,0,0,0-2,2V59a2,2,0,0,0,2,2"/><rect class="cls-44" x="13.87" y="21.29" width="60.21" height="37.14"/><rect class="cls-45" x="15.08" y="22.62" width="33.38" height="35.17"/><rect class="cls-13" x="16.15" y="54.16" width="4.97" height="2.62"/><rect class="cls-46" x="22.74" y="54.16" width="4.97" height="2.62"/><rect class="cls-27" x="29.33" y="54.16" width="4.97" height="2.62"/><rect class="cls-47" x="35.93" y="54.16" width="4.97" height="2.62"/><rect class="cls-48" x="42.52" y="54.16" width="4.97" height="2.62"/><rect class="cls-45" x="49.52" y="22.62" width="23.19" height="19.13"/><rect class="cls-45" x="49.52" y="42.4" width="23.19" height="15.15"/><rect class="cls-27" x="53.22" y="50.72" width="2.76" height="4.75"/><rect class="cls-48" x="56.53" y="47.95" width="2.76" height="7.52"/><rect class="cls-46" x="59.83" y="44.29" width="2.76" height="11.18"/><rect class="cls-13" x="63.14" y="46.9" width="2.76" height="8.57"/><rect class="cls-47" x="66.64" y="45.62" width="2.76" height="9.85"/><path class="cls-47" d="M71.33,56.94H51.17a.44.44,0,0,1-.44-.44V43.92a.44.44,0,0,1,.44-.44.43.43,0,0,1,.44.44V56.06H71.33a.44.44,0,0,1,.44.44.44.44,0,0,1-.44.44"/><path class="cls-46" d="M31.77,37.53l-.06,13.2A13.2,13.2,0,0,1,20.37,30.88Z"/><path class="cls-48" d="M31.77,37.53,38.31,49a13.06,13.06,0,0,1-6.6,1.74Z"/><path class="cls-48" d="M31.77,37.53,38.31,49a13.21,13.21,0,0,0,4.85-4.8Z"/><path class="cls-27" d="M45,37.59a13.28,13.28,0,0,1-1.8,6.6l-11.4-6.66Z"/><path class="cls-13" d="M25.22,26.07a13.31,13.31,0,0,0-4.85,4.81l11.4,6.65.05-.09-.11-13.1a13.13,13.13,0,0,0-6.49,1.73"/><polygon class="cls-49" points="31.95 37.21 31.9 37.46 31.77 37.53 31.95 37.21"/><path class="cls-47" d="M43.23,31A13.09,13.09,0,0,1,45,37.6l-13.19-.07.13-.07.06-.25-.14.23-.11-13.1a.24.24,0,0,1,.12,0,13.4,13.4,0,0,1,2.92.33,13.67,13.67,0,0,1,3.67,1.46A13.34,13.34,0,0,1,43.23,31"/><g class="cls-28"><g class="cls-50"><polygon class="cls-51" points="30.29 21.29 13.87 34.13 13.87 39.98 38.59 21.29 30.29 21.29"/></g></g><g class="cls-28"><g class="cls-52"><polygon class="cls-51" points="74.08 21.29 51.8 21.29 13.87 50.33 13.87 58.43 23.73 58.43 74.08 25.33 74.08 21.29"/></g></g><path class="cls-46" d="M68.31,30.66v.28a3.4,3.4,0,0,1,0,.45,2.45,2.45,0,0,1,0,.27,7.87,7.87,0,0,1-.84,2.71l-.21.39a7.91,7.91,0,0,1-4.64,3.53,7.19,7.19,0,0,1-1.46.25l-.43,0h-.39l-.43,0a2.58,2.58,0,0,1-.29,0,7.21,7.21,0,0,1-1.16-.22,7.83,7.83,0,0,1-4.64-3.53c-.08-.13-.15-.26-.22-.39A8.37,8.37,0,0,1,53,33a.06.06,0,0,0,0,0c0-.13-.08-.27-.11-.4a8.19,8.19,0,0,1-.22-1.65v-.39c0-.24,0-.48.06-.73v0c0-.11,0-.21,0-.31a7.51,7.51,0,0,1,.72-2.22c.06-.13.13-.26.2-.39a7.87,7.87,0,0,1,6.19-3.94l.42,0h.39l.44,0,.29,0a8.82,8.82,0,0,1,1.16.23,7.83,7.83,0,0,1,4.72,3.68l.21.39a.17.17,0,0,0,0,.05c.09.18.17.37.25.56a7.87,7.87,0,0,1,.54,2.67v.11"/><path class="cls-53" d="M67.69,30.09a7.83,7.83,0,0,1-14.81,2.5,7.74,7.74,0,0,1-.16-2.77,7.82,7.82,0,0,1,14.8-2.5,7.74,7.74,0,0,1,.17,2.77"/><g class="cls-6"><g class="cls-54"><path class="cls-55" d="M68.31,30.94v-.39H65.57a12.43,12.43,0,0,0-.46-3.28h2.38c-.06-.13-.13-.26-.2-.39H65a9.26,9.26,0,0,0-.88-1.94,5.87,5.87,0,0,0-1.54-1.74A8.82,8.82,0,0,0,61.41,23l-.29,0c1.48.33,2.75,1.83,3.46,3.93h-3.9v-4h-.39v4h-3.9c.71-2.1,2-3.61,3.48-3.94a7.83,7.83,0,0,0-1.46.26,5.9,5.9,0,0,0-1.55,1.74A9.8,9.8,0,0,0,56,26.88h-2.3c-.07.13-.14.26-.2.39h2.39a12.86,12.86,0,0,0-.47,3.28H52.66v.39H55.4a12.63,12.63,0,0,0,.51,3.43H53.55c.07.13.14.26.22.39H56a9.4,9.4,0,0,0,.83,1.78,5.82,5.82,0,0,0,1.55,1.75,7.21,7.21,0,0,0,1.16.22,2.58,2.58,0,0,0,.29,0,3.63,3.63,0,0,1-1.81-1.07,7.45,7.45,0,0,1-1.61-2.71h3.85v3.81h.39V34.76h3.85c-.72,2-2,3.46-3.42,3.78a7.19,7.19,0,0,0,1.46-.25,5.8,5.8,0,0,0,1.54-1.75,8.82,8.82,0,0,0,.83-1.78H67.2c.08-.13.15-.26.22-.39H65.06a12.25,12.25,0,0,0,.51-3.43Zm-8,3.43h-4a12,12,0,0,1-.54-3.43h4.51Zm0-3.82H55.78a13.45,13.45,0,0,1,.14-1.71,10.61,10.61,0,0,1,.35-1.57h4Zm4.37,3.82h-4V30.94h4.51a12.33,12.33,0,0,1-.53,3.43m-4-3.82V27.27h4a12.47,12.47,0,0,1,.48,3.28Z"/></g></g><g class="cls-56"><g class="cls-57"><path class="cls-58" d="M65.14,25.86c-5.7-3.07-12.32,2.69-10.14,8.5-4.93-6.59,4.44-14.57,10.14-8.5"/></g></g><g class="cls-6"><g class="cls-59"><path class="cls-60" d="M67.52,27.32a7.83,7.83,0,0,1-14.64,5.27,8,8,0,0,0,.67,1.78c.07.13.14.26.22.39a7.83,7.83,0,0,0,4.64,3.53,8.5,8.5,0,0,0,1.16.22l.29,0,.43,0h.39l.43,0a7.19,7.19,0,0,0,1.46-.25,7.91,7.91,0,0,0,4.64-3.53l.21-.39a7.87,7.87,0,0,0,.84-2.71c0-.24,0-.48,0-.72v-.39a7.81,7.81,0,0,0-.79-3.23"/></g></g><path class="cls-47" d="M53.52,36.71a.46.46,0,0,1-.27-.09.45.45,0,0,1-.12-.64l4.21-6.22a.45.45,0,0,1,.34-.2.48.48,0,0,1,.37.13l4.39,4.39,4.9-8.1a.47.47,0,0,1,.65-.16.46.46,0,0,1,.15.64l-5.21,8.62a.47.47,0,0,1-.73.09l-4.41-4.41L53.9,36.5a.48.48,0,0,1-.38.21"/><path class="cls-61" d="M54.92,36.44a1.41,1.41,0,1,1-1.4-1.4,1.4,1.4,0,0,1,1.4,1.4"/><path class="cls-61" d="M59.11,30.42a1.41,1.41,0,1,1-1.4-1.4,1.4,1.4,0,0,1,1.4,1.4"/><path class="cls-61" d="M63.78,34.56a1.4,1.4,0,1,1-1.4-1.4,1.4,1.4,0,0,1,1.4,1.4"/><path class="cls-61" d="M69,26.28a1.4,1.4,0,1,1-1.4-1.41A1.4,1.4,0,0,1,69,26.28"/><path class="cls-47" d="M70.82,40H51.4a.45.45,0,0,1-.45-.46V26.39a.45.45,0,1,1,.9,0V39.11h19a.46.46,0,1,1,0,.91"/><path class="cls-48" d="M69.63,28.85s0,0,0,0v.05a8,8,0,0,1-3.7,4.38l-.31.16a17.46,17.46,0,0,0,1.84.53c-.87,2.77-4.84,6.75-11.36,7a12.42,12.42,0,0,0,13.69-5.37c.52.56,1.11,1.34,1.11,1.34a13.84,13.84,0,0,0-1.24-8.14"/><path class="cls-48" d="M69.6,28.94a8,8,0,0,1-3.7,4.38l-.31.16a17.46,17.46,0,0,0,1.84.53c-.87,2.77-4.84,6.75-11.36,7l.06,0C58.91,41.17,70,41,69.61,28.89c0,0,0,0,0,.05"/><rect class="cls-62" y="70.96" width="92.34" height="3.88"/></g></g></g></svg>