<svg xmlns="http://www.w3.org/2000/svg" xmlns:xlink="http://www.w3.org/1999/xlink" viewBox="0 0 77.63 75.99"><defs><style>.cls-1{fill:none;}.cls-2{isolation:isolate;}.cls-3{fill:#218400;}.cls-4{fill:#ffd066;}.cls-5{fill:#feac1a;}.cls-6{fill:#fcd4ca;}.cls-7{fill:#e8a393;}.cls-8{fill:#110239;}.cls-9{fill:#0186cb;}.cls-10{opacity:0.65;}.cls-11{clip-path:url(#clip-path);}.cls-12{fill:#0056a3;}.cls-13{fill:#f45762;}.cls-14{opacity:0.35;mix-blend-mode:multiply;}.cls-15{clip-path:url(#clip-path-2);}.cls-16{fill:#c9071e;}.cls-17{clip-path:url(#clip-path-3);}.cls-18{clip-path:url(#clip-path-4);}</style><clipPath id="clip-path"><rect class="cls-1" x="16.28" y="50.76" width="9.98" height="8.37"/></clipPath><clipPath id="clip-path-2"><rect class="cls-1" x="9.49" y="27.68" width="4.74" height="8.38"/></clipPath><clipPath id="clip-path-3"><rect class="cls-1" x="10.8" y="37.65" width="7.77" height="15.17"/></clipPath><clipPath id="clip-path-4"><rect class="cls-1" x="23.32" y="32.6" width="9.13" height="13.4"/></clipPath></defs><g class="cls-2"><g id="Capa_2" data-name="Capa 2"><g id="Capa_1-2" data-name="Capa 1"><path class="cls-3" d="M77.63,42.87,68.88,69.09a6.06,6.06,0,0,1-11.49-3.83L64.88,42.8,57.37,19.45a6.06,6.06,0,1,1,11.54-3.7Z"/><path class="cls-4" d="M5.81,20.44A15.48,15.48,0,1,0,15.53.82,15.49,15.49,0,0,0,5.81,20.44"/><path class="cls-5" d="M8.5,19.53a12.64,12.64,0,1,0,7.94-16,12.65,12.65,0,0,0-7.94,16"/><path class="cls-4" d="M19.81,5.57l2.69.15L22.15,9c2.73.39,4.88,1.61,4.72,4.47-.27,4.95-8.29,2.79-8.39,4.67-.05.88,1.25,1,1.92,1s2.06-.12,2.15-1.33v-.1L27,18c-.15,2.77-2.77,3.91-5.52,4l0,3.3-2.69-.15.37-3.25c-2.94-.38-5.28-1.65-5.11-4.72.28-5.12,8.3-2.79,8.4-4.6,0-.81-1.27-.88-1.67-.91-.65,0-1.68.13-1.76,1.12l-4.4-.24c.14-2.64,2.61-3.65,5.26-3.72Z"/><path class="cls-6" d="M7.57,28.3a24.76,24.76,0,0,1-.67-3.69,2.34,2.34,0,0,1,.28-1.95c.28-.44,1.19-1.51,1.43-1.07.2.29-.77,1.52-.91,1.84.17-.36,1.14-2.12,1.72-1.75s-.93,1.83-1,2.23c.31-.53,1.07-1.57,1.42-1.37.33.4-.55,1.34-.9,1.94.21-.28,1.07-1.28,1.23-.73s-.84,1.3-1,1.9a5.4,5.4,0,0,0,.11,2.52c.14.38-1.52.75-1.74.13"/><path class="cls-6" d="M32.62,29.72a25,25,0,0,0,.7-3.69,2.34,2.34,0,0,0-.26-2c-.28-.44-1.18-1.52-1.42-1.08-.2.29.76,1.52.89,1.85-.16-.37-1.12-2.14-1.71-1.77s.92,1.84,1,2.24c-.31-.54-1.06-1.58-1.4-1.39-.34.4.53,1.35.87,1.95-.21-.28-1.06-1.29-1.22-.74s.83,1.31.94,1.91a5.42,5.42,0,0,1-.14,2.52c-.14.38,1.51.77,1.74.15"/><path class="cls-6" d="M18.35,33.91a5.31,5.31,0,0,0,1.38.84,5.86,5.86,0,0,0,1.21.33,7.57,7.57,0,0,0,.77,2.62s.08,1-1.72.72-1.41-1-1.41-1a19.09,19.09,0,0,0-.23-3.54"/><path class="cls-7" d="M20.49,38.4v-.18a2.3,2.3,0,0,0-.09-.69,1.9,1.9,0,0,0-1.5-1.28,1.84,1.84,0,0,0-.33,0,12.65,12.65,0,0,0-.22-2.31,5.31,5.31,0,0,0,1.38.84,5.86,5.86,0,0,0,1.21.33,7.57,7.57,0,0,0,.77,2.62s.06.78-1.22.76V38.4"/><path class="cls-8" d="M31.62,71.61a10.76,10.76,0,0,0-.31,2.1,2,2,0,0,0,.58,1.59c.53.43,6.79,1,7.34.43s.18-1.62-1.24-2a15,15,0,0,1-2.7-.94,2.22,2.22,0,0,1-1.15-1.64Z"/><path class="cls-8" d="M3.51,64.8A5.55,5.55,0,0,0,1.16,65,2,2,0,0,0,0,66.26C-.14,66.93,2.15,72.79,3,73s1.53-.57,1.19-2a14.83,14.83,0,0,1-.38-2.84,1.08,1.08,0,0,1,.81-1.22Z"/><path class="cls-9" d="M16.92,50.76H23s8.54,6.38,9.66,7.88c.72,1,2,13.21,2,13.21l-3.49.33s-1.7-10.89-2.28-11.79-12-4.31-12-4.31-1.44-1.74,0-5.32"/><g class="cls-10"><g class="cls-11"><path class="cls-12" d="M16.92,50.76h6c.06,0,0,3.46.58,4.92a9.11,9.11,0,0,0,2.78,3.45c-2.54-1-9.35-3.05-9.35-3.05s-1.44-1.74,0-5.32"/></g></g><path class="cls-9" d="M14.65,50.56l8.44.47S16.2,64,15.4,64.63,3.94,67.89,3.94,67.89l-.89-3.37S11.3,62.27,12,61.7a16.45,16.45,0,0,0,2-6.94c-.14-2.65.14-3.84.62-4.2"/><path class="cls-13" d="M18.76,37.45a3,3,0,0,0,2.9.22,3.73,3.73,0,0,0,2.05.31c1.43-.09,4.56-2.32,4.92-2.85S31,27.8,31,27.8l2.28.27s-1.47,9-1.92,9.92-4.93,4.09-7.12,5.06a.81.81,0,0,0-.48.79,58,58,0,0,0,1.2,7.64s-3.88,2.72-11.2.44a60.08,60.08,0,0,1,.87-9.1,2.23,2.23,0,0,0-.6-2c-1.48-1.49-4.42-4.44-4.79-4.78s-2-8.41-2-8.41l2.29-.15s2.21,5.93,2.5,6.34a51.7,51.7,0,0,0,4.23,3.88c.33.15,1.61-.29,2.6-.27"/><g class="cls-14"><g class="cls-15"><path class="cls-16" d="M13.89,35.9c-1.94-.8-3.13-1.69-3.44-4-.16-1.1-1-3.19-.95-4.24.36.95,2.17,5.79,2.43,6.16s1.26,1.27,2.3,2.22l-.34-.16"/></g></g><g class="cls-14"><g class="cls-17"><path class="cls-16" d="M18.57,52.82c-.48,0-1.87-4.43-2-5.14s-.76-5-.84-5.56A1.72,1.72,0,0,0,15,40.83c-1.2-1.07-2.53-2-3.8-3a1.93,1.93,0,0,0-.41-.2l2,2,.09.1a.08.08,0,0,1,0,0l.45.45.14.15.43.42a2.23,2.23,0,0,1,.6,2,60.08,60.08,0,0,0-.87,9.1,19.28,19.28,0,0,0,4.86.9"/></g></g><g class="cls-14"><g class="cls-18"><path class="cls-16" d="M31.31,35.39A10.86,10.86,0,0,1,25.68,41c-1.82.81-2.19.91-2.36,1.15A27.94,27.94,0,0,0,24,46c-.11-.88-.2-1.65-.24-2.15a.81.81,0,0,1,.48-.79c2.19-1,6.71-4.24,7.12-5.06a44.59,44.59,0,0,0,1.15-5.39c-.37,1-.75,1.91-1.15,2.79"/></g></g><path class="cls-6" d="M18,30.53s2.93-1.47,3.69-.77.75,2.49.89,2.68a9.71,9.71,0,0,1,.86,1.09c0,.16-.73.38-.76.5s-.21,1.56-.71,1.82-3.41,0-4.22-1.57-.8-3.19.25-3.75"/><path class="cls-8" d="M17.39,29.06l1.84.91a23.39,23.39,0,0,1,.42,3.43c0,1-.58.1-.63-.47s-.52-.61-.82-.34-.08.91.6,1.24a2,2,0,0,1,.11,1.5A3.18,3.18,0,0,1,17,33.59c-.68-1.34-1-3.29.41-4.53"/><path class="cls-8" d="M17.86,28.29a3.84,3.84,0,0,1,1.68-.49,2.5,2.5,0,0,1,1.71.76,2,2,0,0,0,1.26.72.86.86,0,0,0,.82-.2,2.11,2.11,0,0,1-.17,1.42,2.21,2.21,0,0,1-.58.67,4.45,4.45,0,0,1-2.18.52,4.41,4.41,0,0,1-1.49-.16c-.53-.16-2.15-1.45-2.12-1.76a2.66,2.66,0,0,1,1.07-1.48"/></g></g></g></svg>