<svg xmlns="http://www.w3.org/2000/svg" xmlns:xlink="http://www.w3.org/1999/xlink" viewBox="0 0 97.78 83.6"><defs><style>.cls-1,.cls-35,.cls-5{fill:none;}.cls-2{isolation:isolate;}.cls-3{fill:#218400;}.cls-4{fill:#ffca00;}.cls-35,.cls-5{stroke:#f7ac00;stroke-linecap:round;stroke-linejoin:round;}.cls-5{stroke-width:0.39px;}.cls-6{mix-blend-mode:soft-light;}.cls-7{clip-path:url(#clip-path);}.cls-8{fill:#fbd1a3;}.cls-9{mix-blend-mode:multiply;}.cls-10{clip-path:url(#clip-path-2);}.cls-11{fill:#d7c8c0;}.cls-12{clip-path:url(#clip-path-3);}.cls-13{clip-path:url(#clip-path-4);}.cls-14{clip-path:url(#clip-path-5);}.cls-15{clip-path:url(#clip-path-6);}.cls-16{clip-path:url(#clip-path-7);}.cls-17{clip-path:url(#clip-path-8);}.cls-18{fill:#422918;}.cls-19{fill:#062c44;}.cls-20{fill:#e09f7a;}.cls-21{fill:#c6c6c5;}.cls-22{fill:#062136;}.cls-23{fill:#083b5a;}.cls-24{fill:#042439;}.cls-25{fill:#ececec;}.cls-26{fill:#d9d9d9;}.cls-27{fill:#f8ba8c;}.cls-28{clip-path:url(#clip-path-9);}.cls-29{fill:#d6c7c4;}.cls-30{fill:#f7ac00;}.cls-31{clip-path:url(#clip-path-10);}.cls-32{fill:#e3cec6;}.cls-33{fill:#c77700;}.cls-34{clip-path:url(#clip-path-11);}.cls-35{stroke-width:0.23px;}.cls-36{fill:#cbefef;}.cls-37{fill:#ffc0bb;}.cls-38{fill:#333;}.cls-39{fill:#e03268;}.cls-40{fill:#f99893;}.cls-41{fill:#fff;}.cls-42{fill:#ff5b7e;}.cls-43{fill:#c8eef1;}.cls-44{fill:#07085b;}</style><clipPath id="clip-path"><rect class="cls-1" x="51.11" y="81.13" width="11.27" height="0.47"/></clipPath><clipPath id="clip-path-2"><rect class="cls-1" x="50.57" y="80.77" width="12.6" height="2.84"/></clipPath><clipPath id="clip-path-3"><rect class="cls-1" x="50.09" y="78.23" width="11.27" height="0.47"/></clipPath><clipPath id="clip-path-4"><rect class="cls-1" x="49.54" y="77.87" width="12.6" height="2.84"/></clipPath><clipPath id="clip-path-5"><rect class="cls-1" x="51.11" y="75.34" width="11.27" height="0.47"/></clipPath><clipPath id="clip-path-6"><rect class="cls-1" x="50.57" y="74.98" width="12.6" height="2.84"/></clipPath><clipPath id="clip-path-7"><rect class="cls-1" x="50.5" y="72.45" width="11.27" height="0.47"/></clipPath><clipPath id="clip-path-8"><rect class="cls-1" x="49.96" y="72.08" width="12.6" height="2.84"/></clipPath><clipPath id="clip-path-9"><rect class="cls-1" x="53.4" y="51.04" width="3" height="1.83"/></clipPath><clipPath id="clip-path-10"><rect class="cls-1" x="44.05" y="53.74" width="4.61" height="7.5"/></clipPath><clipPath id="clip-path-11"><rect class="cls-1" x="49.63" y="54.59" width="1.69" height="4.81"/></clipPath></defs><g class="cls-2"><g id="Capa_2" data-name="Capa 2"><g id="Capa_1-2" data-name="Capa 1"><path class="cls-3" d="M97.78,49.94,89,76.16a6.06,6.06,0,0,1-11.49-3.83L85,49.88l-7.5-23.36a6.05,6.05,0,0,1,11.53-3.7Z"/><path class="cls-4" d="M63.16,82.84a.81.81,0,0,1-.86.76H51.43a.81.81,0,0,1-.86-.76V81.48a.81.81,0,0,1,.86-.77H62.3a.81.81,0,0,1,.86.77Z"/><line class="cls-5" x1="51.45" y1="83.37" x2="51.45" y2="81.13"/><line class="cls-5" x1="52.49" y1="83.37" x2="52.49" y2="81.13"/><line class="cls-5" x1="53.54" y1="83.37" x2="53.54" y2="81.13"/><line class="cls-5" x1="54.58" y1="83.37" x2="54.58" y2="81.13"/><line class="cls-5" x1="55.62" y1="83.37" x2="55.62" y2="81.13"/><line class="cls-5" x1="56.66" y1="83.37" x2="56.66" y2="81.13"/><line class="cls-5" x1="57.71" y1="83.37" x2="57.71" y2="81.13"/><line class="cls-5" x1="58.75" y1="83.37" x2="58.75" y2="81.13"/><line class="cls-5" x1="59.79" y1="83.37" x2="59.79" y2="81.13"/><line class="cls-5" x1="60.83" y1="83.37" x2="60.83" y2="81.13"/><line class="cls-5" x1="61.88" y1="83.37" x2="61.88" y2="81.13"/><line class="cls-5" x1="62.56" y1="83.37" x2="62.56" y2="81.13"/><g class="cls-6"><g class="cls-7"><path class="cls-8" d="M62.38,81.36a.24.24,0,0,1-.24.24H51.34a.23.23,0,0,1-.23-.24.23.23,0,0,1,.23-.23h10.8a.23.23,0,0,1,.24.23"/></g></g><g class="cls-9"><g class="cls-10"><path class="cls-11" d="M62.84,82.64H52a.82.82,0,0,1-.86-.77v-1.1a.76.76,0,0,0-.54.71v1.36a.81.81,0,0,0,.86.76H62.3a.81.81,0,0,0,.86-.76v-.26a.83.83,0,0,1-.32.06"/></g></g><path class="cls-4" d="M62.14,79.94a.82.82,0,0,1-.86.77H50.41a.82.82,0,0,1-.87-.77V78.58a.82.82,0,0,1,.87-.76H61.28a.82.82,0,0,1,.86.76Z"/><line class="cls-5" x1="50.43" y1="80.47" x2="50.43" y2="78.23"/><line class="cls-5" x1="51.47" y1="80.47" x2="51.47" y2="78.23"/><line class="cls-5" x1="52.51" y1="80.47" x2="52.51" y2="78.23"/><line class="cls-5" x1="53.56" y1="80.47" x2="53.56" y2="78.23"/><line class="cls-5" x1="54.6" y1="80.47" x2="54.6" y2="78.23"/><line class="cls-5" x1="55.64" y1="80.47" x2="55.64" y2="78.23"/><line class="cls-5" x1="56.68" y1="80.47" x2="56.68" y2="78.23"/><line class="cls-5" x1="57.73" y1="80.47" x2="57.73" y2="78.23"/><line class="cls-5" x1="58.77" y1="80.47" x2="58.77" y2="78.23"/><line class="cls-5" x1="59.81" y1="80.47" x2="59.81" y2="78.23"/><line class="cls-5" x1="60.86" y1="80.47" x2="60.86" y2="78.23"/><line class="cls-5" x1="61.54" y1="80.47" x2="61.54" y2="78.23"/><g class="cls-6"><g class="cls-12"><path class="cls-8" d="M61.35,78.47a.23.23,0,0,1-.23.23H50.32a.23.23,0,0,1-.23-.23.23.23,0,0,1,.23-.24h10.8a.23.23,0,0,1,.23.24"/></g></g><g class="cls-9"><g class="cls-13"><path class="cls-11" d="M61.82,79.75H51a.82.82,0,0,1-.86-.77V77.87a.79.79,0,0,0-.55.71v1.36a.82.82,0,0,0,.87.77H61.28a.82.82,0,0,0,.86-.77v-.25a.87.87,0,0,1-.32.06"/></g></g><path class="cls-4" d="M63.16,77.05a.82.82,0,0,1-.86.77H51.43a.82.82,0,0,1-.86-.77V75.69a.82.82,0,0,1,.86-.77H62.3a.82.82,0,0,1,.86.77Z"/><line class="cls-5" x1="51.45" y1="77.58" x2="51.45" y2="75.34"/><line class="cls-5" x1="52.49" y1="77.58" x2="52.49" y2="75.34"/><line class="cls-5" x1="53.54" y1="77.58" x2="53.54" y2="75.34"/><line class="cls-5" x1="54.58" y1="77.58" x2="54.58" y2="75.34"/><line class="cls-5" x1="55.62" y1="77.58" x2="55.62" y2="75.34"/><line class="cls-5" x1="56.66" y1="77.58" x2="56.66" y2="75.34"/><line class="cls-5" x1="57.71" y1="77.58" x2="57.71" y2="75.34"/><line class="cls-5" x1="58.75" y1="77.58" x2="58.75" y2="75.34"/><line class="cls-5" x1="59.79" y1="77.58" x2="59.79" y2="75.34"/><line class="cls-5" x1="60.83" y1="77.58" x2="60.83" y2="75.34"/><line class="cls-5" x1="61.88" y1="77.58" x2="61.88" y2="75.34"/><line class="cls-5" x1="62.56" y1="77.58" x2="62.56" y2="75.34"/><g class="cls-6"><g class="cls-14"><path class="cls-8" d="M62.38,75.58a.23.23,0,0,1-.24.23H51.34a.23.23,0,0,1-.23-.23.23.23,0,0,1,.23-.24h10.8a.24.24,0,0,1,.24.24"/></g></g><g class="cls-9"><g class="cls-15"><path class="cls-11" d="M62.84,76.85H52a.82.82,0,0,1-.86-.76V75a.77.77,0,0,0-.54.71v1.36a.82.82,0,0,0,.86.77H62.3a.82.82,0,0,0,.86-.77V76.8a1.07,1.07,0,0,1-.32,0"/></g></g><path class="cls-4" d="M62.56,74.16a.82.82,0,0,1-.86.76H50.82a.82.82,0,0,1-.86-.76V72.8a.82.82,0,0,1,.86-.77H61.7a.82.82,0,0,1,.86.77Z"/><line class="cls-5" x1="50.85" y1="74.69" x2="50.85" y2="72.45"/><line class="cls-5" x1="51.89" y1="74.69" x2="51.89" y2="72.45"/><line class="cls-5" x1="52.93" y1="74.69" x2="52.93" y2="72.45"/><line class="cls-5" x1="53.97" y1="74.69" x2="53.97" y2="72.45"/><line class="cls-5" x1="55.02" y1="74.69" x2="55.02" y2="72.45"/><line class="cls-5" x1="56.06" y1="74.69" x2="56.06" y2="72.45"/><line class="cls-5" x1="57.1" y1="74.69" x2="57.1" y2="72.45"/><line class="cls-5" x1="58.14" y1="74.69" x2="58.14" y2="72.45"/><line class="cls-5" x1="59.19" y1="74.69" x2="59.19" y2="72.45"/><line class="cls-5" x1="60.23" y1="74.69" x2="60.23" y2="72.45"/><line class="cls-5" x1="61.27" y1="74.69" x2="61.27" y2="72.45"/><line class="cls-5" x1="61.95" y1="74.69" x2="61.95" y2="72.45"/><g class="cls-6"><g class="cls-16"><path class="cls-8" d="M61.77,72.68a.23.23,0,0,1-.23.24H50.74a.24.24,0,0,1-.24-.24.23.23,0,0,1,.24-.23h10.8a.23.23,0,0,1,.23.23"/></g></g><g class="cls-9"><g class="cls-17"><path class="cls-11" d="M62.24,74H51.37a.82.82,0,0,1-.86-.77V72.08a.79.79,0,0,0-.55.72v1.36a.82.82,0,0,0,.86.76H61.7a.82.82,0,0,0,.86-.76V73.9a.87.87,0,0,1-.32.06"/></g></g><path class="cls-18" d="M44.59,80.66c0-.5.36-.63,1.38-1a9.33,9.33,0,0,0,1.11-.53l1.31,0,.1.67s.17.94-.1,1A10.25,10.25,0,0,1,46,81c-1.27,0-1.42-.15-1.42-.37"/><path class="cls-19" d="M54.58,67.37s-7.76,1.2-8.63,2.71.52,9.22.52,9.22h2.16l.68-6.36A14.47,14.47,0,0,0,54,72.05c1.55-.8.54-4.68.54-4.68"/><path class="cls-20" d="M53.56,56.53l.15.53c0,.14.07.3.11.5a5.74,5.74,0,0,1,.11.7c0,.13,0,.27,0,.41s0,.3,0,.45c0,.31,0,.63,0,1,0,.17,0,.35,0,.52a4.52,4.52,0,0,1-.06.53c0,.37-.32,1.59-.39,2-.31,1.46,2.19,1.39,2.64-.28.11-.41.21-.83.29-1.25,0-.21.08-.43.1-.64s.06-.41.09-.62c0-.41.07-.81.08-1.19,0-.19,0-.38,0-.56s0-.36,0-.53c0-.34-.06-.65-.09-.93s-.1-.55-.14-.75-.12-.54-.12-.54Z"/><path class="cls-20" d="M49,60.86s1.36.9,6.34,1c1.49.19.61,2.53-1.11,2.42a11.55,11.55,0,0,1-6.08-2.42Z"/><path class="cls-21" d="M57.18,60.28a6.9,6.9,0,0,0,.12-4.58c-.56-1.72-3.59-1.71-3.76.46a33.89,33.89,0,0,0,.24,4,5.43,5.43,0,0,0,3.4.13"/><path class="cls-20" d="M49,60.86a3.73,3.73,0,0,0-.93-2.14c-.24-.31-.86-.09-.46.42.19.25.16.52.06.42-.83-.87-1-1.4-1.49-1.39s-1.1,1.19-.48,1.9a13.68,13.68,0,0,0,2.45,1.78Z"/><path class="cls-22" d="M47.85,42c0,.83.19,1.41.74,1.41s1-.68,1-1.52-.85-2-1.4-2-.35,1.22-.35,2.06"/><path class="cls-23" d="M50.57,67.37a4.78,4.78,0,0,0,4.65,5.83c2.85,0,5.7-2.18,5.07-5.83-.44-2.52-2-4.71-4.87-4.71S51,64.85,50.57,67.37"/><path class="cls-24" d="M55.46,73.2a3,3,0,0,0,.34-1.44,4.47,4.47,0,0,0-1-2.94c-.64-.58-1.8-.18-2.57-.13a4.39,4.39,0,0,1-1.77-.13,4.7,4.7,0,0,0,4.73,4.64h.24"/><path class="cls-18" d="M48.28,81.22c0-.5.36-.62,1.38-1a9.33,9.33,0,0,0,1.11-.53l1.31,0,.1.67s.17.94-.1,1a10.25,10.25,0,0,1-2.38.21c-1.27,0-1.42-.14-1.42-.37"/><path class="cls-23" d="M58.27,67.93s-7.76,1.2-8.63,2.71.52,9.22.52,9.22h2.16L53,73.51a14.58,14.58,0,0,0,4.73-.9c1.55-.79.54-4.68.54-4.68"/><path class="cls-25" d="M50.31,66.16c0-1.13.48-7.06.92-9.71s1.84-3,1.84-3l4.66.38s1.49-.09,2.28,2.33c.92,2.84.53,10.25.53,10.63a.8.8,0,0,1-.25.6H50.57s-.26-.08-.26-1.21"/><path class="cls-26" d="M52.85,53.23l1-.1a.93.93,0,0,1-.1.36c-.12.27-.8,1.93-.8,1.93Z"/><path class="cls-27" d="M57.54,51H53.4a3,3,0,0,1,.38,2.45c-.09.19-.8,1.93-.8,1.93s5.89-.55,4.55-1.64,0-2.74,0-2.74"/><g class="cls-9"><g class="cls-28"><path class="cls-29" d="M56.36,52.08a4.49,4.49,0,0,1-2.45.79A3.44,3.44,0,0,0,53.4,51h2.27c-.06.44,1,.68.69,1"/></g></g><path class="cls-27" d="M48.4,45c-1.67,1.48.58,7.58,5,7.58,4.11,0,7.72-2.26,7.72-7.11S59,36.65,54.53,36.65,47.75,40.58,48.4,45"/><path class="cls-22" d="M53.4,35.3c2.89-.35,6.12-1,7.23,2,1.75.06,2.46,2.81,2.3,4-.53,4.34-.86,7.76-4,9.25a14.1,14.1,0,0,0-.19-2.95s.58-2.27-1.24-.83c-1.56-.89-.72-1.49-.18-2.67-.09-1.73-.15-3.64-3.18-3.67-3.69,0-5.69.83-6.33-.11-1.24-1.81.28-4.45,5.55-5.09"/><polygon class="cls-26" points="54.72 55.48 55.51 55.48 58.78 54.06 56.97 52.87 52.98 55.42 54.45 55.97 54.72 55.48"/><path class="cls-27" d="M57.21,46.69s.5,1.09,1.48,1.09,1.85-.49,1.85-1.46a1.76,1.76,0,0,0-1.76-1.76c-1,0-1.57,2.13-1.57,2.13"/><path class="cls-4" d="M51.64,59.69a4.42,4.42,0,1,1-1.62-6,4.42,4.42,0,0,1,1.62,6"/><path class="cls-30" d="M51.07,59.36a3.76,3.76,0,1,1-1.38-5.14,3.76,3.76,0,0,1,1.38,5.14"/><g class="cls-9"><g class="cls-31"><path class="cls-32" d="M46.36,60.66a3.76,3.76,0,0,1,1-6.92,3.76,3.76,0,1,0,1.27,7.4,3.71,3.71,0,0,1-2.3-.48"/></g></g><path class="cls-33" d="M49.55,55.19l-.17.3a1.86,1.86,0,0,1,.43.4,1.14,1.14,0,0,1,.2.48,1.29,1.29,0,0,1,0,.39.66.66,0,0,1-.09.3.38.38,0,0,1-.23.18.39.39,0,0,1-.3,0,.4.4,0,0,1-.18-.48.7.7,0,0,0-.17-.7l-.64,1.12c.18.19.33.35.43.48a1.08,1.08,0,0,1,.23.42,1.21,1.21,0,0,1,.06.5,1.46,1.46,0,0,1-.17.51,1.5,1.5,0,0,1-.48.49,1.31,1.31,0,0,1-.68.19,1.64,1.64,0,0,1-.78-.18l-.39.67a.56.56,0,0,1-.16.21.15.15,0,0,1-.18,0c-.06,0-.1-.08-.1-.14a.46.46,0,0,1,.07-.21l.41-.72a2,2,0,0,1-.46-.47,1.46,1.46,0,0,1-.23-.51,1.32,1.32,0,0,1,0-.48,1,1,0,0,1,.13-.4.38.38,0,0,1,.23-.18.42.42,0,0,1,.31,0,.44.44,0,0,1,.18.18.33.33,0,0,1,0,.22,3.6,3.6,0,0,0-.07.42.78.78,0,0,0,0,.3.89.89,0,0,0,.21.32l.72-1.25a5.2,5.2,0,0,1-.48-.57,1.12,1.12,0,0,1,0-1.25,1.18,1.18,0,0,1,.73-.59,1.56,1.56,0,0,1,1,.15l.17-.29c.08-.15.18-.19.3-.13s.13.18,0,.32m-1.41,1.66.6-1a1,1,0,0,0-.46,0,.49.49,0,0,0-.32.26.47.47,0,0,0-.06.39,1.3,1.3,0,0,0,.24.41m-.12,1L47.34,59a.88.88,0,0,0,.55,0,.68.68,0,0,0,.37-.3.52.52,0,0,0,.06-.45,1.19,1.19,0,0,0-.3-.46"/><g class="cls-6"><g class="cls-34"><path class="cls-8" d="M51.24,56.77a3.13,3.13,0,0,1-.5,2.63c-.2.05.1-1.15-.2-2.48s-1.07-2.28-.88-2.33a3.18,3.18,0,0,1,1.58,2.18"/></g></g><line class="cls-35" x1="43.62" y1="58.61" x2="44.1" y2="58.49"/><line class="cls-35" x1="51.52" y1="56.49" x2="51.99" y2="56.36"/><line class="cls-35" x1="46.68" y1="53.3" x2="46.81" y2="53.78"/><line class="cls-35" x1="48.81" y1="61.2" x2="48.93" y2="61.68"/><line class="cls-35" x1="45.64" y1="61.24" x2="45.89" y2="60.82"/><line class="cls-35" x1="49.73" y1="54.16" x2="49.97" y2="53.73"/><line class="cls-35" x1="44.05" y1="55.32" x2="44.48" y2="55.57"/><line class="cls-35" x1="51.14" y1="59.41" x2="51.56" y2="59.65"/><line class="cls-35" x1="43.52" y1="56.87" x2="44.01" y2="56.94"/><line class="cls-35" x1="51.61" y1="58.04" x2="52.1" y2="58.11"/><line class="cls-35" x1="48.43" y1="53.2" x2="48.36" y2="53.69"/><line class="cls-35" x1="47.26" y1="61.29" x2="47.19" y2="61.78"/><line class="cls-35" x1="44.34" y1="60.08" x2="44.73" y2="59.79"/><line class="cls-35" x1="50.88" y1="55.19" x2="51.28" y2="54.89"/><line class="cls-35" x1="45.21" y1="54.02" x2="45.51" y2="54.41"/><line class="cls-35" x1="50.11" y1="60.57" x2="50.4" y2="60.96"/><line class="cls-35" x1="43.49" y1="57.83" x2="43.98" y2="57.79"/><line class="cls-35" x1="51.64" y1="57.18" x2="52.13" y2="57.15"/><line class="cls-35" x1="47.47" y1="53.17" x2="47.5" y2="53.66"/><line class="cls-35" x1="48.11" y1="61.32" x2="48.15" y2="61.81"/><line class="cls-35" x1="45" y1="60.79" x2="45.32" y2="60.41"/><line class="cls-35" x1="50.3" y1="54.57" x2="50.62" y2="54.19"/><line class="cls-35" x1="44.51" y1="54.68" x2="44.89" y2="55"/><line class="cls-35" x1="50.73" y1="59.98" x2="51.11" y2="60.3"/><line class="cls-35" x1="43.7" y1="56.1" x2="44.17" y2="56.26"/><line class="cls-35" x1="51.45" y1="58.72" x2="51.91" y2="58.88"/><line class="cls-35" x1="49.2" y1="53.38" x2="49.04" y2="53.85"/><line class="cls-35" x1="46.58" y1="61.13" x2="46.42" y2="61.59"/><line class="cls-35" x1="43.92" y1="59.41" x2="44.36" y2="59.19"/><line class="cls-35" x1="51.25" y1="55.79" x2="51.69" y2="55.57"/><line class="cls-35" x1="45.89" y1="53.6" x2="46.11" y2="54.04"/><line class="cls-35" x1="49.51" y1="60.93" x2="49.73" y2="61.37"/><path class="cls-27" d="M56.28,56.85l.21.51c0,.14.11.29.17.48s.13.43.19.69.06.26.08.4.06.29.08.44a9.69,9.69,0,0,1,.09,1c0,.17,0,.35,0,.52a4.86,4.86,0,0,1,0,.54c0,.36-.14,1.61-.17,2-.14,1.49,2.34,1.14,2.59-.56q.1-.65.15-1.29c0-.21,0-.42,0-.64s0-.42,0-.62a11.47,11.47,0,0,0-.06-1.2c0-.19,0-.38-.06-.56s0-.35-.08-.52c0-.33-.13-.64-.19-.91s-.16-.54-.22-.73-.18-.52-.18-.52Z"/><path class="cls-27" d="M52.27,61.66s1.45.74,6.41.28c1.5,0,.9,2.44-.83,2.52a11.52,11.52,0,0,1-6.31-1.72Z"/><path class="cls-21" d="M60.3,60.17a6.91,6.91,0,0,0-.39-4.56c-.75-1.65-3.76-1.3-3.69.87a34.88,34.88,0,0,0,.69,3.94,5.45,5.45,0,0,0,3.39-.25"/><path class="cls-27" d="M52.27,61.66a3.75,3.75,0,0,0-1.17-2c-.27-.27-.86,0-.41.48.22.22.22.5.11.41-.92-.78-1.11-1.28-1.63-1.22s-1,1.31-.27,1.94a13.61,13.61,0,0,0,2.64,1.5Z"/><path class="cls-36" d="M18.49.3a2.33,2.33,0,1,1-.87,3.17A2.33,2.33,0,0,1,18.49.3"/><polygon class="cls-37" points="16.82 33.78 24.05 38.32 24.59 81.01 23.15 82 21.73 81.68 17.63 53.62 14.29 35.5 16.82 33.78"/><path class="cls-37" d="M2.14,75.63A47.55,47.55,0,0,1,11,61S10,58.17,8.86,48.77a22.24,22.24,0,0,1,3.5-15.32l8.1,2.43s-4.12,24.65-4.79,26.21c-.52,1.23-7.11,10.06-9.95,13.83V76L4.44,77.62,3.23,79.16,1.8,78.52l-.26-1.79Z"/><path class="cls-38" d="M24.05,37.72S26,52.21,25.74,63A67.33,67.33,0,0,1,13,63.78l-.23-6.19-1.16,5.85S9,63.32,7.75,62.34A80.46,80.46,0,0,0,8.27,51.4c-.22-4.76,0-10.74,1.55-14.71s10.26.38,10.26.38Z"/><path class="cls-38" d="M14.26,1.22A6.76,6.76,0,0,0,12.09,4.3c-.43,1.54-2.33,1.27-3.52,3.33-1.32,2.28-3.21,5.7,1.11,8,2.68,1.43,7,2.53,7.91,1.57s3.28-.58,2.76-10.74c0,0-6.31-3.57-6.37-3.59a13.07,13.07,0,0,1,.28-1.66"/><path class="cls-39" d="M22.66,30.3,21.89,27l1.92-5.15a60.16,60.16,0,0,0,2.63,7.74l5.78.7,1.23.23S25.52,35,23.37,31.7l-.37.08-.2-.88a2.73,2.73,0,0,1-.28-.6Z"/><polygon class="cls-37" points="15.29 12.31 15.45 14.75 18.77 15.44 19.36 15.44 19.24 12.52 15.71 11.28 15.29 12.31"/><path class="cls-37" d="M20.51,16.22c.15,1.64-.53,1.94-.53,1.94l-5-3.72c3.11.3,5.13.64,5.13.64s.26,1.18.42,1.14"/><path class="cls-38" d="M12.17,7s-1-4.21,1.42-5.79a6.68,6.68,0,0,1,6.8-.45c1.76.94,2.81,4.23,2,6.11L16.56,5.09Z"/><path class="cls-40" d="M15.22,11.67s.07.71.13,1.6c1.27,1.38,3.64.91,4,.77,0-.44,0-1.34,0-1.34Z"/><path class="cls-40" d="M21.65,7.63A1,1,0,0,0,22.1,9a1,1,0,0,0,1.19-.72,1,1,0,0,0-.44-1.33,1,1,0,0,0-1.2.73"/><path class="cls-37" d="M21.61,10.9a5.32,5.32,0,0,0,.32-.78A8.57,8.57,0,0,0,22.32,8c0-.14,0-.28.05-.43a4.56,4.56,0,0,0-.1-1.79,4.66,4.66,0,0,0-9.18,1.31,1,1,0,0,0-.92,0,1.26,1.26,0,0,0-.38,1.71,1.26,1.26,0,0,0,1.59.75.56.56,0,0,0,.2-.14,4.38,4.38,0,0,0,4.49,3.86,4.14,4.14,0,0,0,2.8-1.28l.15-.15a4.23,4.23,0,0,0,.59-.86"/><path class="cls-41" d="M9.53,21.69a3.46,3.46,0,0,0,.55-.76,4.11,4.11,0,0,0,.21-.42c.06-.15.11-.3.16-.45a4.52,4.52,0,0,1-.11.47,2,2,0,0,1-.08.22,1.47,1.47,0,0,1-.1.22,2.86,2.86,0,0,1-.24.42,3.76,3.76,0,0,1-.25.31l.25,0a2.06,2.06,0,0,0,.35,0l.17,0,.17-.05a1.82,1.82,0,0,0,.31-.16,1.21,1.21,0,0,1-.3.2,1.7,1.7,0,0,1-.34.12,2.2,2.2,0,0,1-.36,0,2.52,2.52,0,0,1-.37,0l-.09,0Z"/><path class="cls-42" d="M10.32,28.65h0c-.59-3.33-.85-6.9-.85-6.9,0-.82.94-1.95,1-2.6a3.1,3.1,0,0,0,1-1.23l1.45-3,1-.47a5,5,0,0,1,1.12,0l2.49,1.88a1.61,1.61,0,0,0,2.58-1.23h0c2.18,1.75,3.65,2.54,4,5.35.21,2-.86,3.62-1,5.49l1,11.8a89.28,89.28,0,0,1-14.23-1,49.76,49.76,0,0,0,.5-8"/><path class="cls-38" d="M24.73,37.2l8.6.52a1.46,1.46,0,0,0,1.34-.78l4.52-10.46a.62.62,0,0,0-.62-.9L30,25.06a1.46,1.46,0,0,0-1.35.78L24.11,36.3c-.2.46.08.86.62.9"/><path class="cls-43" d="M32.52,25.74l2.93.18a.65.65,0,0,0,.58-.34l.08-.19a.27.27,0,0,0-.27-.38l-2.93-.18a.65.65,0,0,0-.58.34l-.08.18a.27.27,0,0,0,.27.39"/><path class="cls-38" d="M12.49,6.43l.11,0,.08-.91.41-.84s1.59-2.27,1.65-2.33,1.28-.79,1.35-.82,1.78.24,1.78.24,3-.65,2.5,1a4.31,4.31,0,0,1-2.82,2.48A3,3,0,0,0,18,3.81a15.06,15.06,0,0,1-4.86,3.24,1,1,0,0,0-.92,0Z"/><path class="cls-37" d="M8.83,22.58s1.22-6.71,5-8.11a1.56,1.56,0,0,1,2.1,1.45c0,1.54-4.74,13-4.25,13.56.66.8,12.84,3.68,13.25,3.77l1.45-.14A18.49,18.49,0,0,1,28.88,33c.1.12,0,.24-1.23.84a.11.11,0,0,0,0,.2,13.75,13.75,0,0,1,2.44,1.72c-.08.21-1.79-.8-1.95-.66s1.54,1.07,1.43,1.28-1.63-.7-1.71-.63,1.29,1.1,1.3,1.26-1.58-.75-1.7-.69.77,1.06.69,1.14.22.22-2.42-1.46c0,0-.65-.44-.89-.62,0,0-15.13-2.14-16.07-3.34-1.74-2.22.07-9.42.07-9.42"/><path class="cls-39" d="M8.83,22.58s1.22-6.71,5-8.11a1.56,1.56,0,0,1,2.1,1.45c0,1.54-4.74,13-4.25,13.56.66.8,12.84,3.68,13.25,3.77h0a17.69,17.69,0,0,1-.54,2C21.89,34.91,9.61,33.08,8.76,32c-1.74-2.22.07-9.42.07-9.42"/><path class="cls-37" d="M27.29,82l-3-1.85-2.58,1.56.9.64,3.13.45s1.22-.16,1.27-.2a3.3,3.3,0,0,0,.26-.6"/><path class="cls-37" d="M3.7,81.57l.08-3.67L1.23,76.57l-.12,1.1,1.14,3s.74,1,.79,1a4.05,4.05,0,0,0,.66-.07"/><path class="cls-44" d="M3.7,81.57l-.06.9a.41.41,0,0,1-.77.18l-2.82-5a.37.37,0,0,1,.14-.5l1-.59c.82,3.92,1.79,4.89,2.47,5"/><path class="cls-44" d="M27.22,81.92l.76.49a.41.41,0,0,1-.22.76L22,83.2a.37.37,0,0,1-.36-.37V81.64c3.81,1.19,5.13.82,5.55.28"/></g></g></g></svg>