<svg xmlns="http://www.w3.org/2000/svg" viewBox="0 0 169.19 169.19"><defs><style>.cls-1{fill:#218400;}.cls-2{fill:#fff;}</style></defs><g id="Capa_2" data-name="Capa 2"><g id="Capa_1-2" data-name="Capa 1"><path class="cls-1" d="M109.76,160.36a7.78,7.78,0,0,1-.06-3.42A76.54,76.54,0,0,1,8.12,80.59,5.92,5.92,0,0,0,4.54,78.9,6,6,0,0,0,.1,80.35a84.61,84.61,0,0,0,97.54,87.81,85.72,85.72,0,0,0,14.59-3.61,8.27,8.27,0,0,1-2.47-4.19"/><path class="cls-1" d="M134.91,22.22a7,7,0,0,1-3.06,2.09,76.56,76.56,0,0,1-19.77,131.76,6.13,6.13,0,0,0-.36,3.83,6.35,6.35,0,0,0,2.76,3.84A84.6,84.6,0,0,0,136.61,17.91a7.32,7.32,0,0,1-1.7,4.31"/><path class="cls-1" d="M4.72,76.88a7.65,7.65,0,0,1,3.56,1.25A76.57,76.57,0,0,1,129.74,22.71a5.19,5.19,0,0,0,4.73-6.42h0A84.62,84.62,0,0,0,.26,77.8a8,8,0,0,1,4.46-.92"/><path class="cls-1" d="M10.58,84.6a74,74,0,1,0,74-74,74,74,0,0,0-74,74"/><path class="cls-2" d="M104,55.59h-.2a2,2,0,0,1-1.76-2.17c0-.44.07-.88.07-1.34a14.12,14.12,0,0,0-.31-2.92,13.75,13.75,0,0,0-2.63-5.58,13.53,13.53,0,0,0-3.67-3.29,13.81,13.81,0,0,0-21,11.79q0,.66.06,1.29a2,2,0,0,1-3.94.36c-.05-.54-.07-1.09-.07-1.65a17.77,17.77,0,0,1,27-15.16,17.75,17.75,0,0,1,8.5,15.16,16.76,16.76,0,0,1-.08,1.74,2,2,0,0,1-2,1.78"/><path class="cls-2" d="M117.77,134.85h-12.7l-3-12.21a27.24,27.24,0,0,1-3.13.18H80.45a27.07,27.07,0,0,1-3.12-.18l-3,12.21H61.64l-3.23-21.22a83.43,83.43,0,0,1-7.17-8.18H46.83A9.42,9.42,0,0,1,37.42,96V85.61a9.42,9.42,0,0,1,9.41-9.41h3.58A35.63,35.63,0,0,1,57,66.73L52.13,55c-.57-1.59.19-4.06,1-5.17a2.67,2.67,0,0,1,2.21-1.27,2.3,2.3,0,0,1,1.06.25L73,57.2a28.34,28.34,0,0,1,7.46-1H99c15.64,0,33.14,14.36,33.14,33.57v.65c0,8.65-3.73,16.47-11.1,23.23Zm-9.6-3.95h6.21l2.93-19.26.53-.47c6.94-6.18,10.31-13,10.31-20.77v-.65c0-17-15.41-29.62-29.19-29.62H80.45a24.85,24.85,0,0,0-7.09,1.07l-.28.08h-.75l-.44-.21L56,53a4.27,4.27,0,0,0-.12.66l5.84,14-1,.93A31.56,31.56,0,0,0,53.51,79L53,80.15H46.83a5.47,5.47,0,0,0-5.46,5.46V96a5.47,5.47,0,0,0,5.46,5.46h6.36l.59.78a83.91,83.91,0,0,0,7.79,8.89l.53.47L65,130.9h6.21l3.12-12.77,1.84.35a23.17,23.17,0,0,0,4.25.39H99a23.17,23.17,0,0,0,4.25-.39l1.84-.35Z"/><path class="cls-2" d="M62.52,79.79h0a2,2,0,0,1-2-2v-.48a2,2,0,0,1,2-2h0a2,2,0,0,1,2,2v.48a2,2,0,0,1-2,2"/></g></g></svg>