<svg xmlns="http://www.w3.org/2000/svg" viewBox="0 0 65.59 59.77"><defs><style>.cls-1{fill:#218400;}</style></defs><g id="Capa_2" data-name="Capa 2"><g id="Capa_1-2" data-name="Capa 1"><path class="cls-1" d="M55.66,59.77h-8.8L44.8,51.32a19.73,19.73,0,0,1-2.17.12H29.81a19.59,19.59,0,0,1-2.17-.12l-2.06,8.45h-8.8l-2.24-14.7a59.23,59.23,0,0,1-5-5.66H6.51A6.53,6.53,0,0,1,0,32.89V25.66a6.53,6.53,0,0,1,6.51-6.52H9a24.92,24.92,0,0,1,4.57-6.56L10.18,4.46A4.73,4.73,0,0,1,10.86.88,1.87,1.87,0,0,1,12.39,0a1.59,1.59,0,0,1,.74.18L24.64,6a19.69,19.69,0,0,1,5.17-.71H42.63c10.84,0,23,10,23,23.26V29c0,6-2.59,11.41-7.69,16.1ZM49,57h4.3l2-13.34.37-.33c4.81-4.28,7.15-9,7.15-14.39v-.45C62.86,16.79,52.18,8,42.63,8H29.81a17.33,17.33,0,0,0-4.92.74l-.19.06h-.52l-.3-.15-11-5.56a1.78,1.78,0,0,0-.08.46l4,9.68-.67.65a21.69,21.69,0,0,0-5,7.16l-.35.83H6.51a3.78,3.78,0,0,0-3.77,3.78v7.23a3.78,3.78,0,0,0,3.77,3.78h4.41l.41.54a57.32,57.32,0,0,0,5.4,6.16l.37.33,2,13.34h4.3l2.16-8.85,1.27.24a16.11,16.11,0,0,0,2.95.28H42.63a16.2,16.2,0,0,0,2.95-.28l1.27-.24Z"/><path class="cls-1" d="M17.38,21.63h0A1.36,1.36,0,0,1,16,20.25v-.33a1.36,1.36,0,0,1,1.37-1.36h0a1.37,1.37,0,0,1,1.36,1.38v.33a1.36,1.36,0,0,1-1.37,1.36"/></g></g></svg>