<svg xmlns="http://www.w3.org/2000/svg" viewBox="0 0 37.39 37.39"><defs><style>.cls-1{fill:#218400;}</style></defs><g id="Capa_2" data-name="Capa 2"><g id="Capa_1-2" data-name="Capa 1"><path class="cls-1" d="M37.39,18.69A18.7,18.7,0,1,1,18.72,0,18.73,18.73,0,0,1,37.39,18.69m-2.65,0a16,16,0,1,0-16,16.05,16.09,16.09,0,0,0,16-16"/><path class="cls-1" d="M17.49,8.24h2.67a13.23,13.23,0,0,1,0,1.41c-.06.5.12.71.61.84A8.31,8.31,0,0,1,24,12.17l-1.59,1.9A29,29,0,0,0,19.66,13a3,3,0,0,0-3.39,1.15,1.4,1.4,0,0,0,.82,2.44c.84.2,1.7.3,2.54.46a8.9,8.9,0,0,1,3.66,1.37,4.66,4.66,0,0,1-.36,7.54,18.71,18.71,0,0,1-2.76,1.23v2H17.49c0-.61,0-1.22,0-1.82,0-.4-.12-.55-.5-.65a10.44,10.44,0,0,1-4.13-2.12l1.58-2c.87.45,1.69.94,2.56,1.3a5.19,5.19,0,0,0,3.68.22A2.2,2.2,0,0,0,22.1,23c.45-1,.5-2.25-.91-2.73-1.17-.38-2.4-.58-3.59-.89a10.84,10.84,0,0,1-2.19-.65,3.91,3.91,0,0,1-1.52-5.87,5.88,5.88,0,0,1,3.16-2.4.53.53,0,0,0,.45-.63c0-.5,0-1,0-1.57"/></g></g></svg>