<?xml version="1.0" encoding="utf-8"?>
<!-- Generator: Adobe Illustrator 25.0.0, SVG Export Plug-In . SVG Version: 6.00 Build 0)  -->
<svg version="1.1" id="Capa_1" xmlns="http://www.w3.org/2000/svg" xmlns:xlink="http://www.w3.org/1999/xlink" x="0px" y="0px"
	 viewBox="0 0 256 110" style="enable-background:new 0 0 256 110;" xml:space="preserve">
<style type="text/css">
	.st0{fill:#F7F7F7;}
	.st1{fill:#FF5000;}
	.st2{opacity:0.1;fill:none;stroke:#FFFFFF;stroke-width:22.3111;stroke-miterlimit:10;}
	.st3{opacity:0.1;fill:none;stroke:#FFFFFF;stroke-width:6.5821;stroke-miterlimit:10;}
	.st4{fill:none;}
	.st5{fill:none;stroke:#FFFFFF;stroke-width:1.1156;stroke-linecap:round;stroke-miterlimit:10;stroke-dasharray:3.3467;}
	.st6{fill:none;stroke:#FFFFFF;stroke-width:1.1156;stroke-linecap:round;stroke-miterlimit:10;}
	.st7{fill:#FFFFFF;}
</style>
<path class="st0" d="M171.5,78.3c13.4-23.3,29.8-44.1,50.6-61.4c5.7-4.7,12-5.4,17.7-2.2c5.3,3,8.5,8.8,7.2,15.1
	c-0.7,3.4-2.6,7.1-5.2,9.4"/>
<path class="st1" d="M228.7,109.3H2.1V26.4C2.1,12,13.8,0.3,28.3,0.3h226.5v82.9C254.8,97.6,243.1,109.3,228.7,109.3z"/>
<path class="st2" d="M240.3,190.9c38,0,68.9-30.8,68.9-68.9s-30.8-68.9-68.9-68.9s-68.9,30.8-68.9,68.9S202.3,190.9,240.3,190.9"/>
<path class="st2" d="M16.6-80.4c-38,0-68.9,30.8-68.9,68.9"/>
<path class="st2" d="M-52.3-11.5c0,38,30.8,68.9,68.9,68.9s68.9-30.8,68.9-68.9S54.6-80.4,16.6-80.4"/>
<circle class="st3" cx="105" cy="129.4" r="40.6"/>
<path class="st3" d="M193.4-59.5c-22.4,0-40.6,18.2-40.6,40.6s18.2,40.6,40.6,40.6s40.6-18.2,40.6-40.6S215.9-59.5,193.4-59.5"/>
<path id="XMLID_9_" class="st4" d="M228.7,109.8H2.1V26.9c0-14.4,11.7-26.1,26.1-26.1h226.5v82.9
	C254.8,98.1,243.1,109.8,228.7,109.8z"/>
<line class="st5" x1="23.5" y1="99.7" x2="23.5" y2="12"/>
<line class="st5" x1="235.9" y1="12" x2="235.9" y2="99.7"/>
<line class="st6" x1="48.3" y1="16.6" x2="210.2" y2="16.6"/>
<line class="st6" x1="48.3" y1="96.3" x2="210.2" y2="96.3"/>
<g>
	<g>
		<path class="st7" d="M138.2,84.5c-0.1-0.5-0.1-0.9,0-1.3c-8.9,3.1-19.1,1.9-27.3-4.1c-8.4-6.1-12.7-15.9-12.2-25.6
			c-0.3-0.3-0.8-0.6-1.4-0.7c-0.6-0.1-1.2,0.2-1.7,0.6c-0.1,2.2,0,4.5,0.4,6.7c1.4,8.7,6,16.3,13.1,21.5c7.1,5.2,15.8,7.3,24.4,5.9
			c1.9-0.3,3.8-0.8,5.7-1.4C138.7,85.7,138.4,85.1,138.2,84.5z"/>
		<path class="st7" d="M148,30.8c-0.4,0.4-0.8,0.7-1.2,0.8c12.6,9.8,15.2,28,5.7,41c-3.5,4.8-8.2,8.2-13.4,10.2
			c-0.2,0.4-0.3,0.9-0.1,1.5c0.1,0.6,0.5,1.1,1.1,1.5c5.9-2.2,11.1-6.1,14.9-11.4c5.2-7.1,7.3-15.8,5.9-24.4
			c-1.3-8.3-5.6-15.7-12.3-20.8C148.6,29.8,148.4,30.3,148,30.8z"/>
		<path class="st7" d="M97.4,52.1c0.6,0.1,1,0.2,1.4,0.5c0.4-5.3,2.3-10.5,5.6-15c9.7-13.3,28.3-16.2,41.6-6.5c0.4,0,1-0.2,1.4-0.7
			c0.4-0.5,0.6-1.2,0.4-1.8c0,0,0,0,0,0c-7.1-5.2-15.8-7.3-24.4-5.9c-8.7,1.4-16.3,6-21.5,13.1c-3.6,5-5.8,10.7-6.2,16.7
			C96.2,52.1,96.8,52,97.4,52.1z"/>
	</g>
	<g>
		<g>
			<g>
				<path class="st7" d="M136.4,38.9C136.4,38.9,136.4,38.9,136.4,38.9c-0.6-0.1-1-0.5-0.9-1c0-0.2,0-0.4,0-0.6c0-0.5,0-0.9-0.1-1.4
					c-0.2-1-0.6-1.9-1.3-2.7c-0.5-0.6-1.1-1.2-1.8-1.6c-1-0.6-2.2-1-3.5-1c-3.6,0-6.6,3-6.6,6.6c0,0.2,0,0.4,0,0.6
					c0,0.5-0.3,1-0.9,1c-0.5,0-1-0.3-1-0.9c0-0.3,0-0.5,0-0.8c0-4.7,3.8-8.5,8.5-8.5c1.6,0,3.1,0.4,4.4,1.2c0.9,0.5,1.6,1.2,2.3,2
					c0.8,1,1.3,2.2,1.6,3.4c0.1,0.6,0.2,1.2,0.2,1.8c0,0.3,0,0.6,0,0.8C137.3,38.5,136.9,38.9,136.4,38.9z"/>
			</g>
			<g>
				<path class="st7" d="M143,76.8h-6.1l-1.4-5.8c-0.5,0.1-1,0.1-1.5,0.1h-8.9c-0.5,0-1,0-1.5-0.1l-1.4,5.8h-6.1l-1.5-10.2
					c-1.3-1.2-2.8-3.1-3.4-3.9H109c-2.5,0-4.5-2-4.5-4.5v-5c0-2.5,2-4.5,4.5-4.5h1.7c0.8-1.6,1.9-3.2,3.2-4.5l-2.3-5.6
					c-0.3-0.8,0.1-1.9,0.5-2.5c0.4-0.5,0.8-0.6,1.1-0.6c0.2,0,0.4,0,0.5,0.1l8,4c1.2-0.3,2.4-0.5,3.6-0.5h8.9
					c7.5,0,15.9,6.9,15.9,16.1v0.3c0,4.1-1.8,7.9-5.3,11.1L143,76.8z M138.4,74.9h3l1.4-9.2l0.3-0.2c3.3-3,4.9-6.2,4.9-9.9v-0.3
					c0-8.1-7.4-14.2-14-14.2h-8.9c-1.1,0-2.3,0.2-3.4,0.5l-0.1,0h-0.4l-0.2-0.1l-7.6-3.8c0,0.1-0.1,0.2-0.1,0.3l2.8,6.7l-0.5,0.4
					c-1.5,1.4-2.7,3.1-3.5,4.9l-0.2,0.6h-3c-1.4,0-2.6,1.2-2.6,2.6v5c0,1.4,1.2,2.6,2.6,2.6h3l0.3,0.4c0,0,2.2,2.9,3.7,4.3l0.3,0.2
					l1.4,9.2h3l1.5-6.1l0.9,0.2c0.7,0.1,1.3,0.2,2,0.2h8.9c0.7,0,1.4-0.1,2-0.2l0.9-0.2L138.4,74.9z"/>
			</g>
			<g>
				<path class="st7" d="M116.6,50.5C116.5,50.5,116.5,50.5,116.6,50.5c-0.5,0-0.9-0.4-0.9-1l0-0.2c0-0.5,0.4-0.9,0.9-0.9
					c0,0,0,0,0,0c0.5,0,0.9,0.4,0.9,1l0,0.2C117.5,50,117.1,50.5,116.6,50.5z"/>
			</g>
		</g>
	</g>
</g>
</svg>
