<svg xmlns="http://www.w3.org/2000/svg" xmlns:xlink="http://www.w3.org/1999/xlink" viewBox="0 0 873.36 411.36"><defs><style>.cls-1{fill:none;}.cls-2{isolation:isolate;}.cls-3{opacity:0.2;}.cls-4{clip-path:url(#clip-path);}.cls-5{fill:#7f7f7f;}.cls-6{fill:#f7f7f7;}.cls-7{fill:#d3d3d3;}.cls-8{fill:#9a9a9a;}.cls-70,.cls-9{opacity:0.3;}.cls-10{clip-path:url(#clip-path-2);}.cls-11{fill:#393939;}.cls-12{clip-path:url(#clip-path-3);}.cls-13{fill:#1c1c1c;}.cls-14{clip-path:url(#clip-path-4);}.cls-15{fill:#6b6b6b;}.cls-16{clip-path:url(#clip-path-5);}.cls-17{fill:#fdfdfd;}.cls-18{fill:#929292;}.cls-19{clip-path:url(#clip-path-6);}.cls-20{clip-path:url(#clip-path-7);}.cls-21{clip-path:url(#clip-path-8);}.cls-22{fill:#eee;}.cls-23{opacity:0.1;}.cls-24{clip-path:url(#clip-path-9);}.cls-25{fill:#5c5c5c;}.cls-26{fill:#dbdbdb;}.cls-27{clip-path:url(#clip-path-10);}.cls-28{fill:#717171;}.cls-29{clip-path:url(#clip-path-11);}.cls-30{opacity:0.5;}.cls-31{clip-path:url(#clip-path-12);}.cls-32{fill:#e8e8e8;}.cls-33{clip-path:url(#clip-path-13);}.cls-34{fill:#555;}.cls-35{clip-path:url(#clip-path-14);}.cls-36{fill:#fff;}.cls-37{clip-path:url(#clip-path-16);}.cls-38{clip-path:url(#clip-path-17);}.cls-39{clip-path:url(#clip-path-18);}.cls-40{clip-path:url(#clip-path-19);}.cls-41{clip-path:url(#clip-path-20);}.cls-42{clip-path:url(#clip-path-21);}.cls-43{opacity:0.15;}.cls-44{clip-path:url(#clip-path-23);}.cls-45{fill:#4c4c4c;}.cls-46{clip-path:url(#clip-path-24);}.cls-47{fill:#1f1f1f;}.cls-48{fill:#f1f1f1;}.cls-49{clip-path:url(#clip-path-25);}.cls-50{fill:#333;}.cls-51{clip-path:url(#clip-path-26);}.cls-52{fill:#171717;}.cls-53{clip-path:url(#clip-path-27);}.cls-54{fill:#e4e4e4;}.cls-55{clip-path:url(#clip-path-28);}.cls-56{clip-path:url(#clip-path-29);}.cls-57{fill:#606060;}.cls-58{clip-path:url(#clip-path-30);}.cls-59{fill:#b1b1b1;}.cls-60{fill:#d7d7d7;}.cls-61{clip-path:url(#clip-path-31);}.cls-62{fill:#404040;}.cls-63{clip-path:url(#clip-path-32);}.cls-64{fill:#bfbfbf;}.cls-65{clip-path:url(#clip-path-33);}.cls-66{clip-path:url(#clip-path-34);}.cls-67{clip-path:url(#clip-path-35);}.cls-68{fill:#2d2d2d;}.cls-69{clip-path:url(#clip-path-36);}.cls-70{mix-blend-mode:multiply;}.cls-71{clip-path:url(#clip-path-37);}.cls-72{fill:#c4c4c4;}.cls-73{clip-path:url(#clip-path-38);}.cls-74{clip-path:url(#clip-path-39);}.cls-75{clip-path:url(#clip-path-40);}.cls-76{clip-path:url(#clip-path-41);}.cls-77{fill:#d0d0d0;}.cls-78{fill:#3ab56c;}.cls-79{fill:#96c3f2;}.cls-80{fill:#7aa7d6;}.cls-81{fill:#f8b797;}.cls-82{fill:#0b253f;}.cls-83{fill:#1f4c6b;}.cls-84{fill:#2b2b2b;}.cls-85{fill:#c0d9f2;}.cls-86{fill:#031c28;}.cls-87{fill:#d8d8d8;}.cls-88{fill:#700000;}.cls-89{fill:#037f4a;}.cls-90{fill:#8eafc1;}.cls-91{fill:#300901;}.cls-92{fill:#5e1c17;}.cls-93{fill:#a80000;}.cls-94{fill:#8ebdf4;}.cls-95{fill:#f2f5f9;}</style><clipPath id="clip-path" transform="translate(0 0)"><rect class="cls-1" width="221.68" height="294.17"/></clipPath><clipPath id="clip-path-2" transform="translate(0 0)"><rect class="cls-1" x="108.74" y="91.19" width="10.8" height="10.8"/></clipPath><clipPath id="clip-path-3" transform="translate(0 0)"><rect class="cls-1" x="98.66" y="57.55" width="32.04" height="23.01"/></clipPath><clipPath id="clip-path-4" transform="translate(0 0)"><rect class="cls-1" x="99.78" y="61.71" width="28.76" height="9.8"/></clipPath><clipPath id="clip-path-5" transform="translate(0 0)"><rect class="cls-1" x="99.77" y="62.48" width="28.77" height="9.02"/></clipPath><clipPath id="clip-path-6" transform="translate(0 0)"><rect class="cls-1" x="112.16" y="104.43" width="4.45" height="3.51"/></clipPath><clipPath id="clip-path-7" transform="translate(0 0)"><rect class="cls-1" x="113.61" y="105.99" width="4.96" height="16.62"/></clipPath><clipPath id="clip-path-8" transform="translate(0 0)"><rect class="cls-1" x="109.7" y="106.72" width="5.52" height="12.28"/></clipPath><clipPath id="clip-path-9" transform="translate(0 0)"><rect class="cls-1" x="90.16" y="127.5" width="49.94" height="28.43"/></clipPath><clipPath id="clip-path-10" transform="translate(0 0)"><rect class="cls-1" x="9.02" y="161.88" width="203.63" height="23.39"/></clipPath><clipPath id="clip-path-11" transform="translate(0 0)"><rect class="cls-1" x="9.02" y="161.88" width="203.63" height="57.14"/></clipPath><clipPath id="clip-path-12" transform="translate(0 0)"><rect class="cls-1" x="18.23" y="1.2" width="185.22" height="143.52"/></clipPath><clipPath id="clip-path-13" transform="translate(0 0)"><rect class="cls-1" x="19.43" y="1.2" width="4.57" height="143.52"/></clipPath><clipPath id="clip-path-14" transform="translate(0 0)"><rect class="cls-1" x="197.68" y="1.2" width="4.57" height="143.52"/></clipPath><clipPath id="clip-path-16" transform="translate(0 0)"><rect class="cls-1" x="226.11" width="221.68" height="294.17"/></clipPath><clipPath id="clip-path-17" transform="translate(0 0)"><rect class="cls-1" x="235.13" y="161.88" width="203.63" height="23.39"/></clipPath><clipPath id="clip-path-18" transform="translate(0 0)"><rect class="cls-1" x="235.13" y="161.88" width="203.63" height="57.14"/></clipPath><clipPath id="clip-path-19" transform="translate(0 0)"><rect class="cls-1" x="244.34" y="1.2" width="185.21" height="143.52"/></clipPath><clipPath id="clip-path-20" transform="translate(0 0)"><rect class="cls-1" x="245.54" y="1.2" width="4.57" height="143.52"/></clipPath><clipPath id="clip-path-21" transform="translate(0 0)"><rect class="cls-1" x="423.79" y="1.2" width="4.57" height="143.52"/></clipPath><clipPath id="clip-path-23" transform="translate(0 0)"><rect class="cls-1" x="587.79" y="14.46" width="285.57" height="275.87"/></clipPath><clipPath id="clip-path-24" transform="translate(0 0)"><rect class="cls-1" x="658.43" y="76.91" width="70.31" height="95.77"/></clipPath><clipPath id="clip-path-25" transform="translate(0 0)"><rect class="cls-1" x="682.06" y="61.06" width="17.15" height="12.31"/></clipPath><clipPath id="clip-path-26" transform="translate(0 0)"><rect class="cls-1" x="679.52" y="72.34" width="12.17" height="7.65"/></clipPath><clipPath id="clip-path-27" transform="translate(0 0)"><rect class="cls-1" x="691.35" y="72.03" width="10.87" height="7.96"/></clipPath><clipPath id="clip-path-28" transform="translate(0 0)"><rect class="cls-1" x="671.66" y="18.27" width="39.16" height="53.26"/></clipPath><clipPath id="clip-path-29" transform="translate(0 0)"><rect class="cls-1" x="670.63" y="14.46" width="42.28" height="53.19"/></clipPath><clipPath id="clip-path-30" transform="translate(0 0)"><rect class="cls-1" x="670.44" y="24.28" width="42.48" height="47.75"/></clipPath><clipPath id="clip-path-31" transform="translate(0 0)"><rect class="cls-1" x="596.69" y="142.35" width="267.77" height="20.45"/></clipPath><clipPath id="clip-path-32" transform="translate(0 0)"><rect class="cls-1" x="596.69" y="202.44" width="267.77" height="50.25"/></clipPath><clipPath id="clip-path-33" transform="translate(0 0)"><rect class="cls-1" x="596.69" y="177.38" width="267.77" height="66.57"/></clipPath><clipPath id="clip-path-34" transform="translate(0 0)"><rect class="cls-1" x="596.69" y="240.99" width="267.77" height="36.55"/></clipPath><clipPath id="clip-path-35" transform="translate(0 0)"><rect class="cls-1" x="596.69" y="136.82" width="267.77" height="112.56"/></clipPath><clipPath id="clip-path-36" transform="translate(0 0)"><rect class="cls-1" x="587.79" y="141.74" width="285.57" height="10.83"/></clipPath><clipPath id="clip-path-37" transform="translate(0 0)"><rect class="cls-1" x="587.79" y="139.11" width="285.57" height="13.46"/></clipPath><clipPath id="clip-path-38" transform="translate(0 0)"><rect class="cls-1" x="587.79" y="132.13" width="285.57" height="11.28"/></clipPath><clipPath id="clip-path-39" transform="translate(0 0)"><rect class="cls-1" x="587.79" y="132.13" width="285.57" height="9.33"/></clipPath><clipPath id="clip-path-40" transform="translate(0 0)"><rect class="cls-1" x="596.69" y="277.3" width="267.77" height="13.03"/></clipPath><clipPath id="clip-path-41" transform="translate(0 0)"><rect class="cls-1" x="598.47" y="119.56" width="71.88" height="12.57"/></clipPath></defs><g class="cls-2"><g id="Capa_2" data-name="Capa 2"><g id="Capa_1-2" data-name="Capa 1"><g class="cls-3"><g class="cls-4"><path class="cls-5" d="M102.46,102.69c-15.93,5.26-21.62,22.12-19,38.7s8.62,39.29,9.68,41.71,9.44-27.9,9.31-28.12,0-52.29,0-52.29" transform="translate(0 0)"/><path class="cls-5" d="M127.62,102.69c15.93,5.26,21.62,22.12,19,38.7s-8.62,39.29-9.68,41.71-9.44-27.9-9.31-28.12,0-52.29,0-52.29" transform="translate(0 0)"/><path class="cls-5" d="M104.35,102.14c-16.87,3.86-17,29.53-9.63,42.33,7.07,12.31-1.77,29.06-2.86,38.44s50,7.62,49,.3-11.82-21.47-4.55-39.9c13.46-34.11-5.71-47.16-31.94-41.17" transform="translate(0 0)"/><path class="cls-6" d="M122.86,101.38a43.93,43.93,0,0,0-16.25.34c-2.5,11,8.25,26.29,8.25,26.29s11.33-14.71,8-26.63" transform="translate(0 0)"/><path class="cls-7" d="M119.65,100.65c-.9-2.19-.56-6.85-.36-9.46l-10.55.26c1.23,3.58,2,7.53,1.41,9.44s1.82,2.73,4.52,2.69c3.25,0,5.88-.74,5-2.93" transform="translate(0 0)"/><path class="cls-8" d="M109.09,66.07c-6.19-1-9.58-14,4.82-15.47s11.48,14,6.62,15.32-11.15.15-11.15.15,5.91,1-.29,0" transform="translate(0 0)"/><path class="cls-7" d="M100.71,80.21c-2.68-3.16-3.65.26-2.29,3.25s.89,3.82,1.3,5.22,4.25,4,4.48-.35-3.32-8-3.32-8,2.51,3-.17-.13" transform="translate(0 0)"/><path class="cls-7" d="M128.75,79.87c2.8-3,3.63.42,2.16,3.35s-1,3.78-1.49,5.16-4.4,3.8-4.46-.54S128.57,80,128.57,80s-2.62,2.91.18-.13" transform="translate(0 0)"/><g class="cls-9"><g class="cls-10"><path class="cls-11" d="M108.74,91.45c1.14,3.32,1.82,6.89,1.47,8.92a8.47,8.47,0,0,0,3.94,1.6,8.78,8.78,0,0,0,5.4-1.79c-.72-2.32-.45-6.53-.26-9Z" transform="translate(0 0)"/></g></g><path class="cls-7" d="M112.74,56.48C98.05,56.88,98.18,74,98.91,81s8.92,19.36,15.24,19.86,14.6-10.11,16-18.15.93-26.76-17.46-26.27" transform="translate(0 0)"/><g class="cls-3"><g class="cls-12"><path class="cls-13" d="M98.86,80.56a19.93,19.93,0,0,1,4-9.68c3.18,1.94,8.45,2.68,14.22,1.75a18,18,0,0,0,8.17-3.09,19.82,19.82,0,0,1,5.23,11c.64-5.94,0-15-5.67-20.16a24.07,24.07,0,0,0-7.9-2.52c-6.27-1-10.6.59-13.12,2.09-5.46,5.3-5.44,15.31-5,20.59" transform="translate(0 0)"/></g></g><path class="cls-8" d="M98.78,80c-1.53-11.63-1.08-15.1,2.47-17.81s9.38-.52,3.5,5.06a19.52,19.52,0,0,0-6,12.75" transform="translate(0 0)"/><path class="cls-8" d="M130.6,80c1.52-11.63,1.08-15.1-2.48-17.81s-9.37-.52-3.5,5.06a19.5,19.5,0,0,1,6,12.75" transform="translate(0 0)"/><path class="cls-8" d="M101.2,60.43C96,68.11,105.53,73,117.1,71.1s11.44-8.46,11.44-8.46-1-4.54-11.61-6.29-15.73,4.08-15.73,4.08" transform="translate(0 0)"/><g class="cls-3"><g class="cls-14"><path class="cls-15" d="M117.26,67.85c-8.5,1.37-15.89-.9-17.14-5.26-2.19,6.4,6.55,10.2,17,8.51,11.56-1.86,11.44-8.46,11.44-8.46a4.42,4.42,0,0,0-.47-.93c-1,2.08-3.72,5-10.81,6.14" transform="translate(0 0)"/></g></g><g class="cls-3"><g class="cls-16"><path class="cls-17" d="M117.1,70.41c-9.15,1.47-17-1.27-17.32-6.28-.4,5.45,7.75,8.52,17.32,7,11.56-1.86,11.44-8.46,11.44-8.46l0-.16c-.26,1.6-1.82,6.38-11.39,7.93" transform="translate(0 0)"/></g></g><path class="cls-18" d="M117.13,105.52a2.29,2.29,0,1,1-2.22-1.76,2,2,0,0,1,2.22,1.76" transform="translate(0 0)"/><g class="cls-3"><g class="cls-19"><path class="cls-11" d="M116.6,106.19a2.28,2.28,0,1,1-2.22-1.76,2,2,0,0,1,2.22,1.76" transform="translate(0 0)"/></g></g><g class="cls-3"><g class="cls-20"><path class="cls-11" d="M116.33,122.21c-3.89-3.84-2.61-13.67-2.12-15.67s2.26,1.81,3.63,5.75a18.48,18.48,0,0,1,.09,9.88c-.36,1-1.6,0-1.6,0" transform="translate(0 0)"/></g></g><g class="cls-3"><g class="cls-21"><path class="cls-11" d="M113.35,107c-4.21,2.62-3.78,10.07-3.46,11.6s2.41-1.21,4.11-4.07a10.61,10.61,0,0,0,.94-7.4c-.28-.75-1.59-.13-1.59-.13" transform="translate(0 0)"/></g></g><path class="cls-18" d="M109.94,102c-.61-1-3.22-.34-3.34,1.15-.18,2.35,3,4.78,4.61,4.71,1,0,7,.73,7.72-.18.53-.63-3.92-3-4.19-3.22-.66-.61-3.33,0-4.8-2.46" transform="translate(0 0)"/><path class="cls-22" d="M110.1,101.12c-.61-1-3.22-.34-3.33,1.15-.19,2.35,3,4.78,4.6,4.71s4.2-2.8,3.54-3.4-3.34,0-4.81-2.46" transform="translate(0 0)"/><path class="cls-18" d="M119.28,102.08c.6-1,3.21-.34,3.33,1.15.18,2.36-3,4.79-4.6,4.71s-4-2.79-3.38-3.4,3.17,0,4.65-2.46" transform="translate(0 0)"/><path class="cls-22" d="M119.55,101.12c.6-1,3.22-.34,3.33,1.15.19,2.35-3,4.78-4.6,4.71s-4-2.8-3.38-3.4,3.18,0,4.65-2.46" transform="translate(0 0)"/><path class="cls-18" d="M116.85,121.54c-3.89-3.84-2.61-13.67-2.11-15.67s2.26,1.81,3.63,5.75a18.34,18.34,0,0,1,.08,9.88c-.36,1-1.6,0-1.6,0" transform="translate(0 0)"/><path class="cls-18" d="M113.88,106.29c-4.21,2.62-3.78,10.07-3.46,11.6s2.41-1.21,4.11-4.07a10.67,10.67,0,0,0,.94-7.4c-.28-.75-1.59-.13-1.59-.13" transform="translate(0 0)"/><g class="cls-23"><g class="cls-24"><path class="cls-25" d="M133.81,155.93a34.65,34.65,0,0,1,2.48-12.62,65,65,0,0,0,3.81-13.52c-7.9,4.65-20.82,5-25.68,5.08s-18.25-.4-24.26-7.37a39.12,39.12,0,0,0,4.56,17,21.45,21.45,0,0,1,2.69,10l1.49-.38c19.61-4.74,29.13.44,34.91,1.8" transform="translate(0 0)"/></g></g><path class="cls-26" d="M193.92,294.17H27.76A18.74,18.74,0,0,1,9,275.43V161.88H212.66V275.43a18.74,18.74,0,0,1-18.74,18.74" transform="translate(0 0)"/><g class="cls-3"><g class="cls-27"><rect class="cls-28" x="9.02" y="161.88" width="203.63" height="23.39"/></g></g><g class="cls-23"><g class="cls-29"><path class="cls-28" d="M9,218.09c54.48-45.63,145.67-28,203.64.93V161.88H9Z" transform="translate(0 0)"/></g></g><g class="cls-30"><g class="cls-31"><path class="cls-32" d="M18.23,6.78V139.14a5.58,5.58,0,0,0,5.59,5.58H72.63a5.45,5.45,0,0,0,5-3,36.55,36.55,0,0,1,66.48,0,5.45,5.45,0,0,0,5,3h48.81a5.58,5.58,0,0,0,5.59-5.58V6.78a5.58,5.58,0,0,0-5.59-5.58h-174a5.58,5.58,0,0,0-5.59,5.58" transform="translate(0 0)"/></g></g><path class="cls-26" d="M216.16,172.81H5.52A5.52,5.52,0,0,1,0,167.29V153.41a5.52,5.52,0,0,1,5.52-5.52H216.16a5.52,5.52,0,0,1,5.52,5.52v13.88a5.52,5.52,0,0,1-5.52,5.52" transform="translate(0 0)"/><g class="cls-3"><g class="cls-33"><path class="cls-34" d="M19.43,3.49V142.43a5.47,5.47,0,0,0,4.39,2.29H24V1.2h-.17a5.49,5.49,0,0,0-4.39,2.29" transform="translate(0 0)"/></g></g><path class="cls-26" d="M21.78,160.71H19.25a1,1,0,0,1-1-1V1a1,1,0,0,1,1-1h2.53a1,1,0,0,1,1,1V159.7a1,1,0,0,1-1,1" transform="translate(0 0)"/><g class="cls-3"><g class="cls-35"><path class="cls-34" d="M202.25,3.49V142.43a5.45,5.45,0,0,1-4.39,2.29h-.17V1.2h.17a5.48,5.48,0,0,1,4.39,2.29" transform="translate(0 0)"/></g></g><path class="cls-26" d="M199.9,160.71h2.53a1,1,0,0,0,1-1V1a1,1,0,0,0-1-1H199.9a1,1,0,0,0-1,1V159.7a1,1,0,0,0,1,1" transform="translate(0 0)"/><g class="cls-9"><g class="cls-31"><path class="cls-36" d="M203.45,39.43,104.2,121a36.1,36.1,0,0,1,39.88,20.68,5.45,5.45,0,0,0,5,3h3l51.36-29.54Z" transform="translate(0 0)"/><path class="cls-36" d="M197.86,1.2H128.27l-110,121.73v16.21a5.58,5.58,0,0,0,5.59,5.58H36.71l163.46-143a5.44,5.44,0,0,0-2.31-.53" transform="translate(0 0)"/></g></g></g></g><g class="cls-3"><g class="cls-37"><path class="cls-26" d="M420,294.17H253.87a18.74,18.74,0,0,1-18.74-18.74V161.88H438.77V275.43A18.74,18.74,0,0,1,420,294.17" transform="translate(0 0)"/><g class="cls-3"><g class="cls-38"><rect class="cls-28" x="235.13" y="161.88" width="203.63" height="23.39"/></g></g><g class="cls-23"><g class="cls-39"><path class="cls-28" d="M235.13,218.09c54.48-45.63,145.67-28,203.64.93V161.88H235.13Z" transform="translate(0 0)"/></g></g><g class="cls-30"><g class="cls-40"><path class="cls-32" d="M244.34,6.78V139.14a5.58,5.58,0,0,0,5.59,5.58h48.81a5.45,5.45,0,0,0,5-3,36.55,36.55,0,0,1,66.48,0,5.45,5.45,0,0,0,5,3H424a5.58,5.58,0,0,0,5.59-5.58V6.78A5.58,5.58,0,0,0,424,1.2h-174a5.58,5.58,0,0,0-5.59,5.58" transform="translate(0 0)"/></g></g><path class="cls-26" d="M442.27,172.81H231.63a5.52,5.52,0,0,1-5.52-5.52V153.41a5.52,5.52,0,0,1,5.52-5.52H442.27a5.52,5.52,0,0,1,5.52,5.52v13.88a5.52,5.52,0,0,1-5.52,5.52" transform="translate(0 0)"/><g class="cls-3"><g class="cls-41"><path class="cls-34" d="M245.54,3.49V142.43a5.47,5.47,0,0,0,4.39,2.29h.18V1.2h-.18a5.49,5.49,0,0,0-4.39,2.29" transform="translate(0 0)"/></g></g><path class="cls-26" d="M247.89,160.71h-2.53a1,1,0,0,1-1-1V1a1,1,0,0,1,1-1h2.53a1,1,0,0,1,1,1V159.7a1,1,0,0,1-1,1" transform="translate(0 0)"/><g class="cls-3"><g class="cls-42"><path class="cls-34" d="M428.36,3.49V142.43a5.47,5.47,0,0,1-4.39,2.29h-.18V1.2H424a5.49,5.49,0,0,1,4.39,2.29" transform="translate(0 0)"/></g></g><path class="cls-26" d="M426,160.71h2.53a1,1,0,0,0,1-1V1a1,1,0,0,0-1-1H426a1,1,0,0,0-1,1V159.7a1,1,0,0,0,1,1" transform="translate(0 0)"/><g class="cls-9"><g class="cls-40"><path class="cls-36" d="M429.56,39.43,330.31,121a36.1,36.1,0,0,1,39.88,20.68,5.45,5.45,0,0,0,5,3h3l51.36-29.54Z" transform="translate(0 0)"/><path class="cls-36" d="M424,1.2H354.38l-110,121.73v16.21a5.58,5.58,0,0,0,5.59,5.58h12.89l163.46-143A5.44,5.44,0,0,0,424,1.2" transform="translate(0 0)"/></g></g></g></g><g class="cls-43"><g class="cls-44"><path class="cls-45" d="M665.59,78.68c-26.55,19.55-9.26,57-9.26,57s22.38-6,22.76-7.4S670,75.48,665.59,78.68" transform="translate(0 0)"/><path class="cls-45" d="M719.19,75.61c26.55,19.54,9.84,60,9.84,60s-22.38-6-22.75-7.4,8.56-55.85,12.91-52.64" transform="translate(0 0)"/><path class="cls-45" d="M667.79,77.16c-18,10.89-5.15,36.31-1.58,50.29s-1.24,30.27-2.14,37.22,69.44,14.29,64.53-.9-8.6-34.48-5.32-47.46,7.94-28.45,0-37.61-39.63-11.13-55.46-1.54" transform="translate(0 0)"/><g class="cls-3"><g class="cls-46"><path class="cls-47" d="M669.64,160c.89-6.94,5.71-23.25,2.14-37.22-3.16-12.34-13.49-33.58-3.51-45.88-.15.09-.33.16-.48.25-18,10.89-5.15,36.31-1.58,50.29s-1.25,30.27-2.14,37.22c-.85,6.59,62.55,13.54,64.67,1.19-15.89,5.39-59.81-.35-59.1-5.85" transform="translate(0 0)"/></g></g><path class="cls-48" d="M679.72,72.59C675.54,83,693.39,104.7,693.39,104.7s14.33-21.63,7.84-33.61a72.22,72.22,0,0,0-21.51,1.5" transform="translate(0 0)"/><path class="cls-7" d="M682.06,61.11c3,3.79,2.68,6.27,1.48,10.49-.28,1,3.49,3,7.36,3.19s7.81-1.57,7.61-2.78c-.39-2.42.06-8.67.68-10.11s-17.13-.79-17.13-.79" transform="translate(0 0)"/><g class="cls-9"><g class="cls-49"><path class="cls-50" d="M697.34,73.37c.78-.45,1.24-.94,1.17-1.36-.39-2.42.06-8.67.68-10.11.16-.37-.85-.6-2.44-.74-4.37,4.84-11.09,5.2-12.38,2.33a25.72,25.72,0,0,1-.92-2.43l-1.39,0c2.68,3.41,2.7,5.78,1.81,9.28,3.46,2,8,2.68,13.47,3" transform="translate(0 0)"/></g></g><g class="cls-23"><g class="cls-51"><path class="cls-52" d="M683.8,72.81c-1.13-1-3.57-.26-4.23.69s5.56,6,7.58,6.46,4.85-3.76,4.51-4.26-6.66-1.84-7.86-2.89" transform="translate(0 0)"/></g></g><g class="cls-23"><g class="cls-53"><path class="cls-52" d="M698.3,72.44c1.13-1,3.2,0,3.86.93s-4.25,6.18-6.27,6.59S691,76.2,691.38,75.7s5.72-2.21,6.92-3.26" transform="translate(0 0)"/></g></g><path class="cls-18" d="M693.86,78a2.38,2.38,0,1,1-2.37-2.37A2.37,2.37,0,0,1,693.86,78" transform="translate(0 0)"/><path class="cls-54" d="M683.93,71.88c-1.13-1-3.58-.26-4.23.68s5.55,6.06,7.57,6.47,4.86-3.76,4.51-4.26-6.65-1.85-7.85-2.89" transform="translate(0 0)"/><path class="cls-54" d="M698.43,71.51c1.12-1,3.2,0,3.86.93S698,78.62,696,79s-4.86-3.76-4.51-4.26,5.72-2.22,6.92-3.26" transform="translate(0 0)"/><path class="cls-7" d="M701.43,71.53c-6.33,0-16.46-2.06-19.66-5.07-2.13-2-10-22.8-10.11-31.51-.17-16.18,26.53-22.63,33.48-10.11,6.39,11.52,1.3,12.43,4.14,21.08s1,21.51.3,22.39-2.46,3.22-8.15,3.22" transform="translate(0 0)"/><g class="cls-9"><g class="cls-55"><path class="cls-50" d="M710.75,54.66c-3.34-2.12-8.88.24-11.81,4.84-4.16,6.53-12.34,7.29-13.78,4.1a30.3,30.3,0,0,1-2.39-13.79c.49-4.79,5.58-.74,5.45-4.51s-2.14-9.61,8-8.6c5.56.56,9.88,0,12.32-2.07-.14-2.36-.87-5.25-3.39-9.79-3-5.44-9.76-7.29-16.4-6.33-5.24,1.6-9.17,3.35-12,5.47a14.43,14.43,0,0,0-5.09,11c.09,8.71,8,29.51,10.11,31.51,3.2,3,13.33,5.08,19.66,5.07,5.69,0,7.44-2.34,8.15-3.22.48-.6,1.51-6.94,1.17-13.65" transform="translate(0 0)"/></g></g><path class="cls-50" d="M709.45,24.59c2.34,8.94-3.9,11.47-14,10.46s-8.11,4.83-8,8.6-5-.29-5.45,4.5A30.48,30.48,0,0,0,684.37,62c1.44,3.19,9.62,2.43,13.78-4.1s13.61-8.59,14.5.36c.57,5.7,1.4,14.18-10.86,13.81s-21.12-1.38-24-11-8.41-21.59-7.26-29.8,8.3-12.22,23.61-16,15.33,9.44,15.33,9.44" transform="translate(0 0)"/><g class="cls-9"><g class="cls-56"><path class="cls-57" d="M698.15,57.85c-4.16,6.53-12.34,7.29-13.78,4.1a31.2,31.2,0,0,1-2.44-12.76,2.79,2.79,0,0,0-.81,1.9,30.35,30.35,0,0,0,2.38,13.8c1.44,3.19,9.62,2.43,13.78-4.1s13.61-8.59,14.5.37a27.46,27.46,0,0,1,.11,6.49c1.4-2.82,1.05-6.5.76-9.44-.89-9-10.34-6.9-14.5-.36" transform="translate(0 0)"/><path class="cls-57" d="M693.25,18.09c15.31-3.81,15.33,9.44,15.33,9.44a12,12,0,0,1,.38,4.06c1-1.68,1.29-3.94.49-7,0,0,0-13.26-15.33-9.44-15,3.73-22.13,7.68-23.5,15.55,2.56-6,9.63-9.38,22.63-12.61" transform="translate(0 0)"/><path class="cls-57" d="M687.44,43.65c-.05-1.21-.28-2.63-.24-4-1.15,1.5-.9,3.69-.72,5.64.58-.19,1-.6,1-1.67" transform="translate(0 0)"/></g></g><g class="cls-9"><g class="cls-58"><path class="cls-52" d="M709.44,24.28c0,6.23-5.75,8-14.49,7.14-10.13-1-8.12,4.83-8,8.6s-5-.28-5.45,4.51A26,26,0,0,0,682,51.8a22.17,22.17,0,0,1,0-3.65c.48-4.79,5.58-.74,5.45-4.5s-2.15-9.62,8-8.6,16.37-1.52,14-10.46c0,0,0-.13,0-.31" transform="translate(0 0)"/><path class="cls-52" d="M712.65,58.21a10.79,10.79,0,0,0-.29-1.63c.41,5.48-.15,12.15-11,11.81-12.25-.37-21.12-1.38-24-11-2.1-7-5.54-15.17-6.86-22.27.53,7.82,4.86,17.67,7.33,25.89,2.9,9.66,11.77,10.66,24,11s11.42-8.12,10.86-13.81" transform="translate(0 0)"/></g></g><path class="cls-22" d="M702.51,57.54c.5-1.08,6.23-1.36,6.49-.94s-1.2,3-3.28,3.3-3.21-2.36-3.21-2.36" transform="translate(0 0)"/><path class="cls-7" d="M684.92,47.54l-.1-.18c-1.22-2-5.13-.66-4.64,2.48s.37,4.83,1.84,6.86,3-1.18,3-3,1-3.88-.1-6.16" transform="translate(0 0)"/><path class="cls-18" d="M693.39,104.7A77.16,77.16,0,0,0,698,96.39l-5-17.71-2.32.38-2.24,18.85c2.72,4,5,6.79,5,6.79" transform="translate(0 0)"/><path class="cls-59" d="M857.3,290.33H603.85a7.16,7.16,0,0,1-7.16-7.16V136.82H864.46V283.17a7.17,7.17,0,0,1-7.16,7.16" transform="translate(0 0)"/><path class="cls-60" d="M857.3,290.33H603.85a7.16,7.16,0,0,1-7.16-7.16V136.82H864.46V283.17a7.17,7.17,0,0,1-7.16,7.16" transform="translate(0 0)"/><g class="cls-3"><g class="cls-61"><path class="cls-62" d="M596.69,162.65a13,13,0,0,0,1.78.15h264.2a13,13,0,0,0,1.79-.15V142.49a13,13,0,0,0-1.79-.14H598.47a13,13,0,0,0-1.78.14Z" transform="translate(0 0)"/></g></g><polygon class="cls-18" points="596.69 241.64 596.69 252.69 864.46 204.43 864.46 177.38 596.69 241.64"/><g class="cls-3"><g class="cls-63"><polygon class="cls-64" points="596.69 252.69 864.46 204.43 864.46 202.44 596.69 250.71 596.69 252.69"/></g></g><g class="cls-9"><g class="cls-65"><polygon class="cls-34" points="596.69 241.64 596.69 243.95 864.46 179.7 864.46 177.38 596.69 241.64"/></g></g><path class="cls-18" d="M596.69,275.08V284c0,3.52,3.6,6.37,8,6.37H856.41c4.44,0,8.05-2.85,8.05-6.37V241Z" transform="translate(0 0)"/><g class="cls-9"><g class="cls-66"><polygon class="cls-34" points="596.69 275.08 596.69 277.54 864.46 243.45 864.46 240.99 596.69 275.08"/></g></g><g class="cls-23"><g class="cls-67"><path class="cls-68" d="M596.69,215.74c139.81-45.38,230.34,6,267.77,33.64V136.82H596.69Z" transform="translate(0 0)"/></g></g><path class="cls-60" d="M863.85,152.57H597.29a9.5,9.5,0,0,1-9.5-9.5v-1.44a9.5,9.5,0,0,1,9.5-9.5H863.85a9.5,9.5,0,0,1,9.51,9.5v1.44a9.5,9.5,0,0,1-9.51,9.5" transform="translate(0 0)"/><g class="cls-3"><g class="cls-69"><path class="cls-36" d="M862.67,150.19H598.47c-5.9,0-10.68-3.78-10.68-8.44v2.37c0,4.67,4.78,8.45,10.68,8.45h264.2c5.9,0,10.69-3.78,10.69-8.45v-2.37c0,4.66-4.79,8.44-10.69,8.44" transform="translate(0 0)"/></g></g><g class="cls-70"><g class="cls-71"><path class="cls-72" d="M862.67,146.1H598.47c-5.26,0-9.61-3-10.49-7a6.58,6.58,0,0,0-.19,1.47v3.54c0,4.67,4.78,8.45,10.68,8.45h264.2c5.9,0,10.69-3.78,10.69-8.45v-3.54a7.22,7.22,0,0,0-.19-1.47c-.88,4-5.23,7-10.5,7" transform="translate(0 0)"/></g></g><g class="cls-9"><g class="cls-73"><path class="cls-36" d="M862.67,132.13H598.47c-5.9,0-10.68,3.78-10.68,8.45v2.82c0-4.66,4.78-8.45,10.68-8.45h264.2c5.9,0,10.69,3.79,10.69,8.45v-2.82c0-4.67-4.79-8.45-10.69-8.45" transform="translate(0 0)"/></g></g><g class="cls-9"><g class="cls-74"><path class="cls-36" d="M862.67,132.13H598.47c-5.9,0-10.68,3.78-10.68,8.45v.87c0-4.66,4.78-8.45,10.68-8.45h264.2c5.9,0,10.69,3.79,10.69,8.45v-.87c0-4.67-4.79-8.45-10.69-8.45" transform="translate(0 0)"/></g></g><g class="cls-23"><g class="cls-75"><path d="M856.41,283.67H604.74c-4.45,0-8-2.86-8-6.37V284c0,3.52,3.6,6.37,8,6.37H856.41c4.44,0,8.05-2.85,8.05-6.37V277.3c0,3.51-3.61,6.37-8.05,6.37" transform="translate(0 0)"/></g></g><path class="cls-64" d="M758.81,52.74v67.44a4.12,4.12,0,0,0,4.42,4.11l73.62-1.86a4.13,4.13,0,0,0,3.83-4.11V61.26a4.12,4.12,0,0,0-3.65-4.1l-73.62-8.51a4.12,4.12,0,0,0-4.6,4.09" transform="translate(0 0)"/><path class="cls-60" d="M762.52,52.74v67.44a4.12,4.12,0,0,0,4.42,4.11l73.62-1.86a4.12,4.12,0,0,0,3.82-4.11V61.26a4.11,4.11,0,0,0-3.64-4.1l-73.63-8.51a4.12,4.12,0,0,0-4.59,4.09" transform="translate(0 0)"/><path class="cls-60" d="M799.3,95.89c-.52,1.63-5,36.24-5,36.24h33.85l-6.9-36.49Z" transform="translate(0 0)"/><path class="cls-64" d="M821.22,95.68v0l-21.91.25c-.52,1.63-5,36.24-5,36.24h3.64s4.53-34.61,5-36.24Z" transform="translate(0 0)"/><polygon class="cls-18" points="598.47 132.13 608.57 119.56 662.37 119.56 670.35 132.13 598.47 132.13"/><g class="cls-9"><g class="cls-76"><polygon class="cls-77" points="607.01 122.49 660.8 122.49 666.92 132.13 670.35 132.13 662.37 119.56 608.57 119.56 598.47 132.13 599.27 132.13 607.01 122.49"/></g></g></g></g><path class="cls-78" d="M561.55,239.46a16.1,16.1,0,0,1-16.11,16.1H377.9a16.11,16.11,0,0,1-16.12-16.1V186.83a16.12,16.12,0,0,1,16.12-16.11H545.44a16.11,16.11,0,0,1,16.11,16.11Z" transform="translate(0 0)"/><path class="cls-79" d="M603.05,350.9a1.56,1.56,0,0,1-1.57,1.56h-3.13a1.56,1.56,0,0,1-1.56-1.56V316.49a1.56,1.56,0,0,1,1.56-1.57h3.13a1.57,1.57,0,0,1,1.57,1.57Z" transform="translate(0 0)"/><path class="cls-80" d="M643.71,317.27a1.65,1.65,0,0,1-1.73,1.57H550a1.65,1.65,0,0,1-1.72-1.57V304.76A1.64,1.64,0,0,1,550,303.2h92a1.64,1.64,0,0,1,1.73,1.56Z" transform="translate(0 0)"/><rect class="cls-80" x="595.52" y="342.51" width="9.38" height="34.2"/><path class="cls-80" d="M595.26,369.83c-3.22,2.65-30.7,24-30.7,25.5V407.8h5.25V397.22l29.68-17.57V371Z" transform="translate(0 0)"/><path class="cls-80" d="M604.18,362.44c3.22,2.65,30.7,24,30.7,25.5v12.47h-5.26V389.83l-29.68-17.56v-8.69Z" transform="translate(0 0)"/><polygon class="cls-80" points="601.98 369.08 642.77 380.41 642.77 391.74 639.12 391.74 639.12 385.31 605.2 377.77 601.98 369.08"/><polygon class="cls-80" points="596.73 369.08 555.92 380.41 555.92 391.74 559.58 391.74 559.58 385.31 593.5 377.77 596.73 369.08"/><path class="cls-80" d="M648.21,273.5c-.29,9.09-6.66,16.19-14.21,15.84l-10-.45c-7.54-.34-13.42-8-13.13-17.08l1.81-54.89c.31-9.09,6.67-16.19,14.22-15.85l10,.46c7.55.34,13.44,8,13.14,17.08Z" transform="translate(0 0)"/><path class="cls-81" d="M520.65,287.48c-7.93,3.57-4.87,17.91-2.57,26.27,1.06,3.85,12.26,60.61,12.4,63.91.26,5.87-12.15,17.07-20.65,21.52,5.05,2.86,19.74-3.78,25.55-6.09,4.58-1.84,8.77,0,9.61-3,1.92-6.7-1.84-8.76-2.26-18.67s5.27-40.5-2.36-55.62c-4.66-9.25-3.16-22.67-4.4-25.93s-15.32-2.41-15.32-2.41" transform="translate(0 0)"/><path class="cls-82" d="M544.94,381.42c1,3.41,1.94,7.22.18,11.63-.83,2.05-1.13,8.13-1.13,8.13l-5.38.23-1.15-5.47a47.23,47.23,0,0,0-7.68,6.95c-.21.2-22.1,1-22.1,1s-.79-6.07,6.74-7.22c9.81-1.49,19.36-6.68,22-9.06a44.55,44.55,0,0,1,8.56-6.16" transform="translate(0 0)"/><path class="cls-81" d="M526.12,285.94c-8,7.4-7.48,20.06-1.63,37.48,1.31,3.91,10.29,54.91,10.43,58.34.25,6.1-12.63,17.7-21.45,22.31,5.24,3,20.47-3.9,26.5-6.3,4.75-1.89,9.1,0,10-3.08,2-6.95-1.9-9.08-2.32-19.37s2.56-41.61-5.34-57.31c-4.83-9.6-.31-23.93-1.6-27.31s-14.57-4.76-14.57-4.76" transform="translate(0 0)"/><path class="cls-83" d="M550.65,386.54c.93,3.55,1.88,7.53-.06,12.06-.9,2.12-1.33,8.42-1.33,8.42l-5.58.14-1.08-5.7s-3.39,1.13-8,5.91c-.21.22-22.95.57-22.95.57s-.86-5.16,7-6.21c10.22-1.35,20.23-6.54,23-9a46.59,46.59,0,0,1,9-6.22" transform="translate(0 0)"/><path class="cls-81" d="M587.67,160.21c8,6.89,7,24.28,3.8,31.33-2.08,4.56,5.17-6,12.88-9.12,6.78-2.73,7.58-3.61,12-4.31-2.65-3.58-6.53-22.54-3.42-32.66s-25.24,14.76-25.24,14.76" transform="translate(0 0)"/><path class="cls-81" d="M614.11,135c-1.89-15.75-12-20.73-24.51-19.23S571.09,127.2,573,143c.23,1.94.55,3.82.93,5.62a35.71,35.71,0,0,1-1.34,6.56c.06,1.37,2,1.72,4,1.79,3.54,8.16,9.43,13.18,17.82,12.17,12.53-1.5,21.66-18.31,19.78-34.08" transform="translate(0 0)"/><path class="cls-81" d="M614.42,135.05c-1.89-15.76-12.89-21.69-25.41-20.18-2.36.28,4.27,11,2.39,11.92,3.36,5.4,11.24,36.36-.74,42.33a16.05,16.05,0,0,0,4,0c12.53-1.5,21.67-18.32,19.78-34.07" transform="translate(0 0)"/><path d="M617.54,254.12c12.21,14.3,3.23,28.17-.06,39.13-5,16.57-78.75,27.5-78.75,27.5l-28-34.53,72.36-14.9,2.32-20.85Z" transform="translate(0 0)"/><path class="cls-84" d="M624.05,299.46c-11.57,12.86-81.12,27.41-81.12,27.41L520.21,305c6.57-5.48,76.82-21.74,83-30.61,3.29-4.75,8.74-13,3.59-19.9l13.28-.31c12.19,14.29,10.6,38,4,45.31" transform="translate(0 0)"/><path class="cls-85" d="M615.8,174.47l1-9.59L587.53,177.5l2.61,8.46s1.59-.6,14.28-7.75a35.33,35.33,0,0,1,11.38-3.74" transform="translate(0 0)"/><path class="cls-84" d="M261.46,187a9.48,9.48,0,0,0-7.59-7.15l-26.55-3.41c-3.51-.45-5.84,2-5.17,5.51L244.94,300a5.91,5.91,0,0,0,7.44,4.64L276,298.2a7.1,7.1,0,0,0,5-8Z" transform="translate(0 0)"/><polygon points="246.43 316.63 236 401.2 239.12 401.2 257.92 313.5 246.43 316.63"/><polygon points="337.78 316.11 344.06 395.72 340.94 395.72 326.3 312.98 337.78 316.11"/><rect x="245.1" y="301.05" width="98.72" height="18.79"/><polygon points="245.1 301.05 274.33 285.91 337.49 290.09 334.36 307.83 245.1 301.05"/><path d="M357.24,360.86c1.81,5.09.5,10.55-.21,17.41s-2.31,12,4.59,13.6,40.8.83,40.8.83,6.1-8.13-9.35-10.08c-12-1.51-18.23-12.15-17.87-22.15.08-2.56-18,.39-18,.39" transform="translate(0 0)"/><path d="M349.73,403.56l5.08-1.19s-4.55-5-5.29-4.85.21,6,.21,6" transform="translate(0 0)"/><path class="cls-86" d="M344.19,377.54c-.63,5.72-1.62,16.16.13,24,.53,2.37,5.5,1.92,5.5,1.92s-1.3-5.67,6.8,1.61c8.44,7.59,20.87,4.51,22.89,3.29s4.43-3.09-.41-7.68c-4.16-3.94-11.16-7.74-12.79-11.44s-2.1-15.38-2.1-15.38Z" transform="translate(0 0)"/><path class="cls-82" d="M326.82,273.48c68.37,3.4,68,21.29,67.19,29.34-3.41,34-7.91,72.11-7.91,72.11l-24.31.6s-8.33-48.74-.78-73.07c2.28-7.39-69.47-18.42-69.47-18.42Z" transform="translate(0 0)"/><path class="cls-83" d="M313.46,270.06c63.16,10.44,70.2,22.43,69.81,32.76-.78,20.62-11.28,80-11.28,80l-30.79-.52s1.28-38.62,8.59-70.46c1.08-4.73-74.41,4.61-77.68-21.38C269.69,271.25,283,249.6,283,249.6Z" transform="translate(0 0)"/><path class="cls-82" d="M279.44,210.54c3.48-22.87,5.53-28.57,9.79-35.63,4.9-8.08,10.14-10.49,15-14.13,0,0,11.06,3,16,9.31,1.37,1.73,8.23,7.56,9.61,9.89,3.63,6.08,6.05,23.88,6.6,40.39.75,22.86-2.57,68.49-2.57,68.49-40.2.67-67.41-3.22-66.59-5.91,12-39.67,5.9-31.17,12.16-72.41" transform="translate(0 0)"/><polygon class="cls-79" points="593.63 267 307.89 267 364.69 233.3 563.53 233.3 593.63 267"/><polygon class="cls-87" points="327.94 175.77 328.82 199.01 309.53 166.05 327.94 175.77"/><polygon class="cls-88" points="328.9 187.31 331.32 204.87 324.86 189.01 328.9 187.31"/><path class="cls-89" d="M385.88,240.73a.09.09,0,0,1-.11,0l-.51-.72a.08.08,0,0,1,0-.1l3-2.13s.08,0,.1,0l.51.71a.08.08,0,0,1,0,.1Z" transform="translate(0 0)"/><path d="M262.07,356.14a1.91,1.91,0,0,1-1.93-1.9L260,341.41a1.93,1.93,0,0,1,1.9-1.94l21.39-.21a1.91,1.91,0,0,1,1.93,1.89l.14,12.84a1.92,1.92,0,0,1-1.9,1.93Zm20.74-2.76-.12-11.57-20.13.21.12,11.57Z" transform="translate(0 0)"/><path d="M309.3,405.23a.83.83,0,0,1-.79.85l-70.47.71a.81.81,0,0,1-.79-.83l-.55-53.69a.82.82,0,0,1,.79-.84l70.46-.71a.82.82,0,0,1,.81.83Z" transform="translate(0 0)"/><path class="cls-84" d="M310.41,374.61a.83.83,0,0,1-.82.83l-73.24.75a.84.84,0,0,1-.84-.83l-.26-25.6a.84.84,0,0,1,.82-.85l73.24-.74a.82.82,0,0,1,.83.83Z" transform="translate(0 0)"/><polygon class="cls-90" points="279.11 379.9 266.92 380.02 266.87 374.26 279.05 374.13 279.11 379.9"/><rect class="cls-89" x="380.93" y="273.88" width="160.56" height="137.48"/><rect class="cls-36" x="308.04" y="266.71" width="285.74" height="13.98"/><path class="cls-91" d="M574.9,121.55c5.08-6,16.57-10.62,29.51-5.28,5.16.75,12,5.81,15.17,18.17,4.28,16.54,7.6,32.49,7.6,32.49s-14.9,5-18.86,6.44-21.86,4.17-26.1-.06c7.95-2.49,9-23,5.28-35.77-10-11.6-14.07-7.06-14.07-7.06s-3.38-3.2,1.47-8.93" transform="translate(0 0)"/><path class="cls-92" d="M604.83,116.25c5.15.75,12,5.81,15.16,18.17,4.29,16.55,7.61,32.49,7.61,32.49s-24.28,8.28-24.08,7.5c8.82-36.56,2.07-53.15-9.41-60.35,4.28.58,5.21-.08,10.72,2.19" transform="translate(0 0)"/><path class="cls-85" d="M479.79,185.22c1.43,0,9.82-.72,9.82-.72L508,241.34,499.13,249Z" transform="translate(0 0)"/><path class="cls-84" d="M502.35,247.47c-.89-.05-3.39-.42-2.82-1.1l7-6.48a3.89,3.89,0,0,1,2.64-1.24h41.07a5.34,5.34,0,0,1,2.87,1l6.83,5.55c1.18,1.05.73,1.53.1,2.15l-1.94,2a4.24,4.24,0,0,1-2.75,1Z" transform="translate(0 0)"/><path class="cls-84" d="M496.64,242.77l-18.26-55.05c-.15-.44-.14.61-.14.2l-.09-1.49c0-1.74,1.12-1.51,1.29-2.23,0,0,8.09-.89,8.53-.77,2.6.06,3.4,2,4,3.76l16.38,52.25-.67.19-.7.2-16.57-52.57c-.58-2.06-1.64-2.36-2.41-2.25-.26-.06-5.74.71-5.74.71-1.18,0-2.26.16-2.26,1.18a2.69,2.69,0,0,0,.13.75l18,54.69c.26,1.22,2.75,4.47,3.57,4.53l3.46-4.09c1.46-2,2.07-2.33,1.92-2.43a1.45,1.45,0,0,0-.11-.52l.7-.2.67-.19a3.47,3.47,0,0,1,.17,1c-.14,1.42-1,1.41-2.19,3.29l-3.79,4.52-.2.06a1.61,1.61,0,0,1-.52.08c-2.53-.27-4.46-3.87-5.16-5.58" transform="translate(0 0)"/><path d="M501.89,249.38a1.57,1.57,0,0,1-1.05,2l-2.79.59a1.61,1.61,0,0,1-2-1l-20.57-64.07a1.57,1.57,0,0,1,1.06-2l2.79-.58a1.63,1.63,0,0,1,2,1Z" transform="translate(0 0)"/><path d="M561.55,251.14c0,.66-.73,1.2-1.62,1.2H498.19c-.89,0-1.62-.54-1.62-1.2v-4c0-.67.73-1.21,1.62-1.21h61.74c.89,0,1.62.54,1.62,1.21Z" transform="translate(0 0)"/><path d="M507.67,244.67c-.21,0-.27-.13-.15-.25l4.16-4.3a.68.68,0,0,1,.44-.13c.15,0,.21.08.15.16l-4,4.32a.78.78,0,0,1-.51.2h0" transform="translate(0 0)"/><path d="M511.52,244.67c-.2,0-.27-.12-.17-.25l3.42-4.3a.52.52,0,0,1,.4-.13c.16,0,.23.08.17.16l-3.3,4.32a.6.6,0,0,1-.46.2h-.06" transform="translate(0 0)"/><path d="M515.39,244.68c-.19,0-.3-.13-.22-.25l2.67-4.31a.47.47,0,0,1,.38-.12c.17,0,.26.07.2.16l-2.54,4.32a.5.5,0,0,1-.43.2h-.06" transform="translate(0 0)"/><path d="M519.28,244.68c-.21,0-.33-.13-.27-.25l1.92-4.31a.39.39,0,0,1,.35-.12c.17,0,.27.08.24.15l-1.79,4.33c0,.12-.22.2-.42.2h0" transform="translate(0 0)"/><path d="M523.17,244.69c-.21,0-.36-.13-.32-.26l1.17-4.31c0-.08.17-.13.34-.12s.29.08.25.16l-1,4.32c0,.12-.2.21-.37.21Z" transform="translate(0 0)"/><path d="M527.07,244.69c-.22,0-.39-.13-.37-.25l.42-4.32c0-.08.14-.14.3-.13s.3.08.3.17l-.26,4.33c0,.12-.16.2-.35.2h0" transform="translate(0 0)"/><path d="M531,244.69c-.21,0-.39-.12-.39-.25l-.36-4.32c0-.07.13-.13.29-.12s.32.08.32.15l.5,4.35c0,.11-.11.19-.31.19Z" transform="translate(0 0)"/><path d="M534.88,244.69c-.22,0-.43-.12-.45-.24l-1.11-4.33c0-.07.1-.13.26-.12s.34.08.36.15l1.25,4.35c0,.12-.07.2-.26.2h0" transform="translate(0 0)"/><path d="M538.8,244.7a.62.62,0,0,1-.5-.25l-1.87-4.33c0-.07.08-.13.25-.12s.34.08.36.16l2,4.34c0,.12,0,.2-.24.2h0" transform="translate(0 0)"/><path d="M542.72,244.71a.77.77,0,0,1-.54-.26l-2.64-4.33c-.06-.08.05-.13.22-.13a.6.6,0,0,1,.41.17l2.8,4.35c.09.12,0,.2-.21.2Z" transform="translate(0 0)"/><path d="M546.65,244.71a1,1,0,0,1-.59-.25l-3.4-4.34c-.07-.08,0-.14.21-.13a.65.65,0,0,1,.42.16l3.58,4.36c.11.12,0,.2-.17.2h-.05" transform="translate(0 0)"/><path d="M550.6,244.72a1,1,0,0,1-.62-.26l-4.2-4.34c-.08-.08,0-.13.17-.12a.78.78,0,0,1,.48.16l4.35,4.36c.12.11.06.2-.13.2h0" transform="translate(0 0)"/><path d="M554.55,244.72a1.29,1.29,0,0,1-.68-.25l-5-4.35c-.08-.08,0-.14.16-.13a1,1,0,0,1,.49.17l5.13,4.36c.15.11.1.2-.09.2h-.05" transform="translate(0 0)"/><path d="M507.89,244.79a.33.33,0,0,1,0-.65h46.18a.32.32,0,0,1,.31.33c0,.17.44.32.27.32H507.89Z" transform="translate(0 0)"/><path d="M509.34,243.3a.3.3,0,0,1-.3-.31.3.3,0,0,1,.3-.31h43.2c-.56,0,0,.2,0,.37h.19c0,.17,0,.25-.2.25Z" transform="translate(0 0)"/><path d="M510.7,241.86a.3.3,0,1,1,0-.59h40.12a.3.3,0,1,1,0,.59Z" transform="translate(0 0)"/><path d="M511.79,240.45a.22.22,0,1,1,0-.43h37.67a.22.22,0,1,1,0,.43Z" transform="translate(0 0)"/><path class="cls-81" d="M590,194.62c-2.14,8.59-7.51,30.61-10.74,33.82s-24.83,5.91-26.45,5.38-6.93-2.66-11.45-1.85a43.76,43.76,0,0,0-7.48,1.85c-1.33.53-5.36,4-4.29,4a5.56,5.56,0,0,0,1.57-.36c-.9.74-1.72,1.54-1.57,1.84.27.54.13.54,1.48,0a8.85,8.85,0,0,0,1.07-.53c-.6.49-1,1-.8,1.34.4.67,2.14-.67,3.35-.94l.31-.1a7.31,7.31,0,0,0-1.78,1.17c-.27.54.66.4,2-.13.51-.2,1.62-.55,2.9-.91.13,0,.25,0,.42-.07,4.83-1,7.34,1.55,14.9,2.93,35.44,6.44,44.47,1.2,48.23-2s9.33-28.26,9.86-33.63c0,0-19.39-20.41-21.54-11.81" transform="translate(0 0)"/><path d="M600.44,179.12l-10.09,6.43c-3.31,7.32-12.92,24.55-14.1,28.3-1.65,5.28,1.54,13.19,3.3,15.83s4.18,11,4.18,14.52S586,256.11,586,256.11s30.38,1.95,34.65.53c2.63-.88,2.68-23.44,3.56-37.51s3-29.19-9.47-44.65c-6.38,2.2-9.21,1.39-14.28,4.64" transform="translate(0 0)"/><path class="cls-84" d="M624.19,218.91c-.88,14.07-1.77,40.9-4.41,41.78h0l-11.21-1.11s-2-9-1.39-11,4.08-51.74,4.08-58.34c0-4.87-3.82-10.28-6.42-13.61,4.51-2.8,4.16-.12,10.17-2.2,12.49,15.46,10.09,30.36,9.21,44.43" transform="translate(0 0)"/><path class="cls-78" d="M616.32,172.87c-2.41,0-19.94,4.43-29.2,16.11.81,4-.6,2.62-.6,2.62s15.71-12.29,21.35-12.49c11.47-.4,14.29,11.08,16.31,14.7-1-13.29-7.86-20.94-7.86-20.94" transform="translate(0 0)"/><path class="cls-89" d="M586.79,189.78c-2.15,1.08-9.4,11-10.74,15.31,7.52-3.76,12.89-11.55,13.16-14.5s-2.42-.81-2.42-.81" transform="translate(0 0)"/><path class="cls-78" d="M589.47,187.63c1.62,2.15.27,21.15-.54,22.49s-6-9.26-4.43-15.71,5-6.78,5-6.78" transform="translate(0 0)"/><path class="cls-81" d="M599.41,198c-2.14,8.59-1.88,30.68-5.1,33.9s-32.89,5.9-34.51,5.37-6.93-2.66-11.45-1.85a43.76,43.76,0,0,0-7.48,1.85c-1.33.54-5.36,4-4.29,4a5.41,5.41,0,0,0,1.58-.37c-.91.74-1.73,1.55-1.58,1.84.28.54.13.54,1.48,0a8.85,8.85,0,0,0,1.07-.53c-.59.49-1,1-.8,1.34.4.67,2.15-.67,3.35-.94l.32-.1a7.46,7.46,0,0,0-1.79,1.17c-.27.54.66.41,2-.13.5-.2,1.61-.55,2.89-.91.13,0,.25,0,.42-.07,4.83-1,7.34,1.55,14.9,2.92,35.45,6.45,44.47,1.21,48.23-2s9.33-28.26,9.86-33.63c0,0-17-20.47-19.12-11.88" transform="translate(0 0)"/><path class="cls-85" d="M596.67,195.84c-.43,4.33-1.9,23.55-1.9,23.55l24.49,7.55s5.54-31.14-1.12-38.37c-5.85-6.34-13.27-5-17.13-.81a15.8,15.8,0,0,0-4.34,8.08" transform="translate(0 0)"/><path class="cls-36" d="M618.53,188.78c6.68,7.22.68,38.1.68,38.1l-13-3.64c1.39-5.29,4-16.26,4.15-24.21.19-9.54-.4-12.33-3.06-14.73,3.77-.52,7.28.16,11.27,4.48" transform="translate(0 0)"/><rect class="cls-85" x="457.54" y="188.68" width="17.92" height="43.09"/><rect class="cls-36" x="456.77" y="189.45" width="17.93" height="43.1"/><rect class="cls-85" x="457.44" y="190.45" width="17.92" height="43.1" transform="translate(-0.94 2.08) rotate(-0.26)"/><rect class="cls-36" x="456.05" y="191.36" width="18.27" height="42.42"/><path class="cls-93" d="M469.82,202.21a1,1,0,0,1-1,1h-7.33a1,1,0,0,1-1-1v-5.32a1,1,0,0,1,1-1h7.33a1,1,0,0,1,1,1Z" transform="translate(0 0)"/><path class="cls-85" d="M468.56,197.94a.91.91,0,1,1-.9-.91.9.9,0,0,1,.9.91" transform="translate(0 0)"/><path class="cls-85" d="M466.45,200.26a.26.26,0,0,1-.26.25H462a.26.26,0,1,1,0-.51h4.22a.26.26,0,0,1,.26.26" transform="translate(0 0)"/><path class="cls-85" d="M468.76,201.42c0,.13-.17.24-.38.24h-6.29c-.21,0-.38-.11-.38-.24s.17-.26.38-.26h6.29c.21,0,.38.11.38.26" transform="translate(0 0)"/><rect class="cls-79" x="459.2" y="207.1" width="11.98" height="0.75"/><rect class="cls-79" x="459.2" y="208.5" width="11.98" height="0.76"/><rect class="cls-79" x="459.2" y="209.9" width="11.98" height="0.75"/><rect class="cls-79" x="459.2" y="211.29" width="11.98" height="0.75"/><rect class="cls-79" x="459.2" y="212.69" width="11.98" height="0.75"/><rect class="cls-79" x="459.2" y="216.16" width="11.98" height="0.75"/><rect class="cls-79" x="459.2" y="217.56" width="11.98" height="0.75"/><rect class="cls-79" x="459.2" y="218.96" width="11.98" height="0.75"/><rect class="cls-79" x="459.2" y="220.36" width="11.98" height="0.75"/><rect class="cls-79" x="459.2" y="221.76" width="11.98" height="0.75"/><path class="cls-85" d="M455.64,235.22a4,4,0,0,1-4.15-3.87V216a4,4,0,0,1,4.15-3.87h20a4,4,0,0,1,4.14,3.87v15.35a4,4,0,0,1-4.14,3.87ZM453.09,216v15.35a2.42,2.42,0,0,0,2.55,2.27h20a2.42,2.42,0,0,0,2.54-2.27V216a2.41,2.41,0,0,0-2.54-2.26h-20a2.42,2.42,0,0,0-2.55,2.26" transform="translate(0 0)"/><rect class="cls-85" x="417.57" y="188.35" width="17.91" height="43.1"/><rect class="cls-36" x="416.8" y="189.12" width="17.92" height="43.09"/><rect class="cls-85" x="417.47" y="190.13" width="17.92" height="43.09" transform="translate(-0.98 1.98) rotate(-0.27)"/><rect class="cls-36" x="416.08" y="191.04" width="18.25" height="42.42"/><rect class="cls-79" x="419.21" y="210.03" width="5.94" height="0.59"/><rect class="cls-79" x="419.21" y="211.13" width="5.94" height="0.6"/><rect class="cls-79" x="419.21" y="212.23" width="5.94" height="0.59"/><rect class="cls-79" x="419.21" y="213.33" width="5.94" height="0.6"/><rect class="cls-79" x="419.21" y="214.44" width="5.94" height="0.59"/><rect class="cls-79" x="419.21" y="217.18" width="5.94" height="0.59"/><rect class="cls-79" x="419.21" y="218.28" width="5.94" height="0.6"/><rect class="cls-79" x="419.21" y="219.38" width="5.94" height="0.59"/><rect class="cls-79" x="419.21" y="220.49" width="5.94" height="0.59"/><rect class="cls-79" x="419.21" y="221.59" width="5.94" height="0.59"/><rect class="cls-79" x="426.78" y="210.03" width="5.95" height="0.59"/><rect class="cls-79" x="426.78" y="211.13" width="5.95" height="0.6"/><rect class="cls-79" x="426.78" y="212.23" width="5.95" height="0.59"/><rect class="cls-79" x="426.78" y="213.33" width="5.95" height="0.6"/><rect class="cls-79" x="426.78" y="214.44" width="5.95" height="0.59"/><rect class="cls-79" x="426.78" y="217.18" width="5.95" height="0.59"/><rect class="cls-79" x="426.78" y="218.28" width="5.95" height="0.6"/><rect class="cls-79" x="426.78" y="219.38" width="5.95" height="0.59"/><rect class="cls-79" x="426.78" y="220.49" width="5.95" height="0.59"/><rect class="cls-79" x="426.78" y="221.59" width="5.95" height="0.59"/><path class="cls-85" d="M415.65,234.89a4,4,0,0,1-4.14-3.86V215.68a4,4,0,0,1,4.14-3.87H435.7a4,4,0,0,1,4.13,3.87V231a4,4,0,0,1-4.13,3.86Zm-2.54-19.21V231a2.44,2.44,0,0,0,2.54,2.27H435.7a2.43,2.43,0,0,0,2.53-2.27V215.68a2.42,2.42,0,0,0-2.53-2.27H415.65a2.42,2.42,0,0,0-2.54,2.27" transform="translate(0 0)"/><path class="cls-94" d="M426.13,196.44c-2.09-1-4.23-.87-4.77,1.75-1.41-.07-4.16,2.75-2.35,4.36.34,1.68,2.15,2.62,4.83,3.08s9.85-.59,9.14-3.95a2,2,0,0,0-2.16-1.68s1.28-2.29-1.42-3.76a2.69,2.69,0,0,0-3.27.2" transform="translate(0 0)"/><path class="cls-78" d="M422.43,208.05c1.14.95,8.52.27,8.52.27s1-1.07-1.34-2.21c-.55-.27-5.5-.14-6.11-.14s-2.68.87-2.48,1.48a1,1,0,0,0,1.41.6" transform="translate(0 0)"/><rect class="cls-36" x="422.23" y="201.66" width="6.85" height="4.99"/><polygon class="cls-92" points="420.41 202.12 425.65 198.69 430.7 202.09 420.41 202.12"/><rect class="cls-92" x="423.71" y="203.25" width="1.2" height="1.21"/><rect class="cls-92" x="426.42" y="203.25" width="1.21" height="1.21"/><polygon class="cls-95" points="394.97 253.16 458.46 253.82 464.62 237.61 407.84 237.41 394.97 253.16"/><polygon class="cls-79" points="451.65 249.3 456.16 240.46 456.45 240.59 451.94 249.44 451.65 249.3"/><polygon class="cls-79" points="448.29 249.28 452.86 240.46 453.15 240.59 448.59 249.42 448.29 249.28"/><polygon class="cls-79" points="444.93 249.27 449.58 240.46 449.87 240.59 445.23 249.41 444.93 249.27"/><polygon class="cls-79" points="441.59 249.26 446.31 240.46 446.61 240.59 441.9 249.4 441.59 249.26"/><polygon class="cls-79" points="438.27 249.24 443.04 240.46 443.34 240.59 438.56 249.38 438.27 249.24"/><polygon class="cls-79" points="434.96 249.23 439.8 240.46 440.09 240.6 435.25 249.37 434.96 249.23"/><polygon class="cls-79" points="431.64 249.21 436.57 240.46 436.85 240.59 431.94 249.36 431.64 249.21"/><polygon class="cls-79" points="428.35 249.19 433.34 240.46 433.62 240.59 428.63 249.34 428.35 249.19"/><polygon class="cls-79" points="425.06 249.19 430.12 240.46 430.4 240.59 425.35 249.33 425.06 249.19"/><polygon class="cls-79" points="421.79 249.17 426.92 240.46 427.19 240.59 422.07 249.31 421.79 249.17"/><polygon class="cls-79" points="418.53 249.15 423.71 240.46 423.99 240.59 418.81 249.3 418.53 249.15"/><polygon class="cls-79" points="415.28 249.14 420.52 240.46 420.8 240.59 415.55 249.29 415.28 249.14"/><polygon class="cls-79" points="412.02 249.13 417.35 240.46 417.62 240.59 412.3 249.27 412.02 249.13"/><polygon class="cls-79" points="408.79 249.11 414.18 240.46 414.46 240.59 409.06 249.25 408.79 249.11"/><polygon class="cls-36" points="368.93 263.19 433.39 262.8 442.4 243.61 382.49 243.36 368.93 263.19"/><path class="cls-81" d="M383.41,233.5l3,.11,11.35-3.53s9,5.49,10.58,7,5.08,4.31,2.73,4.7-6.84-1-9.2-1.37-10.37-2.16-13.5-1c-1.79.67-5.15.69-8.22.29Z" transform="translate(0 0)"/><path class="cls-82" d="M325.77,176.74c9.84,4.59,21.12,45.59,24.14,48.29s39.26,6.64,39.26,6.64-8.23,13.25-10.87,17.72c-4.26-.82-39.85-4.44-42.87-7.13s-6.22-29.64-6.22-29.64Z" transform="translate(0 0)"/><polygon class="cls-87" points="325.02 169.37 330.18 175.99 331.12 188.47 324 178.03 325.02 169.37"/><path class="cls-81" d="M312.47,143.08c-1.14,4.95-1.44,11.33-6.73,17l-5.29,5.68,22.66,12.93s2.35-11.29,7.08-14.73-17.72-20.9-17.72-20.9" transform="translate(0 0)"/><path class="cls-81" d="M353.69,142.05a2,2,0,0,0,.05-.24c2.13-8.38,5.2-14.74,3-21-.2-.57-2.42-2.2-3.35-3.1-6.19-12.82-37.17-8.17-38.45,1.06-5.46,39.33,10.18,43.95,17.5,45.31,3.71.64,5.68,1.24,8.77-.42,2.76-1.47,6-4.86,8.34-10.25,2.43-.26,5.07-.11,5.44-1.51a1.21,1.21,0,0,0,.15-.67c-1.06-2.65-1-7.34-1.46-9.22" transform="translate(0 0)"/><path class="cls-81" d="M332,164.32a42.93,42.93,0,0,0,4.26.62,2.2,2.2,0,0,1-.14-.18c-10.74-11.6-2.79-28.28,5.18-45.78l-27.89,17c.66,23.77,12.5,27.18,18.59,28.32" transform="translate(0 0)"/><path class="cls-91" d="M315.48,107.67c3.34-3.41,6.14-8,16.29-5.89,9.86,2,16.79,6.23,21.88,14.27,2.62,4.08.79,5.55.79,5.55s-5.56-4.53-8-4.36-5.46,4.29-9.46,8.08c-3.38,3.18-5.81,12.1-5.81,12.1s-8.12,1.77-15.32,13.65c-1.76,2.88-8.67.14-8.67.14s1.89-1.21.62-9.65c-.46-3.14-1.81-5.46-2.91-10.56-4-18.66,9.85-22.49,10.63-23.33" transform="translate(0 0)"/><path class="cls-92" d="M342.06,127.33c4-3.77,4.51-3.62,7-3.79s8.36,3.37,8.36,3.37,8.85-13,2.79-9.28c-3.69,2.28-10.17-10.21-21.53-14.24-3.84-1.36-7.62-2.61-10.72-2,4.41,2.68,8.57,11.14,3.22,34a8,8,0,0,1,5.24.16,29.49,29.49,0,0,1,5.64-8.23" transform="translate(0 0)"/><path class="cls-81" d="M334.14,134.7c-.5-5-4.24-5.1-6.24-3.06s-.92,9.68.62,10.57c4.29,2.49,5.62-7.51,5.62-7.51" transform="translate(0 0)"/><polygon class="cls-88" points="325.11 177.54 321.46 183.16 326.34 191.4 328.76 191.25 329.02 180.81 325.11 177.54"/><path class="cls-83" d="M305.29,156.61l-6.73,8.6,14.09,17.73,8.46,3.22-2.3,6.13,16.8,28.51s-4.94-24.14-9.26-32.63-21.06-31.56-21.06-31.56" transform="translate(0 0)"/><polygon class="cls-36" points="307.01 154.34 327.07 175.79 321.86 184.4 302.85 158.64 307.01 154.34"/><path class="cls-36" d="M378.7,230.21a3.21,3.21,0,0,0-.65,1.32,2.25,2.25,0,0,0,.57,1.6c.42.59,3.06,4.5,5.77,6.28.23.12.37-.08.36-.3a4.47,4.47,0,0,0-1-1.75,1.84,1.84,0,0,1-.86-.05,38.46,38.46,0,0,1-3.09-4.56c-.08-.25.19-.39.38-.48a13.39,13.39,0,0,1-1.52-2.06" transform="translate(0 0)"/><path d="M399.25,255.57s.16.7.05.78-.75-.31-.75-.31Z" transform="translate(0 0)"/><path class="cls-80" d="M399.26,255.58a18.06,18.06,0,0,0-1.5-3.22l-1.71,1.24a21.75,21.75,0,0,0,2.54,2.48c.39-.29.63-.46.67-.5" transform="translate(0 0)"/><path class="cls-88" d="M397.79,252.43c-.46-1-9.14-13.88-9.14-13.88l-2.85,2s9.5,12.31,10.3,13.06c1-.71,1.52-1.09,1.69-1.22" transform="translate(0 0)"/><path class="cls-79" d="M380,229.45h0l1.37-1.12c-.1-.12-1.2-1.9-2.76-.83v0h0c-1.51,1.12-.2,2.75-.1,2.87l1.49-.92Z" transform="translate(0 0)"/><path class="cls-88" d="M386.94,239.17l.44-.25-.06-.08,1-.78c-.06-.09-6.75-9.63-7.18-10q-1,.69-1.44,1c-.3.2-.77.54-1.43,1,.22.53,7.08,9.83,7.14,9.91l1.08-.58.06.08Z" transform="translate(0 0)"/><path class="cls-93" d="M388.65,238.55l-1.36,1L397,253.05c.46-.33.71-.54.83-.62-.46-1-9.14-13.88-9.14-13.88" transform="translate(0 0)"/><path class="cls-93" d="M387.32,238.84l1-.78c-.06-.09-6.78-9.67-7.21-10.05-.62.48-1,.72-1.36,1L387,239.13l.37-.21Z" transform="translate(0 0)"/><path class="cls-36" d="M378.68,227.46l1.1,1.54,1.36-1a1.8,1.8,0,0,0-2.46-.53" transform="translate(0 0)"/><path class="cls-36" d="M388.88,238.49l-.51-.71s-.06,0-.1,0l-1.48,1,.59.83,1.48-1.06a.09.09,0,0,0,0-.1" transform="translate(0 0)"/><path class="cls-81" d="M359.83,236c3,1.06,8.62,1.17,11.64,2.24s14.93.49,16.72,1.27,4.71,1.35,6.45,2c4.51,1.69,2,4.72-.37,4.46-.81-.08-.64,0-.64,0s2.14,1.21,1.77,2.75c-.5,2.06-1.79,2.35-3.38,2.35,1.73,1.13.66,4-2.22,3.84,1.49,2.14-.34,3.45-4.3,3.16-2.61-.19-14.45-4.31-17.9-5.57s-14.16-1.85-14.16-1.85Z" transform="translate(0 0)"/><polygon class="cls-36" points="369.57 235.72 375.68 237.93 371.77 257.88 361.67 255.72 369.57 235.72"/><path class="cls-83" d="M311.45,186.56c-4.13-10.32-21.8-9.26-23.37,4.84-1,8.83,16.11,44.08,29.41,59.2,0,0,45,8.37,46.13,10.84,3.52-11,9-25.45,9-25.45L332,227.38Z" transform="translate(0 0)"/></g></g></g></svg>