<svg xmlns="http://www.w3.org/2000/svg" xmlns:xlink="http://www.w3.org/1999/xlink" viewBox="0 0 278.64 313.88"><defs><style>.cls-1{fill:none;}.cls-2{isolation:isolate;}.cls-3{fill:#e0a67f;}.cls-4{fill:#fff;}.cls-5{fill:#112d46;}.cls-6{fill:#1e476b;}.cls-7{fill:#e1e7e8;}.cls-8{fill:#2e3133;}.cls-9{fill:#fff7dc;}.cls-10{fill:#424549;}.cls-11{fill:#173854;}.cls-12,.cls-23,.cls-39{opacity:0.3;}.cls-12,.cls-19,.cls-31{mix-blend-mode:multiply;}.cls-13{clip-path:url(#clip-path);}.cls-14{fill:#3e3872;}.cls-15{fill:#db3737;}.cls-16{fill:#bd2626;}.cls-17{fill:#1d67a8;}.cls-18{fill:#10171d;}.cls-19{opacity:0.5;}.cls-20{clip-path:url(#clip-path-2);}.cls-21{fill:#f5a505;}.cls-22{fill:#ffca00;}.cls-23,.cls-28{mix-blend-mode:screen;}.cls-24{clip-path:url(#clip-path-3);}.cls-25{fill:#f8b797;}.cls-26{fill:#222e38;}.cls-27{fill:#1a252e;}.cls-28,.cls-31{opacity:0.2;}.cls-29{clip-path:url(#clip-path-4);}.cls-30{fill:#2b3e4f;}.cls-32{clip-path:url(#clip-path-5);}.cls-33{fill:#6e777d;}.cls-34{clip-path:url(#clip-path-6);}.cls-35{clip-path:url(#clip-path-7);}.cls-36{fill:#3d414f;}.cls-37{fill:#2a2626;}.cls-38{fill:#362825;}.cls-40{clip-path:url(#clip-path-8);}.cls-41{clip-path:url(#clip-path-9);}.cls-42{fill:#edd6b6;}.cls-43{fill:#353942;}.cls-44{fill:#585b64;}.cls-45{clip-path:url(#clip-path-10);}.cls-46{fill:#255076;}.cls-47{fill:#2e475d;}</style><clipPath id="clip-path"><rect class="cls-1" x="231.19" y="26.29" width="12.86" height="33.08"/></clipPath><clipPath id="clip-path-2"><rect class="cls-1" x="261.52" y="168.1" width="0.08" height="1.26"/></clipPath><clipPath id="clip-path-3"><rect class="cls-1" x="54.55" y="20.5" width="134.08" height="134.08"/></clipPath><clipPath id="clip-path-4"><rect class="cls-1" x="6.85" y="138.83" width="17.52" height="115.33"/></clipPath><clipPath id="clip-path-5"><rect class="cls-1" x="27.56" y="138.83" width="17.53" height="115.33"/></clipPath><clipPath id="clip-path-6"><rect class="cls-1" x="21.68" y="22.71" width="12.89" height="33.15"/></clipPath><clipPath id="clip-path-7"><rect class="cls-1" x="17.52" y="1.94" width="18.71" height="40.73"/></clipPath><clipPath id="clip-path-8"><rect class="cls-1" x="37.73" y="18.69" width="9.9" height="7.8"/></clipPath><clipPath id="clip-path-9"><rect class="cls-1" x="20.97" y="18.72" width="10.64" height="7.68"/></clipPath><clipPath id="clip-path-10"><rect class="cls-1" x="92.97" y="78.24" width="12.21" height="31.42"/></clipPath></defs><g class="cls-2"><g id="Capa_2" data-name="Capa 2"><g id="Capa_1-2" data-name="Capa 1"><path class="cls-3" d="M197.45,155.73a1.16,1.16,0,0,1,2.14.91l-2.73,6.41a1.16,1.16,0,1,1-2.14-.91Z"/><path class="cls-3" d="M192.72,153a1.15,1.15,0,0,1,1.6-.36,1.18,1.18,0,0,1,.36,1.61l-3.75,5.87a1.16,1.16,0,0,1-2-1.25Z"/><path class="cls-3" d="M189.09,151.82a1.27,1.27,0,0,0,1.39,1.12l5.59-.61a3.83,3.83,0,0,0,.49-1.85c0-.37-.94-.92-.94-.92l-5.41.86a1.26,1.26,0,0,0-1.12,1.4"/><path class="cls-3" d="M194.55,155.24a1.16,1.16,0,1,1,2,1.11l-3.3,6.14a1.17,1.17,0,1,1-2-1.11Z"/><path class="cls-3" d="M193.81,150.76a2.3,2.3,0,0,1,3.12-.93l2.89,1.56a2.31,2.31,0,0,1,.93,3.12l-1.56,2.88a2.3,2.3,0,0,1-3.11.94l-2.89-1.56a2.31,2.31,0,0,1-.94-3.12Z"/><path class="cls-3" d="M201,141.36a2.05,2.05,0,0,1,3.61,2l-5.83,10.82a2.06,2.06,0,0,1-3.62-1.95Z"/><path class="cls-4" d="M195.15,147.1c3.56,2,4.11,2.33,7.69,4.31,16.09-28.55,24.54-58.43,24.27-91.22A5.14,5.14,0,0,0,221.75,55a5.35,5.35,0,0,0-4.85,5.57c.18,30.9-6.58,59.57-21.75,86.49"/><path class="cls-5" d="M195.22,145.12A169.08,169.08,0,0,0,216.9,60.6,5.35,5.35,0,0,1,221.75,55a5.14,5.14,0,0,1,5.36,5.15c.27,32.45-7.57,62.3-23.32,90.59-2.82-1.94-5.58-3.38-8.57-5.66"/><path class="cls-6" d="M220.54,145v-5.63a19.15,19.15,0,0,1,19.09-19.1H240a19.15,19.15,0,0,1,19.09,19.1l.1,5.63Z"/><polygon class="cls-6" points="250 157.91 222.38 157.91 220.54 144.98 250 144.98 250 157.91"/><polygon class="cls-3" points="227.68 266.46 234.8 266.63 234.95 260.64 227.82 260.46 227.68 266.46"/><polygon class="cls-7" points="226.99 273.07 235.37 273.11 235.41 264.42 227.01 264.39 226.99 273.07"/><path class="cls-8" d="M236.67,275.85a1.55,1.55,0,0,1-1.56,1.56h-26v-2.06l27.58,0Z"/><path class="cls-8" d="M214.82,270.71h5.48c.34,0,.65,0,.93-.05a2,2,0,0,1,.31,0,2.63,2.63,0,0,0,1.3-.55,2.08,2.08,0,0,0,.21-.22,1.69,1.69,0,0,0,.3-1v-.26a3.09,3.09,0,0,1,6.17-.29h0v.2a2.93,2.93,0,1,0,5.86,0v-.16a1.54,1.54,0,0,1,1.27,1.52v5.58l-27.58,0c0-3.14,2.57-4.67,5.73-4.67"/><polygon class="cls-3" points="244.82 266.46 251.95 266.63 252.1 260.64 244.97 260.46 244.82 266.46"/><polygon class="cls-9" points="244.15 273.07 252.52 273.11 252.55 264.42 244.17 264.39 244.15 273.07"/><path class="cls-8" d="M253.81,275.85a1.54,1.54,0,0,1-1.55,1.56h-26v-2.06l27.57,0Z"/><path class="cls-10" d="M226.25,275.38c0-3.14,2.57-4.67,5.72-4.67h5.47c.36,0,.67,0,.94-.05a1.87,1.87,0,0,1,.32,0,2.76,2.76,0,0,0,1.3-.55l.22-.22a1.9,1.9,0,0,0,.3-1v0l0-.13h0v-.12a3.09,3.09,0,0,1,6.16-.29h0v.2a2.93,2.93,0,1,0,5.85,0v-.16a1.55,1.55,0,0,1,1.29,1.52l0,3.17v2.41Z"/><polygon class="cls-6" points="241.46 261.47 241.46 144.98 259.16 144.98 255.82 261.47 241.46 261.47"/><path class="cls-11" d="M241.46,260.6v.87H244a5.61,5.61,0,0,1-2.36-.76l-.19-.11"/><path class="cls-11" d="M252.68,248.06c2.63-14.5.44-28.55,2.19-43.05,2.55-20,4.69-41.17-1.93-60h6.22l-3.34,116.49H241.46V257c5.19-.88,10-3,11.22-9"/><polygon class="cls-6" points="220.53 144.98 222.16 201.62 222.91 227.9 223.88 261.47 238.24 261.47 238.24 144.98 220.53 144.98"/><path class="cls-7" d="M218.08,58.65v80.64a3,3,0,0,0,.17,1.08,2.5,2.5,0,0,0,.44.84v0a3,3,0,0,0,1.85,1.17,1.54,1.54,0,0,0,.58.07h37.45a2.91,2.91,0,0,0,.51,0,3.76,3.76,0,0,0,.87-.31,3.23,3.23,0,0,0,1.65-2.86V58.65a4.34,4.34,0,0,0-.06-.64,3.25,3.25,0,0,0-1.08-1.88,2.91,2.91,0,0,0-1.89-.71L257,55.15,245,53l-.91-.17-5.25-.91-.07,0-7.58,1.45-1.14.24-3.51.67-4,.78-1.55.27a5.29,5.29,0,0,0-1.58.77A2.86,2.86,0,0,0,218.12,58a3.34,3.34,0,0,0,0,.64"/><path class="cls-3" d="M231.19,53.85a6.43,6.43,0,0,0,12.86,0V32.71a6.43,6.43,0,0,0-12.86,0Z"/><g class="cls-12"><g class="cls-13"><path class="cls-3" d="M238.3,52.36c-1.76-1.06-4.72,1.91-7.11,1.49V32.71a6.43,6.43,0,0,1,12.86,0V53.85a6.41,6.41,0,0,1-3.14,5.52c.89-4.26,1.44-4.59-2.61-7"/></g></g><path class="cls-3" d="M221.42,32.82a13.4,13.4,0,0,0,26.79,0V18.75a13.4,13.4,0,0,0-26.79,0Z"/><path class="cls-3" d="M241.9,30.11c2.63-4.39,4.39-12.72-.44-15.35-4.82-3.06-11,0-16.65-1.75a6.35,6.35,0,0,0-2.44.78,13.4,13.4,0,0,1,25.84,5V32.82A13.4,13.4,0,0,1,234.8,46.21a13.23,13.23,0,0,1-6.67-1.79A41.52,41.52,0,0,0,241.9,30.11"/><path class="cls-14" d="M221.46,17.75s-2.32-19,16.12-17.69c9.94-.06,9.94,6,9.94,6s6.65-.24,8.58,4.16a33.19,33.19,0,0,1,2.13,11.6c0,8.53-4.88,15.58-11.24,16.74A13.88,13.88,0,0,0,248.13,33l.08-7.1a17.89,17.89,0,0,0-1.71,3.35c-1.12,2.78-1.5,3.9-1.5,2.51,0,0,3.74-19.91-2-20.13-4.7-.18-2.94,1.81-9.58,2-3.62.08-6.4-2.86-8.41-2.34-3.35.86-3.55,6.53-3.55,6.53"/><path class="cls-14" d="M246.16,21.7s-.19,12.81-5.67,13.7a51.93,51.93,0,0,1-12.16.3,28.77,28.77,0,0,1-6.77-1.81s-3.71,15.72-1,17.25c6.07,3.41,18.55,1.39,23.4-5.56,1.5-2.15,6.23-10.72,6.23-19.52l5.13-3.43Z"/><path class="cls-14" d="M221.26,47.81c10.08,4.39,21.47-1.31,26.3-11.39.44-1.32,4.38-2.63,5.7-4.39,5.69-5.69,3.06-15.34,1.31-22.79a6,6,0,0,0-2.64-2.54,6.61,6.61,0,0,1,4.17,3.47,33.19,33.19,0,0,1,2.13,11.6c0,8.23-4.55,15.08-10.58,16.6A38.71,38.71,0,0,1,244,45.58c-4.85,7-17.33,9-23.4,5.56-.85-.47-1.08-2.3-1-4.6a7.55,7.55,0,0,0,1.66,1.27"/><path class="cls-3" d="M247.91,31.15c1.43.59,3.33-.73,4.24-2.95s.51-4.5-.91-5.09-3.33.73-4.25,2.95-.5,4.5.92,5.09"/><path class="cls-3" d="M248.7,29c.56.29,1.4-.19,1.85-1.07s.38-1.84-.19-2.14-1.4.18-1.86,1.07-.37,1.84.2,2.14"/><rect class="cls-7" x="231.98" y="58.41" width="12.12" height="6.23"/><polygon class="cls-15" points="239.75 60.69 241.58 86.81 238.04 111.83 233.72 86.81 235.72 60.69 239.75 60.69"/><path class="cls-16" d="M233.63,60.69A2.28,2.28,0,0,0,235.91,63h3.49a2.28,2.28,0,1,0,0-4.56h-3.49a2.29,2.29,0,0,0-2.28,2.28"/><path class="cls-11" d="M218.08,58.65v80.64a3,3,0,0,0,.17,1.08,2.5,2.5,0,0,0,.44.84v0a3,3,0,0,0,1.85,1.17,1.54,1.54,0,0,0,.58.07h37.45a2.91,2.91,0,0,0,.51,0,3.76,3.76,0,0,0,.87-.31,3.23,3.23,0,0,0,1.65-2.86V58.65a4.34,4.34,0,0,0-.06-.64,3.25,3.25,0,0,0-1.08-1.88,2.91,2.91,0,0,0-1.89-.71L257,55.15,245,53l-7.27,43.59-7.68-43-3.51.67-4,.78-1.55.27a5.29,5.29,0,0,0-1.58.77A2.86,2.86,0,0,0,218.12,58a3.34,3.34,0,0,0,0,.64"/><path class="cls-5" d="M260.46,56.13a2.91,2.91,0,0,0-1.89-.71l-.38-.07c-1.28.75-2.14,1.6-2.14,2-4.23,27.12,1.7,53.38-5.93,79.65-.84,2.54-5.08,3.38-7.62,3.38-7.52.4-15.41.62-23.24,1.42a2.8,2.8,0,0,0,1.28.6,1.54,1.54,0,0,0,.58.07h37.45a2.91,2.91,0,0,0,.51,0,3.76,3.76,0,0,0,.87-.31,3.23,3.23,0,0,0,1.65-2.86V58.65a4.34,4.34,0,0,0-.06-.64,3.25,3.25,0,0,0-1.08-1.88"/><path class="cls-17" d="M244.12,52.84l4.63.82L253,70.52l-8.87,6,1.58,10.68-7.94,9.4Z"/><path class="cls-17" d="M231.22,53.33l-3.65.7L224,70.52l8.06,6-2.31,11,8,9.06Z"/><path class="cls-18" d="M235.79,105.43a2.45,2.45,0,1,1,2.45,2.45,2.45,2.45,0,0,1-2.45-2.45"/><path class="cls-18" d="M235.79,130.14a2.45,2.45,0,1,1,2.45,2.45,2.45,2.45,0,0,1-2.45-2.45"/><path class="cls-18" d="M235.79,117.78a2.45,2.45,0,1,1,2.45,2.45,2.45,2.45,0,0,1-2.45-2.45"/><g class="cls-19"><g class="cls-20"><path class="cls-7" d="M261.6,168.1l-.07.71a1.13,1.13,0,0,0,.07.55Z"/></g></g><path class="cls-4" d="M237.67,58.41a31.13,31.13,0,0,0,3.19,3.19c1.84,1.54,3.8,3.1,3.8,3.1l2.78-11.27-3.32-.59a7.47,7.47,0,0,1-6.45,5.57"/><path class="cls-4" d="M237.67,58.41l-7,6.77L227.93,54l3.31-.66a6.74,6.74,0,0,0,6.43,5.09"/><path class="cls-14" d="M233.48,21a15.11,15.11,0,0,1,4.65,0,1.44,1.44,0,0,0,1.6-1.09,1.37,1.37,0,0,0-1.25-1.56,17.08,17.08,0,0,0-5.34,0,1.37,1.37,0,0,0-1.26,1.56,1.44,1.44,0,0,0,1.6,1.09"/><path class="cls-14" d="M222.56,21a15.11,15.11,0,0,1,4.65,0,1.44,1.44,0,0,0,1.6-1.09,1.37,1.37,0,0,0-1.25-1.56,17.08,17.08,0,0,0-5.34,0A1.37,1.37,0,0,0,221,19.87a1.44,1.44,0,0,0,1.6,1.09"/><path class="cls-21" d="M69.11,95.57a75.06,75.06,0,0,0,75.07,75.06V20.5A75.06,75.06,0,0,0,69.11,95.57"/><path class="cls-21" d="M219.24,95.57a75,75,0,0,1-75.06,75.06V20.5c1.69,0,3.38.05,5,.17a75.07,75.07,0,0,1,70,74.9"/><path class="cls-22" d="M129.61,20.5a75.07,75.07,0,1,0,75.07,75.07A75.06,75.06,0,0,0,129.61,20.5"/><path class="cls-21" d="M67.17,95.57A62.43,62.43,0,0,0,129.61,158V33.14A62.43,62.43,0,0,0,67.17,95.57"/><path class="cls-21" d="M129.61,33.14V158a62.43,62.43,0,0,0,0-124.86"/><g class="cls-23"><g class="cls-24"><path class="cls-22" d="M111.51,22.71,56.74,77.46a75.86,75.86,0,0,0-2.19,18L129.44,20.5a74.62,74.62,0,0,0-17.93,2.21"/><path class="cls-22" d="M155.75,25.18,59.23,121.72a75.13,75.13,0,0,0,24,32.86L188.62,49.17a75.36,75.36,0,0,0-32.87-24"/></g></g><path class="cls-25" d="M56.31,153.2a1.16,1.16,0,1,0-2.23.63l1.89,6.7a1.16,1.16,0,1,0,2.23-.63Z"/><path class="cls-25" d="M61.35,151a1.15,1.15,0,0,0-1.54-.55,1.17,1.17,0,0,0-.56,1.55l3,6.3a1.15,1.15,0,0,0,1.54.55,1.17,1.17,0,0,0,.56-1.55Z"/><path class="cls-25" d="M65.1,150.38a1.26,1.26,0,0,1-1.52.93L58.11,150a4,4,0,0,1-.25-1.9c.06-.36,1-.79,1-.79l5.26,1.54a1.25,1.25,0,0,1,.93,1.53"/><path class="cls-25" d="M59.25,153.08a1.16,1.16,0,0,0-2.17.84l2.51,6.51a1.16,1.16,0,0,0,2.16-.84Z"/><path class="cls-25" d="M60.55,148.73a2.3,2.3,0,0,0-3-1.32l-3.06,1.18a2.32,2.32,0,0,0-1.32,3l1.18,3.06a2.31,2.31,0,0,0,3,1.32l3.07-1.18a2.3,2.3,0,0,0,1.32-3Z"/><path class="cls-25" d="M54.59,138.5A2,2,0,1,0,50.77,140l4.42,11.47A2.05,2.05,0,0,0,59,150Z"/><path class="cls-4" d="M59.68,144.92c-3.78,1.57-4.36,1.8-8.17,3.31C39.17,117.87,34.56,87.16,39,54.67a5.12,5.12,0,0,1,6-4.42,5.34,5.34,0,0,1,4.11,6.13c-4.1,30.63-1,59.93,10.62,88.54"/><path class="cls-26" d="M59.86,143a169,169,0,0,1-10.8-86.57A5.34,5.34,0,0,0,45,50.25a5.12,5.12,0,0,0-6,4.42c-4.37,32.16-.38,62.76,11.67,92.82,3-1.57,6-2.65,9.21-4.54"/><path class="cls-27" d="M45.09,138.83v-5.57a19,19,0,0,0-18.91-18.91h-.33A19,19,0,0,0,6.94,133.26l-.09,5.57Z"/><polygon class="cls-26" points="15.91 151.63 43.26 151.63 45.09 138.83 15.91 138.83 15.91 151.63"/><polygon class="cls-25" points="38.01 259.1 30.96 259.26 30.82 253.33 37.87 253.16 38.01 259.1"/><polygon class="cls-7" points="38.7 265.64 30.4 265.68 30.37 257.07 38.68 257.05 38.7 265.64"/><path class="cls-8" d="M29.12,268.39a1.54,1.54,0,0,0,1.54,1.55H56.42v-2.05l-27.3,0Z"/><path class="cls-8" d="M50.75,263.3H45.32l-.92,0a1.25,1.25,0,0,0-.31,0,2.79,2.79,0,0,1-1.28-.54l-.21-.22a1.69,1.69,0,0,1-.3-1v-.26a3.06,3.06,0,0,0-6.11-.28h0v.2a2.91,2.91,0,0,1-5.81,0v-.16a1.52,1.52,0,0,0-1.25,1.51V268l27.3,0c0-3.11-2.55-4.63-5.67-4.63"/><polygon class="cls-25" points="21.04 259.1 13.98 259.26 13.84 253.33 20.9 253.16 21.04 259.1"/><polygon class="cls-9" points="21.71 265.64 13.42 265.68 13.39 257.07 21.69 257.05 21.71 265.64"/><path class="cls-8" d="M12.14,268.39a1.54,1.54,0,0,0,1.54,1.55H39.44v-2.05l-27.3,0Z"/><path class="cls-10" d="M39.43,267.93c0-3.11-2.54-4.63-5.66-4.63H28.35l-.93,0a1.25,1.25,0,0,0-.32,0,2.82,2.82,0,0,1-1.29-.54,2.08,2.08,0,0,0-.21-.21,1.86,1.86,0,0,1-.29-1v-.16h0v-.12a3.05,3.05,0,0,0-6.09-.28h0v.2a2.89,2.89,0,1,1-5.78,0v-.16a1.52,1.52,0,0,0-1.28,1.5V268Z"/><polygon class="cls-26" points="24.37 254.16 24.37 138.83 6.85 138.83 10.15 254.16 24.37 254.16"/><g class="cls-28"><g class="cls-29"><path class="cls-30" d="M13.26,240.88c-2.6-14.35-.43-28.26-2.17-42.61C8.57,178.49,6.45,157.5,13,138.83H6.85l3.3,115.33H24.37v-4.4c-5.13-.88-9.92-3-11.11-8.88"/></g></g><polygon class="cls-26" points="45.09 138.83 43.48 194.9 42.73 220.92 41.78 254.16 27.56 254.16 27.56 138.83 45.09 138.83"/><g class="cls-31"><g class="cls-32"><path class="cls-26" d="M40.63,138.83c-4.47,33,1.51,66-.9,99.79-.88,7-5.89,11.58-12.17,14.18v1.36H41.78l.95-33.24.75-26,1.61-56.07Z"/></g></g><path class="cls-7" d="M47.51,53.37V133.2a2.93,2.93,0,0,1-.16,1.07,2.45,2.45,0,0,1-.44.83v0a2.91,2.91,0,0,1-1.83,1.16,1.52,1.52,0,0,1-.57.07H7.43a2.8,2.8,0,0,1-.5,0,4.26,4.26,0,0,1-.87-.3,3.25,3.25,0,0,1-1.63-2.84V53.37a3.12,3.12,0,0,1,.07-.63,3.2,3.2,0,0,1,1.06-1.87,2.9,2.9,0,0,1,1.87-.7L9,49.9l11.88-2.13.9-.17,5.2-.9.06,0,7.51,1.43,1.13.24,3.47.66,4,.77,1.53.27a5.11,5.11,0,0,1,1.57.77,2.84,2.84,0,0,1,1.27,1.93,4.22,4.22,0,0,1,0,.63"/><polygon class="cls-15" points="30.03 55.57 31.87 81.69 28.33 106.71 24.01 81.69 26 55.57 30.03 55.57"/><path class="cls-16" d="M23.92,55.57a2.28,2.28,0,0,0,2.28,2.28h3.48a2.28,2.28,0,0,0,0-4.56H26.2a2.29,2.29,0,0,0-2.28,2.28"/><path class="cls-30" d="M47.51,53.37V133.2a2.93,2.93,0,0,1-.16,1.07,2.45,2.45,0,0,1-.44.83v0a2.91,2.91,0,0,1-1.83,1.16,1.52,1.52,0,0,1-.57.07H7.43a2.8,2.8,0,0,1-.5,0,4.26,4.26,0,0,1-.87-.3,3.25,3.25,0,0,1-1.63-2.84V53.37a3.12,3.12,0,0,1,.07-.63,3.2,3.2,0,0,1,1.06-1.87,2.9,2.9,0,0,1,1.87-.7L9,49.9l11.88-2.13L28,90.93l7.61-42.59,3.47.66,4,.77,1.53.27a5.11,5.11,0,0,1,1.57.77,2.84,2.84,0,0,1,1.27,1.93,4.22,4.22,0,0,1,0,.63"/><path class="cls-26" d="M47.48,52.74a2.88,2.88,0,0,0-1.27-1.94,5.31,5.31,0,0,0-1.43-.71,3.61,3.61,0,0,1,0,.44c0,17.8,3.39,39.82-7.62,54.23,1.69,0,3.39,1.69,4.24,2.54,4.23,7.63,2.54,17.79-3.39,21.18-10.21,4.86-21.54,6.65-32.86,6.82a3.27,3.27,0,0,0,.88.74,4.26,4.26,0,0,0,.87.3,2.8,2.8,0,0,0,.5,0H44.51a1.52,1.52,0,0,0,.57-.07,2.91,2.91,0,0,0,1.83-1.16v0a2.45,2.45,0,0,0,.44-.83,2.93,2.93,0,0,0,.16-1.07V53.37a4.22,4.22,0,0,0,0-.63"/><path class="cls-26" d="M21.74,47.61l-4.58.82L13,65.12l8.78,5.93L20.18,81.63,28,90.93Z"/><path class="cls-26" d="M34.51,48.1l3.61.7,3.56,16.32-8,5.93L36,82l-8,9Z"/><path class="cls-26" d="M30,99.68a2.43,2.43,0,1,0-2.43,2.42A2.43,2.43,0,0,0,30,99.68"/><path class="cls-26" d="M30,124.14a2.43,2.43,0,1,0-2.43,2.43A2.42,2.42,0,0,0,30,124.14"/><path class="cls-26" d="M30,111.91a2.43,2.43,0,1,0-2.43,2.43A2.42,2.42,0,0,0,30,111.91"/><path class="cls-33" d="M43.28,16.38a30.82,30.82,0,0,0-3.18-1.45c-1.21-.5-2.61.47-3,2.1-.6,4.16,2.85,4.41,4,6.16.66,1-.32,3.87.85,4.46a1.25,1.25,0,0,0,1.09.05,2.59,2.59,0,0,0,2.12-2.4c0-4.06.16-2.42.16-6.48,0-1.19-.84-1.69-2.1-2.44"/><path class="cls-25" d="M33.85,53.29a6.42,6.42,0,0,0,.72-3V29.15a6.45,6.45,0,0,0-12.89,0V50.32a6.43,6.43,0,0,0,.73,3Z"/><g class="cls-12"><g class="cls-34"><path class="cls-25" d="M28,45.23c1.76-1.06,4.22-1.19,6.61-1.61V29.15a6.44,6.44,0,0,0-12.88,0V50.32a6.45,6.45,0,0,0,3.14,5.54c-.89-4.27-.93-8.2,3.13-10.63"/></g></g><path class="cls-25" d="M44.36,29.25a13.42,13.42,0,1,1-26.84,0V15.16a13.42,13.42,0,0,1,26.84,0Z"/><g class="cls-12"><g class="cls-35"><path class="cls-25" d="M23.67,36.65c-5.45-11.4-2.65-25.09,5-34.71A13.41,13.41,0,0,0,17.52,15.16V29.25A13.42,13.42,0,0,0,31,42.67a13.26,13.26,0,0,0,5.28-1.08c-5.1.84-10.58-.59-12.56-4.94"/></g></g><path class="cls-25" d="M19.13,28.11c-1.25.91-3.41.05-4.81-1.9S12.79,21.93,14,21s3.42-.05,4.82,1.91,1.52,4.27.27,5.17"/><path class="cls-25" d="M17.76,26.14c-.48.42-1.39.15-2-.6s-.78-1.69-.3-2.1,1.39-.15,2,.6.78,1.69.3,2.1"/><path class="cls-25" d="M17.76,26.14c-.48.42-1.39.15-2-.6s-.78-1.69-.3-2.1,1.39-.15,2,.6.78,1.69.3,2.1"/><path class="cls-33" d="M21.51,16.38a31.51,31.51,0,0,0-3.17-1.45c-1.21-.5-2.62.47-3,2.1-.6,4.16,2.85,4.41,4,6.16.66,1-.33,3.87.84,4.46a1.27,1.27,0,0,0,1.1.05,2.59,2.59,0,0,0,2.11-2.4c0-4.06.16-2.42.16-6.48,0-1.19-.84-1.69-2.1-2.44"/><path class="cls-36" d="M21.65,24.27c-1.6-3.21-6.54-5.68-4.2-9.46A2.69,2.69,0,0,0,15.36,17c-.6,4.16,2.85,4.41,4,6.16.66,1-.33,3.87.84,4.45a1.25,1.25,0,0,0,1.09.06,2.59,2.59,0,0,0,2.12-2.4v-.17a1.44,1.44,0,0,1-1.8-.86"/><path class="cls-37" d="M38.58,33.91a10.44,10.44,0,0,1-.12,1.59c-.48,1.38-2.3,2.4-4.46,2.4s-4-1-4.47-2.4a10.44,10.44,0,0,1-.12-1.59Z"/><path class="cls-38" d="M46.89,27.35h-.06L38.57,27A1.6,1.6,0,0,1,37,25.48l-.17-6a1.56,1.56,0,0,1,.47-1.17,1.58,1.58,0,0,1,1.17-.47l7.64.21a1.57,1.57,0,0,1,1.54,1.39l.8,6.13a1.6,1.6,0,0,1-1.59,1.8m-8.43-8.66a.72.72,0,0,0-.73.75l.17,6a.74.74,0,0,0,.7.71l8.27.31a.64.64,0,0,0,.56-.23.76.76,0,0,0,.19-.59l-.8-6.13a.7.7,0,0,0-.7-.63l-7.64-.21h0"/><path class="cls-38" d="M30.8,27.28h0l-9.17-.07a1.5,1.5,0,0,1-1.09-.49,1.44,1.44,0,0,1-.4-1.12l.38-6.32A1.52,1.52,0,0,1,22,17.86h9a1.52,1.52,0,0,1,1.51,1.55l-.17,6.41a1.53,1.53,0,0,1-1.51,1.47M22,18.73a.64.64,0,0,0-.64.6L21,25.66a.6.6,0,0,0,.17.47.66.66,0,0,0,.46.21l9.17.07h0a.65.65,0,0,0,.65-.63l.17-6.4a.65.65,0,0,0-.18-.46.63.63,0,0,0-.46-.2H22Z"/><polygon class="cls-38" points="37.03 24.27 31.92 24.16 31.93 23.29 37.05 23.4 37.03 24.27"/><g class="cls-39"><g class="cls-40"><path class="cls-4" d="M38.46,18.69a.72.72,0,0,0-.73.75l.17,6a.74.74,0,0,0,.7.71l8.27.31a.64.64,0,0,0,.56-.23.76.76,0,0,0,.19-.59l-.8-6.13a.7.7,0,0,0-.7-.63l-7.64-.21h0"/></g></g><g class="cls-39"><g class="cls-41"><path class="cls-4" d="M22,18.73a.64.64,0,0,0-.64.6L21,25.66a.6.6,0,0,0,.17.47.66.66,0,0,0,.46.21l9.17.07h0a.65.65,0,0,0,.65-.63l.17-6.4a.65.65,0,0,0-.18-.46.63.63,0,0,0-.46-.2H22Z"/></g></g><path class="cls-4" d="M28.12,53.34A19,19,0,0,1,25,56.29c-1.83,1.53-3.77,3.07-3.77,3.07L18.45,48.2l3.29-.59c1.6,6,6.38,5,6.38,5.73"/><path class="cls-4" d="M28.12,53.34c0,.52,6.91,6.5,6.91,6.5l2.74-11.09-3.28-.66c-1.6,6-6.37,4.51-6.37,5.25"/><path class="cls-25" d="M74.1,202.94a1.11,1.11,0,1,0-2.21.23l.69,6.62a1.11,1.11,0,1,0,2.21-.22Z"/><path class="cls-25" d="M79.21,201.73a1.11,1.11,0,0,0-2.15.59l1.78,6.42a1.1,1.1,0,0,0,1.36.78,1.12,1.12,0,0,0,.78-1.37Z"/><path class="cls-25" d="M82.85,201.71a1.21,1.21,0,0,1-1.59.63l-5-2.12a3.91,3.91,0,0,1,.08-1.84c.12-.33,1.12-.57,1.12-.57l4.71,2.31a1.2,1.2,0,0,1,.63,1.59"/><path class="cls-25" d="M76.89,203.31a1.11,1.11,0,1,0-2.18.43l1.3,6.54a1.12,1.12,0,0,0,1.3.88,1.1,1.1,0,0,0,.87-1.31Z"/><path class="cls-25" d="M78.83,199.42a2.2,2.2,0,0,0-2.6-1.73l-3.07.61a2.2,2.2,0,0,0-1.73,2.59L72,204a2.21,2.21,0,0,0,2.58,1.73l3.09-.62a2.2,2.2,0,0,0,1.73-2.59Z"/><path class="cls-25" d="M74.88,188.79a2,2,0,0,0-3.85.78l2.3,11.53a2,2,0,0,0,3.85-.76Z"/><path class="cls-6" d="M83.07,110.47a161,161,0,0,0-5.41,75.61c.51,3.14,1.11,6.27,1.8,9.42-3.83.85-5.74,1.27-9.57,2.07-6.31-28.93-5.61-57.13,2.46-85.37q.72-2.49,1.5-5A4.91,4.91,0,0,1,80.2,104a5,5,0,0,1,3.16,4.73,5.18,5.18,0,0,1-.29,1.72"/><path class="cls-18" d="M115.31,188.44V183.1A18.14,18.14,0,0,0,97.22,165H96.9A18.14,18.14,0,0,0,78.81,183.1l-.09,5.34Z"/><polygon class="cls-25" points="92.3 303.5 85.55 303.66 85.41 297.99 92.16 297.82 92.3 303.5"/><polygon class="cls-42" points="92.94 309.77 85.01 309.8 84.98 301.57 92.92 301.55 92.94 309.77"/><path class="cls-8" d="M93.46,302.59a2.91,2.91,0,0,0-2.93,2.92v2.68a2.93,2.93,0,1,0,5.85,0v-2.7a2.91,2.91,0,0,0-2.92-2.9"/><path class="cls-43" d="M83.78,312.39a1.48,1.48,0,0,0,1.48,1.49H109.9v-2l-26.12,0Z"/><path class="cls-8" d="M109.89,312l-26.11,0V306.7A1.47,1.47,0,0,1,85,305.25v.16a2.77,2.77,0,1,0,5.53,0v-.19l5.86.38v.14a1.83,1.83,0,0,0,.28,1l.21.21a2.66,2.66,0,0,0,1.23.51,1.65,1.65,0,0,1,.3,0l.89.05,5.19,0c3,0,5.41,1.46,5.41,4.43"/><polygon class="cls-25" points="108.54 303.5 101.79 303.66 101.65 297.99 108.4 297.82 108.54 303.5"/><polygon class="cls-9" points="109.19 309.77 101.25 309.8 101.22 301.57 109.17 301.55 109.19 309.77"/><path class="cls-10" d="M109.7,302.59a2.91,2.91,0,0,0-2.92,2.92v2.68a2.93,2.93,0,1,0,5.86,0v-2.7a2.91,2.91,0,0,0-2.94-2.9"/><path class="cls-44" d="M100,312.39a1.47,1.47,0,0,0,1.47,1.49h24.65v-2l-26.12,0Z"/><path class="cls-10" d="M126.15,312,100,312V306.7a1.46,1.46,0,0,1,1.19-1.45v.16a2.78,2.78,0,1,0,5.56,0v-.19l5.86.38v.14a1.68,1.68,0,0,0,.28,1l.2.21a2.57,2.57,0,0,0,1.24.51,1.81,1.81,0,0,1,.29,0l.88.05,5.19,0c3,0,5.42,1.46,5.43,4.43"/><polygon class="cls-26" points="95.48 298.78 95.48 188.44 78.72 188.44 81.88 298.78 95.48 298.78"/><path class="cls-30" d="M89.92,296.47c-3.75-.84-5-4.58-5-8.33-.41-12.9-2.08-25.39.84-38.72,0-.41,1.25-1.66,1.25-2.08.83-2.49-3.33-2.91-3.75-5.82-1.19-17.84-3.88-35.29-2.35-53.08H78.72l3.16,110.34H95.49v-2.73a9.08,9.08,0,0,1-5.57.42"/><polygon class="cls-26" points="115.31 188.44 114.96 200.68 112.14 298.78 98.54 298.78 98.54 188.44 115.31 188.44"/><polygon class="cls-26" points="115.31 188.44 114.96 200.68 87.39 200.68 87.39 188.44 115.31 188.44"/><path class="cls-18" d="M110.9,188.44c1.24,34.66,6,70-5.25,103.74-1,3.43-3.71,4.77-7.11,5.28v1.32h13.6l2.82-98.1.35-12.24Z"/><path class="cls-25" d="M105.18,104.42a6.11,6.11,0,0,1-12.21,0V84.35a6.11,6.11,0,1,1,12.21,0Z"/><g class="cls-12"><g class="cls-45"><path class="cls-25" d="M98.92,99.59c1.67-1,4-1.13,6.26-1.53V84.35a6.11,6.11,0,1,0-12.21,0v20.07a6.08,6.08,0,0,0,3,5.24c-.85-4-.89-7.77,3-10.07"/></g></g><path class="cls-25" d="M114.46,84.45a12.72,12.72,0,1,1-25.44,0V71.09a12.72,12.72,0,0,1,25.44-.48V84.45Z"/><path class="cls-25" d="M95.33,71.25c-5.83,5.82-5.83,20,2.5,23.73a16.08,16.08,0,0,0,8.62,1.29,12.73,12.73,0,0,0,8-11.82V71c-6.5-1.68-14.34-4.17-19.13.22"/><path class="cls-14" d="M114.43,70.14s2.2-18-15.31-16.8c-4.18.5-10.68-.9-17.6,9.59-1.72,2.62-4.41,7.34-4.16,10.72,2.26,30.39,28,26.43,31.76,16a18.3,18.3,0,0,1-1.48-6.16,3.83,3.83,0,0,0,1-2.33l0-9.54A24.11,24.11,0,0,1,110,64.55c2.28,1.74,4.41,5.59,4.41,5.59"/><path class="cls-25" d="M110,84.86c-1.32.64-3.2-.52-4.18-2.58s-.72-4.24.6-4.88,3.2.53,4.18,2.59.71,4.24-.6,4.87"/><path class="cls-25" d="M109.14,82.55c-.5.34-1.34,0-1.88-.79s-.56-1.69-.06-2,1.34,0,1.88.79.56,1.69.06,2"/><path class="cls-6" d="M117.64,106.65V183a3,3,0,0,1-2.88,3H79.29a3,3,0,0,1-2.88-3V106.65a3,3,0,0,1,2.88-3L98,100.26l16.88,3.24c1.59.46,2.69,1.43,2.74,3v.11"/><path class="cls-11" d="M118.15,109a6.36,6.36,0,0,1-.08.75c-.15,1-.29,2-.43,2.93-.35,2.55-.63,5.09-.87,7.61a160.76,160.76,0,0,0-.65,18.17,156.14,156.14,0,0,0,1.52,19V183a3,3,0,0,1-2.88,3h-.67c-.11-.34-.21-.69-.32-1h0a170.42,170.42,0,0,1-5.3-77.1,4.8,4.8,0,0,1,8.64-2.27,5.46,5.46,0,0,1,.53.87,5.3,5.3,0,0,1,.51,2.47"/><path class="cls-11" d="M84.4,171.23c-2-6.77,6.78-10.36,12.75-10.76.8,0,1.6-1.59,1.2-1.59C90,157.28,84,152.9,82,144.93c-3.41-13.65-5.36-27-4.6-40.59a3.13,3.13,0,0,0-1,2.31V183a3,3,0,0,0,2.88,3h35.47a3,3,0,0,0,2.88-3v-3.33c-12.52,3.75-28.49,5.41-33.24-8.48"/><path class="cls-25" d="M128.5,202.1a1.11,1.11,0,0,0-2.13.64l1.91,6.39a1.11,1.11,0,0,0,2.13-.64Z"/><path class="cls-25" d="M133.29,200a1.12,1.12,0,0,0-2,1l2.94,6a1.11,1.11,0,0,0,2-1Z"/><path class="cls-25" d="M136.86,199.27a1.2,1.2,0,0,1-1.44.91L130.16,199a3.88,3.88,0,0,1-.26-1.82c0-.35,1-.77,1-.77l5.05,1.39a1.2,1.2,0,0,1,.92,1.45"/><path class="cls-25" d="M131.3,202a1.11,1.11,0,1,0-2.06.83l2.5,6.19a1.11,1.11,0,0,0,2.06-.84Z"/><path class="cls-25" d="M132.48,197.76a2.19,2.19,0,0,0-2.86-1.21l-2.91,1.17a2.2,2.2,0,0,0-1.22,2.87l1.18,2.91a2.2,2.2,0,0,0,2.86,1.22l2.91-1.18a2.21,2.21,0,0,0,1.22-2.87Z"/><path class="cls-25" d="M126.63,188.06a2,2,0,0,0-3.64,1.48l4.4,10.91A2,2,0,0,0,131,199Z"/><path class="cls-6" d="M132.37,193.8c-3.59,1.56-5.39,2.32-9,3.82q-2.67-6.3-4.85-12.64h0a170.39,170.39,0,0,1-8.09-76.87,4.81,4.81,0,0,1,8.55-2.58,5.21,5.21,0,0,1,1.17,3.3,5,5,0,0,1-.06.76c-.41,3.55-.72,7.07-.92,10.58a162,162,0,0,0,0,18.17,163.94,163.94,0,0,0,13.22,55.46"/><rect class="cls-3" x="225.37" y="132.98" width="8.54" height="4.94" transform="translate(-10.62 19.88) rotate(-4.85)"/><path class="cls-3" d="M222.08,138a1.25,1.25,0,1,1,.67,2.41l-7.24,2a1.26,1.26,0,1,1-.67-2.42Z"/><path class="cls-3" d="M221.26,132.12a1.25,1.25,0,1,1,.25,2.49l-7.47.78a1.25,1.25,0,0,1-1.37-1.12,1.27,1.27,0,0,1,1.11-1.38Z"/><path class="cls-3" d="M219.78,128.3a1.35,1.35,0,0,0,0,1.93l4.26,4.31a4.28,4.28,0,0,0,1.89-.83c.3-.26.15-1.41.15-1.41l-4.36-4a1.35,1.35,0,0,0-1.93,0"/><path class="cls-3" d="M220.54,135.2a1.26,1.26,0,0,1,.45,2.47l-7.4,1.32a1.25,1.25,0,1,1-.44-2.47Z"/><path class="cls-3" d="M223.84,131.57a2.49,2.49,0,0,1,2.88,2l.61,3.48a2.48,2.48,0,0,1-2,2.88l-3.49.62a2.48,2.48,0,0,1-2.88-2l-.62-3.48a2.47,2.47,0,0,1,2-2.87Z"/><path class="cls-4" d="M230.45,140.62h.21a60.64,60.64,0,0,0,25.1-6.75C265,129,273.33,120.94,275.68,113c4.86-16.42-.8-42.73-13.63-56a5.35,5.35,0,1,0-7.71,7.43c9.66,10,15.29,33.48,11.43,46.49-3.26,11-22.8,19.14-36.47,19.67Z"/><path class="cls-46" d="M231.87,128.61l0,.18,1.27,8.33.66,4.35.26,0a51.66,51.66,0,0,0,7.28-1.07,56.88,56.88,0,0,0,14.37-5.44C265,130.05,273.26,122.81,276,115c7.1-20-1.14-44.74-14-58a5.35,5.35,0,1,0-7.71,7.43c9.66,10,14.8,32.32,10.93,45.33-2.6,8.76-15.83,15.39-27,17.87a48.7,48.7,0,0,1-6.26,1h-.15"/><polygon class="cls-25" points="61.9 85.32 57.72 83.1 61.56 75.88 65.74 78.09 61.9 85.32"/><path class="cls-25" d="M66.8,74.88a1.2,1.2,0,1,0,1.87,1.5l4.48-5.63a1.2,1.2,0,1,0-1.87-1.5Z"/><path class="cls-25" d="M61.94,72a1.2,1.2,0,0,0,2.11,1.16l3.48-6.29a1.21,1.21,0,0,0-.46-1.64,1.22,1.22,0,0,0-1.64.47Z"/><path class="cls-25" d="M59.13,69.22a1.3,1.3,0,0,1,1.7.71L63,75.31a4,4,0,0,1-1.44,1.35c-.34.17-1.3-.4-1.3-.4l-1.88-5.34a1.29,1.29,0,0,1,.72-1.7"/><path class="cls-25" d="M64.93,72.49a1.2,1.2,0,0,0,.35,1.66,1.21,1.21,0,0,0,1.66-.35l3.94-6a1.21,1.21,0,0,0-.35-1.67,1.2,1.2,0,0,0-1.66.35Z"/><path class="cls-25" d="M60.5,74a2.35,2.35,0,0,0,.68,3.28L64,79.18a2.39,2.39,0,0,0,3.29-.7l1.85-2.84a2.38,2.38,0,0,0-.68-3.29L65.64,70.5a2.37,2.37,0,0,0-3.29.69Z"/><path class="cls-4" d="M18.14,109.4a25,25,0,0,1-6.64-4.88C-.37,92.44-2.62,67.86,2.78,53.34A4.91,4.91,0,0,1,12,56.77C7.72,68.25,9.63,88.6,18.51,97.63c4.46,4.54,10,5.55,17,3.09,7.34-2.59,17.63-13.84,21.57-21.8l8.81,4.38C61.56,92,49.74,106.13,38.78,110c-7.51,2.64-14.61,2.41-20.64-.59"/><path class="cls-47" d="M65.74,85.86A40.24,40.24,0,0,1,61.87,92c-5.59,7.49-14.56,15.49-23.09,18.5a26,26,0,0,1-20.64-1.13,24.82,24.82,0,0,1-6.64-4.88C-.37,92.44-2.62,67.86,2.78,53.34A4.91,4.91,0,0,1,12,56.77C7.72,68.25,9.63,88.6,18.51,97.63c4.46,4.54,9.2,4.69,16.18,2.22,5.68-2,12.49-7.67,17.11-13.82a35.22,35.22,0,0,0,3.41-5.43Z"/></g></g></g></svg>