<svg xmlns="http://www.w3.org/2000/svg" xmlns:xlink="http://www.w3.org/1999/xlink" viewBox="0 0 279.46 279.71"><defs><style>.cls-1{fill:none;}.cls-2{isolation:isolate;}.cls-3{fill:#ffcd9c;}.cls-4{fill:#fff;}.cls-5{fill:#112d46;}.cls-6{fill:#edb485;}.cls-7{fill:#1e476b;}.cls-8{fill:#cf9b72;}.cls-9{fill:#e1e7e8;}.cls-10{fill:#2e3133;}.cls-11{fill:#fff7dc;}.cls-12{fill:#424549;}.cls-13{fill:#173854;}.cls-14{fill:#f3ad7a;}.cls-15,.cls-31,.cls-40{opacity:0.3;}.cls-15,.cls-23{mix-blend-mode:multiply;}.cls-16{clip-path:url(#clip-path);}.cls-17{fill:#fec08a;}.cls-18{fill:#3e3872;}.cls-19{fill:#db3737;}.cls-20{fill:#bd2626;}.cls-21{fill:#1d67a8;}.cls-22{fill:#10171d;}.cls-23{opacity:0.5;}.cls-24{clip-path:url(#clip-path-2);}.cls-25{fill:#892b2b;}.cls-26{fill:#6d4c41;}.cls-27{fill:#5d4037;}.cls-28{fill:#ff4040;}.cls-29{fill:#f5a505;}.cls-30{fill:#ffca00;}.cls-31{mix-blend-mode:screen;}.cls-32{clip-path:url(#clip-path-3);}.cls-33{clip-path:url(#clip-path-4);}.cls-34{clip-path:url(#clip-path-5);}.cls-35{clip-path:url(#clip-path-6);}.cls-36{clip-path:url(#clip-path-7);}.cls-37{clip-path:url(#clip-path-8);}.cls-38{clip-path:url(#clip-path-9);}.cls-39{clip-path:url(#clip-path-10);}.cls-41{clip-path:url(#clip-path-11);}.cls-42{fill:#255076;}</style><clipPath id="clip-path"><rect class="cls-1" x="243.16" y="25.6" width="12.52" height="32.22"/></clipPath><clipPath id="clip-path-2"><rect class="cls-1" x="272.7" y="163.73" width="0.08" height="1.23"/></clipPath><clipPath id="clip-path-3"><rect class="cls-1" x="22.35" y="119" width="20.81" height="27.36"/></clipPath><clipPath id="clip-path-4"><rect class="cls-1" x="163.72" y="25.55" width="28.29" height="24.7"/></clipPath><clipPath id="clip-path-5"><rect class="cls-1" x="0.14" y="67.4" width="22.75" height="19.86"/></clipPath><clipPath id="clip-path-6"><rect class="cls-1" x="73" y="88.59" width="16.53" height="14.44"/></clipPath><clipPath id="clip-path-7"><rect class="cls-1" x="50.22" y="162.29" width="18.91" height="16.51"/></clipPath><clipPath id="clip-path-8"><rect class="cls-1" x="165.36" y="79.2" width="19.06" height="16.64"/></clipPath><clipPath id="clip-path-9"><rect class="cls-1" x="104.56" y="35.81" width="22.74" height="19.86"/></clipPath><clipPath id="clip-path-10"><rect class="cls-1" x="33.93" y="32.23" width="21.17" height="25.57"/></clipPath><clipPath id="clip-path-11"><rect class="cls-1" x="191.53" y="124.66" width="33.55" height="45.95"/></clipPath></defs><g class="cls-2"><g id="Capa_2" data-name="Capa 2"><g id="Capa_1-2" data-name="Capa 1"><path class="cls-3" d="M209.54,149.23a1.11,1.11,0,1,1,2,.88l-2.66,6.1a1.11,1.11,0,1,1-2-.88Z"/><path class="cls-3" d="M205.05,146.54a1.11,1.11,0,0,1,1.86,1.21l-3.62,5.57a1.11,1.11,0,0,1-1.86-1.2Z"/><path class="cls-3" d="M201.59,145.42a1.2,1.2,0,0,0,1.32,1.08l5.35-.53a3.86,3.86,0,0,0,.48-1.77c0-.35-.89-.88-.89-.88l-5.18.78a1.2,1.2,0,0,0-1.08,1.32"/><path class="cls-3" d="M206.78,148.74a1.11,1.11,0,1,1,1.94,1.07l-3.2,5.83a1.12,1.12,0,0,1-1.51.44,1.1,1.1,0,0,1-.43-1.51Z"/><path class="cls-3" d="M206.11,144.45a2.2,2.2,0,0,1,3-.86l2.74,1.51a2.2,2.2,0,0,1,.87,3l-1.52,2.75a2.19,2.19,0,0,1-3,.86l-2.75-1.51a2.19,2.19,0,0,1-.86-3Z"/><path class="cls-3" d="M213.06,135.54a2,2,0,0,1,3.43,1.89l-5.66,10.29a2,2,0,1,1-3.43-1.89Z"/><path class="cls-4" d="M214.79,126.52l10.59-2.83a194.33,194.33,0,0,1-10.65,21.45c-3.41-1.91-3.93-2.21-7.31-4.18q4.1-7.12,7.37-14.44"/><path class="cls-5" d="M207.5,139.07a161.34,161.34,0,0,0,21.37-80.52,5.11,5.11,0,0,1,4.68-5.27,4.9,4.9,0,0,1,5.07,5,171.28,171.28,0,0,1-23,86.31c-2.68-1.87-5.3-3.27-8.14-5.48"/><path class="cls-6" d="M213.23,121.82a1.39,1.39,0,0,0,.08,2l4.57,4.22a4.47,4.47,0,0,0,1.9-.94c.3-.28.08-1.45.08-1.45l-4.65-3.88a1.4,1.4,0,0,0-2,.08"/><path class="cls-7" d="M232.77,141.21v-5.49a18.65,18.65,0,0,1,18.6-18.6h.33a18.65,18.65,0,0,1,18.6,18.6l.1,5.49Z"/><polygon class="cls-7" points="261.47 153.8 234.57 153.8 232.77 141.21 261.47 141.21 261.47 153.8"/><polygon class="cls-8" points="239.73 259.54 246.67 259.7 246.81 253.86 239.87 253.69 239.73 259.54"/><polygon class="cls-9" points="239.06 265.98 247.22 266.01 247.25 257.54 239.08 257.52 239.06 265.98"/><path class="cls-10" d="M248.49,268.68A1.51,1.51,0,0,1,247,270.2H221.63v-2l26.86,0Z"/><path class="cls-10" d="M227.2,263.67h5.35l.9,0a1.77,1.77,0,0,1,.3,0,2.69,2.69,0,0,0,1.27-.53l.2-.22a1.68,1.68,0,0,0,.3-1v-.25a3,3,0,0,1,6-.28h0v.2a2.86,2.86,0,0,0,5.72,0v-.16a1.49,1.49,0,0,1,1.23,1.48v5.44l-26.86,0c0-3.06,2.5-4.56,5.57-4.56"/><polygon class="cls-8" points="256.43 259.54 263.38 259.7 263.52 253.86 256.57 253.69 256.43 259.54"/><polygon class="cls-11" points="255.77 265.98 263.93 266.01 263.96 257.54 255.79 257.52 255.77 265.98"/><path class="cls-10" d="M265.19,268.68a1.51,1.51,0,0,1-1.52,1.52H238.33v-2l26.86,0Z"/><path class="cls-12" d="M238.34,268.23c0-3.06,2.5-4.56,5.57-4.56h5.33l.92,0a1.65,1.65,0,0,1,.31,0,2.84,2.84,0,0,0,1.27-.53,2.19,2.19,0,0,1,.2-.22,1.85,1.85,0,0,0,.3-1v0l0-.12h0v-.12a3,3,0,0,1,6-.28h0v.2a2.85,2.85,0,1,0,5.69,0v-.16a1.5,1.5,0,0,1,1.26,1.48v5.44Z"/><polygon class="cls-7" points="253.16 254.68 253.16 141.21 270.4 141.21 267.14 254.68 253.16 254.68"/><path class="cls-13" d="M253.16,253.83v.85h2.48a5.56,5.56,0,0,1-2.3-.74,1.74,1.74,0,0,0-.18-.11"/><path class="cls-13" d="M264.08,241.61c2.57-14.12.43-27.81,2.14-41.93,2.48-19.45,4.57-40.1-1.88-58.47h6.06l-3.26,113.47h-14v-4.34c5-.86,9.76-2.91,10.92-8.73"/><polygon class="cls-7" points="232.77 141.21 234.35 196.38 235.09 221.98 236.03 254.68 250.01 254.68 250.01 141.21 232.77 141.21"/><path class="cls-9" d="M230.39,57.13v78.54a2.85,2.85,0,0,0,.16,1.05,2.38,2.38,0,0,0,.43.82v0a2.87,2.87,0,0,0,1.8,1.15,1.46,1.46,0,0,0,.56.07h36.48a2.63,2.63,0,0,0,.49,0,4.17,4.17,0,0,0,.86-.3,3.16,3.16,0,0,0,1.6-2.79V57.13a3.84,3.84,0,0,0-.06-.62,3.16,3.16,0,0,0-1-1.84,2.81,2.81,0,0,0-1.84-.69l-1.51-.26-11.68-2.1-.88-.17-5.12-.88-.07,0L243.18,52l-1.11.23-3.42.65-3.93.76-1.51.26a5.39,5.39,0,0,0-1.54.75,2.83,2.83,0,0,0-1.25,1.91,4,4,0,0,0,0,.62"/><path class="cls-14" d="M243.15,52.45a6.27,6.27,0,0,0,12.53,0V31.86a6.27,6.27,0,0,0-12.53,0Z"/><g class="cls-15"><g class="cls-16"><path class="cls-14" d="M250.08,51c-1.72-1-4.6,1.87-6.93,1.46V31.86a6.27,6.27,0,0,1,12.53,0V52.45a6.23,6.23,0,0,1-3.07,5.37c.87-4.14,1.41-4.46-2.53-6.83"/></g></g><path class="cls-3" d="M233.63,32a13,13,0,1,0,26.09,0V18.27a13,13,0,1,0-26.09,0Z"/><path class="cls-17" d="M253.59,29.32c2.56-4.27,4.27-12.38-.43-14.94-4.7-3-10.68,0-16.23-1.71a6.22,6.22,0,0,0-2.37.76,13,13,0,0,1,25.16,4.84V32a13,13,0,0,1-19.55,11.31,40.43,40.43,0,0,0,13.42-14"/><path class="cls-18" d="M233.67,17.29S231.42-1.18,249.37.06c9.69-.06,9.69,5.8,9.69,5.8s6.47-.24,8.36,4a32.5,32.5,0,0,1,2.07,11.31c0,8.3-4.76,15.16-10.95,16.3a13.53,13.53,0,0,0,1.11-5.39l.07-6.91a18.14,18.14,0,0,0-1.66,3.26c-1.09,2.71-1.45,3.8-1.45,2.45,0,0,3.64-19.39-2-19.61-4.58-.18-2.87,1.76-9.34,1.9-3.53.07-6.23-2.79-8.18-2.29-3.27.84-3.47,6.37-3.47,6.37"/><path class="cls-18" d="M257.73,21.13s-.19,12.49-5.52,13.35a50.85,50.85,0,0,1-11.84.3A28.2,28.2,0,0,1,233.78,33s-3.62,15.31-.94,16.8c5.91,3.32,18.06,1.36,22.78-5.41,1.46-2.1,6.07-10.45,6.07-19l5-3.34Z"/><path class="cls-18" d="M233.47,46.57c9.82,4.27,20.93-1.28,25.62-11.1.43-1.28,4.27-2.56,5.55-4.27,5.55-5.55,3-14.94,1.28-22.2a5.94,5.94,0,0,0-2.56-2.48,6.5,6.5,0,0,1,4.06,3.38,32.5,32.5,0,0,1,2.07,11.31c0,8-4.43,14.68-10.31,16.16a37.25,37.25,0,0,1-3.56,7c-4.72,6.78-16.87,8.74-22.78,5.42-.83-.46-1.06-2.24-1-4.48a7.31,7.31,0,0,0,1.6,1.24"/><path class="cls-17" d="M259.44,30.34c1.39.58,3.24-.71,4.13-2.87s.5-4.39-.89-5-3.24.71-4.14,2.88-.49,4.38.9,4.95"/><path class="cls-14" d="M260.2,28.26c.56.29,1.37-.18,1.81-1s.37-1.79-.19-2.08-1.36.18-1.81,1-.36,1.8.19,2.08"/><path class="cls-18" d="M246.24,22.91a14.51,14.51,0,0,1,4.65,0,1.44,1.44,0,0,0,1.6-1.09,1.37,1.37,0,0,0-1.25-1.56,17.08,17.08,0,0,0-5.34,0,1.37,1.37,0,0,0-1.26,1.56,1.44,1.44,0,0,0,1.6,1.09"/><path class="cls-18" d="M235.32,22.91a14.51,14.51,0,0,1,4.65,0,1.44,1.44,0,0,0,1.6-1.09,1.37,1.37,0,0,0-1.25-1.56,17.08,17.08,0,0,0-5.34,0,1.38,1.38,0,0,0-1.26,1.56,1.44,1.44,0,0,0,1.6,1.09"/><rect class="cls-9" x="243.92" y="56.89" width="11.81" height="6.07"/><polygon class="cls-19" points="251.48 59.11 253.27 84.55 249.82 108.93 245.62 84.55 247.56 59.11 251.48 59.11"/><path class="cls-20" d="M245.53,59.11a2.22,2.22,0,0,0,2.22,2.23h3.39a2.23,2.23,0,0,0,0-4.45h-3.39a2.22,2.22,0,0,0-2.22,2.22"/><path class="cls-13" d="M230.39,57.13v78.54a2.85,2.85,0,0,0,.16,1.05,2.38,2.38,0,0,0,.43.82v0a2.87,2.87,0,0,0,1.8,1.15,1.46,1.46,0,0,0,.56.07h36.48a2.63,2.63,0,0,0,.49,0,4.17,4.17,0,0,0,.86-.3,3.16,3.16,0,0,0,1.6-2.79V57.13a3.84,3.84,0,0,0-.06-.62,3.16,3.16,0,0,0-1-1.84,2.81,2.81,0,0,0-1.84-.69l-1.51-.26-11.68-2.1-7.08,42.46-7.48-41.9-3.42.65-3.93.76-1.51.26a5.39,5.39,0,0,0-1.54.75,2.83,2.83,0,0,0-1.25,1.91,4,4,0,0,0,0,.62"/><path class="cls-5" d="M271.66,54.67a2.81,2.81,0,0,0-1.84-.69l-.37-.07c-1.25.73-2.08,1.56-2.08,2-4.13,26.41,1.65,52-5.78,77.57-.82,2.48-4.95,3.3-7.42,3.3-7.33.39-15,.6-22.64,1.39a2.77,2.77,0,0,0,1.25.58,1.46,1.46,0,0,0,.56.07h36.48a2.69,2.69,0,0,0,.49,0,4.17,4.17,0,0,0,.86-.3,3.16,3.16,0,0,0,1.6-2.79V57.13a3.84,3.84,0,0,0-.06-.62,3.16,3.16,0,0,0-1-1.84"/><path class="cls-21" d="M255.74,51.46l4.51.81,4.13,16.42-8.64,5.83,1.54,10.41-7.73,9.15Z"/><path class="cls-21" d="M243.18,52c-.44.07-3.55.68-3.55.68l-3.51,16.06L244,74.52l-2.25,10.74,7.83,8.82Z"/><path class="cls-22" d="M247.63,102.69a2.39,2.39,0,1,1,2.39,2.39,2.39,2.39,0,0,1-2.39-2.39"/><path class="cls-22" d="M247.63,126.76a2.39,2.39,0,1,1,2.39,2.38,2.39,2.39,0,0,1-2.39-2.38"/><path class="cls-22" d="M247.63,114.72a2.39,2.39,0,1,1,2.39,2.39,2.39,2.39,0,0,1-2.39-2.39"/><g class="cls-23"><g class="cls-24"><path class="cls-9" d="M272.77,163.73l-.07.7a1.2,1.2,0,0,0,.07.53Z"/></g></g><path class="cls-4" d="M249.47,56.89a30.05,30.05,0,0,0,3.1,3.11c1.79,1.5,3.7,3,3.7,3L259,52l-3.24-.58a7.27,7.27,0,0,1-6.27,5.43"/><path class="cls-4" d="M249.47,56.89l-6.8,6.6L240,52.58l3.22-.64a6.57,6.57,0,0,0,6.27,5"/><path class="cls-25" d="M69.63,210.76c0-2.89,21.56-5.24,48.16-5.24S166,207.87,166,210.76,144.39,216,117.79,216s-48.16-2.34-48.16-5.24"/><path class="cls-26" d="M139.5,199.69a1.3,1.3,0,0,0-.52-.46,13.06,13.06,0,0,1-5.42-6.25,1.06,1.06,0,0,1-.05-.68l2.32-10a1.06,1.06,0,0,0-.18-.92l-11.06-15.56a1.09,1.09,0,0,1-.07-1.21L131.15,153a.92.92,0,0,0,.15-.59l-.37-9.1a1.3,1.3,0,0,1,.73-1.16l10.47-5.75v-6.76l-15.52,7.61a2,2,0,0,1-2.11-.24l-12-10.54a.94.94,0,0,1-.27-.33l-6.89-11.7a1.14,1.14,0,0,1-.15-.62l.39-9.31a1.15,1.15,0,0,1,.3-.73l26.47-30a1.41,1.41,0,0,1,.45-.34L179,49.15a1.21,1.21,0,0,0,.15-2.16l-1.47-1a2,2,0,0,0-1.85-.15L134.17,63.39a1.88,1.88,0,0,1-2.31-.66l-13-23.89a1.88,1.88,0,0,0-2.51-.56l-5,2.87a1.19,1.19,0,0,0-.52,1.72l15.35,24.07a1.16,1.16,0,0,1-.25,1.53L119,74.53l-11,9.68-.08.08-11.57,12a1.94,1.94,0,0,1-2.51.14L67.67,75.38a1.56,1.56,0,0,1-.32-.36L54.22,53a1.51,1.51,0,0,0-.62-.55c-1.55-.79-6.84-3.35-3.94-.25,2.71,2.9,7.57,15.11,9.39,19.8.36.9-.52,1.8-1.7,1.75L15.74,71.85a2.32,2.32,0,0,0-.37,0l-7.25,1a1.46,1.46,0,0,0-1.4,1.33V76c0,.93,1.16,1.58,2.26,1.25l6.5-1.93a1.88,1.88,0,0,1,.75-.07l45.92,4a2,2,0,0,1,1,.35L89.46,99.14a1.18,1.18,0,0,1,.52,1.11l-.75,6.44-.39,6.24a1.18,1.18,0,0,0,.39.93l8.28,8a1.22,1.22,0,0,1,.35.61l2.09,9.23a1.29,1.29,0,0,0,.37.62l11.52,10.95a1.14,1.14,0,0,1,.35,1.16l-3,10.64a1.36,1.36,0,0,1-.58.73L97,163.6a1.93,1.93,0,0,1-2.45-.28l-17.78-21a1.55,1.55,0,0,0-.68-.46L48.7,131.32a2.12,2.12,0,0,0-1.45,0l-2.31.88a1.29,1.29,0,0,0-.94,1.19,1.51,1.51,0,0,0,1.67,1.37,1.91,1.91,0,0,1,.89.2l22.9,11.39a1.9,1.9,0,0,1,.45.34l13,13.92c.2.2-23.12,9.42-23.09,9.68L63.36,173c0,.38,20.37-5.26,20.74-5l15.67,14.5a1.27,1.27,0,0,1,.42.41l10.55,15.41a1.22,1.22,0,0,1-.6,1.82L81.19,213.75c-1.43.67-.91,2.42.75,2.51l46.8,2.26,21.44,1c1.31.07,2.21-1.06,1.56-2Z"/><path class="cls-27" d="M122.9,195l5.47,8.12.37,15.39,21.44,1c1.31.07,2.2-1.06,1.56-2L139.5,199.69a1.3,1.3,0,0,0-.52-.46,13.06,13.06,0,0,1-5.42-6.25,1.06,1.06,0,0,1-.05-.68l2.32-10a1.06,1.06,0,0,0-.18-.92l-11.06-15.56a1.09,1.09,0,0,1-.07-1.21L131.15,153a.92.92,0,0,0,.15-.59l-.37-9.1a1.3,1.3,0,0,1,.73-1.16l41-22.54a1.65,1.65,0,0,1,.66-.21L184,116.2s-4.28-.45-4.4-.44l-9.92-.14c-1.21.1-2.13-.85-1.75-1.77l9.9-23.31c.37-.88-.43-1.78-1.58-1.78h-3.11a1.67,1.67,0,0,0-1.62,1l-10.57,30a1.42,1.42,0,0,1-.71.78l-17.56,8.86-16.08,7.88a1.94,1.94,0,0,1-2.11-.25l-12-10.53a.94.94,0,0,1-.27-.33l-6.89-11.7a1.14,1.14,0,0,1-.15-.62l.39-9.31a1.15,1.15,0,0,1,.3-.73l26.47-30a1.41,1.41,0,0,1,.45-.34L179,49.15a1.21,1.21,0,0,0,.15-2.16l-1.47-1a2,2,0,0,0-1.85-.15L134.17,63.39a1.89,1.89,0,0,1-2.31-.66l-13-23.89a1.88,1.88,0,0,0-2.51-.56l-5,2.87a1.19,1.19,0,0,0-.52,1.72l15.35,24.07a1.16,1.16,0,0,1-.25,1.53L119,74.53l1.82,2.72-19,19.63L99.33,113.8l10.52,15.9,15.58,12.18-4.21,11.51-5.47,14.55,8,13.87Z"/><path class="cls-28" d="M165.93,210.89c-.26,1.11-3.69,2.14-9.34,3-8.77,1.3-22.88,2.14-38.8,2.14-26.18,0-47.48-2.27-48.14-5.11,1.72,20.19,15,55.68,19.54,61.54s12.8,7.28,28.6,7.28,25.74-4.44,28.59-7.28c10.18-14.42,17.4-36.29,19.55-61.54"/><path class="cls-29" d="M25.74,137.15a14,14,0,0,0,18.15,7.76L33.5,119a14,14,0,0,0-7.76,18.16"/><path class="cls-29" d="M51.65,126.76a14.11,14.11,0,0,1,1,4.12,14,14,0,0,1-6.37,12.82,14.16,14.16,0,0,1-2.36,1.21L33.5,119l.88-.32a14,14,0,0,1,17.27,8.09"/><path class="cls-30" d="M31,120a14,14,0,1,0,18.16,7.76A14,14,0,0,0,31,120"/><path class="cls-29" d="M25.4,137.29a11.61,11.61,0,0,0,15.1,6.45l-8.64-21.56a11.61,11.61,0,0,0-6.46,15.11"/><path class="cls-29" d="M31.86,122.19l8.64,21.55a11.61,11.61,0,1,0-8.64-21.55"/><path class="cls-30" d="M29,129.28a1.31,1.31,0,0,1,.07.49.6.6,0,0,0-.39,0c-.38.15-.61.59,0,2,.47,1.16.74,1.41,1.12,1.26a1.32,1.32,0,0,0,.47-.31,1.09,1.09,0,0,1,.28.39c.12.31-.11.62-.62.82-.74.3-1.25.07-2-1.79-.87-2.18-.29-2.83.31-3.07s.71-.06.79.13"/><path class="cls-30" d="M29.85,128.58c.83-.34,1.41-.24,1.84.84a1.6,1.6,0,0,1,0,1.44,3.46,3.46,0,0,1,1.33,1.65c.05.13,0,.18-.32.32a3.16,3.16,0,0,1-.44.15,3.55,3.55,0,0,0-1.15-1.62l-.12,0-.05,0,.67,1.65c.05.14,0,.14-.69.43L29.15,129a.13.13,0,0,1,.08-.18Zm.85,2.17.14-.05c.21-.09.28-.29,0-1-.19-.48-.36-.66-.57-.57l-.19.07Z"/><path class="cls-30" d="M34.53,131.93c0,.14.06.13-.69.43l-.76-1.9-1.88-2.29c-.08-.1-.06-.11.8-.45l.54.79c.2.29.55.91.7,1.2-.09-.31-.26-1-.32-1.37l-.13-.79c0-.15,0-.15.74-.45l.27,3Z"/><path class="cls-30" d="M34.44,126.74c.84-.34,1.41-.24,1.84.84s0,1.74-.66,2l0,0,.66,1.66c.05.13.05.14-.68.43l-1.81-4.51c0-.09,0-.14.08-.18l0,0Zm1,2.11c.21-.08.28-.29,0-1-.17-.42-.34-.6-.56-.52l-.18.08.61,1.53Z"/><path class="cls-30" d="M38.29,125.19l.22.56c0,.1,0,.15-.08.19l-.71.28L39.25,130c.06.13,0,.14-.68.42L37,126.52l-.81.32-.23-.56c0-.09,0-.15.08-.18Z"/><path class="cls-30" d="M39.43,124.66c.86-.35,1.39,0,2.12,1.86s.59,2.59-.28,2.94-1.37,0-2.16-1.94c-.72-1.8-.53-2.52.32-2.86m1.58,4c.33-.13.21-.63-.26-1.81s-.67-1.59-1-1.45-.23.62.29,1.93c.42,1,.65,1.47,1,1.33"/><path class="cls-30" d="M29,136.13a1.14,1.14,0,0,1,.07.49.6.6,0,0,0-.39,0c-.38.15-.61.59,0,2,.46,1.16.74,1.42,1.11,1.27a1.29,1.29,0,0,0,.48-.31,1.21,1.21,0,0,1,.27.39c.12.31-.11.61-.61.81-.75.3-1.26.08-2-1.79-.87-2.17-.28-2.83.31-3.07s.71-.06.79.14"/><path class="cls-30" d="M31.22,138.82c.17.43.33.6.68.46a.84.84,0,0,0,.36-.24l-1.53-3.8c-.06-.15-.06-.15.69-.45l1.79,4.46a2.55,2.55,0,0,1-1,.71c-1,.42-1.43-.13-1.72-.86l-1.3-3.23c0-.14,0-.14.71-.45Z"/><path class="cls-30" d="M32.52,134.36c.83-.34,1.4-.24,1.84.84a1.6,1.6,0,0,1,0,1.44,3.46,3.46,0,0,1,1.33,1.65c.05.13,0,.18-.32.32l-.44.15a3.55,3.55,0,0,0-1.15-1.62l-.12.05,0,0,.66,1.65c.06.13,0,.14-.68.43l-1.8-4.51a.13.13,0,0,1,.07-.18Zm.85,2.17.14-.05c.21-.09.28-.3,0-1-.19-.48-.36-.66-.57-.57l-.19.07Z"/><path class="cls-30" d="M34.87,133.41c.84-.33,1.41-.23,1.84.85a1.58,1.58,0,0,1,0,1.43,3.5,3.5,0,0,1,1.32,1.66c0,.12,0,.17-.32.32-.11,0-.26.1-.44.15a3.42,3.42,0,0,0-1.15-1.62l-.11.05-.06,0,.67,1.66c.05.13,0,.14-.68.42l-1.81-4.5a.15.15,0,0,1,.08-.19Zm.85,2.18.14-.06c.21-.08.28-.29,0-1-.2-.48-.37-.65-.58-.57l-.18.08Z"/><path class="cls-30" d="M39.74,136.08c.25.62.27.66.14.71l-1.55.62-1.81-4.51a.14.14,0,0,1,.08-.18l1.59-.64c.24.59.26.66.13.71l-.85.34.45,1.14.81-.33c.22.56.27.68.15.73l-.69.27.61,1.52Z"/><path class="cls-30" d="M40.17,131.44c-.06-.13,0-.14.68-.43l1.81,4.51a.14.14,0,0,1-.08.19l-.57.23-1.42-1.5a13.75,13.75,0,0,1-1-1.32c.27.51.54,1.08.71,1.5l.64,1.59c.05.13.05.13-.68.43l-1.81-4.51a.13.13,0,0,1,.08-.19l.58-.23,1.4,1.47a11,11,0,0,1,1,1.24,12.72,12.72,0,0,1-.67-1.44Z"/><path class="cls-30" d="M43.2,130.45a1.12,1.12,0,0,1,.07.49.59.59,0,0,0-.39,0c-.38.15-.61.6,0,2,.46,1.16.74,1.41,1.11,1.26a1.17,1.17,0,0,0,.48-.31,1.4,1.4,0,0,1,.27.4c.12.31-.11.61-.61.81-.74.3-1.26.07-2-1.79-.88-2.17-.29-2.83.3-3.07s.71-.06.79.14"/><path class="cls-30" d="M46.48,134c.05.13.07.12-.68.42l-.76-1.9-1.89-2.29c-.08-.1-.06-.1.8-.45l.54.79c.2.3.56.92.71,1.2a12.92,12.92,0,0,1-.32-1.36l-.13-.8c0-.14,0-.14.73-.44l.27,3Z"/><g class="cls-31"><g class="cls-32"><path class="cls-30" d="M28,121.64l-5.66,13.24a13.71,13.71,0,0,0,.86,3.25L31,120A13.72,13.72,0,0,0,28,121.64"/><path class="cls-30" d="M35.82,119l-10,23.35a13.9,13.9,0,0,0,6.41,4l10.9-25.49A14,14,0,0,0,35.82,119"/></g></g><path class="cls-29" d="M166.71,38.12a15,15,0,0,0,11.67,17.75l6.08-29.42a15,15,0,0,0-17.75,11.67"/><path class="cls-29" d="M196.13,44.2a15,15,0,0,1-14.91,12,15.33,15.33,0,0,1-2.84-.31l6.08-29.42c.33.07.66.15,1,.24A15,15,0,0,1,196.13,44.2"/><path class="cls-30" d="M181.6,25.86a15,15,0,1,0,11.67,17.75A15,15,0,0,0,181.6,25.86"/><path class="cls-29" d="M166.33,38A12.48,12.48,0,0,0,176,52.8l5.05-24.46A12.49,12.49,0,0,0,166.33,38"/><path class="cls-29" d="M181.09,28.34,176,52.8a12.49,12.49,0,1,0,5.05-24.46"/><path class="cls-30" d="M174.34,33a1.34,1.34,0,0,1-.23.48.77.77,0,0,0-.37-.21c-.42-.09-.89.18-1.23,1.82-.28,1.32-.18,1.71.24,1.8a1.58,1.58,0,0,0,.61,0,1.22,1.22,0,0,1,0,.51c-.08.35-.46.49-1,.37-.84-.18-1.17-.69-.73-2.8.51-2.47,1.42-2.71,2.1-2.57s.67.37.63.59"/><path class="cls-30" d="M175.49,32.88c.95.19,1.4.62,1.15,1.85a1.68,1.68,0,0,1-.82,1.3,3.84,3.84,0,0,1,.21,2.28c0,.14-.07.18-.48.09a3,3,0,0,1-.48-.12,3.94,3.94,0,0,0-.07-2.14l-.14,0-.06,0L174.41,38c0,.15,0,.15-.86,0l1-5.12a.16.16,0,0,1,.19-.12ZM175,35.33l.16,0c.24,0,.43-.09.59-.87.11-.54.06-.8-.18-.85l-.21,0Z"/><path class="cls-30" d="M177.69,38.67c0,.15,0,.15-.86,0l.44-2.16L177,33.31c0-.13,0-.13,1,.07l0,1c0,.39,0,1.15-.09,1.5a14.37,14.37,0,0,1,.53-1.41l.35-.8c.08-.14.08-.14.93,0l-1.55,2.86Z"/><path class="cls-30" d="M180.71,34c.94.19,1.4.62,1.15,1.84s-1.08,1.54-1.78,1.4l-.06,0-.39,1.89c0,.15,0,.14-.87,0l1.06-5.11c0-.11.05-.15.18-.12h.06Zm-.38,2.48c.24.05.43-.09.61-.93.09-.49.05-.75-.19-.8l-.21,0-.36,1.74Z"/><path class="cls-30" d="M185.07,34.86l-.13.63c0,.12-.08.14-.18.12l-.81-.17-.89,4.33c0,.16-.05.15-.87,0l.93-4.48-.92-.19.13-.63c0-.11.08-.14.18-.12Z"/><path class="cls-30" d="M186.42,35.06c1,.2,1.22.85.79,2.92s-1,2.68-2,2.48-1.24-.8-.78-3c.42-2,1-2.58,2-2.38m-1,4.54c.38.08.57-.44.84-1.78s.34-1.82-.06-1.9-.57.42-.88,1.9c-.24,1.18-.28,1.7.1,1.78"/><path class="cls-30" d="M170.27,39.16a1.19,1.19,0,0,1-.23.48.7.7,0,0,0-.36-.2c-.43-.09-.9.17-1.24,1.82-.27,1.31-.17,1.7.25,1.79a1.4,1.4,0,0,0,.61,0,1.43,1.43,0,0,1,0,.51c-.08.35-.46.49-1,.37-.85-.18-1.17-.68-.74-2.8.51-2.47,1.43-2.71,2.1-2.57s.67.37.63.59"/><path class="cls-30" d="M170.64,42.87c-.1.49-.07.74.33.82a.89.89,0,0,0,.46,0l.9-4.32c0-.16,0-.16.88,0l-1.05,5a2.57,2.57,0,0,1-1.35,0c-1.18-.24-1.2-1-1-1.8l.76-3.66c0-.16,0-.16.9,0Z"/><path class="cls-30" d="M174.45,39.64c1,.2,1.4.63,1.15,1.86a1.7,1.7,0,0,1-.82,1.3,3.76,3.76,0,0,1,.2,2.27c0,.15-.06.19-.47.1a4.78,4.78,0,0,1-.48-.12,3.94,3.94,0,0,0-.07-2.14l-.14,0h-.06l-.39,1.87c0,.16-.05.15-.86,0l1.05-5.11a.16.16,0,0,1,.18-.12Zm-.53,2.46.16,0c.24,0,.43-.09.59-.87.11-.54.06-.8-.18-.85l-.21,0Z"/><path class="cls-30" d="M177.12,40.2c.95.19,1.4.62,1.15,1.85a1.68,1.68,0,0,1-.82,1.3,3.82,3.82,0,0,1,.21,2.27c0,.15-.08.19-.48.1a4.78,4.78,0,0,1-.48-.12,3.83,3.83,0,0,0-.07-2.14l-.14,0h-.06L176,45.31c0,.15,0,.14-.86,0l1.06-5.11a.14.14,0,0,1,.17-.12Zm-.53,2.45.16,0c.24,0,.43-.09.59-.87.11-.54.06-.8-.18-.85l-.21-.05Z"/><path class="cls-30" d="M179.91,45.49c-.15.69-.16.74-.3.71l-1.76-.36,1.05-5.12a.16.16,0,0,1,.19-.12l1.8.37c-.14.67-.15.75-.3.72l-1-.2-.27,1.28.92.19c-.13.64-.16.77-.3.74l-.78-.16-.35,1.73Z"/><path class="cls-30" d="M183,41.58c0-.15.05-.15.87,0l-1.06,5.11a.14.14,0,0,1-.18.12L182,46.7l-.38-2.18a14.05,14.05,0,0,1-.11-1.78c-.06.62-.16,1.29-.25,1.77l-.38,1.8c0,.15,0,.15-.86,0l1.05-5.12a.14.14,0,0,1,.18-.12l.67.14.38,2.14a13.33,13.33,0,0,1,.11,1.69c.07-.65.15-1.19.25-1.69Z"/><path class="cls-30" d="M186.35,42.49a1.34,1.34,0,0,1-.22.48.64.64,0,0,0-.37-.21c-.43-.09-.9.17-1.24,1.82-.27,1.32-.17,1.71.25,1.8a1.38,1.38,0,0,0,.61,0,1.08,1.08,0,0,1,0,.51c-.07.36-.46.49-1,.37-.84-.17-1.17-.68-.73-2.79.51-2.47,1.42-2.71,2.1-2.57s.67.36.62.59"/><path class="cls-30" d="M187.19,47.61c0,.15,0,.15-.86,0l.44-2.16-.32-3.17c0-.14,0-.14,1,.07v1a14.26,14.26,0,0,1-.08,1.49c.1-.33.37-1.06.53-1.41l.35-.79c.08-.14.08-.14.93,0l-1.55,2.87Z"/><g class="cls-31"><g class="cls-33"><path class="cls-30" d="M178,25.56,165,34.07a15.57,15.57,0,0,0-1.16,3.43l17.71-11.64a14.73,14.73,0,0,0-3.6-.3"/><path class="cls-30" d="M186.54,27.84l-22.82,15a15,15,0,0,0,3.36,7.41L192,33.87a15.12,15.12,0,0,0-5.47-6"/></g></g><path class="cls-29" d="M2.55,77.5a12.08,12.08,0,0,0,9.38,14.27l4.89-23.65A12.07,12.07,0,0,0,2.55,77.5"/><path class="cls-29" d="M26.19,82.39a11.84,11.84,0,0,1-1.27,3.43A12,12,0,0,1,14.21,92a11.79,11.79,0,0,1-2.28-.25l4.88-23.65.8.19a12.08,12.08,0,0,1,8.58,14.08"/><path class="cls-30" d="M14.52,67.65A12.08,12.08,0,1,0,23.9,81.92a12.08,12.08,0,0,0-9.38-14.27"/><path class="cls-29" d="M2.24,77.44A10.05,10.05,0,0,0,10,89.31l4.07-19.67a10,10,0,0,0-11.87,7.8"/><path class="cls-29" d="M14.11,69.64,10,89.31a10,10,0,0,0,4.07-19.67"/><path class="cls-30" d="M8.68,73.4a1.29,1.29,0,0,1-.18.39.62.62,0,0,0-.3-.17c-.34-.07-.72.14-1,1.47-.22,1-.14,1.37.2,1.44a1.15,1.15,0,0,0,.49,0,1,1,0,0,1,0,.42c-.06.28-.37.39-.84.29-.67-.14-.93-.55-.58-2.25.41-2,1.14-2.18,1.69-2.06s.53.29.5.47"/><path class="cls-30" d="M9.61,73.29c.76.16,1.12.5.92,1.49a1.37,1.37,0,0,1-.66,1A3,3,0,0,1,10,77.65c0,.12-.06.15-.38.08a2.49,2.49,0,0,1-.39-.1,3.11,3.11,0,0,0-.06-1.72l-.11,0h0L8.74,77.4c0,.12,0,.12-.7,0l.85-4.11a.13.13,0,0,1,.15-.1Zm-.43,2,.13,0c.19,0,.34-.08.47-.71.09-.43.05-.64-.14-.68l-.17,0Z"/><path class="cls-30" d="M11.38,77.94c0,.12,0,.13-.7,0L11,76.19l-.26-2.55c0-.11,0-.11.79,0v.83a11.4,11.4,0,0,1-.07,1.2c.08-.26.3-.85.43-1.13l.28-.64c.06-.11.06-.11.74,0l-1.24,2.3Z"/><path class="cls-30" d="M13.8,74.15c.76.16,1.13.51.92,1.49s-.86,1.24-1.43,1.12h0l-.31,1.51c0,.12,0,.12-.7,0l.85-4.12c0-.08.05-.11.15-.09h0Zm-.3,2c.19,0,.34-.07.48-.75.08-.39,0-.6-.15-.64l-.17,0-.29,1.4Z"/><path class="cls-30" d="M17.31,74.88l-.11.51c0,.09-.06.11-.14.09l-.65-.13-.72,3.48c0,.12,0,.12-.7,0l.75-3.61L15,75.06l.11-.51c0-.08.05-.11.14-.1Z"/><path class="cls-30" d="M18.39,75c.79.16,1,.68.64,2.35s-.81,2.15-1.61,2-1-.64-.63-2.43.82-2.07,1.6-1.91m-.79,3.65c.31.06.46-.35.68-1.43s.27-1.46-.05-1.53-.46.34-.7,1.53c-.2.95-.24,1.37.07,1.43"/><path class="cls-30" d="M5.41,78.34a1.09,1.09,0,0,1-.18.39.58.58,0,0,0-.3-.17c-.34-.07-.72.14-1,1.46-.22,1.06-.14,1.38.2,1.45a1,1,0,0,0,.49,0,.94.94,0,0,1,0,.41c0,.29-.37.39-.82.3-.68-.14-.94-.55-.59-2.25.41-2,1.14-2.18,1.69-2.06s.53.29.5.47"/><path class="cls-30" d="M5.71,81.32c-.09.4-.06.6.26.66a.76.76,0,0,0,.37,0l.72-3.47c0-.13,0-.13.71,0l-.84,4.07a2.18,2.18,0,0,1-1.09,0c-.94-.2-1-.77-.83-1.45l.61-2.94c0-.13,0-.13.73,0Z"/><path class="cls-30" d="M8.77,78.73c.76.16,1.13.5.92,1.49a1.35,1.35,0,0,1-.66,1,2.94,2.94,0,0,1,.17,1.82c0,.12-.06.15-.38.08l-.39-.1a3,3,0,0,0-.06-1.72H8.21L7.9,82.84c0,.12,0,.11-.69,0l.85-4.11a.12.12,0,0,1,.14-.1Zm-.43,2,.13,0c.19,0,.34-.08.47-.71.09-.43.06-.64-.14-.68l-.17,0Z"/><path class="cls-30" d="M10.92,79.17c.76.16,1.12.51.92,1.49a1.35,1.35,0,0,1-.66,1,3.05,3.05,0,0,1,.17,1.83c0,.11-.06.14-.39.08l-.39-.11a3,3,0,0,0-.05-1.71l-.11,0h-.05l-.31,1.51c0,.12,0,.12-.7,0l.85-4.11a.13.13,0,0,1,.15-.1Zm-.43,2,.13,0c.19,0,.34-.07.47-.7.09-.44.05-.65-.14-.69l-.17,0Z"/><path class="cls-30" d="M13.15,83.43C13,84,13,84,12.91,84l-1.41-.29.85-4.12s0-.12.14-.09l1.46.3c-.11.54-.13.6-.25.57l-.78-.16-.21,1,.74.16c-.11.51-.13.61-.24.59l-.63-.13-.28,1.39Z"/><path class="cls-30" d="M15.68,80.28c0-.12,0-.12.69,0l-.85,4.11a.11.11,0,0,1-.14.1l-.52-.11-.31-1.75a12.6,12.6,0,0,1-.09-1.43c0,.49-.13,1-.2,1.42L14,84.09c0,.12,0,.12-.7,0L14.11,80c0-.09.06-.12.15-.1l.53.11.3,1.72a10.12,10.12,0,0,1,.1,1.36,11,11,0,0,1,.2-1.36Z"/><path class="cls-30" d="M18.34,81a1,1,0,0,1-.18.39.54.54,0,0,0-.3-.17c-.34-.07-.72.14-1,1.47-.22,1-.14,1.37.2,1.44a1.17,1.17,0,0,0,.49,0,.92.92,0,0,1,0,.41c-.06.28-.37.39-.83.29-.68-.14-.94-.55-.59-2.25.41-2,1.14-2.17,1.69-2.06s.53.29.5.47"/><path class="cls-30" d="M19,85.13c0,.12,0,.13-.69,0l.35-1.73-.26-2.55c0-.11,0-.11.79,0v.83a11.81,11.81,0,0,1-.06,1.21c.08-.27.3-.86.42-1.14l.29-.63c.06-.12.06-.12.74,0l-1.25,2.31Z"/><g class="cls-31"><g class="cls-34"><path class="cls-30" d="M11.6,67.41,1.19,74.25A12,12,0,0,0,.26,77l14.23-9.36a11.83,11.83,0,0,0-2.89-.23"/><path class="cls-30" d="M18.49,69.24.14,81.3a12.15,12.15,0,0,0,2.71,6l20-13.18a12.17,12.17,0,0,0-4.39-4.84"/></g></g><path class="cls-29" d="M74.74,95.93a8.77,8.77,0,0,0,6.82,10.37l3.55-17.19a8.79,8.79,0,0,0-10.37,6.82"/><path class="cls-29" d="M91.93,99.48a8.78,8.78,0,0,1-8.71,7,7.88,7.88,0,0,1-1.66-.18l3.55-17.19.58.14a8.78,8.78,0,0,1,6.24,10.23"/><path class="cls-30" d="M83.45,88.77a8.78,8.78,0,1,0,6.81,10.37,8.77,8.77,0,0,0-6.81-10.37"/><path class="cls-29" d="M74.52,95.89a7.3,7.3,0,0,0,5.67,8.62l3-14.3a7.31,7.31,0,0,0-8.63,5.68"/><path class="cls-29" d="M83.15,90.21l-3,14.3a7.3,7.3,0,1,0,3-14.3"/><path class="cls-30" d="M79.2,93a.81.81,0,0,1-.13.28.42.42,0,0,0-.22-.12c-.25,0-.52.1-.72,1.06-.16.77-.1,1,.14,1a.89.89,0,0,0,.36,0,.74.74,0,0,1,0,.3c0,.2-.27.28-.61.21s-.68-.4-.42-1.63c.29-1.44.83-1.59,1.22-1.5s.39.21.37.34"/><path class="cls-30" d="M79.87,92.87c.56.11.82.36.67,1.08a1,1,0,0,1-.47.76A2.31,2.31,0,0,1,80.19,96c0,.08,0,.11-.28.06L79.63,96a2.32,2.32,0,0,0,0-1.25l-.08,0h0l-.23,1.1c0,.09,0,.09-.5,0l.62-3a.08.08,0,0,1,.1-.07Zm-.31,1.43.1,0c.14,0,.25,0,.34-.51s0-.47-.1-.5l-.13,0Z"/><path class="cls-30" d="M81.16,96.25c0,.09,0,.09-.51,0L80.92,95l-.19-1.86c0-.08,0-.08.57,0v.6c0,.23,0,.68,0,.88.06-.2.22-.62.31-.83l.2-.46c0-.08,0-.08.54,0l-.9,1.68Z"/><path class="cls-30" d="M82.92,93.5c.55.11.82.36.67,1.08s-.62.9-1,.81h0l-.23,1.1c0,.09,0,.09-.51,0l.62-3c0-.06,0-.08.11-.07h0ZM82.7,95c.14,0,.25,0,.35-.55.06-.28,0-.43-.11-.46l-.12,0-.21,1Z"/><path class="cls-30" d="M85.47,94l-.07.37c0,.07-.05.09-.11.07l-.47-.09L84.3,96.9c0,.09,0,.08-.51,0l.54-2.62-.54-.11.08-.37c0-.06,0-.08.11-.06Z"/><path class="cls-30" d="M86.26,94.14c.57.12.71.5.46,1.71s-.59,1.57-1.17,1.45-.72-.47-.46-1.77.6-1.51,1.17-1.39m-.57,2.66c.22,0,.33-.26.49-1s.2-1.07,0-1.12-.34.25-.52,1.12c-.14.69-.17,1,.06,1"/><path class="cls-30" d="M76.82,96.54a.66.66,0,0,1-.13.28.43.43,0,0,0-.21-.12c-.26,0-.53.1-.73,1.06-.16.77-.1,1,.15,1a.84.84,0,0,0,.35,0,.73.73,0,0,1,0,.3c0,.2-.27.28-.6.21-.49-.1-.69-.4-.43-1.63.3-1.44.83-1.59,1.23-1.51s.39.22.36.35"/><path class="cls-30" d="M77,98.71c-.06.28,0,.43.19.48a.6.6,0,0,0,.27,0L78,96.66c0-.09,0-.09.52,0l-.61,3a1.76,1.76,0,0,1-.79,0c-.69-.15-.71-.57-.6-1L77,96.45c0-.1,0-.1.52,0Z"/><path class="cls-30" d="M79.27,96.82c.55.12.81.37.67,1.08a1,1,0,0,1-.48.77,2.26,2.26,0,0,1,.12,1.32c0,.09,0,.11-.28.06L79,100a2.33,2.33,0,0,0,0-1.25h-.12l-.22,1.1c0,.09,0,.08-.51,0l.62-3s0-.09.1-.07ZM79,98.26l.09,0c.14,0,.25-.06.34-.51s0-.47-.1-.5l-.12,0Z"/><path class="cls-30" d="M80.83,97.14c.55.12.82.37.67,1.09A1,1,0,0,1,81,99a2.28,2.28,0,0,1,.12,1.33c0,.08,0,.1-.28.05l-.28-.07a2.34,2.34,0,0,0,0-1.25h-.12l-.22,1.1c0,.09,0,.09-.51,0l.62-3s0-.09.1-.07Zm-.31,1.44.09,0c.14,0,.25-.06.34-.51s0-.47-.1-.5l-.12,0Z"/><path class="cls-30" d="M82.45,100.24c-.08.4-.09.43-.17.41l-1-.21.62-3s0-.09.1-.07L83,97.6c-.08.39-.09.44-.18.42l-.56-.12-.16.75.53.11c-.07.37-.09.45-.17.43L82,99.1l-.21,1Z"/><path class="cls-30" d="M84.29,98c0-.09,0-.09.5,0l-.62,3c0,.06,0,.08-.1.07l-.38-.08-.22-1.27a8.37,8.37,0,0,1-.07-1,8.44,8.44,0,0,1-.15,1L83,100.72c0,.09,0,.08-.51,0l.62-3c0-.07,0-.09.1-.07l.39.08L83.86,99a7.79,7.79,0,0,1,.07,1c0-.37.08-.69.14-1Z"/><path class="cls-30" d="M86.22,98.48a.61.61,0,0,1-.13.28.39.39,0,0,0-.21-.12c-.25,0-.53.1-.73,1.07-.16.76-.1,1,.15,1a.7.7,0,0,0,.35,0,.74.74,0,0,1,0,.3c0,.2-.27.28-.6.21-.49-.1-.69-.39-.43-1.63.3-1.44.83-1.58,1.23-1.5s.39.21.36.34"/><path class="cls-30" d="M86.71,101.48c0,.09,0,.09-.51,0l.27-1.26-.19-1.85c0-.08,0-.08.57,0V99c0,.23,0,.68,0,.88a7.71,7.71,0,0,1,.31-.83l.2-.46c.05-.08.05-.08.55,0L87,100.27Z"/><g class="cls-31"><g class="cls-35"><path class="cls-30" d="M81.32,88.59l-7.56,5a8.73,8.73,0,0,0-.68,2l10.35-6.81a9.49,9.49,0,0,0-2.11-.17"/><path class="cls-30" d="M86.33,89.92,73,98.69A8.82,8.82,0,0,0,75,103l14.56-9.57a8.81,8.81,0,0,0-3.19-3.53"/></g></g><path class="cls-29" d="M52.22,170.69A10,10,0,0,0,60,182.55l4.06-19.66a10,10,0,0,0-11.86,7.8"/><path class="cls-29" d="M71.88,174.75a10,10,0,0,1-10,8,10.22,10.22,0,0,1-1.89-.21l4.06-19.66.66.16a10,10,0,0,1,7.14,11.7"/><path class="cls-30" d="M62.17,162.5A10,10,0,1,0,70,174.36a10,10,0,0,0-7.8-11.86"/><path class="cls-29" d="M52,170.64a8.33,8.33,0,0,0,6.48,9.86l3.38-16.35A8.35,8.35,0,0,0,52,170.64"/><path class="cls-29" d="M61.83,164.15,58.45,180.5a8.35,8.35,0,1,0,3.38-16.35"/><path class="cls-30" d="M57.31,167.28a.64.64,0,0,1-.15.32.54.54,0,0,0-.24-.14c-.29-.05-.6.12-.83,1.22-.18.88-.11,1.14.17,1.2a1,1,0,0,0,.41,0,.77.77,0,0,1,0,.34c0,.24-.3.32-.69.24-.56-.11-.78-.45-.49-1.86.35-1.65,1-1.81,1.41-1.72s.45.24.41.39"/><path class="cls-30" d="M58.09,167.19c.63.13.93.42.77,1.23a1.18,1.18,0,0,1-.55.88,2.5,2.5,0,0,1,.14,1.51c0,.1-.05.13-.32.07l-.33-.08a2.57,2.57,0,0,0,0-1.43l-.09,0h0l-.26,1.25c0,.1,0,.1-.58,0l.71-3.42a.1.1,0,0,1,.12-.08Zm-.36,1.64.11,0c.16,0,.28-.06.39-.58s.05-.54-.11-.57l-.15,0Z"/><path class="cls-30" d="M59.56,171.06c0,.1,0,.1-.58,0l.3-1.44-.22-2.12c0-.09,0-.09.66.05v.68c0,.26,0,.77-.06,1,.07-.22.25-.7.35-.94l.24-.53c.05-.09.05-.09.62,0l-1,1.91Z"/><path class="cls-30" d="M61.57,167.91c.64.13.94.42.77,1.23s-.72,1-1.19.93h0l-.26,1.25c0,.1,0,.1-.58,0l.71-3.42c0-.07,0-.1.12-.08h0Zm-.25,1.66c.16,0,.29-.06.41-.62.06-.33,0-.5-.13-.53l-.14,0-.24,1.16Z"/><path class="cls-30" d="M64.49,168.51l-.09.42c0,.08-.05.1-.12.08l-.54-.11-.6,2.9c0,.1,0,.1-.57,0l.61-3-.61-.13.09-.42c0-.07.05-.1.12-.08Z"/><path class="cls-30" d="M65.39,168.64c.65.14.82.57.53,2s-.68,1.79-1.33,1.65-.84-.53-.53-2,.68-1.73,1.33-1.6m-.65,3c.25,0,.38-.29.56-1.19s.23-1.21,0-1.27-.38.28-.59,1.27c-.16.79-.19,1.14.07,1.19"/><path class="cls-30" d="M54.6,171.39a1,1,0,0,1-.15.32.44.44,0,0,0-.25-.14c-.28-.06-.6.12-.82,1.22-.19.88-.12,1.14.16,1.2a.94.94,0,0,0,.41,0,.78.78,0,0,1,0,.34c0,.24-.3.33-.68.25-.57-.12-.78-.46-.49-1.87.34-1.65.95-1.81,1.4-1.72s.45.25.42.4"/><path class="cls-30" d="M54.85,173.87c-.07.32-.05.49.22.55a.8.8,0,0,0,.31,0l.59-2.89c0-.11,0-.11.59,0l-.7,3.38a1.8,1.8,0,0,1-.9,0c-.79-.16-.8-.64-.69-1.2l.51-2.45c0-.11,0-.11.6,0Z"/><path class="cls-30" d="M57.39,171.71c.64.13.94.42.77,1.24a1.13,1.13,0,0,1-.55.87,2.54,2.54,0,0,1,.14,1.52c0,.1,0,.12-.32.06a1.85,1.85,0,0,1-.32-.08,2.53,2.53,0,0,0,0-1.43h-.13l-.26,1.25c0,.11,0,.1-.58,0l.71-3.42a.1.1,0,0,1,.12-.08ZM57,173.35l.1,0c.17,0,.29-.06.4-.58.07-.36,0-.54-.12-.57l-.14,0Z"/><path class="cls-30" d="M59.18,172.08c.63.13.93.42.76,1.24a1.12,1.12,0,0,1-.54.87,2.48,2.48,0,0,1,.13,1.52c0,.09,0,.12-.31.06l-.33-.08a2.57,2.57,0,0,0,0-1.43h-.13l-.26,1.25c0,.1,0,.1-.58,0l.7-3.42a.1.1,0,0,1,.12-.08Zm-.36,1.64.11,0c.16,0,.28-.06.39-.58.08-.36,0-.54-.12-.57l-.14,0Z"/><path class="cls-30" d="M61,175.61c-.1.47-.11.5-.2.48l-1.18-.24.71-3.42a.1.1,0,0,1,.12-.08l1.21.25c-.1.45-.11.5-.21.48l-.64-.14-.18.86.61.13c-.09.42-.11.51-.2.49l-.52-.1-.24,1.15Z"/><path class="cls-30" d="M63.13,173c0-.1,0-.1.58,0l-.7,3.41c0,.06-.06.1-.12.08l-.44-.09L62.2,175a10.79,10.79,0,0,1-.08-1.19A9,9,0,0,1,62,175l-.25,1.2c0,.11,0,.11-.58,0l.71-3.42c0-.07.05-.09.12-.08l.45.09.25,1.44a8.2,8.2,0,0,1,.08,1.12,10.23,10.23,0,0,1,.16-1.13Z"/><path class="cls-30" d="M65.35,173.61a1,1,0,0,1-.15.32.44.44,0,0,0-.25-.14c-.28-.06-.6.12-.83,1.22-.18.88-.11,1.14.17,1.2a.94.94,0,0,0,.41,0,.78.78,0,0,1,0,.34c0,.24-.3.33-.68.25-.57-.12-.79-.46-.49-1.87.34-1.65,1-1.81,1.4-1.72s.45.25.42.4"/><path class="cls-30" d="M65.91,177c0,.1,0,.11-.58,0l.3-1.44-.22-2.12c0-.1,0-.09.66,0v.69c0,.26,0,.77-.06,1,.07-.22.25-.71.35-.94l.24-.53c0-.1,0-.1.62,0l-1,1.92Z"/><g class="cls-31"><g class="cls-36"><path class="cls-30" d="M59.74,162.3,51.09,168a10.12,10.12,0,0,0-.77,2.29l11.83-7.78a9.9,9.9,0,0,0-2.41-.2"/><path class="cls-30" d="M65.47,163.82l-15.25,10a10,10,0,0,0,2.25,5l16.65-11a10,10,0,0,0-3.65-4"/></g></g><path class="cls-29" d="M167.38,87.67a10.11,10.11,0,0,0,7.86,12l4.09-19.81a10.11,10.11,0,0,0-12,7.86"/><path class="cls-29" d="M187.19,91.76a10,10,0,0,1-1.07,2.88,10.14,10.14,0,0,1-9,5.19,10.34,10.34,0,0,1-1.91-.21l4.09-19.81L180,80a10.12,10.12,0,0,1,7.2,11.79"/><path class="cls-30" d="M177.41,79.41a10.11,10.11,0,1,0,7.86,12,10.11,10.11,0,0,0-7.86-12"/><path class="cls-29" d="M167.12,87.62a8.41,8.41,0,0,0,6.54,9.94l3.4-16.48a8.41,8.41,0,0,0-9.94,6.54"/><path class="cls-29" d="M177.06,81.08l-3.4,16.48a8.41,8.41,0,1,0,3.4-16.48"/><path class="cls-30" d="M172.51,84.23a.73.73,0,0,1-.15.32.45.45,0,0,0-.25-.13c-.28-.06-.6.11-.83,1.22-.18.89-.12,1.15.17,1.21a1,1,0,0,0,.41,0,1,1,0,0,1,0,.34c-.05.24-.31.33-.7.25-.57-.12-.79-.46-.49-1.88.34-1.67,1-1.83,1.41-1.74s.45.25.42.4"/><path class="cls-30" d="M173.29,84.14c.64.13,1,.42.78,1.24a1.16,1.16,0,0,1-.56.88,2.5,2.5,0,0,1,.14,1.53c0,.1-.05.13-.32.07l-.32-.08a2.71,2.71,0,0,0,0-1.45h-.13l-.27,1.27c0,.1,0,.1-.58,0l.71-3.44a.11.11,0,0,1,.13-.08Zm-.36,1.65.11,0c.16,0,.29-.06.4-.59.07-.36,0-.54-.12-.57l-.14,0Z"/><path class="cls-30" d="M174.78,88c0,.1,0,.1-.59,0l.3-1.45-.22-2.14c0-.09,0-.09.66,0l0,.69c0,.26,0,.77-.06,1,.07-.23.25-.72.35-1l.24-.54c.05-.09.05-.09.62,0l-1,1.93Z"/><path class="cls-30" d="M176.81,84.86c.63.13.94.42.77,1.25s-.72,1-1.2.94h0l-.26,1.27c0,.1,0,.1-.59,0l.72-3.45c0-.07,0-.09.12-.08h0Zm-.26,1.68c.17,0,.29-.06.41-.63.07-.33,0-.5-.13-.54l-.14,0-.24,1.17Z"/><path class="cls-30" d="M179.74,85.47l-.08.43c0,.08-.06.09-.13.08l-.54-.12-.6,2.92c0,.1,0,.1-.58,0l.62-3-.62-.13.09-.43c0-.07,0-.09.12-.08Z"/><path class="cls-30" d="M180.65,85.6c.66.14.82.58.53,2s-.67,1.81-1.34,1.67-.84-.53-.53-2,.69-1.74,1.34-1.61M180,88.66c.26.06.39-.29.57-1.19s.23-1.23,0-1.28-.39.28-.59,1.28c-.17.79-.2,1.14.06,1.19"/><path class="cls-30" d="M169.77,88.37a.73.73,0,0,1-.15.32.54.54,0,0,0-.24-.14c-.29-.06-.61.12-.84,1.23-.18.89-.12,1.15.17,1.21a.94.94,0,0,0,.41,0,1,1,0,0,1,0,.35c0,.24-.31.33-.7.25-.57-.12-.79-.46-.49-1.89.34-1.66,1-1.82,1.41-1.73s.45.25.42.4"/><path class="cls-30" d="M170,90.87c-.07.33,0,.5.23.55a.64.64,0,0,0,.31,0l.6-2.91c0-.11,0-.11.59,0l-.7,3.41a1.85,1.85,0,0,1-.91,0c-.8-.17-.81-.65-.7-1.21l.51-2.47c0-.11,0-.11.61,0Z"/><path class="cls-30" d="M172.59,88.69c.64.14.94.43.77,1.25a1.13,1.13,0,0,1-.55.88,2.58,2.58,0,0,1,.14,1.53c0,.1,0,.12-.32.07l-.33-.09a2.6,2.6,0,0,0,0-1.44h-.13l-.27,1.27c0,.1,0,.1-.58,0l.71-3.44a.1.1,0,0,1,.12-.08Zm-.36,1.66.11,0c.16,0,.29-.06.4-.59.07-.36,0-.54-.12-.57l-.15,0Z"/><path class="cls-30" d="M174.39,89.07c.64.13.94.42.77,1.25a1.13,1.13,0,0,1-.55.87,2.58,2.58,0,0,1,.14,1.53c0,.1-.05.13-.32.07l-.33-.09a2.62,2.62,0,0,0,0-1.44h-.14l-.26,1.27c0,.1,0,.1-.58,0l.71-3.44a.1.1,0,0,1,.12-.08ZM174,90.72l.11,0c.16,0,.29-.06.4-.59.07-.36,0-.54-.12-.57l-.15,0Z"/><path class="cls-30" d="M176.27,92.63c-.1.47-.11.5-.21.48l-1.18-.25.71-3.44s0-.1.12-.08l1.22.25c-.09.45-.1.5-.21.48l-.65-.13-.18.86.62.13c-.09.43-.11.52-.2.5l-.53-.11-.24,1.16Z"/><path class="cls-30" d="M178.38,90c0-.11,0-.1.58,0l-.71,3.45a.1.1,0,0,1-.12.08l-.44-.09L177.43,92a9,9,0,0,1-.07-1.2c0,.41-.11.87-.17,1.19l-.25,1.21c0,.11,0,.1-.59,0l.72-3.45c0-.07.05-.09.12-.08l.44.1.26,1.44a10.36,10.36,0,0,1,.08,1.13,10.23,10.23,0,0,1,.16-1.13Z"/><path class="cls-30" d="M180.61,90.61a.87.87,0,0,1-.15.32.66.66,0,0,0-.25-.14c-.29-.06-.61.12-.84,1.23-.18.89-.11,1.15.17,1.21a.93.93,0,0,0,.41,0,.68.68,0,0,1,0,.35c-.05.24-.31.32-.7.24-.56-.11-.78-.45-.49-1.88.35-1.66,1-1.82,1.42-1.73s.45.25.42.4"/><path class="cls-30" d="M181.17,94.06c0,.1,0,.1-.58,0l.3-1.46-.22-2.13c0-.1,0-.09.66,0v.7c0,.26,0,.77-.05,1a8.54,8.54,0,0,1,.35-1l.24-.53c.05-.1.05-.1.62,0l-1,1.93Z"/><g class="cls-31"><g class="cls-37"><path class="cls-30" d="M175,79.21l-8.72,5.73a10.3,10.3,0,0,0-.78,2.31l11.93-7.84a10.06,10.06,0,0,0-2.43-.2"/><path class="cls-30" d="M180.73,80.74,165.36,90.85a10.1,10.1,0,0,0,2.27,5l16.79-11a10.22,10.22,0,0,0-3.69-4.06"/></g></g><path class="cls-29" d="M107,45.92a12.08,12.08,0,0,0,9.38,14.27l4.89-23.65A12.08,12.08,0,0,0,107,45.92"/><path class="cls-29" d="M130.61,50.81a12.08,12.08,0,0,1-1.28,3.43A11.84,11.84,0,0,1,126,58a12,12,0,0,1-9.66,2.15l4.89-23.65c.27.05.53.12.79.19a12.08,12.08,0,0,1,8.59,14.08"/><path class="cls-30" d="M118.93,36.06a12.07,12.07,0,1,0,9.38,14.27,12.08,12.08,0,0,0-9.38-14.27"/><path class="cls-29" d="M106.66,45.86a10,10,0,0,0,7.8,11.86l4.06-19.66a10,10,0,0,0-11.86,7.8"/><path class="cls-29" d="M118.52,38.06l-4.06,19.66a10,10,0,0,0,4.06-19.66"/><path class="cls-30" d="M113.09,41.82a.9.9,0,0,1-.18.38.54.54,0,0,0-.3-.16c-.34-.07-.72.14-1,1.46-.22,1.06-.14,1.37.2,1.44a1,1,0,0,0,.49,0,.93.93,0,0,1,0,.41c-.06.29-.37.39-.83.3-.68-.14-.94-.55-.59-2.25.41-2,1.15-2.18,1.69-2.07s.54.3.5.48"/><path class="cls-30" d="M114,41.71c.76.15,1.13.5.92,1.48a1.37,1.37,0,0,1-.65,1.05,3.08,3.08,0,0,1,.16,1.83c0,.11-.06.14-.38.08l-.39-.1a3.13,3.13,0,0,0-.05-1.72l-.11,0h0l-.32,1.51c0,.12,0,.12-.69,0l.85-4.12a.11.11,0,0,1,.14-.09Zm-.43,2,.13,0c.19,0,.35-.07.48-.7.08-.43,0-.64-.15-.68l-.17,0Z"/><path class="cls-30" d="M115.79,46.36c0,.12,0,.12-.7,0l.36-1.74-.26-2.55c0-.11,0-.1.79.06v.83a11.61,11.61,0,0,1-.06,1.2c.08-.27.29-.85.42-1.14l.28-.63c.07-.11.07-.11.75,0l-1.25,2.3Z"/><path class="cls-30" d="M118.21,42.57c.77.16,1.13.5.93,1.49s-.87,1.23-1.43,1.12h0l-.31,1.51c0,.12,0,.12-.7,0l.85-4.11c0-.09,0-.12.14-.1h0Zm-.3,2c.2,0,.35-.07.49-.75.08-.39,0-.6-.15-.64l-.17,0-.29,1.39Z"/><path class="cls-30" d="M121.72,43.3l-.1.5c0,.1-.07.12-.15.1l-.65-.13-.72,3.48c0,.12,0,.12-.69,0l.74-3.6-.74-.15.11-.51c0-.09.06-.12.14-.1Z"/><path class="cls-30" d="M122.8,43.46c.79.16,1,.68.64,2.35s-.81,2.15-1.6,2-1-.64-.64-2.43.82-2.08,1.6-1.91M122,47.11c.3.06.45-.35.68-1.43s.27-1.47,0-1.53-.46.34-.71,1.53c-.19,1-.23,1.37.08,1.43"/><path class="cls-30" d="M109.82,46.76a.9.9,0,0,1-.18.38.48.48,0,0,0-.29-.16c-.35-.07-.73.14-1,1.46-.22,1.06-.14,1.37.2,1.44a1,1,0,0,0,.49,0,.93.93,0,0,1,0,.41c-.06.29-.37.39-.83.3-.68-.14-.94-.55-.59-2.25.41-2,1.15-2.18,1.69-2.07s.54.3.5.48"/><path class="cls-30" d="M110.12,49.74c-.08.39-.05.59.27.66a.76.76,0,0,0,.37,0l.72-3.48c0-.12,0-.12.71,0L111.35,51a2.16,2.16,0,0,1-1.09,0c-1-.2-1-.78-.83-1.45l.61-2.94c0-.13,0-.13.72,0Z"/><path class="cls-30" d="M113.18,47.14c.77.16,1.13.51.93,1.49a1.38,1.38,0,0,1-.66,1,3.08,3.08,0,0,1,.16,1.83c0,.12,0,.15-.38.08l-.39-.1a3.13,3.13,0,0,0,0-1.72l-.11,0h-.05l-.31,1.51c0,.12,0,.12-.7,0l.85-4.11a.12.12,0,0,1,.15-.09Zm-.42,2,.13,0c.19,0,.34-.07.47-.7.09-.43,0-.64-.14-.68l-.17,0Z"/><path class="cls-30" d="M115.33,47.59c.76.16,1.13.5.92,1.49a1.35,1.35,0,0,1-.66,1.05,3,3,0,0,1,.17,1.82c0,.12-.06.15-.38.08a3.21,3.21,0,0,1-.39-.1,3,3,0,0,0-.06-1.72h-.15l-.32,1.51c0,.12,0,.12-.69,0l.85-4.11a.12.12,0,0,1,.14-.1Zm-.43,2,.13,0c.19,0,.35-.08.48-.7.08-.44,0-.65-.15-.69l-.17,0Z"/><path class="cls-30" d="M117.57,51.84c-.12.56-.12.6-.24.57l-1.42-.29.85-4.11a.13.13,0,0,1,.15-.1l1.45.3c-.11.54-.12.6-.24.58l-.78-.16-.22,1,.74.15c-.1.51-.13.62-.24.6l-.62-.13-.29,1.38Z"/><path class="cls-30" d="M120.09,48.7c0-.12,0-.12.7,0l-.85,4.11a.11.11,0,0,1-.15.09l-.52-.1L119,51.06a10.62,10.62,0,0,1-.08-1.43c0,.5-.13,1-.21,1.42l-.3,1.45c0,.12,0,.12-.7,0l.85-4.12a.11.11,0,0,1,.15-.09l.53.11.31,1.72a11.94,11.94,0,0,1,.09,1.36,13.32,13.32,0,0,1,.2-1.36Z"/><path class="cls-30" d="M122.75,49.43a1,1,0,0,1-.18.39.55.55,0,0,0-.29-.17c-.35-.07-.72.14-1,1.46-.22,1.06-.14,1.38.2,1.45a1.14,1.14,0,0,0,.49,0,.93.93,0,0,1,0,.41c-.06.29-.37.39-.83.3-.68-.14-.94-.55-.59-2.25.41-2,1.15-2.18,1.69-2.07s.54.3.5.48"/><path class="cls-30" d="M123.43,53.55c0,.12,0,.12-.7,0l.36-1.73-.26-2.55c0-.11,0-.11.79,0v.83a11.4,11.4,0,0,1-.07,1.2c.08-.26.3-.85.43-1.13l.28-.64c.06-.11.06-.11.75,0l-1.25,2.3Z"/><g class="cls-31"><g class="cls-38"><path class="cls-30" d="M116,35.82,105.6,42.66a12.63,12.63,0,0,0-.93,2.76l14.24-9.36a12,12,0,0,0-2.9-.24"/><path class="cls-30" d="M122.9,37.65,104.55,49.72a12.07,12.07,0,0,0,2.71,6l20-13.17a12.16,12.16,0,0,0-4.4-4.85"/></g></g><path class="cls-29" d="M36.9,48.4a13.31,13.31,0,0,0,16.41,9.23L46.13,32A13.31,13.31,0,0,0,36.9,48.4"/><path class="cls-29" d="M62.54,41.22a12.9,12.9,0,0,1,.49,4,13.32,13.32,0,0,1-9.72,12.4L46.13,32q.43-.12.87-.21a13.31,13.31,0,0,1,15.54,9.44"/><path class="cls-30" d="M43.64,32.69a13.31,13.31,0,1,0,16.42,9.23,13.31,13.31,0,0,0-16.42-9.23"/><path class="cls-29" d="M36.57,48.5a11.07,11.07,0,0,0,13.65,7.67l-6-21.33A11.08,11.08,0,0,0,36.57,48.5"/><path class="cls-29" d="M44.25,34.84l6,21.33a11.07,11.07,0,0,0-6-21.33"/><path class="cls-30" d="M40.83,41.28a1.1,1.1,0,0,1,0,.47.6.6,0,0,0-.38,0c-.37.1-.63.5-.23,1.94.32,1.14.56,1.41.93,1.31a1.2,1.2,0,0,0,.48-.24,1,1,0,0,1,.22.39c.09.31-.17.57-.67.71-.73.21-1.19-.06-1.71-1.9-.6-2.15,0-2.72.61-2.88s.68,0,.73.21"/><path class="cls-30" d="M41.68,40.7c.83-.23,1.36-.08,1.66,1a1.52,1.52,0,0,1-.11,1.36,3.32,3.32,0,0,1,1.08,1.71c0,.12,0,.17-.33.27l-.43.1a3.51,3.51,0,0,0-.93-1.66l-.11,0h-.06l.46,1.64c0,.14,0,.14-.69.34L41,41a.14.14,0,0,1,.1-.17Zm.58,2.15.14,0c.21-.06.3-.25.11-.93-.13-.47-.28-.66-.48-.6l-.19,0Z"/><path class="cls-30" d="M45.77,44.36c0,.13,0,.13-.69.34l-.53-1.89L43,40.45c-.07-.1,0-.11.8-.35l.43.81c.16.3.43.92.55,1.21a13.4,13.4,0,0,1-.17-1.33l0-.76c0-.14,0-.14.74-.35l0,2.88Z"/><path class="cls-30" d="M46.23,39.43c.82-.24,1.36-.08,1.66,1s-.22,1.64-.84,1.81l0,0,.46,1.64c0,.13,0,.13-.69.33l-1.25-4.46c0-.09,0-.13.09-.16l.06,0ZM47,41.54c.21-.06.3-.25.09-1-.12-.43-.26-.61-.47-.55l-.18.05.42,1.51Z"/><path class="cls-30" d="M50,38.36l.16.55c0,.1,0,.14-.1.17l-.7.2,1.06,3.77c0,.13,0,.14-.69.34l-1.1-3.91-.8.22-.15-.55c0-.09,0-.14.09-.17Z"/><path class="cls-30" d="M51.18,38c.85-.24,1.3.17,1.81,2s.3,2.52-.56,2.76-1.31-.11-1.85-2.06c-.5-1.78-.25-2.45.6-2.68m1.07,4c.33-.1.27-.58,0-1.75s-.48-1.57-.83-1.47-.28.56.09,1.85c.28,1,.46,1.46.79,1.37"/><path class="cls-30" d="M40.13,47.78a1.09,1.09,0,0,1,0,.47.6.6,0,0,0-.38,0c-.37.11-.63.5-.23,1.94.32,1.15.56,1.41.93,1.31a1.27,1.27,0,0,0,.48-.24,1,1,0,0,1,.21.4c.09.31-.16.57-.66.71-.73.2-1.2-.06-1.71-1.91-.6-2.15,0-2.71.61-2.88s.67,0,.73.22"/><path class="cls-30" d="M41.93,50.55c.12.42.25.61.59.51a.85.85,0,0,0,.37-.19L41.83,47.1c0-.14,0-.14.71-.34l1.23,4.4a2.38,2.38,0,0,1-1.06.57c-1,.29-1.34-.27-1.54-1l-.9-3.19c0-.14,0-.14.72-.35Z"/><path class="cls-30" d="M43.62,46.45c.82-.23,1.35-.07,1.65,1a1.49,1.49,0,0,1-.11,1.36,3.32,3.32,0,0,1,1.09,1.7c0,.13,0,.17-.34.27l-.43.1a3.44,3.44,0,0,0-.92-1.66l-.12,0,0,0,.46,1.64c0,.13,0,.13-.69.33l-1.25-4.46a.13.13,0,0,1,.09-.17Zm.58,2.15.14,0c.21-.06.3-.24.1-.92-.13-.48-.27-.66-.48-.6l-.19.05Z"/><path class="cls-30" d="M46,45.8c.82-.23,1.35-.08,1.65,1a1.48,1.48,0,0,1-.11,1.36,3.38,3.38,0,0,1,1.09,1.71c0,.12,0,.17-.34.27l-.43.1a3.44,3.44,0,0,0-.92-1.66l-.12,0-.05,0,.45,1.63c0,.14,0,.14-.69.34l-1.24-4.46a.13.13,0,0,1,.09-.17ZM46.53,48l.14,0c.2-.06.29-.25.1-.93-.13-.47-.27-.65-.48-.6l-.19,0Z"/><path class="cls-30" d="M50.29,48.84c.17.6.18.64.06.68L48.81,50l-1.25-4.46a.14.14,0,0,1,.1-.17l1.57-.44c.17.58.18.65.05.69l-.84.23.31,1.12.8-.22c.15.55.19.67.07.7l-.68.19.42,1.51Z"/><path class="cls-30" d="M51.17,44.48c0-.13,0-.14.69-.34l1.25,4.46a.13.13,0,0,1-.09.17l-.57.16-1.18-1.56A12.22,12.22,0,0,1,50.45,46,13.47,13.47,0,0,1,51,47.5l.44,1.58c0,.13,0,.13-.69.33L49.47,45c0-.1,0-.15.1-.17l.57-.17,1.18,1.54a11.42,11.42,0,0,1,.77,1.28A13.69,13.69,0,0,1,51.6,46Z"/><path class="cls-30" d="M54.15,43.85a1.09,1.09,0,0,1,0,.47.6.6,0,0,0-.38,0c-.37.11-.63.51-.23,1.94.32,1.15.56,1.42.93,1.31a1.14,1.14,0,0,0,.48-.24,1.16,1.16,0,0,1,.22.4c.08.31-.17.57-.67.71-.73.2-1.19-.06-1.71-1.9-.6-2.16,0-2.72.61-2.88s.67,0,.73.21"/><path class="cls-30" d="M56.89,47.54c0,.13,0,.13-.69.34L55.68,46l-1.55-2.37c-.07-.1-.05-.11.8-.35l.43.81c.16.3.44.93.55,1.21A11,11,0,0,1,55.75,44l0-.76c0-.14,0-.14.75-.35l-.06,2.89Z"/><g class="cls-31"><g class="cls-39"><path class="cls-30" d="M40.66,33.93l-6.74,12a13.38,13.38,0,0,0,.48,3.17l9.21-16.38a13.33,13.33,0,0,0-3,1.24"/><path class="cls-30" d="M48.33,32.23,36.46,53.34a13.32,13.32,0,0,0,5.67,4.47l13-23.05a13.39,13.39,0,0,0-6.76-2.53"/></g></g><path class="cls-25" d="M180.28,137.26c2.2,2.25,6.51,1.48,9.79-1.75s4.13-7.52,1.93-9.76-6.51-1.48-9.8,1.75-4.13,7.51-1.92,9.76m1-1c-1.6-1.64-.73-5.21,1.9-7.8s6.23-3.4,7.84-1.77.73,5.21-1.91,7.8-6.22,3.4-7.83,1.77"/><path class="cls-25" d="M170.81,157.79l23.77.21a1.85,1.85,0,0,0,1.74-3,15.43,15.43,0,0,0-1.92-2.3c-1.22-1.25-2.59-2.34-3.16-2.35l-20.39,3.23a2.1,2.1,0,0,0-1.9,1.18,2,2,0,0,0-.21.89,2.08,2.08,0,0,0,2.07,2.1"/><path class="cls-25" d="M170.08,156l26.24-.91a15.43,15.43,0,0,0-1.92-2.3c-1.22-1.25-2.59-2.34-3.16-2.35l-20.39,3.23c-.84,0-.43,1.63-.77,2.33"/><path class="cls-25" d="M170.72,161.54a2.41,2.41,0,0,0,2.43-2.4l.06-6.63a2.42,2.42,0,1,0-4.83,0l-.06,6.63a2.43,2.43,0,0,0,2.4,2.44"/><path class="cls-25" d="M202.35,130.41l7.19-7.06c5.45,6.2,8,13.52,7.18,19.24l3.43,2.9c2.22-7.79-1.1-18.28-9.11-26.44a2,2,0,0,0-2.84,0l-8.93,8.77Z"/><path class="cls-28" d="M223.93,148.69l-27-22.83a4,4,0,0,0-5.69,0l-5.47,5.37-5.28,5.2a4,4,0,0,0,0,5.69l22.35,27.34a4,4,0,0,0,5.69.06l15.35-15.09a4,4,0,0,0,.05-5.69"/><g class="cls-40"><g class="cls-41"><path class="cls-25" d="M223.93,148.69l-27-22.83a4,4,0,0,0-5.46-.24c8.06,6.67,14,14.76,16.09,25.65,1.46,7.3-1.12,12.83-5.23,17.57l.46.57a4,4,0,0,0,5.69.06l15.35-15.09a4,4,0,0,0,.05-5.69"/></g></g><rect class="cls-6" x="219.3" y="126.15" width="8.75" height="5.06" transform="translate(-14.96 30.47) rotate(-7.54)"/><path class="cls-6" d="M217.54,125a2.56,2.56,0,0,1,3.05,1.92l.8,3.54a2.54,2.54,0,0,1-1.92,3l-3.54.8a2.54,2.54,0,0,1-3-1.92l-.8-3.54a2.55,2.55,0,0,1,1.92-3Z"/><path class="cls-4" d="M227.14,123.49a22.61,22.61,0,0,1-3.65.09l-.88,9.42a31,31,0,0,0,3.53.25Z"/><path class="cls-42" d="M229.13,123.5l-.64,3.17-1.64,8.07,1,.15a31.25,31.25,0,0,0,3.89.24,33.28,33.28,0,0,0,4-.21c10.41-1.13,21.7-6.8,31.39-16.64,6.75-6.86,9.88-14.85,11.57-24.54,1.9-10.87.41-23-4.42-36.19a5.12,5.12,0,0,0-9.62,3.53c9.8,26.68,1.91,40.93-6.23,49.2-6.76,6.89-14.53,11.5-21.84,12.85a29.07,29.07,0,0,1-3.88.46,24.48,24.48,0,0,1-3.54-.09"/><path class="cls-5" d="M229.48,123.23l-.64,3.16-1.64,8.08,1,.14a31.12,31.12,0,0,0,3.89.25l.93-11.55a24.49,24.49,0,0,1-3.54-.08"/><path class="cls-42" d="M225.61,121.9l-2.51,12.88a.74.74,0,0,0,.59.87l5.5,1.08a.75.75,0,0,0,.87-.59l2.51-12.88a.74.74,0,0,0-.58-.88l-5.51-1.07a.75.75,0,0,0-.87.59"/><path class="cls-22" d="M228.13,131.72a1.8,1.8,0,1,1-2.44.71,1.8,1.8,0,0,1,2.44-.71"/></g></g></g></svg>