<svg xmlns="http://www.w3.org/2000/svg" xmlns:xlink="http://www.w3.org/1999/xlink" viewBox="0 0 890.93 382.92"><defs><style>.cls-1{fill:none;}.cls-2{opacity:0.5;}.cls-3{clip-path:url(#clip-path);}.cls-4{fill:#f5f5f5;}.cls-5{fill:#e0e0e0;}.cls-6{fill:#fff;}.cls-7{clip-path:url(#clip-path-2);}.cls-8{fill:#ebebeb;}.cls-9{clip-path:url(#clip-path-3);}.cls-10{fill:#fafafa;}.cls-11{fill:#99a2a8;}.cls-12{fill:#ededed;}.cls-13{fill:#6b6a80;}.cls-14{fill:#f6f6f6;}.cls-15{opacity:0.1;}.cls-16{clip-path:url(#clip-path-4);}.cls-17{fill:#1d1d1b;}.cls-18{clip-path:url(#clip-path-5);}</style><clipPath id="clip-path" transform="translate(0 0)"><rect class="cls-1" y="287.19" width="134.5" height="95.73"/></clipPath><clipPath id="clip-path-2" transform="translate(0 0)"><rect class="cls-1" x="644.45" width="246.49" height="186.4"/></clipPath><clipPath id="clip-path-3" transform="translate(0 0)"><rect class="cls-1" x="519.22" y="21.5" width="120.44" height="107.83"/></clipPath><clipPath id="clip-path-4" transform="translate(0 0)"><rect class="cls-1" x="358.19" y="94.4" width="118.61" height="277.52"/></clipPath><clipPath id="clip-path-5" transform="translate(0 0)"><rect class="cls-1" x="145.58" y="51.47" width="161.25" height="330.54"/></clipPath></defs><g id="Capa_2" data-name="Capa 2"><g id="Capa_1-2" data-name="Capa 1"><g class="cls-2"><g class="cls-3"><polygon class="cls-4" points="4.83 345.5 4.83 382.92 59.55 382.92 119.91 382.92 119.91 345.5 4.83 345.5"/><polygon class="cls-5" points="0 335.04 0 345.5 123.93 345.5 123.93 335.04 59.55 335.04 0 335.04"/><polygon class="cls-5" points="61.97 382.92 119.91 382.92 119.91 345.5 123.93 345.5 123.93 335.04 59.55 335.04 59.55 344.53 61.97 382.92"/><rect class="cls-5" x="20.92" y="351.53" width="23.34" height="5.63"/><rect class="cls-6" x="17.92" y="364.21" width="29.97" height="11.89"/><polygon class="cls-4" points="15.4 297.65 15.4 335.07 70.12 335.07 130.48 335.07 130.48 297.65 15.4 297.65"/><polygon class="cls-5" points="10.57 287.19 10.57 297.65 134.5 297.65 134.5 287.19 70.12 287.19 10.57 287.19"/><polygon class="cls-5" points="72.54 335.07 130.48 335.07 130.48 297.65 134.5 297.65 134.5 287.19 70.12 287.19 70.12 296.68 72.54 335.07"/><rect class="cls-5" x="31.5" y="303.68" width="23.34" height="5.63"/><rect class="cls-6" x="28.49" y="316.36" width="29.97" height="11.9"/></g></g><g class="cls-2"><g class="cls-7"><path class="cls-5" d="M884.34,186s0-1.17,0-3.4,0-5.56,0-9.87c0-8.65,0-21.32-.08-37.47,0-32.28-.11-78.47-.18-134.2l.34.33L651.91,1.5h0l.4-.4c0,66.76,0,129.87,0,184.94l-.36-.36,167.92.18,47.56.1L880,186l3.24,0,1.12,0-1.07,0h-3.21l-12.54,0-47.48.09-168.15.18h-.36V186c0-55.07,0-118.18,0-184.94V.69h.43L884.34.76h.33V1.1c-.07,55.81-.13,102.08-.17,134.41,0,16.12-.07,28.76-.09,37.39,0,4.29,0,7.58,0,9.81s0,3.33,0,3.33" transform="translate(0 0)"/><rect class="cls-5" x="681.94" y="35.37" width="8.41" height="93.87"/><rect class="cls-8" x="698.16" y="67.25" width="8.41" height="61.99"/><rect class="cls-5" x="714.39" y="47.04" width="8.41" height="82.68"/><rect class="cls-8" x="730.62" y="39" width="8.41" height="90.24"/><rect class="cls-5" x="746.85" y="69.16" width="8.41" height="60.08"/><rect class="cls-8" x="763.07" y="80.95" width="8.41" height="48.3"/><rect class="cls-5" x="779.3" y="45.01" width="8.41" height="84.23"/><rect class="cls-8" x="795.53" y="60.19" width="8.41" height="69.05"/><rect class="cls-5" x="811.75" y="48.06" width="8.41" height="81.18"/><rect class="cls-8" x="827.98" y="73.93" width="8.41" height="55.31"/><rect class="cls-5" x="844.21" y="63.41" width="8.41" height="65.83"/><path class="cls-5" d="M856,135.78c0,.19-39.87.35-89,.35s-89-.16-89-.35,39.86-.34,89-.34,89,.15,89,.34" transform="translate(0 0)"/><path class="cls-5" d="M693.93,143.17c0,.19-2.8.34-6.24.34s-6.24-.15-6.24-.34,2.79-.35,6.24-.35,6.24.16,6.24.35" transform="translate(0 0)"/><path class="cls-5" d="M714.62,143.55c0,.19-3.34.34-7.46.34s-7.45-.15-7.45-.34,3.33-.35,7.45-.35,7.46.15,7.46.35" transform="translate(0 0)"/><path class="cls-5" d="M732.26,143.55c0,.19-3.33.34-7.45.34s-7.46-.15-7.46-.34,3.34-.35,7.46-.35,7.45.15,7.45.35" transform="translate(0 0)"/><path class="cls-5" d="M749.91,143.55c0,.19-3.34.34-7.45.34s-7.46-.15-7.46-.34,3.34-.35,7.46-.35,7.45.15,7.45.35" transform="translate(0 0)"/><path class="cls-5" d="M767.56,143.55c0,.19-3.34.34-7.45.34s-7.46-.15-7.46-.34,3.34-.35,7.46-.35,7.45.15,7.45.35" transform="translate(0 0)"/><path class="cls-5" d="M785.21,143.55c0,.19-3.34.34-7.46.34s-7.45-.15-7.45-.34,3.34-.35,7.45-.35,7.46.15,7.46.35" transform="translate(0 0)"/><path class="cls-5" d="M802.85,143.55c0,.19-3.33.34-7.45.34s-7.45-.15-7.45-.34,3.33-.35,7.45-.35,7.45.15,7.45.35" transform="translate(0 0)"/><path class="cls-5" d="M820.5,143.55c0,.19-3.34.34-7.45.34s-7.46-.15-7.46-.34,3.34-.35,7.46-.35,7.45.15,7.45.35" transform="translate(0 0)"/><path class="cls-5" d="M838.15,143.55c0,.19-3.34.34-7.45.34s-7.46-.15-7.46-.34,3.34-.35,7.46-.35,7.45.15,7.45.35" transform="translate(0 0)"/><path class="cls-5" d="M855.8,143.55c0,.19-3.34.34-7.46.34s-7.45-.15-7.45-.34,3.34-.35,7.45-.35,7.46.15,7.46.35" transform="translate(0 0)"/><rect class="cls-8" x="644.44" width="246.49" height="6.95"/></g></g><g class="cls-2"><g class="cls-9"><rect class="cls-10" x="519.53" y="21.82" width="119.85" height="107.23"/><path class="cls-5" d="M639.39,129.05s0-.69,0-2,0-3.24,0-5.75c0-5,0-12.39-.07-21.76,0-18.74-.09-45.51-.14-77.73l.27.27-119.85.05h0l.32-.32c0,39,0,75.72,0,107.23l-.29-.28,86.69.14,24.45.07,6.47,0h1.67l.58,0h-.55l-1.63,0-6.42,0-24.39.08-86.87.14h-.28v-.28c0-31.51,0-68.22,0-107.23V21.5h.33l119.85.05h.27v.27c-.06,32.29-.11,59.12-.14,77.9,0,9.34-.06,16.68-.07,21.7,0,2.49,0,4.39,0,5.7s0,1.93,0,1.93" transform="translate(0 0)"/><path class="cls-5" d="M565.49,40.87c0,.18-6.31.32-14.09.32s-14.09-.14-14.09-.32,6.31-.32,14.09-.32,14.09.15,14.09.32" transform="translate(0 0)"/><path class="cls-5" d="M616.27,48.92c0,.18-17.33.32-38.7.32s-38.71-.14-38.71-.32,17.33-.32,38.71-.32,38.7.15,38.7.32" transform="translate(0 0)"/><rect class="cls-5" x="537.52" y="62.56" width="5.05" height="5.05"/><rect class="cls-5" x="549.95" y="62.56" width="5.05" height="5.05"/><rect class="cls-5" x="562.61" y="62.33" width="5.05" height="5.05"/><rect class="cls-5" x="574.81" y="62.56" width="5.05" height="5.05"/><rect class="cls-5" x="587.24" y="62.56" width="5.05" height="5.05"/><rect class="cls-5" x="599.66" y="62.56" width="5.05" height="5.05"/><rect class="cls-8" x="612.09" y="62.56" width="5.05" height="5.05"/><rect class="cls-8" x="537.52" y="73.3" width="5.05" height="5.05"/><rect class="cls-5" x="549.95" y="73.3" width="5.05" height="5.05"/><rect class="cls-8" x="562.38" y="73.3" width="5.05" height="5.05"/><rect class="cls-5" x="574.81" y="73.3" width="5.05" height="5.05"/><rect class="cls-5" x="587.24" y="73.3" width="5.05" height="5.05"/><rect class="cls-5" x="599.89" y="73.07" width="5.05" height="5.05"/><rect class="cls-5" x="612.09" y="73.3" width="5.05" height="5.05"/><rect class="cls-5" x="537.52" y="84.03" width="5.05" height="5.05"/><rect class="cls-5" x="550.18" y="83.8" width="5.05" height="5.05"/><rect class="cls-5" x="562.38" y="84.03" width="5.05" height="5.05"/><rect class="cls-8" x="574.81" y="84.03" width="5.05" height="5.05"/><rect class="cls-5" x="587.24" y="84.03" width="5.05" height="5.05"/><rect class="cls-5" x="599.66" y="84.03" width="5.05" height="5.05"/><rect class="cls-5" x="612.09" y="84.03" width="5.05" height="5.05"/><rect class="cls-5" x="537.52" y="94.77" width="5.05" height="5.05"/><rect class="cls-5" x="549.95" y="94.77" width="5.05" height="5.05"/><rect class="cls-5" x="562.38" y="94.77" width="5.05" height="5.05"/><rect class="cls-5" x="575.04" y="94.54" width="5.05" height="5.05"/><rect class="cls-5" x="587.24" y="94.77" width="5.05" height="5.05"/><rect class="cls-8" x="599.66" y="94.77" width="5.05" height="5.05"/><rect class="cls-5" x="612.09" y="94.77" width="5.05" height="5.05"/><rect class="cls-5" x="537.52" y="105.5" width="5.05" height="5.05"/><rect class="cls-8" x="549.95" y="105.5" width="5.05" height="5.05"/><rect class="cls-5" x="562.38" y="105.5" width="5.05" height="5.05"/><rect class="cls-5" x="574.81" y="105.5" width="5.05" height="5.05"/><rect class="cls-5" x="587.24" y="105.5" width="5.05" height="5.05"/><rect class="cls-5" x="599.89" y="105.27" width="5.05" height="5.05"/><rect class="cls-5" x="612.09" y="105.5" width="5.05" height="5.05"/></g></g><rect class="cls-11" x="358.19" y="94.4" width="237.22" height="268.64"/><rect class="cls-12" x="392.18" y="128.39" width="169.24" height="200.66"/><path class="cls-12" d="M552.92,320.55H400.67V136.89H552.92Zm8.5-192.16H392.18V329.05H561.42Z" transform="translate(0 0)"/><rect class="cls-12" x="392.18" y="128.39" width="169.24" height="200.66"/><path class="cls-13" d="M552.92,320.55H400.67V136.89H552.92Zm8.5-192.16H392.18V329.05H561.42Z" transform="translate(0 0)"/><rect class="cls-12" x="387.22" y="277.49" width="9.91" height="30.27"/><rect class="cls-12" x="387.22" y="149.68" width="9.91" height="30.27"/><path class="cls-13" d="M519.55,211.1a42.75,42.75,0,1,1-42.75-42.75,42.75,42.75,0,0,1,42.75,42.75" transform="translate(0 0)"/><path class="cls-14" d="M516.36,211.1a39.57,39.57,0,1,1-39.56-39.57,39.56,39.56,0,0,1,39.56,39.57" transform="translate(0 0)"/><polygon class="cls-13" points="476.01 174.4 477.71 174.41 478.92 191.82 480.56 192.07 486.9 175.81 488.53 176.31 484.55 193.3 486.05 194.03 496.9 180.36 498.3 181.32 489.49 196.38 490.71 197.52 505.11 187.66 506.17 188.99 493.31 200.79 494.14 202.23 510.8 197.05 511.42 198.63 495.66 206.12 496.02 207.74 513.48 207.7 513.6 209.4 496.33 211.9 496.2 213.56 512.89 218.67 512.51 220.33 495.26 217.63 494.65 219.18 509.1 228.98 508.24 230.45 492.56 222.79 491.52 224.09 502.43 237.71 501.18 238.87 488.46 226.92 487.08 227.86 493.49 244.09 491.96 244.83 483.32 229.66 481.73 230.15 483.07 247.55 481.38 247.8 477.6 230.77 475.93 230.76 472.08 247.79 470.4 247.53 471.81 230.13 470.22 229.64 461.52 244.77 459.99 244.03 466.46 227.82 465.09 226.88 452.32 238.78 451.07 237.62 462.03 224.04 461 222.74 445.29 230.34 444.44 228.87 458.91 219.12 458.31 217.57 441.06 220.21 440.68 218.55 457.39 213.5 457.27 211.84 440 209.27 440.13 207.58 457.58 207.67 457.96 206.05 442.22 198.51 442.84 196.93 459.49 202.17 460.32 200.73 447.5 188.89 448.57 187.56 462.93 197.47 464.15 196.34 455.4 181.25 456.8 180.29 467.61 194 469.11 193.28 465.19 176.27 466.81 175.77 473.1 192.05 474.74 191.81 476.01 174.4"/><path class="cls-13" d="M499.38,211.1a22.58,22.58,0,1,1-22.58-22.58,22.58,22.58,0,0,1,22.58,22.58" transform="translate(0 0)"/><path class="cls-14" d="M494.77,211.1a18,18,0,1,1-18-18,18,18,0,0,1,18,18" transform="translate(0 0)"/><polygon class="cls-13" points="470.41 169.8 476.8 158.73 483.19 169.8 470.41 169.8"/><rect class="cls-13" x="445.52" y="273.5" width="11.6" height="19.13"/><rect class="cls-13" x="462.51" y="273.5" width="11.6" height="19.13"/><rect class="cls-13" x="479.49" y="273.5" width="11.6" height="19.13"/><rect class="cls-13" x="496.48" y="273.5" width="11.6" height="19.13"/><rect class="cls-13" x="567.61" y="363.04" width="15.93" height="8.89"/><rect class="cls-13" x="370.05" y="363.04" width="15.93" height="8.89"/><g class="cls-15"><g class="cls-16"><polygon class="cls-17" points="476.8 94.4 358.19 94.4 358.19 363.04 370.05 363.04 370.05 371.93 385.98 371.93 385.98 363.04 476.8 363.04 476.8 94.4"/></g></g><g class="cls-2"><g class="cls-18"><path class="cls-4" d="M187.78,115.72s-6,4.55-6,10.58v30.81h44.93V124.92s-.63-7.9-5.91-9.2Z" transform="translate(0 0)"/><path class="cls-5" d="M185.17,155.44a84.75,84.75,0,0,1-.67-9.47,7.6,7.6,0,0,1,5.27-7c2.37-.65,4.85.21,7.27.61a19.22,19.22,0,0,0,11.63-1.73c3-1.51,5.8-3.86,9.18-4.17,2.21-.21,4.75.83,5.37,3a7.3,7.3,0,0,1-.06,3.12c-.71,4.75.21,10.65.21,15.22-12.58.58-25.61.17-38.2.44" transform="translate(0 0)"/><polygon class="cls-5" points="178.91 161.46 185.68 157.11 226.69 157.11 233.27 161.46 178.91 161.46"/><path class="cls-4" d="M177.64,61.24V107.1h55.63v54.36H178.91v13h93.78V61.24a9.76,9.76,0,0,0-9.77-9.77H187.41a9.76,9.76,0,0,0-9.77,9.77" transform="translate(0 0)"/><path class="cls-5" d="M272.69,62.28c0,.22-21.28.4-47.52.4s-47.53-.18-47.53-.4,21.27-.4,47.53-.4,47.52.18,47.52.4" transform="translate(0 0)"/><path class="cls-5" d="M246.31,174.5c-.23,0-.41-27.47-.41-61.35s.18-61.36.41-61.36.4,27.46.4,61.36-.18,61.35-.4,61.35" transform="translate(0 0)"/><path class="cls-5" d="M172.61,142.25,172,128.36a18.79,18.79,0,0,1,3-11.34c1.79-2.63,4.44-5,8.19-5h37.53v3.66H184s-6.63.7-7.5,9.78a89,89,0,0,0,0,16.75Z" transform="translate(0 0)"/><rect class="cls-5" x="206.7" y="352.34" width="16.46" height="29.67"/><rect class="cls-5" x="279.42" y="352.34" width="16.46" height="29.67"/><rect class="cls-5" x="170.55" y="174.5" width="136.29" height="177.84"/><rect class="cls-4" x="145.58" y="174.5" width="132.75" height="177.84"/><rect class="cls-4" x="157.31" y="352.34" width="16.46" height="29.67"/><rect class="cls-4" x="251.93" y="352.34" width="16.46" height="29.67"/><path class="cls-5" d="M267.77,332s0-.27,0-.78,0-1.29,0-2.27c0-2,0-4.94-.05-8.72,0-7.57-.05-18.52-.1-32.13l.19.19-113.93.08h0l.27-.27c0,15.35,0,30.18,0,43.9l-.26-.25,81.61.12,23.73.07,6.37,0,1.65,0h.57s-.18,0-.54,0l-1.62,0-6.31,0-23.67.07-81.79.12h-.26V332c0-13.72,0-28.55,0-43.9v-.27h.27l113.93.09H268v.18c0,13.66-.07,24.65-.1,32.24,0,3.76,0,6.68,0,8.68,0,1,0,1.72,0,2.24s0,.74,0,.74" transform="translate(0 0)"/><path class="cls-5" d="M214.24,310.07s-.05-.3-.21-.81a3.39,3.39,0,0,0-1.26-1.77,3.23,3.23,0,0,0-5.14,2.58,3.23,3.23,0,0,0,2.09,3,3.26,3.26,0,0,0,3.05-.41,3.39,3.39,0,0,0,1.26-1.77c.16-.51.17-.82.21-.82a1.53,1.53,0,0,1,0,.87,3.45,3.45,0,0,1-1.24,2,3.62,3.62,0,0,1-3.45.58,3.67,3.67,0,0,1,0-6.93,3.6,3.6,0,0,1,3.45.58,3.42,3.42,0,0,1,1.24,2c.1.56,0,.87,0,.86" transform="translate(0 0)"/><path class="cls-5" d="M267.77,279.45s0-.27,0-.78,0-1.29,0-2.28c0-2,0-4.93-.05-8.71,0-7.57-.05-18.52-.1-32.13l.19.19-113.93.08h0l.27-.27c0,15.34,0,30.17,0,43.9l-.26-.26,81.61.12,23.73.08,6.37,0h1.65l.57,0-.54,0h-1.62l-6.31,0-23.67.07-81.79.12h-.26v-.26c0-13.73,0-28.56,0-43.9v-.27h.27l113.93.08H268v.19c0,13.66-.07,24.64-.1,32.24,0,3.76,0,6.68,0,8.67,0,1,0,1.72,0,2.24s0,.75,0,.75" transform="translate(0 0)"/><path class="cls-5" d="M214.24,257.5s-.05-.31-.21-.81a3.35,3.35,0,0,0-1.26-1.77,3.21,3.21,0,1,0,0,5.16,3.35,3.35,0,0,0,1.26-1.77c.16-.5.17-.81.21-.81a1.53,1.53,0,0,1,0,.87,3.48,3.48,0,0,1-1.24,2,3.6,3.6,0,0,1-3.45.57,3.66,3.66,0,0,1,0-6.92,3.6,3.6,0,0,1,3.45.57,3.47,3.47,0,0,1,1.24,2,1.5,1.5,0,0,1,0,.86" transform="translate(0 0)"/><path class="cls-5" d="M267.77,227.59s0-.28,0-.79,0-1.28,0-2.27c0-2,0-4.94-.05-8.72,0-7.57-.05-18.52-.1-32.12l.19.18L153.84,184h0l.27-.26c0,15.34,0,30.17,0,43.9l-.26-.26,81.61.12,23.73.07,6.37,0,1.65,0,.57,0h-.54l-1.62,0-6.31,0-23.67.07-81.79.12h-.26v-.25c0-13.73,0-28.56,0-43.9v-.27h.27l113.93.08H268v.19c0,13.65-.07,24.64-.1,32.23,0,3.77,0,6.68,0,8.68,0,1,0,1.72,0,2.24s0,.75,0,.75" transform="translate(0 0)"/><path class="cls-5" d="M214.24,205.64s-.05-.31-.21-.82a3.39,3.39,0,0,0-1.26-1.77,3.21,3.21,0,1,0,0,5.17,3.39,3.39,0,0,0,1.26-1.77c.16-.51.17-.82.21-.81s.1.3,0,.86a3.42,3.42,0,0,1-1.24,2,3.62,3.62,0,0,1-3.45.58,3.67,3.67,0,0,1,0-6.93,3.62,3.62,0,0,1,3.45.58,3.42,3.42,0,0,1,1.24,2,1.53,1.53,0,0,1,0,.87" transform="translate(0 0)"/><path class="cls-5" d="M271.33,174.5c0,.22-20.67.4-46.16.4s-46.17-.18-46.17-.4,20.67-.4,46.17-.4,46.16.18,46.16.4" transform="translate(0 0)"/></g></g></g></g></svg>