<svg xmlns="http://www.w3.org/2000/svg" xmlns:xlink="http://www.w3.org/1999/xlink" viewBox="0 0 849.86 394.89"><defs><style>.cls-1{fill:none;}.cls-2{isolation:isolate;}.cls-3,.cls-31{opacity:0.5;}.cls-4{clip-path:url(#clip-path);}.cls-5{fill:#f5f5f5;}.cls-6{fill:#e0e0e0;}.cls-7{fill:#fff;}.cls-8{clip-path:url(#clip-path-2);}.cls-9{fill:#ebebeb;}.cls-10{clip-path:url(#clip-path-3);}.cls-11{fill:#fafafa;}.cls-12{clip-path:url(#clip-path-4);}.cls-13{fill:#f8b797;}.cls-14{fill:#112d46;}.cls-15{fill:#222e38;}.cls-16{fill:#1e476b;}.cls-17{fill:#e1e7e8;}.cls-18{fill:#2e3133;}.cls-19{fill:#fff7dc;}.cls-20{fill:#424549;}.cls-21{fill:#173854;}.cls-22,.cls-35{opacity:0.3;}.cls-22,.cls-31,.cls-41{mix-blend-mode:multiply;}.cls-23{clip-path:url(#clip-path-5);}.cls-24{clip-path:url(#clip-path-6);}.cls-25{fill:#472611;}.cls-26{fill:#331b0c;}.cls-27{fill:#db3737;}.cls-28{fill:#bd2626;}.cls-29{fill:#1d67a8;}.cls-30{fill:#10171d;}.cls-32{clip-path:url(#clip-path-7);}.cls-33{fill:#f5a505;}.cls-34{fill:#ffca00;}.cls-35,.cls-38{mix-blend-mode:screen;}.cls-36{clip-path:url(#clip-path-8);}.cls-37{fill:#1a252e;}.cls-38,.cls-41{opacity:0.2;}.cls-39{clip-path:url(#clip-path-9);}.cls-40{fill:#2b3e4f;}.cls-42{clip-path:url(#clip-path-10);}.cls-43{clip-path:url(#clip-path-11);}.cls-44{clip-path:url(#clip-path-12);}.cls-45{fill:#3d414f;}.cls-46{fill:#2e475d;}.cls-47{fill:#255076;}</style><clipPath id="clip-path"><rect class="cls-1" x="75.35" y="295.3" width="134.5" height="95.73"/></clipPath><clipPath id="clip-path-2"><rect class="cls-1" y="8.11" width="246.49" height="186.4"/></clipPath><clipPath id="clip-path-3"><rect class="cls-1" x="729.42" y="9.14" width="120.44" height="107.83"/></clipPath><clipPath id="clip-path-4"><rect class="cls-1" x="596.59" y="59.58" width="161.26" height="330.54"/></clipPath><clipPath id="clip-path-5"><rect class="cls-1" x="527.29" y="37.26" width="18.32" height="47.11"/></clipPath><clipPath id="clip-path-6"><rect class="cls-1" x="524.85" y="19.84" width="24.14" height="52.55"/></clipPath><clipPath id="clip-path-7"><rect class="cls-1" x="570.49" y="239.21" width="0.11" height="1.8"/></clipPath><clipPath id="clip-path-8"><rect class="cls-1" x="294.75" y="34.26" width="167.12" height="167.12"/></clipPath><clipPath id="clip-path-9"><rect class="cls-1" x="227.41" y="197.54" width="24.96" height="164.24"/></clipPath><clipPath id="clip-path-10"><rect class="cls-1" x="256.91" y="197.54" width="24.96" height="164.24"/></clipPath><clipPath id="clip-path-11"><rect class="cls-1" x="248.54" y="32.17" width="18.35" height="47.2"/></clipPath><clipPath id="clip-path-12"><rect class="cls-1" x="242.98" y="7.72" width="35.24" height="53.74"/></clipPath></defs><g class="cls-2"><g id="Capa_2" data-name="Capa 2"><g id="Capa_1-2" data-name="Capa 1"><g class="cls-3"><g class="cls-4"><polygon class="cls-5" points="205.02 353.61 205.02 391.03 150.3 391.03 89.94 391.03 89.94 353.61 205.02 353.61"/><polygon class="cls-6" points="209.85 343.14 209.85 353.61 85.92 353.61 85.92 343.14 150.3 343.14 209.85 343.14"/><polygon class="cls-6" points="147.89 391.03 89.94 391.03 89.94 353.61 85.92 353.61 85.92 343.14 150.3 343.14 150.3 352.64 147.89 391.03"/><rect class="cls-6" x="165.59" y="359.64" width="23.34" height="5.63"/><rect class="cls-7" x="161.97" y="372.32" width="29.97" height="11.89"/><polygon class="cls-5" points="194.45 305.76 194.45 343.18 139.73 343.18 79.37 343.18 79.37 305.76 194.45 305.76"/><polygon class="cls-6" points="199.28 295.3 199.28 305.76 75.35 305.76 75.35 295.3 139.73 295.3 199.28 295.3"/><polygon class="cls-6" points="137.32 343.18 79.37 343.18 79.37 305.76 75.35 305.76 75.35 295.3 139.73 295.3 139.73 304.79 137.32 343.18"/><rect class="cls-6" x="155.02" y="311.79" width="23.34" height="5.63"/><rect class="cls-7" x="151.39" y="324.47" width="29.97" height="11.89"/></g></g><g class="cls-3"><g class="cls-8"><path class="cls-6" d="M6.6,194.15s0-1.17,0-3.41,0-5.55,0-9.87c0-8.64,0-21.31.09-37.46,0-32.28.1-78.48.17-134.21l-.33.34L239,9.61h0l-.41-.41c0,66.77,0,129.88.05,185l.36-.36L71.13,194l-47.57.1-12.6,0-3.25,0-1.11,0s.35,0,1.07,0l3.21,0,12.53.05,47.49.09,168.15.18h.36v-.36c0-55.07,0-118.18,0-185V8.8H239L6.6,8.87H6.26V9.2c.07,55.82.13,102.09.18,134.42,0,16.12.06,28.76.08,37.39,0,4.29,0,7.58,0,9.81s0,3.33,0,3.33"/><rect class="cls-6" x="200.59" y="43.48" width="8.41" height="93.87"/><rect class="cls-9" x="184.37" y="75.36" width="8.41" height="61.99"/><rect class="cls-6" x="168.14" y="55.15" width="8.41" height="82.68"/><rect class="cls-9" x="151.91" y="47.11" width="8.41" height="90.24"/><rect class="cls-6" x="135.68" y="77.27" width="8.41" height="60.08"/><rect class="cls-9" x="119.46" y="89.05" width="8.41" height="48.3"/><rect class="cls-6" x="103.23" y="53.12" width="8.41" height="84.23"/><rect class="cls-9" x="87" y="68.3" width="8.41" height="69.05"/><rect class="cls-6" x="70.78" y="56.17" width="8.41" height="81.18"/><rect class="cls-9" x="54.55" y="82.04" width="8.41" height="55.31"/><rect class="cls-6" x="38.32" y="71.52" width="8.41" height="65.83"/><path class="cls-6" d="M34.89,143.89c0,.19,39.87.34,89,.34s89-.15,89-.34-39.86-.35-89-.35-89,.16-89,.35"/><path class="cls-6" d="M197,151.28c0,.19,2.79.34,6.24.34s6.23-.15,6.23-.34-2.79-.35-6.23-.35-6.24.16-6.24.35"/><path class="cls-6" d="M176.32,151.65c0,.19,3.34.35,7.45.35s7.46-.16,7.46-.35-3.34-.34-7.46-.34-7.45.15-7.45.34"/><path class="cls-6" d="M158.67,151.65c0,.19,3.34.35,7.46.35s7.45-.16,7.45-.35-3.34-.34-7.45-.34-7.46.15-7.46.34"/><path class="cls-6" d="M141,151.65c0,.19,3.34.35,7.46.35s7.45-.16,7.45-.35-3.34-.34-7.45-.34-7.46.15-7.46.34"/><path class="cls-6" d="M123.38,151.65c0,.19,3.33.35,7.45.35s7.45-.16,7.45-.35-3.33-.34-7.45-.34-7.45.15-7.45.34"/><path class="cls-6" d="M105.73,151.65c0,.19,3.33.35,7.45.35s7.46-.16,7.46-.35-3.34-.34-7.46-.34-7.45.15-7.45.34"/><path class="cls-6" d="M88.08,151.65c0,.19,3.34.35,7.45.35s7.46-.16,7.46-.35-3.34-.34-7.46-.34-7.45.15-7.45.34"/><path class="cls-6" d="M70.43,151.65c0,.19,3.34.35,7.46.35s7.45-.16,7.45-.35-3.34-.34-7.45-.34-7.46.15-7.46.34"/><path class="cls-6" d="M52.78,151.65c0,.19,3.34.35,7.46.35s7.45-.16,7.45-.35-3.33-.34-7.45-.34-7.46.15-7.46.34"/><path class="cls-6" d="M35.14,151.65c0,.19,3.33.35,7.45.35s7.45-.16,7.45-.35-3.33-.34-7.45-.34-7.45.15-7.45.34"/><rect class="cls-9" y="8.11" width="246.49" height="6.95"/></g></g><g class="cls-3"><g class="cls-10"><rect class="cls-11" x="729.69" y="9.46" width="119.85" height="107.23"/><path class="cls-6" d="M729.69,116.68s0-.68,0-2,0-3.24,0-5.74c0-5,0-12.39.07-21.77,0-18.73.08-45.5.14-77.72l-.27.27,119.84,0h0l-.32-.32c0,39,0,75.72,0,107.22l.28-.28-86.68.14-24.45.08-6.48,0-1.67,0h-.57l.54,0,1.64,0,6.42,0,24.38.07,86.87.15h.29v-.29c0-31.5,0-68.21,0-107.22V9.14h-.33l-119.84,0h-.27v.28c.06,32.29.1,59.12.14,77.89,0,9.35.05,16.69.07,21.71,0,2.48,0,4.39,0,5.69s0,1.93,0,1.93"/><path class="cls-6" d="M803.59,28.51c0,.18,6.31.32,14.09.32s14.09-.14,14.09-.32-6.31-.32-14.09-.32-14.09.14-14.09.32"/><path class="cls-6" d="M752.8,36.56c0,.18,17.33.32,38.71.32s38.71-.14,38.71-.32-17.33-.32-38.71-.32-38.71.14-38.71.32"/><rect class="cls-6" x="826.51" y="50.2" width="5.05" height="5.05"/><rect class="cls-6" x="814.08" y="50.2" width="5.05" height="5.05"/><rect class="cls-6" x="801.42" y="49.97" width="5.05" height="5.05"/><rect class="cls-6" x="789.22" y="50.2" width="5.05" height="5.05"/><rect class="cls-6" x="776.79" y="50.2" width="5.05" height="5.05"/><rect class="cls-6" x="764.36" y="50.2" width="5.05" height="5.05"/><rect class="cls-9" x="751.93" y="50.2" width="5.05" height="5.05"/><rect class="cls-9" x="826.51" y="60.93" width="5.05" height="5.05"/><rect class="cls-6" x="814.08" y="60.93" width="5.05" height="5.05"/><rect class="cls-9" x="801.65" y="60.93" width="5.05" height="5.05"/><rect class="cls-6" x="789.22" y="60.93" width="5.05" height="5.05"/><rect class="cls-6" x="776.79" y="60.93" width="5.05" height="5.05"/><rect class="cls-6" x="764.13" y="60.7" width="5.05" height="5.05"/><rect class="cls-6" x="751.93" y="60.93" width="5.05" height="5.05"/><rect class="cls-6" x="826.51" y="71.67" width="5.05" height="5.05"/><rect class="cls-6" x="813.85" y="71.44" width="5.05" height="5.05"/><rect class="cls-6" x="801.65" y="71.67" width="5.05" height="5.05"/><rect class="cls-9" x="789.22" y="71.67" width="5.05" height="5.05"/><rect class="cls-6" x="776.79" y="71.67" width="5.05" height="5.05"/><rect class="cls-6" x="764.36" y="71.67" width="5.05" height="5.05"/><rect class="cls-6" x="751.93" y="71.67" width="5.05" height="5.05"/><rect class="cls-6" x="826.51" y="82.4" width="5.05" height="5.05"/><rect class="cls-6" x="814.08" y="82.4" width="5.05" height="5.05"/><rect class="cls-6" x="801.65" y="82.4" width="5.05" height="5.05"/><rect class="cls-6" x="788.99" y="82.17" width="5.05" height="5.05"/><rect class="cls-6" x="776.79" y="82.4" width="5.05" height="5.05"/><rect class="cls-9" x="764.36" y="82.4" width="5.05" height="5.05"/><rect class="cls-6" x="751.93" y="82.4" width="5.05" height="5.05"/><rect class="cls-6" x="826.51" y="93.14" width="5.05" height="5.05"/><rect class="cls-9" x="814.08" y="93.14" width="5.05" height="5.05"/><rect class="cls-6" x="801.65" y="93.14" width="5.05" height="5.05"/><rect class="cls-6" x="789.22" y="93.14" width="5.05" height="5.05"/><rect class="cls-6" x="776.79" y="93.14" width="5.05" height="5.05"/><rect class="cls-6" x="764.13" y="92.91" width="5.05" height="5.05"/><rect class="cls-6" x="751.93" y="93.14" width="5.05" height="5.05"/></g></g><g class="cls-3"><g class="cls-12"><path class="cls-5" d="M715.64,123.83s6,4.55,6,10.58v30.81H676.74V133s.63-7.9,5.91-9.2Z"/><path class="cls-6" d="M718.26,163.55a85.1,85.1,0,0,0,.66-9.48,7.59,7.59,0,0,0-5.26-7c-2.37-.65-4.85.22-7.27.62A19.29,19.29,0,0,1,694.76,146c-3-1.51-5.81-3.86-9.18-4.18-2.21-.2-4.76.84-5.37,3a7.47,7.47,0,0,0,0,3.12c.72,4.75-.2,10.65-.2,15.21,12.58.59,25.61.17,38.2.45"/><polygon class="cls-6" points="724.52 169.57 717.75 165.22 676.74 165.22 670.16 169.57 724.52 169.57"/><path class="cls-5" d="M725.79,69.35v45.86H670.16v54.36h54.36v13H630.74V69.35a9.76,9.76,0,0,1,9.76-9.77H716a9.76,9.76,0,0,1,9.77,9.77"/><path class="cls-6" d="M630.74,70.39c0,.22,21.28.4,47.52.4s47.53-.18,47.53-.4S704.51,70,678.26,70s-47.52.19-47.52.41"/><path class="cls-6" d="M657.12,182.61c.23,0,.41-27.48.41-61.36s-.18-61.35-.41-61.35-.4,27.46-.4,61.35.18,61.36.4,61.36"/><path class="cls-6" d="M730.82,150.36l.56-13.9a18.62,18.62,0,0,0-3-11.33c-1.78-2.63-4.43-5-8.18-5H682.65v3.67h36.83s6.63.7,7.5,9.77a89.06,89.06,0,0,1,0,16.76Z"/><rect class="cls-6" x="680.27" y="360.45" width="16.45" height="29.67"/><rect class="cls-6" x="607.56" y="360.45" width="16.45" height="29.67"/><rect class="cls-6" x="596.6" y="182.61" width="136.28" height="177.84"/><rect class="cls-5" x="625.1" y="182.61" width="132.75" height="177.84"/><rect class="cls-5" x="729.66" y="360.45" width="16.45" height="29.67"/><rect class="cls-5" x="635.05" y="360.45" width="16.45" height="29.67"/><path class="cls-6" d="M635.66,340.13s0-.27,0-.78,0-1.29,0-2.28c0-2,0-4.93,0-8.71,0-7.57.06-18.52.11-32.13l-.19.19,113.92.08h0l-.27-.27c0,15.35,0,30.18,0,43.9l.26-.26L668,340l-23.74.07-6.36,0-1.65,0h-.57l.54,0h1.62l6.31,0,23.67.07,81.79.12h.26v-.26c0-13.72,0-28.55,0-43.9V296h-.28l-113.92.09h-.19v.18c0,13.66.08,24.65.1,32.24,0,3.76,0,6.68,0,8.68,0,1,0,1.71,0,2.23s0,.75,0,.75"/><path class="cls-6" d="M689.18,318.18a5.87,5.87,0,0,0,.21-.81,3.48,3.48,0,0,1,1.27-1.77,3.21,3.21,0,1,1,0,5.17,3.48,3.48,0,0,1-1.27-1.77,6.36,6.36,0,0,0-.21-.82,1.74,1.74,0,0,0,0,.87,3.48,3.48,0,0,0,1.24,2,3.62,3.62,0,0,0,3.45.58,3.68,3.68,0,0,0,0-6.93,3.59,3.59,0,0,0-3.45.58,3.42,3.42,0,0,0-1.24,2,1.7,1.7,0,0,0,0,.86"/><path class="cls-6" d="M635.66,287.56s0-.27,0-.79,0-1.28,0-2.27c0-2,0-4.94,0-8.72,0-7.56.06-18.51.11-32.12l-.19.18,113.92.09h0l-.27-.27c0,15.34,0,30.17,0,43.9l.26-.26-81.61.12-23.74.07-6.36,0h-1.65l-.57,0h.54l1.62,0,6.31,0,23.67.08,81.79.12h.26v-.26c0-13.73,0-28.56,0-43.9v-.27h-.28l-113.92.08h-.19v.19c0,13.65.08,24.64.1,32.24,0,3.76,0,6.68,0,8.67,0,1,0,1.72,0,2.24s0,.75,0,.75"/><path class="cls-6" d="M689.18,265.61a6.36,6.36,0,0,0,.21-.82,3.48,3.48,0,0,1,1.27-1.77,3.29,3.29,0,0,1,3.05-.41,3.21,3.21,0,1,1-3.05,5.58,3.48,3.48,0,0,1-1.27-1.77,5.87,5.87,0,0,0-.21-.81,1.7,1.7,0,0,0,0,.86,3.42,3.42,0,0,0,1.24,2,3.59,3.59,0,0,0,3.45.58,3.68,3.68,0,0,0,0-6.93,3.62,3.62,0,0,0-3.45.58,3.48,3.48,0,0,0-1.24,2,1.74,1.74,0,0,0,0,.87"/><path class="cls-6" d="M635.66,235.69s0-.27,0-.78,0-1.29,0-2.27c0-2,0-4.94,0-8.72,0-7.57.06-18.52.11-32.13l-.19.19,113.92.08h0l-.27-.27c0,15.35,0,30.18,0,43.9l.26-.25-81.61.12-23.74.07-6.36,0-1.65,0h-.57s.18,0,.54,0l1.62,0,6.31,0,23.67.07,81.79.12h.26v-.26c0-13.72,0-28.55,0-43.9v-.26h-.28l-113.92.08h-.19v.18c0,13.66.08,24.65.1,32.24,0,3.76,0,6.68,0,8.68,0,1,0,1.72,0,2.24s0,.74,0,.74"/><path class="cls-6" d="M689.18,213.74a5.87,5.87,0,0,0,.21-.81,3.48,3.48,0,0,1,1.27-1.77,3.23,3.23,0,0,1,5.14,2.58,3.23,3.23,0,0,1-2.09,3,3.26,3.26,0,0,1-3.05-.41,3.48,3.48,0,0,1-1.27-1.77,6.36,6.36,0,0,0-.21-.82,1.74,1.74,0,0,0,0,.87,3.45,3.45,0,0,0,1.24,2,3.62,3.62,0,0,0,3.45.58,3.68,3.68,0,0,0,0-6.93,3.59,3.59,0,0,0-3.45.58,3.42,3.42,0,0,0-1.24,2,1.67,1.67,0,0,0,0,.86"/><path class="cls-6" d="M632.1,182.61c0,.22,20.67.4,46.16.4s46.17-.18,46.17-.4-20.67-.41-46.17-.41-46.16.18-46.16.41"/></g></g><path class="cls-13" d="M395.94,160.32a1.66,1.66,0,0,1,1.34,3l-9.08,4a1.65,1.65,0,1,1-1.33-3Z"/><path class="cls-13" d="M393.74,152.83a1.66,1.66,0,0,1,.82,3.21l-9.62,2.44a1.64,1.64,0,0,1-2-1.19,1.66,1.66,0,0,1,1.19-2Z"/><path class="cls-13" d="M391.08,148.11a1.79,1.79,0,0,0,.35,2.51l6.4,4.83a5.6,5.6,0,0,0,2.31-1.45c.35-.4-.08-1.87-.08-1.87l-6.46-4.38a1.79,1.79,0,0,0-2.52.36"/><path class="cls-13" d="M393.41,157a1.64,1.64,0,0,1,2.09,1,1.66,1.66,0,0,1-1,2.1L385,163.28a1.66,1.66,0,1,1-1.05-3.14Z"/><path class="cls-13" d="M397,151.61a3.29,3.29,0,0,1,4.15,2.08l1.48,4.43a3.29,3.29,0,0,1-2.07,4.15l-4.44,1.47a3.27,3.27,0,0,1-4.14-2.06l-1.48-4.44a3.26,3.26,0,0,1,2.07-4.14Z"/><path class="cls-13" d="M413.65,148.88a2.92,2.92,0,0,1,1.85,5.54L398.89,160a2.93,2.93,0,1,1-1.85-5.55Z"/><path class="cls-7" d="M402,149.12c1.71,5.57,2,6.42,3.78,12,44.53-14,82.43-36.75,114.11-71a7.3,7.3,0,0,0-.54-10.56,7.61,7.61,0,0,0-10.46,1C478.93,112.78,444,136,402,149.12"/><path class="cls-14" d="M404,147.13c40.93-13.24,75.52-35,104.89-66.61a7.6,7.6,0,0,1,10.46-1A7.3,7.3,0,0,1,519.87,90c-31.35,33.95-68.58,57.3-112.51,71.32-1-4.76-2.51-9-3.38-14.23"/><path class="cls-13" d="M374.86,181.74a1.65,1.65,0,1,0-2.08,2.57l7.73,6.22a1.66,1.66,0,0,0,2.33-.25,1.64,1.64,0,0,0-.26-2.32Z"/><path class="cls-13" d="M378.93,175.08a1.65,1.65,0,0,0-1.62,2.88l8.65,4.86a1.66,1.66,0,0,0,1.62-2.89Z"/><path class="cls-13" d="M382.73,171.21a1.78,1.78,0,0,1-1,2.33l-7.44,3a5.67,5.67,0,0,1-1.86-2c-.22-.48.57-1.79.57-1.79l7.37-2.56a1.81,1.81,0,0,1,2.35,1"/><path class="cls-13" d="M378.17,179.18a1.66,1.66,0,0,0-1.83,2.76l8.28,5.49a1.68,1.68,0,0,0,2.3-.47,1.65,1.65,0,0,0-.48-2.29Z"/><path class="cls-13" d="M376.09,173.05a3.28,3.28,0,0,0-4.54.93L369,177.87a3.29,3.29,0,0,0,.92,4.55l3.89,2.57a3.28,3.28,0,0,0,4.54-.91l2.59-3.91a3.26,3.26,0,0,0-.93-4.53Z"/><path class="cls-13" d="M360.73,166.09a2.92,2.92,0,0,0-3.22,4.87l14.6,9.67a2.92,2.92,0,0,0,3.23-4.87Z"/><path class="cls-7" d="M371.94,169.35c-3.1,4.93-3.58,5.69-6.76,10.58-39.37-25.06-70.05-56.9-91.73-98.26a7.3,7.3,0,0,1,3.27-10.06,7.61,7.61,0,0,1,9.83,3.73c20.53,38.93,48.28,70.39,85.39,94"/><path class="cls-15" d="M370.53,166.91c-36.09-23.42-63.85-53.38-84-91.57a7.61,7.61,0,0,0-9.83-3.73,7.3,7.3,0,0,0-3.27,10.06c21.45,40.93,51.34,73.16,90.12,98.11,2.24-4.33,4.74-8,7-12.87"/><path class="cls-16" d="M512.12,206.29v-8a27.28,27.28,0,0,1,27.2-27.2h.47a27.28,27.28,0,0,1,27.2,27.2l.14,8Z"/><polygon class="cls-16" points="554.09 224.7 514.75 224.7 512.12 206.29 554.09 206.29 554.09 224.7"/><polygon class="cls-13" points="522.3 379.29 532.44 379.53 532.65 371 522.5 370.74 522.3 379.29"/><polygon class="cls-17" points="521.31 388.71 533.25 388.76 533.3 376.38 521.34 376.35 521.31 388.71"/><path class="cls-18" d="M535.1,392.66a2.21,2.21,0,0,1-2.22,2.23H495.82v-2.95l39.28.05Z"/><path class="cls-18" d="M504,385.34l7.81,0,1.32-.07a2.69,2.69,0,0,1,.44-.06,3.81,3.81,0,0,0,1.85-.78l.31-.31a2.48,2.48,0,0,0,.42-1.49v-.37a4.41,4.41,0,0,1,8.79-.41h0v.29a4.18,4.18,0,0,0,8.36,0v-.24a2.2,2.2,0,0,1,1.8,2.17v8l-39.28,0c0-4.47,3.66-6.66,8.16-6.66"/><polygon class="cls-13" points="546.71 379.29 556.87 379.53 557.08 371 546.92 370.74 546.71 379.29"/><polygon class="cls-19" points="545.75 388.71 557.68 388.76 557.71 376.38 545.77 376.35 545.75 388.71"/><path class="cls-18" d="M559.51,392.66a2.2,2.2,0,0,1-2.21,2.23h-37v-2.95l39.26.05Z"/><path class="cls-20" d="M520.26,392c0-4.47,3.66-6.66,8.14-6.66l7.8,0,1.34-.07a2.54,2.54,0,0,1,.45-.06,4.08,4.08,0,0,0,1.86-.78c.11-.12.2-.22.3-.31a2.71,2.71,0,0,0,.43-1.46v0l0-.19h0v-.17a4.4,4.4,0,0,1,8.77-.41h0v.29a4.16,4.16,0,1,0,8.32,0v-.24a2.2,2.2,0,0,1,1.84,2.17l0,4.52V392Z"/><polygon class="cls-16" points="541.92 372.19 541.92 206.29 567.13 206.29 562.38 372.19 541.92 372.19"/><path class="cls-21" d="M541.92,371v1.24h3.63a8,8,0,0,1-3.36-1.08l-.27-.16"/><path class="cls-21" d="M557.9,353.09c3.75-20.64.62-40.66,3.13-61.31,3.63-28.44,6.67-58.63-2.76-85.49h8.86l-4.75,165.9H541.92v-6.34c7.39-1.25,14.28-4.26,16-12.76"/><polygon class="cls-16" points="512.12 206.29 514.43 286.95 515.51 324.38 516.88 372.19 537.33 372.19 537.33 206.29 512.12 206.29"/><path class="cls-17" d="M508.63,83.36V198.19a4.18,4.18,0,0,0,.24,1.54,3.91,3.91,0,0,0,.62,1.2v0a4.23,4.23,0,0,0,2.64,1.68,2.18,2.18,0,0,0,.82.1h53.34a3.49,3.49,0,0,0,.72-.05,6,6,0,0,0,1.25-.43,4.64,4.64,0,0,0,2.35-4.08V83.36a5.18,5.18,0,0,0-.1-.92A4.61,4.61,0,0,0,569,79.76a4.16,4.16,0,0,0-2.69-1l-2.21-.38L547,75.3l-1.3-.24-7.48-1.3-.1-.05-10.79,2.07-1.63.33-5,1L515,78.18l-2.2.38a7.67,7.67,0,0,0-2.26,1.1,4.14,4.14,0,0,0-1.82,2.78,5.38,5.38,0,0,0-.05.92"/><path class="cls-13" d="M527.3,76.51a9.16,9.16,0,1,0,18.31,0V46.41a9.16,9.16,0,0,0-18.31,0Z"/><g class="cls-22"><g class="cls-23"><path class="cls-13" d="M537.42,74.39c-2.51-1.51-6.73,2.72-10.12,2.12V46.41a9.16,9.16,0,0,1,18.31,0v30.1a9.12,9.12,0,0,1-4.48,7.86c1.27-6.06,2-6.53-3.71-10"/></g></g><path class="cls-13" d="M514.36,55.08a17.32,17.32,0,1,0,34.63,0V36.91a17.32,17.32,0,1,0-34.63,0Z"/><g class="cls-22"><g class="cls-24"><path class="cls-13" d="M541.06,64.63c7-14.71,3.41-32.37-6.47-44.79A17.31,17.31,0,0,1,549,36.9V55.08A17.32,17.32,0,0,1,524.85,71c6.59,1.09,13.66-.76,16.21-6.37"/></g></g><path class="cls-25" d="M511.7,22.68c1.82-4.17,5.87-13.56,23.32-12.23,5.69.69,7.37,4.76,7.37,4.76,7.52-.31,11.52,1.65,16.81,10.59,2.18,3.67,2.75,10.39,2.75,15,0,11-6.31,20.13-14.53,21.64a17.9,17.9,0,0,0,1.47-7.16V49.61a3.07,3.07,0,0,1-2.1.84,3.19,3.19,0,0,1-3.13-3.24V37.65a32.92,32.92,0,0,0-2-9.65c-3.1,2.37-10.84,7.46-20.42,7.63-12.5.22-17.41-7.08-17.41-7.08s5.84-1.23,7.86-5.87"/><path class="cls-26" d="M557.55,48.11c1.12-2.8,1.12-7.28-2.23-8.4,1.12,0,2.79,0,3.35-1.12,2.8-4.48,1.12-9-1.12-12.88-3.26-4.9-7.07-9.26-13.46-10.53,6.45.07,10.23,2.38,15.11,10.62,2.18,3.67,2.75,10.39,2.75,15,0,11-6.31,20.13-14.53,21.64a17.81,17.81,0,0,0,1.33-5,21.59,21.59,0,0,0,8.8-9.38"/><path class="cls-13" d="M546.32,53.12c1.44,1.37,4.35.66,6.49-1.59s2.71-5.19,1.27-6.57-4.36-.66-6.5,1.59-2.7,5.2-1.26,6.57"/><path class="cls-13" d="M548.69,51.07c.61.54,1.79.19,2.62-.77s1-2.18.4-2.72-1.8-.19-2.63.78-1,2.18-.39,2.71"/><rect class="cls-17" x="528.42" y="83.01" width="17.26" height="8.87"/><polygon class="cls-27" points="539.48 86.25 542.1 123.45 537.05 159.09 530.9 123.45 533.74 86.25 539.48 86.25"/><path class="cls-28" d="M530.78,86.25A3.25,3.25,0,0,0,534,89.51h5a3.25,3.25,0,1,0,0-6.5h-5a3.25,3.25,0,0,0-3.24,3.24"/><path class="cls-21" d="M508.63,83.36V198.19a4.18,4.18,0,0,0,.24,1.54,3.91,3.91,0,0,0,.62,1.2v0a4.23,4.23,0,0,0,2.64,1.68,2.18,2.18,0,0,0,.82.1h53.34a3.49,3.49,0,0,0,.72-.05,6,6,0,0,0,1.25-.43,4.64,4.64,0,0,0,2.35-4.08V83.36a5.18,5.18,0,0,0-.1-.92A4.61,4.61,0,0,0,569,79.76a4.16,4.16,0,0,0-2.69-1l-2.21-.38L547,75.3l-10.36,62.08L525.71,76.11l-5,1L515,78.18l-2.2.38a7.67,7.67,0,0,0-2.26,1.1,4.14,4.14,0,0,0-1.82,2.78,5.38,5.38,0,0,0-.05.92"/><path class="cls-14" d="M569,79.76a4.16,4.16,0,0,0-2.69-1l-.55-.09c-1.82,1-3,2.27-3,2.87-6,38.61,2.42,76-8.44,113.42-1.21,3.62-7.24,4.83-10.86,4.83-10.71.56-21.95.87-33.09,2a4,4,0,0,0,1.82.86,2.18,2.18,0,0,0,.82.1h53.34a3.49,3.49,0,0,0,.72-.05,6,6,0,0,0,1.25-.43,4.64,4.64,0,0,0,2.35-4.08V83.36a5,5,0,0,0-.1-.91A4.61,4.61,0,0,0,569,79.76"/><path class="cls-29" d="M545.71,75.07l6.59,1.18,6,24-12.63,8.53L548,124l-11.3,13.38Z"/><path class="cls-29" d="M527.34,75.78c-.64.11-5.19,1-5.19,1L517,100.25l11.47,8.54-3.28,15.69,11.44,12.9Z"/><path class="cls-30" d="M533.84,150a3.49,3.49,0,1,1,3.49,3.49,3.49,3.49,0,0,1-3.49-3.49"/><path class="cls-30" d="M533.84,185.16a3.49,3.49,0,1,1,3.49,3.49,3.49,3.49,0,0,1-3.49-3.49"/><path class="cls-30" d="M533.84,167.56a3.49,3.49,0,1,1,3.49,3.49,3.49,3.49,0,0,1-3.49-3.49"/><g class="cls-31"><g class="cls-32"><path class="cls-17" d="M570.6,239.21l-.1,1a1.7,1.7,0,0,0,.1.78Z"/></g></g><path class="cls-7" d="M536.53,83a43.64,43.64,0,0,0,4.54,4.54c2.62,2.2,5.41,4.42,5.41,4.42l4-16-4.73-.85c-2.39,7.66-9.18,7.94-9.18,7.94"/><path class="cls-7" d="M536.53,83l-9.94,9.65-3.94-16,4.72-.94A9.59,9.59,0,0,0,536.53,83"/><path class="cls-33" d="M312.9,127.83a93.56,93.56,0,0,0,93.57,93.56V34.26a93.57,93.57,0,0,0-93.57,93.57"/><path class="cls-33" d="M500,127.83a93.45,93.45,0,0,1-93.56,93.56V34.26c2.11,0,4.22.06,6.31.22A93.55,93.55,0,0,1,500,127.83"/><path class="cls-34" d="M388.31,34.26a93.57,93.57,0,1,0,93.57,93.57,93.56,93.56,0,0,0-93.57-93.57"/><path class="cls-33" d="M310.49,127.83a77.81,77.81,0,0,0,77.82,77.82V50a77.82,77.82,0,0,0-77.82,77.82"/><path class="cls-33" d="M388.31,50V205.65a77.82,77.82,0,0,0,0-155.64"/><g class="cls-35"><g class="cls-36"><path class="cls-34" d="M365.75,37l-68.26,68.25a93.74,93.74,0,0,0-2.74,22.37l93.36-93.37A93.09,93.09,0,0,0,365.75,37"/><path class="cls-34" d="M420.9,40.1,300.58,160.42a93.67,93.67,0,0,0,29.89,41L461.87,70a93.84,93.84,0,0,0-41-29.89"/></g></g><path class="cls-37" d="M281.87,197.54V189.6a27,27,0,0,0-26.93-26.93h-.47a27,27,0,0,0-26.92,26.93l-.14,7.94Z"/><polygon class="cls-15" points="240.32 215.76 279.27 215.76 281.87 197.54 240.32 197.54 240.32 215.76"/><polygon class="cls-13" points="271.8 368.81 261.75 369.04 261.55 360.6 271.59 360.34 271.8 368.81"/><polygon class="cls-17" points="272.77 378.13 260.95 378.18 260.91 365.92 272.74 365.89 272.77 378.13"/><path class="cls-18" d="M259.13,382a2.19,2.19,0,0,0,2.19,2.21h12.93l23.76,0v-2.91l-38.88.05Z"/><path class="cls-18" d="M289.93,374.79l-7.73,0c-.48,0-.92,0-1.31-.06a1.9,1.9,0,0,0-.44-.07,3.82,3.82,0,0,1-1.83-.76,2.8,2.8,0,0,1-.3-.32,2.41,2.41,0,0,1-.42-1.47v-.37a4.36,4.36,0,0,0-8.7-.4h0v.28a4.14,4.14,0,1,1-8.27,0v-.23a2.17,2.17,0,0,0-1.79,2.15v7.87l38.89-.05c0-4.42-3.63-6.59-8.08-6.59"/><polygon class="cls-13" points="247.63 368.81 237.57 369.04 237.37 360.6 247.42 360.34 247.63 368.81"/><polygon class="cls-19" points="248.58 378.13 236.77 378.18 236.73 365.92 248.55 365.89 248.58 378.13"/><path class="cls-18" d="M235,382a2.19,2.19,0,0,0,2.19,2.21h12.92l23.77,0v-2.91l-38.88.05Z"/><path class="cls-20" d="M273.81,381.38c0-4.42-3.62-6.59-8.06-6.59l-7.72,0c-.5,0-.94,0-1.32-.06a1.9,1.9,0,0,0-.46-.07,4,4,0,0,1-1.83-.76l-.3-.32a2.53,2.53,0,0,1-.42-1.44v0l0-.19h0v-.17a4.36,4.36,0,0,0-8.69-.4h0v.28a4.12,4.12,0,1,1-8.24,0v-.23a2.18,2.18,0,0,0-1.82,2.15l0,4.47v3.4Z"/><polygon class="cls-15" points="252.37 361.77 252.37 197.54 227.41 197.54 232.12 361.77 252.37 361.77"/><g class="cls-38"><g class="cls-39"><path class="cls-40" d="M236.55,342.87c-3.71-20.44-.62-40.26-3.1-60.7-3.59-28.15-6.6-58,2.73-84.63h-8.77l4.71,164.23h20.24V355.5c-7.3-1.24-14.13-4.22-15.81-12.63"/></g></g><polygon class="cls-15" points="281.87 197.54 279.58 277.39 278.51 314.44 277.16 361.77 256.91 361.77 256.91 197.54 281.87 197.54"/><g class="cls-41"><g class="cls-42"><path class="cls-15" d="M275.52,197.54c-6.36,47,2.16,94-1.28,142.11-1.25,10-8.39,16.48-17.33,20.19v1.93h20.25l1.35-47.33,1.07-37.05,2.29-79.85Z"/></g></g><path class="cls-17" d="M285.32,75.83V189.52a4.1,4.1,0,0,1-.23,1.52,3.85,3.85,0,0,1-.62,1.19v0a4.2,4.2,0,0,1-2.61,1.67,2.37,2.37,0,0,1-.81.09H228.24a3.44,3.44,0,0,1-.71-.05,5.1,5.1,0,0,1-1.23-.42,4.59,4.59,0,0,1-2.33-4V75.83a6.23,6.23,0,0,1,.09-.9,4.63,4.63,0,0,1,1.52-2.66,4.16,4.16,0,0,1,2.66-1l2.19-.38,16.9-3,1.29-.24,7.4-1.28.1,0,10.68,2,1.62.33,4.94,1,5.69,1.1,2.19.38a7.36,7.36,0,0,1,2.23,1.09,4.1,4.1,0,0,1,1.81,2.75,6.48,6.48,0,0,1,0,.9"/><polygon class="cls-27" points="260.43 78.96 263.05 116.16 258 151.8 251.86 116.16 254.69 78.96 260.43 78.96"/><path class="cls-28" d="M251.73,79A3.25,3.25,0,0,0,255,82.22h5a3.25,3.25,0,1,0,0-6.5h-5A3.25,3.25,0,0,0,251.73,79"/><path class="cls-40" d="M285.32,75.83V189.52a4.1,4.1,0,0,1-.23,1.52,3.85,3.85,0,0,1-.62,1.19v0a4.2,4.2,0,0,1-2.61,1.67,2.37,2.37,0,0,1-.81.09H228.24a3.44,3.44,0,0,1-.71-.05,5.1,5.1,0,0,1-1.23-.42,4.59,4.59,0,0,1-2.33-4V75.83a6.23,6.23,0,0,1,.09-.9,4.63,4.63,0,0,1,1.52-2.66,4.16,4.16,0,0,1,2.66-1l2.19-.38,16.9-3,10.25,61.46,10.84-60.66,4.94,1,5.69,1.1,2.19.38a7.36,7.36,0,0,1,2.23,1.09,4.1,4.1,0,0,1,1.81,2.75,6.48,6.48,0,0,1,0,.9"/><path class="cls-15" d="M285.28,74.93a4.1,4.1,0,0,0-1.81-2.75,7.22,7.22,0,0,0-2-1,4.83,4.83,0,0,1,.05.63c0,25.34,4.83,56.71-10.86,77.22,2.42,0,4.83,2.42,6,3.62,6,10.86,3.62,25.34-4.82,30.17-14.54,6.92-30.67,9.47-46.79,9.7a4.42,4.42,0,0,0,1.26,1.06,5.1,5.1,0,0,0,1.23.42,3.44,3.44,0,0,0,.71.05h52.81a2.37,2.37,0,0,0,.81-.09,4.2,4.2,0,0,0,2.61-1.67v0a3.85,3.85,0,0,0,.62-1.19,4.1,4.1,0,0,0,.23-1.52V75.83a6.48,6.48,0,0,0,0-.9"/><path class="cls-15" d="M248.62,67.63,242.1,68.8l-6,23.76L248.62,101l-2.22,15.06,11.18,13.25Z"/><path class="cls-15" d="M266.8,68.33c.64.11,5.15,1,5.15,1L277,92.56,265.67,101l3.24,15.54-11.33,12.77Z"/><path class="cls-15" d="M260.36,141.78a3.45,3.45,0,1,0-3.45,3.45,3.44,3.44,0,0,0,3.45-3.45"/><path class="cls-15" d="M260.36,176.62a3.45,3.45,0,1,0-3.45,3.45,3.44,3.44,0,0,0,3.45-3.45"/><path class="cls-15" d="M260.36,159.2a3.45,3.45,0,1,0-3.45,3.45,3.44,3.44,0,0,0,3.45-3.45"/><path class="cls-13" d="M265.86,75.72a9.09,9.09,0,0,0,1-4.23V41.34a9.18,9.18,0,0,0-18.35,0V71.49a9.09,9.09,0,0,0,1,4.23Z"/><g class="cls-22"><g class="cls-43"><path class="cls-13" d="M257.48,64.24c2.51-1.51,6-1.7,9.41-2.3V41.34a9.18,9.18,0,0,0-18.35,0V71.49A9.14,9.14,0,0,0,253,79.37c-1.28-6.07-1.33-11.67,4.45-15.13"/></g></g><path class="cls-13" d="M278.22,43.83a17.62,17.62,0,1,1-35.24,0V25.34a17.62,17.62,0,0,1,35.23-.67c0,.22,0,.44,0,.67Z"/><path class="cls-13" d="M251.72,25.55c-8.07,8.07-8.07,27.68,3.46,32.87a22.25,22.25,0,0,0,11.94,1.79,17.61,17.61,0,0,0,11.1-16.38V25.25c-9-2.33-19.87-5.78-26.5.3"/><g class="cls-22"><g class="cls-44"><path class="cls-13" d="M255.18,58.42c-11.53-5.19-11.53-24.8-3.46-32.87,6.63-6.08,17.49-2.63,26.5-.3,0-.2,0-.39,0-.58a17.62,17.62,0,0,0-35.23.67V43.83a17.64,17.64,0,0,0,24.14,16.38,22.25,22.25,0,0,1-11.94-1.79"/></g></g><path class="cls-45" d="M278.17,24S281.48-1.59,257.23.08c-14.9.33-17.6,9.14-17.6,9.14s-6,0-8.34,4.36c-8.46,15.86,4.93,36.21,13.29,37.75a18.33,18.33,0,0,1-1.5-7.28L243,35.69a16.1,16.1,0,0,1,2.24,3.43c1.47,3.65,3.22,2,3.22.19l0-13.22c0-4.43.92-9.52,3.57-9.86,6.18-.79,2.43,5.07,12.18,5.24,4.92.09,7.09-6.5,9.75-5.79,4.23,1.12,4.27,8.34,4.27,8.34"/><path class="cls-13" d="M244,44.41c-1.83.88-4.43-.73-5.78-3.57s-1-5.88.82-6.76,4.43.73,5.8,3.58,1,5.87-.84,6.75"/><path class="cls-13" d="M242.82,41.2c-.69.48-1.86,0-2.6-1.09s-.78-2.35-.09-2.82,1.86,0,2.6,1.09.78,2.35.09,2.82"/><path class="cls-7" d="M257.71,75.79c0,.34-2.18,2.26-4.49,4.2-2.6,2.17-5.37,4.37-5.37,4.37l-3.92-15.89,4.69-.84c2.29,8.56,9.08,7.11,9.09,8.16"/><path class="cls-7" d="M257.71,75.79c0,.73,9.84,9.25,9.84,9.25l3.89-15.79-4.66-.93c-2.29,8.56-9.07,6.42-9.07,7.47"/><polygon class="cls-13" points="305.81 121.33 299.86 118.17 305.33 107.88 311.29 111.03 305.81 121.33"/><path class="cls-13" d="M312.79,106.47a1.7,1.7,0,0,0,.27,2.4,1.72,1.72,0,0,0,2.4-.27l6.38-8a1.71,1.71,0,1,0-2.67-2.13Z"/><path class="cls-13" d="M305.87,102.3a1.72,1.72,0,0,0,3,1.65l5-9a1.71,1.71,0,0,0-3-1.65Z"/><path class="cls-13" d="M301.87,98.4a1.85,1.85,0,0,1,2.42,1l3.13,7.65a5.76,5.76,0,0,1-2,1.93c-.5.24-1.86-.57-1.86-.57l-2.68-7.6a1.86,1.86,0,0,1,1-2.43"/><path class="cls-13" d="M310.13,103.06a1.71,1.71,0,0,0,2.86,1.87l5.61-8.58a1.72,1.72,0,0,0-2.87-1.88Z"/><path class="cls-13" d="M303.81,105.25a3.38,3.38,0,0,0,1,4.68l4.06,2.65a3.38,3.38,0,0,0,4.68-1l2.64-4a3.4,3.4,0,0,0-1-4.69l-4.05-2.64a3.39,3.39,0,0,0-4.68,1Z"/><path class="cls-7" d="M243.5,155.62a35.49,35.49,0,0,1-9.47-6.94c-16.9-17.2-20.1-52.22-12.41-72.89a7,7,0,1,1,13.11,4.89C228.65,97,231.38,126,244,138.87c6.35,6.46,14.27,7.9,24.22,4.39,10.44-3.68,25.09-19.71,30.72-31l12.53,6.23c-6.16,12.4-23,32.51-38.6,38-10.69,3.77-20.8,3.43-29.39-.84"/><path class="cls-46" d="M311.29,122.1a59,59,0,0,1-5.52,8.78c-8,10.68-20.74,22.07-32.88,26.35a36.93,36.93,0,0,1-29.39-1.61,35.49,35.49,0,0,1-9.47-6.94c-16.9-17.2-20.1-52.22-12.41-72.89a7,7,0,0,1,13.11,4.88C228.65,97,231.37,126,244,138.87c6.35,6.46,13.1,6.66,23,3.16,8.08-2.85,17.78-10.93,24.36-19.69a50,50,0,0,0,4.85-7.73Z"/><polygon class="cls-13" points="482.82 166.32 485.58 159.85 474.4 155.08 471.64 161.54 482.82 166.32"/><path class="cls-13" d="M467.42,158.82a1.78,1.78,0,0,1-.78,3.48L456.21,160a1.79,1.79,0,1,1,.77-3.49Z"/><path class="cls-13" d="M470.29,150.91a1.78,1.78,0,1,1-1.34,3.3l-9.91-4a1.78,1.78,0,0,1-1-2.32,1.81,1.81,0,0,1,2.32-1Z"/><path class="cls-13" d="M471,145.11a1.94,1.94,0,0,0-1.3,2.42l2.47,8.27a6.17,6.17,0,0,0,2.93.22c.56-.13,1.13-1.67,1.13-1.67l-2.8-7.94a2,2,0,0,0-2.43-1.3"/><path class="cls-13" d="M467.34,154.31a1.77,1.77,0,0,1,1.15,2.24,1.79,1.79,0,0,1-2.24,1.16l-10.19-3.29a1.79,1.79,0,0,1,1.09-3.4Z"/><path class="cls-13" d="M473.91,151.94a3.55,3.55,0,0,1,2.28,4.45l-1.56,4.79a3.52,3.52,0,0,1-4.44,2.28l-4.8-1.54a3.54,3.54,0,0,1-2.28-4.46l1.55-4.79a3.52,3.52,0,0,1,4.44-2.27Z"/><path class="cls-7" d="M476.17,167.73l.28.14a86.32,86.32,0,0,0,36.07,8.28c14.94,0,30.73-4.5,39-12.88C568.57,145.88,579,109,571.79,83.68a7.62,7.62,0,0,0-14.65,4.19c5.44,19.06-3.14,52.32-16.69,66.1-11.46,11.67-41.47,8.83-59,.37Z"/><path class="cls-47" d="M486,153.59l-.08.24-4,11.32-2.07,5.91a3.49,3.49,0,0,0,.34.15,74.3,74.3,0,0,0,9.87,3.52,81.59,81.59,0,0,0,21.71,2.77c14.93,0,30.13-3.56,38.8-11.49,22.26-20.35,28.45-57,21.21-82.33a7.62,7.62,0,0,0-14.66,4.19c5.45,19.06-3,50.53-16.53,64.31-9.13,9.28-30.21,8.78-45.89,4.44a69.55,69.55,0,0,1-8.52-3l-.2-.08"/></g></g></g></svg>