<svg xmlns="http://www.w3.org/2000/svg" xmlns:xlink="http://www.w3.org/1999/xlink" viewBox="0 0 885.81 393.4"><defs><style>.cls-1{fill:none;}.cls-2{isolation:isolate;}.cls-3{opacity:0.2;}.cls-4{clip-path:url(#clip-path);}.cls-5{fill:#555;}.cls-6{fill:#8e8e8e;}.cls-7{fill:#c7c7c7;}.cls-8{fill:gray;}.cls-9{fill:#515151;}.cls-10{fill:#545454;}.cls-11{fill:#ababab;}.cls-12{fill:#ebebeb;}.cls-13{fill:#656565;}.cls-14{fill:#6d6d6d;}.cls-15{fill:#717171;}.cls-16{fill:#cfcfcf;}.cls-17{fill:#b0b0b0;}.cls-18{fill:#828282;}.cls-19{fill:#b9b9b9;}.cls-20{opacity:0.5;}.cls-21{clip-path:url(#clip-path-2);}.cls-22{fill:#9f9f9f;}.cls-23{fill:#7d7d7d;}.cls-24{fill:#5c5c5c;}.cls-25{fill:#bfbfbf;}.cls-26{fill:#525252;}.cls-27{fill:#777;}.cls-28{fill:#bababa;}.cls-29{fill:#747474;}.cls-30{fill:#757575;}.cls-31{fill:#5f5f5f;}.cls-32{fill:#a7a7a7;}.cls-33{fill:#b2b2b2;}.cls-34{fill:#424242;}.cls-35{clip-path:url(#clip-path-3);}.cls-36{fill:#ccc;}.cls-37{fill:#ededed;}.cls-38{fill:#8b8b8b;}.cls-39{fill:#676767;}.cls-40{fill:#4f4f4f;}.cls-41{fill:#878787;}.cls-42{fill:#8c8c8c;}.cls-43{clip-path:url(#clip-path-4);}.cls-44{fill:#d3513c;}.cls-45{fill:#b73225;}.cls-46{fill:#f5cb3b;}.cls-47{fill:#ddaf2f;}.cls-48{fill:#c4aa90;}.cls-49{fill:#85674d;}.cls-50{fill:#a07c62;}.cls-51{fill:#b5947d;}.cls-52{fill:#a7d6d3;}.cls-53{fill:#c0e2de;}.cls-54{opacity:0.3;mix-blend-mode:multiply;}.cls-55{clip-path:url(#clip-path-5);}.cls-56{fill:#f37350;}.cls-57{fill:#b1d665;}.cls-58{fill:#f8b797;}.cls-59{fill:#23a1ad;}.cls-60{fill:#ffd066;}.cls-61{fill:#feac1a;}.cls-62{fill:#110239;}.cls-63{fill:#0186cb;}.cls-64{opacity:0.65;}.cls-65{clip-path:url(#clip-path-6);}.cls-66{fill:#0056a3;}.cls-67{fill:#09c9ce;}.cls-68{fill:#f45762;}</style><clipPath id="clip-path" transform="translate(0)"><rect class="cls-1" y="83.44" width="885.8" height="221.55"/></clipPath><clipPath id="clip-path-2" transform="translate(0)"><rect class="cls-1" x="525.29" y="86.16" width="188.52" height="151.33"/></clipPath><clipPath id="clip-path-3" transform="translate(0)"><rect class="cls-1" x="198.09" y="112.46" width="196.67" height="138.2"/></clipPath><clipPath id="clip-path-4" transform="translate(0)"><polygon class="cls-1" points="441.88 15.29 437.39 100.78 538.78 100.78 538.78 15.29 441.88 15.29"/></clipPath><clipPath id="clip-path-5" transform="translate(0)"><rect class="cls-1" x="346.87" y="12.1" width="193.43" height="104.23"/></clipPath><clipPath id="clip-path-6" transform="translate(0)"><rect class="cls-1" x="533.03" y="246.11" width="61.99" height="55.49"/></clipPath></defs><g class="cls-2"><g id="Capa_2" data-name="Capa 2"><g id="Capa_1-2" data-name="Capa 1"><g class="cls-3"><g class="cls-4"><rect class="cls-5" x="21.46" y="280.86" width="3.09" height="17.84"/><path class="cls-6" d="M35.16,266.66c0-24.2-11.61-67-11.61-67s-11.61,42.82-11.61,67,2.9,26.42,11.61,26.42,11.61-2.22,11.61-26.42" transform="translate(0)"/><polygon class="cls-7" points="218.11 300.16 169.63 300.16 169.63 186.6 218.11 204.16 218.11 300.16"/><rect class="cls-8" x="183.75" y="208.73" width="29.18" height="91.44"/><rect class="cls-7" x="182.2" y="215.62" width="23.01" height="11.45"/><rect class="cls-9" x="186.1" y="218.63" width="15.21" height="5.42"/><rect class="cls-7" x="182.2" y="233.69" width="23.01" height="11.45"/><rect class="cls-9" x="186.1" y="236.7" width="15.21" height="5.42"/><rect class="cls-7" x="182.2" y="251.77" width="23.01" height="11.45"/><rect class="cls-9" x="186.1" y="254.78" width="15.21" height="5.42"/><polygon class="cls-10" points="183.6 187.06 227.6 203.56 227.6 210.32 184.78 210.32 183.6 187.06"/><rect class="cls-11" x="49.47" y="106.73" width="138" height="189.3"/><rect class="cls-8" x="49.47" y="106.73" width="138" height="7.92"/><rect class="cls-8" x="59.65" y="198.23" width="117.64" height="20.16"/><rect class="cls-12" x="56.25" y="197.19" width="124.44" height="5.19"/><polygon class="cls-13" points="180.65 197.22 56.29 197.22 62.84 186.26 174.11 186.26 180.65 197.22"/><polygon class="cls-13" points="195.25 109.31 41.69 109.31 53.19 83.44 183.75 83.44 195.25 109.31"/><polygon class="cls-10" points="45.44 100.87 41.69 109.31 195.25 109.31 191.5 100.87 45.44 100.87"/><rect class="cls-12" x="105.05" y="237.94" width="27.11" height="54.82"/><rect class="cls-12" x="109.24" y="226.13" width="18.99" height="7.2"/><path class="cls-12" d="M118.73,222.52h0a6.14,6.14,0,0,1-6.14-6.14v-1.93a6.14,6.14,0,0,1,12.28,0v1.93a6.14,6.14,0,0,1-6.14,6.14" transform="translate(0)"/><path class="cls-9" d="M118.73,218.78h0a2.91,2.91,0,0,1-2.91-2.91V215a2.91,2.91,0,1,1,5.82,0v.91a2.91,2.91,0,0,1-2.91,2.91" transform="translate(0)"/><rect class="cls-14" x="107.41" y="240.61" width="22.4" height="52.15"/><polygon class="cls-5" points="107.41 268.08 107.41 292.76 129.8 292.76 129.8 245.68 107.41 268.08"/><rect class="cls-12" x="61.75" y="227.7" width="22.9" height="36.57"/><rect class="cls-15" x="65.34" y="231.64" width="15.71" height="28.69"/><path class="cls-9" d="M81.06,235.6v-4H65.34v15.09q7.88-5.55,15.72-11.13" transform="translate(0)"/><rect class="cls-12" x="151.27" y="227.7" width="22.9" height="36.57"/><rect class="cls-15" x="154.86" y="231.64" width="15.71" height="28.69"/><path class="cls-9" d="M170.57,235.6v-4H154.86v15.09q7.88-5.55,15.71-11.13" transform="translate(0)"/><rect class="cls-12" x="61.75" y="132.9" width="22.9" height="36.57"/><rect class="cls-15" x="65.34" y="136.83" width="15.71" height="28.69"/><path class="cls-9" d="M81.06,140.79v-4H65.34v15.09q7.88-5.55,15.72-11.13" transform="translate(0)"/><rect class="cls-12" x="107.21" y="132.9" width="22.9" height="36.57"/><rect class="cls-15" x="110.8" y="136.83" width="15.71" height="28.69"/><path class="cls-9" d="M126.51,140.79v-4H110.8v15.09q7.88-5.55,15.71-11.13" transform="translate(0)"/><rect class="cls-12" x="151.27" y="132.9" width="22.9" height="36.57"/><rect class="cls-15" x="154.86" y="136.83" width="15.71" height="28.69"/><path class="cls-9" d="M170.57,140.79v-4H154.86v15.09q7.88-5.55,15.71-11.13" transform="translate(0)"/><rect class="cls-16" x="45.14" y="290.92" width="146.66" height="9.29"/><rect class="cls-17" x="100.88" y="290.92" width="35.19" height="9.29"/><rect class="cls-18" x="100.88" y="293.02" width="35.19" height="2.17"/><rect class="cls-19" x="3.34" y="297.42" width="230.27" height="7.58"/><rect class="cls-12" x="3.34" y="279.74" width="3.6" height="17.68"/><rect class="cls-12" y="278.63" width="100.69" height="3.6"/><rect class="cls-12" x="137.38" y="278.63" width="100.69" height="3.6"/><rect class="cls-12" x="14.67" y="279.74" width="3.6" height="17.68"/><rect class="cls-12" x="26" y="279.74" width="3.6" height="17.68"/><rect class="cls-12" x="37.34" y="279.74" width="3.6" height="17.68"/><rect class="cls-12" x="92.01" y="206.95" width="5.92" height="84.15"/><rect class="cls-7" x="90.9" y="204.91" width="8.15" height="3.04"/><rect class="cls-12" x="89.09" y="201.95" width="11.77" height="3.04"/><rect class="cls-7" x="90.9" y="284.93" width="8.15" height="3.04"/><rect class="cls-12" x="89.09" y="287.89" width="11.77" height="3.04"/><rect class="cls-12" x="59.18" y="206.95" width="5.92" height="84.15"/><rect class="cls-7" x="58.06" y="204.91" width="8.15" height="3.04"/><rect class="cls-12" x="56.25" y="201.95" width="11.77" height="3.04"/><rect class="cls-7" x="58.06" y="284.93" width="8.15" height="3.04"/><rect class="cls-12" x="56.25" y="287.89" width="11.77" height="3.04"/><rect class="cls-12" x="171.89" y="206.95" width="5.92" height="84.15"/><rect class="cls-7" x="170.77" y="204.91" width="8.15" height="3.04"/><rect class="cls-12" x="168.96" y="201.95" width="11.77" height="3.04"/><rect class="cls-7" x="170.77" y="284.93" width="8.15" height="3.04"/><rect class="cls-12" x="168.96" y="287.89" width="11.77" height="3.04"/><rect class="cls-12" x="139.05" y="206.95" width="5.92" height="84.15"/><rect class="cls-7" x="137.93" y="204.91" width="8.15" height="3.04"/><rect class="cls-12" x="136.13" y="201.95" width="11.77" height="3.04"/><rect class="cls-7" x="137.94" y="284.93" width="8.15" height="3.04"/><rect class="cls-12" x="136.13" y="287.89" width="11.77" height="3.04"/><rect class="cls-12" x="48.67" y="279.74" width="3.6" height="17.68"/><rect class="cls-12" x="60" y="279.74" width="3.6" height="17.68"/><rect class="cls-12" x="71.33" y="279.74" width="3.6" height="17.68"/><rect class="cls-12" x="82.67" y="279.74" width="3.6" height="17.68"/><rect class="cls-12" x="94" y="279.74" width="3.6" height="17.68"/><rect class="cls-12" x="139.33" y="279.74" width="3.6" height="17.68"/><rect class="cls-12" x="150.66" y="279.74" width="3.6" height="17.68"/><rect class="cls-12" x="161.99" y="279.74" width="3.6" height="17.68"/><rect class="cls-12" x="173.32" y="279.74" width="3.6" height="17.68"/><rect class="cls-12" x="184.66" y="279.74" width="3.6" height="17.68"/><rect class="cls-12" x="195.99" y="279.74" width="3.6" height="17.68"/><rect class="cls-12" x="207.32" y="279.74" width="3.6" height="17.68"/><rect class="cls-12" x="218.65" y="279.74" width="3.6" height="17.68"/><rect class="cls-12" x="229.99" y="279.74" width="3.6" height="17.68"/><rect class="cls-12" x="65.34" y="122.37" width="15.71" height="5.01"/><rect class="cls-12" x="110.8" y="122.37" width="15.71" height="5.01"/><rect class="cls-8" x="134.21" y="179.8" width="7.61" height="2.43"/><rect class="cls-8" x="99.54" y="169.37" width="7.6" height="2.43"/><rect class="cls-8" x="126.73" y="119.79" width="7.61" height="2.43"/><rect class="cls-8" x="86.98" y="127.21" width="7.61" height="2.43"/><rect class="cls-8" x="174.26" y="144.25" width="7.61" height="2.43"/><rect class="cls-8" x="57.36" y="176.6" width="6.92" height="2.43"/><rect class="cls-8" x="102.32" y="223.7" width="6.92" height="2.43"/><rect class="cls-8" x="79.39" y="270.6" width="6.92" height="2.43"/><rect class="cls-8" x="151.35" y="266.9" width="6.92" height="2.43"/><rect class="cls-12" x="154.86" y="122.37" width="15.71" height="5.01"/><g class="cls-20"><g class="cls-21"><polygon class="cls-7" points="707.38 233.72 669.48 233.72 669.48 144.93 707.38 158.66 707.38 233.72"/><rect class="cls-14" x="680.51" y="162.23" width="22.81" height="71.49"/><rect class="cls-7" x="678.49" y="184.51" width="17.37" height="26.8"/><rect class="cls-9" x="683.65" y="187.32" width="9.29" height="21.19"/><polygon class="cls-10" points="679.9 146.13 713.81 158.19 713.81 165.16 681.32 165.16 679.9 146.13"/><polygon class="cls-7" points="533.11 233.72 571.02 233.72 571.02 144.93 533.11 158.66 533.11 233.72"/><rect class="cls-14" x="537.17" y="162.23" width="22.81" height="71.49"/><rect class="cls-7" x="544.64" y="184.51" width="17.37" height="26.8"/><rect class="cls-9" x="547.55" y="187.32" width="9.29" height="21.19"/><polygon class="cls-10" points="559.9 146.13 525.29 158.19 525.29 165.16 559.17 165.16 559.9 146.13"/><rect class="cls-22" x="553.62" y="116.15" width="132.92" height="117.74"/><rect class="cls-23" x="553.62" y="116.15" width="132.92" height="6.19"/><polygon class="cls-13" points="694.03 118.16 546.12 118.16 570.91 86.16 669.24 86.16 694.03 118.16"/><polygon class="cls-10" points="551.23 111.57 546.12 118.16 694.03 118.16 688.93 111.57 551.23 111.57"/><rect class="cls-12" x="608.05" y="183.67" width="24.27" height="44.26"/><rect class="cls-12" x="611.98" y="176.66" width="16.41" height="3.93"/><rect class="cls-8" x="611.43" y="187.16" width="17.51" height="40.77"/><polygon class="cls-24" points="611.43 208.63 611.43 227.93 628.94 227.93 628.94 191.12 611.43 208.63"/><rect class="cls-12" x="641.61" y="177.06" width="28.23" height="28.59"/><rect class="cls-15" x="644.59" y="180.14" width="22.26" height="22.43"/><polygon class="cls-9" points="661.63 180.14 644.59 180.14 644.59 194.82 661.63 180.14"/><rect class="cls-12" x="654.02" y="177.06" width="3.4" height="28.59"/><rect class="cls-12" x="642.45" y="189.66" width="26.54" height="3.4"/><rect class="cls-12" x="572.18" y="177.06" width="28.23" height="28.59"/><rect class="cls-15" x="575.16" y="180.14" width="22.26" height="22.43"/><polygon class="cls-9" points="592.2 180.14 575.16 180.14 575.16 194.82 592.2 180.14"/><rect class="cls-12" x="584.59" y="177.06" width="3.4" height="28.59"/><rect class="cls-12" x="573.02" y="189.66" width="26.54" height="3.4"/><rect class="cls-12" x="559.74" y="136.6" width="17.9" height="28.59"/><rect class="cls-15" x="562.55" y="139.68" width="12.28" height="22.43"/><path class="cls-9" d="M574.84,142.78v-3.1H562.55v11.8c4.11-2.89,8.19-5.8,12.29-8.7" transform="translate(0)"/><rect class="cls-12" x="594.16" y="136.6" width="17.9" height="28.59"/><rect class="cls-15" x="596.97" y="139.68" width="12.28" height="22.43"/><path class="cls-9" d="M609.25,142.78v-3.1H597v11.8q6.15-4.33,12.28-8.7" transform="translate(0)"/><rect class="cls-12" x="628.61" y="136.6" width="17.9" height="28.59"/><rect class="cls-15" x="631.42" y="139.68" width="12.29" height="22.43"/><path class="cls-9" d="M643.7,142.78v-3.1H631.42v11.8q6.15-4.33,12.28-8.7" transform="translate(0)"/><rect class="cls-16" x="562.75" y="226.49" width="114.66" height="7.26"/><rect class="cls-17" x="606.32" y="226.49" width="27.51" height="7.26"/><rect class="cls-18" x="606.32" y="228.13" width="27.51" height="1.7"/><rect class="cls-19" x="530.06" y="231.57" width="180.03" height="5.92"/><rect class="cls-12" x="530.06" y="217.75" width="2.82" height="13.82"/><rect class="cls-12" x="527.45" y="216.88" width="78.72" height="2.82"/><rect class="cls-12" x="634.86" y="216.88" width="78.72" height="2.82"/><rect class="cls-12" x="538.92" y="217.75" width="2.82" height="13.82"/><rect class="cls-12" x="547.78" y="217.75" width="2.82" height="13.82"/><rect class="cls-12" x="556.64" y="217.75" width="2.82" height="13.82"/><rect class="cls-12" x="565.5" y="217.75" width="2.82" height="13.82"/><rect class="cls-12" x="574.36" y="217.75" width="2.82" height="13.82"/><rect class="cls-12" x="583.23" y="217.75" width="2.82" height="13.82"/><rect class="cls-12" x="592.09" y="217.75" width="2.81" height="13.82"/><rect class="cls-12" x="600.95" y="217.75" width="2.81" height="13.82"/><rect class="cls-12" x="636.39" y="217.75" width="2.82" height="13.82"/><rect class="cls-12" x="645.25" y="217.75" width="2.82" height="13.82"/><rect class="cls-12" x="654.11" y="217.75" width="2.82" height="13.82"/><rect class="cls-12" x="662.97" y="217.75" width="2.82" height="13.82"/><rect class="cls-12" x="671.83" y="217.75" width="2.82" height="13.82"/><rect class="cls-12" x="680.69" y="217.75" width="2.82" height="13.82"/><rect class="cls-12" x="689.55" y="217.75" width="2.82" height="13.82"/><rect class="cls-12" x="698.41" y="217.75" width="2.81" height="13.82"/><rect class="cls-12" x="707.27" y="217.75" width="2.81" height="13.82"/><rect class="cls-12" x="562.55" y="128.38" width="12.28" height="3.92"/><rect class="cls-12" x="596.97" y="128.38" width="12.28" height="3.92"/><rect class="cls-12" x="631.42" y="128.38" width="12.29" height="3.92"/><rect class="cls-10" x="589.59" y="103.8" width="4.56" height="1.56"/><rect class="cls-10" x="645.01" y="93.18" width="4.56" height="1.56"/><rect class="cls-10" x="574.03" y="93.18" width="4.56" height="1.56"/><rect class="cls-10" x="654.83" y="99.63" width="4.56" height="1.56"/><rect class="cls-10" x="597.88" y="92.62" width="4.56" height="1.56"/><rect class="cls-10" x="562.25" y="106.37" width="4.56" height="1.56"/><rect class="cls-12" x="662.25" y="136.6" width="17.9" height="28.59"/><rect class="cls-15" x="665.05" y="139.68" width="12.28" height="22.43"/><path class="cls-9" d="M677.34,142.78v-3.1H665.05v11.8q6.16-4.33,12.29-8.7" transform="translate(0)"/><rect class="cls-12" x="665.05" y="128.38" width="12.28" height="3.92"/><path class="cls-10" d="M637.08,113.1h-34l2.36-6.95c2-5.87,7.89-9.88,14.57-9.88h.15c6.68,0,12.59,4,14.58,9.88Z" transform="translate(0)"/><path class="cls-22" d="M635.75,114.78H604.41l2.16-6.94A14.08,14.08,0,0,1,620,98h.14a14.06,14.06,0,0,1,13.43,9.88Z" transform="translate(0)"/><path class="cls-23" d="M633.05,106.52A14,14,0,0,0,620.15,98H620a14,14,0,0,0-12.91,8.56Z" transform="translate(0)"/><path class="cls-12" d="M625.44,106.66a5.61,5.61,0,1,1-5.61-5.61,5.61,5.61,0,0,1,5.61,5.61" transform="translate(0)"/><path class="cls-25" d="M624.51,106.66a4.68,4.68,0,1,1-4.68-4.68,4.68,4.68,0,0,1,4.68,4.68" transform="translate(0)"/><path class="cls-12" d="M621.52,106.66a1.69,1.69,0,1,1-3.37,0,1.69,1.69,0,0,1,3.37,0" transform="translate(0)"/></g></g><rect class="cls-5" x="673.27" y="272.39" width="3.09" height="17.84"/><path class="cls-6" d="M686,243.37c0-36.56-10.61-101.26-10.61-101.26s-10.61,64.7-10.61,101.26,2.65,39.91,10.61,39.91S686,279.94,686,243.37" transform="translate(0)"/><polygon class="cls-25" points="874.27 186.4 874.27 294.6 812.49 294.6 812.49 183.31 874.27 186.4"/><polygon class="cls-26" points="837.79 186.31 884.98 186.31 850.71 121.84 837.79 142.66 837.79 186.31"/><rect class="cls-27" x="812.49" y="190.88" width="56.96" height="103.72"/><rect class="cls-28" x="832.95" y="219.46" width="22.86" height="38.96"/><rect class="cls-29" x="837.7" y="223.74" width="13.37" height="30.4"/><rect class="cls-12" x="697.34" y="180.18" width="146.66" height="111.57"/><polygon class="cls-30" points="696.78 111.99 692.47 180.55 849.27 180.55 842.82 111.99 696.78 111.99"/><polygon class="cls-31" points="693.5 164.18 692.47 180.55 849.27 180.55 847.73 164.18 693.5 164.18"/><rect class="cls-32" x="772.71" y="184.36" width="66.96" height="103.21"/><polygon class="cls-12" points="781.46 169.02 734.85 105.69 688.76 169.02 781.46 169.02"/><polygon class="cls-32" points="772.49 164.9 734.9 113.19 697.73 164.9 772.49 164.9"/><path class="cls-32" d="M702.24,162.56a32.87,32.87,0,0,0-.57,6v119h66.87v-119a33.78,33.78,0,0,0-.56-6Z" transform="translate(0)"/><rect class="cls-12" x="793.41" y="232.57" width="31.83" height="53.52"/><path class="cls-12" d="M820.73,224.69h-22.5a4.67,4.67,0,0,1-4.67-4.67V218.4a4.67,4.67,0,0,1,4.67-4.67h22.5a4.67,4.67,0,0,1,4.67,4.67V220a4.67,4.67,0,0,1-4.67,4.67" transform="translate(0)"/><rect class="cls-30" x="800.9" y="217.74" width="17.16" height="2.95"/><rect class="cls-8" x="797.35" y="237.73" width="23.95" height="48.36"/><polygon class="cls-24" points="821.3 286.09 821.3 243.15 797.35 267.1 797.35 286.09 821.3 286.09"/><rect class="cls-16" x="697.34" y="282.46" width="146.66" height="9.29"/><rect class="cls-17" x="789.53" y="282.46" width="39.37" height="9.29"/><rect class="cls-18" x="789.53" y="284.55" width="39.37" height="2.17"/><rect class="cls-31" x="792.24" y="146.77" width="6.36" height="1.76"/><rect class="cls-31" x="817.37" y="161.58" width="6.36" height="1.76"/><rect class="cls-31" x="817.35" y="135.4" width="6.36" height="1.76"/><rect class="cls-31" x="774.73" y="116.32" width="6.36" height="1.76"/><rect class="cls-31" x="802.57" y="120.95" width="6.36" height="1.76"/><rect class="cls-31" x="702.71" y="127.97" width="6.36" height="1.76"/><rect class="cls-31" x="755.73" y="126.18" width="6.36" height="1.76"/><rect class="cls-27" x="713.5" y="203.92" width="6.36" height="1.76"/><rect class="cls-27" x="750.7" y="169.6" width="6.36" height="1.76"/><rect class="cls-27" x="749.27" y="263.25" width="6.36" height="1.76"/><rect class="cls-27" x="790.17" y="197.55" width="6.36" height="1.76"/><rect class="cls-27" x="758.9" y="218.2" width="6.36" height="1.76"/><rect class="cls-27" x="778.33" y="258.55" width="6.36" height="1.76"/><rect class="cls-19" x="655.54" y="288.95" width="230.27" height="7.58"/><rect class="cls-12" x="722.31" y="219.9" width="23.21" height="37.07"/><rect class="cls-33" x="726.28" y="224.5" width="15.26" height="27.86"/><path class="cls-29" d="M741.54,228.34V224.5H726.28v14.65q7.65-5.39,15.26-10.81" transform="translate(0)"/><path class="cls-12" d="M745.52,194H722.31V157.76a11.61,11.61,0,0,1,23.21,0Z" transform="translate(0)"/><rect class="cls-33" x="726.28" y="161.53" width="15.26" height="27.86"/><path class="cls-29" d="M734.28,158.35h-.74a4,4,0,1,1,0-7.95h.74a4,4,0,1,1,0,7.95" transform="translate(0)"/><rect class="cls-34" x="731.84" y="130.27" width="4.14" height="7.63"/><rect class="cls-34" x="807.46" y="196.11" width="4.14" height="7.63"/><path class="cls-29" d="M741.54,165.37v-3.84H726.28v14.65q7.65-5.4,15.26-10.81" transform="translate(0)"/><g class="cls-20"><g class="cls-35"><rect class="cls-36" x="206.94" y="148.46" width="178.99" height="99.02"/><rect class="cls-37" x="210.39" y="148.46" width="172.07" height="99.02"/><rect class="cls-36" x="210.39" y="148.46" width="172.07" height="9.61"/><rect class="cls-36" x="278.77" y="212.91" width="35.54" height="33.73"/><path class="cls-36" d="M301.92,210.51H291.15a4.31,4.31,0,0,1,0-8.62h10.77a4.31,4.31,0,0,1,0,8.62" transform="translate(0)"/><rect class="cls-23" x="291.58" y="205.35" width="9.91" height="1.83"/><rect class="cls-5" x="282.45" y="216.62" width="13.02" height="29.72"/><path class="cls-14" d="M295.47,224.85v-8.23h-13V241.9q6.49-8.55,13-17.05" transform="translate(0)"/><rect class="cls-5" x="297.44" y="216.62" width="13.02" height="29.72"/><path class="cls-14" d="M310.46,224.85v-8.23h-13V241.9q6.49-8.55,13-17.05" transform="translate(0)"/><rect class="cls-38" x="198.1" y="245.25" width="196.67" height="5.41"/><rect class="cls-37" x="202.07" y="143.08" width="188.73" height="6.15"/><polygon class="cls-39" points="393.61 143.34 199.25 143.34 206.09 116.43 386.77 116.43 393.61 143.34"/><polygon class="cls-40" points="201.59 134.11 199.25 143.34 393.61 143.34 391.27 134.11 201.59 134.11"/><rect class="cls-37" x="224.82" y="119.7" width="13.51" height="18.53"/><rect class="cls-15" x="227.88" y="123.48" width="7.38" height="10.97"/><path class="cls-9" d="M235.26,125.5v-2h-7.38v9.39c2.46-2.45,4.93-4.91,7.38-7.37" transform="translate(0)"/><path class="cls-40" d="M231.61,118a4.9,4.9,0,0,1,4.73,2.94h5.06l-9.86-8.51L221.68,121h5a5.33,5.33,0,0,1,4.93-2.94" transform="translate(0)"/><polygon class="cls-37" points="238.32 120.98 231.54 115.44 224.76 120.98 238.32 120.98"/><rect class="cls-37" x="289.9" y="119.7" width="13.5" height="18.53"/><rect class="cls-15" x="292.97" y="123.48" width="7.38" height="10.97"/><path class="cls-9" d="M300.34,125.5v-2H293v9.39l7.37-7.37" transform="translate(0)"/><path class="cls-40" d="M296.76,118.22a4.9,4.9,0,0,1,4.65,2.75h5.08l-9.86-8.51L286.76,121h5.16a5.33,5.33,0,0,1,4.84-2.75" transform="translate(0)"/><polygon class="cls-37" points="303.41 120.98 296.63 115.44 289.85 120.98 303.41 120.98"/><rect class="cls-37" x="354.99" y="119.7" width="13.5" height="18.53"/><rect class="cls-15" x="358.05" y="123.48" width="7.38" height="10.97"/><path class="cls-9" d="M365.43,125.5v-2h-7.38v9.39c2.46-2.45,4.93-4.91,7.38-7.37" transform="translate(0)"/><path class="cls-40" d="M357.67,119.35a5.88,5.88,0,0,1,4-1.51h.2a5.35,5.35,0,0,1,4.76,3.13h4.9l-9.86-8.51L351.85,121h4.64a5.59,5.59,0,0,1,1.18-1.62" transform="translate(0)"/><polygon class="cls-37" points="368.49 120.98 361.71 115.44 354.93 120.98 368.49 120.98"/><rect class="cls-36" x="223.53" y="162.87" width="16.35" height="26.12"/><rect class="cls-41" x="241.66" y="162.87" width="8.47" height="26.12"/><rect class="cls-41" x="212.96" y="162.87" width="8.47" height="26.12"/><rect class="cls-15" x="226.1" y="165.68" width="11.22" height="20.49"/><path class="cls-9" d="M237.32,168.51v-2.83H226.1v10.78l11.22-8" transform="translate(0)"/><rect class="cls-36" x="288.36" y="162.87" width="16.35" height="26.12"/><rect class="cls-41" x="306.49" y="162.87" width="8.47" height="26.12"/><rect class="cls-41" x="277.79" y="162.87" width="8.47" height="26.12"/><rect class="cls-15" x="290.93" y="165.68" width="11.22" height="20.49"/><path class="cls-9" d="M302.15,168.51v-2.83H290.93v10.78l11.22-8" transform="translate(0)"/><rect class="cls-36" x="353.19" y="162.87" width="16.35" height="26.12"/><rect class="cls-41" x="371.32" y="162.87" width="8.47" height="26.12"/><rect class="cls-41" x="342.62" y="162.87" width="8.47" height="26.12"/><rect class="cls-15" x="355.76" y="165.68" width="11.22" height="20.49"/><path class="cls-9" d="M367,168.51v-2.83H355.76v10.78l11.22-8" transform="translate(0)"/><rect class="cls-36" x="223.53" y="203.61" width="16.35" height="26.12"/><rect class="cls-41" x="241.66" y="203.61" width="8.47" height="26.12"/><rect class="cls-41" x="212.96" y="203.61" width="8.47" height="26.12"/><rect class="cls-15" x="226.1" y="206.42" width="11.22" height="20.49"/><path class="cls-9" d="M237.32,209.25v-2.83H226.1V217.2q5.63-4,11.22-7.95" transform="translate(0)"/><rect class="cls-36" x="353.19" y="203.61" width="16.35" height="26.12"/><rect class="cls-41" x="371.32" y="203.61" width="8.47" height="26.12"/><rect class="cls-41" x="342.62" y="203.61" width="8.47" height="26.12"/><rect class="cls-41" x="241.66" y="162.87" width="8.47" height="26.12"/><rect class="cls-41" x="212.96" y="162.87" width="8.47" height="26.12"/><rect class="cls-41" x="306.49" y="162.87" width="8.47" height="26.12"/><rect class="cls-41" x="277.79" y="162.87" width="8.47" height="26.12"/><rect class="cls-41" x="371.32" y="162.87" width="8.47" height="26.12"/><rect class="cls-41" x="342.62" y="162.87" width="8.47" height="26.12"/><rect class="cls-41" x="241.66" y="203.61" width="8.47" height="26.12"/><rect class="cls-41" x="212.96" y="203.61" width="8.47" height="26.12"/><rect class="cls-41" x="371.32" y="203.61" width="8.47" height="26.12"/><rect class="cls-41" x="342.62" y="203.61" width="8.47" height="26.12"/><rect class="cls-15" x="355.76" y="206.42" width="11.22" height="20.49"/><path class="cls-9" d="M367,209.25v-2.83H355.76V217.2q5.61-4,11.22-7.95" transform="translate(0)"/><rect class="cls-42" x="215.86" y="151.25" width="2.58" height="4.73"/><rect class="cls-42" x="231.73" y="151.25" width="2.58" height="4.73"/><rect class="cls-42" x="247.6" y="151.25" width="2.58" height="4.73"/><rect class="cls-42" x="263.47" y="151.25" width="2.58" height="4.73"/><rect class="cls-42" x="279.34" y="151.25" width="2.58" height="4.73"/><rect class="cls-42" x="295.22" y="151.25" width="2.58" height="4.73"/><rect class="cls-42" x="311.09" y="151.25" width="2.58" height="4.73"/><rect class="cls-42" x="326.96" y="151.25" width="2.58" height="4.73"/><rect class="cls-42" x="342.83" y="151.25" width="2.58" height="4.73"/><rect class="cls-42" x="358.7" y="151.25" width="2.58" height="4.73"/><rect class="cls-42" x="374.57" y="151.25" width="2.58" height="4.73"/><rect class="cls-40" x="260.43" y="127.32" width="4.8" height="1.34"/><rect class="cls-40" x="339.03" y="121.56" width="4.8" height="1.34"/><rect class="cls-40" x="320.39" y="130.59" width="4.8" height="1.35"/><rect class="cls-40" x="212.58" y="130.59" width="4.8" height="1.35"/><rect class="cls-40" x="248.13" y="120.6" width="4.8" height="1.34"/><rect class="cls-40" x="378.04" y="127.26" width="4.8" height="1.34"/><rect class="cls-36" x="264.27" y="200.93" width="4.8" height="1.35"/><rect class="cls-36" x="329.87" y="221.68" width="4.8" height="1.35"/><rect class="cls-36" x="252.36" y="182.09" width="4.8" height="1.34"/><rect class="cls-36" x="318.6" y="169.41" width="4.8" height="1.35"/><rect class="cls-36" x="329.1" y="191.96" width="4.8" height="1.34"/><rect class="cls-36" x="356.26" y="232.45" width="4.8" height="1.35"/><rect class="cls-36" x="251.21" y="230.4" width="4.8" height="1.35"/><path class="cls-19" d="M388,245.28H322a3.2,3.2,0,0,1-3.2-3.2v-5.47a3.2,3.2,0,0,1,3.2-3.2h66a3.21,3.21,0,0,1,3.21,3.2v5.47a3.21,3.21,0,0,1-3.21,3.2" transform="translate(0)"/><path class="cls-19" d="M271.13,245.28h-66a3.21,3.21,0,0,1-3.21-3.2v-5.47a3.21,3.21,0,0,1,3.21-3.2h66a3.2,3.2,0,0,1,3.2,3.2v5.47a3.2,3.2,0,0,1-3.2,3.2" transform="translate(0)"/><path class="cls-6" d="M318.83,242.5a3.19,3.19,0,0,0,3.16,2.78h66a3.18,3.18,0,0,0,3.16-2.78Z" transform="translate(0)"/><path class="cls-6" d="M202,242.5a3.18,3.18,0,0,0,3.16,2.78h66a3.19,3.19,0,0,0,3.16-2.78Z" transform="translate(0)"/></g></g></g></g><g class="cls-43"><polygon class="cls-44" points="441.88 15.29 538.78 15.29 538.78 100.78 437.39 100.78 441.88 15.29"/><path class="cls-44" d="M423.82,102.38s2,8.05,8.36,8.17,8.73-5,9.35-8.12l-7-3.7Z" transform="translate(0)"/><path class="cls-45" d="M432.39,110.85h-.22c-6.5-.12-8.63-8.31-8.65-8.4l-.07-.27,11.14-3.79,7.28,3.88,0,.22c-.83,4.06-3.74,8.36-9.44,8.36m-8.2-8.28c.43,1.38,2.61,7.57,8,7.67h.21c6.56,0,8.4-5.94,8.79-7.65l-6.64-3.53Z" transform="translate(0)"/><path class="cls-44" d="M441.53,102.38s2,8.05,8.36,8.17,8.73-5,9.35-8.12l-7-3.7Z" transform="translate(0)"/><path class="cls-45" d="M450.09,110.85h-.21c-6.5-.12-8.63-8.31-8.65-8.4l-.07-.27,11.14-3.79,7.28,3.88,0,.22c-.83,4.06-3.74,8.36-9.45,8.36m-8.19-8.28c.42,1.38,2.61,7.57,8,7.67h.21c6.56,0,8.4-5.94,8.79-7.65l-6.64-3.53Z" transform="translate(0)"/><path class="cls-44" d="M459.24,102.38s2,8.05,8.36,8.17,8.72-5,9.35-8.12l-7-3.7Z" transform="translate(0)"/><path class="cls-45" d="M467.8,110.85h-.21c-6.5-.12-8.63-8.31-8.65-8.4l-.07-.27L470,98.39l7.28,3.88,0,.22c-.83,4.06-3.74,8.36-9.45,8.36m-8.19-8.28c.42,1.38,2.61,7.57,8,7.67h.21c6.56,0,8.4-5.94,8.79-7.65L470,99.06Z" transform="translate(0)"/><path class="cls-44" d="M477,102.38s2,8.05,8.36,8.17,8.72-5,9.35-8.12l-7-3.7Z" transform="translate(0)"/><path class="cls-45" d="M485.51,110.85h-.21c-6.5-.12-8.63-8.31-8.65-8.4l-.07-.27,11.14-3.79,7.28,3.88,0,.22c-.83,4.06-3.74,8.36-9.45,8.36m-8.19-8.28c.42,1.38,2.61,7.57,8,7.67h.21c6.56,0,8.4-5.94,8.79-7.65l-6.64-3.53Z" transform="translate(0)"/><path class="cls-44" d="M494.66,102.38s2,8.05,8.36,8.17,8.72-5,9.35-8.12l-7-3.7Z" transform="translate(0)"/><path class="cls-45" d="M503.22,110.85H503c-6.5-.12-8.63-8.31-8.65-8.4l-.07-.27,11.14-3.79,7.28,3.88,0,.22c-.83,4.06-3.74,8.36-9.45,8.36M495,102.57c.42,1.38,2.61,7.57,8,7.67h.21c6.56,0,8.4-5.94,8.79-7.65l-6.64-3.53Z" transform="translate(0)"/><path class="cls-44" d="M512.37,102.38s2,8.05,8.36,8.17,8.72-5,9.35-8.12l-7-3.7Z" transform="translate(0)"/><path class="cls-45" d="M520.93,110.85h-.21c-6.5-.12-8.63-8.31-8.65-8.4l-.07-.27,11.14-3.79,7.28,3.88,0,.22c-.83,4.06-3.74,8.36-9.45,8.36m-8.19-8.28c.42,1.38,2.61,7.57,8,7.67h.21c6.56,0,8.4-5.94,8.79-7.65l-6.64-3.53Z" transform="translate(0)"/><path class="cls-44" d="M530.08,102.38s2,8.05,8.35,8.17,8.73-5,9.36-8.12l-7-3.7Z" transform="translate(0)"/><path class="cls-45" d="M538.64,110.85h-.21c-6.5-.12-8.63-8.31-8.65-8.4l-.07-.27,11.14-3.79,7.28,3.88,0,.22c-.83,4.06-3.74,8.36-9.45,8.36m-8.19-8.28c.42,1.38,2.61,7.57,8,7.67h.21c6.56,0,8.4-5.94,8.79-7.65l-6.64-3.53Z" transform="translate(0)"/><path class="cls-44" d="M547.79,102.38s2,8.05,8.35,8.17,8.73-5,9.36-8.12l-7-3.7Z" transform="translate(0)"/><path class="cls-45" d="M556.35,110.85h-.21c-6.5-.12-8.63-8.31-8.65-8.4l-.07-.27,11.14-3.79,7.28,3.88,0,.22c-.83,4.06-3.74,8.36-9.45,8.36m-8.19-8.28c.42,1.38,2.61,7.57,8,7.67h.21c6.56,0,8.4-5.94,8.79-7.65l-6.64-3.53Z" transform="translate(0)"/><path class="cls-44" d="M415,96.47s2,8,8.36,8.16,8.73-5,9.35-8.11l-7-3.71Z" transform="translate(0)"/><path class="cls-45" d="M423.53,104.94h-.21c-6.5-.12-8.63-8.32-8.65-8.4l-.07-.27,11.14-3.79L433,96.35l0,.23c-.82,4.06-3.73,8.36-9.44,8.36m-8.19-8.28c.42,1.38,2.61,7.57,8,7.67h.2c6.57,0,8.4-5.94,8.8-7.65l-6.64-3.53Z" transform="translate(0)"/><path class="cls-44" d="M432.67,96.47s2,8,8.36,8.16,8.73-5,9.35-8.11l-7-3.71Z" transform="translate(0)"/><path class="cls-45" d="M441.24,104.94H441c-6.5-.12-8.63-8.32-8.65-8.4l-.07-.27,11.14-3.79,7.28,3.87-.05.23c-.82,4.06-3.74,8.36-9.44,8.36m-8.19-8.28c.42,1.38,2.61,7.57,8,7.67h.2c6.57,0,8.4-5.94,8.8-7.65l-6.64-3.53Z" transform="translate(0)"/><path class="cls-44" d="M450.38,96.47s2,8,8.36,8.16,8.73-5,9.35-8.11l-7-3.71Z" transform="translate(0)"/><path class="cls-45" d="M459,104.94h-.21c-6.5-.12-8.63-8.32-8.65-8.4l-.07-.27,11.14-3.79,7.28,3.87-.05.23c-.82,4.06-3.74,8.36-9.44,8.36m-8.19-8.28c.42,1.38,2.61,7.57,8,7.67h.2c6.57,0,8.4-5.94,8.8-7.65l-6.64-3.53Z" transform="translate(0)"/><path class="cls-44" d="M468.09,96.47s2,8,8.36,8.16,8.73-5,9.35-8.11l-7-3.71Z" transform="translate(0)"/><path class="cls-45" d="M476.66,104.94h-.21c-6.5-.12-8.63-8.32-8.65-8.4l-.07-.27,11.14-3.79,7.28,3.87,0,.23c-.82,4.06-3.74,8.36-9.44,8.36m-8.19-8.28c.42,1.38,2.61,7.57,8,7.67h.2c6.56,0,8.4-5.94,8.8-7.65l-6.64-3.53Z" transform="translate(0)"/><path class="cls-44" d="M485.8,96.47s2,8,8.36,8.16,8.73-5,9.35-8.11l-7-3.71Z" transform="translate(0)"/><path class="cls-45" d="M494.37,104.94h-.21c-6.5-.12-8.63-8.32-8.65-8.4l-.07-.27,11.14-3.79,7.28,3.87-.05.23c-.82,4.06-3.74,8.36-9.44,8.36m-8.19-8.28c.42,1.38,2.6,7.57,8,7.67h.2c6.56,0,8.4-5.94,8.8-7.65l-6.65-3.53Z" transform="translate(0)"/><path class="cls-44" d="M503.51,96.47s2,8,8.36,8.16,8.73-5,9.35-8.11l-7-3.71Z" transform="translate(0)"/><path class="cls-45" d="M512.08,104.94h-.21c-6.5-.12-8.63-8.32-8.65-8.4l-.07-.27,11.14-3.79,7.28,3.87-.05.23c-.82,4.06-3.74,8.36-9.44,8.36m-8.19-8.28c.42,1.38,2.6,7.57,8,7.67h.2c6.56,0,8.4-5.94,8.79-7.65l-6.64-3.53Z" transform="translate(0)"/><path class="cls-44" d="M521.22,96.47s2,8,8.36,8.16,8.73-5,9.35-8.11l-7-3.71Z" transform="translate(0)"/><path class="cls-45" d="M529.79,104.94h-.21c-6.5-.12-8.63-8.32-8.65-8.4l-.07-.27L532,92.48l7.28,3.87,0,.23c-.82,4.06-3.74,8.36-9.44,8.36m-8.19-8.28c.42,1.38,2.6,7.57,8,7.67h.2c6.56,0,8.4-5.94,8.79-7.65L532,93.15Z" transform="translate(0)"/><path class="cls-44" d="M538.93,96.47s2,8,8.36,8.16,8.73-5,9.35-8.11l-7-3.71Z" transform="translate(0)"/><path class="cls-45" d="M547.5,104.94h-.22c-6.49-.12-8.62-8.32-8.64-8.4l-.07-.27,11.14-3.79L557,96.35l0,.23c-.82,4.06-3.74,8.36-9.44,8.36m-8.19-8.28c.42,1.38,2.6,7.57,8,7.67,6.69.12,8.6-5.92,9-7.65l-6.64-3.53Z" transform="translate(0)"/><path class="cls-44" d="M423.82,90.55s2,8,8.36,8.17,8.73-5,9.35-8.11l-7-3.71Z" transform="translate(0)"/><path class="cls-45" d="M432.39,99h-.22c-6.5-.12-8.63-8.32-8.65-8.4l-.07-.27,11.14-3.79,7.28,3.87,0,.23C441,94.73,438.09,99,432.39,99m-8.2-8.28c.43,1.38,2.61,7.57,8,7.67h.21c6.56,0,8.4-5.94,8.79-7.65l-6.64-3.54Z" transform="translate(0)"/><path class="cls-44" d="M441.53,90.55s2,8,8.36,8.17,8.73-5,9.35-8.11l-7-3.71Z" transform="translate(0)"/><path class="cls-45" d="M450.09,99h-.21c-6.5-.12-8.63-8.32-8.65-8.4l-.07-.27,11.14-3.79,7.28,3.87,0,.23c-.83,4.06-3.74,8.36-9.45,8.36m-8.19-8.28c.42,1.38,2.61,7.57,8,7.67h.21c6.56,0,8.4-5.94,8.79-7.65l-6.64-3.54Z" transform="translate(0)"/><path class="cls-44" d="M459.24,90.55s2,8,8.36,8.17,8.72-5,9.35-8.11l-7-3.71Z" transform="translate(0)"/><path class="cls-45" d="M467.8,99h-.21c-6.5-.12-8.63-8.32-8.65-8.4l-.07-.27L470,86.57l7.28,3.87,0,.23c-.83,4.06-3.74,8.36-9.45,8.36m-8.19-8.28c.42,1.38,2.61,7.57,8,7.67h.21c6.56,0,8.4-5.94,8.79-7.65L470,87.23Z" transform="translate(0)"/><path class="cls-44" d="M477,90.55s2,8,8.36,8.17,8.72-5,9.35-8.11l-7-3.71Z" transform="translate(0)"/><path class="cls-45" d="M485.51,99h-.21c-6.5-.12-8.63-8.32-8.65-8.4l-.07-.27,11.14-3.79L495,90.44l0,.23c-.83,4.06-3.74,8.36-9.45,8.36m-8.19-8.28c.42,1.38,2.61,7.57,8,7.67h.21c6.56,0,8.4-5.94,8.79-7.65l-6.64-3.54Z" transform="translate(0)"/><path class="cls-44" d="M494.66,90.55s2,8,8.36,8.17,8.72-5,9.35-8.11l-7-3.71Z" transform="translate(0)"/><path class="cls-45" d="M503.22,99H503c-6.5-.12-8.63-8.32-8.65-8.4l-.07-.27,11.14-3.79,7.28,3.87,0,.23c-.83,4.06-3.74,8.36-9.45,8.36M495,90.75c.42,1.38,2.61,7.57,8,7.67h.21c6.56,0,8.4-5.94,8.79-7.65l-6.64-3.54Z" transform="translate(0)"/><path class="cls-44" d="M512.37,90.55s2,8,8.36,8.17,8.72-5,9.35-8.11l-7-3.71Z" transform="translate(0)"/><path class="cls-45" d="M520.93,99h-.21c-6.5-.12-8.63-8.32-8.65-8.4l-.07-.27,11.14-3.79,7.28,3.87,0,.23c-.83,4.06-3.74,8.36-9.45,8.36m-8.19-8.28c.42,1.38,2.61,7.57,8,7.67h.21c6.56,0,8.4-5.94,8.79-7.65l-6.64-3.54Z" transform="translate(0)"/><path class="cls-44" d="M530.08,90.55s2,8,8.35,8.17,8.73-5,9.36-8.11l-7-3.71Z" transform="translate(0)"/><path class="cls-45" d="M538.64,99h-.21c-6.5-.12-8.63-8.32-8.65-8.4l-.07-.27,11.14-3.79,7.28,3.87,0,.23c-.83,4.06-3.74,8.36-9.45,8.36m-8.19-8.28c.42,1.38,2.61,7.57,8,7.67h.21c6.56,0,8.4-5.94,8.79-7.65l-6.64-3.54Z" transform="translate(0)"/><path class="cls-44" d="M547.79,90.55s2,8,8.35,8.17,8.73-5,9.36-8.11l-7-3.71Z" transform="translate(0)"/><path class="cls-45" d="M556.35,99h-.21c-6.5-.12-8.63-8.32-8.65-8.4l-.07-.27,11.14-3.79,7.28,3.87,0,.23C565,94.73,562.06,99,556.35,99m-8.19-8.28c.42,1.38,2.61,7.57,8,7.67h.21c6.56,0,8.4-5.94,8.79-7.65l-6.64-3.54Z" transform="translate(0)"/><path class="cls-44" d="M415,84.64s2,8,8.36,8.17,8.73-5,9.35-8.12l-7-3.7Z" transform="translate(0)"/><path class="cls-45" d="M423.53,93.12h-.21c-6.5-.12-8.63-8.32-8.65-8.4l-.07-.27,11.14-3.79L433,84.53l0,.23c-.82,4.06-3.73,8.36-9.44,8.36m-8.19-8.28c.42,1.38,2.61,7.57,8,7.67h.2c6.57,0,8.4-5.94,8.8-7.65l-6.64-3.54Z" transform="translate(0)"/><path class="cls-44" d="M432.67,84.64s2,8,8.36,8.17,8.73-5,9.35-8.12l-7-3.7Z" transform="translate(0)"/><path class="cls-45" d="M441.24,93.12H441c-6.5-.12-8.63-8.32-8.65-8.4l-.07-.27,11.14-3.79,7.28,3.87-.05.23c-.82,4.06-3.74,8.36-9.44,8.36m-8.19-8.28c.42,1.38,2.61,7.57,8,7.67h.2c6.57,0,8.4-5.94,8.8-7.65l-6.64-3.54Z" transform="translate(0)"/><path class="cls-44" d="M450.38,84.64s2,8,8.36,8.17,8.73-5,9.35-8.12l-7-3.7Z" transform="translate(0)"/><path class="cls-45" d="M459,93.12h-.21c-6.5-.12-8.63-8.32-8.65-8.4l-.07-.27,11.14-3.79,7.28,3.87-.05.23c-.82,4.06-3.74,8.36-9.44,8.36m-8.19-8.28c.42,1.38,2.61,7.57,8,7.67h.2c6.57,0,8.4-5.94,8.8-7.65l-6.64-3.54Z" transform="translate(0)"/><path class="cls-44" d="M468.09,84.64s2,8,8.36,8.17,8.73-5,9.35-8.12l-7-3.7Z" transform="translate(0)"/><path class="cls-45" d="M476.66,93.12h-.21c-6.5-.12-8.63-8.32-8.65-8.4l-.07-.27,11.14-3.79,7.28,3.87,0,.23c-.82,4.06-3.74,8.36-9.44,8.36m-8.19-8.28c.42,1.38,2.61,7.57,8,7.67h.2c6.56,0,8.4-5.94,8.8-7.65l-6.64-3.54Z" transform="translate(0)"/><path class="cls-44" d="M485.8,84.64s2,8,8.36,8.17,8.73-5,9.35-8.12l-7-3.7Z" transform="translate(0)"/><path class="cls-45" d="M494.37,93.12h-.21c-6.5-.12-8.63-8.32-8.65-8.4l-.07-.27,11.14-3.79,7.28,3.87-.05.23c-.82,4.06-3.74,8.36-9.44,8.36m-8.19-8.28c.42,1.38,2.6,7.57,8,7.67h.2c6.56,0,8.4-5.94,8.8-7.65l-6.65-3.54Z" transform="translate(0)"/><path class="cls-44" d="M503.51,84.64s2,8,8.36,8.17,8.73-5,9.35-8.12l-7-3.7Z" transform="translate(0)"/><path class="cls-45" d="M512.08,93.12h-.21c-6.5-.12-8.63-8.32-8.65-8.4l-.07-.27,11.14-3.79,7.28,3.87-.05.23c-.82,4.06-3.74,8.36-9.44,8.36m-8.19-8.28c.42,1.38,2.6,7.57,8,7.67h.2c6.56,0,8.4-5.94,8.79-7.65l-6.64-3.54Z" transform="translate(0)"/><path class="cls-44" d="M521.22,84.64s2,8,8.36,8.17,8.73-5,9.35-8.12L532,81Z" transform="translate(0)"/><path class="cls-45" d="M529.79,93.12h-.21c-6.5-.12-8.63-8.32-8.65-8.4l-.07-.27L532,80.66l7.28,3.87,0,.23c-.82,4.06-3.74,8.36-9.44,8.36m-8.19-8.28c.42,1.38,2.6,7.57,8,7.67h.2c6.56,0,8.4-5.94,8.79-7.65L532,81.32Z" transform="translate(0)"/><path class="cls-44" d="M538.93,84.64s2,8,8.36,8.17,8.73-5,9.35-8.12l-7-3.7Z" transform="translate(0)"/><path class="cls-45" d="M547.5,93.12h-.22c-6.49-.12-8.62-8.32-8.64-8.4l-.07-.27,11.14-3.79L557,84.53l0,.23c-.82,4.06-3.74,8.36-9.44,8.36m-8.19-8.28c.42,1.38,2.6,7.57,8,7.67,6.69.14,8.6-5.93,9-7.65l-6.64-3.54Z" transform="translate(0)"/><path class="cls-44" d="M423.82,78.73s2,8,8.36,8.17,8.73-5.05,9.35-8.12l-7-3.7Z" transform="translate(0)"/><path class="cls-45" d="M432.39,87.21h-.22c-6.5-.13-8.63-8.32-8.65-8.4l-.07-.28,11.14-3.78,7.28,3.87,0,.22c-.83,4.07-3.74,8.37-9.44,8.37m-8.2-8.28c.43,1.38,2.61,7.56,8,7.66h.21c6.56,0,8.4-5.95,8.79-7.65l-6.64-3.54Z" transform="translate(0)"/><path class="cls-44" d="M441.53,78.73s2,8,8.36,8.17,8.73-5.05,9.35-8.12l-7-3.7Z" transform="translate(0)"/><path class="cls-45" d="M450.09,87.21h-.21c-6.5-.13-8.63-8.32-8.65-8.4l-.07-.28,11.14-3.78,7.28,3.87,0,.22c-.83,4.07-3.74,8.37-9.45,8.37m-8.19-8.28c.42,1.38,2.61,7.56,8,7.66h.21c6.56,0,8.4-5.95,8.79-7.65l-6.64-3.54Z" transform="translate(0)"/><path class="cls-44" d="M459.24,78.73s2,8,8.36,8.17,8.72-5.05,9.35-8.12l-7-3.7Z" transform="translate(0)"/><path class="cls-45" d="M467.81,87.21h-.22c-6.5-.13-8.63-8.32-8.65-8.4l-.07-.28L470,74.75l7.28,3.87,0,.22c-.83,4.07-3.74,8.37-9.44,8.37m-8.2-8.28c.42,1.38,2.61,7.56,8,7.66h.21c6.56,0,8.4-5.95,8.79-7.65L470,75.41Z" transform="translate(0)"/><path class="cls-44" d="M477,78.73s2,8,8.36,8.17,8.72-5.05,9.35-8.12l-7-3.7Z" transform="translate(0)"/><path class="cls-45" d="M485.51,87.21h-.21c-6.5-.13-8.63-8.32-8.65-8.4l-.07-.28,11.14-3.78L495,78.62l0,.22c-.83,4.07-3.74,8.37-9.45,8.37m-8.19-8.28c.42,1.38,2.61,7.56,8,7.66h.21c6.56,0,8.4-5.95,8.79-7.65l-6.64-3.54Z" transform="translate(0)"/><path class="cls-44" d="M494.66,78.73s2,8,8.36,8.17,8.72-5.05,9.35-8.12l-7-3.7Z" transform="translate(0)"/><path class="cls-45" d="M503.22,87.21H503c-6.5-.13-8.63-8.32-8.65-8.4l-.07-.28,11.14-3.78,7.28,3.87,0,.22c-.83,4.07-3.74,8.37-9.45,8.37M495,78.93c.42,1.38,2.61,7.56,8,7.66h.21c6.56,0,8.4-5.95,8.79-7.65l-6.64-3.54Z" transform="translate(0)"/><path class="cls-44" d="M512.37,78.73s2,8,8.36,8.17,8.72-5.05,9.35-8.12l-7-3.7Z" transform="translate(0)"/><path class="cls-45" d="M520.93,87.21h-.21c-6.5-.13-8.63-8.32-8.65-8.4l-.07-.28,11.14-3.78,7.28,3.87,0,.22c-.83,4.07-3.74,8.37-9.45,8.37m-8.19-8.28c.42,1.38,2.61,7.56,8,7.66h.21c6.56,0,8.4-5.95,8.79-7.65l-6.64-3.54Z" transform="translate(0)"/><path class="cls-44" d="M530.08,78.73s2,8,8.35,8.17,8.73-5.05,9.36-8.12l-7-3.7Z" transform="translate(0)"/><path class="cls-45" d="M538.64,87.21h-.21c-6.5-.13-8.63-8.32-8.65-8.4l-.07-.28,11.14-3.78,7.28,3.87,0,.22c-.83,4.07-3.74,8.37-9.45,8.37m-8.19-8.28c.42,1.38,2.61,7.56,8,7.66h.21c6.56,0,8.4-5.95,8.79-7.65l-6.64-3.54Z" transform="translate(0)"/><path class="cls-44" d="M547.79,78.73s2,8,8.35,8.17,8.73-5.05,9.36-8.12l-7-3.7Z" transform="translate(0)"/><path class="cls-45" d="M556.35,87.21h-.21c-6.5-.13-8.63-8.32-8.65-8.4l-.07-.28,11.14-3.78,7.28,3.87,0,.22c-.83,4.07-3.74,8.37-9.45,8.37m-8.19-8.28c.42,1.38,2.61,7.56,8,7.66h.21c6.56,0,8.4-5.95,8.79-7.65l-6.64-3.54Z" transform="translate(0)"/><path class="cls-44" d="M415,72.82s2,8.05,8.36,8.17,8.73-5,9.35-8.12l-7-3.7Z" transform="translate(0)"/><path class="cls-45" d="M423.53,81.3h-.21c-6.5-.12-8.63-8.31-8.65-8.4l-.07-.27,11.14-3.78L433,72.71l0,.22c-.82,4.07-3.73,8.37-9.44,8.37M415.34,73c.42,1.38,2.61,7.56,8,7.66h.2c6.57,0,8.4-6,8.8-7.66l-6.64-3.53Z" transform="translate(0)"/><path class="cls-44" d="M432.67,72.82s2,8.05,8.36,8.17,8.73-5,9.35-8.12l-7-3.7Z" transform="translate(0)"/><path class="cls-45" d="M441.24,81.3H441c-6.5-.12-8.63-8.31-8.65-8.4l-.07-.27,11.14-3.78,7.28,3.87-.05.22c-.82,4.07-3.74,8.37-9.44,8.37M433.05,73c.42,1.38,2.61,7.56,8,7.66h.2c6.57,0,8.4-6,8.8-7.66L443.4,69.5Z" transform="translate(0)"/><path class="cls-44" d="M450.38,72.82s2,8.05,8.36,8.17,8.73-5,9.35-8.12l-7-3.7Z" transform="translate(0)"/><path class="cls-45" d="M459,81.3h-.21c-6.5-.12-8.63-8.31-8.65-8.4l-.07-.27,11.14-3.78,7.28,3.87-.05.22c-.82,4.07-3.74,8.37-9.44,8.37M450.76,73c.42,1.38,2.61,7.56,8,7.66h.2c6.57,0,8.4-6,8.8-7.66l-6.64-3.53Z" transform="translate(0)"/><path class="cls-44" d="M468.09,72.82s2,8.05,8.36,8.17,8.73-5,9.35-8.12l-7-3.7Z" transform="translate(0)"/><path class="cls-45" d="M476.66,81.3h-.21c-6.5-.12-8.63-8.31-8.65-8.4l-.07-.27,11.14-3.78,7.28,3.87,0,.22c-.82,4.07-3.74,8.37-9.44,8.37M468.47,73c.42,1.38,2.61,7.56,8,7.66h.2c6.56,0,8.4-6,8.8-7.66l-6.64-3.53Z" transform="translate(0)"/><path class="cls-44" d="M485.8,72.82s2,8.05,8.36,8.17,8.73-5,9.35-8.12l-7-3.7Z" transform="translate(0)"/><path class="cls-45" d="M494.37,81.3h-.21c-6.5-.12-8.63-8.31-8.65-8.4l-.07-.27,11.14-3.78,7.28,3.87-.05.22c-.82,4.07-3.74,8.37-9.44,8.37M486.18,73c.42,1.38,2.6,7.56,8,7.66h.2c6.56,0,8.4-6,8.8-7.66l-6.65-3.53Z" transform="translate(0)"/><path class="cls-44" d="M503.51,72.82s2,8.05,8.36,8.17,8.73-5,9.35-8.12l-7-3.7Z" transform="translate(0)"/><path class="cls-45" d="M512.08,81.3h-.21c-6.5-.12-8.63-8.31-8.65-8.4l-.07-.27,11.14-3.78,7.28,3.87-.05.22c-.82,4.07-3.74,8.37-9.44,8.37M503.89,73c.42,1.38,2.6,7.56,8,7.66h.2c6.56,0,8.4-6,8.79-7.66l-6.64-3.53Z" transform="translate(0)"/><path class="cls-44" d="M521.22,72.82s2,8.05,8.36,8.17,8.73-5,9.35-8.12l-7-3.7Z" transform="translate(0)"/><path class="cls-45" d="M529.79,81.3h-.21c-6.5-.12-8.63-8.31-8.65-8.4l-.07-.27L532,68.84l7.28,3.87,0,.22c-.82,4.07-3.74,8.37-9.44,8.37M521.6,73c.42,1.38,2.6,7.56,8,7.66h.2c6.56,0,8.4-6,8.79-7.66L532,69.5Z" transform="translate(0)"/><path class="cls-44" d="M538.93,72.82s2,8.05,8.36,8.17,8.73-5,9.35-8.12l-7-3.7Z" transform="translate(0)"/><path class="cls-45" d="M547.5,81.3h-.22c-6.49-.12-8.62-8.31-8.64-8.4l-.07-.27,11.14-3.78L557,72.71l0,.22c-.82,4.07-3.74,8.37-9.44,8.37M539.31,73c.42,1.38,2.6,7.56,8,7.66h.2c6.56,0,8.4-6,8.79-7.66l-6.64-3.53Z" transform="translate(0)"/><path class="cls-44" d="M423.82,66.91s2,8,8.36,8.17,8.73-5,9.35-8.12l-7-3.7Z" transform="translate(0)"/><path class="cls-45" d="M432.39,75.39h-.22c-6.5-.12-8.63-8.31-8.65-8.4l-.07-.27,11.14-3.79,7.28,3.88,0,.22c-.83,4.07-3.74,8.37-9.44,8.37m-8.2-8.28c.43,1.38,2.61,7.56,8,7.66h.21c6.56,0,8.4-5.94,8.79-7.65l-6.64-3.53Z" transform="translate(0)"/><path class="cls-44" d="M441.53,66.91s2,8,8.36,8.17,8.73-5,9.35-8.12l-7-3.7Z" transform="translate(0)"/><path class="cls-45" d="M450.09,75.39h-.21c-6.5-.12-8.63-8.31-8.65-8.4l-.07-.27,11.14-3.79,7.28,3.88,0,.22c-.83,4.07-3.74,8.37-9.45,8.37m-8.19-8.28c.42,1.38,2.61,7.56,8,7.66h.21c6.56,0,8.4-5.94,8.79-7.65l-6.64-3.53Z" transform="translate(0)"/><path class="cls-44" d="M459.24,66.91s2,8,8.36,8.17S476.32,70,477,67l-7-3.7Z" transform="translate(0)"/><path class="cls-45" d="M467.8,75.39h-.21c-6.5-.12-8.63-8.31-8.65-8.4l-.07-.27L470,62.92l7.28,3.88,0,.22c-.83,4.07-3.74,8.37-9.45,8.37m-8.19-8.28c.42,1.38,2.61,7.56,8,7.66h.21c6.56,0,8.4-5.94,8.79-7.65L470,63.59Z" transform="translate(0)"/><path class="cls-44" d="M477,66.91s2,8,8.36,8.17S494,70,494.66,67l-7-3.7Z" transform="translate(0)"/><path class="cls-45" d="M485.51,75.39h-.21c-6.5-.12-8.63-8.31-8.65-8.4l-.07-.27,11.14-3.79L495,66.8l0,.22c-.83,4.07-3.74,8.37-9.45,8.37m-8.19-8.28c.42,1.38,2.61,7.56,8,7.66h.21c6.56,0,8.4-5.94,8.79-7.65l-6.64-3.53Z" transform="translate(0)"/><path class="cls-44" d="M494.66,66.91s2,8,8.36,8.17,8.72-5,9.35-8.12l-7-3.7Z" transform="translate(0)"/><path class="cls-45" d="M503.22,75.39H503c-6.5-.12-8.63-8.31-8.65-8.4l-.07-.27,11.14-3.79,7.28,3.88,0,.22c-.83,4.07-3.74,8.37-9.45,8.37M495,67.11c.42,1.38,2.61,7.56,8,7.66h.21c6.56,0,8.4-5.94,8.79-7.65l-6.64-3.53Z" transform="translate(0)"/><path class="cls-44" d="M512.37,66.91s2,8,8.36,8.17,8.72-5,9.35-8.12l-7-3.7Z" transform="translate(0)"/><path class="cls-45" d="M520.93,75.39h-.21c-6.5-.12-8.63-8.31-8.65-8.4l-.07-.27,11.14-3.79,7.28,3.88,0,.22c-.83,4.07-3.74,8.37-9.45,8.37m-8.19-8.28c.42,1.38,2.61,7.56,8,7.66h.21c6.56,0,8.4-5.94,8.79-7.65l-6.64-3.53Z" transform="translate(0)"/><path class="cls-44" d="M530.08,66.91s2,8,8.35,8.17,8.73-5,9.36-8.12l-7-3.7Z" transform="translate(0)"/><path class="cls-45" d="M538.64,75.39h-.21c-6.5-.12-8.63-8.31-8.65-8.4l-.07-.27,11.14-3.79,7.28,3.88,0,.22c-.83,4.07-3.74,8.37-9.45,8.37m-8.19-8.28c.42,1.38,2.61,7.56,8,7.66h.21c6.56,0,8.4-5.94,8.79-7.65l-6.64-3.53Z" transform="translate(0)"/><path class="cls-44" d="M547.79,66.91s2,8,8.35,8.17,8.73-5,9.36-8.12l-7-3.7Z" transform="translate(0)"/><path class="cls-45" d="M556.35,75.39h-.21c-6.5-.12-8.63-8.31-8.65-8.4l-.07-.27,11.14-3.79,7.28,3.88,0,.22c-.83,4.07-3.74,8.37-9.45,8.37m-8.19-8.28c.42,1.38,2.61,7.56,8,7.66h.21c6.56,0,8.4-5.94,8.79-7.65l-6.64-3.53Z" transform="translate(0)"/><path class="cls-44" d="M415,61s2,8,8.36,8.17,8.73-5,9.35-8.12l-7-3.7Z" transform="translate(0)"/><path class="cls-45" d="M423.53,69.47h-.21c-6.5-.12-8.63-8.31-8.65-8.4l-.07-.27L425.74,57,433,60.89l0,.22c-.82,4.06-3.73,8.36-9.44,8.36m-8.19-8.27c.42,1.38,2.61,7.56,8,7.66h.2c6.57,0,8.4-5.94,8.8-7.65l-6.64-3.53Z" transform="translate(0)"/><path class="cls-44" d="M432.67,61s2,8,8.36,8.17,8.73-5,9.35-8.12l-7-3.7Z" transform="translate(0)"/><path class="cls-45" d="M441.24,69.47H441c-6.5-.12-8.63-8.31-8.65-8.4l-.07-.27L443.45,57l7.28,3.88-.05.22c-.82,4.06-3.74,8.36-9.44,8.36m-8.19-8.27c.42,1.38,2.61,7.56,8,7.66h.2c6.57,0,8.4-5.94,8.8-7.65l-6.64-3.53Z" transform="translate(0)"/><path class="cls-44" d="M450.38,61s2,8,8.36,8.17,8.73-5,9.35-8.12l-7-3.7Z" transform="translate(0)"/><path class="cls-45" d="M459,69.47h-.21c-6.5-.12-8.63-8.31-8.65-8.4L450,60.8,461.16,57l7.28,3.88-.05.22c-.82,4.06-3.74,8.36-9.44,8.36m-8.19-8.27c.42,1.38,2.61,7.56,8,7.66h.2c6.57,0,8.4-5.94,8.8-7.65l-6.64-3.53Z" transform="translate(0)"/><path class="cls-44" d="M468.09,61s2,8,8.36,8.17,8.73-5,9.35-8.12l-7-3.7Z" transform="translate(0)"/><path class="cls-45" d="M476.66,69.47h-.21c-6.5-.12-8.63-8.31-8.65-8.4l-.07-.27L478.87,57l7.28,3.88,0,.22c-.82,4.06-3.74,8.36-9.44,8.36m-8.19-8.27c.42,1.38,2.61,7.56,8,7.66h.2c6.56,0,8.4-5.94,8.8-7.65l-6.64-3.53Z" transform="translate(0)"/><path class="cls-44" d="M485.8,61s2,8,8.36,8.17,8.73-5,9.35-8.12l-7-3.7Z" transform="translate(0)"/><path class="cls-45" d="M494.37,69.47h-.21c-6.5-.12-8.63-8.31-8.65-8.4l-.07-.27L496.58,57l7.28,3.88-.05.22c-.82,4.06-3.74,8.36-9.44,8.36m-8.19-8.27c.42,1.38,2.6,7.56,8,7.66h.2c6.56,0,8.4-5.94,8.8-7.65l-6.65-3.53Z" transform="translate(0)"/><path class="cls-44" d="M503.51,61s2,8,8.36,8.17,8.73-5,9.35-8.12l-7-3.7Z" transform="translate(0)"/><path class="cls-45" d="M512.08,69.47h-.21c-6.5-.12-8.63-8.31-8.65-8.4l-.07-.27L514.29,57l7.28,3.88-.05.22c-.82,4.06-3.74,8.36-9.44,8.36m-8.19-8.27c.42,1.38,2.6,7.56,8,7.66h.2c6.56,0,8.4-5.94,8.79-7.65l-6.64-3.53Z" transform="translate(0)"/><path class="cls-44" d="M521.22,61s2,8,8.36,8.17,8.73-5,9.35-8.12l-7-3.7Z" transform="translate(0)"/><path class="cls-45" d="M529.79,69.47h-.21c-6.5-.12-8.63-8.31-8.65-8.4l-.07-.27L532,57l7.28,3.88,0,.22c-.82,4.06-3.74,8.36-9.44,8.36M521.6,61.2c.42,1.38,2.6,7.56,8,7.66h.2c6.56,0,8.4-5.94,8.79-7.65L532,57.68Z" transform="translate(0)"/><path class="cls-44" d="M538.93,61s2,8,8.36,8.17,8.73-5,9.35-8.12l-7-3.7Z" transform="translate(0)"/><path class="cls-45" d="M547.5,69.47h-.22c-6.49-.12-8.62-8.31-8.64-8.4l-.07-.27L549.71,57,557,60.89l0,.22c-.82,4.06-3.74,8.36-9.44,8.36m-8.19-8.27c.42,1.38,2.6,7.56,8,7.66,6.69.12,8.6-5.92,9-7.65l-6.64-3.53Z" transform="translate(0)"/><path class="cls-44" d="M423.82,55.09s2,8,8.36,8.17,8.73-5,9.35-8.12l-7-3.7Z" transform="translate(0)"/><path class="cls-45" d="M432.39,63.56h-.22c-6.5-.12-8.63-8.31-8.65-8.4l-.07-.27,11.14-3.79L441.87,55l0,.22c-.83,4.06-3.74,8.36-9.44,8.36m-8.2-8.28c.43,1.38,2.61,7.57,8,7.67h.21c6.56,0,8.4-5.94,8.79-7.65l-6.64-3.53Z" transform="translate(0)"/><path class="cls-44" d="M441.53,55.09s2,8,8.36,8.17,8.73-5,9.35-8.12l-7-3.7Z" transform="translate(0)"/><path class="cls-45" d="M450.09,63.56h-.21c-6.5-.12-8.63-8.31-8.65-8.4l-.07-.27L452.3,51.1,459.58,55l0,.22c-.83,4.06-3.74,8.36-9.45,8.36m-8.19-8.28c.42,1.38,2.61,7.57,8,7.67h.21c6.56,0,8.4-5.94,8.79-7.65l-6.64-3.53Z" transform="translate(0)"/><path class="cls-44" d="M459.24,55.09s2,8,8.36,8.17,8.72-5,9.35-8.12l-7-3.7Z" transform="translate(0)"/><path class="cls-45" d="M467.8,63.56h-.21c-6.5-.12-8.63-8.31-8.65-8.4l-.07-.27L470,51.1,477.29,55l0,.22c-.83,4.06-3.74,8.36-9.45,8.36m-8.19-8.28c.42,1.38,2.61,7.57,8,7.67h.21c6.56,0,8.4-5.94,8.79-7.65L470,51.77Z" transform="translate(0)"/><path class="cls-44" d="M477,55.09s2,8,8.36,8.17,8.72-5,9.35-8.12l-7-3.7Z" transform="translate(0)"/><path class="cls-45" d="M485.51,63.56h-.21c-6.5-.12-8.63-8.31-8.65-8.4l-.07-.27,11.14-3.79L495,55l0,.22c-.83,4.06-3.74,8.36-9.45,8.36m-8.19-8.28c.42,1.38,2.61,7.57,8,7.67h.21c6.56,0,8.4-5.94,8.79-7.65l-6.64-3.53Z" transform="translate(0)"/><path class="cls-44" d="M494.66,55.09s2,8,8.36,8.17,8.72-5,9.35-8.12l-7-3.7Z" transform="translate(0)"/><path class="cls-45" d="M503.22,63.56H503c-6.5-.12-8.63-8.31-8.65-8.4l-.07-.27,11.14-3.79L512.71,55l0,.22c-.83,4.06-3.74,8.36-9.45,8.36M495,55.28c.42,1.38,2.61,7.57,8,7.67h.21c6.56,0,8.4-5.94,8.79-7.65l-6.64-3.53Z" transform="translate(0)"/><path class="cls-44" d="M512.37,55.09s2,8,8.36,8.17,8.72-5,9.35-8.12l-7-3.7Z" transform="translate(0)"/><path class="cls-45" d="M520.93,63.56h-.21c-6.5-.12-8.63-8.31-8.65-8.4l-.07-.27,11.14-3.79L530.42,55l0,.22c-.83,4.06-3.74,8.36-9.45,8.36m-8.19-8.28c.42,1.38,2.61,7.57,8,7.67h.21c6.56,0,8.4-5.94,8.79-7.65l-6.64-3.53Z" transform="translate(0)"/><path class="cls-44" d="M530.08,55.09s2,8,8.35,8.17,8.73-5,9.36-8.12l-7-3.7Z" transform="translate(0)"/><path class="cls-45" d="M538.64,63.56h-.21c-6.5-.12-8.63-8.31-8.65-8.4l-.07-.27,11.14-3.79L548.13,55l0,.22c-.83,4.06-3.74,8.36-9.45,8.36m-8.19-8.28c.42,1.38,2.61,7.57,8,7.67h.21c6.56,0,8.4-5.94,8.79-7.65l-6.64-3.53Z" transform="translate(0)"/><path class="cls-44" d="M547.79,55.09s2,8,8.35,8.17,8.73-5,9.36-8.12l-7-3.7Z" transform="translate(0)"/><path class="cls-45" d="M556.35,63.56h-.21c-6.5-.12-8.63-8.31-8.65-8.4l-.07-.27,11.14-3.79L565.84,55l0,.22c-.83,4.06-3.74,8.36-9.45,8.36m-8.19-8.28c.42,1.38,2.61,7.57,8,7.67h.21c6.56,0,8.4-5.94,8.79-7.65l-6.64-3.53Z" transform="translate(0)"/><path class="cls-44" d="M415,49.18s2,8,8.36,8.16,8.73-5.05,9.35-8.11l-7-3.71Z" transform="translate(0)"/><path class="cls-45" d="M423.53,57.65h-.21c-6.5-.12-8.63-8.32-8.65-8.4L414.6,49l11.14-3.79L433,49.06l0,.23c-.82,4.06-3.73,8.36-9.44,8.36m-8.19-8.28c.42,1.38,2.61,7.57,8,7.67h.2c6.57,0,8.4-5.94,8.8-7.65l-6.64-3.53Z" transform="translate(0)"/><path class="cls-44" d="M432.67,49.18s2,8,8.36,8.16,8.73-5.05,9.35-8.11l-7-3.71Z" transform="translate(0)"/><path class="cls-45" d="M441.24,57.65H441c-6.5-.12-8.63-8.32-8.65-8.4l-.07-.27,11.14-3.79,7.28,3.87-.05.23c-.82,4.06-3.74,8.36-9.44,8.36m-8.19-8.28c.42,1.38,2.61,7.57,8,7.67h.2c6.57,0,8.4-5.94,8.8-7.65l-6.64-3.53Z" transform="translate(0)"/><path class="cls-44" d="M450.38,49.18s2,8,8.36,8.16,8.73-5.05,9.35-8.11l-7-3.71Z" transform="translate(0)"/><path class="cls-45" d="M459,57.65h-.21c-6.5-.12-8.63-8.32-8.65-8.4L450,49l11.14-3.79,7.28,3.87-.05.23c-.82,4.06-3.74,8.36-9.44,8.36m-8.19-8.28c.42,1.38,2.61,7.57,8,7.67h.2c6.57,0,8.4-5.94,8.8-7.65l-6.64-3.53Z" transform="translate(0)"/><path class="cls-44" d="M468.09,49.18s2,8,8.36,8.16,8.73-5.05,9.35-8.11l-7-3.71Z" transform="translate(0)"/><path class="cls-45" d="M476.66,57.65h-.21c-6.5-.12-8.63-8.32-8.65-8.4l-.07-.27,11.14-3.79,7.28,3.87,0,.23c-.82,4.06-3.74,8.36-9.44,8.36m-8.19-8.28c.42,1.38,2.61,7.57,8,7.67h.2c6.56,0,8.4-5.94,8.8-7.65l-6.64-3.53Z" transform="translate(0)"/><path class="cls-44" d="M485.8,49.18s2,8,8.36,8.16,8.73-5.05,9.35-8.11l-7-3.71Z" transform="translate(0)"/><path class="cls-45" d="M494.37,57.65h-.21c-6.5-.12-8.63-8.32-8.65-8.4l-.07-.27,11.14-3.79,7.28,3.87-.05.23c-.82,4.06-3.74,8.36-9.44,8.36m-8.19-8.28c.42,1.38,2.6,7.57,8,7.67h.2c6.56,0,8.4-5.94,8.8-7.65l-6.65-3.53Z" transform="translate(0)"/><path class="cls-44" d="M503.51,49.18s2,8,8.36,8.16,8.73-5.05,9.35-8.11l-7-3.71Z" transform="translate(0)"/><path class="cls-45" d="M512.08,57.65h-.21c-6.5-.12-8.63-8.32-8.65-8.4l-.07-.27,11.14-3.79,7.28,3.87-.05.23c-.82,4.06-3.74,8.36-9.44,8.36m-8.19-8.28c.42,1.38,2.6,7.57,8,7.67h.2c6.56,0,8.4-5.94,8.79-7.65l-6.64-3.53Z" transform="translate(0)"/><path class="cls-44" d="M521.22,49.18s2,8,8.36,8.16,8.73-5.05,9.35-8.11l-7-3.71Z" transform="translate(0)"/><path class="cls-45" d="M529.79,57.65h-.21c-6.5-.12-8.63-8.32-8.65-8.4l-.07-.27L532,45.19l7.28,3.87,0,.23c-.82,4.06-3.74,8.36-9.44,8.36m-8.19-8.28c.42,1.38,2.6,7.57,8,7.67h.2c6.56,0,8.4-5.94,8.79-7.65L532,45.86Z" transform="translate(0)"/><path class="cls-44" d="M538.93,49.18s2,8,8.36,8.16,8.73-5.05,9.35-8.11l-7-3.71Z" transform="translate(0)"/><path class="cls-45" d="M547.5,57.65h-.22c-6.49-.12-8.62-8.32-8.64-8.4l-.07-.27,11.14-3.79L557,49.06l0,.23c-.82,4.06-3.74,8.36-9.44,8.36m-8.19-8.28c.42,1.38,2.6,7.57,8,7.67,6.69.14,8.6-5.92,9-7.65l-6.64-3.53Z" transform="translate(0)"/><path class="cls-44" d="M423.82,43.26s2,8.05,8.36,8.17,8.73-5,9.35-8.11l-7-3.71Z" transform="translate(0)"/><path class="cls-45" d="M432.39,51.74h-.22c-6.5-.12-8.63-8.32-8.65-8.4l-.07-.27,11.14-3.79,7.28,3.87,0,.23c-.83,4.06-3.74,8.36-9.44,8.36m-8.2-8.28c.43,1.38,2.61,7.57,8,7.67h.21c6.56,0,8.4-5.94,8.79-7.65L434.54,40Z" transform="translate(0)"/><path class="cls-44" d="M441.53,43.26s2,8.05,8.36,8.17,8.73-5,9.35-8.11l-7-3.71Z" transform="translate(0)"/><path class="cls-45" d="M450.09,51.74h-.21c-6.5-.12-8.63-8.32-8.65-8.4l-.07-.27,11.14-3.79,7.28,3.87,0,.23c-.83,4.06-3.74,8.36-9.45,8.36m-8.19-8.28c.42,1.38,2.61,7.57,8,7.67h.21c6.56,0,8.4-5.94,8.79-7.65L452.25,40Z" transform="translate(0)"/><path class="cls-44" d="M459.24,43.26s2,8.05,8.36,8.17,8.72-5,9.35-8.11l-7-3.71Z" transform="translate(0)"/><path class="cls-45" d="M467.8,51.74h-.21c-6.5-.12-8.63-8.32-8.65-8.4l-.07-.27L470,39.28l7.28,3.87,0,.23c-.83,4.06-3.74,8.36-9.45,8.36m-8.19-8.28c.42,1.38,2.61,7.57,8,7.67h.21c6.56,0,8.4-5.94,8.79-7.65L470,40Z" transform="translate(0)"/><path class="cls-44" d="M477,43.26s2,8.05,8.36,8.17,8.72-5,9.35-8.11l-7-3.71Z" transform="translate(0)"/><path class="cls-45" d="M485.51,51.74h-.21c-6.5-.12-8.63-8.32-8.65-8.4l-.07-.27,11.14-3.79L495,43.15l0,.23c-.83,4.06-3.74,8.36-9.45,8.36m-8.19-8.28c.42,1.38,2.61,7.57,8,7.67h.21c6.56,0,8.4-5.94,8.79-7.65L487.67,40Z" transform="translate(0)"/><path class="cls-44" d="M494.66,43.26s2,8.05,8.36,8.17,8.72-5,9.35-8.11l-7-3.71Z" transform="translate(0)"/><path class="cls-45" d="M503.22,51.74H503c-6.5-.12-8.63-8.32-8.65-8.4l-.07-.27,11.14-3.79,7.28,3.87,0,.23c-.83,4.06-3.74,8.36-9.45,8.36M495,43.46c.42,1.38,2.61,7.57,8,7.67h.21c6.56,0,8.4-5.94,8.79-7.65L505.38,40Z" transform="translate(0)"/><path class="cls-44" d="M512.37,43.26s2,8.05,8.36,8.17,8.72-5,9.35-8.11l-7-3.71Z" transform="translate(0)"/><path class="cls-45" d="M520.93,51.74h-.21c-6.5-.12-8.63-8.32-8.65-8.4l-.07-.27,11.14-3.79,7.28,3.87,0,.23c-.83,4.06-3.74,8.36-9.45,8.36m-8.19-8.28c.42,1.38,2.61,7.57,8,7.67h.21c6.56,0,8.4-5.94,8.79-7.65L523.09,40Z" transform="translate(0)"/><path class="cls-44" d="M530.08,43.26s2,8.05,8.35,8.17,8.73-5,9.36-8.11l-7-3.71Z" transform="translate(0)"/><path class="cls-45" d="M538.64,51.74h-.21c-6.5-.12-8.63-8.32-8.65-8.4l-.07-.27,11.14-3.79,7.28,3.87,0,.23c-.83,4.06-3.74,8.36-9.45,8.36m-8.19-8.28c.42,1.38,2.61,7.57,8,7.67h.21c6.56,0,8.4-5.94,8.79-7.65L540.8,40Z" transform="translate(0)"/><path class="cls-44" d="M547.79,43.26s2,8.05,8.35,8.17,8.73-5,9.36-8.11l-7-3.71Z" transform="translate(0)"/><path class="cls-45" d="M556.35,51.74h-.21c-6.5-.12-8.63-8.32-8.65-8.4l-.07-.27,11.14-3.79,7.28,3.87,0,.23c-.83,4.06-3.74,8.36-9.45,8.36m-8.19-8.28c.42,1.38,2.61,7.57,8,7.67h.21c6.56,0,8.4-5.94,8.79-7.65L558.51,40Z" transform="translate(0)"/><path class="cls-44" d="M415,37.35s2,8,8.36,8.17,8.73-5.05,9.35-8.12l-7-3.7Z" transform="translate(0)"/><path class="cls-45" d="M423.53,45.83h-.21c-6.5-.12-8.63-8.32-8.65-8.4l-.07-.27,11.14-3.79L433,37.24l0,.23c-.82,4.06-3.73,8.36-9.44,8.36m-8.19-8.28c.42,1.38,2.61,7.56,8,7.67h.2c6.57,0,8.4-5.94,8.8-7.65L425.69,34Z" transform="translate(0)"/><path class="cls-44" d="M432.67,37.35s2,8,8.36,8.17,8.73-5.05,9.35-8.12l-7-3.7Z" transform="translate(0)"/><path class="cls-45" d="M441.24,45.83H441c-6.5-.12-8.63-8.32-8.65-8.4l-.07-.27,11.14-3.79,7.28,3.87-.05.23c-.82,4.06-3.74,8.36-9.44,8.36m-8.19-8.28c.42,1.38,2.61,7.56,8,7.67h.2c6.57,0,8.41-5.94,8.8-7.65L443.4,34Z" transform="translate(0)"/><path class="cls-44" d="M450.38,37.35s2,8,8.36,8.17,8.73-5.05,9.35-8.12l-7-3.7Z" transform="translate(0)"/><path class="cls-45" d="M459,45.83h-.21c-6.5-.12-8.63-8.32-8.65-8.4l-.07-.27,11.14-3.79,7.28,3.87-.05.23c-.82,4.06-3.74,8.36-9.44,8.36m-8.19-8.28c.42,1.38,2.61,7.56,8,7.67h.2c6.57,0,8.4-5.94,8.8-7.65L461.11,34Z" transform="translate(0)"/><path class="cls-44" d="M468.09,37.35s2,8,8.36,8.17,8.73-5.05,9.35-8.12l-7-3.7Z" transform="translate(0)"/><path class="cls-45" d="M476.66,45.83h-.21c-6.5-.12-8.63-8.32-8.65-8.4l-.07-.27,11.14-3.79,7.28,3.87,0,.23c-.82,4.06-3.74,8.36-9.44,8.36m-8.19-8.28c.42,1.38,2.61,7.56,8,7.67h.2c6.56,0,8.4-5.94,8.8-7.65L478.82,34Z" transform="translate(0)"/><path class="cls-44" d="M485.8,37.35s2,8,8.36,8.17,8.73-5.05,9.35-8.12l-7-3.7Z" transform="translate(0)"/><path class="cls-45" d="M494.37,45.83h-.21c-6.5-.12-8.63-8.32-8.65-8.4l-.07-.27,11.14-3.79,7.28,3.87-.05.23c-.82,4.06-3.74,8.36-9.44,8.36m-8.19-8.28c.42,1.38,2.6,7.56,8,7.67h.2c6.56,0,8.4-5.94,8.8-7.65L496.52,34Z" transform="translate(0)"/><path class="cls-44" d="M503.51,37.35s2,8,8.36,8.17,8.73-5.05,9.35-8.12l-7-3.7Z" transform="translate(0)"/><path class="cls-45" d="M512.08,45.83h-.21c-6.5-.12-8.63-8.32-8.65-8.4l-.07-.27,11.14-3.79,7.28,3.87-.05.23c-.82,4.06-3.74,8.36-9.44,8.36m-8.19-8.28c.42,1.38,2.6,7.56,8,7.67h.2c6.56,0,8.4-5.94,8.79-7.65L514.23,34Z" transform="translate(0)"/><path class="cls-44" d="M521.22,37.35s2,8,8.36,8.17,8.73-5.05,9.35-8.12l-7-3.7Z" transform="translate(0)"/><path class="cls-45" d="M529.79,45.83h-.21c-6.5-.12-8.63-8.32-8.65-8.4l-.07-.27L532,33.37l7.28,3.87,0,.23c-.82,4.06-3.74,8.36-9.44,8.36m-8.19-8.28c.42,1.38,2.6,7.56,8,7.67h.2c6.56,0,8.4-5.94,8.79-7.65L532,34Z" transform="translate(0)"/><path class="cls-44" d="M538.93,37.35s2,8,8.36,8.17,8.73-5.05,9.35-8.12l-7-3.7Z" transform="translate(0)"/><path class="cls-45" d="M547.5,45.83h-.22c-6.49-.12-8.62-8.32-8.64-8.4l-.07-.27,11.14-3.79L557,37.24l0,.23c-.82,4.06-3.74,8.36-9.44,8.36m-8.19-8.28c.42,1.38,2.6,7.56,8,7.67h.2c6.56,0,8.4-5.94,8.79-7.65L549.65,34Z" transform="translate(0)"/><path class="cls-44" d="M423.82,31.44s2,8.05,8.36,8.17,8.73-5,9.35-8.12l-7-3.7Z" transform="translate(0)"/><path class="cls-45" d="M432.39,39.92h-.22c-6.5-.13-8.63-8.32-8.65-8.4l-.07-.28,11.14-3.78,7.28,3.87,0,.22c-.83,4.07-3.74,8.37-9.44,8.37m-8.2-8.28c.43,1.38,2.61,7.56,8,7.66h.21c6.56,0,8.4-6,8.79-7.65l-6.64-3.54Z" transform="translate(0)"/><path class="cls-44" d="M441.53,31.44s2,8.05,8.36,8.17,8.73-5,9.35-8.12l-7-3.7Z" transform="translate(0)"/><path class="cls-45" d="M450.09,39.92h-.21c-6.5-.13-8.63-8.32-8.65-8.4l-.07-.28,11.14-3.78,7.28,3.87,0,.22c-.83,4.07-3.74,8.37-9.45,8.37m-8.19-8.28c.42,1.38,2.61,7.56,8,7.66h.21c6.56,0,8.4-6,8.79-7.65l-6.64-3.54Z" transform="translate(0)"/><path class="cls-44" d="M459.24,31.44s2,8.05,8.36,8.17,8.72-5,9.35-8.12l-7-3.7Z" transform="translate(0)"/><path class="cls-45" d="M467.8,39.92h-.21c-6.5-.13-8.63-8.32-8.65-8.4l-.07-.28L470,27.46l7.28,3.87,0,.22c-.83,4.07-3.74,8.37-9.45,8.37m-8.19-8.28c.42,1.38,2.61,7.56,8,7.66h.21c6.56,0,8.4-6,8.79-7.65L470,28.12Z" transform="translate(0)"/><path class="cls-44" d="M477,31.44s2,8.05,8.36,8.17,8.72-5,9.35-8.12l-7-3.7Z" transform="translate(0)"/><path class="cls-45" d="M485.51,39.92h-.21c-6.5-.13-8.63-8.32-8.65-8.4l-.07-.28,11.14-3.78L495,31.33l0,.22c-.83,4.07-3.74,8.37-9.45,8.37m-8.19-8.28c.42,1.38,2.61,7.56,8,7.66h.21c6.56,0,8.4-6,8.79-7.65l-6.64-3.54Z" transform="translate(0)"/><path class="cls-44" d="M494.66,31.44s2,8.05,8.36,8.17,8.72-5,9.35-8.12l-7-3.7Z" transform="translate(0)"/><path class="cls-45" d="M503.22,39.92H503c-6.5-.13-8.63-8.32-8.65-8.4l-.07-.28,11.14-3.78,7.28,3.87,0,.22c-.83,4.07-3.74,8.37-9.45,8.37M495,31.64c.42,1.38,2.61,7.56,8,7.66h.21c6.56,0,8.4-6,8.79-7.65l-6.64-3.54Z" transform="translate(0)"/><path class="cls-44" d="M512.37,31.44s2,8.05,8.36,8.17,8.72-5,9.35-8.12l-7-3.7Z" transform="translate(0)"/><path class="cls-45" d="M520.93,39.92h-.21c-6.5-.13-8.63-8.32-8.65-8.4l-.07-.28,11.14-3.78,7.28,3.87,0,.22c-.83,4.07-3.74,8.37-9.45,8.37m-8.19-8.28c.42,1.38,2.61,7.56,8,7.66h.21c6.56,0,8.4-6,8.79-7.65l-6.64-3.54Z" transform="translate(0)"/><path class="cls-44" d="M530.08,31.44s2,8.05,8.35,8.17,8.73-5,9.36-8.12l-7-3.7Z" transform="translate(0)"/><path class="cls-45" d="M538.64,39.92h-.21c-6.5-.13-8.63-8.32-8.65-8.4l-.07-.28,11.14-3.78,7.28,3.87,0,.22c-.83,4.07-3.74,8.37-9.45,8.37m-8.19-8.28c.42,1.38,2.61,7.56,8,7.66h.21c6.56,0,8.4-6,8.79-7.65l-6.64-3.54Z" transform="translate(0)"/><path class="cls-44" d="M547.79,31.44s2,8.05,8.35,8.17,8.73-5,9.36-8.12l-7-3.7Z" transform="translate(0)"/><path class="cls-45" d="M556.35,39.92h-.21c-6.5-.13-8.63-8.32-8.65-8.4l-.07-.28,11.14-3.78,7.28,3.87,0,.22c-.83,4.07-3.74,8.37-9.45,8.37m-8.19-8.28c.42,1.38,2.61,7.56,8,7.66h.21c6.56,0,8.4-6,8.79-7.65l-6.64-3.54Z" transform="translate(0)"/><path class="cls-44" d="M415,25.53s2,8,8.36,8.17,8.73-5.05,9.35-8.12l-7-3.7Z" transform="translate(0)"/><path class="cls-45" d="M423.53,34h-.21c-6.5-.12-8.63-8.31-8.65-8.39l-.07-.28,11.14-3.78L433,25.42l0,.22c-.82,4.07-3.73,8.37-9.44,8.37m-8.19-8.28c.42,1.38,2.61,7.56,8,7.66h.2c6.57,0,8.4-5.94,8.8-7.65l-6.64-3.53Z" transform="translate(0)"/><path class="cls-44" d="M432.67,25.53s2,8,8.36,8.17,8.73-5.05,9.35-8.12l-7-3.7Z" transform="translate(0)"/><path class="cls-45" d="M441.24,34H441c-6.5-.12-8.63-8.31-8.65-8.39l-.07-.28,11.14-3.78,7.28,3.87-.05.22c-.82,4.07-3.74,8.37-9.44,8.37m-8.19-8.28c.42,1.38,2.61,7.56,8,7.66h.2c6.57,0,8.41-5.94,8.8-7.65l-6.64-3.53Z" transform="translate(0)"/><path class="cls-44" d="M450.38,25.53s2,8,8.36,8.17,8.73-5.05,9.35-8.12l-7-3.7Z" transform="translate(0)"/><path class="cls-45" d="M459,34h-.21c-6.5-.12-8.63-8.31-8.65-8.39l-.07-.28,11.14-3.78,7.28,3.87-.05.22C467.57,29.71,464.65,34,459,34m-8.19-8.28c.42,1.38,2.61,7.56,8,7.66h.2c6.57,0,8.4-5.94,8.8-7.65l-6.64-3.53Z" transform="translate(0)"/><path class="cls-44" d="M468.09,25.53s2,8,8.36,8.17,8.73-5.05,9.35-8.12l-7-3.7Z" transform="translate(0)"/><path class="cls-45" d="M476.66,34h-.21c-6.5-.12-8.63-8.31-8.65-8.39l-.07-.28,11.14-3.78,7.28,3.87,0,.22c-.82,4.07-3.74,8.37-9.44,8.37m-8.19-8.28c.42,1.38,2.61,7.56,8,7.66h.2c6.56,0,8.4-5.94,8.8-7.65l-6.64-3.53Z" transform="translate(0)"/><path class="cls-44" d="M485.8,25.53s2,8,8.36,8.17,8.73-5.05,9.35-8.12l-7-3.7Z" transform="translate(0)"/><path class="cls-45" d="M494.37,34h-.21c-6.5-.12-8.63-8.31-8.65-8.39l-.07-.28,11.14-3.78,7.28,3.87-.05.22C503,29.71,500.07,34,494.37,34m-8.19-8.28c.42,1.38,2.6,7.56,8,7.66h.2c6.56,0,8.4-5.94,8.8-7.65l-6.65-3.53Z" transform="translate(0)"/><path class="cls-44" d="M503.51,25.53s2,8,8.36,8.17,8.73-5.05,9.35-8.12l-7-3.7Z" transform="translate(0)"/><path class="cls-45" d="M512.08,34h-.21c-6.5-.12-8.63-8.31-8.65-8.39l-.07-.28,11.14-3.78,7.28,3.87-.05.22c-.82,4.07-3.74,8.37-9.44,8.37m-8.19-8.28c.42,1.38,2.6,7.56,8,7.66h.2c6.56,0,8.4-5.94,8.79-7.65l-6.64-3.53Z" transform="translate(0)"/><path class="cls-44" d="M521.22,25.53s2,8,8.36,8.17,8.73-5.05,9.35-8.12l-7-3.7Z" transform="translate(0)"/><path class="cls-45" d="M529.79,34h-.21c-6.5-.12-8.63-8.31-8.65-8.39l-.07-.28L532,21.55l7.28,3.87,0,.22c-.82,4.07-3.74,8.37-9.44,8.37m-8.19-8.28c.42,1.38,2.6,7.56,8,7.66h.2c6.56,0,8.4-5.94,8.79-7.65L532,22.21Z" transform="translate(0)"/><path class="cls-44" d="M538.93,25.53s2,8,8.36,8.17,8.73-5.05,9.35-8.12l-7-3.7Z" transform="translate(0)"/><path class="cls-45" d="M547.5,34h-.22c-6.49-.12-8.62-8.31-8.64-8.39l-.07-.28,11.14-3.78L557,25.42l0,.22c-.82,4.07-3.74,8.37-9.44,8.37m-8.19-8.28c.42,1.38,2.6,7.56,8,7.66,6.69.12,8.6-5.92,9-7.65l-6.64-3.53Z" transform="translate(0)"/><path class="cls-44" d="M423.82,19.62s2,8.05,8.36,8.17,8.73-5.05,9.35-8.12l-7-3.7Z" transform="translate(0)"/><path class="cls-45" d="M432.39,28.1h-.22c-6.5-.12-8.63-8.31-8.65-8.4l-.07-.27,11.14-3.79,7.28,3.88,0,.22c-.83,4.06-3.74,8.37-9.44,8.37m-8.2-8.28c.43,1.38,2.61,7.56,8,7.66h.21c6.56,0,8.4-5.94,8.79-7.65l-6.64-3.53Z" transform="translate(0)"/><path class="cls-44" d="M441.53,19.62s2,8.05,8.36,8.17,8.73-5.05,9.35-8.12l-7-3.7Z" transform="translate(0)"/><path class="cls-45" d="M450.09,28.1h-.21c-6.5-.12-8.63-8.31-8.65-8.4l-.07-.27,11.14-3.79,7.28,3.88,0,.22c-.83,4.06-3.74,8.37-9.45,8.37m-8.19-8.28c.42,1.38,2.61,7.56,8,7.66h.21c6.56,0,8.4-5.94,8.79-7.65l-6.64-3.53Z" transform="translate(0)"/><path class="cls-44" d="M459.24,19.62s2,8.05,8.36,8.17,8.72-5.05,9.35-8.12L470,16Z" transform="translate(0)"/><path class="cls-45" d="M467.8,28.1h-.21c-6.5-.12-8.63-8.31-8.65-8.4l-.07-.27L470,15.63l7.28,3.88,0,.22c-.83,4.06-3.74,8.37-9.45,8.37m-8.19-8.28c.42,1.38,2.61,7.56,8,7.66h.21c6.56,0,8.4-5.94,8.79-7.65L470,16.3Z" transform="translate(0)"/><path class="cls-44" d="M477,19.62s2,8.05,8.36,8.17,8.72-5.05,9.35-8.12l-7-3.7Z" transform="translate(0)"/><path class="cls-45" d="M485.51,28.1h-.21c-6.5-.12-8.63-8.31-8.65-8.4l-.07-.27,11.14-3.79L495,19.51l0,.22c-.83,4.06-3.74,8.37-9.45,8.37m-8.19-8.28c.42,1.38,2.61,7.56,8,7.66h.21c6.56,0,8.4-5.94,8.79-7.65l-6.64-3.53Z" transform="translate(0)"/><path class="cls-44" d="M494.66,19.62s2,8.05,8.36,8.17,8.72-5.05,9.35-8.12l-7-3.7Z" transform="translate(0)"/><path class="cls-45" d="M503.22,28.1H503c-6.5-.12-8.63-8.31-8.65-8.4l-.07-.27,11.14-3.79,7.28,3.88,0,.22c-.83,4.06-3.74,8.37-9.45,8.37M495,19.82c.42,1.38,2.61,7.56,8,7.66h.21c6.56,0,8.4-5.94,8.79-7.65l-6.64-3.53Z" transform="translate(0)"/><path class="cls-44" d="M512.37,19.62s2,8.05,8.36,8.17,8.72-5.05,9.35-8.12l-7-3.7Z" transform="translate(0)"/><path class="cls-45" d="M520.93,28.1h-.21c-6.5-.12-8.63-8.31-8.65-8.4l-.07-.27,11.14-3.79,7.28,3.88,0,.22c-.83,4.06-3.74,8.37-9.45,8.37m-8.19-8.28c.42,1.38,2.61,7.56,8,7.66h.21c6.56,0,8.4-5.94,8.79-7.65l-6.64-3.53Z" transform="translate(0)"/><path class="cls-44" d="M530.08,19.62s2,8.05,8.35,8.17,8.73-5.05,9.36-8.12l-7-3.7Z" transform="translate(0)"/><path class="cls-45" d="M538.64,28.1h-.21c-6.5-.12-8.63-8.31-8.65-8.4l-.07-.27,11.14-3.79,7.28,3.88,0,.22c-.83,4.06-3.74,8.37-9.45,8.37m-8.19-8.28c.42,1.38,2.61,7.56,8,7.66h.21c6.56,0,8.4-5.94,8.79-7.65L540.8,16.3Z" transform="translate(0)"/><path class="cls-44" d="M547.79,19.62s2,8.05,8.35,8.17,8.73-5.05,9.36-8.12l-7-3.7Z" transform="translate(0)"/><path class="cls-45" d="M556.35,28.1h-.21c-6.5-.12-8.63-8.31-8.65-8.4l-.07-.27,11.14-3.79,7.28,3.88,0,.22c-.83,4.06-3.74,8.37-9.45,8.37m-8.19-8.28c.42,1.38,2.61,7.56,8,7.66h.21c6.56,0,8.4-5.94,8.79-7.65l-6.64-3.53Z" transform="translate(0)"/><path class="cls-44" d="M415,15.36s2,8.05,8.36,8.17,8.73-5.05,9.35-8.12l-7-3.7Z" transform="translate(0)"/><path class="cls-45" d="M423.53,23.84h-.21c-6.5-.13-8.63-8.32-8.65-8.4l-.07-.28,11.14-3.78L433,15.25l0,.22c-.82,4.07-3.73,8.37-9.44,8.37m-8.19-8.28c.42,1.38,2.61,7.56,8,7.66h.2c6.57,0,8.4-5.95,8.8-7.65L425.69,12Z" transform="translate(0)"/><path class="cls-44" d="M432.67,15.36s2,8.05,8.36,8.17,8.73-5.05,9.35-8.12l-7-3.7Z" transform="translate(0)"/><path class="cls-45" d="M441.24,23.84H441c-6.5-.13-8.63-8.32-8.65-8.4l-.07-.28,11.14-3.78,7.28,3.87-.05.22c-.82,4.07-3.74,8.37-9.44,8.37m-8.19-8.28c.42,1.38,2.61,7.56,8,7.66h.2c6.57,0,8.4-5.95,8.8-7.65L443.4,12Z" transform="translate(0)"/><path class="cls-44" d="M450.38,15.36s2,8.05,8.36,8.17,8.73-5.05,9.35-8.12l-7-3.7Z" transform="translate(0)"/><path class="cls-45" d="M459,23.84h-.21c-6.5-.13-8.63-8.32-8.65-8.4l-.07-.28,11.14-3.78,7.28,3.87-.05.22c-.82,4.07-3.74,8.37-9.44,8.37m-8.19-8.28c.42,1.38,2.61,7.56,8,7.66h.2c6.57,0,8.4-5.95,8.8-7.65L461.11,12Z" transform="translate(0)"/><path class="cls-44" d="M468.09,15.36s2,8.05,8.36,8.17,8.73-5.05,9.35-8.12l-7-3.7Z" transform="translate(0)"/><path class="cls-45" d="M476.66,23.84h-.21c-6.5-.13-8.63-8.32-8.65-8.4l-.07-.28,11.14-3.78,7.28,3.87,0,.22c-.82,4.07-3.74,8.37-9.44,8.37m-8.19-8.28c.42,1.38,2.61,7.56,8,7.66h.2c6.56,0,8.4-5.95,8.8-7.65L478.82,12Z" transform="translate(0)"/><path class="cls-44" d="M485.8,15.36s2,8.05,8.36,8.17,8.73-5.05,9.35-8.12l-7-3.7Z" transform="translate(0)"/><path class="cls-45" d="M494.37,23.84h-.21c-6.5-.13-8.63-8.32-8.65-8.4l-.07-.28,11.14-3.78,7.28,3.87-.05.22c-.82,4.07-3.74,8.37-9.44,8.37m-8.19-8.28c.42,1.38,2.6,7.56,8,7.66h.2c6.56,0,8.4-5.95,8.8-7.65L496.52,12Z" transform="translate(0)"/><path class="cls-44" d="M503.51,15.36s2,8.05,8.36,8.17,8.73-5.05,9.35-8.12l-7-3.7Z" transform="translate(0)"/><path class="cls-45" d="M512.08,23.84h-.21c-6.5-.13-8.63-8.32-8.65-8.4l-.07-.28,11.14-3.78,7.28,3.87-.05.22c-.82,4.07-3.74,8.37-9.44,8.37m-8.19-8.28c.42,1.38,2.6,7.56,8,7.66h.2c6.56,0,8.4-5.95,8.79-7.65L514.24,12Z" transform="translate(0)"/><path class="cls-44" d="M521.22,15.36s2,8.05,8.36,8.17,8.73-5.05,9.35-8.12l-7-3.7Z" transform="translate(0)"/><path class="cls-45" d="M529.79,23.84h-.21c-6.5-.13-8.63-8.32-8.65-8.4l-.07-.28L532,11.38l7.28,3.87,0,.22c-.82,4.07-3.74,8.37-9.44,8.37m-8.19-8.28c.42,1.38,2.6,7.56,8,7.66h.2c6.56,0,8.4-5.95,8.79-7.65L532,12Z" transform="translate(0)"/><path class="cls-44" d="M538.93,15.36s2,8.05,8.36,8.17,8.73-5.05,9.35-8.12l-7-3.7Z" transform="translate(0)"/><path class="cls-45" d="M547.5,23.84h-.22c-6.49-.13-8.62-8.32-8.64-8.4l-.07-.28,11.14-3.78L557,15.25l0,.22c-.82,4.07-3.74,8.37-9.44,8.37m-8.19-8.28c.42,1.38,2.6,7.56,8,7.66,6.69.11,8.6-5.92,9-7.64L549.65,12Z" transform="translate(0)"/></g><rect class="cls-46" x="367.71" y="25.49" width="24.39" height="60.97"/><path class="cls-47" d="M394.26,28.54H365.55a2.82,2.82,0,0,1-2.82-2.82v-6a2.83,2.83,0,0,1,2.82-2.83h28.71a2.83,2.83,0,0,1,2.83,2.83v6a2.83,2.83,0,0,1-2.83,2.82" transform="translate(0)"/><rect class="cls-47" x="367.71" y="38.58" width="24.39" height="2.29"/><rect class="cls-47" x="378.76" y="25.3" width="2.29" height="14.42"/><rect class="cls-47" x="378.76" y="50.83" width="2.29" height="13.53"/><rect class="cls-47" x="367.71" y="50.64" width="24.39" height="2.29"/><rect class="cls-47" x="367.71" y="62.71" width="24.39" height="2.29"/><rect class="cls-47" x="367.71" y="73.29" width="24.39" height="2.29"/><polygon class="cls-46" points="540.3 312.02 346.87 312.02 346.87 100.95 443.58 7.07 540.3 104.48 540.3 312.02"/><rect class="cls-47" x="346.87" y="199.72" width="193.43" height="14.56"/><path class="cls-48" d="M384.18,269.3a.51.51,0,0,1-.36-.15.51.51,0,0,1,0-.71l12-11.63a.49.49,0,0,1,.7,0,.48.48,0,0,1,0,.7l-12,11.64a.52.52,0,0,1-.35.14" transform="translate(0)"/><path class="cls-48" d="M404.45,273.44a.51.51,0,0,1-.36-.15.5.5,0,0,1,0-.7l12-11.64a.5.5,0,0,1,.7,0,.5.5,0,0,1,0,.71l-12,11.63a.47.47,0,0,1-.35.14" transform="translate(0)"/><path class="cls-49" d="M396.3,230H398a23.3,23.3,0,0,1,23.3,23.3V312H373V253.34A23.3,23.3,0,0,1,396.3,230" transform="translate(0)"/><path class="cls-50" d="M396.43,234.74h1.45a19.72,19.72,0,0,1,19.72,19.72v56.86a.7.7,0,0,1-.7.7H377.42a.7.7,0,0,1-.7-.7V254.46a19.71,19.71,0,0,1,19.71-19.72" transform="translate(0)"/><path class="cls-51" d="M380.26,293.75a.31.31,0,0,1-.24-.1.34.34,0,0,1,0-.49L408.45,265a.35.35,0,0,1,.49,0,.34.34,0,0,1,0,.48l-28.43,28.2a.31.31,0,0,1-.24.1" transform="translate(0)"/><path class="cls-51" d="M380.26,293.83a.45.45,0,0,1-.3-.13.41.41,0,0,1,0-.59l28.43-28.2a.42.42,0,0,1,.59,0,.41.41,0,0,1,0,.59l-28.43,28.2a.39.39,0,0,1-.29.13m28.43-28.89a.24.24,0,0,0-.19.08l-28.43,28.19a.27.27,0,0,0,0,.39.27.27,0,0,0,.38,0l28.43-28.2a.27.27,0,0,0,0-.39.26.26,0,0,0-.19-.07" transform="translate(0)"/><path class="cls-51" d="M396.6,287.47a.21.21,0,0,1-.13-.05.16.16,0,0,1,0-.24l14.71-13.69a.2.2,0,0,1,.25,0,.16.16,0,0,1,0,.24l-14.71,13.69a.18.18,0,0,1-.12.05" transform="translate(0)"/><path class="cls-51" d="M396.6,287.65a.32.32,0,0,1-.25-.1.36.36,0,0,1-.11-.25.33.33,0,0,1,.11-.25l14.71-13.69a.37.37,0,0,1,.5,0,.31.31,0,0,1,.1.25.33.33,0,0,1-.11.25l-14.7,13.69a.35.35,0,0,1-.25.1" transform="translate(0)"/><path class="cls-51" d="M387.4,276.23a.27.27,0,0,1-.19-.08.24.24,0,0,1,0-.35l21.38-20.4a.27.27,0,0,1,.37,0,.24.24,0,0,1,0,.35l-21.38,20.4a.27.27,0,0,1-.18.08" transform="translate(0)"/><path class="cls-51" d="M387.39,276.41a.48.48,0,0,1-.31-.13.42.42,0,0,1-.12-.3.4.4,0,0,1,.13-.31l21.38-20.4a.46.46,0,0,1,.62,0,.44.44,0,0,1,.13.31.43.43,0,0,1-.14.31l-21.38,20.4a.48.48,0,0,1-.31.12m21.39-20.9-.06,0-21.38,20.4a.06.06,0,0,0,0,.05,0,0,0,0,0,0,0,.08.08,0,0,0,.11,0l21.38-20.4a0,0,0,0,0,0,0,.06.06,0,0,0,0-.05l-.05,0" transform="translate(0)"/><rect class="cls-52" x="464.95" y="237.95" width="45.28" height="43.35"/><path class="cls-53" d="M479.14,253.7a.33.33,0,0,1-.23-.1.31.31,0,0,1,0-.44l7.52-7.31a.31.31,0,1,1,.43.45l-7.52,7.31a.3.3,0,0,1-.21.09" transform="translate(0)"/><path class="cls-53" d="M483.83,261.63a.35.35,0,0,1-.23-.09.33.33,0,0,1,0-.45l7.52-7.3a.31.31,0,0,1,.44,0,.31.31,0,0,1,0,.44l-7.52,7.31a.31.31,0,0,1-.22.09" transform="translate(0)"/><path class="cls-53" d="M475.68,261.14a.3.3,0,0,1-.23-.1.31.31,0,0,1,0-.44l23.8-21.31a.33.33,0,0,1,.45,0,.31.31,0,0,1,0,.44l-23.81,21.3a.28.28,0,0,1-.21.08" transform="translate(0)"/><rect class="cls-49" x="486.32" y="237.95" width="2.54" height="44.7"/><rect class="cls-49" x="464.95" y="249.91" width="45.28" height="2.54"/><rect class="cls-49" x="464.95" y="264.52" width="45.28" height="2.54"/><rect class="cls-49" x="460.17" y="229.6" width="54.84" height="8.35"/><rect class="cls-49" x="460.17" y="278.48" width="54.84" height="8.35"/><rect class="cls-52" x="367.29" y="113.77" width="47.25" height="58.79"/><path class="cls-53" d="M381.55,144a.26.26,0,0,1-.2-.08.27.27,0,0,1,0-.39L388,137a.27.27,0,0,1,.39,0,.28.28,0,0,1,0,.4l-6.69,6.5a.26.26,0,0,1-.19.07" transform="translate(0)"/><path class="cls-53" d="M389.76,145.06a.27.27,0,0,1-.2-.08.28.28,0,0,1,0-.4l6.68-6.49a.27.27,0,0,1,.39,0,.28.28,0,0,1,0,.4L390,145a.24.24,0,0,1-.19.08" transform="translate(0)"/><path class="cls-53" d="M378.48,150.58a.26.26,0,0,1-.21-.1.28.28,0,0,1,0-.39l21.17-18.94a.28.28,0,0,1,.39,0,.28.28,0,0,1,0,.4l-21.16,18.94a.34.34,0,0,1-.19.07" transform="translate(0)"/><rect class="cls-49" x="389.9" y="113.77" width="2.05" height="61.58"/><rect class="cls-49" x="367.39" y="132.27" width="47.05" height="2.04"/><rect class="cls-49" x="367.39" y="152.01" width="47.05" height="2.04"/><path class="cls-49" d="M414,178.13h-46.1a2.79,2.79,0,1,1,0-5.57H414a2.79,2.79,0,1,1,0,5.57" transform="translate(0)"/><rect class="cls-52" x="472.62" y="113.77" width="47.25" height="58.79"/><path class="cls-53" d="M486.88,144a.26.26,0,0,1-.2-.08.27.27,0,0,1,0-.39l6.69-6.5a.27.27,0,0,1,.39,0,.28.28,0,0,1,0,.4l-6.69,6.5a.26.26,0,0,1-.19.07" transform="translate(0)"/><path class="cls-53" d="M495.09,145.06a.26.26,0,0,1-.2-.08.28.28,0,0,1,0-.4l6.68-6.49a.27.27,0,0,1,.39,0,.28.28,0,0,1,0,.4L495.28,145a.24.24,0,0,1-.19.08" transform="translate(0)"/><path class="cls-53" d="M483.81,150.58a.26.26,0,0,1-.21-.1.28.28,0,0,1,0-.39l21.17-18.94a.28.28,0,0,1,.39,0,.28.28,0,0,1,0,.4L484,150.51a.34.34,0,0,1-.19.07" transform="translate(0)"/><rect class="cls-49" x="495.23" y="113.77" width="2.05" height="61.58"/><rect class="cls-49" x="472.72" y="132.27" width="47.05" height="2.04"/><rect class="cls-49" x="472.72" y="152.01" width="47.05" height="2.04"/><path class="cls-49" d="M519.3,178.13H473.2a2.79,2.79,0,1,1,0-5.57h46.1a2.79,2.79,0,1,1,0,5.57" transform="translate(0)"/><rect class="cls-47" x="489.27" y="88.37" width="16.01" height="8.38"/><rect class="cls-47" x="351.39" y="221.51" width="16.01" height="8.38"/><rect class="cls-47" x="346.83" y="231.64" width="9.12" height="8.38"/><rect class="cls-47" x="531.18" y="260.33" width="9.12" height="8.38"/><rect class="cls-47" x="512.36" y="99.82" width="9.12" height="8.38"/><rect class="cls-47" x="408.09" y="77.57" width="12.54" height="8.38"/><g class="cls-54"><g class="cls-55"><path class="cls-47" d="M346.87,101v15.37l92.64-87a6,6,0,0,1,8.15,0l92.64,87V104.48L446.47,12.1Z" transform="translate(0)"/></g></g><path class="cls-56" d="M441.71.76,331.24,108.22a2.68,2.68,0,0,0,1.87,4.61h10.42a2.71,2.71,0,0,0,1.85-.74l96.36-91.7a2.68,2.68,0,0,1,3.69,0l96.36,91.7a2.71,2.71,0,0,0,1.85.74h10.42a2.68,2.68,0,0,0,1.87-4.61L445.45.76a2.69,2.69,0,0,0-3.74,0" transform="translate(0)"/><path class="cls-57" d="M559.43,312.58a14.81,14.81,0,0,0,11.42-13.33,6.79,6.79,0,0,0-.47-3.22c-1-2.13-3.56-3.15-5.91-3a17.75,17.75,0,0,0-6.64,2.22c5-6.54,8.81-15.37,5.44-22.9-.89-2-2.6-4-4.79-4s-4,2.11-5.28,4A103.34,103.34,0,0,0,544.88,288c-.86-5.68-2.65-11.87-7.55-14.89a3.83,3.83,0,0,0-2.38-.71,3.77,3.77,0,0,0-2.07,1.15c-4.24,4.11-3.85,10.9-3.16,16.76-1.28-3.9-6.58-5.36-10.29-3.59s-5.87,5.8-6.69,9.83a14.78,14.78,0,0,0,.92,9.65c1.51,2.93,4.83,6.59,8.12,6.37" transform="translate(0)"/><path class="cls-57" d="M336.83,311.88A12.1,12.1,0,0,1,327.5,301a5.45,5.45,0,0,1,.39-2.63,4.94,4.94,0,0,1,4.82-2.47,14.59,14.59,0,0,1,5.43,1.81c-4.11-5.33-7.2-12.55-4.45-18.7.73-1.64,2.12-3.25,3.92-3.25s3.28,1.72,4.31,3.31a83.72,83.72,0,0,1,6.79,12.75c.71-4.65,2.17-9.7,6.17-12.16a3.16,3.16,0,0,1,1.95-.59,3,3,0,0,1,1.68.95c3.47,3.35,3.15,8.89,2.58,13.68,1.06-3.19,5.38-4.38,8.41-2.93s4.8,4.74,5.47,8a12.1,12.1,0,0,1-.76,7.88c-1.23,2.39-3.94,5.39-6.62,5.2" transform="translate(0)"/><path class="cls-58" d="M595.63,224.42a8.5,8.5,0,0,0,3.4-2.76,5.12,5.12,0,0,1,1.26-1.61,11,11,0,0,0,1.61-1.71,4.2,4.2,0,0,1,1.76-1.52c.93-.28.65.93.35,1.71s-2.7,2.41-2.4,3.32,3.09-1.17,3.64-1.59c1.29-1,1.14-2.21,1.75-3.56.36-.78.76-1,1.26-.17a2.59,2.59,0,0,1-.19,2.1,8.78,8.78,0,0,1-2.34,3.61,10.19,10.19,0,0,0,2.53-3.14c.36-.68,1.4-3.85,2.52-3.37,2.24,1-2.13,7.07-3.34,7.72a12.12,12.12,0,0,0,2.75-3c.48-.65,1.54-2.23,2.06-.88.76,2-3,4.32-4.43,5.66A14.29,14.29,0,0,0,611,223c1.34-1.06,1.66.3.47,1.63a18.32,18.32,0,0,1-2,1.7c-2.76,2.11-4.64,2.53-8,2.85-1.2.12-3.26,1.58-4.11,1-1.63-1.18-1.48-4-1.78-5.72" transform="translate(0)"/><path class="cls-59" d="M597.29,221s-25.64,7.14-28.24,7-8.61-22.74-11-33.88c-.23-1-3.64-1.09-7.5-4.35-1.6-1.35-6.32,1.23-7.9,0a10.73,10.73,0,0,0-2,11.89c5.85,12.91,10.87,37.69,24.32,38,17.79.34,35.83-9,35.83-9Z" transform="translate(0)"/><path class="cls-58" d="M602.82,224.12a25.09,25.09,0,0,1-1.21-2.27c-.31-.91,2.08-2.47,2.4-3.32s.58-2-.35-1.71a4.2,4.2,0,0,0-1.76,1.52,11,11,0,0,1-1.61,1.71,4.88,4.88,0,0,0-1.26,1.61,5.59,5.59,0,0,1-1.09,1.23c1,.87,4.88,1.23,4.88,1.23" transform="translate(0)"/><rect class="cls-60" x="489.68" y="373.91" width="113.17" height="19.49"/><rect class="cls-61" x="496.01" y="373.91" width="5.7" height="19.49"/><rect class="cls-61" x="507.97" y="373.91" width="5.7" height="19.49"/><rect class="cls-61" x="519.93" y="373.91" width="5.7" height="19.49"/><rect class="cls-61" x="531.9" y="373.91" width="5.7" height="19.49"/><rect class="cls-61" x="543.86" y="373.91" width="5.7" height="19.49"/><rect class="cls-61" x="555.82" y="373.91" width="5.7" height="19.49"/><rect class="cls-61" x="567.78" y="373.91" width="5.7" height="19.49"/><rect class="cls-61" x="579.75" y="373.91" width="5.7" height="19.49"/><rect class="cls-61" x="591.71" y="373.91" width="5.7" height="19.49"/><rect class="cls-60" x="475.31" y="354.41" width="113.17" height="19.49"/><rect class="cls-61" x="481.64" y="354.41" width="5.7" height="19.49"/><rect class="cls-61" x="493.6" y="354.41" width="5.7" height="19.49"/><rect class="cls-61" x="505.57" y="354.41" width="5.7" height="19.49"/><rect class="cls-61" x="517.53" y="354.41" width="5.7" height="19.49"/><rect class="cls-61" x="529.49" y="354.41" width="5.7" height="19.49"/><rect class="cls-61" x="541.45" y="354.41" width="5.7" height="19.49"/><rect class="cls-61" x="553.42" y="354.41" width="5.7" height="19.49"/><rect class="cls-61" x="565.38" y="354.41" width="5.7" height="19.49"/><rect class="cls-61" x="577.34" y="354.41" width="5.7" height="19.49"/><rect class="cls-60" x="494.74" y="334.92" width="113.17" height="19.49"/><rect class="cls-61" x="501.07" y="334.92" width="5.7" height="19.49"/><rect class="cls-61" x="513.03" y="334.92" width="5.7" height="19.49"/><rect class="cls-61" x="525" y="334.92" width="5.7" height="19.49"/><rect class="cls-61" x="536.96" y="334.92" width="5.7" height="19.49"/><rect class="cls-61" x="548.92" y="334.92" width="5.7" height="19.49"/><rect class="cls-61" x="560.89" y="334.92" width="5.7" height="19.49"/><rect class="cls-61" x="572.85" y="334.92" width="5.7" height="19.49"/><rect class="cls-61" x="584.81" y="334.92" width="5.7" height="19.49"/><rect class="cls-61" x="596.77" y="334.92" width="5.7" height="19.49"/><rect class="cls-60" x="484.87" y="315.42" width="113.17" height="19.49"/><rect class="cls-61" x="491.2" y="315.42" width="5.7" height="19.49"/><rect class="cls-61" x="503.16" y="315.42" width="5.7" height="19.49"/><rect class="cls-61" x="515.12" y="315.42" width="5.7" height="19.49"/><rect class="cls-61" x="527.09" y="315.42" width="5.7" height="19.49"/><rect class="cls-61" x="539.05" y="315.42" width="5.7" height="19.49"/><rect class="cls-61" x="551.01" y="315.42" width="5.7" height="19.49"/><rect class="cls-61" x="562.97" y="315.42" width="5.7" height="19.49"/><rect class="cls-61" x="574.94" y="315.42" width="5.7" height="19.49"/><rect class="cls-61" x="586.9" y="315.42" width="5.7" height="19.49"/><rect class="cls-60" x="470.5" y="295.93" width="113.17" height="19.49"/><rect class="cls-61" x="476.83" y="295.93" width="5.7" height="19.49"/><rect class="cls-61" x="488.79" y="295.93" width="5.7" height="19.49"/><rect class="cls-61" x="500.76" y="295.93" width="5.7" height="19.49"/><rect class="cls-61" x="512.72" y="295.93" width="5.7" height="19.49"/><rect class="cls-61" x="524.68" y="295.93" width="5.7" height="19.49"/><rect class="cls-61" x="536.64" y="295.93" width="5.7" height="19.49"/><rect class="cls-61" x="548.61" y="295.93" width="5.7" height="19.49"/><rect class="cls-61" x="560.57" y="295.93" width="5.7" height="19.49"/><rect class="cls-61" x="572.53" y="295.93" width="5.7" height="19.49"/><rect class="cls-60" x="485.75" y="276.44" width="113.17" height="19.49"/><rect class="cls-61" x="492.08" y="276.44" width="5.7" height="19.49"/><rect class="cls-61" x="504.05" y="276.44" width="5.7" height="19.49"/><rect class="cls-61" x="516.01" y="276.44" width="5.7" height="19.49"/><rect class="cls-61" x="527.97" y="276.44" width="5.7" height="19.49"/><rect class="cls-61" x="539.93" y="276.44" width="5.7" height="19.49"/><rect class="cls-61" x="551.9" y="276.44" width="5.7" height="19.49"/><rect class="cls-61" x="563.86" y="276.44" width="5.7" height="19.49"/><rect class="cls-61" x="575.82" y="276.44" width="5.7" height="19.49"/><rect class="cls-61" x="587.79" y="276.44" width="5.7" height="19.49"/><path class="cls-62" d="M609.38,302.67s2.38,11.05,4.59,12.08,25.43-4.67,26.77-7.29-.55-5.36-5.51-5.17c-4.46.17-7.38,1.82-11,1.28-3.17-.47-6.27-6.49-6.27-6.49Z" transform="translate(0)"/><path class="cls-62" d="M569.94,327.78s-6,9.6-5.08,11.88S586.42,354,589.2,353s3.32-4.24-.38-7.54c-3.33-3-6.58-3.82-8.81-6.71-2-2.54,0-9,0-9Z" transform="translate(0)"/><path class="cls-63" d="M535.19,246.31s9.36,4.87,13.73,4.3,41.74,2.37,46.11,6-13.51,75.67-13.51,75.67l-14.81-2.47s5.31-52.68,4.42-53.06-23.25-.3-61.39-.3c-9.3,0-19.68-19.55-7.91-33.23Z" transform="translate(0)"/><g class="cls-64"><g class="cls-65"><path class="cls-66" d="M588.59,262.44a43,43,0,0,1-4.17-10.1c-12.94-1.6-32.44-2.13-35.5-1.73-4.36.57-13.73-4.3-13.73-4.3l-2.16-.2c2.69,3.84,5.84,7.18,9.77,8,4.71,1.05,9.66,1.31,14.32,2.54,8,2.13,16,6.35,19.61,14.37,4.32,9.65,8.94,19.75,11.93,30.52,2.44-10.92,4.92-22.38,6.37-31.47-2.84-1.37-4.89-5.12-6.44-7.68" transform="translate(0)"/></g></g><path class="cls-63" d="M539.05,238.27s44.49,2.66,48.73,6.83,32.88,53.46,32.88,53.46l-11.8,8.51S585.4,272.48,574.1,259A16.7,16.7,0,0,0,564,253.24c-4.82-.81-11.85-1.87-17.11-2.16-8.83-.47-12.83-4.87-12.83-4.87Z" transform="translate(0)"/><path class="cls-58" d="M550.48,169.55a16.44,16.44,0,0,1-3.67-3c-1.09,4.28-3.66,12.12-8.59,15.79,0,0,8.74,4.86,16.46,4.08,0,0,.31-10.31,2.45-15.13a15,15,0,0,1-6.65-1.78" transform="translate(0)"/><path class="cls-58" d="M544.53,181.45c2-4.34,6.83-6.61,11.4-6.12a20.91,20.91,0,0,1,1.2-4,15,15,0,0,1-6.65-1.78,16.67,16.67,0,0,1-3.67-3c-1.09,4.28-3.66,12.12-8.59,15.79a39.35,39.35,0,0,0,5.25,2.3,13.86,13.86,0,0,1,1.06-3.23" transform="translate(0)"/><path class="cls-58" d="M558,143s11.42.71,13.87,4,2.53,10.53.55,14,.61,9.41.21,10.79c-.32,1.11-3.93.61-4.2,1s-3,7-7.95,6.46c-6.9-.81-13.36-9.09-14.79-14S547.51,141.6,558,143" transform="translate(0)"/><path class="cls-62" d="M576.78,150.72c-.33-.75-1.37-2.15-1.45-3a14,14,0,0,0-.09-2.06c-.5-2.09-.3-3.41-4.4-6.66-3.56-2.82-9.29-3.34-13.49-2a12.83,12.83,0,0,0-4.28,2.29c-.37.32-1.49,1.14-1.49,1.62s1.38,1.55,1.75,2a21.07,21.07,0,0,1,1.58,2.73c3.2,5.57,8.91,12.4,16.05,9.13a23,23,0,0,0,2.77-1.47,14.76,14.76,0,0,1-1.2,7.31,6.48,6.48,0,0,0,3.34-2.47c2-3.15,1.7-5.67.91-7.45" transform="translate(0)"/><path class="cls-62" d="M555.35,142.12c-1-1.14-3.37-1.81-4.76-2-2.9-.45-5.1,1-6.57,3.37a26.44,26.44,0,0,0-2.32,4.6,19.69,19.69,0,0,0-1.59,7.7,18.59,18.59,0,0,0,1.66,8.39c1.18,2.33,4,5.58,6,5.55.79,0,3.67-4.56,4-5.91s-.31-1.54-1.06-2.46c-1.27-1.55-2.39-4.06-.45-5.57,2.77-2.16,5.43.34,5.07,4.66,0,0,.4,2.65,1.23,2.57s8.2-9.89-1.23-20.88" transform="translate(0)"/><path class="cls-58" d="M551.27,156.6a2.9,2.9,0,0,1,2.72,2c.67,1.88-.79,3.95-1.66,2.63s-.1-1.88,0-2.66a2.4,2.4,0,0,0-1-1.93" transform="translate(0)"/><path class="cls-67" d="M494.49,247.31s13.29,14.31,48.29,4.44a75.07,75.07,0,0,1,4.9-17.34c3.71-8.61,9.74-25.52,10.93-34.69,1.34-10.35-3.8-15.68-3.8-15.68s-6.62,4.9-14.65-3.43c0,0-17.32,2-27.44,20.25s-18.23,46.45-18.23,46.45" transform="translate(0)"/><path class="cls-59" d="M542.59,195.46c-.12-.43-.22-.88-.32-1.33-8.38,4.09-7.33,12.19-5.31,24.39,1.55,9.38,6,24.21,6.94,27.53a71.8,71.8,0,0,1,3.78-11.64c1.71-4,3.92-9.72,5.91-15.66a60.54,60.54,0,0,1-6.92-14.45c-1.08-3.06-3.22-5.68-4.08-8.84" transform="translate(0)"/><path class="cls-12" d="M599.81,215.82l29.42-17.54S640,208.79,643,223.13l-33.4,15.65s-5.21-12.26-9.79-23" transform="translate(0)"/><path class="cls-33" d="M622.56,226.81c-6.85-2-14.07-7.42-17.56-14.09l-5.19,3.1c4.58,10.7,9.79,23,9.79,23L634,227.35a24.14,24.14,0,0,1-11.42-.54" transform="translate(0)"/><polygon class="cls-68" points="605.03 217.55 617.61 216.2 617.99 216.16 618.19 216.46 619.95 219.15 619.47 218.88 628.39 218.88 628.86 218.88 628.96 219.35 629.72 222.86 629.06 222.4 635.53 221.4 635.71 222.56 629.24 223.56 628.69 223.65 628.58 223.1 627.82 219.59 628.39 220.06 619.47 220.06 619.15 220.06 618.97 219.79 617.21 217.1 617.79 217.36 605.41 219.95 605.03 217.55"/><path class="cls-68" d="M634.9,222.09l-1.12-1.32.05,0,2.52.57,2.58.16-2.41.94-2.23,1.31h0Z" transform="translate(0)"/><path class="cls-59" d="M631.25,205.93a.54.54,0,0,0-.72-.17l-2.32,1.2-1.1-2a.55.55,0,0,0-.73-.15.51.51,0,0,0-.29.67l1.07,2-2.55,1.32a.65.65,0,0,0-.36.79.5.5,0,0,0,.54.27.65.65,0,0,0,.26-.08l2.59-1.38,1.18,2.24a.53.53,0,0,0,.55.27.84.84,0,0,0,.25-.09.64.64,0,0,0,.26-.82l-1.19-2.16,2.33-1.24a.51.51,0,0,0,.23-.69" transform="translate(0)"/><path class="cls-58" d="M599.72,233.91a8.36,8.36,0,0,0,4.34-.54,5.07,5.07,0,0,1,1.92-.7,10.87,10.87,0,0,0,2.27-.59,4.2,4.2,0,0,1,2.3-.36c.94.25.06,1.13-.61,1.64s-3.57.61-3.79,1.54,3.24.65,3.92.58c1.63-.16,2.14-1.27,3.38-2.09.71-.47,1.19-.47,1.15.52,0,.75-.73,1.26-1.27,1.68a8.89,8.89,0,0,1-3.9,1.83,10.32,10.32,0,0,0,3.81-1.33c.67-.38,3.23-2.52,3.92-1.52,1.4,2-5.55,4.86-6.92,4.78a12.33,12.33,0,0,0,3.92-1.09c.75-.3,2.49-1.07,2.21.35-.41,2.09-4.79,2.09-6.75,2.45a14.18,14.18,0,0,0,3.86-.24c1.71-.19,1.25,1.13-.46,1.63a19.19,19.19,0,0,1-2.55.41c-3.46.33-5.28-.32-8.27-1.81-1.08-.53-3.61-.38-4-1.34-.77-1.86.87-4.22,1.52-5.8" transform="translate(0)"/><path class="cls-67" d="M600.41,232.76l.85,9.88s-42.43,3.41-47.29.31-7.18-8.14-8.72-12.67c-3.08-9-15.19-34-4.27-37.77,3.42-1.19,7.95-1.17,10.23,3.3,5.12,10,10.6,32.3,12,33.25,2,1.33,37.15,3.7,37.15,3.7" transform="translate(0)"/></g></g></g></svg>