<svg xmlns="http://www.w3.org/2000/svg" viewBox="0 0 169.19 169.19"><defs><style>.cls-1{fill:#79286a;}.cls-2{fill:#fff;}</style></defs><g id="Capa_2" data-name="Capa 2"><g id="Capa_1-2" data-name="Capa 1"><path class="cls-1" d="M109.76,160.36a7.78,7.78,0,0,1-.06-3.42A76.54,76.54,0,0,1,8.12,80.59,5.92,5.92,0,0,0,4.54,78.9,6,6,0,0,0,.1,80.35a84.61,84.61,0,0,0,97.54,87.81,85.72,85.72,0,0,0,14.59-3.61,8.27,8.27,0,0,1-2.47-4.19"/><path class="cls-1" d="M134.91,22.22a7,7,0,0,1-3.06,2.09,76.56,76.56,0,0,1-19.77,131.76,6.13,6.13,0,0,0-.36,3.83,6.35,6.35,0,0,0,2.76,3.84A84.6,84.6,0,0,0,136.61,17.91a7.32,7.32,0,0,1-1.7,4.31"/><path class="cls-1" d="M4.72,76.88a7.65,7.65,0,0,1,3.56,1.25A76.57,76.57,0,0,1,129.74,22.71a5.19,5.19,0,0,0,4.73-6.42h0A84.62,84.62,0,0,0,.26,77.8a8,8,0,0,1,4.46-.92"/><path class="cls-1" d="M10.58,84.6a74,74,0,1,0,74-74,74,74,0,0,0-74,74"/><path class="cls-2" d="M130.8,51H38.37a1.47,1.47,0,0,0-1.46,1.46V63.32a1.47,1.47,0,0,0,1.46,1.47H130.8a1.47,1.47,0,0,0,1.46-1.47V52.46A1.47,1.47,0,0,0,130.8,51m-1.46,10.85H39.84V53.93h89.5Z"/><path class="cls-2" d="M130.8,51H38.37a1.47,1.47,0,0,0-1.46,1.46V63.32a1.47,1.47,0,0,0,1.46,1.47H130.8a1.47,1.47,0,0,0,1.46-1.47V52.46A1.47,1.47,0,0,0,130.8,51m-1.46,10.85H39.84V53.93h89.5Z"/><path class="cls-2" d="M130.8,120.77H38.37a1.47,1.47,0,0,0-1.46,1.47v10.85a1.46,1.46,0,0,0,1.46,1.46H130.8a1.46,1.46,0,0,0,1.46-1.46V122.24a1.47,1.47,0,0,0-1.46-1.47m-1.46,10.86H39.84V123.7h89.5Z"/><path class="cls-2" d="M130.8,120.77H38.37a1.47,1.47,0,0,0-1.46,1.47v10.85a1.46,1.46,0,0,0,1.46,1.46H130.8a1.46,1.46,0,0,0,1.46-1.46V122.24a1.47,1.47,0,0,0-1.46-1.47m-1.46,10.86H39.84V123.7h89.5Z"/><path class="cls-2" d="M131.5,45.36l-46.18-27a1.43,1.43,0,0,0-.74-.19,1.45,1.45,0,0,0-.73.19l-46.22,27A1.47,1.47,0,0,0,37,47a1.44,1.44,0,0,0,1.41,1.08H130.8a1.46,1.46,0,0,0,.7-2.75m-87.72-.17,40.8-23.86L125.4,45.19Z"/><path class="cls-2" d="M131.5,45.36l-46.18-27a1.43,1.43,0,0,0-.74-.19,1.45,1.45,0,0,0-.73.19l-46.22,27A1.47,1.47,0,0,0,37,47a1.44,1.44,0,0,0,1.41,1.08H130.8a1.46,1.46,0,0,0,.7-2.75m-87.72-.17,40.8-23.86L125.4,45.19Z"/><path class="cls-2" d="M50.35,67.64a6.21,6.21,0,0,0-6.2,6.22v38.08a6.21,6.21,0,0,0,6.2,6.21h.11a6.22,6.22,0,0,0,6.22-6.21V73.86a6.28,6.28,0,0,0-6.33-6.22m3.39,44.3a3.34,3.34,0,0,1-6.67,0V73.86a3.29,3.29,0,0,1,3.28-3.29h.11a3.29,3.29,0,0,1,3.28,3.29Z"/><path class="cls-2" d="M50.35,67.64a6.21,6.21,0,0,0-6.2,6.22v38.08a6.21,6.21,0,0,0,6.2,6.21h.11a6.22,6.22,0,0,0,6.22-6.21V73.86a6.28,6.28,0,0,0-6.33-6.22m3.39,44.3a3.34,3.34,0,0,1-6.67,0V73.86a3.29,3.29,0,0,1,3.28-3.29h.11a3.29,3.29,0,0,1,3.28,3.29Z"/><path class="cls-2" d="M67.45,67.64a6.22,6.22,0,0,0-6.22,6.22v38.08a6.22,6.22,0,0,0,6.22,6.21h.09a6.21,6.21,0,0,0,6.22-6.21V73.86a6.27,6.27,0,0,0-6.31-6.22m3.38,44.3a3.34,3.34,0,0,1-6.67,0V73.86a3.29,3.29,0,0,1,3.29-3.29h.09a3.29,3.29,0,0,1,3.29,3.29Z"/><path class="cls-2" d="M67.45,67.64a6.22,6.22,0,0,0-6.22,6.22v38.08a6.22,6.22,0,0,0,6.22,6.21h.09a6.21,6.21,0,0,0,6.22-6.21V73.86a6.27,6.27,0,0,0-6.31-6.22m3.38,44.3a3.34,3.34,0,0,1-6.67,0V73.86a3.29,3.29,0,0,1,3.29-3.29h.09a3.29,3.29,0,0,1,3.29,3.29Z"/><path class="cls-2" d="M84.54,67.64a6.21,6.21,0,0,0-6.21,6.22v38.08a6.21,6.21,0,0,0,6.21,6.21h.1a6.22,6.22,0,0,0,6.21-6.21V73.86a6.27,6.27,0,0,0-6.31-6.22m3.39,44.3a3.34,3.34,0,0,1-6.68,0V73.86a3.29,3.29,0,0,1,3.29-3.29h.1a3.29,3.29,0,0,1,3.29,3.29Z"/><path class="cls-2" d="M84.54,67.64a6.21,6.21,0,0,0-6.21,6.22v38.08a6.21,6.21,0,0,0,6.21,6.21h.1a6.22,6.22,0,0,0,6.21-6.21V73.86a6.27,6.27,0,0,0-6.31-6.22m3.39,44.3a3.34,3.34,0,0,1-6.68,0V73.86a3.29,3.29,0,0,1,3.29-3.29h.1a3.29,3.29,0,0,1,3.29,3.29Z"/><path class="cls-2" d="M101.63,67.64a6.22,6.22,0,0,0-6.22,6.22v38.08a6.22,6.22,0,0,0,6.22,6.21h.09a6.21,6.21,0,0,0,6.22-6.21V73.86a6.26,6.26,0,0,0-6.31-6.22m3.38,44.3a3.33,3.33,0,0,1-6.66,0V73.86a3.28,3.28,0,0,1,3.28-3.29h.09A3.29,3.29,0,0,1,105,73.86Z"/><path class="cls-2" d="M101.63,67.64a6.22,6.22,0,0,0-6.22,6.22v38.08a6.22,6.22,0,0,0,6.22,6.21h.09a6.21,6.21,0,0,0,6.22-6.21V73.86a6.26,6.26,0,0,0-6.31-6.22m3.38,44.3a3.33,3.33,0,0,1-6.66,0V73.86a3.28,3.28,0,0,1,3.28-3.29h.09A3.29,3.29,0,0,1,105,73.86Z"/><path class="cls-2" d="M118.72,67.64a6.21,6.21,0,0,0-6.21,6.22v38.08a6.21,6.21,0,0,0,6.21,6.21h.09a6.22,6.22,0,0,0,6.22-6.21V73.86a6.27,6.27,0,0,0-6.31-6.22m3.39,44.3a3.34,3.34,0,0,1-6.68,0V73.86a3.29,3.29,0,0,1,3.29-3.29h.09a3.29,3.29,0,0,1,3.3,3.29Z"/><path class="cls-2" d="M118.72,67.64a6.21,6.21,0,0,0-6.21,6.22v38.08a6.21,6.21,0,0,0,6.21,6.21h.09a6.22,6.22,0,0,0,6.22-6.21V73.86a6.27,6.27,0,0,0-6.31-6.22m3.39,44.3a3.34,3.34,0,0,1-6.68,0V73.86a3.29,3.29,0,0,1,3.29-3.29h.09a3.29,3.29,0,0,1,3.3,3.29Z"/></g></g></svg>