<svg xmlns="http://www.w3.org/2000/svg" viewBox="0 0 55.97 68.3"><defs><style>.cls-1{fill:#79286a;}</style></defs><g id="Capa_2" data-name="Capa 2"><g id="Capa_1-2" data-name="Capa 1"><path class="cls-1" d="M55.11,19.26H.86a.86.86,0,0,0-.86.85v6.38a.87.87,0,0,0,.86.86H55.11a.87.87,0,0,0,.86-.86V20.11a.86.86,0,0,0-.86-.85m-.86,6.37H1.72V21H54.25Z"/><path class="cls-1" d="M55.11,19.26H.86a.86.86,0,0,0-.86.85v6.38a.87.87,0,0,0,.86.86H55.11a.87.87,0,0,0,.86-.86V20.11a.86.86,0,0,0-.86-.85m-.86,6.37H1.72V21H54.25Z"/><path class="cls-1" d="M55.11,60.21H.86a.87.87,0,0,0-.86.86v6.37a.86.86,0,0,0,.86.86H55.11a.86.86,0,0,0,.86-.86V61.07a.87.87,0,0,0-.86-.86m-.86,6.37H1.72V61.93H54.25Z"/><path class="cls-1" d="M55.11,60.21H.86a.87.87,0,0,0-.86.86v6.37a.86.86,0,0,0,.86.86H55.11a.86.86,0,0,0,.86-.86V61.07a.87.87,0,0,0-.86-.86m-.86,6.37H1.72V61.93H54.25Z"/><path class="cls-1" d="M55.52,16,28.42.12A.86.86,0,0,0,28,0a.85.85,0,0,0-.43.12L.43,16a.87.87,0,0,0-.4,1,.85.85,0,0,0,.83.63H55.11A.86.86,0,0,0,55.52,16M4,15.85,28,1.85l24,14Z"/><path class="cls-1" d="M55.52,16,28.42.12A.86.86,0,0,0,28,0a.85.85,0,0,0-.43.12L.43,16a.87.87,0,0,0-.4,1,.85.85,0,0,0,.83.63H55.11A.86.86,0,0,0,55.52,16M4,15.85,28,1.85l24,14Z"/><path class="cls-1" d="M7.89,29a3.64,3.64,0,0,0-3.64,3.64V55a3.64,3.64,0,0,0,3.64,3.65H8A3.65,3.65,0,0,0,11.6,55V32.67A3.68,3.68,0,0,0,7.89,29m2,26A2,2,0,0,1,6,55V32.67a1.93,1.93,0,0,1,1.92-1.93H8a1.94,1.94,0,0,1,1.93,1.93Z"/><path class="cls-1" d="M7.89,29a3.64,3.64,0,0,0-3.64,3.64V55a3.64,3.64,0,0,0,3.64,3.65H8A3.65,3.65,0,0,0,11.6,55V32.67A3.68,3.68,0,0,0,7.89,29m2,26A2,2,0,0,1,6,55V32.67a1.93,1.93,0,0,1,1.92-1.93H8a1.94,1.94,0,0,1,1.93,1.93Z"/><path class="cls-1" d="M17.93,29a3.65,3.65,0,0,0-3.65,3.64V55a3.65,3.65,0,0,0,3.65,3.65H18A3.64,3.64,0,0,0,21.63,55V32.67A3.67,3.67,0,0,0,17.93,29m2,26A2,2,0,0,1,16,55V32.67a1.94,1.94,0,0,1,1.94-1.93H18a1.93,1.93,0,0,1,1.93,1.93Z"/><path class="cls-1" d="M17.93,29a3.65,3.65,0,0,0-3.65,3.64V55a3.65,3.65,0,0,0,3.65,3.65H18A3.64,3.64,0,0,0,21.63,55V32.67A3.67,3.67,0,0,0,17.93,29m2,26A2,2,0,0,1,16,55V32.67a1.94,1.94,0,0,1,1.94-1.93H18a1.93,1.93,0,0,1,1.93,1.93Z"/><path class="cls-1" d="M28,29a3.64,3.64,0,0,0-3.65,3.64V55A3.64,3.64,0,0,0,28,58.67H28A3.65,3.65,0,0,0,31.66,55V32.67A3.67,3.67,0,0,0,28,29m2,26A1.94,1.94,0,0,1,28,57,1.92,1.92,0,0,1,26,55V32.67A1.93,1.93,0,0,1,28,30.74H28A1.94,1.94,0,0,1,30,32.67Z"/><path class="cls-1" d="M28,29a3.64,3.64,0,0,0-3.65,3.64V55A3.64,3.64,0,0,0,28,58.67H28A3.65,3.65,0,0,0,31.66,55V32.67A3.67,3.67,0,0,0,28,29m2,26A1.94,1.94,0,0,1,28,57,1.92,1.92,0,0,1,26,55V32.67A1.93,1.93,0,0,1,28,30.74H28A1.94,1.94,0,0,1,30,32.67Z"/><path class="cls-1" d="M38,29a3.65,3.65,0,0,0-3.65,3.64V55A3.65,3.65,0,0,0,38,58.67h0A3.64,3.64,0,0,0,41.69,55V32.67A3.67,3.67,0,0,0,38,29m2,26a2,2,0,0,1-3.91,0V32.67A1.94,1.94,0,0,1,38,30.74h0A1.93,1.93,0,0,1,40,32.67Z"/><path class="cls-1" d="M38,29a3.65,3.65,0,0,0-3.65,3.64V55A3.65,3.65,0,0,0,38,58.67h0A3.64,3.64,0,0,0,41.69,55V32.67A3.67,3.67,0,0,0,38,29m2,26a2,2,0,0,1-3.91,0V32.67A1.94,1.94,0,0,1,38,30.74h0A1.93,1.93,0,0,1,40,32.67Z"/><path class="cls-1" d="M48,29a3.64,3.64,0,0,0-3.65,3.64V55A3.64,3.64,0,0,0,48,58.67h0A3.65,3.65,0,0,0,51.72,55V32.67A3.67,3.67,0,0,0,48,29m2,26A1.94,1.94,0,0,1,48,57,1.92,1.92,0,0,1,46.09,55V32.67A1.93,1.93,0,0,1,48,30.74h0A1.94,1.94,0,0,1,50,32.67Z"/><path class="cls-1" d="M48,29a3.64,3.64,0,0,0-3.65,3.64V55A3.64,3.64,0,0,0,48,58.67h0A3.65,3.65,0,0,0,51.72,55V32.67A3.67,3.67,0,0,0,48,29m2,26A1.94,1.94,0,0,1,48,57,1.92,1.92,0,0,1,46.09,55V32.67A1.93,1.93,0,0,1,48,30.74h0A1.94,1.94,0,0,1,50,32.67Z"/></g></g></svg>