<svg xmlns="http://www.w3.org/2000/svg" viewBox="0 0 125.62 152.81"><defs><style>.cls-1{fill:#fff;}.cls-2{fill:#79286a;}.cls-3{fill:none;stroke:#79286a;stroke-linecap:round;stroke-miterlimit:10;stroke-width:3.89px;}</style></defs><g id="Capa_2" data-name="Capa 2"><g id="Capa_1-2" data-name="Capa 1"><rect class="cls-1" x="1.95" y="1.95" width="105.24" height="134.91" rx="9"/><path class="cls-2" d="M98.19,3.89A7.06,7.06,0,0,1,105.25,11v116.9a7.06,7.06,0,0,1-7.06,7.06H11a7.06,7.06,0,0,1-7.06-7.06V11A7.06,7.06,0,0,1,11,3.89H98.19m0-3.89H11A11,11,0,0,0,0,11v116.9a11,11,0,0,0,11,11H98.19a11,11,0,0,0,11-11V11A11,11,0,0,0,98.19,0"/><rect class="cls-1" x="10.19" y="8.95" width="105.24" height="134.91" rx="9"/><path class="cls-2" d="M106.43,10.89A7.06,7.06,0,0,1,113.49,18V134.86a7.06,7.06,0,0,1-7.06,7H19.19a7.06,7.06,0,0,1-7.06-7V18a7.06,7.06,0,0,1,7.06-7.06h87.24m0-3.89H19.19a11,11,0,0,0-11,11V134.86a11,11,0,0,0,11,10.94h87.24a11,11,0,0,0,10.95-10.94V18A11,11,0,0,0,106.43,7"/><rect class="cls-1" x="18.43" y="15.95" width="105.24" height="134.91" rx="9"/><path class="cls-2" d="M114.67,17.9A7.06,7.06,0,0,1,121.73,25v116.9a7.06,7.06,0,0,1-7.06,7.06H27.43a7.06,7.06,0,0,1-7.06-7.06V25a7.06,7.06,0,0,1,7.06-7.06h87.24m0-3.89H27.43A11,11,0,0,0,16.48,25v116.9a11,11,0,0,0,11,10.95h87.24a11,11,0,0,0,11-10.95V25a11,11,0,0,0-11-11"/><path class="cls-2" d="M43.48,57.79a9.27,9.27,0,1,1,9.27-9.26,9.27,9.27,0,0,1-9.27,9.26"/><path class="cls-1" d="M43.48,41.21a7.32,7.32,0,1,1-7.32,7.32,7.32,7.32,0,0,1,7.32-7.32m0-3.89A11.21,11.21,0,1,0,54.69,48.53,11.22,11.22,0,0,0,43.48,37.32"/><path class="cls-2" d="M43.48,90.62a9.27,9.27,0,1,1,9.27-9.26,9.27,9.27,0,0,1-9.27,9.26"/><path class="cls-1" d="M43.48,74a7.32,7.32,0,1,1-7.32,7.32A7.32,7.32,0,0,1,43.48,74m0-3.9A11.22,11.22,0,1,0,54.69,81.36,11.23,11.23,0,0,0,43.48,70.14"/><path class="cls-2" d="M43.48,123.45a9.27,9.27,0,1,1,9.27-9.27,9.28,9.28,0,0,1-9.27,9.27"/><path class="cls-1" d="M43.48,106.86a7.32,7.32,0,1,1-7.32,7.32,7.32,7.32,0,0,1,7.32-7.32m0-3.89a11.21,11.21,0,1,0,11.21,11.21A11.22,11.22,0,0,0,43.48,103"/><line class="cls-1" x1="54.18" y1="48.36" x2="108.74" y2="48.36"/><line class="cls-3" x1="54.18" y1="48.36" x2="108.74" y2="48.36"/><line class="cls-1" x1="54.18" y1="80.96" x2="108.74" y2="80.96"/><line class="cls-3" x1="54.18" y1="80.96" x2="108.74" y2="80.96"/><line class="cls-1" x1="54.18" y1="113.56" x2="108.74" y2="113.56"/><line class="cls-3" x1="54.18" y1="113.56" x2="108.74" y2="113.56"/></g></g></svg>