<?xml version="1.0" encoding="utf-8"?>
<!-- Generator: Adobe Illustrator 25.0.0, SVG Export Plug-In . SVG Version: 6.00 Build 0)  -->
<svg version="1.1" id="Capa_1" xmlns="http://www.w3.org/2000/svg" xmlns:xlink="http://www.w3.org/1999/xlink" x="0px" y="0px"
	 viewBox="0 0 256 110" style="enable-background:new 0 0 256 110;" xml:space="preserve">
<style type="text/css">
	.st0{fill:#FF5000;}
	.st1{opacity:0.1;clip-path:url(#SVGID_2_);}
	.st2{clip-path:url(#SVGID_4_);fill:none;stroke:#FFFFFF;stroke-width:22.311;stroke-miterlimit:10;}
	.st3{clip-path:url(#SVGID_6_);fill:none;stroke:#FFFFFF;stroke-width:22.311;stroke-miterlimit:10;}
	.st4{clip-path:url(#SVGID_8_);fill:none;stroke:#FFFFFF;stroke-width:6.582;stroke-miterlimit:10;}
	.st5{clip-path:url(#SVGID_10_);fill:none;stroke:#FFFFFF;stroke-width:6.582;stroke-miterlimit:10;}
	.st6{fill:none;stroke:#FFFFFF;stroke-width:1.116;stroke-linecap:round;stroke-miterlimit:10;stroke-dasharray:3.347,3.347;}
	.st7{fill:none;stroke:#FFFFFF;stroke-width:1.116;stroke-linecap:round;stroke-miterlimit:10;}
	.st8{fill:#FFFFFF;}
</style>
<path class="st0" d="M226.7,108.5H4V26.8c0-14,11.4-25.4,25.4-25.4h222.7v81.7C252.1,97.2,240.7,108.5,226.7,108.5"/>
<g>
	<defs>
		<path id="SVGID_1_" d="M29.4,1.9C15.4,1.9,4,13.3,4,27.3V109h222.7c14,0,25.4-11.4,25.4-25.4V1.9H29.4z"/>
	</defs>
	<clipPath id="SVGID_2_">
		<use xlink:href="#SVGID_1_"  style="overflow:visible;"/>
	</clipPath>
	<g class="st1">
		<g>
			<defs>
				<rect id="SVGID_3_" x="159.4" y="42.6" width="156.9" height="156.9"/>
			</defs>
			<clipPath id="SVGID_4_">
				<use xlink:href="#SVGID_3_"  style="overflow:visible;"/>
			</clipPath>
			
				<ellipse transform="matrix(0.9999 -1.428139e-02 1.428139e-02 0.9999 -1.7045 3.4101)" class="st2" cx="237.9" cy="121.1" rx="67.6" ry="67.6"/>
		</g>
	</g>
	<g class="st1">
		<g>
			<defs>
				<rect id="SVGID_5_" x="-60.3" y="-88.6" width="156.9" height="156.9"/>
			</defs>
			<clipPath id="SVGID_6_">
				<use xlink:href="#SVGID_5_"  style="overflow:visible;"/>
			</clipPath>
			<path class="st3" d="M-49.5-10.1c0,37.4,30.3,67.6,67.6,67.6s67.6-30.3,67.6-67.6c0-37.4-30.3-67.6-67.6-67.6
				S-49.5-47.5-49.5-10.1z"/>
		</g>
	</g>
	<g class="st1">
		<g>
			<defs>
				<rect id="SVGID_7_" x="61.9" y="85.1" width="86.2" height="86.2"/>
			</defs>
			<clipPath id="SVGID_8_">
				<use xlink:href="#SVGID_7_"  style="overflow:visible;"/>
			</clipPath>
			
				<ellipse transform="matrix(0.9871 -0.1602 0.1602 0.9871 -19.184 18.4766)" class="st4" cx="105" cy="128.2" rx="39.9" ry="39.9"/>
		</g>
	</g>
	<g class="st1">
		<g>
			<defs>
				<rect id="SVGID_9_" x="148.7" y="-60.4" width="86.2" height="86.2"/>
			</defs>
			<clipPath id="SVGID_10_">
				<use xlink:href="#SVGID_9_"  style="overflow:visible;"/>
			</clipPath>
			
				<ellipse transform="matrix(0.9871 -0.1602 0.1602 0.9871 5.2542 30.5055)" class="st5" cx="191.8" cy="-17.3" rx="39.9" ry="39.9"/>
		</g>
	</g>
</g>
<line class="st6" x1="25" y1="99.1" x2="25" y2="13"/>
<line class="st6" x1="233.6" y1="13" x2="233.6" y2="99.1"/>
<line class="st7" x1="49.4" y1="17.4" x2="208.3" y2="17.4"/>
<line class="st7" x1="49.4" y1="95.7" x2="208.3" y2="95.7"/>
<path class="st8" d="M146.1,43.4h-36c-0.3,0-0.6,0.3-0.6,0.6v4.2c0,0.3,0.3,0.6,0.6,0.6h36c0.3,0,0.6-0.3,0.6-0.6V44
	C146.6,43.7,146.4,43.4,146.1,43.4 M145.5,47.6h-34.9v-3.1h34.9V47.6z"/>
<path class="st8" d="M146.1,43.4h-36c-0.3,0-0.6,0.3-0.6,0.6v4.2c0,0.3,0.3,0.6,0.6,0.6h36c0.3,0,0.6-0.3,0.6-0.6V44
	C146.6,43.7,146.4,43.4,146.1,43.4 M145.5,47.6h-34.9v-3.1h34.9V47.6z"/>
<path class="st8" d="M146.1,70.6h-36c-0.3,0-0.6,0.3-0.6,0.6v4.2c0,0.3,0.3,0.6,0.6,0.6h36c0.3,0,0.6-0.3,0.6-0.6v-4.2
	C146.6,70.9,146.4,70.6,146.1,70.6 M145.5,74.8h-34.9v-3.1h34.9V74.8z"/>
<path class="st8" d="M146.1,70.6h-36c-0.3,0-0.6,0.3-0.6,0.6v4.2c0,0.3,0.3,0.6,0.6,0.6h36c0.3,0,0.6-0.3,0.6-0.6v-4.2
	C146.6,70.9,146.4,70.6,146.1,70.6 M145.5,74.8h-34.9v-3.1h34.9V74.8z"/>
<path class="st8" d="M146.3,41.2l-18-10.5c-0.1-0.1-0.2-0.1-0.3-0.1c-0.1,0-0.2,0-0.3,0.1l-18,10.5c-0.2,0.1-0.3,0.4-0.3,0.6
	c0.1,0.3,0.3,0.4,0.5,0.4h36c0.3,0,0.6-0.3,0.6-0.6C146.6,41.5,146.5,41.3,146.3,41.2 M112.1,41.1l15.9-9.3l15.9,9.3H112.1z"/>
<path class="st8" d="M146.3,41.2l-18-10.5c-0.1-0.1-0.2-0.1-0.3-0.1c-0.1,0-0.2,0-0.3,0.1l-18,10.5c-0.2,0.1-0.3,0.4-0.3,0.6
	c0.1,0.3,0.3,0.4,0.5,0.4h36c0.3,0,0.6-0.3,0.6-0.6C146.6,41.5,146.5,41.3,146.3,41.2 M112.1,41.1l15.9-9.3l15.9,9.3H112.1z"/>
<path class="st8" d="M114.7,49.9c-1.3,0-2.4,1.1-2.4,2.4v14.8c0,1.3,1.1,2.4,2.4,2.4h0c1.3,0,2.4-1.1,2.4-2.4V52.3
	C117.2,51,116.1,49.9,114.7,49.9 M116,67.2c0,0.7-0.6,1.3-1.3,1.3c-0.7,0-1.3-0.6-1.3-1.3V52.3c0-0.7,0.6-1.3,1.3-1.3h0
	c0.7,0,1.3,0.6,1.3,1.3V67.2z"/>
<path class="st8" d="M114.7,49.9c-1.3,0-2.4,1.1-2.4,2.4v14.8c0,1.3,1.1,2.4,2.4,2.4h0c1.3,0,2.4-1.1,2.4-2.4V52.3
	C117.2,51,116.1,49.9,114.7,49.9 M116,67.2c0,0.7-0.6,1.3-1.3,1.3c-0.7,0-1.3-0.6-1.3-1.3V52.3c0-0.7,0.6-1.3,1.3-1.3h0
	c0.7,0,1.3,0.6,1.3,1.3V67.2z"/>
<path class="st8" d="M121.4,49.9c-1.3,0-2.4,1.1-2.4,2.4v14.8c0,1.3,1.1,2.4,2.4,2.4h0c1.3,0,2.4-1.1,2.4-2.4V52.3
	C123.8,51,122.7,49.9,121.4,49.9 M122.7,67.2c0,0.7-0.6,1.3-1.3,1.3c-0.7,0-1.3-0.6-1.3-1.3V52.3c0-0.7,0.6-1.3,1.3-1.3h0
	c0.7,0,1.3,0.6,1.3,1.3V67.2z"/>
<path class="st8" d="M121.4,49.9c-1.3,0-2.4,1.1-2.4,2.4v14.8c0,1.3,1.1,2.4,2.4,2.4h0c1.3,0,2.4-1.1,2.4-2.4V52.3
	C123.8,51,122.7,49.9,121.4,49.9 M122.7,67.2c0,0.7-0.6,1.3-1.3,1.3c-0.7,0-1.3-0.6-1.3-1.3V52.3c0-0.7,0.6-1.3,1.3-1.3h0
	c0.7,0,1.3,0.6,1.3,1.3V67.2z"/>
<path class="st8" d="M128,49.9c-1.3,0-2.4,1.1-2.4,2.4v14.8c0,1.3,1.1,2.4,2.4,2.4h0c1.3,0,2.4-1.1,2.4-2.4V52.3
	C130.5,51,129.4,49.9,128,49.9 M129.3,67.2c0,0.7-0.6,1.3-1.3,1.3c-0.7,0-1.3-0.6-1.3-1.3V52.3c0-0.7,0.6-1.3,1.3-1.3h0
	c0.7,0,1.3,0.6,1.3,1.3V67.2z"/>
<path class="st8" d="M128,49.9c-1.3,0-2.4,1.1-2.4,2.4v14.8c0,1.3,1.1,2.4,2.4,2.4h0c1.3,0,2.4-1.1,2.4-2.4V52.3
	C130.5,51,129.4,49.9,128,49.9 M129.3,67.2c0,0.7-0.6,1.3-1.3,1.3c-0.7,0-1.3-0.6-1.3-1.3V52.3c0-0.7,0.6-1.3,1.3-1.3h0
	c0.7,0,1.3,0.6,1.3,1.3V67.2z"/>
<path class="st8" d="M134.7,49.9c-1.3,0-2.4,1.1-2.4,2.4v14.8c0,1.3,1.1,2.4,2.4,2.4h0c1.3,0,2.4-1.1,2.4-2.4V52.3
	C137.1,51,136,49.9,134.7,49.9 M136,67.2c0,0.7-0.6,1.3-1.3,1.3c-0.7,0-1.3-0.6-1.3-1.3V52.3c0-0.7,0.6-1.3,1.3-1.3h0
	c0.7,0,1.3,0.6,1.3,1.3V67.2z"/>
<path class="st8" d="M134.7,49.9c-1.3,0-2.4,1.1-2.4,2.4v14.8c0,1.3,1.1,2.4,2.4,2.4h0c1.3,0,2.4-1.1,2.4-2.4V52.3
	C137.1,51,136,49.9,134.7,49.9 M136,67.2c0,0.7-0.6,1.3-1.3,1.3c-0.7,0-1.3-0.6-1.3-1.3V52.3c0-0.7,0.6-1.3,1.3-1.3h0
	c0.7,0,1.3,0.6,1.3,1.3V67.2z"/>
<path class="st8" d="M141.3,49.9c-1.3,0-2.4,1.1-2.4,2.4v14.8c0,1.3,1.1,2.4,2.4,2.4h0c1.3,0,2.4-1.1,2.4-2.4V52.3
	C143.8,51,142.7,49.9,141.3,49.9 M142.7,67.2c0,0.7-0.6,1.3-1.3,1.3c-0.7,0-1.3-0.6-1.3-1.3V52.3c0-0.7,0.6-1.3,1.3-1.3h0
	c0.7,0,1.3,0.6,1.3,1.3V67.2z"/>
<path class="st8" d="M141.3,49.9c-1.3,0-2.4,1.1-2.4,2.4v14.8c0,1.3,1.1,2.4,2.4,2.4h0c1.3,0,2.4-1.1,2.4-2.4V52.3
	C143.8,51,142.7,49.9,141.3,49.9 M142.7,67.2c0,0.7-0.6,1.3-1.3,1.3c-0.7,0-1.3-0.6-1.3-1.3V52.3c0-0.7,0.6-1.3,1.3-1.3h0
	c0.7,0,1.3,0.6,1.3,1.3V67.2z"/>
<path class="st8" d="M137.6,84.2c-0.1-0.5-0.1-0.9,0-1.3c-8.7,3-18.8,1.9-26.8-4c-8.3-6-12.4-15.6-11.9-25.1
	c-0.3-0.3-0.8-0.6-1.4-0.6c-0.6-0.1-1.2,0.2-1.7,0.6c-0.1,2.2,0,4.4,0.4,6.6c1.3,8.5,5.9,16,12.9,21.1c7,5.1,15.5,7.1,24,5.8
	c1.9-0.3,3.8-0.8,5.6-1.4C138.1,85.3,137.8,84.8,137.6,84.2"/>
<path class="st8" d="M147.2,31.4c-0.4,0.4-0.8,0.7-1.2,0.8c12.3,9.7,14.9,27.5,5.6,40.2c-3.4,4.7-8,8.1-13.1,10
	c-0.2,0.4-0.3,0.9-0.1,1.5c0.1,0.6,0.5,1.1,1.1,1.5c5.8-2.2,10.9-6,14.7-11.2c5.1-7,7.1-15.5,5.8-24c-1.3-8.2-5.5-15.4-12-20.5
	C147.9,30.4,147.6,31,147.2,31.4"/>
<path class="st8" d="M97.6,52.3c0.5,0,1,0.2,1.4,0.5c0.4-5.2,2.2-10.3,5.5-14.8c9.5-13,27.8-15.9,40.8-6.4c0.4,0,1-0.2,1.4-0.7
	c0.4-0.5,0.6-1.1,0.4-1.8l0,0c-7-5.1-15.5-7.1-24-5.8c-8.5,1.3-16,5.9-21.1,12.9c-3.6,4.9-5.6,10.5-6.1,16.4
	C96.4,52.4,97,52.2,97.6,52.3"/>
</svg>
