<svg xmlns="http://www.w3.org/2000/svg" viewBox="0 0 1044.2 531.65"><defs><style>.cls-1{fill:#58595b;}.cls-2{fill:#f35a7a;}.cls-3{fill:#f9b233;}.cls-4{fill:#2c2852;}.cls-5{fill:#3e3872;}.cls-6{fill:#fff2fb;}.cls-7{fill:#f8b797;}.cls-8{fill:#1dd51b;}.cls-9{fill:#efedff;}.cls-10{fill:#f19780;}.cls-11{fill:#f18180;}.cls-12{fill:#fff;}.cls-13{fill:#d2ccff;}</style></defs><g id="Capa_2" data-name="Capa 2"><g id="Capa_1-2" data-name="Capa 1"><path class="cls-1" d="M976.39,531.65H162.83A67.8,67.8,0,0,1,95,463.85v-396A67.81,67.81,0,0,1,162.83,0H976.39a67.81,67.81,0,0,1,67.81,67.81v396a67.8,67.8,0,0,1-67.81,67.8"/><path class="cls-2" d="M108.76,531H56.13C65,530.9,72.2,524,78,517.27a180.32,180.32,0,0,0,25.08-37.2l.47.24q2.61,25.35,5.23,50.7"/><path class="cls-2" d="M47.19,424.48q1.45-3.78,3.22-7.44c4.58-9.41,11.14-18.11,20-23.62,5.22-3.23,11.22-5.37,15.73-9.53.44,6.91,3.08,13.73,5.22,20.42.48,1.5.94,3,1.37,4.53,1.62,5.65,2.93,11.37,4,17.14-.93,1.68-1.89,3.42-2.89,5.19a76.73,76.73,0,0,0,23.37,16.64c-4.93,12.18-9.26,22.55-14.21,32.26A180.59,180.59,0,0,1,78,517.27C72.2,524,65,530.9,56.13,531h-.5a19.25,19.25,0,0,1-12.09-4.92,23.75,23.75,0,0,1-3.87-4.21c-3.72-5.16-5.5-11.48-6.4-17.77l-.21-1.63C30.8,483.79,35.55,465,40.4,446.73a218.85,218.85,0,0,1,6.79-22.25"/><path class="cls-2" d="M197.47,514.85a18.4,18.4,0,0,0-12.74-13.5,48.84,48.84,0,0,1-15.62-1.67c-1.32-.37-2.62-.82-3.92-1.27q-9.75-47.73-24.06-94.38c.27-.66.52-1.33.74-2,.78-2.41,1.26-4.91,2.09-7.3a4.25,4.25,0,0,1,1.5-2.45c.3-.22,2.86-1.24,2.88-1.36a7.31,7.31,0,0,0,0,2.38,2.48,2.48,0,0,0,1.41,1.81,2.83,2.83,0,0,0,3.08-1.29c1.42-2,1.34-4.66.68-7a5,5,0,0,0-1.37-2.49A3.59,3.59,0,0,0,153,381c1.2.44,2.39.9,3.56,1.4,15.13,6.5,26.16,19.91,34.85,33.89,6.83,11,12.8,22.46,19.74,33.38,6.38,10.05,14.38,18.78,18.82,30.08a52.48,52.48,0,0,1,2,6.33L213.83,526.5H196a18.16,18.16,0,0,0,1.46-11.65"/><path class="cls-3" d="M33.77,426.56a56.71,56.71,0,0,1,13.42-2.08,218.85,218.85,0,0,0-6.79,22.25c-4.84,18.22-9.59,37.06-7.34,55.74q-5.84-13.16-11.68-26.31c-5.32-12-10.57-26.27-4-37.64,3.46-6,9.77-10,16.41-12"/><polygon class="cls-4" points="257 438.72 261.49 438.72 256.75 444.17 253.35 442.38 257 438.72"/><path class="cls-5" d="M130.36,292.58c1.12,2.4.69,5-1,5.73s-3.89-.56-5-3-.68-5,1-5.73,3.88.56,5,3"/><path class="cls-5" d="M63.85,369.9c-.55-.46-1.08-.93-1.6-1.4a2.44,2.44,0,0,1,1.6,1.4"/><path class="cls-6" d="M92.76,408.84a69,69,0,0,0,11.52,2.59c-1.84,4-4.44,9-7.49,14.55-1.1-5.77-2.41-11.49-4-17.14"/><path class="cls-5" d="M99.92,296.71c1.12,2.4.69,5-1,5.73s-3.89-.56-5-3-.69-5,1-5.74,3.88.56,5,3"/><path class="cls-5" d="M129.5,275.16c.47,1.7-1.35,1.61-2.43,1.28a18.93,18.93,0,0,0-7.33-.72,3.5,3.5,0,0,1-1.25,0,1.08,1.08,0,0,1-.86-.82,1.05,1.05,0,0,1,.47-1,2.69,2.69,0,0,1,1-.4c2.94-.65,5.68-.11,8.57.41.83.15,1.54.3,1.79,1.21"/><path class="cls-3" d="M125.18,361.75l3.15,2.85a31.09,31.09,0,0,0-5.14,1.91,135.38,135.38,0,0,1-18.7-18.15,5.24,5.24,0,0,1-1.26-2.07,1.82,1.82,0,0,1,.81-2.1c1-.46,2,.3,2.8,1l18.34,16.55"/><path class="cls-7" d="M123.19,366.51a31.09,31.09,0,0,1,5.14-1.91,34.66,34.66,0,0,1,8.1-1.23l.88,0a12.7,12.7,0,0,1,7.28,1.79,6.68,6.68,0,0,1,2.93,5.45,4.22,4.22,0,0,1,1.21.75c1.76,1.5,2,4.18,1.28,6.42a5.2,5.2,0,0,1,2.67,2.3,3.85,3.85,0,0,1,.36,1,3.59,3.59,0,0,1-.87,3.29,5,5,0,0,1,1.37,2.49c.66,2.33.74,5-.68,7a2.83,2.83,0,0,1-3.08,1.29,2.48,2.48,0,0,1-1.41-1.81,7.31,7.31,0,0,1,0-2.38c0,.12-2.58,1.14-2.88,1.36a4.25,4.25,0,0,0-1.5,2.45c-.83,2.39-1.31,4.89-2.09,7.3-.22.68-.47,1.35-.74,2a30.79,30.79,0,0,1-8.69,12c-4.41,3.72-6.41,9.28-8.15,14.65l-.08,0c-2.5,6.15-4.78,11.86-6.94,17.21A76.73,76.73,0,0,1,93.9,431.17c1-1.77,2-3.51,2.89-5.19,3-5.57,5.65-10.58,7.49-14.55a35.66,35.66,0,0,0,2.92-7.77c1.14-7.47,0-15.32,2.42-22.46a25.62,25.62,0,0,1,10.58-13,28,28,0,0,1,3-1.65"/><path class="cls-7" d="M128.55,531H119a11.7,11.7,0,0,1-.07-2.21c.21-3.35,1.61-6.5,3.14-9.48,3.29-6.41,7.34-12.56,12.91-17.13s12.81-7.42,20-6.6a47.8,47.8,0,0,1,10.21,2.82c1.29.45,2.6.9,3.92,1.27a48.84,48.84,0,0,0,15.62,1.67,18.4,18.4,0,0,1,12.74,13.5A18.16,18.16,0,0,1,196,526.5H134.59V531Z"/><path class="cls-8" d="M56.13,531h0Z"/><path class="cls-9" d="M117.27,447.81c2.16-5.35,4.44-11.06,6.94-17.21l.08,0C126,425.26,128,419.7,132.44,416a30.79,30.79,0,0,0,8.69-12q14.3,46.58,24.06,94.38A47.8,47.8,0,0,0,155,495.59c-7.15-.82-14.39,2-20,6.6s-9.62,10.72-12.91,17.12c-1.53,3-2.93,6.14-3.14,9.49A12.45,12.45,0,0,0,119,531H108.76q-2.62-25.33-5.23-50.69l-.47-.24c5-9.71,9.28-20.08,14.21-32.26"/><path class="cls-3" d="M55.63,531H45.72l-2.18-4.93A19.27,19.27,0,0,0,55.63,531"/><path class="cls-10" d="M143,295.13a7.7,7.7,0,1,1-7.7,7.69,7.7,7.7,0,0,1,7.7-7.69"/><path class="cls-5" d="M150.07,352c1,1.58,1.92,3.3,1.71,5.13-.28,2.42-2.67,4.16-5.09,4.52s-4.84-.35-7.17-1a10.33,10.33,0,0,1-2.21,2.75l-.88,0a34.15,34.15,0,0,0-8.1,1.23l-3.15-2.85c-.36-5,5.2-6,8.64-8.12,2.53-1.54,5.25-2.77,7.77-4.37a47.06,47.06,0,0,0,4.78-3.45q1.84,3.09,3.7,6.18"/><path class="cls-10" d="M65.73,335.38a1.31,1.31,0,0,1-.07,1.37,2.66,2.66,0,0,1-1.12.89,5.77,5.77,0,0,1-5.11-.11c-2.8-1.5-4.33-5.76-1.43-8a4.18,4.18,0,0,1,3.91-.58,1.84,1.84,0,0,1,1.26,1.19c.16.73-.4,1.41-.87,2s-.91,1.4-.52,2.05,1.25.64,2,.59,1.58-.05,2,.56"/><path class="cls-5" d="M94.75,278.63a2.11,2.11,0,0,1-1.11,1.87,11.11,11.11,0,0,1-2.12.83,9.51,9.51,0,0,0-4.07,2.83A6.56,6.56,0,0,1,86,285.62a1.51,1.51,0,0,1-1.87-.12,1.39,1.39,0,0,1-.22-1.28,3.43,3.43,0,0,1,.67-1.17A15.42,15.42,0,0,1,89.5,279a9.54,9.54,0,0,1,3-1.2c.51-.06,2.17.15,2.24.86"/><path class="cls-10" d="M90.38,308.8a7.7,7.7,0,1,1-7.7,7.69,7.69,7.69,0,0,1,7.7-7.69"/><path class="cls-7" d="M88.92,368.11c-.43-.74-.89-1.47-1.31-2.19q-3.6-6.12-7.4-12.09-2.59-4.08-5.3-8.09c-1-1.46-2.24-4.34-4.37-4.21-1.26.07-2.55,1.15-3.71,1.6a11.9,11.9,0,0,1-5.15.78,12.07,12.07,0,0,1-9.46-6.08,11,11,0,0,1,1.13-12.35,9.46,9.46,0,0,1,10.85-2.2c.55-6.18-1.9-12.42-1.14-18.6.44-3.57,1.91-6.91,2.87-10.37a20.42,20.42,0,0,0,.84-5.53A67.72,67.72,0,0,0,75,282.27c3.24-3,6.76-5.8,9.73-9.07a50.94,50.94,0,0,0,11.86-22.39,134.15,134.15,0,0,0,17.81,10.27,62.67,62.67,0,0,0,23.28,6.12,217.36,217.36,0,0,1,15.61,37.43,71,71,0,0,1,3.46,16.07,30.62,30.62,0,0,1-2.82,16,29,29,0,0,1-7.55,9.08,47.06,47.06,0,0,1-4.78,3.45c-2.52,1.6-5.24,2.83-7.77,4.37-3.43,2.08-9,3.09-8.64,8.12L106.84,345.2c-.78-.71-1.84-1.47-2.8-1a1.82,1.82,0,0,0-.81,2.1,5.24,5.24,0,0,0,1.26,2.07,135.38,135.38,0,0,0,18.7,18.15,28,28,0,0,0-3,1.65,25.62,25.62,0,0,0-10.58,13c-2.47,7.14-1.28,15-2.42,22.46a35.66,35.66,0,0,1-2.92,7.77,69,69,0,0,1-11.52-2.59c-.43-1.51-.89-3-1.37-4.53-2.14-6.69-4.78-13.5-5.22-20.42l.36-.34a14.5,14.5,0,0,0,3.75-5.93,10.82,10.82,0,0,0,.2-6,13.81,13.81,0,0,0-1.56-3.49m61.73-65.28a7.7,7.7,0,1,0-7.7,7.69,7.7,7.7,0,0,0,7.7-7.69m-21.25-4.52c1.65-.76,2.08-3.33,1-5.73s-3.36-3.73-5-3-2.08,3.33-1,5.73,3.36,3.73,5,3m-2.33-21.87c1.08.33,2.9.42,2.43-1.28-.25-.91-1-1.06-1.79-1.21-2.89-.52-5.63-1.06-8.57-.41a2.69,2.69,0,0,0-1,.4,1.05,1.05,0,0,0-.47,1,1.08,1.08,0,0,0,.86.82,3.5,3.5,0,0,0,1.25,0,19,19,0,0,1,7.33.72m-1.42,30.37a4.88,4.88,0,0,0-.9-3.62,14.27,14.27,0,0,0-2.66-2.72c-2.26-1.94-4.49-3.91-6.77-5.81-2-1.63-3.79-1-3.94,1.75a15,15,0,0,0,2.72,8.68,12.89,12.89,0,0,0,3.34,3.71,6.35,6.35,0,0,0,4.73,1.2,4.3,4.3,0,0,0,3.48-3.19M99,302.44c1.65-.77,2.08-3.33,1-5.73s-3.36-3.73-5-3-2.08,3.34-1,5.74,3.35,3.72,5,3m-.88,14.05a7.7,7.7,0,1,0-7.7,7.7,7.69,7.69,0,0,0,7.7-7.7m-4.44-36a2.11,2.11,0,0,0,1.11-1.87c-.07-.71-1.73-.92-2.24-.86a9.78,9.78,0,0,0-3,1.2,15.42,15.42,0,0,0-4.89,4.08,3.52,3.52,0,0,0-.67,1.17,1.39,1.39,0,0,0,.22,1.28,1.51,1.51,0,0,0,1.87.12,6.56,6.56,0,0,0,1.42-1.46,9.51,9.51,0,0,1,4.07-2.83,11.11,11.11,0,0,0,2.12-.83m-28,56.25a1.31,1.31,0,0,0,.07-1.37c-.4-.61-1.26-.62-2-.56s-1.6,0-2-.59,0-1.47.52-2.05,1-1.27.87-2A1.84,1.84,0,0,0,61.91,329a4.18,4.18,0,0,0-3.91.58c-2.9,2.2-1.37,6.46,1.43,8a5.77,5.77,0,0,0,5.11.11,2.66,2.66,0,0,0,1.12-.89"/><path class="cls-11" d="M124.75,303.19a4.88,4.88,0,0,1,.9,3.62,4.3,4.3,0,0,1-3.48,3.19,6.39,6.39,0,0,1-4.73-1.2,12.89,12.89,0,0,1-3.34-3.71,15,15,0,0,1-2.72-8.68c.15-2.74,2-3.38,3.94-1.75,2.28,1.9,4.51,3.87,6.77,5.81a14.27,14.27,0,0,1,2.66,2.72"/><path class="cls-4" d="M257.72,438.72a6.63,6.63,0,0,0-6.05,3.91l-19.62,43.49L213.83,526.5H134.59V531h82.77Z"/><path class="cls-5" d="M353.47,438.72H262.76a7.71,7.71,0,0,0-7.06,4.62L217.36,531h96.51a5.34,5.34,0,0,0,4.88-3.15l38-84.07a3.58,3.58,0,0,0-3.26-5.06"/><path class="cls-12" d="M285.59,480.15c-1,4.36,1.78,7.9,6.15,7.9a10.42,10.42,0,0,0,9.65-7.9c1-4.36-1.78-7.89-6.14-7.89a10.42,10.42,0,0,0-9.66,7.89"/><path class="cls-5" d="M96.58,250.81A51,51,0,0,1,84.73,273.2c-3.91,4.3-8.72,7.41-12.22,12-4.18,5.52-8.59,12.42-9.45,19.44-.75,6.18,1.69,12.42,1.14,18.6a9.46,9.46,0,0,0-10.85,2.2,11,11,0,0,0-1.13,12.35,12.07,12.07,0,0,0,9.46,6.08,11.9,11.9,0,0,0,5.15-.78c1.16-.45,2.45-1.53,3.71-1.6,2.13-.13,3.39,2.75,4.37,4.21q2.7,4,5.3,8.09,3.8,6,7.4,12.09c.42.72.88,1.45,1.31,2.19a13,13,0,0,1-13,.59c-.1,2.89-3.54,4.71-6.4,4.23a12.29,12.29,0,0,1-5.72-3,2.42,2.42,0,0,0-1.6-1.39c.52.46,1,.94,1.6,1.39a3.79,3.79,0,0,1-.62,4c-1.53,1.6-4,1.8-6.2,1.43-6-1-10.9-5.5-13.66-10.86S39.79,353,39.71,346.92s.51-12.05.41-18.08c-.19-10.94-2.7-21.71-3.29-32.63-.53-9.81.66-20.36,5.85-28.82,11.72-19.07,34.09-32.86,56.89-30.94,16.87,1.42,30.89,13.85,37.37,29.39.24.45.49.9.73,1.36a62.67,62.67,0,0,1-23.28-6.12,134.15,134.15,0,0,1-17.81-10.27"/><path d="M198.81,521v0h0v0h0"/><path d="M205.07,517.92l-.06-.07h0v0Z"/><path d="M208.66,516.71l.08-.09,0,0h0Z"/><path d="M219,515.69h0l-.07.05Z"/><path d="M197.57,517.86v0h0Z"/><path class="cls-13" d="M114.66,473.94c.13.16.09,0,.1,0a.51.51,0,0,0,.16-.13l.27-.15h.37l.19-.28.35,0,.18-.3.39,0,.22-.24.25-.18.24-.2.28-.13.1-.4.43.07.14-.34.2-.24.31-.11.24-.19.31-.11.16-.3.18-.26.35-.06.15-.31.34-.07.09-.39.36,0,.15-.31h.41l0-.45.28-.14.39,0,.1-.36.26-.17.33-.09,0-.43.24-.19.31-.13c0-.1.1-.19.14-.29l.33-.11.24-.2,0-.39h.44l.16-.28.24-.19.06-.38.39-.05.06-.37.26-.18.33-.12.1-.33.27-.17.17-.26.13-.3.17-.26.19-.24.27-.18.18-.26.21-.22.3-.15.17-.26,0-.38.21-.23.2-.24.31-.14.19-.25.14-.28.28-.18,0-.41.27-.19.11-.3.3-.16.14-.28.14-.28c0-.07.19,0,.08-.21s.05-.06-.29-.29l-.16-.1-.28-.18c-.17-.11-.23-.13-.24-.12a.62.62,0,0,0-.07.23l-.17.25-.11.29-.26.19-.29.16-.1.3-.27.18-.1.3-.16.26-.22.21,0,.35-.28.15-.26.19-.1.3-.31.14-.17.25-.14.27-.33.12-.07.33-.09.32-.36.09-.22.2v.41l-.39.05,0,.36-.22.21-.23.2-.32.11-.23.19,0,.39-.19.23h-.44l0,.39-.23.19-.38,0-.08.35-.12.32-.44,0,0,.4-.35.07-.11.32-.39,0,0,.41-.34.07-.12.32-.38,0-.13.32-.21.22-.41,0-.22.2-.2.22-.07.4-.25.16-.38,0-.26.14-.06.42h-.38l-.13.33-.3.1c-.06.09-.13.17-.19.25l-.24.18-.26.16-.34,0-.27.15-.24.17-.12.37-.31.07h-.36l-.24.19-.2.25-.31.07-.13.35h-.11l-.08,0s-.14,0,.32.72l.26.4"/><path class="cls-11" d="M114.37,330.53a14.21,14.21,0,0,1-3.44-.42,14.57,14.57,0,0,1-8.49-5.95,1,1,0,1,1,1.61-1.09,12.48,12.48,0,0,0,16.26,4.05,1,1,0,0,1,1.31.39,1,1,0,0,1-.39,1.32,14.64,14.64,0,0,1-6.86,1.7"/><path class="cls-5" d="M55.93,531.65h-.31a.65.65,0,1,1,0-1.29h.29c8.83,0,16.16-7.21,21.57-13.52,21.25-24.75,29-44,41.83-75.86,1.37-3.39,2.79-6.92,4.29-10.62a.65.65,0,0,1,.84-.36.66.66,0,0,1,.36.85c-1.5,3.69-2.93,7.22-4.29,10.62-12.88,32-20.66,51.3-42,76.22a57.59,57.59,0,0,1-10.11,9.61c-4.2,2.93-8.27,4.35-12.43,4.35"/><path class="cls-5" d="M56.56,491.31a.61.61,0,0,1-.42-.16.65.65,0,0,1-.07-.91C65,479.88,105,413.81,106.56,403.56a72.92,72.92,0,0,0,.62-8.74c.14-4.61.29-9.37,1.83-13.83a26.18,26.18,0,0,1,10.85-13.38,33,33,0,0,1,16.54-4.89c2.37-.08,5.83,0,8.56,1.89a7.34,7.34,0,0,1,3.2,5.95.64.64,0,0,1-.66.63.65.65,0,0,1-.63-.66,6,6,0,0,0-2.64-4.85c-1.84-1.26-4.31-1.79-7.78-1.67a31.8,31.8,0,0,0-15.9,4.7,24.82,24.82,0,0,0-10.32,12.7c-1.47,4.27-1.62,8.94-1.76,13.45a74.25,74.25,0,0,1-.63,8.9c-1,6.84-16.32,33.09-22.84,44.06-11.79,19.83-23.8,38.43-27.95,43.26a.65.65,0,0,1-.49.23"/><path class="cls-5" d="M150,378.36l-.19,0a.65.65,0,0,1-.43-.81c.52-1.75.55-4.29-1.1-5.71-1.24-1.06-3.11-1.2-4.6-1.2h0A30.87,30.87,0,0,0,129,374.37a.64.64,0,1,1-.61-1.13,32,32,0,0,1,15.32-3.91h0c1.72,0,3.88.17,5.45,1.51,2.11,1.82,2.15,4.84,1.49,7.06a.66.66,0,0,1-.62.46"/><path class="cls-5" d="M152.32,384.83a.65.65,0,0,1-.49-1.07,3.15,3.15,0,0,0,.28-3.4,5,5,0,0,0-3.6-2.36,12.65,12.65,0,0,0-4.74.29,69.14,69.14,0,0,0-10.84,3.54.64.64,0,1,1-.47-1.2,71.1,71.1,0,0,1,11-3.6,13.73,13.73,0,0,1,5.24-.3,6.28,6.28,0,0,1,4.51,3,4.46,4.46,0,0,1-.45,4.86.64.64,0,0,1-.48.22"/><path class="cls-5" d="M124.05,432a.69.69,0,0,1-.2,0,.64.64,0,0,1-.42-.81c1.75-5.44,3.74-11.61,8.6-15.69a30.31,30.31,0,0,0,9.22-13.67c.36-1.09.65-2.22.94-3.32.34-1.31.7-2.67,1.16-4l0-.08a4.81,4.81,0,0,1,1.7-2.69l.13-.08a13,13,0,0,1,1.47-.69l.67-.28.15-.06.2-.09,0,0a.73.73,0,0,1,.74-.17.74.74,0,0,1,.48.62,2.44,2.44,0,0,1,0,.82,1.81,1.81,0,0,0,0,.29,4.36,4.36,0,0,0,.1,1.08,1.9,1.9,0,0,0,1,1.36c.79.31,1.77-.31,2.32-1.07,1.51-2.08,1-4.93.58-6.44a3.71,3.71,0,0,0-1.5-2.4,4.29,4.29,0,0,0-2.92,0,47.72,47.72,0,0,0-11.15,4.11.65.65,0,0,1-.87-.27.66.66,0,0,1,.28-.88,49,49,0,0,1,11.45-4.21,5.26,5.26,0,0,1,3.83.15,5,5,0,0,1,2.12,3.18c.5,1.74,1.05,5-.78,7.55a3.46,3.46,0,0,1-3.83,1.52,3.12,3.12,0,0,1-1.81-2.27,5.59,5.59,0,0,1-.13-1.41v0l-.44.18a11.31,11.31,0,0,0-1.31.61l0,0a3.6,3.6,0,0,0-1.23,2.05l0,.09c-.44,1.26-.79,2.6-1.13,3.89-.29,1.11-.59,2.26-1,3.39a31.58,31.58,0,0,1-9.62,14.26c-4.58,3.84-6.5,9.82-8.2,15.1a.64.64,0,0,1-.61.44"/><path class="cls-5" d="M333.38,531.65H.65a.65.65,0,1,1,0-1.29H333.38a.65.65,0,1,1,0,1.29"/><path class="cls-5" d="M119,531.46a.66.66,0,0,1-.64-.58,12.51,12.51,0,0,1,0-2.12c.21-3.47,1.66-6.73,3.21-9.74,4-7.77,8.13-13.28,13.07-17.33,6.18-5.07,13.63-7.53,20.44-6.74a43.22,43.22,0,0,1,9.45,2.54c1.57.55,3.18,1.11,4.79,1.57,15.06,4.28,31.62-.48,44.93-4.29a.65.65,0,0,1,.36,1.24c-13.47,3.86-30.23,8.67-45.65,4.29-1.64-.46-3.27-1-4.86-1.59a43,43,0,0,0-9.16-2.48c-6.48-.74-13.57,1.61-19.48,6.46-4.79,3.93-8.84,9.31-12.74,16.92-1.48,2.88-2.88,6-3.07,9.23a11,11,0,0,0,0,1.9.64.64,0,0,1-.58.71H119"/><path class="cls-5" d="M128.56,531.56h-.12a.65.65,0,0,1-.51-.76,27.73,27.73,0,0,1,5.37-11.17,75.7,75.7,0,0,1,8.89-9.34.65.65,0,0,1,.88,1,74.51,74.51,0,0,0-8.74,9.18,26.34,26.34,0,0,0-5.13,10.64.64.64,0,0,1-.64.51"/><path class="cls-5" d="M143.55,527.46a.74.74,0,0,1-.25-.05.66.66,0,0,1-.35-.85,28.9,28.9,0,0,1,8.17-11.11.64.64,0,0,1,.91.09.65.65,0,0,1-.09.91,27.5,27.5,0,0,0-7.79,10.61.66.66,0,0,1-.6.4"/><path class="cls-5" d="M152.6,527.88a.7.7,0,0,1-.25,0A.64.64,0,0,1,152,527a19.32,19.32,0,0,1,6.2-8,.64.64,0,1,1,.77,1,18.09,18.09,0,0,0-5.78,7.5.64.64,0,0,1-.59.4"/><path class="cls-5" d="M187.32,502.07a.66.66,0,0,1-.62-.47c-1.44-5-3.18-10.77-4.86-16.37s-3.43-11.4-4.88-16.37c-.9-3.13-1.93-6.67-1.74-10.21a43.63,43.63,0,0,1,.7-5.34c.53-3,1-5.92.3-9.19a39.29,39.29,0,0,0-5.49-13.38c-1.48-2.28-3.14-4.53-4.75-6.7-3.65-4.92-7.41-10-9.42-15.91a.65.65,0,1,1,1.23-.41c1.94,5.71,5.64,10.71,9.22,15.55,1.63,2.19,3.3,4.45,4.81,6.76a40.7,40.7,0,0,1,5.66,13.81c.78,3.52.26,6.52-.29,9.7a41.8,41.8,0,0,0-.68,5.18c-.18,3.32.77,6.6,1.7,9.77,1.44,5,3.18,10.77,4.86,16.37s3.43,11.4,4.87,16.38a.64.64,0,0,1-.44.8l-.18,0"/><path class="cls-5" d="M71.87,468.62h-.12a.65.65,0,0,1-.52-.75c2.1-11.75,3.9-23.72,5.36-35.56a.66.66,0,0,1,.72-.57.64.64,0,0,1,.56.72c-1.46,11.87-3.27,23.86-5.37,35.64a.64.64,0,0,1-.63.53"/><path class="cls-5" d="M123.17,367.14a.62.62,0,0,1-.41-.14A137.57,137.57,0,0,1,104,348.78a6,6,0,0,1-1.39-2.34,2.5,2.5,0,0,1,1.16-2.84c1.5-.71,3,.67,3.52,1.12,3.62,3.27,7.2,6.53,10.66,9.68s7,6.42,10.66,9.7a.64.64,0,0,1,.05.91.67.67,0,0,1-.92.05c-3.62-3.28-7.2-6.54-10.67-9.7s-7-6.42-10.65-9.68c-.93-.84-1.61-1.14-2.09-.91a1.23,1.23,0,0,0-.46,1.37,4.61,4.61,0,0,0,1.12,1.8A135.56,135.56,0,0,0,123.57,366a.65.65,0,0,1-.4,1.15"/><path class="cls-12" d="M491.71,265.83a77.91,77.91,0,1,0,77.9-77.91,77.9,77.9,0,0,0-77.9,77.91"/><path class="cls-1" d="M544.41,224.44l74.91,40.22a4.76,4.76,0,0,1-.28,8.52l-74.91,34.17A4.75,4.75,0,0,1,537.4,303V228.63a4.76,4.76,0,0,1,7-4.19"/></g></g></svg>